<?xml version="1.0" encoding="UTF-8"?>
<!DOCTYPE svg PUBLIC "-//W3C//DTD SVG 1.1//EN" "http://www.w3.org/Graphics/SVG/1.1/DTD/svg11.dtd">
<!-- Creator: CorelDRAW X7 -->
<svg xmlns="http://www.w3.org/2000/svg" xml:space="preserve" width="12.047mm" height="11.2422mm" version="1.1" style="shape-rendering:geometricPrecision; text-rendering:geometricPrecision; image-rendering:optimizeQuality; fill-rule:evenodd; clip-rule:evenodd"
viewBox="0 0 100 93"
 xmlns:xlink="http://www.w3.org/1999/xlink">
 <defs>
  <style type="text/css">
   <![CDATA[
    .fil0 {fill:#FEFEFE}
    .fil1 {fill:#252422}
   ]]>
  </style>
 </defs>
 <g id="Layer_x0020_1">
  <metadata id="CorelCorpID_0Corel-Layer"/>
  <g id="_2379891770752">
   <path class="fil0" d="M68 47c2,0 4,1 4,3 0,2 -2,3 -4,3 -1,0 -3,-1 -3,-3 0,-2 2,-3 3,-3z"/>
   <path class="fil1" d="M60 84l3 -21c0,-1 1,-1 2,-1l7 0c1,0 2,0 2,1l3 21 -17 0zm37 3l0 3c0,0 0,0 0,0l-94 0c0,0 0,0 0,0l0 -3c0,0 0,0 0,0l94 0c0,0 0,0 0,0zm-65 -3l0 -6 3 0c2,0 3,2 3,4l0 2 -6 0zm-24 -6l0 -19c0,-2 1,-3 3,-4l6 -2c4,6 10,9 17,9 1,0 2,0 3,0l0 6c0,4 3,7 6,7l7 0 0 8c0,1 0,1 0,1l-8 0 0 -2c0,-4 -3,-7 -7,-7l-17 0c0,0 0,0 0,0l0 -10c0,-1 -1,-1 -1,-1 -1,0 -2,0 -2,1l0 10c0,2 1,3 3,3l10 0 0 6 -15 0c-3,0 -5,-3 -5,-6zm15 -26c1,-1 3,-2 3,-4l0 -2 1 1c1,1 2,2 4,2l5 0c0,0 0,0 1,0l0 10c-1,0 -2,0 -3,0 -5,0 -10,-3 -13,-7l2 0zm-2 -22l0 0c2,0 3,-1 3,-3l1 -4c1,0 2,0 2,-1 1,1 2,1 4,1 1,0 2,0 3,-1 1,1 2,1 3,1 2,0 3,0 4,-1 0,1 1,1 2,1l1 4c0,1 1,2 1,3l0 2 -2 0c-3,0 -6,3 -6,6l0 7c-1,0 -1,0 -1,0l-5 0c-1,0 -1,0 -2,0l-5 -5c-1,0 -1,-1 -1,-2l-2 -8zm-2 5c-1,0 -1,-1 -1,-1l0 -3c0,0 0,-1 0,-1l1 5 0 0zm-2 -17c0,0 -1,-1 -1,-2 0,-1 1,-2 2,-2 0,0 1,0 1,-1 0,0 0,-1 0,-1 0,0 0,-1 0,-1 0,-1 1,-2 2,-3 0,0 0,1 0,1 1,0 2,-1 2,-2 0,-1 1,-1 2,-1 0,0 0,0 0,0 1,0 1,0 1,-1 1,0 2,-1 3,-1 0,0 0,0 0,1 1,0 1,0 2,-1 0,0 1,-1 2,-1 1,0 2,1 3,1 0,1 1,1 1,1 1,-1 1,-1 1,-1 1,0 2,1 2,2 1,0 1,0 2,0 0,0 0,0 1,0 1,0 2,0 2,1 0,1 1,2 2,2 0,0 0,-1 0,-1 1,1 2,2 2,3 0,0 0,1 0,1 0,0 0,1 0,1 0,1 1,1 1,1 1,0 2,1 2,2 0,1 -1,2 -1,2 0,1 0,1 0,2 0,0 1,1 1,2 0,1 -1,2 -2,2 -1,0 -1,1 -1,2 0,0 0,0 0,0 0,0 0,1 -1,1 0,0 -1,0 -1,0l-1 -6c0,0 -1,-1 -2,-1 0,0 0,0 0,0l0 0c-1,0 -2,0 -2,-1 0,0 -1,-1 -1,-1l0 0c-1,0 -1,1 -2,1 0,1 -1,1 -2,1 0,0 -1,0 -2,-1 0,0 0,-1 -1,-1l0 0c-1,0 -1,1 -1,1 -1,1 -2,1 -2,1 -1,0 -2,0 -2,-1 -1,0 -1,-1 -2,-1l0 0c0,0 -1,1 -1,1 0,1 -1,1 -2,1l0 0c0,0 0,0 0,0 -1,0 -2,1 -2,1l-1 6c0,0 -1,0 -1,0 -1,0 -1,-1 -1,-1 0,0 0,0 0,0 0,-1 0,-2 -1,-2 -1,0 -2,-1 -2,-2 0,-1 1,-2 1,-2 0,-1 0,-1 0,-2zm31 14l1 -2c0,0 0,1 0,1l0 1 -1 0zm5 52c0,0 0,0 0,-1l0 -8 5 0 -1 9 -4 0zm44 -46l0 30c0,2 -2,4 -3,4l-16 0c0,0 0,0 0,0l-1 -9c0,-3 -2,-4 -5,-4l-7 0c-3,0 -5,1 -5,4l-1 9c0,0 -1,0 -1,0l-15 0c-2,0 -3,-2 -3,-4l0 -30c0,-2 1,-3 3,-3l51 0c1,0 3,1 3,3zm-3 37c3,0 6,-3 6,-7l0 -30c0,-3 -3,-6 -6,-6l-42 0 0 -1c0,-1 0,-2 -1,-3 1,0 1,-1 1,-2 2,-1 3,-2 3,-4 0,-1 0,-2 -1,-3 1,-1 1,-2 1,-3 0,-2 -1,-3 -3,-4 0,-1 0,-1 0,-1 0,-3 -2,-5 -5,-6 -1,-1 -2,-2 -4,-2 -1,0 -1,0 -1,0 -1,-1 -3,-2 -4,-2 0,0 0,0 -1,0 -1,-1 -2,-1 -4,-1 -1,0 -3,0 -4,1 0,0 0,0 0,0 -2,0 -3,1 -4,2 -2,0 -4,1 -4,2 -3,1 -5,3 -5,6 0,0 0,0 0,1 -2,1 -3,2 -3,4 0,1 0,2 1,3 -1,1 -1,2 -1,3 0,2 1,3 3,4 0,1 0,1 0,2 -1,0 -2,2 -2,3l0 3c0,2 2,4 5,4l0 0 0 1c1,1 2,3 3,4l0 0 0 5c0,0 0,1 0,1l-12 3c-3,1 -5,4 -5,7l0 19c0,2 1,4 2,6l-4 0c-2,0 -3,1 -3,3l0 3c0,2 1,3 3,3l94 0c2,0 3,-1 3,-3l0 -3c0,-2 -1,-3 -3,-3l-17 0 -1 -9 15 0z"/>
   <path class="fil1" d="M68 48c1,0 2,1 2,2 0,1 -1,2 -2,2 -1,0 -1,-1 -1,-2 0,-1 0,-2 1,-2zm0 7c3,0 5,-2 5,-5 0,-3 -2,-5 -5,-5 -2,0 -4,2 -4,5 0,3 2,5 4,5z"/>
  </g>
 </g>
</svg>
