<svg id="Layer_1" data-name="Layer 1" xmlns="http://www.w3.org/2000/svg" viewBox="0 0 28.8 34.14"><defs><style>.cls-1{fill:#100e09;fill-rule:evenodd;}</style></defs><title>child_care</title><path class="cls-1" d="M107.21,657.41a0.87,0.87,0,0,1-1.06.46l-4.28-1.43a0.56,0.56,0,0,1-.38-0.47l-0.15-1.33,1.55-.7,0.06,0.7a0.51,0.51,0,0,0,.34.44l3.39,1.14a0.87,0.87,0,0,1,.52,1.2h0Zm-5.41,11.65H99.46v-2.9h2.34v2.9h0Zm1.81,2.31H99.46v-1.3h2.85a1.31,1.31,0,0,1,1.31,1.3h0Zm-4.94-22.64a3.68,3.68,0,0,1,2.3-.8h0a3.68,3.68,0,0,1,2.3.8,3.83,3.83,0,0,1-4.61,0h0Zm-1.52-5.65a3.83,3.83,0,1,1,3.83,3.83h0a3.83,3.83,0,0,1-3.82-3.83h0ZM107,655.25l-1-.32-0.39-3.78a4.7,4.7,0,0,0-2.54-3.71,4.84,4.84,0,1,0-4.29,0,4.7,4.7,0,0,0-2.54,3.71l-0.49,4.74a0.51,0.51,0,0,0,.45.56h0.05a0.51,0.51,0,0,0,.5-0.45l0.49-4.74a3.7,3.7,0,0,1,.67-1.77,4.84,4.84,0,0,0,6,0,3.69,3.69,0,0,1,.67,1.77l0.34,3.33-1.06-.36-0.24-2.84a0.51,0.51,0,1,0-1,.08l0.12,1.41-1.58.72-0.08-.7a0.51,0.51,0,0,0-1,.11l0.15,1.4h0l0.18,1.69a1.57,1.57,0,0,0,1.07,1.32l3.87,1.29,0.66,6.45H95.88l0.76-7.42a0.51,0.51,0,0,0-1-.1l-0.82,8s0,0,0,.05a0.51,0.51,0,0,0,.51.51h3.13v5.72a0.51,0.51,0,0,0,.51.51h5.17a0.51,0.51,0,0,0,.51-0.51v-0.5a2.33,2.33,0,0,0-1.81-2.27v-3h3.83a0.51,0.51,0,0,0,.5-0.56l-0.69-6.68A1.88,1.88,0,0,0,107,655.25Z" transform="translate(-94.81 -638.25)"/><path class="cls-1" d="M113.34,656.44a0.89,0.89,0,0,1-.89-0.89v-1.3a0.51,0.51,0,0,0-.35-0.48l-1-.32a0.49,0.49,0,0,1,.25-0.95l1.17,0.23a0.68,0.68,0,0,1,.54.66v1.19a0.51,0.51,0,0,0,1,0v-0.24H116a0.51,0.51,0,0,0,.41-0.81l-0.89-1.19a0.48,0.48,0,0,1,.75-0.61l1.72,2,0,0a1.59,1.59,0,0,1-1.12,2.71h-3.54Zm7.36-4.11a1.35,1.35,0,1,1-1.35,1.35,1.35,1.35,0,0,1,1.35-1.35h0Zm2.41,4.11h-4.16a2.6,2.6,0,0,0,.42-0.8,2.37,2.37,0,1,0-.85-2.86L117,651.08a1.5,1.5,0,0,0-2.32,1.89l0.28,0.38h-0.91a1.69,1.69,0,0,0-1.36-1.6l-1.17-.23a1.51,1.51,0,0,0-1.75,1.1h0a1.51,1.51,0,0,0,1,1.81l0.64,0.21v0.93a1.89,1.89,0,0,0,.22.89h-1.43a0.51,0.51,0,0,0-.51.51v2.43a0.51,0.51,0,0,0,.51.51h9.26a0.51,0.51,0,1,0,0-1h-8.75v-1.42H122.6v1.42h-1.42a0.51,0.51,0,0,0,0,1h1.93a0.51,0.51,0,0,0,.51-0.51v-2.43A0.51,0.51,0,0,0,123.1,656.44Z" transform="translate(-94.81 -638.25)"/></svg>