<svg id="Layer_1" data-name="Layer 1" xmlns="http://www.w3.org/2000/svg" viewBox="0 0 24.99 12.49"><defs><style>.cls-1{fill:#171110;fill-rule:evenodd;}</style></defs><title>company_car</title><path class="cls-1" d="M102.2,409a1.56,1.56,0,1,0,1.56,1.56A1.56,1.56,0,0,0,102.2,409h0Zm0,4.16a2.6,2.6,0,1,1,2.6-2.6A2.61,2.61,0,0,1,102.2,413.19Z" transform="translate(-97.52 -400.7)"/><path class="cls-1" d="M117.82,409a1.56,1.56,0,1,0,1.56,1.56,1.56,1.56,0,0,0-1.56-1.56h0Zm0,4.16a2.6,2.6,0,1,1,2.6-2.6A2.61,2.61,0,0,1,117.82,413.19Z" transform="translate(-97.52 -400.7)"/><path class="cls-1" d="M119.9,411.11a0.52,0.52,0,1,1,0-1,1.51,1.51,0,0,0,1.56-1.56c0-1-.55-2.6-2.08-2.6H118.5a2.47,2.47,0,0,1-1.54-.54l-4.1-3.28a1.57,1.57,0,0,0-1-.34h-7.53a1.56,1.56,0,0,0-1.3.7l-0.89,1.33a2.46,2.46,0,0,1-2.05,1.1,1.56,1.56,0,0,0-1.56,1.56v2.08a1.56,1.56,0,0,0,1.56,1.56,0.52,0.52,0,1,1,0,1,2.61,2.61,0,0,1-2.6-2.6v-2.08a2.61,2.61,0,0,1,2.6-2.6,1.43,1.43,0,0,0,1.19-.63l0.89-1.33a2.6,2.6,0,0,1,2.17-1.16h7.53a2.62,2.62,0,0,1,1.63.57l4.1,3.28a1.42,1.42,0,0,0,.89.31h0.88c2,0,3.12,1.88,3.12,3.64A2.55,2.55,0,0,1,119.9,411.11Z" transform="translate(-97.52 -400.7)"/><path class="cls-1" d="M115.74,411.11H104.29a0.52,0.52,0,0,1,0-1h11.45A0.52,0.52,0,1,1,115.74,411.11Z" transform="translate(-97.52 -400.7)"/><path class="cls-1" d="M114.7,405.9h-5.21a0.52,0.52,0,0,1-.52-0.52V403.3a0.52,0.52,0,0,1,1,0v1.56h4.69A0.52,0.52,0,0,1,114.7,405.9Z" transform="translate(-97.52 -400.7)"/><path class="cls-1" d="M107.41,405.9h-4.16a0.52,0.52,0,0,1-.47-0.75l1-2.08a0.52,0.52,0,1,1,.93.47l-0.67,1.33h3.32A0.52,0.52,0,0,1,107.41,405.9Z" transform="translate(-97.52 -400.7)"/><path class="cls-1" d="M111.57,408h-1a0.52,0.52,0,0,1,0-1h1A0.52,0.52,0,1,1,111.57,408Z" transform="translate(-97.52 -400.7)"/></svg>