<?xml version="1.0" encoding="UTF-8"?>
<!DOCTYPE svg PUBLIC "-//W3C//DTD SVG 1.1//EN" "http://www.w3.org/Graphics/SVG/1.1/DTD/svg11.dtd">
<!-- Creator: CorelDRAW X7 -->
<svg xmlns="http://www.w3.org/2000/svg" xml:space="preserve" width="5.9994mm" height="9.0437mm" version="1.1" style="shape-rendering:geometricPrecision; text-rendering:geometricPrecision; image-rendering:optimizeQuality; fill-rule:evenodd; clip-rule:evenodd"
viewBox="0 0 26 39"
 xmlns:xlink="http://www.w3.org/1999/xlink">
 <defs>
  <style type="text/css">
   <![CDATA[
    .fil1 {fill:black}
    .fil0 {fill:white}
   ]]>
  </style>
 </defs>
 <g id="Layer_x0020_1">
  <metadata id="CorelCorpID_0Corel-Layer"/>
  <g id="_2379821697520">
   <path class="fil0" d="M11 32c0,3 -2,4 -4,4 -2,0 -4,-1 -4,-4 0,-2 2,-3 4,-3 2,0 4,1 4,3z"/>
   <path class="fil1" d="M7 32c0,1 0,1 0,1 -1,0 -1,0 -1,-1 0,0 0,0 1,0 0,0 0,0 0,0z"/>
   <path class="fil0" d="M15 36c0,2 1,3 2,3l0 -5c-1,0 -2,1 -2,2z"/>
   <path class="fil1" d="M18 36c0,1 0,1 -1,1 0,0 0,0 0,-1 0,0 0,0 0,0 1,0 1,0 1,0z"/>
   <path class="fil1" d="M23 36l0 0 0 -9c0,-2 -2,-3 -3,-3l-2 0 0 -2c0,-1 -1,-1 -2,-1l0 0 0 -4c3,0 7,-3 7,-7 0,0 -1,-1 -1,-1 0,0 -1,1 -1,1 0,3 -2,6 -6,6 0,-1 -1,-1 -2,-1l-3 0c-2,0 -3,1 -3,2l0 4 -1 0 0 -1c0,-2 -1,-3 -3,-3l0 0c0,0 -1,0 -1,0 0,1 1,1 1,1l0 0c1,0 2,1 2,2l0 6c-3,1 -5,3 -5,6 0,4 3,7 7,7 4,0 7,-3 7,-7 0,0 0,-1 -1,-1l4 0 0 2c-2,1 -3,2 -3,3 0,2 2,3 3,3 2,0 3,-1 3,-2l3 0c1,0 1,0 1,-1 0,0 0,0 -1,0zm-3 -11c1,0 1,1 1,2l0 9 -1 0c0,-1 -1,-2 -2,-3l0 -8 2 0zm-4 -3c0,0 1,0 1,0l0 1 -1 0 0 -1 0 0zm-7 1l0 -1 5 0 0 1 -5 0zm0 -6c0,-1 0,-1 1,-1l3 0c1,0 1,0 1,1l0 4 -5 0 0 -4zm-2 5l0 1 -1 0 0 -1 1 0zm-1 2l11 0 0 4 -5 0c-2,-2 -3,-2 -5,-2 0,0 -1,0 -1,0l0 -2zm1 14c-3,0 -6,-2 -6,-6 0,-3 3,-5 6,-5 3,0 5,2 5,5 0,4 -2,6 -5,6zm6 -8c0,-1 0,-1 -1,-1l5 0 0 1 -4 0zm4 8c-1,0 -1,-1 -1,-2 0,-1 0,-1 1,-1 1,0 2,0 2,1 0,1 -1,2 -2,2z"/>
   <path class="fil1" d="M11 14c3,0 5,-2 5,-4 0,-2 -1,-4 -3,-4 1,-1 1,-1 1,-2 0,-1 -1,-2 -3,-2 -1,0 -2,1 -2,2 0,1 0,1 1,2 -2,0 -3,2 -3,4 0,2 2,4 4,4zm3 -5c-1,0 -3,-1 -4,-2 1,0 1,0 1,0 2,0 3,1 3,2zm-4 -5c0,0 1,-1 1,-1 1,0 2,1 2,1 0,1 -1,1 -2,1 0,0 -1,0 -1,-1zm-1 4c2,1 3,2 5,2 0,1 -1,2 -3,2 -1,0 -2,-1 -2,-2 0,-1 0,-2 0,-2z"/>
   <path class="fil1" d="M7 28c-3,0 -5,2 -5,4 0,3 2,5 5,5 2,0 4,-2 4,-5 0,-2 -2,-4 -4,-4zm0 8c-2,0 -4,-2 -4,-4 0,-1 2,-3 4,-3 2,0 3,2 3,3 0,2 -1,4 -3,4z"/>
   <path class="fil1" d="M22 0c-2,0 -4,2 -4,4 0,2 2,4 4,4 2,0 4,-2 4,-4 0,-2 -2,-4 -4,-4zm0 7c-2,0 -3,-1 -3,-3 0,-2 1,-3 3,-3 2,0 3,1 3,3 0,2 -1,3 -3,3z"/>
  </g>
 </g>
</svg>
