<svg id="Layer_1" data-name="Layer 1" xmlns="http://www.w3.org/2000/svg" viewBox="0 0 28.8 22.26"><defs><style>.cls-1{fill:#100e09;fill-rule:evenodd;}</style></defs><title>diversity_program</title><path class="cls-1" d="M109.2,615a3.57,3.57,0,1,0-2.55-1,3.59,3.59,0,0,0,2.55,1h0Zm-1.74-5.33a2.46,2.46,0,1,1-.53,2.68A2.46,2.46,0,0,1,107.45,609.69Z" transform="translate(-94.81 -603.87)"/><path class="cls-1" d="M119.47,613.45a5,5,0,0,0-.88-0.08h-1.53a5.06,5.06,0,0,0-4.62,3,5,5,0,0,0-1.3-.51,5,5,0,0,0-1.17-.14h-1.53a5.12,5.12,0,0,0-.87.07,5,5,0,0,0-1.6.57,5,5,0,0,0-4.6-3H99.84a5,5,0,0,0-5,5v4.82a0.57,0.57,0,0,0,.57.57h8v1.79a0.57,0.57,0,0,0,.57.57h10.44a0.57,0.57,0,0,0,.57-0.57v-1.79H123a0.57,0.57,0,0,0,.57-0.57V618.4a5,5,0,0,0-4.14-4.95h0Zm-0.88,1.05h0.08L118,617.44a0.31,0.31,0,0,1-.27.25h0a0.31,0.31,0,0,1-.29-0.25l-0.68-2.91h1.86ZM110,616.86h0.31l-0.93,3-0.93-3H110Zm-8.6-2.36h0.11l-0.94,3.43-0.94-3.43h1.77Zm-5.42,3.89a3.91,3.91,0,0,1,2.54-3.65l1.49,5.4v2.5h-4V618.4h0Zm5.16,4.25v-2.5l1.5-5.44a4,4,0,0,1,2.43,2.35,5,5,0,0,0-1.61,3.69v1.9H101.1Zm3.44-1.9a3.88,3.88,0,0,1,2.73-3.72l1.5,4.88V625h-4.23v-4.25h0Zm9.31,4.25H109.9v-3.09l1.47-4.79a3.88,3.88,0,0,1,2.48,3.63V625h0Zm-0.47-7.94a4,4,0,0,1,2.25-2.29l0.68,2.92a1.47,1.47,0,0,0,.83,1v4H115v-1.9a5,5,0,0,0-1.61-3.69h0Zm9.1,5.58h-4.21v-4a1.46,1.46,0,0,0,.82-1l0.7-3a3.88,3.88,0,0,1,2.69,3.7v4.25Z" transform="translate(-94.81 -603.87)"/><path class="cls-1" d="M117.79,612.69a3.59,3.59,0,0,0,1.79-6.7v-0.54a1.57,1.57,0,1,0-3.14,0v0.32a3.59,3.59,0,0,0,1.35,6.92h0Zm0-1.13a2.46,2.46,0,0,1-2.3-1.6,5.45,5.45,0,0,0,2.76-1.31,4.16,4.16,0,0,0,1.88,1.24,2.4,2.4,0,0,1-.59.95,2.45,2.45,0,0,1-1.74.71h0Zm1.73-4.2a2.43,2.43,0,0,1,.7,1.37,3.28,3.28,0,0,1-1.23-.94,5.16,5.16,0,0,0,.35-0.6l0.19,0.17h0ZM118,605a0.44,0.44,0,0,1,.44.44v0.12a3.62,3.62,0,0,0-.66-0.06h-0.22v-0.07A0.44,0.44,0,0,1,118,605h0Zm-0.86,1.72a2.49,2.49,0,0,1,1.17,0,3.87,3.87,0,0,1-.47.73,4.18,4.18,0,0,1-2.5,1.41A2.46,2.46,0,0,1,117.16,606.72Z" transform="translate(-94.81 -603.87)"/><path class="cls-1" d="M100.6,612.69a3.54,3.54,0,0,0,2.52-1,3.66,3.66,0,0,0,1.07-2.53h0a3.59,3.59,0,1,0-3.59,3.59h0Zm-1.74-5.32a2.46,2.46,0,0,1,4.2,1.73,2.53,2.53,0,0,1-.74,1.75,2.42,2.42,0,0,1-1.72.71A2.46,2.46,0,0,1,98.86,607.36Z" transform="translate(-94.81 -603.87)"/><path class="cls-1" d="M120.85,617.58h-1.07a0.57,0.57,0,0,0,0,1.13h1.07A0.57,0.57,0,1,0,120.85,617.58Z" transform="translate(-94.81 -603.87)"/><path class="cls-1" d="M111.41,620.1a0.57,0.57,0,0,0,0,1.13h1.07a0.57,0.57,0,1,0,0-1.13h-1.07Z" transform="translate(-94.81 -603.87)"/><path class="cls-1" d="M103.87,618a0.57,0.57,0,0,0-.57-0.57h-0.82a0.57,0.57,0,1,0,0,1.13h0.82A0.57,0.57,0,0,0,103.87,618Z" transform="translate(-94.81 -603.87)"/></svg>