<svg id="Layer_1" data-name="Layer 1" xmlns="http://www.w3.org/2000/svg" viewBox="0 0 30 30"><defs><style>.cls-1{fill:#171110;fill-rule:evenodd;}</style></defs><title>employee_assistant_program</title><path class="cls-1" d="M99.77,77.65a0.59,0.59,0,1,0-1,.68l0.88,1.24a0.59,0.59,0,1,0,1-.68Z" transform="translate(-94.21 -49.82)"/><path class="cls-1" d="M106.45,74.54a8.63,8.63,0,0,0-3.65-5.42l-2-1.38a2.06,2.06,0,0,0-2.61.27V60.95a2,2,0,0,0-3.92,0V70a5.68,5.68,0,0,0,1.05,3.3l1,1.47a0.59,0.59,0,0,0,1-.68l-1-1.47A4.51,4.51,0,0,1,95.38,70V60.95a0.79,0.79,0,1,1,1.58,0v7.21A4.09,4.09,0,0,0,98,70.9L98.11,71l1.28,1.36L100,73h0l0.9,1a0.59,0.59,0,1,0,.85-0.8l-1.48-1.57-1.34-1.43h0a1,1,0,0,1,0-1.3,0.89,0.89,0,0,1,1.15-.15l2,1.38a7.46,7.46,0,0,1,3.16,4.69l1,4.58a0.59,0.59,0,0,0,.57.47H107a0.59,0.59,0,0,0,.45-0.69Z" transform="translate(-94.21 -49.82)"/><path class="cls-1" d="M98.55,75.94a0.59,0.59,0,0,0-1,.68h0a0.59,0.59,0,0,0,1-.68h0Z" transform="translate(-94.21 -49.82)"/><path class="cls-1" d="M123.48,59.42a2,2,0,0,0-3.19,1.53V68a2.06,2.06,0,0,0-2.61-.27l-2,1.38A8.63,8.63,0,0,0,112,74.54l-1,4.58a0.59,0.59,0,0,0,.45.69h0.12a0.59,0.59,0,0,0,.57-0.47l1-4.58a7.46,7.46,0,0,1,3.16-4.69l2-1.38a0.89,0.89,0,0,1,1.15.15,1,1,0,0,1,0,1.29h0l-2.82,3a0.59,0.59,0,1,0,.85.8l2.79-3,0.09-.1a4.09,4.09,0,0,0,1.06-2.75V60.95a0.79,0.79,0,1,1,1.58,0V70a4.51,4.51,0,0,1-.84,2.62l-4.43,6.24a0.59,0.59,0,0,0,1,.68l4.43-6.24a5.68,5.68,0,0,0,1.05-3.3V60.95A2,2,0,0,0,123.48,59.42Z" transform="translate(-94.21 -49.82)"/><path class="cls-1" d="M112.7,62.12L112.41,62l0.88-.21a0.59,0.59,0,0,0,.48-0.58h0V61.07l0.33,0,0.33,0v0.2a0.59,0.59,0,0,0,.45.57l1.49,0.36a1.58,1.58,0,0,1,1.21,1.54v0.51h-2.38a3.59,3.59,0,0,0-2.49-2.12h0Zm-3.49,1.51-0.69-1.56V61.64a3.43,3.43,0,0,0,1.37,0v0.42l-0.69,1.56h0Zm-3.49-1.51a3.59,3.59,0,0,0-2.49,2.12h-2.37V63.73a1.58,1.58,0,0,1,1.21-1.54l1.49-.36a0.59,0.59,0,0,0,.45-0.57v-0.2l0.33,0,0.33,0v0.19a0.59,0.59,0,0,0,.48.58L106,62l-0.3.07h0Zm-1.38-6.46a1.45,1.45,0,0,1,1.33.88,4.27,4.27,0,0,1-2,.48h-0.81a1.45,1.45,0,0,1,1.45-1.35h0ZM107,56.41a2.25,2.25,0,0,1,4.47-.36l-1-.58a0.59,0.59,0,0,0-.75.13,2.52,2.52,0,0,1-1.94.91H107v-0.1h0Zm7.12-.75A1.45,1.45,0,0,1,115.54,57h-0.81a4.27,4.27,0,0,1-2-.48,1.45,1.45,0,0,1,1.33-.88h0Zm-1.45,2.81V58.38s0-.06,0-0.09V57.77a5.44,5.44,0,0,0,2.08.41h0.82v0.28a1.45,1.45,0,1,1-2.9,0h0Zm-1.57,2.74a2.76,2.76,0,0,1,.47-0.16l1-.25V60.61a2.64,2.64,0,0,1-.5-0.46,3.45,3.45,0,0,1-1,1v0h0ZM107,58.29V57.67h0.8a3.69,3.69,0,0,0,2.49-1l1.21,0.71v1a2.25,2.25,0,0,1-4.5-.09h0Zm-4.08.17V58.19h0.82a5.44,5.44,0,0,0,2.08-.41v0.69a1.45,1.45,0,0,1-2.9,0h0Zm4.46,2.74v0a3.45,3.45,0,0,1-1-1,2.64,2.64,0,0,1-.51.46V60.8l1,0.25a2.76,2.76,0,0,1,.47.16h0Zm7.53,7.11a0.59,0.59,0,0,0,.59-0.59V65.62c0-.07,0-0.14,0-0.22h2.7a0.59,0.59,0,0,0,.59-0.59V63.73A2.75,2.75,0,0,0,116.63,61l-1-.25V60.61a2.62,2.62,0,0,0,1.12-2.15V57.11a2.62,2.62,0,0,0-4.32-2,3.42,3.42,0,0,0-6.34,0,2.62,2.62,0,0,0-4.33,2v1.36a2.62,2.62,0,0,0,1.12,2.15V60.8l-1,.25a2.74,2.74,0,0,0-2.11,2.68v1.09a0.59,0.59,0,0,0,.59.59H103c0,0.07,0,.14,0,0.21v2.11a0.59,0.59,0,0,0,.59.59h3.52a0.59,0.59,0,1,0,0-1.17h-0.61V65.93a0.59,0.59,0,0,0-1.17,0v1.21h-1.16V65.62A2.43,2.43,0,0,1,106,63.26l1.61-.39,1.08,2.45a0.59,0.59,0,0,0,.54.35h0a0.59,0.59,0,0,0,.54-0.35l1.07-2.44,1.6,0.38a2.43,2.43,0,0,1,1.87,2.37v1.52h-1.16V65.93a0.59,0.59,0,1,0-1.17,0v1.21H111.3a0.59,0.59,0,0,0,0,1.17h3.58Z" transform="translate(-94.21 -49.82)"/><path class="cls-1" d="M109.21,67.14a0.59,0.59,0,1,0,.41.17A0.59,0.59,0,0,0,109.21,67.14Z" transform="translate(-94.21 -49.82)"/><path class="cls-1" d="M109.21,51.87a0.59,0.59,0,0,0,.59-0.59V50.4a0.59,0.59,0,1,0-1.17,0v0.88A0.59,0.59,0,0,0,109.21,51.87Z" transform="translate(-94.21 -49.82)"/><path class="cls-1" d="M106.22,52.56a0.59,0.59,0,1,0,.83-0.83l-0.61-.61a0.59,0.59,0,1,0-.83.83Z" transform="translate(-94.21 -49.82)"/><path class="cls-1" d="M111.78,52.74a0.58,0.58,0,0,0,.41-0.17L112.8,52a0.59,0.59,0,0,0-.83-0.83l-0.61.61A0.59,0.59,0,0,0,111.78,52.74Z" transform="translate(-94.21 -49.82)"/></svg>