<?xml version="1.0" encoding="UTF-8"?>
<!DOCTYPE svg PUBLIC "-//W3C//DTD SVG 1.1//EN" "http://www.w3.org/Graphics/SVG/1.1/DTD/svg11.dtd">
<!-- Creator: CorelDRAW X7 -->
<svg xmlns="http://www.w3.org/2000/svg" xml:space="preserve" width="10.16mm" height="5.3976mm" version="1.1" style="shape-rendering:geometricPrecision; text-rendering:geometricPrecision; image-rendering:optimizeQuality; fill-rule:evenodd; clip-rule:evenodd"
viewBox="0 0 72 38"
 xmlns:xlink="http://www.w3.org/1999/xlink">
 <defs>
  <style type="text/css">
   <![CDATA[
    .fil1 {fill:#252422}
    .fil0 {fill:white}
   ]]>
  </style>
 </defs>
 <g id="Layer_x0020_1">
  <metadata id="CorelCorpID_0Corel-Layer"/>
  <g id="_2379820952528">
   <path class="fil0" d="M29 27l1 -10 -27 0 2 10c0,3 3,6 6,6l11 0c3,0 6,-3 7,-6z"/>
   <path class="fil1" d="M11 20l-2 0c-1,0 -1,1 -1,1 0,1 0,2 1,2l2 0c1,0 1,-1 1,-2 0,0 0,-1 -1,-1z"/>
   <path class="fil1" d="M18 20l-2 0c-1,0 -1,1 -1,1 0,1 0,2 1,2l2 0c1,0 1,-1 1,-2 0,0 0,-1 -1,-1z"/>
   <path class="fil1" d="M71 32l-1 0 0 -17c0,-1 -1,-2 -1,-3 -1,-1 -2,-1 -3,-1l-7 2c-1,-1 -2,-2 -3,-3 -2,0 -3,0 -4,1 -1,1 -2,3 -1,4l-11 3c0,0 -1,1 -1,1 0,0 0,1 0,1l0 12 -12 0c1,-1 1,-1 1,-2l8 0c1,0 1,0 1,-1l0 -8c0,0 0,-1 -1,-1l-5 0 0 -3c0,0 0,-1 0,-1 -1,0 -1,0 -1,0l-13 0 0 -1 5 0c1,0 2,-1 3,-2 1,0 1,-2 1,-3 -1,-1 -2,-2 -3,-2l0 -1 6 0c1,0 2,-1 3,-1 1,-1 1,-2 1,-3 -1,-2 -2,-3 -4,-3l-13 0c-2,0 -3,1 -4,3 0,1 1,3 3,4l0 1 -9 0c-1,0 -2,0 -3,1 -1,1 -1,2 -1,3 1,2 2,3 4,3l3 0 0 1 -6 0c0,0 0,0 0,0 -1,0 -1,1 -1,1l1 10c1,2 1,3 3,5l-5 0c0,0 -1,0 -1,1l0 2c0,2 2,3 3,3l66 0c2,0 3,-1 3,-3l0 -2c0,-1 0,-1 -1,-1zm-29 -4l26 0 0 2 -26 0 0 -2zm26 -2l-26 0 0 -2 26 0 0 2zm0 -5l-26 0 0 -1 26 0 0 1zm-13 -9c1,0 1,1 1,2 0,1 0,2 -1,2 -1,0 -2,-1 -2,-2 0,-1 1,-2 2,-2zm-3 5c1,1 2,1 3,1 1,0 3,-1 3,-2l8 -2c1,-1 1,0 1,0 0,0 1,0 1,1l0 3 -19 0 3 -1zm-17 6l0 5 -6 0c1,0 1,-1 1,-1l0 -4 5 0zm-25 -11l-4 0c-1,0 -1,0 -1,0 0,-1 -1,-1 0,-1 0,-1 1,-1 1,-1l10 0c0,0 1,0 1,-1l0 -3c0,-1 -1,-1 -1,-1 -1,0 -1,-1 -1,-1 0,0 0,0 0,-1 0,0 0,-1 1,-1l13 0c1,0 1,1 1,1 0,1 0,1 0,1 0,0 0,1 -1,1l-8 0c0,0 -1,0 -1,1l0 3c0,1 1,1 1,1l1 0c1,0 1,0 2,1 0,0 0,0 -1,1 0,0 -1,0 -1,0l-6 0c-1,0 -1,1 -1,2l0 2 -4 0 0 -2c0,-1 0,-2 -1,-2zm-4 14l-1 -8 23 0 0 8c-1,3 -3,6 -6,6l-11 0c-3,0 -5,-3 -5,-6zm64 9c0,1 -1,1 -1,1l-66 0c0,0 -1,0 -1,-1l0 -1 68 0 0 1z"/>
  </g>
 </g>
</svg>
