<svg id="Layer_1" data-name="Layer 1" xmlns="http://www.w3.org/2000/svg" viewBox="0 0 28.8 28.8"><defs><style>.cls-1{fill-rule:evenodd;}</style></defs><title>gym_membership</title><path class="cls-1" d="M112.06,440a0.56,0.56,0,1,0,.4.16A0.57,0.57,0,0,0,112.06,440Z" transform="translate(-94.81 -419.5)"/><path class="cls-1" d="M121.53,419.5a2.08,2.08,0,0,0-2.08,2.08v1.58H99v-1.58a2.08,2.08,0,1,0-4.16,0v4.33a2.08,2.08,0,1,0,4.16,0v-1.62h2.57a1.68,1.68,0,0,0-.1.56v4.55a2.82,2.82,0,0,0,2.81,2.81h1.52v14.1a2,2,0,0,0,2,2h0a2,2,0,0,0,1.43-.6,2,2,0,0,0,3.41-1.38v-3.62a0.56,0.56,0,0,0-1.13,0v3.62a0.86,0.86,0,1,1-1.73,0v-7.77a0.56,0.56,0,1,0-1.12,0v7.77a0.86,0.86,0,0,1-.86.86h0a0.86,0.86,0,0,1-.86-0.86v-9.67h4.59v1.67a0.56,0.56,0,0,0,1.13,0v-2.09a0.56,0.56,0,0,0,0-.14v-3.86h1.52A2.82,2.82,0,0,0,117,429.4v-4.55a1.68,1.68,0,0,0-.1-0.56h2.57v1.62a2.08,2.08,0,1,0,4.16,0v-4.33a2.08,2.08,0,0,0-2.08-2.08h0Zm-23.68,6.41a1,1,0,1,1-1.91,0v-4.33a1,1,0,1,1,1.91,0v4.33h0Zm10,1.52a1.41,1.41,0,1,1,1.41,1.41,1.41,1.41,0,0,1-1.41-1.41h0Zm1.41-2.53a2.53,2.53,0,0,0-2.1,3.94h-2.28v-4a1.68,1.68,0,0,0-.1-0.56h9a1.68,1.68,0,0,0-.1.56v4h-2.28a2.53,2.53,0,0,0-2.1-3.94h0Zm6.64,0v4.55a1.69,1.69,0,0,1-1.69,1.69h-2.08a0.56,0.56,0,0,0-.56.56v3.86h-4.61v-3.86a0.56,0.56,0,0,0-.56-0.56h-2.08a1.69,1.69,0,0,1-1.69-1.69v-4.55a0.56,0.56,0,1,1,1.12,0v4.55a0.56,0.56,0,0,0,.56.56h9.9a0.56,0.56,0,0,0,.56-0.56v-4.55a0.56,0.56,0,0,1,1.13,0h0Zm6.64,1.06a1,1,0,0,1-1.91,0v-4.33a1,1,0,1,1,1.91,0v4.33Z" transform="translate(-94.81 -419.5)"/></svg>