<svg id="Layer_1" data-name="Layer 1" xmlns="http://www.w3.org/2000/svg" viewBox="0 0 18.77 19.29"><defs><style>.cls-1{fill-rule:evenodd;}</style></defs><title>health_care_insurance</title><path class="cls-1" d="M116,811l-6.65,1.16-1.89-1.84a0.3,0.3,0,0,0-.24,0h-3.35c0-.34-0.15-0.34-0.34-0.34H99.83v0.67h2v4.69h-2v0.67h3.69a0.58,0.58,0,0,0,.34-0.34h0.93l3.58,1.74a1.08,1.08,0,0,0,.49.09,1.11,1.11,0,0,0,.55-0.16l7.31-4.27a1.1,1.1,0,0,0-.74-2h0Zm-12.79,4.3h-0.67v-4.69h0.67v4.69h0Zm13.2-2.85-7.31,4.27a0.42,0.42,0,0,1-.4,0L105,814.93a0.35,0.35,0,0,0-.15,0h-1v-4h3.21l2.64,2.59a0.56,0.56,0,0,1,.18.41,0.6,0.6,0,0,1-.61.6,0.62,0.62,0,0,1-.43-0.19l-1.73-1.74-0.47.47,1.73,1.73a1.28,1.28,0,1,0,1.81-1.82l-0.27-.27,6.18-1.07a0.43,0.43,0,0,1,.5.42A0.42,0.42,0,0,1,116.37,812.43Z" transform="translate(-99.83 -798.16)"/><path class="cls-1" d="M118.6,800.53v-0.67h-3.69c-0.18,0-.34,0-0.34.34h-0.93l-3.58-1.89a1.09,1.09,0,0,0-1,0l-7.31,4.24a1.08,1.08,0,0,0,.55,2l0.19,0,6.65-1.16,1.89,2a0.51,0.51,0,0,0,.24.2h3.35a0.58,0.58,0,0,0,.34.34h3.69v-0.67h-2v-4.69h2Zm-7.24,4.36-2.64-2.74a0.73,0.73,0,0,1-.18-0.48,0.64,0.64,0,0,1,.61-0.64,0.6,0.6,0,0,1,.43.17l1.73,1.73,0.47-.48-1.73-1.74a1.27,1.27,0,0,0-.91-0.38,1.28,1.28,0,0,0-.91,2.19l0.27,0.27-6.18,1.08a0.42,0.42,0,0,1-.35-0.09,0.43,0.43,0,0,1-.15-0.33,0.42,0.42,0,0,1,.21-0.37l7.31-4.27a0.43,0.43,0,0,1,.4,0l3.65,1.93a0.66,0.66,0,0,0,.15.14h1v4h-3.21Zm3.88-4.36h0.67v4.69h-0.67v-4.69Z" transform="translate(-99.83 -798.16)"/><path class="cls-1" d="M109.21,806.14a1.45,1.45,0,0,0-1.93,0,1.32,1.32,0,0,0,0,1.92l1.7,1.62a0.33,0.33,0,0,0,.23.09,0.34,0.34,0,0,0,.23-0.09l1.7-1.62a1.32,1.32,0,0,0,0-1.92,1.45,1.45,0,0,0-1.93,0h0Zm1.47,1.48-1.47,1.4-1.47-1.4a0.64,0.64,0,0,1,0-1,0.77,0.77,0,0,1,1,0l0.19,0.18a0.34,0.34,0,0,0,.46,0l0.19-.18a0.77,0.77,0,0,1,1,0A0.65,0.65,0,0,1,110.68,807.62Z" transform="translate(-99.83 -798.16)"/><path class="cls-1" d="M103.95,806.77l0.66,0.13a4.79,4.79,0,0,1,.16-0.6l-0.64-.22A5.49,5.49,0,0,0,103.95,806.77Z" transform="translate(-99.83 -798.16)"/><path class="cls-1" d="M104,808.9a5.46,5.46,0,0,0,.19.69l0.63-.22a4.5,4.5,0,0,1-.17-0.6Z" transform="translate(-99.83 -798.16)"/><path class="cls-1" d="M105.32,805.18l-0.56-.37a5.63,5.63,0,0,0-.36.62l0.6,0.3A4.59,4.59,0,0,1,105.32,805.18Z" transform="translate(-99.83 -798.16)"/><path class="cls-1" d="M103.85,807.81c0,0.13,0,.26,0,0.39l0.67,0c0-.11,0-0.23,0-0.34s0-.19,0-0.28l-0.67,0C103.85,807.59,103.85,807.7,103.85,807.81Z" transform="translate(-99.83 -798.16)"/><path class="cls-1" d="M113.1,810.43l0.55,0.38a5.2,5.2,0,0,0,.36-0.62l-0.6-.3A4.58,4.58,0,0,1,113.1,810.43Z" transform="translate(-99.83 -798.16)"/><path class="cls-1" d="M113.64,806.24a4.62,4.62,0,0,1,.17.6l0.66-.14a5.42,5.42,0,0,0-.19-0.69Z" transform="translate(-99.83 -798.16)"/><path class="cls-1" d="M113.66,809.31l0.64,0.22a5.55,5.55,0,0,0,.18-0.69l-0.66-.13A4.8,4.8,0,0,1,113.66,809.31Z" transform="translate(-99.83 -798.16)"/><path class="cls-1" d="M114.57,807.81c0-.13,0-0.26,0-0.39l-0.67,0c0,0.11,0,.23,0,0.34s0,0.19,0,.28l0.67,0C114.57,808,114.57,807.91,114.57,807.81Z" transform="translate(-99.83 -798.16)"/></svg>