<?xml version="1.0" encoding="UTF-8"?>
<!DOCTYPE svg PUBLIC "-//W3C//DTD SVG 1.1//EN" "http://www.w3.org/Graphics/SVG/1.1/DTD/svg11.dtd">
<!-- Creator: CorelDRAW X7 -->
<svg xmlns="http://www.w3.org/2000/svg" xml:space="preserve" width="13.716mm" height="12.5106mm" version="1.1" style="shape-rendering:geometricPrecision; text-rendering:geometricPrecision; image-rendering:optimizeQuality; fill-rule:evenodd; clip-rule:evenodd"
viewBox="0 0 168 153"
 xmlns:xlink="http://www.w3.org/1999/xlink">
 <defs>
  <style type="text/css">
   <![CDATA[
    .fil0 {fill:#FEFEFE}
    .fil1 {fill:#292525}
   ]]>
  </style>
 </defs>
 <g id="Layer_x0020_1">
  <metadata id="CorelCorpID_0Corel-Layer"/>
  <g id="_2379901381712">
   <path class="fil0" d="M16 48c5,0 9,5 9,10l4 14 -4 14 -19 -10 0 -28 10 0z"/>
   <path class="fil1" d="M138 75c2,0 3,1 3,3 0,1 -1,2 -3,2 -1,0 -2,-1 -2,-2 0,-2 1,-3 2,-3z"/>
   <path class="fil1" d="M138 65c2,0 3,1 3,3 0,1 -1,2 -3,2 -1,0 -2,-1 -2,-2 0,-2 1,-3 2,-3z"/>
   <path class="fil1" d="M131 119l0 -4 32 0 0 4 -32 0zm-39 -19l0 -10 34 0 0 10 -34 0zm34 -20l0 5 -39 0 0 -5 39 0zm5 -15c0,-3 2,-5 4,-5l16 0c3,0 5,2 5,5l0 20 -25 0 0 -20zm12 45l-12 0 0 -20 25 0 0 7c0,7 -6,13 -13,13zm22 0l-10 0c3,-3 5,-8 5,-13l0 -32c0,-5 -4,-9 -9,-9l-16 0c-5,0 -9,4 -9,9l0 10 -42 0c0,0 -1,0 -1,1 -1,0 -1,1 -1,2l0 10c0,1 1,2 2,2l3 0 0 61c0,1 1,2 2,2 2,0 3,-1 3,-2l0 -46 34 0 0 46c0,1 1,2 3,2 1,0 2,-1 2,-2l0 -27 32 0 0 27c0,1 1,2 2,2 2,0 3,-1 3,-2l0 -39c0,-1 -1,-2 -3,-2z"/>
   <path class="fil1" d="M119 110l-7 0c-1,0 -2,1 -2,2l0 36 -7 0c-2,0 -3,1 -3,3 0,1 1,2 3,2l9 0c1,0 3,-1 3,-2l0 -36 4 0c1,0 2,-2 2,-3 0,-1 -1,-2 -2,-2z"/>
   <path class="fil1" d="M126 20c1,0 1,-1 1,-2 0,-2 1,-4 2,-6 2,-1 4,-2 6,-2 1,0 2,0 3,-1 1,-2 3,-3 5,-3 2,0 5,1 6,3 1,1 1,1 2,1 2,0 5,1 6,2 2,2 3,4 2,6 0,1 1,2 1,2 2,2 3,4 3,6 0,2 -1,4 -3,6 -1,-9 -8,-16 -17,-16 -9,0 -16,7 -17,16 -1,-2 -2,-4 -2,-6 0,-2 1,-4 2,-6zm5 13c0,-6 5,-12 12,-12 7,0 13,6 13,12 0,7 -6,13 -13,13 -7,0 -12,-6 -12,-13zm-5 10c2,2 4,3 7,4 2,2 6,4 10,4 4,0 8,-2 11,-4 2,-1 5,-2 7,-4 2,-2 3,-5 3,-8 3,-3 4,-6 4,-9 0,-3 -1,-6 -4,-9 0,-3 -1,-6 -3,-8 -3,-3 -6,-4 -9,-4 -2,-2 -5,-4 -9,-4 -3,0 -6,2 -8,4 -4,0 -7,1 -9,4 -2,2 -4,5 -4,8 -2,3 -3,6 -3,9 0,3 1,6 3,9 0,3 2,6 4,8z"/>
   <path class="fil1" d="M55 22c2,0 3,0 5,-1 1,1 3,1 5,1 1,0 2,-1 2,-2 0,-2 -1,-3 -2,-3 -1,0 -2,0 -3,-1 -1,-1 -1,-1 -2,-1 -1,0 -2,0 -2,1 -1,1 -2,1 -3,1 -1,0 -3,1 -3,3 0,1 2,2 3,2z"/>
   <path class="fil1" d="M60 5c7,0 12,5 12,12 0,7 -5,13 -12,13 -7,0 -12,-6 -12,-13 0,-7 5,-12 12,-12zm0 29c9,0 17,-7 17,-17 0,-9 -8,-17 -17,-17 -10,0 -17,8 -17,17 0,10 7,17 17,17z"/>
   <path class="fil1" d="M72 79l-24 0 0 -31c0,-2 1,-4 4,-4l5 0 0 27c0,2 1,3 3,3 1,0 2,-1 2,-3l0 -27 6 0c2,0 4,2 4,4l0 31zm-12 14c-6,0 -11,-4 -12,-9l24 0c-1,5 -6,9 -12,9zm-32 -9c1,-3 4,-5 7,-5l8 0 0 2c0,1 0,2 0,3l-15 0zm0 -26c0,-4 3,-7 7,-7l8 0 0 23 -8 0c-3,0 -5,1 -7,2l0 -18zm-20 26l0 -5 8 0c3,0 6,2 7,5l-15 0zm88 -48l-12 0c-1,0 -2,1 -2,3 0,1 1,2 2,2l12 0c1,0 2,1 2,2 0,2 -1,3 -2,3l-19 0c-1,-4 -5,-7 -9,-7l-16 0c-4,0 -8,3 -9,7l-8 0c-4,0 -7,2 -10,5 -2,-3 -5,-5 -9,-5l-10 0c-2,0 -3,1 -3,2l0 8 -1 0c-1,0 -2,1 -2,2 0,2 1,3 2,3l7 0c1,0 2,-1 2,-3 0,-1 -1,-2 -2,-2l-1 0 0 -5 8 0c4,0 7,3 7,7l0 18c-2,-1 -5,-2 -7,-2l-8 0 0 -6c0,-1 -1,-2 -2,-2 -2,0 -3,1 -3,2l0 18c0,1 1,3 3,3l38 0c1,1 2,3 4,4l0 53 -9 2c-1,1 -2,2 -1,3 0,1 1,2 2,2 0,0 1,0 1,0l10 -3c1,-1 1,-2 1,-3l0 -50c3,1 5,1 8,1 2,0 5,0 7,-1l0 50c0,1 1,2 2,3l10 3c0,0 0,0 0,0 2,0 2,-1 3,-2 0,-1 0,-2 -2,-3l-8 -2 0 -53c3,-3 5,-7 5,-12l0 -30 19 0c4,0 7,-3 7,-8 0,-4 -3,-7 -7,-7z"/>
  </g>
 </g>
</svg>
