<?xml version="1.0" encoding="UTF-8"?>
<!DOCTYPE svg PUBLIC "-//W3C//DTD SVG 1.1//EN" "http://www.w3.org/Graphics/SVG/1.1/DTD/svg11.dtd">
<!-- Creator: CorelDRAW X7 -->
<svg xmlns="http://www.w3.org/2000/svg" xml:space="preserve" width="10.922mm" height="10.9222mm" version="1.1" style="shape-rendering:geometricPrecision; text-rendering:geometricPrecision; image-rendering:optimizeQuality; fill-rule:evenodd; clip-rule:evenodd"
viewBox="0 0 103 103"
 xmlns:xlink="http://www.w3.org/1999/xlink">
 <defs>
  <style type="text/css">
   <![CDATA[
    .fil4 {fill:#FEFEFE}
    .fil0 {fill:#9CBA60}
    .fil1 {fill:#6AAA3F}
    .fil2 {fill:#59A13E}
    .fil3 {fill:#292525}
   ]]>
  </style>
 </defs>
 <g id="Layer_x0020_1">
  <metadata id="CorelCorpID_0Corel-Layer"/>
  <g id="_2379821705712">
   <polygon class="fil0" points="5,0 9,0 9,4 5,4 "/>
   <polygon class="fil0" points="5,11 9,11 9,14 5,14 "/>
   <path class="fil0" d="M0 5l4 0 0 4 -4 0c0,0 0,-4 0,-4z"/>
   <path class="fil0" d="M11 5l3 0 0 4 -3 0c0,0 0,-4 0,-4z"/>
   <polygon class="fil1" points="94,88 97,88 97,92 94,92 "/>
   <polygon class="fil1" points="94,99 97,99 97,103 94,103 "/>
   <polygon class="fil1" points="88,94 92,94 92,97 88,97 "/>
   <polygon class="fil1" points="99,94 103,94 103,97 99,97 "/>
   <polygon class="fil1" points="67,27 71,27 71,30 67,30 "/>
   <polygon class="fil1" points="64,34 67,34 67,37 64,37 "/>
   <polygon class="fil1" points="71,34 74,34 74,37 71,37 "/>
   <polygon class="fil2" points="32,69 35,69 35,73 32,73 "/>
   <polygon class="fil2" points="28,62 32,62 32,66 28,66 "/>
   <polygon class="fil2" points="35,62 39,62 39,66 35,66 "/>
   <path class="fil3" d="M51 13c0,0 0,0 0,0l-27 15c-1,0 -1,0 -1,1l0 42c0,0 0,1 1,1l27 18c0,1 1,1 1,0l27 -18c0,0 1,-1 1,-1l0 -42c0,-1 -1,-1 -1,-1l-27 -15c0,0 -1,0 -1,0zm0 81c-1,0 -2,0 -2,-1l-27 -18c-2,-1 -3,-3 -3,-4l0 -42c0,-2 1,-4 3,-4l27 -15c1,0 3,0 5,0l26 15c2,0 3,2 3,4l0 42c0,1 -1,3 -2,4l-27 18c-1,1 -2,1 -3,1zm0 -89c0,0 0,0 0,0l-34 19c-1,0 -1,0 -1,1l0 49c0,1 0,1 0,2l35 23c0,0 1,0 1,0l34 -23c0,-1 1,-1 1,-2l0 -49c0,-1 -1,-1 -1,-1l-34 -19c0,0 -1,0 -1,0zm0 98c-1,0 -2,-1 -2,-1l-35 -24c-1,0 -2,-2 -2,-4l0 -49c0,-2 1,-4 3,-4l34 -19c1,-1 3,-1 5,0l34 19c1,0 2,2 2,4l0 49c0,2 -1,4 -2,4l-34 24c-1,0 -2,1 -3,1z"/>
   <polygon class="fil3" points="49,67 53,67 53,92 49,92 "/>
   <polygon class="fil3" points="49,11 53,11 53,32 49,32 "/>
   <path class="fil3" d="M46 67l11 0 0 -12 12 0 0 -11 -12 0 0 -12 -11 0 0 12 -12 0 0 11 12 0 0 12zm14 4l-18 0 0 -12 -12 0 0 -18 12 0 0 -12 18 0 0 12 12 0 0 18 -12 0 0 12z"/>
   <polygon class="fil4" points="7,0 7,4 "/>
   <polygon class="fil3" points="5,0 9,0 9,4 5,4 "/>
   <polygon class="fil4" points="7,11 7,14 "/>
   <polygon class="fil3" points="5,11 9,11 9,14 5,14 "/>
   <polygon class="fil4" points="2,5 2,9 "/>
   <polygon class="fil3" points="0,5 4,5 4,9 0,9 "/>
   <polygon class="fil4" points="12,5 12,9 "/>
   <polygon class="fil3" points="11,5 14,5 14,9 11,9 "/>
   <polygon class="fil4" points="95,88 95,92 "/>
   <polygon class="fil3" points="94,88 97,88 97,92 94,92 "/>
   <polygon class="fil4" points="95,99 95,103 "/>
   <polygon class="fil3" points="94,99 97,99 97,103 94,103 "/>
   <polygon class="fil4" points="90,94 90,97 "/>
   <polygon class="fil3" points="88,94 92,94 92,97 88,97 "/>
   <polygon class="fil4" points="101,94 101,97 "/>
   <polygon class="fil3" points="99,94 103,94 103,97 99,97 "/>
   <polygon class="fil4" points="69,27 69,30 "/>
   <polygon class="fil3" points="67,27 71,27 71,30 67,30 "/>
   <polygon class="fil4" points="65,34 65,37 "/>
   <polygon class="fil3" points="64,34 67,34 67,37 64,37 "/>
   <polygon class="fil4" points="72,34 72,37 "/>
   <polygon class="fil3" points="71,34 74,34 74,37 71,37 "/>
   <polygon class="fil4" points="34,73 34,69 "/>
   <polygon class="fil3" points="32,69 35,69 35,73 32,73 "/>
   <polygon class="fil4" points="30,66 30,62 "/>
   <polygon class="fil3" points="28,62 32,62 32,66 28,66 "/>
   <polygon class="fil4" points="37,66 37,62 "/>
   <polygon class="fil3" points="35,62 39,62 39,66 35,66 "/>
  </g>
 </g>
</svg>
