<svg id="Layer_1" data-name="Layer 1" xmlns="http://www.w3.org/2000/svg" viewBox="0 0 30.84 30.84"><defs><style>.cls-1{fill:#171110;fill-rule:evenodd;}</style></defs><title>meternity_leave</title><path class="cls-1" d="M123.09,25a2.1,2.1,0,0,0-1.2-1.38l-0.14-.05V16.08a0.84,0.84,0,0,1,1.68,0V18a0.6,0.6,0,0,0,.6.6h0a0.6,0.6,0,0,0,.6-0.6V16.08a2,2,0,0,0-4.09,0v7.39a2.11,2.11,0,0,0-.88.45l-4.2,3.65a8.19,8.19,0,0,0-2.82,6.19v3.42a0.6,0.6,0,1,0,1.2,0V33.76a7,7,0,0,1,2.41-5.28l4.2-3.65a0.91,0.91,0,0,1,1.33,1.22l-3.53,4.87a0.6,0.6,0,1,0,1,.71l3.53-4.87A2.1,2.1,0,0,0,123.09,25Z" transform="translate(-93.79 -6.95)"/><path class="cls-1" d="M124,21.77h0a0.6,0.6,0,0,0-.6.6v6.35a7.09,7.09,0,0,1-1,3.71l-2.73,4.45a0.6,0.6,0,0,0,1,.63l2.73-4.45a8.3,8.3,0,0,0,1.22-4.34V22.37A0.6,0.6,0,0,0,124,21.77Z" transform="translate(-93.79 -6.95)"/><path class="cls-1" d="M124,19.41a0.6,0.6,0,1,0,.43.18A0.6,0.6,0,0,0,124,19.41Z" transform="translate(-93.79 -6.95)"/><path class="cls-1" d="M103,27.57l-4.2-3.65a2.11,2.11,0,0,0-.88-0.45V16.08a2,2,0,0,0-4.09,0V28.72A8.3,8.3,0,0,0,95,33.05l2.73,4.45a0.6,0.6,0,0,0,1-.63L96,32.43a7.09,7.09,0,0,1-1-3.71V16.08a0.84,0.84,0,0,1,1.68,0v7.45l-0.14.05a2.11,2.11,0,0,0-.87,3.18l3.53,4.87a0.6,0.6,0,0,0,1-.71l-3.53-4.87A0.91,0.91,0,0,1,98,24.84l4.2,3.65a7,7,0,0,1,2.41,5.28v3.42a0.6,0.6,0,1,0,1.2,0V33.76A8.19,8.19,0,0,0,103,27.57Z" transform="translate(-93.79 -6.95)"/><path class="cls-1" d="M110.91,22a2,2,0,0,1-.2-1.53v0a11.6,11.6,0,0,0,.33-4.25h0L111,15.56a4.56,4.56,0,0,1,.13-1.67,3.14,3.14,0,1,1,6.07,1.63v0A23.79,23.79,0,0,1,114.37,22a2,2,0,0,1-3.46-.06h0Zm4.48,0.7a25,25,0,0,0,3-6.8v0a4.35,4.35,0,1,0-8.4-2.25,5.76,5.76,0,0,0-.16,2.11l0.06,0.59a10.4,10.4,0,0,1-.3,3.81v0a3.22,3.22,0,0,0,2.28,3.94,3.27,3.27,0,0,0,.84.11A3.2,3.2,0,0,0,115.39,22.66Z" transform="translate(-93.79 -6.95)"/><path class="cls-1" d="M114.77,9.33a0.6,0.6,0,1,0-.43-0.18A0.6,0.6,0,0,0,114.77,9.33Z" transform="translate(-93.79 -6.95)"/><path class="cls-1" d="M116.73,10a0.6,0.6,0,1,0-.43-0.18A0.6,0.6,0,0,0,116.73,10Z" transform="translate(-93.79 -6.95)"/><path class="cls-1" d="M118.12,11.2a0.6,0.6,0,1,0-.43-0.18A0.61,0.61,0,0,0,118.12,11.2Z" transform="translate(-93.79 -6.95)"/><path class="cls-1" d="M118.74,12.72a0.6,0.6,0,1,0-.18-0.43A0.61,0.61,0,0,0,118.74,12.72Z" transform="translate(-93.79 -6.95)"/><path class="cls-1" d="M111.65,8.32a0.33,0.33,0,0,1,.2-0.16h0.09a0.34,0.34,0,0,1,.32.25h0a0.34,0.34,0,1,1-.62-0.08h0Zm-0.48,1.5a1.54,1.54,0,1,0-.72-0.94A1.53,1.53,0,0,0,111.17,9.82Z" transform="translate(-93.79 -6.95)"/><path class="cls-1" d="M107.51,24.7a2,2,0,0,1-3.46.06,23.79,23.79,0,0,1-2.82-6.47v0a3.14,3.14,0,1,1,6.07-1.63,4.56,4.56,0,0,1,.13,1.67l-0.06.59a11.59,11.59,0,0,0,.33,4.25v0a2,2,0,0,1-.2,1.53h0Zm1.36-1.87a10.39,10.39,0,0,1-.3-3.81l0.06-.59a5.75,5.75,0,0,0-.16-2.11,4.35,4.35,0,1,0-8.4,2.25v0a25,25,0,0,0,3,6.8,3.2,3.2,0,0,0,2.72,1.51,3.25,3.25,0,0,0,.84-0.11,3.22,3.22,0,0,0,2.28-3.94v0Z" transform="translate(-93.79 -6.95)"/><path class="cls-1" d="M103.66,12.07a0.6,0.6,0,1,0-.43-0.18A0.61,0.61,0,0,0,103.66,12.07Z" transform="translate(-93.79 -6.95)"/><path class="cls-1" d="M101.69,12.73a0.6,0.6,0,1,0-.43-0.18A0.61,0.61,0,0,0,101.69,12.73Z" transform="translate(-93.79 -6.95)"/><path class="cls-1" d="M100.31,13.94a0.6,0.6,0,1,0-.43-0.18A0.61,0.61,0,0,0,100.31,13.94Z" transform="translate(-93.79 -6.95)"/><path class="cls-1" d="M99.26,15.64a0.6,0.6,0,1,0-.43-0.18A0.61,0.61,0,0,0,99.26,15.64Z" transform="translate(-93.79 -6.95)"/><path class="cls-1" d="M106.16,11.15a0.34,0.34,0,0,1,.33-0.25h0.09a0.34,0.34,0,1,1-.41.24h0Zm-0.07,1.58a1.55,1.55,0,0,0,.4.05A1.55,1.55,0,1,0,106.08,12.72Z" transform="translate(-93.79 -6.95)"/><path class="cls-1" d="M101,32.67a0.6,0.6,0,1,0,.43.18A0.61,0.61,0,0,0,101,32.67Z" transform="translate(-93.79 -6.95)"/></svg>