<?xml version="1.0" encoding="UTF-8"?>
<!DOCTYPE svg PUBLIC "-//W3C//DTD SVG 1.1//EN" "http://www.w3.org/Graphics/SVG/1.1/DTD/svg11.dtd">
<!-- Creator: CorelDRAW X7 -->
<svg xmlns="http://www.w3.org/2000/svg" xml:space="preserve" width="9.1084mm" height="9.1065mm" version="1.1" style="shape-rendering:geometricPrecision; text-rendering:geometricPrecision; image-rendering:optimizeQuality; fill-rule:evenodd; clip-rule:evenodd"
viewBox="0 0 58 58"
 xmlns:xlink="http://www.w3.org/1999/xlink">
 <defs>
  <style type="text/css">
   <![CDATA[
    .fil0 {fill:#FEFEFE}
    .fil1 {fill:#252422}
   ]]>
  </style>
 </defs>
 <g id="Layer_x0020_1">
  <metadata id="CorelCorpID_0Corel-Layer"/>
  <g id="_2379808597216">
   <path class="fil0" d="M18 32c1,0 1,0 2,0 2,0 4,-2 6,-2 1,0 2,0 3,1 1,-1 2,-1 3,-1 3,0 4,2 6,2 1,0 1,0 2,0 1,0 1,0 0,0 0,2 -2,4 -5,4 -3,0 -5,0 -6,-2 -1,2 -3,2 -6,2 -2,0 -4,-2 -5,-4 0,0 0,0 0,0z"/>
   <path class="fil0" d="M29 50c-2,-1 -5,-10 -5,-10 0,0 -1,2 -1,5 -3,-4 -3,-10 -3,-10l9 -1 9 1c0,0 1,6 -3,10 0,-3 -1,-5 -1,-5 0,0 -3,9 -5,10l0 0z"/>
   <path class="fil1" d="M4 5l0 0 0 0zm-1 2l12 0c0,-1 -1,-1 -1,-1 -1,0 -1,0 -1,0 -1,0 -1,0 -1,-1 -1,-2 -2,-3 -4,-3 -1,0 -3,1 -3,3 0,0 -1,1 -1,1 0,0 -1,0 -1,1zm14 2l-16 0c0,0 0,0 -1,0 0,-1 0,-1 0,-1 0,-2 1,-4 3,-4 1,-3 3,-4 5,-4 3,0 5,1 6,3 0,0 0,0 0,0 2,0 4,2 4,5 0,0 0,0 0,1 0,0 -1,0 -1,0z"/>
   <path class="fil1" d="M34 53l0 0c-1,0 -1,0 -1,-1 0,-1 0,-1 1,-1l0 0c0,0 1,0 1,1 0,1 -1,1 -1,1z"/>
   <path class="fil1" d="M42 53l-4 0c-1,0 -2,0 -2,-1 0,-1 1,-1 2,-1l4 0c1,0 1,0 1,1 0,1 0,1 -1,1z"/>
   <path class="fil1" d="M34 49l0 0c-1,0 -1,-1 -1,-1 0,-1 0,-2 1,-2l0 0c0,0 1,1 1,2 0,0 -1,1 -1,1z"/>
   <path class="fil1" d="M57 58l0 0c0,0 -1,0 -1,-1 0,0 1,-1 1,-1l0 0c1,0 1,1 1,1 0,1 0,1 -1,1z"/>
   <path class="fil1" d="M1 58l0 0c0,0 -1,0 -1,-1 0,0 1,-1 1,-1l0 0c1,0 1,1 1,1 0,1 0,1 -1,1z"/>
   <path class="fil1" d="M25 27c-1,0 -1,-1 -1,-1 0,-1 0,-2 1,-2 1,0 1,1 1,2 0,0 0,1 -1,1z"/>
   <path class="fil1" d="M34 27c-1,0 -2,-1 -2,-1 0,-1 1,-2 2,-2 0,0 1,1 1,2 0,0 -1,1 -1,1z"/>
   <path class="fil1" d="M34 15c0,0 -1,0 -1,0 -1,-1 -2,-2 -4,-2 -1,0 -3,1 -4,2 0,0 -1,0 -1,0 -1,-1 -1,-2 0,-2 1,-1 3,-2 5,-2 2,0 4,1 6,2 0,0 0,1 0,2 0,0 -1,0 -1,0z"/>
   <path class="fil1" d="M32 18c0,0 0,0 0,0 -1,0 -2,-1 -3,-1 -1,0 -2,1 -2,1 -1,1 -1,0 -2,0 0,-1 0,-1 0,-2 1,-1 3,-1 4,-1 2,0 3,0 4,1 1,1 1,1 0,2 0,0 0,0 -1,0z"/>
   <path class="fil1" d="M41 17c-1,-3 -3,-6 -5,-7 1,-2 3,-3 5,-3 4,0 7,3 7,6 1,0 1,1 2,1 0,-1 1,-1 1,-1 2,0 4,2 5,4l-15 0zm0 8c0,1 0,2 -1,2 -1,0 -1,0 -1,1l0 3c0,0 0,0 -1,0 0,0 -1,0 -2,-1 -1,-1 -2,-1 -4,-1 -1,0 -2,0 -3,1 -1,-1 -2,-1 -3,-1 -2,0 -3,0 -4,1 -1,1 -1,1 -2,1 0,0 0,0 0,0l0 -3c0,-1 -1,-1 -2,-1 0,0 -1,-1 -1,-2 0,0 1,-1 1,-1 1,0 2,-1 2,-1l0 -4c0,-5 4,-9 9,-9 5,0 10,4 10,9 0,0 0,4 0,4 0,0 0,1 1,1 1,0 1,1 1,1zm1 20c2,0 2,2 2,3l0 8 -14 0 0 -5c2,-1 3,-4 4,-6 0,0 0,1 0,1 1,0 1,0 2,-1 1,0 1,-1 2,-2l4 2zm-17 -5c0,-1 0,-1 -1,-1 0,0 -1,0 -1,1 0,0 0,0 -1,1 0,-1 -1,-3 -1,-4 1,0 2,1 2,1 3,0 5,-1 6,-2 2,1 3,2 6,2 1,0 1,-1 2,-1 0,1 0,3 -1,4 0,-1 -1,-1 -1,-1 0,-1 0,-1 -1,-1 0,0 -1,0 -1,1 -1,3 -3,7 -4,9 -1,-2 -3,-6 -4,-9zm-5 -6c1,0 2,-1 3,-2 1,0 2,-1 3,-1 1,0 1,0 2,1 1,0 2,0 2,0 1,-1 2,-1 2,-1 1,0 2,1 3,1 1,1 2,2 3,2 -1,0 -2,1 -3,1 -2,0 -4,0 -5,-2 0,0 0,0 -1,0 0,0 0,0 -1,0 -1,2 -2,2 -5,2 -1,0 -2,-1 -3,-1zm8 22l-14 0 0 -8c0,-1 1,-3 2,-3l5 -2c0,1 1,2 2,2 0,1 0,1 1,1 0,0 0,-1 1,-1 1,2 2,5 3,6l0 5 0 0zm23 -45c0,0 0,0 -1,0 -1,-4 -5,-6 -9,-6 -3,0 -5,1 -7,3 -2,0 -3,-1 -5,-1 -6,0 -12,6 -12,12l0 3c-1,0 -2,2 -2,3 0,2 1,4 2,4l0 2c0,0 0,0 0,0 0,0 0,1 0,2 0,0 0,0 0,0 0,1 1,2 2,3 0,0 0,2 1,5l-5 2c-2,0 -3,3 -3,5l0 8 -3 0 0 -25c0,-2 -2,-4 -5,-4 -2,0 -4,2 -4,4l0 3c0,1 1,2 1,2 1,0 1,-1 1,-2l0 -3c0,-1 1,-2 2,-2 1,0 2,1 2,2l0 25 -1 0c-1,0 -1,1 -1,1 0,1 0,1 1,1l48 0c1,0 2,0 2,-1 0,0 -1,-1 -2,-1l-6 0 0 -8c0,-2 -2,-5 -4,-5l-4 -2c0,-3 1,-5 1,-5 1,-1 1,-2 2,-3 0,0 0,0 0,0 0,-1 0,-2 -1,-2l0 -2c2,0 3,-2 3,-4 0,-1 -1,-3 -3,-3l0 -3 16 0c1,0 1,0 1,0 0,0 0,0 0,-1 0,-4 -3,-7 -7,-7z"/>
   <path class="fil1" d="M54 40l-1 0 0 -1c0,-1 0,-1 -1,-1 -1,0 -1,0 -1,1l0 1 -1 0c0,0 -1,0 -1,1 0,1 1,1 1,1l1 0 0 1c0,0 0,1 1,1 1,0 1,-1 1,-1l0 -1 1 0c1,0 1,0 1,-1 0,-1 0,-1 -1,-1z"/>
   <path class="fil1" d="M57 25l0 0 0 -1c0,-1 -1,-1 -2,-1 0,0 -1,0 -1,1l0 1 0 0c-1,0 -2,0 -2,1 0,0 1,1 2,1l0 0 0 1c0,0 1,1 1,1 1,0 2,-1 2,-1l0 -1 0 0c1,0 1,-1 1,-1 0,-1 0,-1 -1,-1z"/>
   <path class="fil1" d="M12 18l-1 0 0 -1c0,0 0,-1 -1,-1 -1,0 -1,1 -1,1l0 1 -1 0c0,0 -1,0 -1,1 0,1 1,1 1,1l1 0 0 1c0,1 0,1 1,1 1,0 1,0 1,-1l0 -1 1 0c1,0 1,0 1,-1 0,-1 0,-1 -1,-1z"/>
  </g>
 </g>
</svg>
