<svg id="Layer_1" data-name="Layer 1" xmlns="http://www.w3.org/2000/svg" xmlns:xlink="http://www.w3.org/1999/xlink" viewBox="0 0 93.09 100.11"><defs><style>.cls-1{fill:none;}.cls-2{clip-path:url(#clip-path);}</style><clipPath id="clip-path" transform="translate(-1453 -1450)"><rect class="cls-1" x="1453" y="1450" width="93.84" height="101"/></clipPath></defs><title>asterisk</title><g class="cls-2"><path d="M1545.79,1515.14a7.86,7.86,0,0,0-3.88-5.05l-17.34-10,17.34-10a7.86,7.86,0,0,0,3.88-5.05,8.22,8.22,0,0,0-.82-6.36l-4.17-7.17a7.87,7.87,0,0,0-5.05-3.88,8.21,8.21,0,0,0-6.35.82l-17.34,10v-20a8.46,8.46,0,0,0-8.34-8.34h-8.34a8.46,8.46,0,0,0-8.34,8.34v20l-17.34-10a8.21,8.21,0,0,0-6.35-.81,7.88,7.88,0,0,0-5.05,3.88l-4.17,7.17a8.21,8.21,0,0,0-.82,6.36,7.87,7.87,0,0,0,3.88,5.05l17.34,10-17.34,10a7.86,7.86,0,0,0-3.88,5.05,8.21,8.21,0,0,0,.82,6.36l4.17,7.17a7.88,7.88,0,0,0,5.05,3.88,8.22,8.22,0,0,0,6.35-.82l17.34-10v20a8.46,8.46,0,0,0,8.34,8.34h8.34a8.46,8.46,0,0,0,8.34-8.34v-20l17.34,10a8.21,8.21,0,0,0,6.35.81,7.88,7.88,0,0,0,5.05-3.88l4.17-7.17a8.22,8.22,0,0,0,.82-6.36h0Zm0,0" transform="translate(-1453 -1450)"/></g></svg>