<svg id="Layer_1" data-name="Layer 1" xmlns="http://www.w3.org/2000/svg" viewBox="0 0 23.56 20.39"><defs><style>.cls-1{fill:#171110;fill-rule:evenodd;}</style></defs><title>sick_leave</title><path class="cls-1" d="M113.87,283.09h-2.22a0.48,0.48,0,0,0-.49.48v2.22h-2.36v-2.22a0.48,0.48,0,0,0-.48-0.48h-2.22v-2.35h2.22a0.48,0.48,0,0,0,.48-0.49V278h2.35v2.22a0.49,0.49,0,0,0,.49.49h2.22v2.36h0Zm0.24-3.32h-2v-2a0.72,0.72,0,0,0-.72-0.73h-2.86a0.72,0.72,0,0,0-.72.72v2h-2a0.72,0.72,0,0,0-.73.72h0v2.85a0.72,0.72,0,0,0,.72.72h2v2a0.72,0.72,0,0,0,.72.73h2.85a0.72,0.72,0,0,0,.72-0.72h0v-2h2a0.72,0.72,0,0,0,.73-0.72h0v-2.85a0.72,0.72,0,0,0-.72-0.72h0Z" transform="translate(-98.21 -270.27)"/><path class="cls-1" d="M120.8,287.32a2.18,2.18,0,0,1-2.38,2.38H101.56a2.18,2.18,0,0,1-2.38-2.38V276.78a2.18,2.18,0,0,1,2.38-2.38h16.87a2.18,2.18,0,0,1,2.38,2.38v10.54h0Zm-14.28-15.59a0.45,0.45,0,0,1,.52-0.52h5.91a0.45,0.45,0,0,1,.52.52v1.7h-6.95v-1.7h0Zm11.91,1.71h-4v-1.71a1.41,1.41,0,0,0-1.36-1.46H107a1.41,1.41,0,0,0-1.41,1.34s0,0.08,0,.12v1.7h-4a3.14,3.14,0,0,0-3.35,3.35v10.55a3.14,3.14,0,0,0,3.35,3.35h16.87a3.14,3.14,0,0,0,3.35-3.35V276.78a3.14,3.14,0,0,0-3.35-3.35h0Z" transform="translate(-98.21 -270.27)"/></svg>