<svg id="Layer_1" data-name="Layer 1" xmlns="http://www.w3.org/2000/svg" viewBox="0 0 28.8 19.63"><defs><style>.cls-1{fill-rule:evenodd;}</style></defs><title>vision_insurance</title><path class="cls-1" d="M123.3,382.62a1,1,0,0,1,0,1.42c-0.31.28-7.6,7-14.09,7s-13.78-6.69-14.09-7a1,1,0,0,1,0-1.42,36.46,36.46,0,0,1,4.55-3.48,4,4,0,0,1,0-.54c0-1.93,2.74-6,3.3-6.8a1,1,0,0,1,1.59,0,35,35,0,0,1,2.44,4.09,11.07,11.07,0,0,1,2.25-.25c6.49,0,13.78,6.69,14.09,7h0Zm-2.14.71a34.72,34.72,0,0,0-5.69-3.87,7.35,7.35,0,0,1,0,7.74,34.68,34.68,0,0,0,5.69-3.87h0Zm-6.52,0a5.42,5.42,0,0,0-6.87-5.23,2.78,2.78,0,0,1,.05.5,4.09,4.09,0,0,1-4,4.09,5.51,5.51,0,0,0,0,.65,5.43,5.43,0,0,0,10.85,0h0Zm-10.91-2.58a2.16,2.16,0,0,0,2.15-2.15c0-.71-1-2.67-2.15-4.48-1.14,1.81-2.15,3.77-2.15,4.48a2.16,2.16,0,0,0,2.15,2.15h0Zm-0.78,6.45a7.31,7.31,0,0,1-1.1-3.87,7.42,7.42,0,0,1,.08-1.06,4.12,4.12,0,0,1-1.51-1.28,37.59,37.59,0,0,0-3.15,2.35A34.72,34.72,0,0,0,102.95,387.19Z" transform="translate(-94.81 -371.38)"/><path class="cls-1" d="M109.21,380.76a2.57,2.57,0,1,1-2.57,2.57,2.57,2.57,0,0,1,2.57-2.57h0Zm0.63,2.57a0.63,0.63,0,1,0-.63.63A0.63,0.63,0,0,0,109.84,383.33Z" transform="translate(-94.81 -371.38)"/></svg>