<svg id="Layer_1" data-name="Layer 1" xmlns="http://www.w3.org/2000/svg" viewBox="0 0 30.72 30.72"><defs><style>.cls-1{fill-rule:evenodd;}</style></defs><title>work_from_home</title><path class="cls-1" d="M124.06-28.58h-4.18v-0.51a5.63,5.63,0,0,0-5.62-5.63,5.63,5.63,0,0,0-4,1.68v-8.34a1.54,1.54,0,0,0-1.54-1.54H95.39a1.54,1.54,0,0,0-1.54,1.54v9.22a1.54,1.54,0,0,0,1.54,1.54H99.8l-0.68,2H94.36a0.51,0.51,0,0,0-.51.51v2a0.51,0.51,0,0,0,.51.51h2.43L93.87-12.82a0.51,0.51,0,0,0,.38.61h2.16a0.51,0.51,0,0,0,.5-0.4l0.38-1.65h4.38l0.38,1.65a0.51,0.51,0,0,0,.5.4h2a0.51,0.51,0,0,0,.51-0.51,0.51,0.51,0,0,0,0-.12L102.18-25.5h6.44V-24h-2.3a1.79,1.79,0,0,0-1.79,1.79,1.79,1.79,0,0,0,1.79,1.79H109l-2.33,6.2a1.47,1.47,0,0,0,.86,1.89,1.47,1.47,0,0,0,1.89-.86l1.75-4.68h3.31l-1.16,5a0.51,0.51,0,0,0,.38.61h2.16a0.51,0.51,0,0,0,.5-0.4l0.2-.88,0.12,0.32a1.47,1.47,0,0,0,1.89.86,1.47,1.47,0,0,0,.86-1.89l0-.06h1.71l0.38,1.65a0.51,0.51,0,0,0,.5.4h2a0.51,0.51,0,0,0,.51-0.51h0a0.51,0.51,0,0,0,0-.11l-2.93-12.68h2.43a0.51,0.51,0,0,0,.51-0.51v-2a0.51,0.51,0,0,0-.51-0.51h0Zm-15.45-.51v0.51H105l-0.68-2h4.54a5.61,5.61,0,0,0-.22,1.55h0ZM95.39-41.89H108.7a0.51,0.51,0,0,1,.51.51v7.68H94.88v-7.68a0.51,0.51,0,0,1,.51-0.51h0Zm-0.51,9.73v-0.51h14.34v0.51a0.51,0.51,0,0,1-.51.51H95.39a0.51,0.51,0,0,1-.51-0.51h0Zm6,1.54h2.33l0.68,2h-3.7l0.68-2h0ZM95-13.22L97.85-25.5h1l-2,8.59-0.47,2L96-13.22H95Zm4.48-10.52L101-17.31H98l1.48-6.43h0Zm-2,8.47,0.24-1h3.44l0.24,1H97.53Zm6.43,2h-1l-0.38-1.65-0.47-2-2-8.59h1L104-13.22h0Zm-2.43-13.31H94.88v-1h13.74v1h-7.08Zm4,4.35a0.77,0.77,0,0,1,.77-0.77h2.82a0.51,0.51,0,0,0,.51-0.51v-5.63a4.61,4.61,0,0,1,4.61-4.61,4.61,4.61,0,0,1,4.61,4.61V-24a2.56,2.56,0,0,1-1.5,2.32l-0.14.06-0.34.11-0.13,0a2.51,2.51,0,0,1-.45,0h-10a0.77,0.77,0,0,1-.77-0.77h0Zm11.58,1.79,0-.08h0.05l0,0.1h0Zm-8.66,6.88a0.46,0.46,0,0,1-.62.23,0.47,0.47,0,0,1-.17-0.13,0.44,0.44,0,0,1-.05-0.41l2.46-6.57h1l-2.58,6.88h0Zm3.67-6.88H114l0.58,1.54h-3l0.58-1.54h0Zm3.33,7.17h-1l0.84-3.64,0.61,1.65-0.46,2h0Zm3-.19a0.46,0.46,0,0,1-.65.07,0.46,0.46,0,0,1-.13-0.17L116-18l-0.29-.77-0.59-1.58h1l2.46,6.56a0.44,0.44,0,0,1-.05.41h0Zm-0.67-5.25L118.31-21a3.62,3.62,0,0,0,1-1.06l1.1,4.76h-2.15l-0.51-1.34h0ZM119-15.27l-0.38-1h2l0.24,1H119Zm4.38,2h-1L122-14.87l-0.47-2-1.69-7.32V-25.5h0.7l2.84,12.29h0Zm0.13-13.31h-3.67v-1h3.67v1Z" transform="translate(-93.85 42.91)"/></svg>