<?xml version="1.0" encoding="UTF-8"?>
<!DOCTYPE svg PUBLIC "-//W3C//DTD SVG 1.0//EN" "http://www.w3.org/TR/2001/REC-SVG-20010904/DTD/svg10.dtd">
<!-- Creator: CorelDRAW X7 -->
<svg xmlns="http://www.w3.org/2000/svg" xml:space="preserve" width="3.3625in" height="2.82335in" version="1.0" style="shape-rendering:geometricPrecision; text-rendering:geometricPrecision; image-rendering:optimizeQuality; fill-rule:evenodd; clip-rule:evenodd"
viewBox="0 0 180 151"
 xmlns:xlink="http://www.w3.org/1999/xlink">
 <defs>
  <style type="text/css">
   <![CDATA[
    .fil11 {fill:#003F56;fill-rule:nonzero}
    .fil12 {fill:#00577E;fill-rule:nonzero}
    .fil9 {fill:#0F7CA3;fill-rule:nonzero}
    .fil8 {fill:#16232A;fill-rule:nonzero}
    .fil21 {fill:#1D2A33;fill-rule:nonzero}
    .fil4 {fill:#263F5D;fill-rule:nonzero}
    .fil22 {fill:#3A6690;fill-rule:nonzero}
    .fil20 {fill:#445460;fill-rule:nonzero}
    .fil28 {fill:#5B3126;fill-rule:nonzero}
    .fil2 {fill:#9CD1F9;fill-rule:nonzero}
    .fil31 {fill:#A1913B;fill-rule:nonzero}
    .fil23 {fill:#CC3F50;fill-rule:nonzero}
    .fil10 {fill:#D8C1A7;fill-rule:nonzero}
    .fil14 {fill:#DB4459;fill-rule:nonzero}
    .fil18 {fill:#DF911F;fill-rule:nonzero}
    .fil30 {fill:#E4CF36;fill-rule:nonzero}
    .fil16 {fill:#F27280;fill-rule:nonzero}
    .fil19 {fill:#F6AF3D;fill-rule:nonzero}
    .fil15 {fill:#FB9CAA;fill-rule:nonzero}
    .fil17 {fill:#FFC672;fill-rule:nonzero}
    .fil1 {fill:white;fill-rule:nonzero}
    .fil5 {fill:white;fill-rule:nonzero;fill-opacity:0.200000}
    .fil13 {fill:#7474ED;fill-rule:nonzero;fill-opacity:0.301961}
    .fil27 {fill:url(#id0);fill-rule:nonzero}
    .fil3 {fill:url(#id1);fill-rule:nonzero}
    .fil6 {fill:url(#id2);fill-rule:nonzero}
    .fil24 {fill:url(#id3);fill-rule:nonzero}
    .fil0 {fill:url(#id4);fill-rule:nonzero}
    .fil25 {fill:url(#id5);fill-rule:nonzero}
    .fil7 {fill:url(#id6);fill-rule:nonzero}
    .fil29 {fill:url(#id7);fill-rule:nonzero}
    .fil26 {fill:url(#id8);fill-rule:nonzero}
   ]]>
  </style>
  <linearGradient id="id0" gradientUnits="userSpaceOnUse" x1="9.20462e-005" y1="83.5853" x2="24.3385" y2="83.5853">
   <stop offset="0" style="stop-opacity:1; stop-color:white"/>
   <stop offset="1" style="stop-opacity:1; stop-color:#B8CFF2"/>
  </linearGradient>
  <linearGradient id="id1" gradientUnits="userSpaceOnUse" xlink:href="#id0" x1="61.2384" y1="131.124" x2="70.8828" y2="131.124">
  </linearGradient>
  <linearGradient id="id2" gradientUnits="userSpaceOnUse" xlink:href="#id0" x1="18.2172" y1="102.349" x2="149.711" y2="102.349">
  </linearGradient>
  <linearGradient id="id3" gradientUnits="userSpaceOnUse" xlink:href="#id0" x1="105.019" y1="20.7171" x2="152.132" y2="20.7171">
  </linearGradient>
  <linearGradient id="id4" gradientUnits="userSpaceOnUse" xlink:href="#id0" x1="25.0686" y1="124.849" x2="77.5609" y2="124.849">
  </linearGradient>
  <linearGradient id="id5" gradientUnits="userSpaceOnUse" xlink:href="#id0" x1="19.0124" y1="24.6889" x2="66.126" y2="24.6889">
  </linearGradient>
  <linearGradient id="id6" gradientUnits="userSpaceOnUse" xlink:href="#id0" x1="18.1961" y1="90.043" x2="149.771" y2="90.043">
  </linearGradient>
  <linearGradient id="id7" gradientUnits="userSpaceOnUse" xlink:href="#id0" x1="23.9019" y1="108.141" x2="23.5436" y2="97.0934">
  </linearGradient>
  <linearGradient id="id8" gradientUnits="userSpaceOnUse" xlink:href="#id0" x1="23.4548" y1="58.6994" x2="1.62625" y2="128.343">
  </linearGradient>
 </defs>
 <g id="Layer_x0020_1">
  <metadata id="CorelCorpID_0Corel-Layer"/>
  <g id="_103463697520">
   <g>
    <g>
     <path class="fil0" d="M78 130c0,0 0,0 0,0l0 -2 -4 0c-8,-5 -29,-17 -30,-18 -2,-1 -3,0 -3,0 0,0 -11,6 -14,8l-2 0 0 2c0,0 1,1 1,1 0,0 31,18 33,19 0,0 1,0 1,0l0 0c1,0 2,0 2,0l13 -8c0,0 0,0 2,-1 0,0 0,-1 1,-1l0 0z"/>
     <path class="fil1" d="M75 130l-13 8c0,0 -2,1 -3,0 -2,-1 -33,-19 -33,-19 0,0 -2,-1 0,-2 1,-1 15,-9 15,-9 0,0 1,-1 3,0 1,1 33,19 33,19 0,0 1,1 0,2 -2,1 -2,1 -2,1z"/>
     <path class="fil2" d="M71 126l-27 -16 -15 9 27 15 15 -8z"/>
     <path class="fil3" d="M71 129l-1 -1c0,0 0,0 -1,0l-8 5c0,0 0,1 0,1l1 0c0,0 1,0 1,0l8 -5c0,0 0,0 0,0z"/>
     <path class="fil4" d="M34 113c0,1 0,1 1,1 0,0 1,0 1,-1 0,0 -1,0 -1,0 -1,0 -1,0 -1,0z"/>
    </g>
    <path class="fil5" d="M43 108c-1,0 -2,0 -2,0 0,0 -14,8 -15,9 -2,1 0,2 0,2 0,0 31,18 33,19 0,0 1,0 1,0 -5,-10 -13,-23 -17,-30z"/>
   </g>
   <g>
    <path class="fil6" d="M18 76l0 5 82 47 50 -28 0 -5 -132 -19z"/>
    <g>
     <path class="fil7" d="M145 103l-41 24c0,0 -4,2 -7,0 -4,-2 -77,-44 -77,-44 0,0 -4,-2 0,-4 3,-2 44,-26 44,-26 0,0 4,-2 7,0 4,2 77,44 77,44 0,0 4,2 0,4 -3,2 -3,2 -3,2z"/>
     <path class="fil1" d="M145 99l-41 24c0,0 -4,2 -7,0 -4,-2 -77,-44 -77,-44 0,0 -4,-2 0,-4 3,-2 44,-26 44,-26 0,0 4,-2 7,0 4,2 77,44 77,44 0,0 4,2 0,4 -3,2 -3,2 -3,2z"/>
     <path class="fil2" d="M142 94l-71 -41 -44 26 71 41 44 -26z"/>
     <path class="fil8" d="M45 64c0,0 1,0 2,0 1,0 2,0 2,0 0,-1 -1,-1 -2,-1 -1,0 -2,0 -2,1z"/>
    </g>
    <path class="fil5" d="M70 48c-3,-1 -6,1 -6,1 0,0 -41,24 -44,26 -4,2 0,4 0,4 0,0 73,42 77,44 1,1 2,1 3,1 -13,-23 -21,-60 -30,-76z"/>
   </g>
   <g>
    <g>
     <path class="fil9" d="M119 88l-29 17 0 -2 29 -17 0 2z"/>
     <path class="fil10" d="M119 86l-37 -21 -29 16 37 22 29 -17z"/>
     <path class="fil11" d="M90 105l-37 -21 0 -3 37 22 0 2z"/>
     <path class="fil9" d="M119 79l-29 17 0 -3 29 -17 0 3z"/>
     <path class="fil12" d="M53 72l37 21 29 -17 -37 -21 -29 17z"/>
     <path class="fil11" d="M90 96l-37 -22 0 -2 37 21 0 3z"/>
     <path class="fil1" d="M119 79c2,1 3,4 1,6l-1 1 -29 17 -37 -22 0 -7 37 22 29 -17z"/>
     <path class="fil9" d="M120 77l-1 -1 0 3c2,1 3,4 1,6l-1 1 0 2 2 -2c3,-3 2,-7 -1,-9z"/>
     <path class="fil9" d="M117 90l0 -3 2 -1 0 2 -2 2z"/>
     <path class="fil13" d="M90 96l0 7 -37 -22 0 -7 37 22z"/>
    </g>
    <g>
     <path class="fil14" d="M63 78l22 13 0 -2 -22 -13 0 2z"/>
     <path class="fil10" d="M63 76l29 -17 22 13 -29 17 -22 -13z"/>
     <path class="fil15" d="M85 91l29 -17 0 -2 -29 17 0 2z"/>
     <path class="fil14" d="M63 70l22 13 0 -2 -22 -13 0 2z"/>
     <path class="fil16" d="M114 64l-29 17 -22 -13 29 -17 22 13z"/>
     <path class="fil15" d="M85 83l29 -17 0 -2 -29 17 0 2z"/>
     <path class="fil1" d="M63 70c-2,1 -3,3 -1,5l1 1 22 13 29 -17 0 -6 -29 17 -22 -13z"/>
     <path class="fil13" d="M63 70c-2,1 -3,3 -1,5l1 1 22 13 0 -6 -22 -13z"/>
     <path class="fil14" d="M62 68l1 0 0 2c-2,1 -3,3 -1,5l1 1 0 2 -2 -2c-2,-2 -2,-6 1,-8z"/>
     <path class="fil1" d="M74 69l19 -11 10 6 -19 11 -10 -6z"/>
    </g>
    <g>
     <path class="fil17" d="M112 69l-21 12 0 -2 21 -12 0 2z"/>
     <path class="fil10" d="M112 67l-27 -16 -21 13 27 15 21 -12z"/>
     <path class="fil18" d="M91 81l-27 -16 0 -1 27 15 0 2z"/>
     <path class="fil17" d="M112 62l-21 12 0 -2 21 -12 0 2z"/>
     <path class="fil19" d="M64 57l27 15 21 -12 -27 -16 -21 13z"/>
     <path class="fil18" d="M91 74l-27 -16 0 -1 27 15 0 2z"/>
     <path class="fil1" d="M112 62c2,1 2,3 1,4l-1 1 -21 12 -27 -15 0 -6 27 16 21 -12z"/>
     <path class="fil17" d="M113 60l-1 0 0 2c2,1 2,3 1,4l-1 1 0 2 2 -2c2,-2 1,-5 -1,-7z"/>
     <g>
      <path class="fil18" d="M71 56l21 12 14 -8 -21 -12 -14 8z"/>
     </g>
     <path class="fil13" d="M91 79l0 -5 -27 -16 0 6 27 15z"/>
    </g>
   </g>
   <g>
    <path class="fil20" d="M118 40l0 2 -30 17 -30 -18 0 -1 60 0z"/>
    <path class="fil4" d="M71 45l0 10c0,6 8,10 17,10 9,0 17,-4 17,-10l0 -10 -34 0z"/>
    <path class="fil21" d="M105 49l-16 13c0,0 -18,-12 -18,-13 1,0 12,-4 12,-4l22 4z"/>
    <path class="fil22" d="M58 41l30 -17 30 18 -30 17 -30 -18z"/>
    <path class="fil4" d="M58 40l30 -17 30 17 -30 17 -30 -17z"/>
    <path class="fil21" d="M88 59l0 -2 -30 -17 0 1 30 18z"/>
    <g>
     <path class="fil23" d="M103 71l2 0c0,0 1,-1 1,-2l-1 -8c0,-1 0,-1 -1,-1 -1,0 -1,0 -1,1l-1 8c0,1 1,2 1,2z"/>
     <g>
      <path class="fil23" d="M104 66l0 0 0 -19 -16 -9 -1 0 17 10 0 18z"/>
     </g>
     <path class="fil23" d="M105 58c0,0 0,1 -1,1 -1,0 -1,-1 -1,-1 0,-1 0,-2 1,-2 1,0 1,1 1,2z"/>
    </g>
   </g>
   <g>
    <path class="fil24" d="M152 38c0,-7 -4,-14 -9,-17 0,0 -1,0 -1,-1 -2,-7 -6,-15 -12,-19 -4,-2 -7,-1 -9,1 -1,0 -1,0 -1,0 0,0 0,0 0,0 0,0 0,0 0,0 0,1 -1,1 -1,1 0,0 0,0 0,0 0,0 0,0 0,0 0,0 -1,0 -1,0 0,1 0,1 0,1 -1,0 -2,2 -2,3 -3,-1 -5,-1 -6,0 0,0 0,0 0,1 -1,0 -1,0 -1,0 0,0 0,0 0,0 0,0 0,0 0,0 0,0 -1,0 -1,1 0,0 0,0 0,0 0,0 0,0 0,0 0,0 0,0 -1,0 -1,1 -2,4 -2,7 0,0 0,0 0,1l44 24c0,0 0,0 0,0l1 0c0,0 0,0 0,0l0 0c0,0 0,0 0,0l0 0c0,0 0,-1 0,-1l1 0c0,0 0,0 0,0l0 0c0,0 0,0 0,0l0 0c0,0 0,0 0,-1l0 1c0,0 0,-1 0,-1l1 0c0,0 0,0 0,0l0 0c0,0 0,0 0,-1z"/>
    <path class="fil1" d="M149 41c0,0 0,0 0,0 0,-7 -4,-15 -9,-18 0,0 0,0 -1,0 -1,-8 -6,-16 -12,-19 -6,-4 -11,-1 -12,6 -1,0 -1,0 -2,-1 -4,-2 -8,1 -8,7 0,0 0,0 0,1l44 24z"/>
   </g>
   <g>
    <path class="fil25" d="M19 42c0,-7 4,-14 9,-17 0,0 1,0 1,-1 2,-8 7,-15 12,-19 4,-2 7,-1 10,1 0,0 0,0 0,0 0,0 0,0 0,0 0,0 0,0 1,0 0,0 0,1 0,1 0,0 0,0 0,0 0,0 0,0 0,0 1,0 1,0 1,0 0,1 0,1 0,1 1,0 2,2 2,3 3,-1 5,-1 6,0 0,0 0,0 1,0 0,1 0,1 0,1 0,0 0,0 0,0 0,0 0,0 0,0 1,0 1,0 1,1 0,0 0,0 0,0 0,0 0,0 0,0 1,0 1,0 1,0 1,1 2,4 2,7 0,0 0,0 0,1l-44 24c0,0 0,0 0,0l0 0c0,0 0,0 0,0l-1 0c0,0 0,0 0,-1l0 1c0,-1 0,-1 0,-1l0 0c0,0 0,0 0,0l-1 0c0,0 0,0 0,0l0 0c0,0 0,0 0,-1l0 1c0,-1 0,-1 0,-1l-1 0c0,0 0,0 0,0l0 0c0,0 0,-1 0,-1z"/>
    <path class="fil1" d="M22 45c0,0 0,0 0,-1 0,-6 4,-14 9,-17 0,0 1,0 1,0 1,-8 6,-16 12,-19 6,-4 11,-1 13,6 0,0 1,0 1,-1 5,-2 8,1 8,7 0,0 0,0 0,1l-44 24z"/>
   </g>
   <g>
    <g>
     <path class="fil26" d="M16 78l-16 6 0 20c0,4 5,7 12,7 7,0 12,-3 12,-7l0 -20 -8 -6z"/>
     <path class="fil27" d="M24 84c0,4 -5,7 -12,7 -7,0 -12,-3 -12,-7 0,-5 5,-8 12,-8 7,0 12,3 12,8z"/>
     <path class="fil28" d="M2 87c2,3 6,4 10,4 5,0 8,-1 11,-4 0,0 0,0 0,-1 0,-3 -5,-6 -11,-6 -6,0 -10,3 -10,6 0,1 0,1 0,1z"/>
    </g>
    <path class="fil1" d="M12 77c6,0 11,3 11,7 0,3 -5,6 -11,6 -6,0 -11,-3 -11,-6 0,-4 5,-7 11,-7zm0 -1l0 0c-7,0 -12,3 -12,8 0,4 5,7 12,7 7,0 12,-3 12,-7 0,-5 -5,-8 -12,-8z"/>
    <g>
     <path class="fil29" d="M23 92l-1 0 0 0 0 0 0 0 0 0 0 0 0 0 0 0 0 0 0 0 0 0 0 0 0 0 0 0 0 0 0 0 0 0 0 0 0 0 0 0 0 0 0 0 0 0 0 0 0 0 0 0 0 0 0 0 0 0 0 0 0 0 0 0 0 0 0 0 0 0 0 0 0 0 0 0 0 0 0 0 0 0 0 0 0 0 0 0 0 0 0 0 0 0 0 0 0 0 0 0 0 0 0 0 0 0 0 0 0 0 0 0 0 0 0 0 0 0 0 0 0 0 0 0 0 0 0 0 0 0 0 0 0 0 0 0 0 0 0 0 0 0 0 0 0 0 0 0 0 0 0 0 0 0 0 0 0 0 0 0 0 0 0 0 0 0 0 0 0 0 0 0 0 0 0 0 0 0 0 0 0 0 0 0 0 0 0 0 0 0 0 0 0 0 0 0 0 0 0 0 0 0 0 0 0 0 0 0 0 0 0 0 0 0 0 0 0 0 0 0 0 0 0 0 0 0 0 0 0 0 0 0 0 0 0 0 0 0 0 0 0 0 0 0 0 0 0 0 0 0 0 0 0 0 0 0 0 0 0 0 0 0 0 0 0 0 0 0 0 0 0 0 0 0 0 0 0 0 0 0 0 0 0 0 0 0 0 0 0 0 0 0 0 0 0 0 0 0 0 0 0 0 0 0 0 0 0 0 0 0 0 0 0 0 0 0 0 0 0 0 0 0 0 0 0 0 0 0 0 0 0 0 0 0 0 0 0 0 0 0 0 0 0 0 0 0 0 0 -1 0 0 0 0 0 0 0 0 0 0 0 0 0 0 0 0 0 0 0 0 0 0 0 0 0 0 0 0 0 0 0 0 0 0 0 0 0 0 0 0 0 0 0 0 0 0 0 0 0 0 0 0 0 0 0 0 0 0 0 0 0 0 0 0 0 0 0 0 0 0 0 0 0 0 0 0 0 0 0 0 0 0 0 0 0 0 0 0 0 0 0 0 0 0 0 0 0 0 0 0 0 0 0 0 0 0 0 0 0 0 0 0 0 0 0 0 0 0 0 0 0 0 0 0 0 0 0 0 0 0 0 0 0 0 0 0 0 0 0 0 0 0 0 0 0 0 0 0 0 0 0 0 0 0 0 0 0 0 0 0 0 0 0 0 0 0 0 0 0 0 0 0 0 0 0 0 0 0 0 0 0 0 0 0 0 0 0 0 0 0 0 0 0 0 0 0 0 0 0 0 0 0 0 0 0 0 0 0 0 0 0 0 0 0 0 0 0 0 0 0 0 0 0 0 0 0 0 0 0 0 0 0 0 0 0 0 0 0 0 0 0 0 0 0 0 0 0 0 0 0 0 0 0 0 0 0 0 0 0 0 0 0 0 0 0 0 0 0 0 0 0 0 0 0 0 0 0 0 0 0 0 0 0 0 0 0 0 0 0 0 0 0 0 0 0 0 0 0 0 0 0 0 0 0 0 0 0 0 0 0 0 0 0 0 0 0 0 0 0 0 0 0 0 0 0 0 0 0 0 0 0 0 0 0 0 0 0 0 0 0 0 0 0 0 0 0 0 0 0 0 0 0 0 0 0 0 0 0 0 0 0 0 0 0 0 0 0 0 0 0 0 0 0 0 0 0 0 0 0 0 0 0 0 0 0 0 0 0 0 0 0 0 0 0 0 0 0 0 0 0 0 0 0 0 0 0 0 0 0 0 0 0 0 0 0 0 0 0 0 0 0 0 0 0 0 0 0 0 0 0 0 0 0 0 0 0 0 0 0 0 0 0 0 0 0 0 0 0 0 0 0 0 0 0 0 0 0 0 0 0 0 0 0 0 0 0 0 0 0 0 0 0 0 0 0 0 0 0 0 0 0 0 0 0 0 0 0 0 0 0 0 0 0 0 0 0 0 0 0 0 0 0 0 0 0 0 0 0 0 0 0 0 0 0 0 0 0 0 0 0 0 0 0 0 0 0 0 0 0 0 0 0 0 0 0 0 0 0 0 0 0 0 0 0 0 0 0 0 0 0 0 0 0 0 0 0 0 0 0 0 0 0 0 0 0 0 0 0 0 0 0 -1 0 0 0 0 0 0 0 0 0 0 0 0 0 0 0 0 0 0 0 0 0 0 0 0 0 0 0 0 0 0 0 0 0 0 0 0 0 0 0 0 0 0 0 0 0 0 0 0 0 0 0 0 0 0 0 0 0 0 0 0 0 0 0 0 0 0 0 0 0 0 0 0 0 0 0 0 0 0 0 0 0 0 0 0 0 0 0 0 0 0 0 0 0 0 1 0 -1 0 1 0 0 0 0 0 0 0 0 0 0 0 0 0 0 0 0 0 0 0 0 0 0 0 0 0 0 0 0 0 0 0 0 0 0 0 0 0 0 0 0 0 0 0 0 0 0 0 0 0 0 0 0 0 0 0 0 0 0 0 0 0 0 0 0 0 0 0 0 0 0 0 0 0 0 0 0 0 0 0 0 0 0 0 0 0 0 0 0 0 0 0 0 0 0 0 0 0 0 0 0 0 0 0 0 0 0 0 0 0 0 0 0 0 0 0 0 0 0 0 0 0 0 0 0 0 0 0 0 0 0 0 0 0 0 0 0 0 0 0 0 0 0 0 0 0 0 0 0 0 0 0 0 0 0 0 0 0 0 0 0 0 0 0 0 0 0 0 0 0 0 0 0 0 0 0 0 0 0 0 0 0 0 0 0 0 0 0 2c2,1 3,3 3,6 0,1 0,2 0,2 -1,0 -1,0 -1,0l0 0c0,0 0,0 0,0l0 0c0,0 0,0 0,0l0 0c0,0 0,0 0,0l0 0c0,0 0,0 0,0l0 0c0,0 0,0 0,0l0 0c0,0 0,0 0,0l0 0c0,0 0,0 0,0l0 0c0,0 0,0 0,0l0 0c0,0 0,0 0,0l0 0c0,0 0,0 0,0l0 0c0,0 0,0 0,0l0 0c0,0 0,0 0,0l0 0c0,0 0,0 0,0l0 0c0,0 0,0 0,0l0 0c0,0 0,0 0,0l0 0c0,0 0,0 0,0l0 0c0,0 0,0 0,0l0 0c0,0 0,0 0,0l0 0c0,0 0,0 0,0l0 0c0,0 0,0 0,0l0 0c0,0 0,0 0,0l0 0c0,0 0,0 0,0l0 0c0,0 0,0 0,0l0 0c0,0 0,0 0,0l0 0c0,0 0,0 0,0l0 0c0,0 0,0 0,0l0 0c0,0 0,0 0,0l0 0c0,0 0,0 0,0l0 0c0,0 0,0 0,0l0 0c0,0 0,0 0,0l0 0c0,0 0,0 0,0l0 0c0,0 0,0 0,0l0 0c0,0 0,0 0,0l0 0c0,0 0,0 0,0l0 0c0,0 0,0 0,0l0 0c0,0 0,0 0,0l0 0c0,0 0,0 0,0l0 0c0,0 0,0 0,0l0 0c0,0 0,0 0,0l0 0c0,0 0,0 0,0l0 0c0,0 0,0 0,0l0 0c0,0 0,0 0,0l0 0c0,0 0,0 0,0l0 0c0,0 0,0 0,0l0 0c0,0 0,0 0,0l0 0c0,0 0,0 0,0l0 0c0,0 0,0 0,0l0 0c0,0 0,0 0,0l0 0c0,0 0,0 0,0l0 0c0,0 0,0 0,0l0 0c0,0 0,0 0,0l0 0c0,0 0,0 0,0l0 0c0,0 0,0 0,0l0 0c0,0 0,0 0,0l0 0c0,0 0,0 0,0l0 0c0,0 0,0 0,0l0 0c0,0 0,0 0,0l0 0c0,0 0,0 0,0l0 0c0,0 0,0 0,0l0 0c0,0 0,0 0,0l0 0c0,0 0,0 0,0l0 0c0,0 0,0 0,0l0 0c0,0 0,0 0,0l0 0c0,0 0,0 0,0l0 0c0,0 0,0 0,0l0 0c0,0 0,0 0,0l0 0c0,0 0,0 0,0l0 0c0,0 0,0 0,0l0 0c0,0 0,0 0,0l0 0c0,0 0,0 0,0l0 0c0,0 0,0 0,0l0 0c0,0 0,0 0,0l0 0c0,0 0,0 0,0l0 0c0,0 0,0 0,0l0 0c0,0 0,0 0,0l0 0c0,0 0,0 0,0l0 0c0,0 0,0 0,0l0 0c0,0 0,0 0,0l0 0c0,0 0,0 0,0l0 0c0,0 0,0 0,0l0 0c0,0 0,0 0,0l0 0c0,0 0,0 0,0l0 0c0,0 0,0 0,0l0 0c0,0 0,0 0,0l0 0c0,0 0,0 0,0l0 0c0,0 0,0 0,0l0 0c0,0 0,0 -1,0l0 0c0,0 0,0 0,0l0 0c0,0 0,0 0,0l0 0c0,0 0,0 0,0l0 0c0,0 0,0 0,0l0 0c0,0 0,0 0,0l0 1c0,0 0,0 0,0l0 0c0,0 0,0 0,0l0 0c0,0 0,0 0,0l0 0c0,0 0,0 0,0l0 0c0,0 0,0 0,0l0 0c0,0 0,0 0,0l0 0c0,0 0,0 0,0l0 0c0,0 0,0 0,0l0 0c0,0 0,0 0,0l0 0c0,0 0,0 0,0l0 0c0,0 0,0 0,0l0 0c0,0 0,0 0,0l0 0c0,0 0,0 0,0l0 0c0,0 0,0 0,0l0 0c0,0 0,0 0,0l0 0c0,0 0,0 0,0l0 0c0,0 0,0 0,0l0 0c0,0 0,0 0,0l0 0c0,0 0,0 0,0l0 0c0,0 0,0 0,0l0 0c0,0 0,0 0,0l0 0c0,0 0,0 0,0l0 0c0,0 0,0 0,0l0 0c0,0 0,0 0,0l0 0c0,0 0,0 0,0l0 0c0,0 0,0 0,0l0 0c0,0 0,0 0,0l0 0c0,0 0,0 0,0l0 0c0,0 0,0 0,0l0 0c0,0 0,0 0,0l0 0c0,0 0,0 0,0l0 0c0,0 0,0 0,0l0 0c0,0 0,0 0,0l0 0c0,0 0,0 0,0l0 0c0,0 0,0 0,0l0 0c0,0 0,0 0,0l0 0c0,0 0,0 0,0l0 0c0,0 0,0 0,0l0 0c0,0 0,0 0,0l0 0c0,0 0,0 0,0l0 0c0,0 0,0 0,0l0 0c0,0 0,0 0,0l0 0c0,0 0,0 0,0l0 0c0,0 0,0 0,0l0 0c0,0 0,0 0,0l0 0c0,0 0,0 0,0l0 0c0,0 0,0 0,0l0 0c0,0 0,0 0,0l0 0c0,0 0,0 0,0l0 0c0,0 0,0 0,0l0 0c0,0 0,0 0,0l0 0c0,0 0,0 0,0l0 0c0,0 0,0 0,0l0 0c0,0 0,0 0,0l0 0c0,0 0,0 0,0l0 0c0,0 0,0 0,0l0 0c0,0 0,0 0,0l0 0c0,0 0,0 0,0l0 0c0,0 0,0 0,0l0 0c0,0 0,0 0,0l0 0c0,0 0,0 0,0l0 0c0,0 0,0 0,0l0 0c0,0 0,0 0,0l0 0c0,0 0,0 0,0l0 0c0,0 0,0 0,0l0 0c0,0 0,0 0,0l0 0c0,0 0,0 0,0l0 0c0,0 0,0 0,0l0 0c0,0 0,0 0,0l0 0c0,0 0,0 0,0l0 0c0,0 0,0 0,0l0 0c0,0 0,0 0,0l0 0c0,0 0,0 0,0l0 0c0,0 0,0 0,0l0 0c0,0 0,0 0,0l0 0c0,0 0,0 0,0l0 0c0,0 0,0 0,0l0 0c0,0 0,0 0,0l0 0c0,0 0,0 0,0l0 0c0,0 0,0 0,0l0 0c0,0 0,0 0,0l0 0c0,0 0,0 0,0l0 0c0,0 0,0 0,0l0 0c0,0 0,0 0,0l0 0c0,0 0,0 0,0l0 0c0,0 0,0 0,0l0 0c0,0 0,0 0,0l0 0c0,0 0,0 0,0l0 0c0,0 0,0 0,0l0 0c0,0 0,0 0,0l0 0c0,0 0,0 0,0l0 0c0,0 0,0 0,0l0 0c0,0 0,0 0,0l0 0c0,0 0,0 0,0l0 0c0,0 0,0 0,0l0 0c0,0 0,0 0,0l0 0c0,0 0,0 0,0l0 0c0,0 0,0 0,0l0 0c0,0 0,0 0,0l0 0c0,0 0,0 0,0l0 0c0,0 0,0 0,0l0 0c0,0 0,0 0,0l0 0c0,0 0,0 0,0l0 0c0,0 0,0 0,0l0 0c0,0 0,0 0,0l0 0c0,0 0,0 0,0l0 0c0,0 0,0 0,0l0 0c0,0 0,0 0,0l0 0c0,0 0,0 0,0l0 0c0,0 0,0 0,0l0 0c0,0 0,0 0,0l0 0c0,0 0,0 0,0l0 0c0,0 0,0 0,0l0 0c0,0 0,0 0,0l0 0c0,0 0,0 0,0l0 0c0,0 0,0 0,0l0 0c0,0 0,0 0,0l0 0c0,0 0,0 0,0l0 0c0,0 0,0 0,0l0 0c0,0 0,0 0,0l0 0c0,0 0,0 0,0l0 0c0,0 0,0 0,0l0 0c0,0 0,0 0,0l0 0c0,0 0,0 0,0l0 0c0,0 0,0 0,0l0 0c0,0 0,0 0,0l0 0c0,0 0,0 0,0l0 0c0,0 0,0 0,0l0 0c0,0 0,0 0,0l0 0c0,0 0,0 0,0l0 0c0,0 0,0 0,0l0 0c0,0 0,0 0,0l0 0c0,0 0,0 0,0l0 0c0,0 0,0 0,0l0 0c0,0 0,0 0,0l0 0c0,0 0,0 0,0l0 0c0,0 0,0 0,0l0 0c0,0 0,0 -1,0l0 0c0,0 0,0 0,0l0 0c0,0 0,0 0,0l0 0c0,0 0,0 0,0l0 0c0,0 0,0 0,0l0 0c0,0 0,0 0,0l0 0c0,0 0,0 0,0l0 0c0,0 0,0 0,0l0 0c0,0 0,0 0,0l0 0c0,0 0,0 0,0l0 0c0,0 0,0 0,0l0 0c0,0 0,0 0,0l0 0c0,0 0,0 0,0l0 0c0,0 0,0 0,0l0 0c0,0 0,0 0,0l0 0c0,0 0,0 0,0l0 0c0,0 0,0 0,0l0 0c0,0 0,0 0,0l0 0c0,0 0,0 0,0l0 0c0,0 0,0 0,0l0 0c0,0 0,0 0,0l0 0c0,0 0,0 0,0l0 0c0,0 0,0 0,0l0 0c0,0 0,0 0,0l0 0c0,0 0,0 0,0l0 0c0,0 0,0 0,0l0 0c0,0 0,0 0,0l0 0c0,0 0,0 0,0l0 0c0,0 0,0 0,0l0 0c0,0 0,0 0,0l0 0c0,0 0,0 0,0l0 0c0,0 0,0 0,0l0 0c0,0 0,0 0,0l0 0c0,0 0,0 0,0l0 0c0,0 0,0 0,0l0 0c0,0 0,0 0,0l0 0c0,0 0,0 0,0l0 0c0,0 0,0 0,0l0 0c0,0 0,0 0,0l0 0c0,0 0,0 0,0l0 0c0,0 0,0 0,0l0 0c0,0 0,0 0,0l0 0c0,0 0,0 0,0l0 0c0,0 0,0 0,0l0 0c0,0 0,0 0,0l0 0c0,0 0,0 0,0l0 0c0,0 0,0 0,0l0 0c0,0 0,0 0,0l0 0c0,0 0,0 0,0l0 0c0,0 0,0 0,0l0 0c0,0 0,0 0,0l0 0c0,0 0,0 0,0l0 0c0,0 0,0 0,0l0 0c0,0 0,0 0,0l0 0c0,0 0,0 0,0l0 0c0,0 0,0 0,0l0 0c0,0 0,0 0,0l0 0c0,0 0,0 0,0l0 0c0,0 0,0 0,0l0 0c0,0 0,0 0,0l0 0c0,0 0,0 0,0l0 0c0,0 0,0 0,0l0 0c0,0 0,0 0,0l0 0c0,0 0,0 0,0l0 0c0,0 0,0 0,0l0 0c0,0 0,0 0,0l0 0c0,0 0,0 0,0l0 0c0,0 0,0 0,0l0 0c0,0 0,0 0,0l0 0c0,0 0,0 0,0l0 0c0,0 0,0 0,0l0 0c0,0 0,0 0,0l0 2c1,0 2,0 3,-1 0,0 0,0 0,0 0,0 0,0 0,0 0,0 0,0 0,0 0,0 0,0 0,0 0,0 0,0 0,0 0,0 0,0 0,0 0,0 0,0 0,0 0,0 0,0 0,0 0,0 0,0 0,0 0,0 0,0 0,0 0,0 0,0 0,0 0,0 0,0 0,0 0,0 0,0 0,0 0,0 0,0 0,0 0,0 0,0 0,0 0,0 0,0 0,0 0,0 0,0 0,0 0,0 0,0 0,0 0,0 0,0 0,0 0,0 0,0 0,0 0,0 0,0 0,0 0,0 0,0 0,0 0,0 0,0 0,0 0,0 0,0 0,0 0,0 0,0 0,0 0,0 0,0 0,0 0,0 0,0 0,0 0,0 0,0 0,0 0,0 0,0 0,0 0,0 0,0 0,0 0,0 0,0 0,0 0,0 0,0 0,0 0,0 0,0 0,0 0,0 0,0 0,0 0,0 0,0 0,0 0,0 0,0 0,0 0,0 0,0 0,0 0,0 0,0 0,0 0,0 0,0 0,0 0,0 0,0 0,0 0,0 0,0 0,0 0,0 0,0 0,0 0,0 0,0 0,0 0,0 0,0 0,0 0,0 0,0 0,0 0,0 0,0 0,0 0,0 0,0 0,0 0,0 0,0 0,0 0,0 0,0 0,0 0,0 0,0 0,0 0,0 0,0 0,0 0,0 0,0 0,0 0,0 0,0 0,0 0,0 0,0 0,0 0,0 0,0 0,0 0,0 0,0 0,0 0,0 0,0 0,0 0,0 0,0 0,0 0,0 0,0 0,0 0,0 0,0 0,0 0,0 0,0 0,0 0,0 0,0 0,0 0,0 0,0 0,0 0,0 0,0 0,0 0,0 0,0 0,0 0,0 0,0 0,0 0,0 0,0 0,0 0,0 0,0 0,0 0,0 0,0 0,0 0,0 0,0 0,0 0,0 0,0 0,0 0,0 0,0 0,0 0,0 0,0 0,0 0,0 0,0 0,0 0,0 0,0 0,0 0,0 0,0 0,0 0,0 0,0 0,0 0,0 0,0 0,0 0,0 0,0 0,0 0,0 0,0 0,0 0,0 0,0 0,0 0,0 0,0 0,0 0,0 0,0 0,0 0,0 0,0 0,0 0,0 0,0 0,0 0,0 0,0 0,0 0,0 0,0 0,0 0,0 0,0 0,0 0,0 0,0 0,0 0,0 0,0 0,0 0,0 0,0 0,0 0,0 0,0 0,0 0,0 0,0 0,0 0,0 0,0 0,0 0,0 0,0 0,0 0,0 0,0 0,0 0,0 0,0 0,0 0,0 0,0 0,0 0,0 0,0 0,0 0,0 0,0 0,0 0,0 0,0 0,0 0,0 0,0 0,0 0,0 0,0 0,0 0,0 0,0 0,0 0,0 0,0 0,0 0,0 0,0 0,0 0,0 0,0 0,0 0,0 0,0 0,0 0,0 0,0 0,0 0,0 0,0 0,0 0,0 0,0 0,0 0,0 0,0 0,0 0,0 0,0 0,0 0,0 0,0 0,0 0,0 0,0 0,0 0,0 0,0 0,0 0,0 0,0 0,0 0,0 0,0 0,0 0,0 0,0 0,0 0,0 0,0 0,0 0,0 0,0 0,0 0,0 0,0 0,0 0,0 0,0 0,0 0,0 0,0 0,0 0,0 0,0 0,0 0,0 0,0 0,0 0,0 0,0 0,0 0,0 0,0 0,0 0,0 0,0 0,0 0,0 0,0 0,0 0,0 0,0 0,0 0,0 0,0 0,0 0,0 0,0 0,0 0,0 0,0 0,0 0,0 0,0 0,0 0,0 0,0 0,0 0,0 0,0 0,0 0,0 0,0 0,0 0,0 0,0 0,0 0,0 0,0 0,0 0,0 0,0 0,0 0,0 0,0 0,0 0,0 0,0 0,0 0,0 0,0 0,0 0,0 0,0 0,0 0,0 0,0 0,0 0,0 0,0 0,0 0,0 0,0 0,0 0,0 0,0 0,0 0,0 0,0 0,0 0,0 0,0 0,0 0,0 0,0 0,0 0,0 0,0 0,0 0,0 0,0 0,0 0,0 0,0 0,0 0,0 0,0 0,0 0,0 0,0 0,0 0,0 0,0 0,0 0,0 0,0 0,0 0,0 0,0 0,0 0,0 0,0 0,0 0,0 0,0 0,0 0,0 0,0 0,0 0,0 0,0 0,0 0,0 0,0 0,0 0,0 0,0 0,0 0,0 0,0 0,0 0,0 0,0 0,0 0,0 0,0 0,0 0,0 0,0 0,0 0,0 0,0 0,0 0,0 0,0 0,0 0,0 0,0 0,0 0,0 0,0 0,0 0,0 0,0 0,0 0,0 0,0 0,0 0,0 0,0 0,0 0,0 0,0 0,0 0,0 0,0 0,0 0,0 0,0 0,0 0,0 0,0 0,0 0,0 0,0 0,0 0,0 0,0 0,0 0,0 0,0 0,0 0,0 0,0 0,0 0,0 0,0 0,0 0,0 0,0 0,0 0,0 0,0 0,0 0,0 0,0 0,0 0,0 0,0 0,0 0,0 0,0 0,0 0,0 0,0 0,0 0,0 0,0 0,0 0,0 0,0 0,0 0,0 0,0 0,0 0,0 0,0 0,0 0,0 0,0 0,0 0,0 0,0 0,0 0,0 0,0 0,0 0,0 0,0 0,0 0,0 0,0 0,0 0,0 0,0 0,0 0,0 0,0 0,0 0,0 0,0 0,0 0,0 0,0 0,0 0,0 0,0 0,0 0,0 0,0 0,0 0,0 0,0 0,0 0,0 0,0 0,0 0,0 0,0 0,0 0,0 0,0 0,0 0,0 0,0 0,0 0,0 0,0 0,0 0,0 0,0 0,0 0,0 0,0 0,0 0,0 0,0 0,0 0,0 0,0 0,0 0,0 0,0 0,0 0,0 0,0 0,0 0,0 0,0 0,0 0,0 0,0 0,0 0,0 0,0 0,0 0,0 0,0 0,0 0,0 0,0 0,0 0,0 0,0 0,0 0,0 0,0 0,0 0,0 0,0 0,0 0,0 0,0 0,0 0,0 0,0 0,0 0,0 0,0 0,0 0,0 0,0 0,0 0,0 0,0 0,0 0,0 0,0 0,0 0,0 0,0 0,0 0,0 0,0 0,0 0,0 0,0 0,0 0,0 0,0 0,0 0,0 0,0 0,0 0,0 0,0 0,0 0,0 0,0 0,0 0,0 0,0 0,0 0,0 0,0 0,0 0,0 0,0 0,0 0,0 0,0 0,0 0,0 0,0 0,0 0,0 0,0 0,0 0,0 0,0 0,0 0,0 0,0 0,0 0,0 0,0 0,0 0,0 0,0 0,0 0,0 0,0 0,0 0,0 0,0 0,0 0,0 0,0 0,0 0,0 0,0 0,0 0,0 0,0 0,0 0,0 0,0 0,0 0,0 0,0 0,0 0,0 0,0 0,0 0,0 0,0 0,0 0,0 0,0 0,0 0,0 0,0 0,0 0,0 0,0 0,0 0,0 0,0 0,0 0,0 0,0 0,0 0,0 0,0 0,0 0,0 0,0 0,0 0,0 0,0 0,0 0,0 0,0 0,0 0,0 0,0 0,0 0,0 0,0 0,0 0,0 0,0 0,0 0,0 0,0 0,0 0,0 0,0 1,0 0,0 0,0 0,0 0,0 0,0 0,0 0,0 0,0 0,0 0,0 0,0 0,0 0,0 0,0 0,0 0,0 0,0 0,0 0,0 0,0 0,0 0,0 0,0 0,0 0,0 0,0 0,0 0,0 0,0 0,0 0,0 0,0 0,0 0,0 0,0 0,0 0,0 0,0 0,0 0,0 0,0 0,0 0,0 0,0 0,0 0,0 0,0 0,0 0,0 0,0 0,0 0,0 0,0 0,0 0,0 0,0 0,0 0,0 0,0 0,0 0,0 0,0 0,0 0,0 0,0 0,0 0,0 0,0 0,0 0,0 0,0 0,0 0,0 0,0 0,0 0,0 0,0 0,0 0,0 0,0 0,0 0,0 0,0 0,0 0,0 0,0 0,0 0,0 0,0 0,0 0,0 0,0 0,0 0,0 0,0 0,0 0,0 0,0 0,0 0,0 0,0 0,0 0,0 0,0 0,0 0,0 0,0 0,0 0,0 0,0 0,0 0,0 0,0 0,0 0,0 0,0 0,0 0,0 0,0 0,0 0,0 0,0 0,0 0,0 0,0 0,0 0,0 0,0 0,0 0,0 0,0 0,0 0,0 0,0 0,0 0,0 0,0 0,0 0,0 0,0 0,0 0,0 0,0 0,0 0,0 0,0 0,0 0,0 0,0 0,0 0,0 0,0 0,0 0,0 0,0 0,0 0,0 0,0 0,0 0,0 0,0 0,0 0,0 0,0 0,0 0,0 0,0 0,0 0,0 0,0 0,0 0,0 0,0 0,0 0,0 0,0 0,0 0,0 0,0 0,0 0,0 0,0 0,0 0,0 0,0 0,0 0,0 0,0 0,0 0,0 0,0 0,0 0,0 0,0 0,0 0,0 0,0 0,0 0,0 0,0 0,0 0,0 0,0 0,0 0,0 0,0 0,0 0,0 0,0 0,0 0,0 0,0 0,0 0,0 0,0 0,0 0,0 0,0 0,0 0,0 0,0 0,0 0,0 0,0 0,0 0,0 0,0 0,0 0,0 0,0 0,0 0,0 0,0 0,0 0,0 0,0 0,0 0,0 0,0 0,0 0,0 0,0 0,0 0,0 0,0 0,0 0,0 0,0 0,0 0,0 0,0 0,0 0,0 0,0 0,0 0,0 0,0 0,0 0,0 0,0 0,0 0,0 0,0 0,0 0,0 0,0 0,0 0,0 0,0 0,0 0,0 0,0 0,0 0,0 0,0 0,0 0,0 0,0 0,0 0,0 0,0 0,0 0,0 0,0 0,0 0,0 0,0 0,0 0,0 0,0 0,0 0,0 0,0 0,0 0,0 0,0 0,0 0,0 0,0 0,0 0,0 0,0 0,0 0,0 0,0 0,0 0,0 0,0 0,0 0,0 0,0 0,0 0,0 0,0 0,0 0,0 0,0 0,0 0,0 0,0 0,0 0,0 0,0 0,0 0,0 0,0 0,0 0,0 0,0 0,0 0,0 0,0 0,0 0,0 0,0 0,0 0,0 0,0 0,0 0,0 0,0 0,0 0,0 0,0 0,0 0,0 0,0 0,0 0,0 0,0 0,0 0,0 0,0 0,0 0,0 0,0 0,0 0,0 0,0 0,0 0,0 0,0 0,0 0,0 0,0 0,0 0,0 0,0 0,0 0,0 0,0 0,0 0,0 0,0 0,0 0,0 0,0 0,0 0,0 0,0 0,0 0,0 0,0 0,0 0,0 0,0 0,0 0,0 0,0 0,0 0,0 0,0 0,0 0,0 0,0 0,0 0,0 0,0 0,0 0,0 0,0 0,0 0,0 0,0 0,0 0,0 0,0 0,0 0,0 0,0 0,0 0,0 0,0 0,0 0,0 0,0 0,0 0,0 0,0 0,0 0,0 0,0 0,0 0,0 0,0 0,0 0,0 0,0 0,0 0,0 0,0 0,0 0,0 0,0 0,0 0,0 0,0 0,0 0,0 0,0 0,0 0,0 0,0 0,0 0,0 0,0 0,0 0,0 0,0 0,0 0,0 0,0 0,0 0,0 0,0 0,0 0,0 0,0 0,0 0,0 0,0 0,0 0,0 0,0 0,0 0,0 0,0 0,0 0,0 0,0 0,0 0,0 0,0 0,0 0,0 0,0 0,0 0,0 0,0 0,0 0,0 0,0 0,0 0,0 0,0 0,0 0,0 0,0 0,0 0,0 0,0 0,0 0,0 0,0 0,0 0,0 0,0 0,0 0,0 0,0 0,0 0,0 0,0 0,0 0,0 0,0 0,0 0,0 0,0 0,0 0,0 0,0 0,0 0,0 0,0 0,0 0,0 0,0 0,0 0,0 0,0 0,0 0,0 0,0 0,0 0,0 0,0 0,0 0,0 0,0 0,0 0,0 0,0 0,0 0,0 0,0 0,0 0,0 0,0 0,0 0,0 0,0 0,0 0,0 0,0 0,0 0,0 0,-1 0,-1 0,0 0,0 0,0 0,0 0,0 0,0 0,0 0,0 0,0 0,0 0,0 0,0 0,0 0,0 0,0 0,0 0,0 0,0 0,0 0,0 0,0 0,0 0,0 0,0 0,0 0,0 0,0 0,0 0,0 0,0 0,0 0,0 0,0 0,0 0,0 0,0 0,0 0,0 0,0 0,0 0,0 0,0 0,0 0,0 0,0 0,0 0,0 0,0 0,0 0,0 0,0 0,0 0,0 0,0 0,0 0,0 0,0 0,0 0,0 0,0 0,0 0,0 0,0 0,0 0,0 0,0 0,0 0,0 0,0 0,0 0,0 0,0 0,0 0,0 0,0 0,0 0,0 0,0 0,0 0,0 0,0 0,0 0,0 0,0 0,0 0,0 0,0 0,0 0,0 0,0 0,0 0,0 0,0 0,0 0,0 0,0 0,0 0,0 0,0 0,0 0,0 0,0 0,0 0,0 0,0 0,0 0,0 0,0 0,0 0,0 0,0 0,0 0,0 0,0 0,0 0,0 0,0 0,0 0,0 0,0 0,0 0,0 0,0 0,0 0,0 0,0 0,0 0,0 0,0 0,0 0,0 0,0 0,0 0,0 0,0 0,0 0,0 0,0 0,0 0,0 0,0 0,0 0,0 0,0 0,0 0,0 0,0 0,0 0,0 0,0 0,0 0,0 0,0 0,0 0,0 0,0 0,0 0,0 0,0 0,0 0,0 0,0 0,0 0,0 0,0 0,0 0,0 0,0 0,0 0,0 0,0 0,0 0,0 0,0 0,0 0,0 0,0 0,0 0,0 0,0 0,0 0,0 0,0 0,0 0,0 0,0 0,0 0,0 0,0 0,0 0,0 0,0 0,0 0,0 0,0 0,0 0,0 0,0 0,0 0,0 0,0 0,0 0,0 0,0 0,0 0,0 0,0 0,0 0,0 0,0 0,0 0,0 0,0 0,0 0,0 0,0 0,0 0,0 0,0 0,0 0,0 0,0 0,0 0,0 0,0 0,0 0,0 0,0 0,0 0,0 0,0 0,0 0,0 0,0 0,0 0,0 0,0 0,0 0,0 0,0 0,0 0,0 0,0 0,0 0,0 0,0 0,0 0,0 0,0 0,0 0,0 0,0 0,0 0,0 0,0 0,0 0,0 0,0 0,0 0,0 0,0 0,0 0,0 0,0 0,0 0,0 0,0 0,0 0,0 0,0 0,0 0,0 0,0 0,0 0,0 0,0 0,0 0,0 0,0 0,0 0,0 0,0 0,0 0,0 0,0 0,0 0,0 0,0 0,0 0,0 0,0 0,0 0,0 0,0 0,0 0,0 0,0 0,0 0,0 0,0 0,0 0,0 0,0 0,0 0,0 0,0 0,0 0,0 0,0 1,0 1,0 1,0 0,0 0,0 0,0 0,0 0,0 0,0 0,0 0,0 0,0 0,0 0,0 0,0 0,0 0,0 0,0 0,0 0,0 0,0 0,0 0,0 0,0 0,0 0,0 0,0 0,0 0,0 0,0 0,0 0,0 0,0 0,0 0,0 0,0 0,0 0,0 0,0 0,0 0,0 0,0 0,0 0,0 0,0 0,0 0,0 0,0 0,0 0,0 0,0 0,0 0,0 0,0 0,0 0,0 0,0 0,0 0,0 0,0 0,0 0,0 0,0 0,0 0,0 0,0 0,0 0,0 0,0 0,0 0,0 0,0 0,0 0,0 0,0 0,0 0,0 0,0 0,0 0,0 0,0 0,0 0,0 0,0 0,0 0,0 0,0 0,0 0,0 0,0 0,0 0,0 0,0 0,0 0,0 0,0 0,0 0,0 0,0 0,0 0,0 0,0 0,0 0,0 0,0 0,0 0,0 0,0 0,0 0,0 0,0 0,0 0,0 0,0 0,0 0,0 0,0 0,0 0,0 0,0 0,0 0,0 0,0 0,0 0,0 0,0 0,0 0,0 0,0 1,-1 2,-2 2,-4 0,-4 -2,-7 -4,-8z"/>
     <path class="fil1" d="M20 93l0 0 0 2c2,1 3,3 3,6 0,1 0,2 -1,3 -1,0 -1,0 -2,0l0 2c1,0 2,0 3,-1 1,-1 2,-2 2,-4 0,-3 -2,-6 -5,-8z"/>
    </g>
   </g>
   <g>
    <path class="fil1" d="M108 128l42 -24 29 17 -42 24 -29 -17z"/>
    <path class="fil16" d="M142 136c0,1 -2,2 -5,2 -2,0 -4,-1 -4,-2 0,-2 2,-3 4,-3 3,0 5,1 5,3z"/>
    <g>
     <path class="fil4" d="M169 121l-20 -11 1 -1 20 12 -1 0z"/>
    </g>
    <g>
     <path class="fil4" d="M165 124l-20 -12 1 -1 20 12 -1 1z"/>
    </g>
    <g>
     <path class="fil4" d="M161 126l-20 -11 0 -1 1 0 20 11 0 0 -1 1z"/>
    </g>
    <g>
     <path class="fil4" d="M157 128l-20 -11 1 -1 20 12 0 0 -1 0z"/>
    </g>
    <g>
     <path class="fil4" d="M153 131l-20 -12 1 0 20 11 -1 1z"/>
    </g>
    <g>
     <path class="fil4" d="M148 133l-20 -11 2 -1 20 12 -2 0z"/>
    </g>
   </g>
   <g>
    <path class="fil1" d="M152 102l15 -9 13 8 -13 7 -4 0 -11 -6z"/>
    <path class="fil4" d="M165 106l-2 2 4 0 -2 -2z"/>
   </g>
   <g>
    <path class="fil16" d="M68 145l15 -9 13 8 -13 7 -4 0 -11 -6z"/>
    <path class="fil14" d="M81 149l-2 2 4 0 -2 -2z"/>
   </g>
   <g>
    <path class="fil30" d="M119 139l-15 -8 -13 7 14 8 3 0 11 -7z"/>
    <path class="fil31" d="M106 144l2 2 -3 0 1 -2z"/>
   </g>
   <g>
    <path class="fil1" d="M156 50l-26 -15c0,0 0,0 -1,0 0,0 0,0 0,0 0,0 0,0 0,0 0,0 0,0 0,0 0,0 0,0 0,0 0,0 0,0 0,0 0,0 0,0 0,0 0,0 0,0 0,0 0,0 0,0 -1,0 0,0 0,0 0,0 0,0 0,0 0,0 0,0 0,0 0,0 0,0 0,0 0,0 0,0 0,0 0,0 0,0 0,0 0,0 0,0 0,0 0,0 0,0 0,0 0,0 0,0 0,0 0,0 0,0 0,0 0,0 0,0 -1,0 -1,0 0,0 0,0 0,0 0,0 0,0 0,0 0,0 0,0 0,0 0,0 0,0 0,0 0,0 0,0 0,0 0,0 0,0 0,0 0,0 0,0 0,0 0,1 0,1 0,1 0,0 0,0 0,0 0,0 0,0 0,0 -1,0 -1,0 -1,0 0,0 -1,1 -1,2l0 24c0,2 1,4 2,4l4 2 0 8 0 0 0 0 0 0 0 0 0 0 0 0 0 0 0 0 0 -1 0 1 1 -1 0 0 0 0 0 0 0 0 0 0 0 0 0 0 0 0 0 0 0 0 0 0 0 0 0 0 0 0 0 0 0 0 0 0 0 0 0 0 1 0 0 0 0 0 0 0 0 0 0 0 0 0 0 0 0 0 0 0 0 0 0 0 0 0 0 0 0 0 0 0 0 0 0 0 0 0 0 0 0 0 0 0 1 0 0 0 0 0 0 0 0 0 0 0 0 0 0 0 0 0 0 0 3 -3 17 9c1,0 1,0 1,0 0,0 0,0 0,0 0,0 0,0 0,0 2,-1 3,-1 3,-3l0 -24c0,-2 0,-4 -2,-4z"/>
    <g>
     <path class="fil2" d="M154 51l-27 -15c-1,-1 -2,0 -2,2l0 24c0,2 1,4 2,4l4 2 0 8 5 -5 18 10c1,1 2,0 2,-2l0 -24c0,-2 -1,-4 -2,-4z"/>
     <g>
      <path class="fil4" d="M135 56c0,1 0,2 -1,1 0,0 -1,-1 -1,-2 0,-1 1,-1 1,-1 1,0 1,1 1,2z"/>
      <path class="fil4" d="M141 60c0,1 0,1 -1,1 0,0 -1,-1 -1,-2 0,-1 1,-2 1,-1 1,0 1,1 1,2z"/>
      <path class="fil4" d="M147 63c0,1 0,2 -1,1 -1,0 -1,-1 -1,-2 0,-1 0,-1 1,-1 1,0 1,1 1,2z"/>
     </g>
    </g>
   </g>
  </g>
 </g>
</svg>
