<svg id="ca044a4d-d294-470c-b4bc-b9e82b3174a9" data-name="Layer 1" xmlns="http://www.w3.org/2000/svg" viewBox="0 0 153.92 153.92"><title>ib8</title><path d="M8079.83,633.81c0-6.43-.68-12.06,3.13-15.82,3.63-3.59,9.31-3.09,15.54-3.09,0.41,7.14-1.49,14.86,3,15,3.24,0.06,3.08-3.12,3.07-6s-0.08-6,0-8.92c19.59-1.77,18.3,7.17,18.84,18.84h-43.59Zm-49.3-7.22c0-13.06,11.72-11.69,18.64-11.69,0.15,2.9,0,6.06,0,9s-0.18,5.91,3,6c4.49,0.07,2.79-8.08,3.07-14.92l7.15,0c7.06,0,11.43,4.61,11.43,11.69v7.22h-43.29v-7.22h0Zm-49.3,0c0-13.81,13.19-11.69,21.65-11.69s21.65-2.18,21.65,11.69v7.22h-43.29v-7.22h0Zm119.54-36.27c11-1.06,11.94,17.44,1.59,18.49-11.19,1.14-12.22-17.47-1.59-18.49h0Zm-49.3,0c11-1.06,11.94,17.44,1.59,18.49-11.19,1.14-12.22-17.47-1.59-18.49h0Zm-49.3,0c11-1.06,11.94,17.44,1.59,18.49-11.19,1.14-12.22-17.47-1.59-18.49h0Zm-13.42,9.51a20.73,20.73,0,0,0,.66,5.05c0.61,2,1.54,3.19,1.75,4-8.18,0-15.93,7.73-15.93,15.93v12.63a3.33,3.33,0,0,0,2.4,2.4h149.11a3.33,3.33,0,0,0,2.4-2.4V624.79c0-8.2-7.75-15.93-15.93-15.93,0.46-1.72,5.26-8.6.31-17.74a13.85,13.85,0,0,0-5.71-5.41c-5.67-2.9-13.26-1.33-16.72,3.14a17.52,17.52,0,0,0-3.07,16.05c0.14,0.45.49,1.37,0.75,2a11.5,11.5,0,0,1,1,2,16.85,16.85,0,0,0-10.45,4.28c-0.78.73-1.88,2.2-2.48,2.63-1.18-.87-5.08-6.91-12.93-6.91,0.21-.79,1.12-1.92,1.75-4,2.1-6.79,0-15.54-7.15-19.19a14.07,14.07,0,0,0-12.45-.1,14.3,14.3,0,0,0-7,7.73,20.83,20.83,0,0,0-.35,11.56c0.61,2,1.54,3.19,1.75,4a16.85,16.85,0,0,0-10.45,4.28c-0.78.73-1.88,2.2-2.48,2.63-1.33-1-1.29-2.22-5.28-4.64a15.49,15.49,0,0,0-7.65-2.27c0.46-1.72,5.26-8.6.31-17.74-3.31-6.12-11.55-8.75-18.15-5.51C7991.16,588.34,7988.75,593.67,7988.75,599.83Z" transform="translate(-7975.22 -485.9)" fill="#fff" fill-rule="evenodd"/><path d="M8021.35,553.71c0-10,.41-13.65,6.32-18.67,5.3-4.5,13.45-3.43,21.5-3.43,0,3-.3,6.31,3,6.24s3-3.13,3-6.24c8.33,0,16.21-1.14,21.66,3.58,5.91,5.11,6.16,8.49,6.29,18.66l-61.8-.13h0Zm29.83-67.81a18.07,18.07,0,0,0-17,18c0,5.5-.56,11.74,1.32,16.41a25.19,25.19,0,0,0,3.19,5.23c-6.64,0-12.19,1.81-16.61,6.23-7.59,7.59-6.83,14.36-6.83,24.43,0,1.94,1.13,3.61,3,3.61h31v7.21h-46.9a3.33,3.33,0,0,0-2.4,2.4c0,6.52-1.14,10.52,3.31,10.52,3.48,0,2.71-4.73,2.71-6.91h43.29c0,3.58-.77,6.91,3.31,6.91,3.48,0,2.71-4.73,2.71-6.91h10.52c3.63,0,3.63-6,0-6h-10.52v-7.21h31c4.11,0,3-6.8,3-11.72a22.24,22.24,0,0,0-13.53-20.74c-3.11-1.4-5.4-1.81-9.92-1.81,2.49-3.72,4.51-6.29,4.51-12,0-8.82,1.1-15.95-5-22a16.54,16.54,0,0,0-4.94-3.78,19.06,19.06,0,0,0-7.16-1.86h-1.91Zm-5.28,24.33a15.66,15.66,0,0,0,6.73-1.63c3.16-1.53,2.64-1.62,5-3.27l6.41,3.86c0.05,4.24.11,7.62-1.82,10.82-6,9.91-22.09,5.31-21.81-5.73a8.08,8.08,0,0,1-.14-4l5.61-.06h0Zm0.14-6c-1,.81-4.38.55-5.77,0.23a1.56,1.56,0,0,1,.25-1.8c0-5.64,5.53-10.48,11.36-10.67a11.87,11.87,0,0,1,12,9.93c-2.79-1-6.1-5-9.07-2.27C8052.66,501.57,8050.5,504,8046,504.19Z" transform="translate(-7975.22 -485.9)" fill="#fff" fill-rule="evenodd"/><path d="M8085.85,573.08h12.63c0,3.27-.71,6.91,3.31,6.91,3.63,0,3-5.42,3-8.42,0-2.28-.77-4.51-3-4.51h-15.93C8082.09,567.07,8082.09,573.08,8085.85,573.08Z" transform="translate(-7975.22 -485.9)" fill="#fff" fill-rule="evenodd"/><path d="M8073.22,569.47c0,5.29,6,4.14,6,.9C8079.24,565.38,8073.22,566.82,8073.22,569.47Z" transform="translate(-7975.22 -485.9)" fill="#fff" fill-rule="evenodd"/><path d="M8051.7,543.41a3,3,0,1,0,1,5.83C8056.54,548.62,8055.58,542.74,8051.7,543.41Z" transform="translate(-7975.22 -485.9)" fill="#fff" fill-rule="evenodd"/><path d="M8046,504.19l-5.67.08,0.15-1.64a1.56,1.56,0,0,0-.25,1.8C8041.66,504.74,8045,505,8046,504.19Z" transform="translate(-7975.22 -485.9)" fill="#fff" fill-rule="evenodd"/><path d="M8040.43,514.29v-3.74c1.69,0,4.12.3,5.45-.31l-5.61.06A8.08,8.08,0,0,0,8040.43,514.29Z" transform="translate(-7975.22 -485.9)" fill="#fff" fill-rule="evenodd"/></svg>