<?xml version="1.0" encoding="UTF-8"?>
<!DOCTYPE svg PUBLIC "-//W3C//DTD SVG 1.0//EN" "http://www.w3.org/TR/2001/REC-SVG-20010904/DTD/svg10.dtd">
<!-- Creator: CorelDRAW X7 -->
<svg xmlns="http://www.w3.org/2000/svg" xml:space="preserve" width="2.08333in" height="2.08333in" version="1.0" style="shape-rendering:geometricPrecision; text-rendering:geometricPrecision; image-rendering:optimizeQuality; fill-rule:evenodd; clip-rule:evenodd"
viewBox="0 0 191 191"
 xmlns:xlink="http://www.w3.org/1999/xlink">
 <defs>
  <style type="text/css">
   <![CDATA[
    .fil0 {fill:black}
    .fil6 {fill:#66512B}
    .fil7 {fill:#877455}
    .fil4 {fill:#BEF1EF}
    .fil3 {fill:#BFED91}
    .fil5 {fill:#FCD99F}
    .fil2 {fill:#FDC86B}
    .fil1 {fill:#FE5C5C}
   ]]>
  </style>
 </defs>
 <g id="Layer_x0020_1">
  <metadata id="CorelCorpID_0Corel-Layer"/>
  <g id="_103496134816">
   <path class="fil0" d="M130 184c0,-8 -1,-15 4,-20 4,-5 11,-4 19,-4 0,9 -2,18 4,19 4,0 3,-4 3,-8 0,-3 0,-7 1,-11 24,-2 22,9 23,24l-54 0zm-61 -9c0,-17 14,-15 23,-15 0,4 0,8 0,11 0,4 0,8 3,8 6,0 4,-10 4,-19l9 0c9,0 14,6 14,15l0 9 -53 0 0 -9zm-62 0c0,-18 17,-15 27,-15 11,0 27,-3 27,15l0 9 -54 0 0 -9zm149 -45c13,-2 15,21 2,22 -14,2 -15,-21 -2,-22zm-61 0c13,-2 14,21 2,22 -14,2 -16,-21 -2,-22zm-62 0c14,-2 15,21 2,22 -13,2 -15,-21 -2,-22zm-16 11c0,2 0,5 1,7 0,2 2,4 2,5 -10,0 -20,9 -20,19l0 16c0,1 2,3 3,3l185 0c1,0 3,-2 3,-3l0 -16c0,-10 -10,-19 -20,-19 1,-3 7,-11 1,-22 -2,-3 -5,-6 -8,-7 -7,-4 -16,-2 -20,4 -5,5 -6,13 -4,20 0,0 1,1 1,2 0,1 1,1 1,3 -5,0 -10,2 -13,5 -1,1 -2,3 -3,3 -1,-1 -6,-8 -16,-8 0,-1 1,-3 2,-5 3,-9 0,-20 -9,-24 -4,-3 -10,-3 -15,0 -4,2 -7,5 -9,9 -1,4 -2,10 0,15 1,2 2,4 2,5 -5,0 -10,2 -13,5 -1,1 -2,3 -3,3 -2,-1 -2,-3 -7,-6 -2,-1 -6,-2 -9,-2 0,-3 6,-11 0,-22 -4,-8 -14,-11 -22,-7 -7,3 -10,10 -10,17z"/>
   <path class="fil0" d="M57 84c0,-12 1,-17 8,-23 7,-6 17,-4 27,-4 0,3 -1,8 3,7 5,0 4,-3 4,-7 11,0 20,-2 27,4 7,6 8,11 8,23l-77 0zm37 -84l3 0c3,0 6,1 8,2 3,2 5,3 7,5 7,8 6,16 6,27 0,7 -3,11 -6,15 6,0 9,1 13,2 9,5 16,14 16,26 0,6 2,15 -3,15l-39 0 0 9 13 0c5,0 5,7 0,7l-13 0c0,3 1,9 -3,9 -5,0 -4,-4 -4,-9l-54 0c0,3 1,9 -3,9 -6,0 -4,-5 -4,-13 0,-1 1,-3 3,-3l58 0 0 -9 -39 0c-2,0 -3,-2 -3,-5 0,-12 -1,-21 8,-30 6,-6 12,-8 21,-8 -2,-2 -3,-3 -4,-6 -3,-6 -2,-14 -2,-21 0,-12 10,-21 21,-22zm-6 30c2,0 6,-1 8,-2 4,-2 3,-2 6,-4l8 5c0,5 0,9 -2,13 -7,13 -27,7 -27,-7 -1,-1 -1,-3 0,-5l7 0zm0 -7c-1,1 -6,0 -7,0 -1,-1 -1,-1 0,-2 0,-7 7,-13 14,-13 8,-1 14,5 15,12 -4,-1 -8,-6 -11,-3 -3,2 -6,5 -11,6z"/>
   <path class="fil1" d="M95 71c5,0 6,7 1,8 -5,0 -6,-7 -1,-8zm-38 13l77 0c0,-12 -1,-17 -8,-23 -7,-6 -16,-4 -27,-4 0,4 1,7 -4,7 -4,1 -3,-4 -3,-7 -10,0 -20,-2 -27,4 -7,6 -8,11 -8,23z"/>
   <path class="fil2" d="M7 184l54 0 0 -9c0,-18 -16,-15 -27,-15 -10,0 -27,-3 -27,15l0 9z"/>
   <path class="fil3" d="M130 184l54 0c-1,-15 1,-26 -23,-24 -1,4 -1,8 -1,11 0,4 1,8 -3,8 -6,-1 -4,-10 -4,-19 -8,0 -15,-1 -19,4 -5,5 -4,12 -4,20z"/>
   <path class="fil4" d="M69 184l53 0 0 -9c0,-9 -5,-15 -14,-15l-9 0c0,9 2,19 -4,19 -3,0 -3,-4 -3,-8 0,-3 0,-7 0,-11 -9,0 -23,-2 -23,15l0 9z"/>
   <path class="fil5" d="M88 30c-2,1 -5,1 -7,1l0 4c0,14 20,20 27,7 2,-4 2,-8 2,-13l-8 -5c-3,2 -2,2 -6,4 -2,1 -6,2 -8,2z"/>
   <path class="fil5" d="M95 130c-14,1 -12,24 2,22 12,-1 11,-24 -2,-22z"/>
   <path class="fil5" d="M33 130c-13,1 -11,24 2,22 13,-1 12,-24 -2,-22z"/>
   <path class="fil5" d="M156 130c-13,1 -12,24 2,22 13,-1 11,-24 -2,-22z"/>
   <path class="fil2" d="M81 21l0 2 7 0c5,-1 8,-4 11,-6 3,-3 7,2 11,3 -1,-7 -7,-13 -15,-12 -7,0 -14,6 -14,13z"/>
   <path class="fil0" d="M137 108l16 0c0,4 -1,9 4,9 5,0 4,-7 4,-11 0,-3 -1,-5 -4,-5l-20 0c-4,0 -4,7 0,7z"/>
   <path class="fil0" d="M122 104c0,6 7,5 7,1 0,-6 -7,-5 -7,-1z"/>
   <path class="fil0" d="M95 71c-5,1 -4,8 1,8 5,-1 4,-8 -1,-8z"/>
   <path class="fil6" d="M88 23l-7 0 0 -2c-1,1 -1,1 0,2 1,0 6,1 7,0z"/>
   <path class="fil7" d="M81 35l0 -4c2,0 5,0 7,-1l-7 0c-1,2 -1,4 0,5z"/>
  </g>
 </g>
</svg>
