<svg id="d3db1b2c-7e10-4c37-99c9-44abbde68b2e" data-name="Layer 1" xmlns="http://www.w3.org/2000/svg" viewBox="0 0 153.56 122.96"><title>ib6</title><path d="M3043.3,526h46.49l0.35,17.8-19.25-.1v3.9h73.48v-3.9l-19.19.3V526h20.09v-13.5H3056.5V453.09h103.77v41.69h12.6a0.74,0.74,0,0,0,.9-0.9V440.8a0.74,0.74,0,0,0-.9-0.9H3043.3V526Z" transform="translate(-3043.3 -439.9)" fill="#fff" fill-rule="evenodd"/><path d="M3175.27,528.07h-3.6c-4.55,0-11-3-13.42-5.17-0.88-.8-1.58-1.24-2.41-2.09a10.56,10.56,0,0,1-1.09-1.3c-0.47-.6-0.69-0.75-1.12-1.28a17.71,17.71,0,0,1-1.86-2.94l-1.2-2.4a2.31,2.31,0,0,0-.5-0.7v18c0,11.57-.81,20,8.79,27.8,4.88,4,9.38,4.89,16.1,4.89,9.31,0,17.75-6.88,20.78-15.51a24.79,24.79,0,0,0,1.11-6.92V511.87a2.12,2.12,0,0,0-.39.51,5.14,5.14,0,0,0-.39.8C3192.68,521.31,3183.79,528.07,3175.27,528.07Z" transform="translate(-3043.3 -439.9)" fill="#fff" fill-rule="evenodd"/><path d="M3170.17,514.27c0-4.83-.9-9.73,2.63-10.6,1.69-.42,4,0.72,4,2.8,0,3.09.53,9.44-.72,11s-5.88,2.11-5.88-3.18h0Zm-18.29-12.9c0,6.16.32,9.39,4.07,14.82s10.36,8.87,18.12,8.87c10.9,0,21-9.82,21-20.69l-0.3-5.1h-42.59A16.51,16.51,0,0,0,3151.87,501.38Z" transform="translate(-3043.3 -439.9)" fill="#fff" fill-rule="evenodd"/><path d="M3073.29,499.88c0-4.88,6.3-3.69,6.3-.9,0,1.89-.28,3.9-3.3,3.9a3.21,3.21,0,0,1-3-3h0Zm41.09-30a3.32,3.32,0,0,1,3.18,2.8c0.2,1.43-1,3.5-2.28,3.5-1.66,0-2.45.28-3.53-1.28a3.26,3.26,0,0,1,2.63-5h0Zm-19.79-7.2c0-4.75,6.3-3.78,6.3-.9,0,1.89-.28,3.9-3.3,3.9a3.26,3.26,0,0,1-3-3h0Zm-2.1,1.5-6.6,3.3c-3.48-5.19-12.3-2.37-12.3,3.9,0,4.62,4.38,9.39,10.8,6,1.3,0.87,4.77,4.92,6.67,6.82,2.29,2.29,4.73,4.3,6.52,7a5.4,5.4,0,0,0-1.2,3.9c-2.56.21-12.66,2.4-14.4,2.4-1.16,0-1.85-3.3-5.7-3.3-7.17,0-6.83,11.1,0,11.1a5.63,5.63,0,0,0,5.7-5.4,25.85,25.85,0,0,0,3.6-.6l11.1-1.8c4.6,8.69,15.14,3.48,13.08-4.38-0.47-1.78-1.17-2.2-2-3.42l5.7-11.1c2.15,0,3.06,0,4.28-1.11a5.52,5.52,0,0,0-3.38-9.84c-3,0-5.4,2.07-5.4,5.86,0,2.45,1.44,3.06,2.4,4.5-1.86,3.52-3.83,7-5.7,10.5-2.46-.2-3.08-1-6.6.9a11,11,0,0,0-1.58-1.72l-4.79-5.1c-2.29-2.29-4.73-4.3-6.52-7,1.84-3.48,1.12-3.6.9-6.3a14.49,14.49,0,0,0,3.29-1.51c1.11-.65,2.13-1.16,3.31-1.79,2.64,3.94,9.6,1.93,9.6-3.6a5.47,5.47,0,0,0-9.82-3.22C3091.73,461.27,3092.46,462.9,3092.49,464.19Z" transform="translate(-3043.3 -439.9)" fill="#fff" fill-rule="evenodd"/><path d="M3129.38,505l5.31-4.18,3,3.57,1,1.14,2.13,2.76,3.9-3c-0.85-1.26-1.92-2.42-2.93-3.67l-3.07-3.83c0.9-1.34,3.7-3.17,5.1-4.2a103.62,103.62,0,0,0-9.42-4.37l-9.77-4,3.6,14.7Z" transform="translate(-3043.3 -439.9)" fill="#fff" fill-rule="evenodd"/></svg>