<?xml version="1.0" encoding="UTF-8"?>
<!DOCTYPE svg PUBLIC "-//W3C//DTD SVG 1.0//EN" "http://www.w3.org/TR/2001/REC-SVG-20010904/DTD/svg10.dtd">
<!-- Creator: CorelDRAW X7 -->
<svg xmlns="http://www.w3.org/2000/svg" xml:space="preserve" width="2.08333in" height="2.08333in" version="1.0" style="shape-rendering:geometricPrecision; text-rendering:geometricPrecision; image-rendering:optimizeQuality; fill-rule:evenodd; clip-rule:evenodd"
viewBox="0 0 751 751"
 xmlns:xlink="http://www.w3.org/1999/xlink">
 <defs>
  <style type="text/css">
   <![CDATA[
    .fil3 {fill:none}
    .fil2 {fill:#EF7F1A}
    .fil0 {fill:#A2D9F7}
    .fil1 {fill:#008DD2}
   ]]>
  </style>
 </defs>
 <g id="Layer_x0020_1">
  <metadata id="CorelCorpID_0Corel-Layer"/>
  <g id="_103430322768">
   <g>
    <path class="fil0" d="M1 496l227 0 2 87 -94 -1 0 19 358 0 0 -19 -93 2 0 -88 98 0 0 -66 -434 0 0 -290 507 0 0 204 61 0c4,0 5,-1 5,-5l0 -259c0,-3 -1,-4 -5,-4l-632 0 0 420z"/>
    <path class="fil1" d="M645 506l-17 0c-23,0 -54,-14 -66,-25 -4,-4 -8,-6 -12,-10 -2,-3 -3,-4 -5,-7 -2,-3 -3,-3 -5,-6 -4,-4 -7,-9 -10,-14l-5 -12c-2,-3 -1,-2 -3,-4 0,30 0,59 0,88 0,57 -4,98 43,136 24,19 46,24 79,24 45,0 86,-34 101,-76 4,-9 5,-21 6,-34l0 -50 0 -1 0 -1 0 -2 0 -1 0 -2 0 -1 0 -1 0 -2 0 -1 0 -2 0 -1 0 -1 0 -2 0 -1 0 -2 0 -1 0 -1 0 -2 0 -1 0 -2 0 -1 0 -1 0 -2 0 -1 0 -2 0 -1 0 -1 0 -2 0 -1 0 -2 0 -1 0 -1 0 -2 0 -1 0 -2 0 -1 0 -1 0 -2 0 -1 0 -2 0 -1 0 -1 0 -2 0 -1 0 -1 0 -2 0 -1 0 -2 0 -1 0 -1 0 -2 0 -1 0 -2 0 -1 0 -1 0 -2 0 -1 0 -2 0 -1 0 -1 0 -2 0 -1 0 -2 0 -1c-1,1 -1,1 -2,2 -1,2 -1,3 -2,4 -17,40 -60,73 -102,73z"/>
    <path class="fil1" d="M620 439c0,-24 -4,-48 13,-52 8,-2 19,3 19,14 0,15 3,46 -3,53 -6,8 -29,11 -29,-15zm-89 -63c0,30 2,46 20,72 19,27 50,43 88,43 54,0 103,-48 103,-101l-2 -25 -208 0c0,5 -1,6 -1,11z"/>
    <path class="fil2" d="M147 368c0,-23 31,-18 31,-4 0,9 -1,19 -16,19 -7,0 -15,-7 -15,-15zm201 -146c6,0 14,5 15,14 1,7 -4,17 -11,17 -8,0 -12,1 -17,-6 -7,-11 2,-25 13,-25zm-97 -35c0,-23 31,-19 31,-5 0,10 -1,19 -16,19 -8,0 -15,-7 -15,-14zm-10 7l-32 16c-17,-25 -60,-11 -60,19 0,23 21,46 52,30 7,4 24,24 33,33 11,11 23,21 32,34 -5,5 -6,11 -6,19 -12,1 -62,12 -70,12 -6,0 -9,-16 -28,-16 -35,0 -33,54 0,54 15,0 27,-12 28,-27 6,0 12,-2 17,-3l55 -8c22,42 73,17 63,-22 -2,-8 -5,-10 -9,-16l28 -55c10,0 14,0 20,-5 21,-18 7,-48 -16,-48 -15,0 -26,10 -26,29 0,12 7,15 11,22 -9,17 -18,34 -28,51 -12,-1 -15,-5 -32,4 -2,-4 -4,-5 -7,-8l-24 -25c-11,-11 -23,-21 -32,-34 9,-17 6,-18 5,-31 5,-1 12,-5 16,-7 5,-3 10,-6 16,-9 13,19 47,9 47,-18 0,-22 -30,-37 -48,-15 -9,10 -5,18 -5,24z"/>
    <path class="fil0" d="M421 393l26 -20 15 17 4 6 11 13 19 -14c-4,-6 -10,-12 -14,-18l-15 -19c4,-6 18,-15 24,-20 -17,-10 -39,-19 -46,-22l-47 -19 17 71 6 25z"/>
   </g>
   <rect class="fil3" width="751" height="751"/>
  </g>
 </g>
</svg>
