<svg id="e2ad69fe-9ec6-4172-9080-372e1b491850" data-name="Layer 1" xmlns="http://www.w3.org/2000/svg" viewBox="0 0 154.14 154.13"><title>ib5</title><path d="M1244.61,532.81A66.16,66.16,0,0,0,1252.2,553a76.42,76.42,0,0,0,8.36,11.18c3.15,3.58,11.4,9.84,15.76,11.9l5.77,2.65a38.07,38.07,0,0,1,4.12,1.61c0-1.65-.09-2,0.79-3,1.29-1.25,1.82-.72,3.21-1.52-2.78-1.42-10.06-2.74-17.38-8.29-1.05-.8-1.95-1.4-2.92-2.19a58.13,58.13,0,0,1-14.18-17.08l-3.1-7.13a33.44,33.44,0,0,1-1.26-3.86,18.46,18.46,0,0,1-1-4.44l-2.08-.11Z" transform="translate(-1227.76 -431.69)" fill="#fff" stroke="#fff" stroke-miterlimit="2.61" stroke-width="0.22" fill-rule="evenodd"/><path d="M1359.24,532.81c0,4.78-4.52,14.06-7.12,18.43-3.84,6.45-9,11.51-15,16-8,6.06-14.47,6.88-17.72,8.54,1.39,0.8,1.92.27,3.21,1.52,0.88,1,.77,1.34.79,3,2.08-1,4.5-1.62,7.84-3.31,0.64-.32,1.22-0.58,1.84-0.86a51.4,51.4,0,0,0,8.42-5.41,22.3,22.3,0,0,0,3.19-2.52l8.06-8.47a63.21,63.21,0,0,0,9.86-18.09,82.29,82.29,0,0,0,2.38-8.82l-3.73-.11Z" transform="translate(-1227.76 -431.69)" fill="#fff" stroke="#fff" stroke-miterlimit="2.61" stroke-width="0.22" fill-rule="evenodd"/><path d="M1296.79,564.37c-0.25,2.55.11,4.56,1.43,5.81,2.55,1.27,2.39,3,6.61,3s4.06-1.7,6.61-3c1.32-1.25,1.68-3.26,1.43-5.81,0.3-8.22.58-9.92-8-9.92S1296.5,556.17,1296.79,564.37Z" transform="translate(-1227.76 -431.69)" fill="#fff" stroke="#fff" stroke-miterlimit="2.61" stroke-width="0.22" fill-rule="evenodd"/><path d="M1238.4,511.16a16.94,16.94,0,0,0,.1,3.5,4.92,4.92,0,0,0,1.39,2.48c2.52,1.38,2.42,3,6.62,2.94,3.75,0,4.26-1.66,6.61-3a7.5,7.5,0,0,0,1.37-5.92c0.28-7.85.3-9.78-8-9.78C1238,501.38,1238.11,503,1238.4,511.16Z" transform="translate(-1227.76 -431.69)" fill="#fff" stroke="#fff" stroke-miterlimit="2.61" stroke-width="0.22" fill-rule="evenodd"/><path d="M1355.16,511.16a7.5,7.5,0,0,0,1.37,5.92c2.35,1.34,2.86,3,6.61,3,4.19,0,4.09-1.56,6.62-2.94a5.08,5.08,0,0,0,1.33-2.24,15.33,15.33,0,0,0,.16-3.74c0.28-8.17.36-9.78-8.11-9.78C1354.86,501.38,1354.88,503.31,1355.16,511.16Z" transform="translate(-1227.76 -431.69)" fill="#fff" stroke="#fff" stroke-miterlimit="2.61" stroke-width="0.22" fill-rule="evenodd"/><path d="M1296.78,450.14c-0.29,3.18.05,4.23,1.43,5.93,2.14,1.38,3.08,3,6.61,3s4.47-1.59,6.61-3c1.38-1.7,1.72-2.75,1.43-5.93,0.29-8,.21-9.79-8-9.79S1296.49,442.14,1296.78,450.14Z" transform="translate(-1227.76 -431.69)" fill="#fff" stroke="#fff" stroke-miterlimit="2.61" stroke-width="0.22" fill-rule="evenodd"/><path d="M1323.45,469.68c4.57,1,14.54,7.16,17.82,10.45,0.75,0.75,1.06.85,1.81,1.5l5.17,5.65c1.05,1.41,2.15,2.68,3,4.17,0.74,1.22,2.23,3.42,2.53,4.69,0.87-.35,1.21-1.09,2.12-1.79,1.11-.85,1.31-0.59,2.51-1.39l0.17-.13c-1-1.21-3.65-5.87-6.51-9.41a63.73,63.73,0,0,0-17.28-14.58c-1.84-1.11-9.23-4.71-11.52-4.86Z" transform="translate(-1227.76 -431.69)" fill="#fff" stroke="#fff" stroke-miterlimit="2.61" stroke-width="0.22" fill-rule="evenodd"/><path d="M1251,492.82a1.63,1.63,0,0,0,.52.37l2,1c1,0.73,1.36,1.55,2.29,1.92,0.71-3.06,6.22-9.64,8.65-12.4,2.67-3,8.7-7.55,11.89-9.45,2.12-1.26,7.54-4.08,9.84-4.6l0.14-5.71c-3.06.21-10.89,4.42-13.74,6.25a48.1,48.1,0,0,0-9,6.9c-0.82.81-1.4,1-2.11,1.79l-3.79,4.33C1255.11,486.48,1251.72,492,1251,492.82Z" transform="translate(-1227.76 -431.69)" fill="#fff" stroke="#fff" stroke-miterlimit="2.61" stroke-width="0.22" fill-rule="evenodd"/><path d="M1296.78,450.14c-0.29-8-.21-9.79,8-9.79s8.34,1.8,8,9.79c1.77-1,2.58-2.55,2.76-5.12a27.74,27.74,0,0,0-.47-7.62,7.55,7.55,0,0,0-3.43-4.38,11,11,0,0,0-4.26-1.21h-5.35a11,11,0,0,0-4,1.1,7.6,7.6,0,0,0-3.62,4.49,27.17,27.17,0,0,0-.49,7.34C1294.13,447.46,1295,449.08,1296.78,450.14Z" transform="translate(-1227.76 -431.69)" fill="#fff" stroke="#fff" stroke-miterlimit="2.61" stroke-width="0.22" fill-rule="evenodd"/><path d="M1296.79,564.37c-0.29-8.2-.57-9.92,8-9.92s8.34,1.69,8,9.92c3.7-2.13,3.09-9.82,2.3-12.74-1.21-4.46-4.76-5.9-10.34-5.9-9.41,0-11.44,4.59-10.81,13.22C1294.19,561.32,1295.17,563.44,1296.79,564.37Z" transform="translate(-1227.76 -431.69)" fill="#fff" stroke="#fff" stroke-miterlimit="2.61" stroke-width="0.22" fill-rule="evenodd"/><path d="M1353.83,496.13c-0.88,3.78-1.19-.66-1.2,8.12a12.56,12.56,0,0,0,.28,4.23,4.63,4.63,0,0,0,2.25,2.69c-0.28-7.85-.3-9.78,8-9.78,8.47,0,8.39,1.62,8.11,9.78,2.07-1.37,2.74-2.87,2.72-6.31s0.19-5.52-1.1-7.93a8,8,0,0,0-5.09-3.93c-2.21-.55-6.62-0.17-9.15-0.17l-0.17.13c-1.2.8-1.4,0.54-2.51,1.39C1355,495,1354.7,495.78,1353.83,496.13Z" transform="translate(-1227.76 -431.69)" fill="#fff" stroke="#fff" stroke-miterlimit="2.61" stroke-width="0.22" fill-rule="evenodd"/><path d="M1238.4,511.16c-0.28-8.17-.36-9.78,8.11-9.78,8.29,0,8.27,1.93,8,9.78,2.88-1.5,2.54-4.45,2.54-6.91,0-8.71-.33-4.39-1.2-8.12-0.93-.37-1.26-1.18-2.29-1.92l-2-1a1.63,1.63,0,0,1-.52-0.37c-5.57,0-11.21-1.23-14.14,3.91-1.34,2.36-1.19,4.23-1.21,7.82S1236.18,509.7,1238.4,511.16Z" transform="translate(-1227.76 -431.69)" fill="#fff" stroke="#fff" stroke-miterlimit="2.61" stroke-width="0.22" fill-rule="evenodd"/><path d="M1345.11,524.3c1.44,1.2,2.66,2.13,4,3.29,1.61,1.37,2.12,2.52,1.79,5.21h8.31l2.08-.11a4.54,4.54,0,0,1,.34-2.62l0.16-4a2.61,2.61,0,0,0-1.22.58,6.11,6.11,0,0,0-.69.51,2.4,2.4,0,0,1-1.79.68c-1-1.13-2.48-4.87-3.22-6.47-1.71.31-3.56,0.8-5.28,1.2S1346.11,523.08,1345.11,524.3Z" transform="translate(-1227.76 -431.69)" fill="#fff" stroke="#fff" stroke-miterlimit="2.61" stroke-width="0.22" fill-rule="evenodd"/><path d="M1247.83,526.08l0.16,4a4.54,4.54,0,0,1,.34,2.62l2.08,0.11h8.31c-0.33-2.7.18-3.85,1.79-5.21,1.37-1.16,2.58-2.09,4-3.29-1-1.22-2.73-1.3-4.51-1.72s-3.57-.89-5.28-1.2c-0.74,1.61-2.2,5.34-3.22,6.47C1249.91,527.9,1249.92,526.82,1247.83,526.08Z" transform="translate(-1227.76 -431.69)" fill="#fff" stroke="#fff" stroke-miterlimit="2.61" stroke-width="0.22" fill-rule="evenodd"/><path d="M1228.47,524.4a12.38,12.38,0,0,1,2,1.61c0.86,0.66,1.1,1,1.93,1.68,1.83,1.58,2,1.84,1.82,5.11h10.41l0-.3,0.41-6.5c-1.6.7-2,1.76-3.71,1.89a14.7,14.7,0,0,1-1.69-3.27c-0.28-.61-0.55-1.26-0.85-1.86l-1-1.42a30.82,30.82,0,0,1-4.83,1.2C1231.1,522.94,1229.36,523,1228.47,524.4Z" transform="translate(-1227.76 -431.69)" fill="#fff" stroke="#fff" stroke-miterlimit="2.61" stroke-width="0.22" fill-rule="evenodd"/><path d="M1364.6,526l0.41,6.5,0,0.3h10.41c-0.15-3.26,0-3.55,1.82-5.11,0.83-.72,1.07-1,1.93-1.68a12.38,12.38,0,0,1,2-1.61c-0.86-1.33-2.51-1.44-4.23-1.79a32.27,32.27,0,0,1-5.09-1.25l-1.11,1.63c-0.61,1.3-1.75,4.16-2.45,4.93C1366.64,527.77,1366.2,526.72,1364.6,526Z" transform="translate(-1227.76 -431.69)" fill="#fff" stroke="#fff" stroke-miterlimit="2.61" stroke-width="0.22" fill-rule="evenodd"/><path d="M1306.5,471.78H1317c-0.19-2.93.11-4,1.82-5.21,1.43-1,2.5-2.36,4-3.28-1.61-2.05-6.75-1.7-9.32-2.94-0.86.66-1.07,1.72-1.87,3.24a21.82,21.82,0,0,1-1.73,3.29c-1.33-.06-2.39-1.19-3.71-1.81Z" transform="translate(-1227.76 -431.69)" fill="#fff" stroke="#fff" stroke-miterlimit="2.61" stroke-width="0.22" fill-rule="evenodd"/><path d="M1286.79,463.29c1.5,0.91,2.58,2.24,4,3.28,1.7,1.23,2,2.28,1.82,5.21h10.55l0.27-6.7c-1.32.61-2.39,1.74-3.71,1.81a21.82,21.82,0,0,1-1.73-3.29c-0.8-1.53-1-2.59-1.87-3.24C1293.54,461.59,1288.4,461.24,1286.79,463.29Z" transform="translate(-1227.76 -431.69)" fill="#fff" stroke="#fff" stroke-miterlimit="2.61" stroke-width="0.22" fill-rule="evenodd"/><path d="M1290.21,575.79c-1.39.8-1.92,0.27-3.21,1.52,1.84,2.94,5.64,2.55,5.64,8.4h10.41l0.36-6.55c-1.42.57-1.74,1.43-3.4,1.85-1.54-1.13-2.66-4.63-3.45-6.43C1294.36,574.63,1292.25,575.74,1290.21,575.79Z" transform="translate(-1227.76 -431.69)" fill="#fff" stroke="#fff" stroke-miterlimit="2.61" stroke-width="0.22" fill-rule="evenodd"/><path d="M1306.24,579.17l0.36,6.55H1317c0-5,2-4.6,5.21-7.88a1.44,1.44,0,0,0,.43-0.52c-1.29-1.25-1.82-.72-3.21-1.52-2-.05-4.14-1.16-6.36-1.2-0.79,1.8-1.91,5.29-3.45,6.43C1308,580.6,1307.66,579.74,1306.24,579.17Z" transform="translate(-1227.76 -431.69)" fill="#fff" stroke="#fff" stroke-miterlimit="2.61" stroke-width="0.22" fill-rule="evenodd"/><path d="M1296.11,460.36c0.86,0.66,1.07,1.72,1.87,3.24a21.82,21.82,0,0,0,1.73,3.29c1.33-.06,2.39-1.19,3.71-1.81l-0.27,6.7h3.34l-0.27-6.7c1.32,0.61,2.39,1.74,3.71,1.81a21.82,21.82,0,0,0,1.73-3.29c0.8-1.53,1-2.59,1.87-3.24a10,10,0,0,0-1.2-2.1h-0.94a52.07,52.07,0,0,1-6.58,5.7,51.9,51.9,0,0,1-6.58-5.7h-0.94A10,10,0,0,0,1296.11,460.36Z" transform="translate(-1227.76 -431.69)" fill="#fff" stroke="#fff" stroke-miterlimit="2.61" stroke-width="0.22" fill-rule="evenodd"/><path d="M1237.79,521.35l1,1.42c0.3,0.61.56,1.25,0.85,1.86a14.7,14.7,0,0,0,1.69,3.27c1.67-.14,2.11-1.19,3.71-1.89,1.1-.73,1.67-1.09,2.77.07,2.09,0.74,2.08,1.82,3.7,1.77,1-1.13,2.48-4.87,3.22-6.47a1.19,1.19,0,0,0-.27-1.35,1.6,1.6,0,0,0-1.43-.75l-6.55,5.78-6.61-5.78c-1,.08-0.86,0-1.42.69A4.73,4.73,0,0,0,1237.79,521.35Z" transform="translate(-1227.76 -431.69)" fill="#fff" stroke="#fff" stroke-miterlimit="2.61" stroke-width="0.22" fill-rule="evenodd"/><path d="M1354.9,521.38c0.74,1.61,2.2,5.34,3.22,6.47a2.4,2.4,0,0,0,1.79-.68,6.11,6.11,0,0,1,.69-0.51,2.61,2.61,0,0,1,1.22-.58c1.11-1.16,1.68-.79,2.77-0.07,1.6,0.7,2,1.76,3.71,1.89,0.7-.76,1.84-3.63,2.45-4.93l1.11-1.63a4.73,4.73,0,0,0-.69-1.39c-0.56-.67-0.4-0.61-1.42-0.69l-5.54,5c-0.33.26-.21,0.19-0.51,0.41a2.21,2.21,0,0,1-.56.39c-1.11-.89-2.25-1.83-3.28-2.79a32.23,32.23,0,0,1-3.27-3,1.7,1.7,0,0,0-1.29.59,2.36,2.36,0,0,0-.33.55C1354.7,521.22,1354.74,520.3,1354.9,521.38Z" transform="translate(-1227.76 -431.69)" fill="#fff" stroke="#fff" stroke-miterlimit="2.61" stroke-width="0.22" fill-rule="evenodd"/><path d="M1298.36,572.49a19.93,19.93,0,0,0,3,2.82c0.64,0.56,1,.75,1.64,1.37l1.13,1a1.45,1.45,0,0,1,.46.59H1305c0.83-1.34,5.59-4.58,6.28-5.79l0.15-2.31c-2.55,1.27-2.39,3-6.61,3s-4.06-1.7-6.61-3Z" transform="translate(-1227.76 -431.69)" fill="#fff" stroke="#fff" stroke-miterlimit="2.61" stroke-width="0.22" fill-rule="evenodd"/><path d="M1298.25,458.25a51.9,51.9,0,0,0,6.58,5.7,52.07,52.07,0,0,0,6.58-5.7l0-2.18c-2.14,1.38-3.08,3-6.61,3s-4.47-1.59-6.61-3Z" transform="translate(-1227.76 -431.69)" fill="#fff" stroke="#fff" stroke-miterlimit="2.61" stroke-width="0.22" fill-rule="evenodd"/><path d="M1356.59,519.28a32.23,32.23,0,0,0,3.27,3c1,1,2.17,1.9,3.28,2.79a2.21,2.21,0,0,0,.56-0.39c0.3-.22.18-0.15,0.51-0.41l5.54-5v-2.13c-2.52,1.38-2.42,3-6.62,2.94-3.75,0-4.26-1.66-6.61-3Z" transform="translate(-1227.76 -431.69)" fill="#fff" stroke="#fff" stroke-miterlimit="2.61" stroke-width="0.22" fill-rule="evenodd"/><path d="M1239.9,519.28l6.61,5.78,6.55-5.78,0.06-2.2c-2.35,1.34-2.86,3-6.61,3-4.19,0-4.09-1.56-6.62-2.94v2.13Z" transform="translate(-1227.76 -431.69)" fill="#fff" stroke="#fff" stroke-miterlimit="2.61" stroke-width="0.22" fill-rule="evenodd"/><path d="M1258.73,532.8h5.51l0.84-1c0.06-2.45.46-5.83-.54-7.53-1.44,1.2-2.66,2.13-4,3.29C1258.91,529,1258.4,530.11,1258.73,532.8Z" transform="translate(-1227.76 -431.69)" fill="#fff" stroke="#fff" stroke-miterlimit="2.61" stroke-width="0.22" fill-rule="evenodd"/><path d="M1350.93,532.8c0.33-2.7-.18-3.85-1.79-5.21-1.37-1.16-2.58-2.09-4-3.29-1,1.7-.6,5.09-0.6,7.6l1,0.84Z" transform="translate(-1227.76 -431.69)" fill="#fff" stroke="#fff" stroke-miterlimit="2.61" stroke-width="0.22" fill-rule="evenodd"/><path d="M1317,471.78h5.56c0.71-1.12.85-.4,0.85-2.1l-0.14-5.71c-0.09-.51.46,0-0.45-0.67-1.5.91-2.58,2.24-4,3.28C1317.15,467.8,1316.86,468.85,1317,471.78Z" transform="translate(-1227.76 -431.69)" fill="#fff" stroke="#fff" stroke-miterlimit="2.61" stroke-width="0.22" fill-rule="evenodd"/><path d="M1286.34,464l-0.14,5.71c0,1.71.14,1,.89,2.1h5.52c0.19-2.93-.11-4-1.82-5.21-1.43-1-2.5-2.36-4-3.28C1285.88,464,1286.44,463.45,1286.34,464Z" transform="translate(-1227.76 -431.69)" fill="#fff" stroke="#fff" stroke-miterlimit="2.61" stroke-width="0.22" fill-rule="evenodd"/><path d="M1234.2,532.8c0.15-3.27,0-3.54-1.82-5.11-0.83-.72-1.07-1-1.93-1.68a12.38,12.38,0,0,0-2-1.61,1.17,1.17,0,0,0-.6.84v6.27C1228.06,533.15,1229.14,532.8,1234.2,532.8Z" transform="translate(-1227.76 -431.69)" fill="#fff" stroke="#fff" stroke-miterlimit="2.61" stroke-width="0.22" fill-rule="evenodd"/><path d="M1375.46,532.8c5.06,0,6.14.34,6.33-1.3v-6.25a1.36,1.36,0,0,0-.6-0.85,12.38,12.38,0,0,0-2,1.61c-0.86.66-1.1,1-1.93,1.68C1375.46,529.26,1375.31,529.54,1375.46,532.8Z" transform="translate(-1227.76 -431.69)" fill="#fff" stroke="#fff" stroke-miterlimit="2.61" stroke-width="0.22" fill-rule="evenodd"/><path d="M1322.06,585.71a3.85,3.85,0,0,0,1.1-.3c0.54-1.13.33-3.49,0.27-5.11s0.09-2-.79-3a1.44,1.44,0,0,1-.43.52c-3.17,3.27-5.21,2.87-5.21,7.88h5Z" transform="translate(-1227.76 -431.69)" fill="#fff" stroke="#fff" stroke-miterlimit="2.61" stroke-width="0.22" fill-rule="evenodd"/><path d="M1286.22,580.3c-0.05,1.62-.27,4,0.27,5.11a3.85,3.85,0,0,0,1.1.3h5c0-5.85-3.8-5.46-5.64-8.4C1286.13,578.27,1286.23,578.65,1286.22,580.3Z" transform="translate(-1227.76 -431.69)" fill="#fff" stroke="#fff" stroke-miterlimit="2.61" stroke-width="0.22" fill-rule="evenodd"/><path d="M1305,578.28c0.52,0.39.81,0.54,1.22,0.89,1.42,0.57,1.74,1.43,3.4,1.85,1.54-1.13,2.66-4.63,3.45-6.43l0.51-.56c-1.33-1-.24-1.4-2.3-1.55C1310.61,573.7,1305.85,576.94,1305,578.28Z" transform="translate(-1227.76 -431.69)" fill="#fff" stroke="#fff" stroke-miterlimit="2.61" stroke-width="0.22" fill-rule="evenodd"/><path d="M1296.57,574.59c0.79,1.8,1.91,5.29,3.45,6.43,1.66-.42,2-1.28,3.4-1.85,0.41-.35.7-0.5,1.22-0.89a1.45,1.45,0,0,0-.46-0.59l-1.13-1c-0.67-.62-1-0.81-1.64-1.37a19.93,19.93,0,0,1-3-2.82c-2.05.14-1,.57-2.25,1.5Z" transform="translate(-1227.76 -431.69)" fill="#fff" stroke="#fff" stroke-miterlimit="2.61" stroke-width="0.22" fill-rule="evenodd"/><path d="M1303.42,579.17l-0.36,6.55h3.55l-0.36-6.55c-0.41-.34-0.7-0.5-1.22-0.89h-0.38C1304.11,578.66,1303.83,578.82,1303.42,579.17Z" transform="translate(-1227.76 -431.69)" fill="#fff" stroke="#fff" stroke-miterlimit="2.61" stroke-width="0.22" fill-rule="evenodd"/><path d="M1245.06,526l-0.41,6.5h3.5l-0.15-2.42-0.16-4C1246.72,524.92,1246.15,525.29,1245.06,526Z" transform="translate(-1227.76 -431.69)" fill="#fff" stroke="#fff" stroke-miterlimit="2.61" stroke-width="0.22" fill-rule="evenodd"/><path d="M1361.83,526.08l-0.16,4-0.15,2.42h3.5l-0.41-6.5C1363.5,525.29,1362.94,524.92,1361.83,526.08Z" transform="translate(-1227.76 -431.69)" fill="#fff" stroke="#fff" stroke-miterlimit="2.61" stroke-width="0.22" fill-rule="evenodd"/><path d="M1361.32,532.7l3.73,0.11,0-.3h-3.5l0.15-2.42A4.54,4.54,0,0,0,1361.32,532.7Z" transform="translate(-1227.76 -431.69)" fill="#fff" stroke="#fff" stroke-miterlimit="2.61" stroke-width="0.22" fill-rule="evenodd"/><path d="M1244.64,532.51l0,0.3,3.72-.11a4.54,4.54,0,0,0-.34-2.62l0.15,2.42h-3.5Z" transform="translate(-1227.76 -431.69)" fill="#fff" stroke="#fff" stroke-miterlimit="2.61" stroke-width="0.22" fill-rule="evenodd"/></svg>