<?xml version="1.0" encoding="UTF-8"?>
<!DOCTYPE svg PUBLIC "-//W3C//DTD SVG 1.0//EN" "http://www.w3.org/TR/2001/REC-SVG-20010904/DTD/svg10.dtd">
<!-- Creator: CorelDRAW X7 -->
<svg xmlns="http://www.w3.org/2000/svg" xml:space="preserve" width="2.08334in" height="2.08334in" version="1.0" style="shape-rendering:geometricPrecision; text-rendering:geometricPrecision; image-rendering:optimizeQuality; fill-rule:evenodd; clip-rule:evenodd"
viewBox="0 0 5250 5250"
 xmlns:xlink="http://www.w3.org/1999/xlink">
 <defs>
  <style type="text/css">
   <![CDATA[
    .fil7 {fill:#5B5D6E}
    .fil3 {fill:#694B4B}
    .fil5 {fill:#6F7386}
    .fil9 {fill:#A0D2F0}
    .fil10 {fill:#ACADBA}
    .fil6 {fill:#B2E0F9}
    .fil8 {fill:#D29B6D}
    .fil2 {fill:#E4E9F5}
    .fil0 {fill:#E4EAF6}
    .fil1 {fill:#EEBF86}
    .fil4 {fill:#EEF1F9}
   ]]>
  </style>
 </defs>
 <g id="Layer_x0020_1">
  <metadata id="CorelCorpID_0Corel-Layer"/>
  <g id="_103493280528">
   <path class="fil0" d="M571 3445c53,245 133,477 259,688 82,137 180,262 285,381 108,122 389,336 538,406l196 90c48,17 102,35 141,55 0,-56 -3,-69 27,-102 44,-42 62,-24 109,-52 -94,-48 -343,-93 -592,-282 -36,-28 -67,-48 -100,-75 -130,-106 -244,-229 -344,-363 -50,-67 -98,-145 -140,-220l-105 -243c-19,-51 -30,-79 -43,-131 -13,-51 -33,-98 -33,-152l-71 -3 -127 3z"/>
   <path class="fil0" d="M4481 3445c0,163 -154,480 -243,629 -131,220 -307,393 -510,546 -274,207 -494,235 -605,291 48,28 66,10 110,52 30,33 26,46 27,102 71,-36 153,-55 267,-113 22,-11 42,-19 63,-29 92,-42 206,-123 287,-185 44,-32 70,-45 109,-86l275 -288c107,-144 140,-185 223,-352 46,-92 78,-160 113,-266 34,-101 57,-189 82,-301l-127 -3 -71 3z"/>
   <path class="fil1" d="M2351 4522c-9,87 3,155 48,198 87,43 82,101 226,101 144,0 138,-58 225,-101 45,-43 58,-111 49,-198 10,-281 20,-338 -274,-338 -294,0 -284,58 -274,338z"/>
   <path class="fil1" d="M359 2707c0,39 -4,82 4,119 10,49 25,55 47,85 86,47 83,101 226,100 128,0 145,-56 225,-102 36,-43 61,-119 47,-202 10,-268 10,-334 -272,-334 -289,0 -287,55 -277,334z"/>
   <path class="fil1" d="M4342 2707c-14,83 10,159 46,202 81,46 98,102 226,102 143,1 140,-53 226,-100 20,-28 33,-33 45,-77 10,-37 6,-85 6,-127 9,-279 12,-334 -277,-334 -283,0 -282,66 -272,334z"/>
   <path class="fil1" d="M2350 625c-9,109 2,145 49,203 73,47 105,101 226,101 120,0 152,-54 225,-101 47,-58 59,-94 49,-203 10,-272 8,-334 -274,-334 -282,0 -285,62 -275,334z"/>
   <path class="fil2" d="M3260 1292c156,35 496,244 608,356 25,26 36,29 62,52l176 192c36,48 73,92 104,142 25,42 76,117 86,160 30,-12 41,-37 73,-61 37,-29 44,-20 85,-47 1,-1 4,-3 6,-5 -35,-41 -125,-200 -222,-321 -168,-207 -361,-358 -590,-497 -62,-38 -315,-161 -393,-166l5 195z"/>
   <path class="fil2" d="M790 2081c8,7 3,5 18,13l67 35c36,25 47,53 79,65 24,-104 212,-329 294,-423 91,-103 297,-257 406,-322 72,-43 257,-139 336,-157l4 -195c-104,7 -371,151 -468,213 -123,79 -202,131 -308,236 -28,28 -48,35 -72,61l-130 148c-87,110 -203,299 -226,326z"/>
   <path class="fil3" d="M2350 625c-10,-272 -7,-334 275,-334 282,0 284,62 274,334 61,-35 88,-86 95,-174 5,-81 1,-196 -17,-260 -18,-68 -66,-119 -117,-150 -33,-20 -86,-34 -145,-41l-182 0c-56,6 -105,19 -137,37 -55,32 -105,85 -124,154 -18,66 -20,167 -16,250 4,93 32,148 94,184z"/>
   <path class="fil3" d="M2351 4522c-10,-280 -20,-338 274,-338 294,0 284,57 274,338 126,-73 105,-335 78,-435 -41,-152 -162,-201 -352,-201 -321,0 -390,156 -369,451 6,81 40,153 95,185z"/>
   <path class="fil3" d="M4296 2194c-30,129 -40,-22 -41,277 0,54 -5,106 10,144 17,43 38,71 77,92 -10,-268 -11,-334 272,-334 289,0 286,55 277,334 70,-47 93,-98 92,-215 -1,-119 7,-188 -37,-271 -34,-63 -96,-114 -174,-134 -75,-19 -226,-6 -312,-6 -2,2 -5,4 -6,5 -41,27 -48,18 -85,47 -32,24 -43,49 -73,61z"/>
   <path class="fil3" d="M359 2707c-10,-279 -12,-334 277,-334 282,0 282,66 272,334 98,-51 87,-152 87,-236 -1,-297 -12,-150 -41,-277 -32,-12 -43,-40 -79,-65l-67 -35c-15,-8 -10,-6 -18,-13 -190,0 -383,-42 -482,134 -46,80 -41,144 -41,266 -1,124 17,176 92,226z"/>
   <path class="fil4" d="M3999 3155c49,41 90,73 137,112 55,47 72,86 61,178l284 0 71 -3c-2,-39 -4,-59 11,-90l6 -136c-37,13 -8,-1 -42,20 -15,9 -7,5 -23,17 -20,14 -31,24 -61,23 -35,-38 -85,-166 -110,-221 -59,11 -122,28 -180,41 -61,15 -120,18 -154,59z"/>
   <path class="fil4" d="M681 3216l5 136c15,31 14,51 12,90l71 3 284 0c-12,-92 6,-131 61,-178 46,-39 88,-71 137,-112 -34,-41 -93,-44 -154,-59 -59,-13 -122,-30 -180,-41 -25,55 -75,183 -110,221 -55,2 -55,-35 -126,-60z"/>
   <path class="fil4" d="M21 3158c26,13 42,36 67,56 29,22 37,32 66,57 62,53 67,62 62,174l355 0 1 -10 14 -221c-54,24 -69,59 -126,64 -23,-24 -41,-74 -58,-111 -10,-21 -19,-43 -29,-64l-35 -48c-28,14 -127,33 -165,41 -63,13 -122,16 -152,62z"/>
   <path class="fil4" d="M4664 3214l14 221 1 10 355 0c-5,-111 0,-121 62,-174 28,-25 36,-35 66,-57 25,-20 41,-43 67,-56 -29,-45 -85,-48 -144,-61 -42,-8 -144,-27 -174,-42l-38 55c-20,44 -59,142 -83,168 -57,-5 -72,-40 -126,-64z"/>
   <path class="fil5" d="M2682 1364l359 0c-6,-100 4,-136 62,-178 49,-35 86,-81 137,-112 -55,-70 -230,-58 -318,-100 -29,23 -36,59 -64,111 -19,37 -37,86 -59,112 -45,-2 -81,-41 -126,-62l9 229z"/>
   <path class="fil5" d="M2010 1074c51,31 87,77 136,112 58,42 69,78 62,178l360 0 9 -229c-45,21 -81,60 -127,62 -21,-26 -39,-75 -59,-112 -27,-52 -34,-88 -63,-111 -88,42 -263,30 -318,100z"/>
   <path class="fil6" d="M2126 4911c-47,28 -65,10 -109,52 63,100 192,87 192,287l355 0 13 -224c-49,20 -60,49 -116,64 -53,-39 -91,-158 -118,-220 -75,2 -147,40 -217,41z"/>
   <path class="fil6" d="M2673 5026l12 224 355 0c0,-171 70,-157 178,-269 14,-14 6,-4 15,-18 -44,-42 -62,-24 -110,-52 -69,-1 -141,-39 -217,-41 -26,62 -65,181 -117,220 -57,-15 -68,-44 -116,-64z"/>
   <path class="fil7" d="M2328 974c29,23 36,59 63,111 20,37 38,86 59,112 46,-2 82,-41 127,-62l-9 229 114 0 -9 -229c45,21 81,60 126,62 22,-26 40,-75 59,-112 28,-52 35,-88 64,-111 -8,-30 -24,-40 -41,-72l-32 0c-19,27 -194,180 -224,195 -31,-15 -205,-167 -224,-195l-32 0c-17,32 -34,42 -41,72z"/>
   <path class="fil2" d="M338 3055l35 48c10,21 19,43 29,64 17,37 35,87 58,111 57,-5 72,-40 126,-64 38,-25 57,-38 95,2 71,25 71,62 126,60 35,-38 85,-166 110,-221 4,-27 6,-25 -9,-46 -16,-22 -21,-19 -49,-25l-223 197 -226 -197c-35,3 -29,0 -48,23 -9,11 -20,34 -24,48z"/>
   <path class="fil2" d="M4333 3055c25,55 75,183 110,221 30,1 41,-9 61,-23 16,-12 8,-8 23,-17 34,-21 5,-7 42,-20 38,-40 57,-27 95,-2 54,24 69,59 126,64 24,-26 63,-124 83,-168l38 -55c-3,-14 -14,-37 -23,-48 -19,-23 -14,-20 -49,-23l-189 169c-11,9 -7,7 -17,14 -15,11 -4,5 -19,14 -38,-31 -77,-63 -112,-96 -36,-34 -81,-63 -112,-101 -25,5 -27,3 -43,20 -3,2 -10,13 -12,19 -9,27 -8,-4 -2,32z"/>
   <path class="fil8" d="M2404 4799c14,24 75,71 104,96 22,19 33,25 56,46l39 35c14,16 4,1 15,20l13 0c29,-46 191,-156 214,-197l5 -79c-87,43 -81,101 -225,101 -144,0 -139,-58 -226,-101l5 79z"/>
   <path class="fil8" d="M2401 902c19,28 193,180 224,195 30,-15 205,-168 224,-195l1 -74c-73,47 -105,101 -225,101 -121,0 -153,-54 -226,-101l2 74z"/>
   <path class="fil8" d="M4390 2984c31,38 76,67 112,101 35,33 74,65 112,96 15,-9 4,-3 19,-14 10,-7 6,-5 17,-14l189 -169 1 -73c-86,47 -83,101 -226,100 -128,0 -145,-56 -226,-102l2 75z"/>
   <path class="fil8" d="M410 2984l226 197 223 -197 2 -75c-80,46 -97,102 -225,102 -143,1 -140,-53 -226,-100l0 73z"/>
   <path class="fil0" d="M1053 3445l188 0 28 -33c2,-83 16,-199 -18,-257 -49,41 -91,73 -137,112 -55,47 -73,86 -61,178z"/>
   <path class="fil0" d="M4197 3445c11,-92 -6,-131 -61,-178 -47,-39 -88,-71 -137,-112 -34,58 -21,174 -21,259l33 29 186 2z"/>
   <path class="fil7" d="M3041 1364l190 0c24,-38 29,-14 29,-72l-5 -195c-3,-17 16,0 -15,-23 -51,31 -88,77 -137,112 -58,42 -68,78 -62,178z"/>
   <path class="fil7" d="M1994 1097l-4 195c0,58 4,34 30,72l188 0c7,-100 -4,-136 -62,-178 -49,-35 -85,-81 -136,-112 -31,23 -12,6 -16,23z"/>
   <path class="fil0" d="M216 3445c5,-112 0,-121 -62,-174 -29,-25 -37,-35 -66,-57 -25,-20 -41,-43 -67,-56 -12,7 -18,17 -21,29l0 214c7,56 43,44 216,44z"/>
   <path class="fil0" d="M5034 3445c172,0 209,12 216,-44l0 -214c-3,-11 -9,-21 -21,-29 -26,13 -42,36 -67,56 -30,22 -38,32 -66,57 -62,53 -67,63 -62,174z"/>
   <path class="fil9" d="M3213 5250c14,-2 27,-6 37,-11 19,-38 11,-119 10,-174 -1,-56 3,-69 -27,-102 -9,14 -1,4 -15,18 -108,112 -178,98 -178,269l173 0z"/>
   <path class="fil9" d="M1990 5065c-2,55 -9,136 9,174 11,5 24,9 38,11l172 0c0,-200 -129,-187 -192,-287 -30,33 -27,46 -27,102z"/>
   <path class="fil9" d="M2631 4996c18,13 28,19 42,30 48,20 59,49 116,64 52,-39 91,-158 117,-220l18 -19c-45,-33 -9,-48 -79,-52 -23,41 -185,151 -214,197z"/>
   <path class="fil9" d="M2343 4870c27,62 65,181 118,220 56,-15 67,-44 116,-64 14,-11 23,-17 41,-30 -11,-19 -1,-4 -15,-20l-39 -35c-23,-21 -34,-27 -56,-46 -29,-25 -90,-72 -104,-96 -70,4 -33,19 -76,51l15 20z"/>
   <path class="fil7" d="M2577 5026l-13 224 121 0 -12 -224c-14,-11 -24,-17 -42,-30l-13 0c-18,13 -27,19 -41,30z"/>
   <path class="fil7" d="M586 3214l-14 221 119 0 -5 -83 -5 -136c-38,-40 -57,-27 -95,-2z"/>
   <path class="fil7" d="M4569 3216l-6 136 -5 83 120 0 -14 -221c-38,-25 -57,-38 -95,2z"/>
   <path class="fil10" d="M4552 3442l127 3 -1 -10 -120 0 5 -83c-15,31 -13,51 -11,90z"/>
   <path class="fil10" d="M572 3435l-1 10 127 -3c2,-39 3,-59 -12,-90l5 83 -119 0z"/>
  </g>
 </g>
</svg>
