<svg id="607d3376-be1d-45c0-ba1f-1d82b94a1709" data-name="Layer 1" xmlns="http://www.w3.org/2000/svg" viewBox="0 0 153.92 153.92"><title>ib1</title><path d="M-6764.35,331.25c2.13-3.16,4.1-10,4.73-14.67A45.25,45.25,0,0,0-6760.7,299c-7.53-27.45-37-38.1-57.65-23.18-4.92,3.55-7.59,7.38-9.9,9.11-1.7-1.21-2.9-3-4.54-4.51a45.19,45.19,0,0,0-4.89-4.15C-6869,254-6907.54,286.68-6895,325.23c3.19,9.82,9.82,15.88,14.85,21.31,3.69,4,50.41,54.93,52,55.91,2.35-2.1,5.06-5.38,7.34-7.85,5.89-6.36,50-53.57,50.6-55-4.9,0-9.85.08-14.74,0-2.75,0-3.8-.8-4.69-3.1-1.18-3-9.6-26.84-10.68-28.23-3.72,19.83-8.18,40.19-12.34,60.09-0.55,2.64-1.72,4.89-4.72,4.37-2.47-.43-2.95-2.71-3.61-5.27-1.24-4.74-10.69-41.28-11.44-42.55-4.26,12.61-2.61,14.73-9.62,14.7-7.71,0-15.43,0-23.15,0-3.49,0-8.16.78-9-3a4.33,4.33,0,0,1,1.53-4.49c1.34-1.09,3.24-.8,5.1-0.79,7.72,0,15.46-.08,23.17,0,2.64,0,2.05-.49,2.89-3.24l4.28-13.88c0.9-2.91,1.59-7.46,4.54-7.79,3.91-.43,4.41,3.16,5.32,6.59,2.15,8.15,8.14,32.31,10.2,38.45,1-2.56,11.08-53.12,11.86-57,0.52-2.59,1.18-4.52,3.88-4.63s3.5,1.85,4.34,4.14l13.88,37.35h18.93Zm-140.86-23.49a57.11,57.11,0,0,1,2.81-14.57,52.05,52.05,0,0,1,5.9-11.81c8.95-12.83,21.89-20.78,37.58-20.78a44.71,44.71,0,0,1,24.35,7.79c1.52,1.09,5.09,3.73,6,5.2,5.13-3.71,5.43-5.45,13.1-8.91,15.35-6.93,32.37-4.71,44.84,5.43,6.1,5,11.93,11.54,14.86,19.35,2.32,6.18,2.94,7.19,4,15.16a49,49,0,0,1-.3,14.25,48.85,48.85,0,0,1-3.44,12.2c2.78,0.25,4,2,4.21,3.81v0.92a4,4,0,0,1-2.76,3.65,47.78,47.78,0,0,1-6,.06c-3.78,6.1-28.62,32-33.89,37.75l-17.29,18.67c-1.52,1.64-16.09,17.67-17.36,18.59-0.33-1.35-1.47-2.07-2.33-3-10.25-11.07-62.5-67.17-63.94-69.27-4-5.8-7.55-11.95-9-19.22a74.45,74.45,0,0,1-1.43-10.9v-4.38Z" transform="translate(6905.21 -260.6)" fill="#fff"/></svg>