<?xml version="1.0" encoding="UTF-8"?>
<!DOCTYPE svg PUBLIC "-//W3C//DTD SVG 1.0//EN" "http://www.w3.org/TR/2001/REC-SVG-20010904/DTD/svg10.dtd">
<!-- Creator: CorelDRAW X7 -->
<svg xmlns="http://www.w3.org/2000/svg" xml:space="preserve" width="2.08334in" height="2.08334in" version="1.0" style="shape-rendering:geometricPrecision; text-rendering:geometricPrecision; image-rendering:optimizeQuality; fill-rule:evenodd; clip-rule:evenodd"
viewBox="0 0 144 144"
 xmlns:xlink="http://www.w3.org/1999/xlink">
 <defs>
  <style type="text/css">
   <![CDATA[
    .fil0 {fill:#F0837A}
    .fil1 {fill:#573A32}
   ]]>
  </style>
 </defs>
 <g id="Layer_x0020_1">
  <metadata id="CorelCorpID_0Corel-Layer"/>
  <g id="_103430281040">
   <path class="fil0" d="M131 66l-17 0 -13 -35c-1,-2 -2,-4 -4,-4 -3,0 -3,2 -4,5 -1,3 -10,50 -11,53 -2,-6 -7,-29 -9,-36 -1,-3 -2,-7 -5,-6 -3,0 -4,4 -5,7l-4 13c0,2 0,3 -2,3 -8,0 -15,0 -22,0 -2,0 -3,0 -5,1 -1,0 -2,2 -1,4 1,3 5,3 8,3 8,0 15,0 22,0 6,0 5,-2 9,-14 1,1 9,35 11,40 0,2 1,4 3,5 3,0 4,-2 4,-4 4,-19 8,-38 12,-57 1,2 9,24 10,27 1,2 2,3 4,3 5,0 9,0 14,0 -1,1 -42,45 -47,51 -2,2 -5,5 -7,7 -2,-1 -45,-48 -49,-52 -4,-5 -10,-11 -13,-20 -12,-36 24,-66 53,-45 2,1 3,2 5,4 1,1 2,3 4,4 2,-2 4,-5 9,-9 19,-14 47,-4 54,22 1,5 2,11 1,16 -1,5 -3,11 -5,14z"/>
   <path class="fil1" d="M131 66c2,-3 4,-9 5,-14 1,-5 0,-11 -1,-16 -7,-26 -35,-36 -54,-22 -5,4 -7,7 -9,9 -2,-1 -3,-3 -4,-4 -2,-2 -3,-3 -5,-4 -29,-21 -65,9 -53,45 3,9 9,15 13,20 4,4 47,51 49,52 2,-2 5,-5 7,-7 5,-6 46,-50 47,-51 -5,0 -9,0 -14,0 -2,0 -3,-1 -4,-3 -1,-3 -9,-25 -10,-27 -4,19 -8,38 -12,57 0,2 -1,4 -4,4 -2,-1 -3,-3 -3,-5 -2,-5 -10,-39 -11,-40 -4,12 -3,14 -9,14 -7,0 -14,0 -22,0 -3,0 -7,0 -8,-3 -1,-2 0,-4 1,-4 2,-1 3,-1 5,-1 7,0 14,0 22,0 2,0 2,-1 2,-3l4 -13c1,-3 2,-7 5,-7 3,-1 4,3 5,6 2,7 7,30 9,36 1,-3 10,-50 11,-53 1,-3 1,-5 4,-5 2,0 3,2 4,4l13 35 17 0zm-131 -22l0 4c0,3 1,6 1,10 2,7 5,13 9,18 1,2 50,54 59,65 1,1 2,1 3,3 1,-1 14,-16 16,-18 5,-6 10,-11 16,-17 5,-5 28,-30 31,-35 2,0 5,0 6,0 1,-1 2,-2 3,-4l0 -1c-1,-1 -2,-3 -4,-3 1,-3 2,-8 3,-12 1,-4 1,-8 0,-13 -1,-7 -1,-8 -4,-14 -2,-7 -8,-13 -13,-18 -12,-10 -28,-12 -42,-5 -7,3 -8,5 -12,8 -1,-1 -5,-4 -6,-5 -6,-4 -15,-7 -23,-7 -14,0 -27,7 -35,19 -2,3 -4,8 -5,11 -2,6 -3,10 -3,14z"/>
  </g>
 </g>
</svg>
