<?xml version="1.0" encoding="UTF-8"?>
<!DOCTYPE svg PUBLIC "-//W3C//DTD SVG 1.0//EN" "http://www.w3.org/TR/2001/REC-SVG-20010904/DTD/svg10.dtd">
<!-- Creator: CorelDRAW X7 -->
<svg xmlns="http://www.w3.org/2000/svg" xml:space="preserve" width="2.08334in" height="2.08333in" version="1.0" style="shape-rendering:geometricPrecision; text-rendering:geometricPrecision; image-rendering:optimizeQuality; fill-rule:evenodd; clip-rule:evenodd"
viewBox="0 0 296 296"
 xmlns:xlink="http://www.w3.org/1999/xlink">
 <defs>
  <style type="text/css">
   <![CDATA[
    .fil0 {fill:black}
    .fil9 {fill:#4E2C21}
    .fil7 {fill:#6E3E2D}
    .fil3 {fill:#713E2F}
    .fil5 {fill:#935C44}
    .fil4 {fill:#B27758}
    .fil2 {fill:#B37858}
    .fil6 {fill:#B77C5D}
    .fil1 {fill:#CC9D88}
    .fil8 {fill:#FD0435}
   ]]>
  </style>
 </defs>
 <g id="Layer_x0020_1">
  <metadata id="CorelCorpID_0Corel-Layer"/>
  <g id="_103493275920">
   <path class="fil0" d="M166 286l-37 0c0,-8 -1,-28 0,-35 3,-23 34,-23 37,-1 1,7 1,29 0,36zm130 -212l0 22c-1,3 -1,5 -1,6 -1,3 -3,5 -6,5l0 104c0,6 1,10 -4,11 -3,-1 -4,-1 -5,-4l0 -110 -66 0 0 3 0 52 0 3c5,0 13,0 17,1 4,1 7,5 8,10 1,9 -1,90 0,109l4 0c8,0 15,0 23,0 14,0 14,2 14,-3l0 -31c0,-12 -1,-18 5,-19 3,1 4,2 4,6l0 31c0,19 3,25 -14,25l-214 0c-7,0 -14,2 -15,-4 1,-7 6,-5 16,-5 6,0 13,0 20,0l0 -175 0 -3 -67 0 0 176c0,0 0,0 0,0 0,0 0,1 0,1l1 1c2,1 8,0 12,0 5,0 6,0 7,5 0,5 -4,4 -9,4 -6,0 -17,3 -19,-7 -1,-4 -1,-171 -1,-181 -3,-1 -5,-2 -6,-6 0,0 0,-1 0,-4l0 -23c0,-3 1,-6 1,-7 1,-2 4,-4 7,-4 3,-1 8,-1 11,-1 9,0 10,6 10,13l4 0c0,-14 8,-12 18,-13 12,0 11,5 12,11 0,3 1,2 5,2 0,-8 1,-13 10,-13 9,1 15,-1 18,6 2,4 1,16 1,22 0,9 0,16 -6,17l0 59 20 0c0,-25 0,-50 0,-74 0,-9 -2,-31 1,-37 2,-5 6,-5 13,-5 5,0 11,0 17,0 0,-13 0,-26 0,-39 0,-13 5,-12 8,-9 1,1 0,1 2,2l23 10c5,3 6,9 2,13 -2,2 -15,7 -19,9 -3,0 -5,1 -7,2l0 12c8,0 24,-2 29,1 7,4 5,18 5,28l0 48c0,6 0,9 -5,10 -3,-1 -4,-1 -4,-5 -1,-14 1,-65 -1,-73l-55 0c-1,4 0,98 0,104l0 3 56 0 0 -3c0,-7 -2,-13 4,-14 6,0 5,8 5,17l20 0 0 -59c-7,-1 -6,-9 -6,-17 0,-7 -2,-19 1,-23 3,-6 9,-4 18,-5 4,0 6,1 8,4 2,2 2,5 2,9l4 0c0,-5 1,-8 4,-10 3,-3 19,-4 23,0 2,2 3,5 3,10l4 0c0,-8 2,-13 11,-13 6,1 15,-1 18,6 0,0 0,3 1,6zm-202 212c-4,0 -4,1 -4,-6 0,-19 0,-96 0,-105 7,-1 58,0 69,0 2,0 66,-1 68,1l2 0c3,6 1,45 1,55 0,8 1,51 0,55l-55 0c0,-13 2,-33 -2,-43 -8,-25 -43,-24 -51,0 -3,11 -1,30 -2,43l-26 0zm113 -214l12 0c1,11 -1,12 11,12 13,0 10,0 11,-12l12 0c1,12 -2,12 11,12 13,0 10,-1 11,-12l12 0 0 27 -80 0 0 -27zm-198 0l12 0c1,12 -2,12 11,12 12,0 9,0 11,-12l11 0c1,12 -2,12 11,12 13,0 10,-1 11,-12l12 0 0 27 -79 0 0 -27zm142 -58c3,1 6,2 9,4 1,0 3,1 4,1l4 2c0,0 0,0 0,0l-17 7 0 -14z"/>
   <path class="fil1" d="M199 232c-1,-7 7,-8 8,-3 2,7 -7,8 -8,3zm-8 -18c5,-3 9,5 4,8 -5,2 -9,-5 -4,-8zm-68 -22c3,-1 47,-2 51,1 8,5 7,17 -2,19 -5,2 -34,1 -42,1 -20,0 -15,-18 -7,-21zm-29 94l26 0c1,-13 -1,-32 2,-43 8,-24 43,-25 51,0 4,10 2,30 2,43l55 0c1,-4 0,-47 0,-55 0,-10 2,-49 -1,-55l-2 0 -134 0c0,13 -1,106 1,110z"/>
   <path class="fil1" d="M64 204c-8,1 -8,-7 -4,-8 3,-1 5,0 6,2 1,3 -1,4 -2,6zm-17 -14c6,-1 8,8 2,9 -6,1 -8,-7 -2,-9zm10 -15c7,-3 9,6 4,8 -4,2 -7,-2 -6,-6 1,-2 1,-1 2,-2zm-12 -49c9,-3 16,4 17,12 0,2 0,13 0,15 -1,4 -4,6 -9,6 -12,0 -18,2 -18,-12 0,-12 1,-18 10,-21zm-29 160c2,1 8,0 12,0 5,0 6,0 7,5l11 0c1,-7 6,-5 16,-5 6,0 13,0 20,0l0 -175 -66 0 0 175z"/>
   <path class="fil2" d="M255 191c6,-3 9,6 4,8 -4,2 -8,-2 -6,-6 1,-2 1,-2 2,-2zm4 -16c5,-3 8,6 4,8 -6,2 -10,-5 -4,-8zm-15 -49c9,-3 16,4 17,12 1,11 1,21 -10,21 -13,0 -18,1 -18,-13 0,-11 2,-17 11,-20zm-30 37c13,0 22,-1 27,10 3,9 -1,107 2,113 8,0 15,0 23,0 14,0 14,2 14,-3l0 -31c0,-12 -1,-18 5,-19l0 -11c-3,-1 -4,-1 -5,-4 0,-1 0,0 0,-2l0 -105 -66 0 0 52z"/>
   <path class="fil2" d="M138 125c5,-3 9,5 5,8 -3,1 -6,0 -7,-2 -2,-4 1,-5 2,-6zm5 -40c9,-3 17,4 18,12 1,2 1,13 0,15 -1,4 -4,6 -8,6 -12,0 -19,2 -19,-11 0,-12 0,-18 9,-22zm-11 -20c1,0 30,-2 33,1 2,2 1,6 -1,7 -1,0 -31,2 -34,-1 -2,-2 -1,-6 2,-7zm-12 98l56 0c0,-7 -2,-13 4,-14l0 -12c-3,-1 -4,-1 -4,-5 -1,-14 1,-65 -1,-73l-55 0c-1,4 0,98 0,104z"/>
   <path class="fil3" d="M166 286c1,-7 1,-29 0,-36 -3,-22 -34,-22 -37,1 -1,7 0,27 0,35l37 0z"/>
   <path class="fil1" d="M9 99l79 0 0 -27 -12 0c-1,11 2,12 -11,12 -13,0 -10,0 -11,-12l-11 0c-2,12 1,12 -11,12 -13,0 -10,0 -11,-12l-12 0 0 27z"/>
   <path class="fil2" d="M207 99l80 0 0 -27 -12 0c-1,11 2,12 -11,12 -13,0 -10,0 -11,-12l-12 0c-1,12 2,12 -11,12 -12,0 -10,-1 -11,-12l-12 0 0 27z"/>
   <path class="fil0" d="M128 204c-3,0 -3,0 -3,-3 1,-1 2,0 3,0 6,0 40,-1 43,0 -1,3 -1,3 -3,3l-40 0zm-5 -12c-8,3 -13,21 7,21 8,0 37,1 42,-1 9,-2 10,-14 2,-19 -4,-3 -48,-2 -51,-1z"/>
   <path class="fil0" d="M242 149c0,-5 -1,-15 5,-15 7,0 5,9 5,16l-10 -1zm2 -23c-9,3 -11,9 -11,20 0,14 5,13 18,13 11,0 11,-10 10,-21 -1,-8 -8,-15 -17,-12z"/>
   <path class="fil0" d="M53 149l-10 1c0,-7 -1,-16 5,-16 7,0 5,10 5,15zm-8 -23c-9,3 -10,9 -10,21 0,14 6,12 18,12 5,0 8,-2 9,-6 0,-2 0,-13 0,-15 -1,-8 -8,-15 -17,-12z"/>
   <path class="fil0" d="M143 98c1,-6 9,-6 9,0 1,2 1,8 1,11l-10 0c-1,-3 -1,-9 0,-11zm0 -13c-9,4 -9,10 -9,22 0,13 7,11 19,11 4,0 7,-2 8,-6 1,-2 1,-13 0,-15 -1,-8 -9,-15 -18,-12z"/>
   <path class="fil4" d="M94 286c-2,-4 -1,-97 -1,-110l134 0c-2,-2 -66,-1 -68,-1 -11,0 -62,-1 -69,0 0,9 0,86 0,105 0,7 0,6 4,6z"/>
   <path class="fil5" d="M243 286c-3,-6 1,-104 -2,-113 -5,-11 -14,-10 -27,-10l0 3c5,0 13,0 17,1 4,1 7,5 8,10 1,9 -1,90 0,109l4 0z"/>
   <path class="fil0" d="M132 65c-3,1 -4,5 -2,7 3,3 33,1 34,1 2,-1 3,-5 1,-7 -3,-3 -32,-1 -33,-1z"/>
   <path class="fil6" d="M16 286l0 -175 66 0 0 -3 -67 0 0 176c0,0 0,0 0,0 0,0 0,1 0,1l1 1z"/>
   <path class="fil5" d="M214 111l66 0 0 105c0,2 0,1 0,2l0 -110 -66 0 0 3z"/>
   <path class="fil5" d="M176 163l-56 0 0 3 56 0 0 -3z"/>
   <path class="fil7" d="M125 201c0,3 0,3 3,3l40 0c2,0 2,0 3,-3 -3,-1 -37,0 -43,0 -1,0 -2,-1 -3,0z"/>
   <path class="fil3" d="M53 149c0,-5 2,-15 -5,-15 -6,0 -5,9 -5,16l10 -1z"/>
   <path class="fil3" d="M242 149l10 1c0,-7 2,-16 -5,-16 -6,0 -5,10 -5,15z"/>
   <path class="fil3" d="M143 98l0 10 10 0 -1 -10c0,-6 -8,-6 -9,0z"/>
   <path class="fil8" d="M151 28l17 -7c0,0 0,0 0,0l-4 -2c-1,0 -3,-1 -4,-1 -3,-2 -6,-3 -9,-4l0 14z"/>
   <path class="fil0" d="M255 191c-1,0 -1,0 -2,2 -2,4 2,8 6,6 5,-2 2,-11 -4,-8z"/>
   <path class="fil0" d="M199 232c1,5 10,4 8,-3 -1,-5 -9,-4 -8,3z"/>
   <path class="fil0" d="M47 190c-6,2 -4,10 2,9 6,-1 4,-10 -2,-9z"/>
   <path class="fil0" d="M57 175c-1,1 -1,0 -2,2 -1,4 2,8 6,6 5,-2 3,-11 -4,-8z"/>
   <path class="fil0" d="M191 214c-5,3 -1,10 4,8 5,-3 1,-11 -4,-8z"/>
   <path class="fil0" d="M259 175c-6,3 -2,10 4,8 4,-2 1,-11 -4,-8z"/>
   <path class="fil0" d="M138 125c-1,1 -4,2 -2,6 1,2 4,3 7,2 4,-3 0,-11 -5,-8z"/>
   <path class="fil0" d="M64 204c1,-2 3,-3 2,-6 -1,-2 -3,-3 -6,-2 -4,1 -4,9 4,8z"/>
   <path class="fil9" d="M152 98l1 10 -10 0 0 -10c-1,2 -1,8 0,11l10 0c0,-3 0,-9 -1,-11z"/>
  </g>
 </g>
</svg>
