<svg id="108417d6-31cf-43af-a831-dd0e9ef41ef1" data-name="Layer 1" xmlns="http://www.w3.org/2000/svg" viewBox="0 0 153.92 153.92"><title>ib3</title><path d="M-2776.69,580.25H-2796a146.41,146.41,0,0,1,0-18.52c1.35-11.65,17.58-11.68,19.14-.29,0.5,3.66.38,14.91,0.1,18.81h0Zm67.31-110.62a12.47,12.47,0,0,0-.43-3.2c-1.65-3.57-6-2.63-9.2-2.66-4.7,0-5.7,2.4-5.7,6.62h-2.1c0-2.72-.3-4.1-1.71-5.45-1.89-1.8-10.06-1.65-12-.11-1.44,1.14-1.91,3-1.91,5.56h-2.1c0-2.26,0-3.65-1-4.93s-2.36-1.71-4.39-1.7c-4.63,0-7.55-.73-9.33,2.53-1.18,2.16-.6,8.33-0.6,11.65,0,4.54-.18,8.28,3.31,9.13v30.54h-10.52c0-4.81.87-8.55-2.41-8.87-3.2.61-2.27,3.95-2.3,7.27l0,1.72h-29V516c0-3.19-.3-52,0.17-54H-2772c1,4-.3,30.55.19,38,0.15,2.31.77,1.89,2.13,2.86,2.77-.54,2.57-2.35,2.56-5.67V472.29c0-5.14,1-12.37-2.29-14.29-2.91-1.69-10.88-.82-15.15-0.82v-6a25.3,25.3,0,0,1,3.42-1.46c2-.76,9.1-3.59,10.05-4.58a4.26,4.26,0,0,0-.85-6.56l-12.21-5.16c-1-.7-0.42-0.63-1.1-1.37-1.34-1.44-4.17-1.67-4.13,4.63,0,6.82,0,13.65,0,20.47-3,0-6,0-9,0-3.46,0-5.58.28-6.62,2.82-1.28,3.09-.59,14.25-0.59,18.91v38.73h-10.52V487.09c3.41-.83,3.31-4.38,3.31-8.82,0-3.09.52-9.64-.5-11.76-1.64-3.44-4.6-2.69-9.13-2.73-5,0-5.7,2.26-5.7,6.62-1.82,0-2.26.48-2.42-1.24-0.3-3.11-.17-5.41-6.29-5.37-4.91,0-9-.91-9,6.61h-2.1c0-3.86-.86-6.65-5.4-6.63-1.72,0-4.09-.13-5.73,0a5.06,5.06,0,0,0-3.68,2.44,11.9,11.9,0,0,0-.53,3.49V482a13.82,13.82,0,0,0,.2,2.08,4.14,4.14,0,0,0,3.11,3c0,5-.26,92.16.11,94,1,5.12,6.83,3.88,10.11,3.89,2.53,0,4.59.3,4.82-2.21-0.4-2.58-1.28-2.58-3.91-2.57-1.88,0-4.88.39-6.31-.17l-0.16-.49c0-.07,0-0.18-0.06-0.26s0-.18,0-0.28l0.05-91.52,34.56-.08,0.05,1.73,0,91.07c-3.53.08-7,0-10.34,0-4.84,0-7.48-.86-8.07,2.57,0.5,3.13,4.21,2.2,7.77,2.2h111.23c9.13,0,7.52-3.5,7.52-13.23l0-16.08c0-2.07-.49-2.78-2.12-3.1-3.41.66-2.49,3.81-2.49,10l0,16.1c0,2.28-.42,1.49-7.47,1.49-4,0-8.09-.1-12,0l-2,0c-0.48-10.07.54-52.17-.15-56.86a6.52,6.52,0,0,0-4.08-5.17c-2-.76-6.45-0.45-8.88-0.45V516l0-26.9,0.05-1.71,34.63,0.08v57.09c0.44,1.55.76,1.75,2.43,2,2.48-.27,2.11-2.61,2.1-5.37V487.09a4.09,4.09,0,0,0,3-2.81,16.38,16.38,0,0,0,.28-2.9V469.63h0Zm-104.94,110.62h13.73c0.29-6.62-.8-16.77,1-22.37,4-12.64,22.25-12.88,26.51-.24,1.86,5.52.74,16,1,22.54l28.64,0.07c0.41-2.33.14-24.59,0.14-28.92,0-5.16.63-25.41-.51-28.42l-1-.12c-1.11-.82-34.35-0.36-35.46-0.36-5.95,0-32.3-.32-35.89.13-0.43,4.26,0,44.77-.07,54.6,0,3.36-.3,3.1,2,3.1h0Zm59.1-111.7h6.11c0.51,6.14-.83,6.51,5.76,6.51,6.88,0,5.21-.3,5.72-6.57l6.11,0.2c0.56,6.43-1,6.36,5.91,6.37,6.51,0,5-.41,5.55-6.53l6.17,0,0,14.13-41.36-.16,0.06-14h0Zm-103.5,0,6.1,0.14c0.54,6.3-.91,6.42,5.86,6.42,6.59,0,5.08-.24,5.61-6.51l6.12,0c0.51,6.23-1.19,6.54,5.71,6.54,6.57,0,5.27-.37,5.77-6.56l6.16,0.15,0,14-41.36,0,0.07-14.13h0Zm74.13-30a45.83,45.83,0,0,1,4.64,1.84l2.16,0.89,1.89,1c0-.06.13,0.1,0.16,0.08l-8.85,3.58v-7.35Z" transform="translate(2863.3 -431.23)" fill="#fff" fill-rule="evenodd"/><path d="M-2796.56,537.41c-1.52,0-1.6.17-1.77-1.29a2.11,2.11,0,0,1,1.73-.38c3.08,0,20.74-.51,22.25.38-0.17,1.45-.25,1.29-1.69,1.29h-20.52Zm-2.58-6.13c-4.49,1.32-6.95,10.87,3.78,10.84,4,0,19,.53,21.69-0.22,4.57-1.26,5.23-7.79,1.23-10.17C-2775,530.22-2797.89,530.92-2799.14,531.29Z" transform="translate(2863.3 -431.23)" fill="#fff" fill-rule="evenodd"/><path d="M-2737.22,509c0-3-.8-7.75,2.58-7.78s2.69,4.47,2.69,7.92l-5.27-.14h0Zm0.84-12.24c-4.71,1.46-5.33,4.59-5.35,10.47,0,7.54,2.63,6.65,9.21,6.63,5.8,0,5.57-5.22,5-10.69C-2728,499-2731.76,495.35-2736.38,496.78Z" transform="translate(2863.3 -431.23)" fill="#fff" fill-rule="evenodd"/><path d="M-2835.46,509l-5.27.14c0-3.45-.81-8,2.68-7.92s2.58,4.75,2.58,7.78h0Zm-4.51-12.17c-4.83,1.51-5.25,4.92-5.26,10.72,0,7.3,3.28,6.44,9.61,6.31,2.48-.05,4-1,4.51-3.12a46.15,46.15,0,0,0,.08-7.69C-2831.54,498.86-2835.31,495.39-2840,496.84Z" transform="translate(2863.3 -431.23)" fill="#fff" fill-rule="evenodd"/><path d="M-2788.79,482.19a2.48,2.48,0,0,1,4.91,0c0.45,1.11.35,4.42,0.17,5.82l-5.24-.06c-0.19-1.35-.29-4.62.17-5.75h0Zm0.23-6.45c-4.78,1.84-4.9,5-4.92,11,0,6.92,3.8,6.05,9.86,5.86,2.3-.07,3.86-1.09,4.31-3.25a49.78,49.78,0,0,0,0-7.74C-2779.9,477.53-2783.91,473.95-2788.56,475.75Z" transform="translate(2863.3 -431.23)" fill="#fff" fill-rule="evenodd"/><path d="M-2794.41,465a2.36,2.36,0,0,0-1,3.89c1.29,1.28,16.86.6,17.3,0.45a2.38,2.38,0,0,0,.7-3.88C-2778.71,464.14-2794.19,464.87-2794.41,465Z" transform="translate(2863.3 -431.23)" fill="#fff" fill-rule="evenodd"/><path d="M-2730.23,530.59c-0.77.33-.86-0.12-1.32,1a2.36,2.36,0,0,0,3.28,3.07C-2726,533.63-2727.19,529.28-2730.23,530.59Z" transform="translate(2863.3 -431.23)" fill="#fff" fill-rule="evenodd"/><path d="M-2759.79,552c0.48,2.69,5.22,2.22,4.47-1.2A2.31,2.31,0,1,0-2759.79,552Z" transform="translate(2863.3 -431.23)" fill="#fff" fill-rule="evenodd"/><path d="M-2838.72,530.38a2.32,2.32,0,1,0,1.18,4.49C-2834.8,534.26-2835.65,529.66-2838.72,530.38Z" transform="translate(2863.3 -431.23)" fill="#fff" fill-rule="evenodd"/><path d="M-2833.39,522.39c-0.75.36-.78-0.17-1.23,1.09a2.35,2.35,0,0,0,3.22,3C-2829,525.47-2830.22,520.88-2833.39,522.39Z" transform="translate(2863.3 -431.23)" fill="#fff" fill-rule="evenodd"/><path d="M-2763.91,542.69c-2.42,1.46-.43,5.37,2.35,4.07C-2758.95,545.52-2761,541-2763.91,542.69Z" transform="translate(2863.3 -431.23)" fill="#fff" fill-rule="evenodd"/><path d="M-2728.51,522.35a2.29,2.29,0,1,0,2,4.11C-2724.11,525.3-2725.57,520.94-2728.51,522.35Z" transform="translate(2863.3 -431.23)" fill="#fff" fill-rule="evenodd"/><path d="M-2791.61,496.59a2,2,0,0,0-.72,3.06,2.41,2.41,0,0,0,3.29.67C-2786.71,498.82-2788.89,494.58-2791.61,496.59Z" transform="translate(2863.3 -431.23)" fill="#fff" fill-rule="evenodd"/><path d="M-2829.85,537.46c0.6-.83,1.41-1.5,1-3a2.26,2.26,0,0,0-3-1.35C-2834,533.87-2834.35,538.12-2829.85,537.46Z" transform="translate(2863.3 -431.23)" fill="#fff" fill-rule="evenodd"/><path d="M-2783.89,482.19l0,5.51h-5l0-5.51c-0.46,1.13-.36,4.4-0.17,5.75l5.24,0.06C-2783.53,486.61-2783.44,483.3-2783.89,482.19Z" transform="translate(2863.3 -431.23)" fill="#fff" fill-rule="evenodd"/></svg>