<?xml version="1.0" encoding="UTF-8"?>
<!DOCTYPE svg PUBLIC "-//W3C//DTD SVG 1.0//EN" "http://www.w3.org/TR/2001/REC-SVG-20010904/DTD/svg10.dtd">
<!-- Creator: CorelDRAW X7 -->
<svg xmlns="http://www.w3.org/2000/svg" xml:space="preserve" width="2.08334in" height="2.08333in" version="1.0" style="shape-rendering:geometricPrecision; text-rendering:geometricPrecision; image-rendering:optimizeQuality; fill-rule:evenodd; clip-rule:evenodd"
viewBox="0 0 645 645"
 xmlns:xlink="http://www.w3.org/1999/xlink">
 <defs>
  <style type="text/css">
   <![CDATA[
    .fil0 {fill:#5B546A}
    .fil3 {fill:#898794}
    .fil4 {fill:#DD8129}
    .fil2 {fill:#FED001}
    .fil1 {fill:#FF9500}
   ]]>
  </style>
 </defs>
 <g id="Layer_x0020_1">
  <metadata id="CorelCorpID_0Corel-Layer"/>
  <g id="_103430314288">
   <path class="fil0" d="M302 550c18,-3 23,-3 41,0l0 -469c-16,7 -25,7 -41,0l0 469z"/>
   <path class="fil1" d="M385 379c-8,9 3,43 8,54 21,47 72,72 121,72l0 -129 -105 0c-10,0 -15,-1 -24,3z"/>
   <path class="fil1" d="M3 379c-2,1 -2,1 -3,5 0,0 0,0 0,1l0 15c3,25 20,55 38,70 23,20 51,35 93,35l0 -129 -105 0c-10,0 -15,-1 -23,3z"/>
   <path class="fil2" d="M514 505c51,0 101,-27 121,-72 4,-8 9,-24 10,-36l0 -13c0,-1 0,-1 -1,-2 -2,-6 1,-1 -2,-3 -7,-4 -14,-3 -23,-3l-105 0 0 129z"/>
   <path class="fil2" d="M131 505c53,0 99,-27 121,-73 5,-11 10,-25 10,-39l-1 -11c-1,-6 1,-1 -1,-3 -8,-4 -15,-3 -24,-3l-105 0 0 129z"/>
   <path class="fil3" d="M302 550c-18,2 -44,26 -52,46 -5,11 -6,15 -8,27l161 0c-6,-27 -14,-47 -37,-62 -5,-4 -17,-10 -23,-11 -18,-3 -23,-3 -41,0z"/>
   <path class="fil0" d="M403 623l-161 0c-9,0 -43,-2 -48,3 -5,5 -3,15 3,18 7,2 202,0 226,0 8,0 18,2 25,0 6,-3 8,-13 3,-18 -5,-5 -39,-3 -48,-3z"/>
   <path class="fil0" d="M134 150c1,8 43,99 50,113 16,34 36,81 52,113 9,0 16,-1 24,3 -2,-6 -75,-164 -81,-177l-27 -60c-7,4 -8,7 -18,8z"/>
   <path class="fil0" d="M3 379c8,-4 13,-3 23,-3 21,-41 44,-97 64,-140 6,-12 37,-78 38,-86 -10,-1 -11,-4 -18,-8 -5,11 -8,19 -13,30l-94 207z"/>
   <path class="fil0" d="M385 379c9,-4 14,-3 24,-3 21,-41 44,-97 64,-140l19 -42c5,-11 18,-35 19,-44 -10,-1 -11,-4 -18,-8 -5,11 -8,19 -13,30l-95 207z"/>
   <path class="fil0" d="M517 150c1,9 8,21 12,29l64 140c8,19 16,39 26,57 9,0 16,-1 23,3l-93 -207c-5,-10 -9,-19 -14,-30 -7,4 -8,7 -18,8z"/>
   <path class="fil3" d="M318 23c24,-8 35,33 10,41 -25,7 -37,-33 -10,-41zm-36 29c2,3 2,6 4,10 2,4 4,6 6,9 4,5 5,6 10,10 16,7 25,7 41,0 5,-4 6,-5 10,-10 2,-4 4,-5 6,-9 2,-4 2,-7 4,-10 0,-19 -1,-27 -10,-37 -16,-20 -45,-20 -61,0 -9,10 -10,18 -10,37z"/>
   <path class="fil4" d="M353 71c25,11 93,49 114,57 6,2 15,3 20,5 -3,-10 -4,-11 -2,-23l-16 -5c-5,-3 -10,-6 -15,-8l-91 -45c-2,3 -2,6 -4,10 -2,4 -4,5 -6,9z"/>
   <path class="fil3" d="M108 97c-4,9 -6,8 -7,21 0,12 4,18 9,24 7,4 8,7 18,8l6 0c10,-1 11,-4 18,-8 3,-3 4,-6 6,-9 3,-10 4,-11 2,-23 -2,-11 -11,-20 -21,-23 -14,-4 -25,3 -31,10z"/>
   <path class="fil3" d="M485 110c-2,12 -1,13 2,23 2,3 3,6 6,9 7,4 8,7 18,8l6 0c10,-1 11,-4 18,-8 5,-6 9,-12 9,-24 -1,-13 -3,-12 -7,-21 -6,-7 -16,-14 -31,-10 -10,3 -19,12 -21,23z"/>
   <path class="fil4" d="M160 110c2,12 1,13 -2,23 5,-2 13,-3 19,-5l33 -16c24,-11 59,-30 82,-41 -2,-3 -4,-5 -6,-9 -2,-4 -2,-7 -4,-10 -17,6 -82,42 -105,52l-17 6z"/>
   <path class="fil0" d="M318 23c-27,8 -15,48 10,41 25,-8 14,-49 -10,-41z"/>
   <path class="fil4" d="M101 118c1,-13 3,-12 7,-21 -11,-6 -28,-29 -33,-32 -7,-2 -13,1 -14,7 -2,8 2,11 5,14 8,9 27,30 35,32z"/>
   <path class="fil4" d="M537 97c4,9 6,8 7,21 8,-2 26,-22 33,-30 4,-4 9,-7 7,-15 0,-5 -5,-10 -12,-8 -7,1 -22,25 -35,32z"/>
  </g>
 </g>
</svg>
