<svg id="bb9d2ac9-5afa-4c0f-8e32-4732b9b5ddaa" data-name="Layer 1" xmlns="http://www.w3.org/2000/svg" viewBox="0 0 154.14 154.13"><title>ib4</title><path d="M-495.28,550.42a20.34,20.34,0,0,1,9.62,0V438.32c-3.68,1.75-5.94,1.76-9.62,0V550.42Z" transform="translate(567.53 -418.99)" fill="#fff" stroke="#fff" stroke-miterlimit="2.61" stroke-width="0.22" fill-rule="evenodd"/><path d="M-475.43,509.46c-1.91,2.26.56,10.31,1.72,12.88,5.13,11.33,17.2,17.2,28.94,17.2V508.81h-24.95C-472.22,508.81-473.48,508.47-475.43,509.46Z" transform="translate(567.53 -418.99)" fill="#fff" stroke="#fff" stroke-miterlimit="2.61" stroke-width="0.22" fill-rule="evenodd"/><path d="M-566.82,509.46a1.71,1.71,0,0,0-.58,1.28l0,0.13v3.6a29,29,0,0,0,9,16.8,32.08,32.08,0,0,0,22.28,8.28V508.81h-24.95C-563.61,508.81-564.87,508.47-566.82,509.46Z" transform="translate(567.53 -418.99)" fill="#fff" stroke="#fff" stroke-miterlimit="2.61" stroke-width="0.22" fill-rule="evenodd"/><path d="M-444.77,539.55c12.15,0,24.07-6.38,28.94-17.2a34.86,34.86,0,0,0,2.32-8.61v-3a3.78,3.78,0,0,0-.13-0.5c-0.47-1.37,0-.22-0.47-0.7-1.81-1.07-3.37-.73-5.71-0.73h-25v30.74Z" transform="translate(567.53 -418.99)" fill="#fff" stroke="#fff" stroke-miterlimit="2.61" stroke-width="0.22" fill-rule="evenodd"/><path d="M-536.17,539.55c12.69,0,23.71-6.36,28.87-17.29a24.94,24.94,0,0,0,2.42-9.28l-0.15-2.74c-0.47-1.37,0-.22-0.47-0.7-1.81-1.07-3.37-.73-5.71-0.73h-25v30.74Z" transform="translate(567.53 -418.99)" fill="#fff" stroke="#fff" stroke-miterlimit="2.61" stroke-width="0.22" fill-rule="evenodd"/><path d="M-495.28,550.42c-4.46.49-10.69,6.2-12.59,10.94a31.54,31.54,0,0,0-1.84,6.37h38.48c-1.38-6.39-3.38-11.17-8.92-14.85-1.21-.8-3.91-2.29-5.51-2.47A20.34,20.34,0,0,0-495.28,550.42Z" transform="translate(567.53 -418.99)" fill="#fff" stroke="#fff" stroke-miterlimit="2.61" stroke-width="0.22" fill-rule="evenodd"/><path d="M-471.23,567.74h-38.48c-2.08,0-10.2-.55-11.37.7a2.78,2.78,0,0,0,.73,4.22c1.62,0.67,48.23.2,53.93,0.2,1.75,0,4.31.42,5.83-.2a2.78,2.78,0,0,0,.73-4.22C-461,567.19-469.15,567.72-471.23,567.74Z" transform="translate(567.53 -418.99)" fill="#fff" stroke="#fff" stroke-miterlimit="2.61" stroke-width="0.22" fill-rule="evenodd"/><path d="M-535.56,454.94c0.35,1.78,10.44,23.61,12,27,3.83,8.14,8.54,19.32,12.33,26.9,2.34,0,3.9-.34,5.71.73-0.28-1.43-17.77-39.24-19.14-42.14L-531.05,453C-532.75,453.83-533,454.68-535.56,454.94Z" transform="translate(567.53 -418.99)" fill="#fff" stroke="#fff" stroke-miterlimit="2.61" stroke-width="0.22" fill-rule="evenodd"/><path d="M-566.82,509.46c2-1,3.22-.66,5.71-0.66,4.84-9.72,10.4-23.13,15.23-33.41,1.3-2.77,8.74-18.54,9.12-20.46-2.54-.26-2.8-1.11-4.51-1.94-1,2.62-1.92,4.51-3.11,7Z" transform="translate(567.53 -418.99)" fill="#fff" stroke="#fff" stroke-miterlimit="2.61" stroke-width="0.22" fill-rule="evenodd"/><path d="M-475.43,509.46c2-1,3.22-.66,5.71-0.66,4.84-9.72,10.4-23.13,15.23-33.41l4.51-9.93c1.23-2.6,4.19-8.4,4.61-10.53-2.54-.26-2.8-1.11-4.51-1.94-1,2.62-1.92,4.51-3.11,7Z" transform="translate(567.53 -418.99)" fill="#fff" stroke="#fff" stroke-miterlimit="2.61" stroke-width="0.22" fill-rule="evenodd"/><path d="M-444.17,454.94c0.4,2,2,5,2.91,6.91L-426,495.25c2.14,4.55,4,9.18,6.21,13.55,2.34,0,3.9-.34,5.71.73l-22.35-49.3c-1.21-2.58-2.16-4.55-3.21-7.24C-441.36,453.83-441.64,454.68-444.17,454.94Z" transform="translate(567.53 -418.99)" fill="#fff" stroke="#fff" stroke-miterlimit="2.61" stroke-width="0.22" fill-rule="evenodd"/><path d="M-491.63,424.5c5.88-1.82,8.47,8,2.46,9.79s-8.86-7.81-2.46-9.79h0Zm-8.46,6.9a12.37,12.37,0,0,1,1,2.41c0.44,1,.83,1.4,1.27,2.3a11.18,11.18,0,0,0,2.58,2.2c3.68,1.77,5.94,1.75,9.62,0a12,12,0,0,0,2.58-2.2c0.44-.91.83-1.3,1.28-2.29a13.11,13.11,0,0,1,1-2.42c0-4.46-.27-6.34-2.33-8.82a9.38,9.38,0,0,0-14.58,0C-499.82,425.06-500.09,426.94-500.09,431.4Z" transform="translate(567.53 -418.99)" fill="#fff" stroke="#fff" stroke-miterlimit="2.61" stroke-width="0.22" fill-rule="evenodd"/><path d="M-483.08,436.12c5.85,2.64,22.08,11.52,27.14,13.49,1.33,0.52,3.45.71,4.62,1.24-0.54-2.46-.81-2.71-0.46-5.44l-3.78-1.32c-1.23-.54-2.43-1.25-3.64-1.89l-21.65-10.8a13.11,13.11,0,0,0-1,2.42C-482.24,434.81-482.64,435.21-483.08,436.12Z" transform="translate(567.53 -418.99)" fill="#fff" stroke="#fff" stroke-miterlimit="2.61" stroke-width="0.22" fill-rule="evenodd"/><path d="M-541.74,442.2c-0.86,2.23-1.37,1.95-1.62,5.12a8.15,8.15,0,0,0,2.09,5.67c1.71,0.83,2,1.68,4.51,1.94h1.2c2.53-.26,2.81-1.11,4.51-1.94,0.51-.66,1-1.44,1.43-2.15,0.54-2.46.81-2.71,0.46-5.44a7.34,7.34,0,0,0-5.07-5.58C-537.72,438.83-540.18,440.64-541.74,442.2Z" transform="translate(567.53 -418.99)" fill="#fff" stroke="#fff" stroke-miterlimit="2.61" stroke-width="0.22" fill-rule="evenodd"/><path d="M-451.77,445.4c-0.35,2.74-.08,3,0.46,5.44,0.46,0.71.92,1.49,1.43,2.15,1.71,0.83,2,1.68,4.51,1.94h1.2c2.53-.26,2.81-1.11,4.51-1.94a8.16,8.16,0,0,0,2.09-5.67c-0.25-3.18-.77-2.89-1.62-5.12-1.57-1.56-4-3.37-7.51-2.38A7.34,7.34,0,0,0-451.77,445.4Z" transform="translate(567.53 -418.99)" fill="#fff" stroke="#fff" stroke-miterlimit="2.61" stroke-width="0.22" fill-rule="evenodd"/><path d="M-529.16,445.4c0.35,2.74.08,3-.46,5.44,1.15-.52,3-0.61,4.4-1.15l7.9-3.76c5.74-2.83,14-7.38,19.47-9.82-0.44-.9-0.83-1.31-1.27-2.3a12.37,12.37,0,0,0-1-2.41c-4.07,1.56-19.68,10.16-25.08,12.59Z" transform="translate(567.53 -418.99)" fill="#fff" stroke="#fff" stroke-miterlimit="2.61" stroke-width="0.22" fill-rule="evenodd"/><path d="M-491.63,424.5c-6.4,2-3.43,11.56,2.46,9.79S-485.75,422.68-491.63,424.5Z" transform="translate(567.53 -418.99)" fill="#fff" stroke="#fff" stroke-miterlimit="2.61" stroke-width="0.22" fill-rule="evenodd"/><path d="M-543.36,447.32c0.25-3.17.76-2.89,1.62-5.12-2.61-1.45-6.56-6.94-7.86-7.49a2.36,2.36,0,0,0-3.3,1.54c-0.49,1.83.54,2.65,1.33,3.47C-549.71,441.66-545.3,446.78-543.36,447.32Z" transform="translate(567.53 -418.99)" fill="#fff" stroke="#fff" stroke-miterlimit="2.61" stroke-width="0.22" fill-rule="evenodd"/><path d="M-439.19,442.2c0.85,2.24,1.37,1.95,1.62,5.12,1.91-.53,6.12-5.41,7.91-7.28,0.84-.88,2-1.67,1.69-3.52a2.35,2.35,0,0,0-2.89-2C-432.63,434.92-436.27,440.57-439.19,442.2Z" transform="translate(567.53 -418.99)" fill="#fff" stroke="#fff" stroke-miterlimit="2.61" stroke-width="0.22" fill-rule="evenodd"/></svg>