<svg id="8fb7aba7-2d70-44c9-a048-8d76e53c6f05" data-name="Layer 1" xmlns="http://www.w3.org/2000/svg" viewBox="0 0 153.92 153.92"><title>ib2</title><path d="M-5070.84,468.63c2.23,0.74,3.6-.94,5.28-1.93s3.21-1.86,5-2.83c3.33-1.81,6.45-3.57,10-5.38,3.88-2,17.58-8.64,21.22-9.62l0,103.93c-14.74,5-27.84,12-41.35,19.09a54,54,0,0,1-5.46,3c-0.49-16.88,0-34.49,0-51.45,0-6.33.42-48.63-.27-51.15-4.21-2.82-12.53-4.61-17.79-5.36-7.07-1-15.37-.08-22.19.25l-10.14,1.29c-3.28.55-6.69,1.05-10,1.74-1.5.31-3,.66-4.66,1.05-2.14.52-2.86,0.56-2.9,3.12-0.06,3.9,0,7.89,0,11.81,1.2,2.56-.89,98.54.54,102.61,1.67,0.44,12.54-2.2,15.51-2.67,15.24-2.4,31.27-4.07,46.07,1.2,4.11,1.46,3.19-.19,3.19,9.56h-45.77c-4.86,0-18.49.73-21.92-.95-6.46-3.16-5.24-9.94-5.24-18V486.09a3.62,3.62,0,0,0-.19-1.2c-1.55-.36-2.18-0.12-2.4,1V588.4c0.33,3.13,1.3,6.11,3.9,8.12,3.36,2.6,5,3,8.92,3h127.89c3.25,0,4.87-.25,7.67-1.93a11.54,11.54,0,0,0,5.11-6.92,13.31,13.31,0,0,0,.42-2.25V486.63c-0.24-2.73-2.18-1.94-2.58-.55-0.3,15.13,0,30.57,0,45.73v46c0,7.67,1.26,15-4.86,18.11-4,2-16.67,1.13-22,1.13h-46l0-8.42c14.35-3.62,16.48-5.19,32.81-4.39a145.63,145.63,0,0,1,24.47,3.4l5.73,1.51a1.46,1.46,0,0,0,1,0c1.16-.34.37-0.11,0.75-0.48,1.46-1.81-.62-100,0.57-102.55,0-3.82.17-8,0-11.81-0.09-2.17-1-2.42-2.9-2.82-1.63-.33-3.9-0.92-5.08-0.47-1.19,3.44,2.58,2.36,5.16,3.37V586c-1.74,0-5.53-1.18-7.64-1.57-13.54-2.51-28.3-4.2-41.88-1.75-2.36.43-14.07,3.86-14.39,3.84-3.84-.26-10.33-8.66-48.32-3.15-2.67.39-5.3,0.92-7.91,1.4-2.38.44-5.21,1.33-7.47,1.55v-112c11.68-3.16,36.05-6.45,48.7-4.27,7.9,1.36,8.66,2.58,13.81,3.9,0,2.74-.39,101.31.18,104.28,1.42,0.68,1.94.32,3.3-.5l9.2-5.24a269.07,269.07,0,0,1,25.75-12.45c2-.86,13.13-5,13.46-5.47,1-1.5-.76-81.74.39-84.05V447.28c-0.43-3.3-3.52-1-7.61.48L-5057.6,459c-1.35.78-11.92,6.63-12.87,7.6C-5071.2,467.35-5071.07,467.67-5070.84,468.63Z" transform="translate(5154.41 -445.6)" fill="#fff" fill-rule="evenodd"/><path d="M-5128.29,542.57c-0.27,3.47,2.27,1.74,7.12.83,3-.56,6.23-0.89,9.41-1.16a68.86,68.86,0,0,1,10.13,0c2.53,0.16,7.65,1.4,9.48.77,0.61-2.73-2.69-2.85-7-3.23C-5107,539.09-5122,539.65-5128.29,542.57Z" transform="translate(5154.41 -445.6)" fill="#fff" fill-rule="evenodd"/><path d="M-5128.28,495.65c-0.32,3.39,2.06,1.79,7.12.83a78,78,0,0,1,19.65-1.16c1.91,0.12,8.76,1.61,9.41.45,1.34-2.41-5.48-2.77-7.09-2.92C-5107.11,492.15-5121.93,492.77-5128.28,495.65Z" transform="translate(5154.41 -445.6)" fill="#fff" fill-rule="evenodd"/><path d="M-5128.29,558.21c-0.27,3.47,2.31,1.73,7.1.85a96.89,96.89,0,0,1,9.7-1.21,72.09,72.09,0,0,1,15.23.62c1.43,0.26,3.73,1.16,4.23-.31,1.21-3.54-16-3.06-17.85-3C-5114.66,555.33-5124.72,556.49-5128.29,558.21Z" transform="translate(5154.41 -445.6)" fill="#fff" fill-rule="evenodd"/><path d="M-5128.28,511.29c-0.31,3.41,2.14,1.77,7.1.85,7.3-1.36,17.59-2,24.93-.58,1.38,0.26,3.76,1.15,4.23-.33,1.13-3.53-15.9-3.05-17.83-3C-5114.74,508.41-5124.58,509.55-5128.28,511.29Z" transform="translate(5154.41 -445.6)" fill="#fff" fill-rule="evenodd"/><path d="M-5128.29,526.93c-0.19,2.25.78,2.33,2.68,1.83a76.83,76.83,0,0,1,24.4-2.13c4.4,0.28,8.64,1.88,9.18.25C-5090.52,522.3-5120.49,523.37-5128.29,526.93Z" transform="translate(5154.41 -445.6)" fill="#fff" fill-rule="evenodd"/><path d="M-5065.52,534c1.73,0.36,4.12-1.24,6.67-2.57l13.21-6c4.13-1.67,6.38-1.53,5.57-4-2.35-.69-11.53,3.84-14,4.93l-9.73,4.68C-5065.47,531.83-5065.8,532.11-5065.52,534Z" transform="translate(5154.41 -445.6)" fill="#fff" fill-rule="evenodd"/><path d="M-5065.52,549.69c1.75,0.36,3.9-1.2,6.67-2.57,2.32-1.14,4.15-2,6.5-3.1s4.4-2,6.7-2.93c1.44-.58,7.38-2,5.48-3.84-1.74-1.71-19.92,7.73-23.62,9.44C-5065.49,547.48-5065.8,547.75-5065.52,549.69Z" transform="translate(5154.41 -445.6)" fill="#fff" fill-rule="evenodd"/><path d="M-5065.52,518.41c1.71,0.36,4.15-1.26,6.67-2.58a156.45,156.45,0,0,1,16.72-7.33c1.74-.6,2.67-0.84,2.06-2.7-2.61-.77-16.85,6.2-20.52,8C-5064.87,515.92-5065.93,515.89-5065.52,518.41Z" transform="translate(5154.41 -445.6)" fill="#fff" fill-rule="evenodd"/><path d="M-5040.08,490.16c-2.64-.79-16.78,6.23-20.51,8-1.23.59-6.56,2.58-4.82,4.43,0.9,1,4.57-1.37,6.54-2.43s4.29-2.1,6.53-3.09,4.37-2,6.71-2.92c1.16-.47,2.24-0.9,3.5-1.31C-5040.38,492.28-5039.46,492-5040.08,490.16Z" transform="translate(5154.41 -445.6)" fill="#fff" fill-rule="evenodd"/><path d="M-5065.53,487.12c1.83,0.39,3.64-1.07,6.64-2.61,3.31-1.7,13.17-6.14,16.76-7.31,1.69-.55,2.71-0.79,2.05-2.68-2.93-.86-19.16,7.42-23.68,9.61C-5065.39,484.92-5065.84,485.12-5065.53,487.12Z" transform="translate(5154.41 -445.6)" fill="#fff" fill-rule="evenodd"/></svg>