<?xml version="1.0" encoding="UTF-8"?>
<!DOCTYPE svg PUBLIC "-//W3C//DTD SVG 1.0//EN" "http://www.w3.org/TR/2001/REC-SVG-20010904/DTD/svg10.dtd">
<!-- Creator: CorelDRAW X7 -->
<svg xmlns="http://www.w3.org/2000/svg" xml:space="preserve" width="2.08334in" height="2.08333in" version="1.0" style="shape-rendering:geometricPrecision; text-rendering:geometricPrecision; image-rendering:optimizeQuality; fill-rule:evenodd; clip-rule:evenodd"
viewBox="0 0 192 192"
 xmlns:xlink="http://www.w3.org/1999/xlink">
 <defs>
  <style type="text/css">
   <![CDATA[
    .fil1 {fill:#50565F}
    .fil2 {fill:#A9B0B9}
    .fil0 {fill:#F1ECD9}
   ]]>
  </style>
 </defs>
 <g id="Layer_x0020_1">
  <metadata id="CorelCorpID_0Corel-Layer"/>
  <g id="_103493274480">
   <path class="fil0" d="M33 140c4,-2 17,-3 23,-3 2,0 23,-1 22,3 -1,2 -4,1 -5,1 -6,-1 -14,-1 -19,-1 -5,0 -9,1 -13,2 -6,1 -9,3 -8,-2zm0 -19c7,-4 26,-4 36,-4 5,1 9,1 9,5 -3,0 -9,-1 -12,-1 -4,-1 -9,-1 -13,0 -4,0 -8,0 -12,1 -6,1 -9,3 -8,-1zm0 -20c9,-4 47,-5 45,0 -1,2 -6,0 -12,0 -10,-1 -20,0 -30,3 -2,0 -4,0 -3,-3zm0 -19c4,-2 16,-4 23,-4 2,0 23,-1 22,4 -1,2 -4,1 -5,0 -10,-1 -22,-1 -32,1 -6,1 -9,3 -8,-1zm0 -20c8,-3 26,-4 36,-3 2,0 10,1 9,4 -1,1 -10,-1 -12,-1 -8,0 -16,0 -25,1 -6,2 -9,4 -8,-1zm136 -30c-3,0 -5,-1 -9,-1 -2,3 1,103 -1,105 0,1 -14,6 -17,7 -11,5 -21,9 -32,15l-11 7c-2,1 -2,1 -4,0 -1,-3 0,-126 0,-130 -7,-1 -8,-3 -18,-4 -15,-3 -46,1 -60,5l0 140c2,-1 6,-2 9,-2 3,-1 6,-2 10,-2 47,-7 55,3 60,4 0,0 15,-4 18,-5 17,-3 35,-1 52,2 3,1 8,2 10,2l0 -139c-3,-1 -8,0 -7,-4z"/>
   <path class="fil0" d="M111 130c0,-3 0,-3 2,-4 5,-2 27,-14 30,-12 2,3 -6,4 -7,5 -3,1 -6,2 -9,4 -3,1 -5,2 -8,4 -3,1 -6,3 -8,3zm0 -20c0,-2 0,-2 2,-3l12 -6c3,-2 15,-7 18,-6 1,3 -2,3 -7,5l-17 7c-3,2 -6,4 -8,3zm0 -19c-1,-3 1,-3 6,-6 5,-2 22,-11 26,-10 0,2 -1,3 -3,3 -5,2 -16,7 -21,10 -3,1 -6,3 -8,3zm32 -35c0,2 -1,2 -3,3 -1,0 -3,1 -4,2 -3,1 -6,2 -9,3 -2,1 -5,3 -8,4 -2,1 -7,4 -8,3 -2,-2 5,-5 6,-5 5,-3 22,-11 26,-10zm-32 -4c-1,-3 0,-3 2,-4 6,-3 26,-13 30,-12 0,2 -1,3 -3,3 -4,2 -17,7 -21,10 -4,1 -6,3 -8,3zm-7 -23c0,0 0,0 0,0 -1,1 -1,1 -1,1l-6 3c1,3 0,56 0,64 0,21 0,43 0,64 2,0 5,-2 7,-3 17,-9 34,-18 52,-24l0 -130c-5,1 -22,10 -27,12 -4,2 -8,5 -12,7 -2,1 -4,2 -6,3 -2,2 -4,4 -7,3z"/>
   <path class="fil1" d="M104 29c3,1 5,-1 7,-3 2,-1 4,-2 6,-3 4,-2 8,-5 12,-7 5,-2 22,-11 27,-12l0 130c-18,6 -35,15 -52,24 -2,1 -5,3 -7,3 0,-21 0,-43 0,-64 0,-8 1,-61 0,-64 -5,-3 -15,-6 -22,-6 -9,-2 -19,-1 -28,0l-12 1c-4,1 -9,2 -13,3 -2,0 -4,0 -6,1 -2,1 -3,1 -3,4 0,5 0,10 0,15 1,3 -1,122 0,128 3,0 16,-3 20,-4 19,-3 39,-5 57,2 5,2 4,-1 4,12 -19,0 -38,0 -57,0 -6,0 -23,1 -27,-2 -8,-3 -7,-12 -7,-22 0,-38 0,-76 0,-114 0,-1 0,-1 0,-2 -2,0 -3,0 -3,1l0 10 0 107 0 11c0,4 2,8 5,10 4,4 6,4 11,4l4 0 152 0 4 0c4,0 6,0 9,-2 3,-2 5,-5 6,-9 1,-1 1,-2 1,-3l0 -12 0 -115c0,-3 -3,-2 -3,0 -1,18 0,38 0,57 0,19 0,38 0,57 0,10 1,19 -6,23 -5,2 -21,1 -28,1 -19,0 -38,0 -57,0l0 -11c18,-4 20,-6 41,-5 9,0 21,2 30,4l7 2c1,0 1,0 2,0 1,0 0,0 1,-1 1,-2 -1,-124 0,-127 0,-5 0,-10 0,-15 0,-3 -1,-3 -3,-4 -2,0 -5,-1 -7,0 -1,4 4,3 7,4l0 139c-2,0 -7,-1 -10,-2 -17,-3 -35,-5 -52,-2 -3,1 -18,5 -18,5 -5,-1 -13,-11 -60,-4 -4,0 -7,1 -10,2 -3,0 -7,1 -9,2l0 -140c14,-4 45,-8 60,-5 10,1 11,3 18,4 0,4 -1,127 0,130 2,1 2,1 4,0l11 -7c11,-6 21,-10 32,-15 3,-1 17,-6 17,-7 2,-2 -1,-102 1,-105l0 -29c-1,-4 -5,-1 -10,1l-29 14c-2,1 -15,8 -16,9 -1,1 -1,2 -1,3z"/>
   <path class="fil2" d="M13 51l-10 0c0,38 0,76 0,114 0,10 -1,19 7,22 4,3 21,2 27,2 19,0 38,0 57,0 0,-13 1,-10 -4,-12 -18,-7 -38,-5 -57,-2 -4,1 -17,4 -20,4 -1,-6 1,-125 0,-128z"/>
   <path class="fil2" d="M189 51l-10 0c-1,3 1,125 0,127 -1,1 0,1 -1,1 -1,0 -1,0 -2,0l-7 -2c-9,-2 -21,-4 -30,-4 -21,-1 -23,1 -41,5l0 11c19,0 38,0 57,0 7,0 23,1 28,-1 7,-4 6,-13 6,-23 0,-19 0,-38 0,-57 0,-19 -1,-39 0,-57z"/>
   <path class="fil1" d="M33 121c-1,4 2,2 8,1 4,-1 8,-1 12,-1 4,-1 9,-1 13,0 3,0 9,1 12,1 0,-4 -4,-4 -9,-5 -10,0 -29,0 -36,4z"/>
   <path class="fil1" d="M33 62c-1,5 2,3 8,1 9,-1 17,-1 25,-1 2,0 11,2 12,1 1,-3 -7,-4 -9,-4 -10,-1 -28,0 -36,3z"/>
   <path class="fil1" d="M33 140c-1,5 2,3 8,2 4,-1 8,-2 13,-2 5,0 13,0 19,1 1,0 4,1 5,-1 1,-4 -20,-3 -22,-3 -6,0 -19,1 -23,3z"/>
   <path class="fil1" d="M33 82c-1,4 2,2 8,1 10,-2 22,-2 32,-1 1,1 4,2 5,0 1,-5 -20,-4 -22,-4 -7,0 -19,2 -23,4z"/>
   <path class="fil1" d="M33 101c-1,3 1,3 3,3 10,-3 20,-4 30,-3 6,0 11,2 12,0 2,-5 -36,-4 -45,0z"/>
   <path class="fil1" d="M111 110c2,1 5,-1 8,-3l17 -7c5,-2 8,-2 7,-5 -3,-1 -15,4 -18,6l-12 6c-2,1 -2,1 -2,3z"/>
   <path class="fil1" d="M111 130c2,0 5,-2 8,-3 3,-2 5,-3 8,-4 3,-2 6,-3 9,-4 1,-1 9,-2 7,-5 -3,-2 -25,10 -30,12 -2,1 -2,1 -2,4z"/>
   <path class="fil1" d="M111 91c2,0 5,-2 8,-3 5,-3 16,-8 21,-10 2,0 3,-1 3,-3 -4,-1 -21,8 -26,10 -5,3 -7,3 -6,6z"/>
   <path class="fil1" d="M143 56c-4,-1 -21,7 -26,10 -1,0 -8,3 -6,5 1,1 6,-2 8,-3 3,-1 6,-3 8,-4 3,-1 6,-2 9,-3 1,-1 3,-2 4,-2 2,-1 3,-1 3,-3z"/>
   <path class="fil1" d="M111 52c2,0 4,-2 8,-3 4,-3 17,-8 21,-10 2,0 3,-1 3,-3 -4,-1 -24,9 -30,12 -2,1 -3,1 -2,4z"/>
  </g>
 </g>
</svg>
