<svg id="75ecea73-f1b4-41ad-ae6a-46054432481d" data-name="Layer 1" xmlns="http://www.w3.org/2000/svg" viewBox="0 0 153.92 122.11"><title>ib7</title><path d="M5301.67,487.72c1.64-1,6.3-.38,6.33-7.82V438.11c1.18,0.31,40.51,24.44,44.55,26.87,3,1.83,25.39,15.23,26.22,16.11-0.88.93-69.79,42.73-70.77,43,0-5,0-10,0-15,0-5.23-1.38-8.29-6.42-8.71-4.17-.09-6.43,3.18-6.62,7.2l0.12,28.18c0.65,4.5,3.92,7.06,7.53,6.28,3.25-.7,22.89-13.33,26.57-15.55l61.37-37.28c1.36-.82,3-1.68,4.28-2.64a6.46,6.46,0,0,0,2.93-4.3l0-.21v-2c-0.46-3.41-3.43-4.83-5.73-6.21-26.16-15.67-52.41-32-78.58-47.74l-8.8-5.34a6.51,6.51,0,0,0-9.12,3.39c-1,2.69-.59,9.72-0.59,13.55v28.29c0,5.52-1.11,16.1,1.72,19.35C5298.6,487.59,5300.42,487.21,5301.67,487.72Z" transform="translate(-5243.86 -420.07)" fill="#fff" fill-rule="evenodd"/><path d="M5243.86,522.33c0,4.1,2.6,6.92,6,6.92h29.76c3.19,0,6-3,6-6.62a6.61,6.61,0,0,0-6.31-6.32h-29.16C5247,516.31,5243.86,519.14,5243.86,522.33Z" transform="translate(-5243.86 -420.07)" fill="#fff" fill-rule="evenodd"/><path d="M5243.86,439c0,4.25,2.9,6.92,6.31,6.92h16.23c8.34,0,8.33-12.94.3-12.94h-16.83A6.31,6.31,0,0,0,5243.86,439Z" transform="translate(-5243.86 -420.07)" fill="#fff" fill-rule="evenodd"/><path d="M5263.1,500.36c5.54,0,11.62.94,14.3-1.94a6.52,6.52,0,0,0-5-11h-9a6.64,6.64,0,0,0-6.81,6.35A6.44,6.44,0,0,0,5263.1,500.36Z" transform="translate(-5243.86 -420.07)" fill="#fff" fill-rule="evenodd"/><path d="M5269.42,464.85c0,3.58,2.82,6.62,6,6.62h4.21c3.19,0,6-3,6-6.62a6.62,6.62,0,0,0-6.31-6.32h-3.61A6.62,6.62,0,0,0,5269.42,464.85Z" transform="translate(-5243.86 -420.07)" fill="#fff" fill-rule="evenodd"/></svg>