<?xml version="1.0" encoding="UTF-8"?>
<!DOCTYPE svg PUBLIC "-//W3C//DTD SVG 1.0//EN" "http://www.w3.org/TR/2001/REC-SVG-20010904/DTD/svg10.dtd">
<!-- Creator: CorelDRAW X7 -->
<svg xmlns="http://www.w3.org/2000/svg" xml:space="preserve" width="2.08587in" height="2.08333in" version="1.0" style="shape-rendering:geometricPrecision; text-rendering:geometricPrecision; image-rendering:optimizeQuality; fill-rule:evenodd; clip-rule:evenodd"
viewBox="0 0 324 324"
 xmlns:xlink="http://www.w3.org/1999/xlink">
 <defs>
  <style type="text/css">
   <![CDATA[
    .fil3 {fill:none}
    .fil2 {fill:#012D51}
    .fil0 {fill:#012E52}
    .fil1 {fill:#4CCFE0}
   ]]>
  </style>
 </defs>
 <g id="Layer_x0020_1">
  <metadata id="CorelCorpID_0Corel-Layer"/>
  <g id="_103496135328">
   <g>
    <path class="fil0" d="M122 176c3,-2 13,-1 13,-17l0 -88c3,1 85,52 94,57 6,4 53,32 55,34 -2,2 -147,90 -149,90 0,-10 0,-21 0,-31 0,-11 -3,-18 -13,-19 -9,0 -14,7 -14,16l0 59c1,9 8,15 16,13 7,-1 48,-28 56,-33l129 -78c3,-2 6,-4 9,-6 3,-2 6,-5 6,-9 0,0 0,0 0,0l0 -4c-1,-7 -7,-10 -12,-13 -55,-33 -110,-68 -165,-101l-19 -11c-8,-4 -16,0 -19,7 -2,6 -1,21 -1,29 0,20 0,39 0,59 0,12 -3,34 3,41 4,4 8,4 11,5z"/>
    <path class="fil1" d="M122 176l0 26c10,1 13,8 13,19 0,10 0,21 0,31 2,0 147,-88 149,-90 -2,-2 -49,-30 -55,-34 -9,-5 -91,-56 -94,-57l0 88c0,16 -10,15 -13,17z"/>
    <path class="fil0" d="M0 249c0,8 5,14 13,14l62 0c7,0 13,-6 13,-14 0,-7 -6,-13 -13,-13l-62 0c-6,0 -13,6 -13,13z"/>
    <path class="fil2" d="M0 73c0,9 6,15 13,15l34 0c18,0 18,-27 1,-27l-35 0c-7,0 -13,6 -13,12z"/>
    <path class="fil0" d="M41 202c11,0 24,2 30,-4 8,-9 2,-23 -11,-23l-19 0c-8,0 -14,6 -14,14 0,6 5,13 14,13z"/>
    <path class="fil2" d="M54 128c0,7 6,14 12,14l9 0c7,0 13,-7 13,-14 0,-7 -6,-14 -13,-14l-8 0c-7,0 -13,7 -13,14z"/>
   </g>
   <rect class="fil3" width="324" height="324"/>
  </g>
 </g>
</svg>
