<?xml version="1.0" encoding="UTF-8"?>
<!DOCTYPE svg PUBLIC "-//W3C//DTD SVG 1.1//EN" "http://www.w3.org/Graphics/SVG/1.1/DTD/svg11.dtd">
<!-- Creator: CorelDRAW X7 -->
<svg xmlns="http://www.w3.org/2000/svg" xml:space="preserve" width="510px" height="79px" version="1.1" style="shape-rendering:geometricPrecision; text-rendering:geometricPrecision; image-rendering:optimizeQuality; fill-rule:evenodd; clip-rule:evenodd"
viewBox="0 0 6192 963"
 xmlns:xlink="http://www.w3.org/1999/xlink">
 <defs>
  <style type="text/css">
   <![CDATA[
    .fil0 {fill:#F58634}
    .fil1 {fill:#00AFEF}
   ]]>
  </style>
 </defs>
 <g id="Layer_x0020_1">
  <metadata id="CorelCorpID_0Corel-Layer"/>
  <path class="fil0" d="M347 42l30 21c-8,37 -24,55 -48,53l-163 8 -1 12 31 3 38 -4 6 7 6 0 44 -3 13 1 -1 6 -145 15 -12 81 7 1 170 -14 6 7 -1 6 -12 -1 0 6 43 10 -1 6c-9,23 -69,42 -180,57l-63 2 6 6 -30 80 -6 0 3 -56 -6 -1 -12 87c125,-17 214,-23 265,-20l31 9 0 12 -13 0 5 6 -1 19c-12,16 -37,22 -76,20l-1 6 50 4 -1 12 -291 43 -7 -1c-20,-4 -30,-10 -30,-19l0 -1 1 -19 18 -68 -6 -6 12 0 -2 31 6 1c3,-21 8,-31 15,-30l-6 -7 4 -63 -12 -1 -9 31 7 -6 7 1 -3 37 -6 0 1 -19 -6 0 -1 12 -6 0 0 -13 20 -105 -6 -1 14 -30 -5 -7 0 -6 13 -106 6 7 7 0 0 -12 -4 -32 10 -56 2 -19 6 1 6 6 6 -6 7 1 5 6 7 -5 19 1 220 -4zm-314 274l-3 44 7 0 3 -43 -7 -1zm207 8l6 0 0 7 -114 11 -6 -7 1 -6 56 -3 0 7 57 -9zm472 -291l12 0 -1 13 -15 25 -5 -7 -6 0 15 -31zm-233 6l13 0 17 13 1 -6c22,4 38,14 47,31 15,0 30,44 45,132l87 -132 7 -6 6 0 0 6 -89 157 12 0c66,-130 105,-195 118,-195l17 13 1 -6c18,0 39,21 63,62l-1 19 -7 6 6 7 -3 25 -12 0 9 37 -12 69 -2 19 6 7 -1 6 -13 12 11 13 -13 12 11 13 -7 6 -6 0 6 7 -16 175c-12,0 -19,6 -20,19 -13,0 -20,10 -22,31l-19 0 -35 -25 10 -37 -10 -38 43 -270c-21,22 -44,68 -69,138 -2,25 -12,41 -29,50l-7 0 1 -6 7 -6 0 -6 -5 -7 13 -12 2 -19 -13 0c-2,23 -11,40 -29,50l-7 0 -28 -31c-11,0 -18,-19 -20,-57 -21,-43 -31,-75 -30,-94l-6 0 -13 76 -4 50 -8 19 4 31 -12 138c-9,0 -13,6 -15,19l-34 31 -6 0 -42 -19 9 -31 0 -69 2 -31 7 -7 -6 -6 1 -6c6,-64 18,-133 37,-207l6 0 -6 -7 1 -6 8 -25 -4 -25 1 -6 6 0 -1 12 6 0 2 -19 -6 -6 23 -44 1 -19 -7 7 -6 0 -5 -7 1 -18 6 0 6 6 7 0 13 -13zm157 283l5 18 6 0c2,-22 28,-78 78,-169l9 -31c-32,39 -64,99 -98,182zm112 -132l-7 6 -13 157 6 0 18 -132 -6 -6 6 0 -5 -6 0 -7 7 -6 0 -6 -6 0zm-41 326l-4 50 6 0 9 -31 -5 -19 -6 0zm195 -499l6 6 0 6 6 -6 31 0c9,0 13,10 12,31l7 0c0,-12 5,-19 13,-19 8,0 12,7 12,19l44 -6 67 12 25 -6c32,0 57,17 74,50l-7 44 6 7 0 6 -13 37 -7 0 1 -12 -7 0c-32,79 -78,133 -137,163l-102 44 -3 106 5 32c-8,0 -19,21 -33,63l-7 6 -6 0 -49 -25 8 -50 -18 -26 15 -87 -6 -7 23 -119 -7 -6 7 -6 13 0 -1 25 6 0 1 -32 -5 -18 12 0 1 -32 -12 -12 -1 25 -6 0c1,-27 -11,-48 -35,-63l-6 -38 1 -25c55,-22 83,-37 83,-44l0 -6 -12 -12 -6 6 -6 -25 7 -6 6 0zm55 244l12 0c54,-23 101,-60 142,-113l-19 0c-84,6 -126,18 -127,38l-8 75zm159 -88c-13,24 -67,59 -160,107l-6 6 0 6 12 0c62,-19 115,-58 161,-119l-7 0zm-255 132l0 6 6 7 -6 6 -1 12 12 0 2 -31 -13 0zm621 -265c49,0 95,15 138,44l-6 6 0 7 25 37 -12 0 -7 -6 -6 0 19 138 6 0c0,-21 4,-31 13,-31l0 25c0,23 -21,78 -63,163l6 0c-29,40 -73,78 -132,113l-31 6 -6 0c-100,0 -162,-40 -188,-119l-25 -38 6 -6 -6 -44 0 -13c0,-34 33,-95 100,-181l0 6c-31,41 -56,87 -75,138l0 6 6 0c15,-61 72,-139 169,-232l-44 25 -6 0c0,-19 40,-34 119,-44zm-31 107l-6 -6 0 6 6 6 -44 38c-35,0 -68,58 -100,175 0,34 18,63 56,88l6 0c46,0 98,-48 157,-144 21,-46 32,-79 32,-100l0 -51c0,-11 -21,-20 -63,-25l-6 0 -7 7 -6 0 0 -7 -25 13zm182 19l12 0 0 31 -12 0 0 -31zm-320 69l-19 37 6 0 19 -37 -6 0zm245 37l-26 63 19 0 19 -44 -6 -19 -6 0zm43 25l-6 19 0 13 6 0 7 -25 0 -7 -7 0zm-370 25l0 51 7 0 0 -51 -7 0zm295 19l-25 32 6 0 25 -32 -6 0zm-201 138l0 6 32 19 0 -6 -32 -19zm382 -451l19 0 6 32c12,0 19,-7 19,-19l6 0 13 12 -7 38 7 0 -7 6 0 7 7 6 0 6 -7 0 7 6 0 7 -7 207 0 6 7 0 18 -63 13 0 -44 119 13 0 75 -213 -13 0 -25 82 -12 0 0 -7 44 -100 6 0 0 13 50 -13c17,6 25,13 25,19l6 -6 19 0 25 150 7 0c0,-19 33,-126 98,-323l7 0 6 19 6 0 0 -13 6 0c32,0 48,6 51,19l0 13 -13 18 0 7 13 0 6 -44 12 0 13 12 0 7 -143 492 -19 6 0 -12 -6 6 -6 0 -6 -6c0,17 -7,25 -19,25 -34,-3 -50,-9 -50,-19l6 0c-4,-21 -13,-36 -25,-44l-25 -138c-7,0 -32,59 -76,176l-31 31 -6 0 -6 -25c64,-106 97,-187 100,-245 -11,12 -38,74 -82,189 -5,0 -13,25 -25,75l-56 0 -6 -25 -7 6 -6 0c0,-23 -6,-39 -19,-50l0 -25 25 19 -12 -107 6 -6 -6 -7 6 -6 -6 0 6 -6 0 -88 6 -31 -6 0 6 -7 0 -163 -6 -6 0 -6 19 -13zm368 3c-61,192 -92,300 -92,323l0 7 6 0 99 -330 -13 0zm-11 242l-12 56 0 7 6 0 13 -57 0 -6 -7 0zm-37 150l-13 57 0 12 6 0 13 -62 0 -7 -6 0zm477 -381l31 21c-9,37 -25,55 -48,53l-164 8 -1 12 31 3 38 -4 6 7 6 0 45 -3 12 1 0 6 -146 15 -11 81 6 1 170 -14 6 7 0 6 -13 -1 0 6 43 10 0 6c-9,23 -69,42 -180,57l-63 2 6 6 -31 80 -6 0 4 -56 -6 -1 -13 87c126,-17 214,-23 266,-20l30 9 0 12 -13 0 6 6 -1 19c-12,16 -38,22 -77,20l0 6 50 4 -1 12 -292 43 -6 -1c-21,-4 -31,-10 -31,-19l0 -1 1 -19 18 -68 -6 -6 12 0 -2 31 6 1c3,-21 8,-31 15,-30l-6 -7 5 -63 -13 -1 -8 31 7 -6 6 1 -3 37 -6 0 1 -19 -6 0 -1 12 -6 0 1 -13 20 -105 -7 -1 15 -30 -6 -7 0 -6 14 -106 6 7 6 0 1 -12 -4 -32 10 -56 1 -19 6 1 6 6 7 -6 6 1 6 6 6 -5 19 1 220 -4zm-313 274l-3 44 6 0 3 -43 -6 -1zm206 8l7 0 -1 7 -114 11 -5 -7 0 -6 57 -3 -1 7 57 -9zm273 -285l75 0c88,16 132,54 132,113l0 37 -63 88 6 0 63 -56 0 12c-21,48 -49,79 -81,94l-38 13 0 25c9,0 53,54 132,163 16,7 33,23 50,50l0 6 -32 -25 0 6c21,23 32,39 32,51l-7 0 -31 18 -6 0 -13 -18 -6 6 -6 0c-84,-68 -142,-137 -176,-207l-31 -63c-15,0 -23,25 -25,75 2,42 0,68 -7,77 -12,10 -14,20 -6,30l0 13 -19 0c-8,0 -12,-9 -12,-25l-6 0c0,16 -8,23 -24,18l-28 -36 8 -58 0 -25 37 -175 7 0 0 25 6 0 31 -132c-8,0 -12,8 -12,25l-7 0 0 -12 -37 0 0 -7c0,-8 12,-14 37,-18l0 -7 -12 0 -38 13 -6 0c0,-9 8,-13 25,-13l0 -6c-17,0 -25,-6 -25,-19l113 -56zm6 225l6 0c66,-31 112,-64 138,-100l0 -12c0,-15 -25,-29 -75,-44l-38 12 -31 144zm126 -156c8,19 16,29 25,31l0 -12 -25 -19zm37 37l-6 32 6 0 6 -7 0 -25 -6 0zm-232 19l6 0 0 19 -6 25 -6 0 0 -19 6 -25zm213 25l-31 44 6 0 32 -38 0 -6 -7 0zm63 13l13 0 -7 19 -6 0 0 -19zm-288 19l6 0 0 25 -6 0 0 -25zm-13 81l0 25 6 0 0 -25 -6 0zm188 188l0 6 25 26c-8,-19 -16,-30 -25,-32zm32 44l0 6 25 19 0 -6 -25 -19zm251 -490c-1,13 7,19 24,19l11 25 -6 6 6 0c-30,89 -48,191 -55,308l-2 37 6 7 0 6 -7 6 6 0 -6 6 4 44 -1 13c-23,27 -34,48 -35,62l-25 0 -31 -12 9 -44 -24 -25 12 -94 6 -113 14 -19 1 -25 -6 -6 1 -6 12 0 0 -7 -5 -6 25 -119 -6 0 6 -6 2 -38 -6 -6 1 -7 69 -6zm-69 113l-2 44 6 0 2 -44 -6 0zm-9 63l-3 37 7 0 2 -37 -6 0zm-10 56l-2 38 6 0 2 -38 -6 0zm-1 251l-2 31 13 -12 1 -19 -12 0zm253 -482l43 38c0,-13 5,-19 13,-19l6 0 88 225 0 13 -6 0 -13 -38 -6 0 0 13 44 107 6 0c17,-109 41,-223 72,-341l19 13 19 -7 38 19 0 6c-13,0 -19,9 -19,26l6 0 6 6 7 0 6 -32 12 0 0 7 -6 6 6 6 0 7c-31,96 -59,235 -84,415l-13 0 13 -100c-9,0 -21,40 -38,119 -15,13 -30,19 -44,19l0 12 -6 0c0,-8 -9,-12 -25,-12l0 -44c0,-19 -42,-123 -126,-314l-6 0c-17,75 -31,175 -44,301l-6 -6c-25,8 -38,18 -38,32l-12 0c-9,-16 -13,-43 -13,-82l-6 0 0 56 -13 0 -6 -31c0,-113 25,-251 75,-414l51 -6zm-88 157l0 6 6 6 -6 7 0 12 6 0 6 -25 -6 -6 -6 0zm238 100c11,0 19,17 25,50l0 6 -6 0 -19 -56zm463 -250l5 7 6 0 1 -7c69,18 102,43 99,76l8 37 -13 0c2,-17 -1,-25 -10,-25l-6 0 3 32 -1 6 -12 0c-9,0 -12,-6 -11,-19l-7 6 -6 0c-21,-17 -41,-25 -60,-25 -42,0 -90,44 -146,132l-20 69c-6,55 17,95 69,119l-2 13 -12 0 -1 6 13 0c29,0 73,-38 131,-113l1 -6 -7 0c-33,40 -63,69 -91,87l-6 0 78 -81 -44 0c1,-9 -5,-13 -17,-13l-6 -6 1 -6c1,-9 22,-15 64,-19l2 -13 -7 7 -38 0 -33 -44 7 -6 1 -7 68 7 165 -19 1 -7c-21,0 -31,-4 -30,-12l7 0 5 6 7 -6 6 0c45,13 66,23 66,31l-1 7 -7 6 -1 6 25 0 -1 13 -6 0 -102 12 0 6 6 0 57 -6 -1 13c-42,0 -65,16 -69,50l-30 100 6 7 0 6 -10 31 1 50 -14 13 5 6c-17,5 -26,16 -28,31l-19 0c-8,0 -10,-18 -6,-56l-6 0 -5 44 -19 0 3 -31 -1 -44 -13 0c-24,16 -48,25 -72,25l-31 0 -11 -13 1 -6 12 0 1 -6c-87,0 -134,-30 -141,-88 -5,-27 -7,-54 -7,-81 0,-17 1,-34 2,-51l2 -12c3,-32 18,-74 45,-126l6 0 -1 13 -24 44 -1 6 7 0c4,-38 45,-86 122,-144l6 0 1 -7 -6 0 -20 7c12,-21 51,-32 117,-32zm-130 38l6 0 -48 44 0 -6 42 -38zm92 12l0 7 44 0 0 -7 -44 0zm-134 32l-1 6 -28 25 1 -6 28 -25zm277 100l25 0 -14 13 -11 -13zm-186 213l6 0 -14 13 -6 0 14 -13zm30 63l53 -25 2 -12 -6 0 -49 37zm-45 19l-1 6 32 0 0 -6 -31 0zm795 -503l6 0 0 13 6 -7 7 0c29,10 43,19 43,26l-31 37 13 0c16,-8 25,-19 25,-31l18 0 0 6 -6 6 6 7 0 6c-148,160 -221,287 -217,382l-13 62 7 7 0 6 -32 56 -50 -6 0 -50 -19 -25 0 -12 6 -76 7 7 6 0 -6 -7 0 -6 6 -6 0 -6 -6 -7 19 -6 -7 31 0 25 7 0 7 -75 -6 -19 -7 0 0 19 -6 0 -6 -50 6 -7 0 -6 -86 -220 0 -13 12 0 -12 -31 6 -6 13 0c9,0 15,10 18,31l19 -12 19 0c0,25 23,80 68,163 24,-45 45,-73 62,-81l0 6c-41,53 -62,85 -62,94l0 6 6 0 147 -199 0 -7 -72 75 0 -7 79 -93zm-79 100l0 6 -12 13 0 -7 12 -12zm85 -6c-90,116 -135,182 -135,200l12 0c37,-69 79,-136 129,-200l-6 0zm-205 438l0 25 6 0 0 -25 -6 0zm542 -518c49,0 95,15 138,44l-6 6 0 7 25 37 -13 0 -6 -6 -6 0 19 138 6 0c0,-21 4,-31 12,-31l0 25c0,23 -21,78 -62,163l6 0c-30,40 -73,78 -132,113l-31 6 -6 0c-100,0 -162,-40 -189,-119l-25 -38 7 -6 -7 -44 0 -13c0,-34 34,-95 101,-181l0 6c-31,41 -56,87 -76,138l0 6 7 0c15,-61 71,-139 169,-232l-44 25 -6 0c0,-19 40,-34 119,-44zm-31 107l-7 -6 0 6 7 6 -44 38c-35,0 -68,58 -101,175 0,34 19,63 57,88l6 0c46,0 98,-48 157,-144 21,-46 31,-79 31,-100l0 -51c0,-11 -21,-20 -62,-25l-7 0 -6 7 -6 0 0 -7 -25 13zm182 19l12 0 0 31 -12 0 0 -31zm-320 69l-19 37 6 0 19 -37 -6 0zm244 37l-25 63 19 0 19 -44 -6 -19 -7 0zm44 25l-6 19 0 13 6 0 7 -25 0 -7 -7 0zm-370 25l0 51 6 0 0 -51 -6 0zm295 19l-25 32 6 0 25 -32 -6 0zm-201 138l0 6 32 19 0 -6 -32 -19zm443 -436l13 19 -6 31 6 6 6 0 6 -31 13 0 6 19c-33,120 -50,214 -50,282 4,46 13,69 25,69l144 -163 7 -32 0 -175 12 -13c9,0 13,9 13,25l6 0c0,-16 10,-25 31,-25l13 25 -6 32c8,0 12,-11 12,-32l13 0 6 7 6 0 -31 451 -6 25c-17,0 -26,9 -26,25l-25 0 7 -62 -13 0 0 37 -19 19 0 -6 7 -63c-13,0 -19,-8 -19,-25l-7 0 -106 50 -50 -12 0 6c-44,0 -73,-63 -88,-188 17,-188 33,-282 50,-282l0 -7 6 0 0 25 -12 0 0 13 6 6 0 7 -6 0 6 18 -19 32 7 0 6 -7 -19 113 0 25 6 0c14,-163 37,-244 69,-244zm-75 251l-6 6 0 50 6 0 6 -56 -6 0zm194 50l-43 50 6 0 44 -50 -7 0zm-181 100l0 13 6 18 6 0 0 -12 -6 -19 -6 0zm43 31l0 7c0,14 19,27 57,37l12 0 0 -6c-24,0 -47,-13 -69,-38zm682 -444l18 6 0 12 -18 0 12 19c-9,21 -42,32 -100,32l-44 6 -7 19 7 0c-13,29 -38,163 -75,401l18 82 -6 0c-9,0 -18,-21 -25,-63l6 -63 0 -6 -6 0 0 12c-13,0 -19,5 -19,13l0 6 13 101 0 6 -13 0 -25 -19 -6 6 -6 0c-17,-36 -26,-67 -26,-94l7 6 6 0 -13 -43 19 -7 0 -31 -12 0 0 -6c12,0 19,-5 19,-13l0 -6 -13 0c0,-34 6,-50 19,-50l0 -82c6,-6 15,-50 25,-132l-44 7 -88 -7 0 -6 32 -6 0 6 6 -6 94 0 0 -19 -100 13 -7 -7 -6 0 -38 7 -18 -13 6 -31 -6 -7c0,-20 25,-31 75,-31l339 -12zm-38 18l0 7 25 0 0 -7 -25 0zm-232 352l-13 138 13 0 -6 -32 0 -12 12 -19 -6 0 6 -6 0 -7 -6 -6 0 -6 12 -25 -6 -25 -6 0zm308 -363l6 0 0 19 7 0 0 -12 25 0c8,0 12,12 12,37l19 7c0,-13 4,-19 13,-19l6 6 0 6 -31 170 94 -7 62 0 7 -31 -7 -6 13 0 -6 -44 0 -6 12 0 -6 -7 0 -12 12 0 0 -13 -12 0 0 -6 12 0 -6 -6 0 -44 6 6 7 0 0 -25 -7 -6 0 -7 19 0 -31 214c8,0 21,-69 38,-207l25 -7c4,34 10,51 19,51l6 0c0,-13 4,-19 12,-19l7 0c-21,144 -53,314 -95,508l-6 0 -6 -7 6 -6 0 -50 -6 0 -19 63 -19 0c-8,0 -12,-13 -12,-38l-7 0 0 25 -6 0c-8,0 -12,-6 -12,-19 0,-30 12,-101 37,-213l-6 0 -81 6 -57 -6c-12,100 -25,167 -38,201l-18 0c-9,0 -13,-17 -13,-50l-6 0 -6 43 -13 -12 0 -19 6 -6 0 -6 -6 -7 -6 0 -7 7 -6 0 -6 -26c17,-141 35,-243 56,-307l7 0 -7 -6 0 -19 19 -69 -6 0 6 -19zm6 25l0 44 7 0 0 -44 -7 0zm-6 51l-6 50 0 12 6 0 6 -50 0 -12 -6 0zm-12 69l0 25 6 0 0 -25 -6 0zm-7 31l-6 31 0 7 6 0 7 -26 0 -12 -7 0zm-12 63l0 25 6 0 0 -25 -6 0zm238 62l-6 38 0 6 6 0 6 -31 0 -13 -6 0zm-12 50l0 26 6 0 0 -26 -6 0zm43 69l-6 32 0 19 6 0 7 -44 0 -7 -7 0zm-307 32l6 0 0 31 -6 0 0 -31z"/>
  <path class="fil1" d="M2976 659l47 -1c11,6 17,15 17,27l0 5c-1,17 -20,45 -59,82 19,31 35,54 49,67l2 0c18,-18 33,-36 47,-55 3,-1 4,2 4,7l-2 9 2 0 15 -12 2 3 2 0 10 -3 2 3 0 8c-10,21 -30,43 -58,63l0 3 33 40 -1 5c-15,13 -33,20 -53,20 1,-3 -9,-12 -28,-26l-2 0 19 21 0 3 -5 5 -24 -24 -34 15 -19 -2 -19 3 0 2c10,0 15,2 14,5l-24 14 -4 0c-39,1 -64,-15 -74,-49l1 -11c1,-20 30,-56 87,-107 -6,-13 -11,-32 -15,-56l5 -22 -2 -8c27,-22 49,-34 65,-34zm52 18l0 2 2 14 -2 8 4 -5 0 -6 -2 -13 -2 0zm-68 39l5 24c12,-9 20,-22 24,-38l-4 -22c-16,11 -24,23 -25,36zm53 -23c0,6 -14,25 -41,58l0 3 2 0c24,-25 38,-43 42,-53l0 -8 -3 0zm-60 34l0 8 2 11 2 0 1 -3 -3 -16 -2 0zm-13 84c14,32 29,56 46,72l3 0 0 -3c0,-6 -16,-29 -47,-69l-2 0zm-52 74c8,18 23,27 45,26l24 -11 7 2 29 -11 0 -6 -2 0 -7 6 -3 0c-16,-19 -32,-43 -46,-72l-3 0c-22,16 -37,38 -44,66zm-9 -8l-1 14c3,7 5,10 8,10l-5 -24 -2 0zm179 4l0 3 14 16 0 -3 -14 -16zm351 -215l3 3 3 0 1 -3c37,9 54,23 52,40l5 20 -7 0c1,-9 -1,-13 -5,-13l-4 0 2 16 -1 4 -6 0c-5,0 -7,-4 -6,-10l-4 3 -3 0c-11,-9 -22,-13 -32,-13 -22,0 -48,23 -78,70l-10 37c-4,29 9,51 36,63l0 7 -7 0 -1 3 7 0c16,0 39,-20 70,-60l1 -3 -4 0c-17,21 -34,37 -48,47l-4 0 42 -44 -24 0c1,-4 -2,-7 -9,-7l-3 -3 1 -3c0,-5 11,-8 34,-10l1 -7 -4 3 -20 0 -18 -23 4 -3 0 -4 37 4 88 -10 0 -4c-11,0 -16,-2 -16,-7l4 0 3 4 3 -4 4 0c24,7 35,13 35,17l-1 4 -3 3 -1 3 14 0 -1 7 -3 0 -55 7 0 3 3 0 31 -3 -1 6c-22,0 -34,9 -36,27l-16 54 3 3 0 3 -6 17 1 27 -7 6 2 4c-9,3 -14,8 -15,16l-10 0c-4,0 -5,-10 -3,-30l-4 0 -2 24 -10 0 2 -17 -1 -23 -7 0c-13,9 -25,13 -38,13l-17 0 -6 -7 1 -3 6 0 1 -3c-47,0 -72,-16 -76,-47 -2,-15 -3,-29 -3,-43 0,-9 0,-18 1,-27l1 -7c2,-17 10,-39 24,-67l3 0 -1 7 -12 23 -1 3 4 0c2,-20 24,-45 65,-76l3 0 1 -4 -4 0 -10 4c6,-12 27,-17 62,-17zm-69 20l3 0 -26 23 1 -3 22 -20zm49 7l0 3 23 0 1 -3 -24 0zm-72 16l0 4 -15 13 0 -3 15 -14zm148 54l14 0 -8 7 -6 -7zm-99 114l3 0 -7 6 -3 0 7 -6zm16 33l29 -13 0 -7 -3 0 -26 20zm-24 10l0 3 16 0 1 -3 -17 0zm335 -261c26,0 50,8 73,24l-3 3 0 3 13 21 -6 0 -4 -4 -3 0 10 74 3 0c0,-11 2,-17 7,-17l0 13c0,13 -11,42 -34,87l4 0c-16,22 -39,42 -70,61l-17 3 -4 0c-53,0 -86,-21 -100,-64l-13 -20 3 -3 -3 -23 0 -7c0,-19 18,-51 53,-97l0 3c-16,22 -30,47 -40,74l0 3 3 0c9,-33 39,-74 91,-124l-24 14 -3 0c0,-10 21,-18 64,-24zm-17 57l-3 -3 0 3 3 4 -24 20c-18,0 -36,31 -53,93 0,18 10,34 30,47l3 0c25,0 53,-26 84,-77 11,-24 17,-42 17,-53l0 -27c0,-6 -11,-11 -34,-13l-3 0 -3 3 -4 0 0 -3 -13 6zm97 10l7 0 0 17 -7 0 0 -17zm-171 37l-10 20 4 0 10 -20 -4 0zm131 20l-14 34 10 0 10 -24 -3 -10 -3 0zm23 13l-3 10 0 7 3 0 3 -13 0 -4 -3 0zm-197 14l0 27 3 0 0 -27 -3 0zm157 10l-13 17 3 0 13 -17 -3 0zm-107 73l0 4 17 10 0 -3 -17 -11zm290 -231c-1,6 3,10 12,10l6 13 -3 3 3 0c-16,48 -25,102 -29,164l-1 20 3 4 0 3 -4 3 4 0 -4 4 2 23 0 7c-12,14 -18,25 -19,33l-13 0 -16 -7 4 -23 -13 -13 7 -50 3 -61 7 -10 1 -13 -3 -3 0 -4 7 0 0 -3 -3 -3 13 -64 -3 0 4 -3 1 -20 -4 -4 1 -3 37 -3zm-37 60l-1 23 3 0 1 -23 -3 0zm-5 33l-2 20 4 0 1 -20 -3 0zm-5 30l-1 20 3 0 1 -20 -3 0zm-1 134l-1 17 7 -7 1 -10 -7 0zm169 -257l24 20c0,-7 2,-10 6,-10l4 0 46 120 0 7 -3 0 -7 -20 -3 0 0 7 23 56 4 0c9,-57 22,-118 38,-181l10 7 10 -4 20 10 0 4c-6,0 -10,4 -10,13l4 0 3 3 3 0 4 -16 6 0 0 3 -3 3 3 4 0 3c-16,52 -31,126 -45,222l-6 0 6 -54c-4,0 -11,21 -20,64 -8,6 -16,10 -23,10l0 7 -4 0c0,-5 -4,-7 -13,-7l0 -24c0,-10 -22,-65 -67,-167l-3 0c-9,40 -17,93 -24,161l-3 -4c-13,4 -20,10 -20,17l-7 0c-4,-8 -6,-23 -6,-43l-4 0 0 30 -6 0 -4 -17c0,-61 14,-134 40,-221l27 -3zm-47 84l0 3 4 3 -4 4 0 6 4 0 3 -13 -3 -3 -4 0zm127 53c6,0 11,9 14,27l0 3 -4 0 -10 -30zm282 -133l3 3 3 0 0 -3c37,9 55,23 53,40l4 20 -7 0c1,-9 0,-13 -5,-13l-3 0 2 16 -1 4 -7 0c-4,0 -6,-4 -5,-10l-4 3 -3 0c-11,-9 -22,-13 -32,-13 -23,0 -49,23 -78,70l-11 37c-3,29 9,51 37,63l-1 7 -7 0 0 3 7 0c16,0 39,-20 70,-60l0 -3 -3 0c-18,21 -34,37 -49,47l-3 0 41 -44 -23 0c0,-4 -3,-7 -9,-7l-3 -3 0 -3c1,-5 12,-8 35,-10l0 -7 -3 3 -20 0 -18 -23 4 -3 0 -4 37 4 87 -10 1 -4c-11,0 -17,-2 -16,-7l3 0 3 4 4 -4 3 0c24,7 36,13 35,17l0 4 -4 3 0 3 13 0 -1 7 -3 0 -54 7 0 3 3 0 30 -3 0 6c-23,0 -35,9 -37,27l-16 54 3 3 0 3 -5 17 0 27 -7 6 3 4c-9,3 -14,8 -15,16l-10 0c-5,0 -6,-10 -4,-30l-3 0 -3 24 -10 0 2 -17 -1 -23 -6 0c-13,9 -26,13 -39,13l-16 0 -6 -7 0 -3 7 0 0 -3c-46,0 -71,-16 -75,-47 -3,-15 -4,-29 -4,-43 0,-9 1,-18 2,-27l0 -7c2,-17 10,-39 24,-67l4 0 -1 7 -13 23 0 3 3 0c3,-20 24,-45 65,-76l4 0 0 -4 -3 0 -11 4c7,-12 28,-17 63,-17zm-69 20l3 0 -26 23 0 -3 23 -20zm49 7l-1 3 24 0 0 -3 -23 0zm-72 16l-1 4 -14 13 0 -3 15 -14zm148 54l13 0 -7 7 -6 -7zm-100 114l4 0 -7 6 -4 0 7 -6zm17 33l28 -13 1 -7 -3 0 -26 20zm-25 10l0 3 17 0 0 -3 -17 0zm433 -270l16 5 0 4 -16 -2 0 -7zm-64 0l10 8 30 -4 3 4 4 1 10 -3c37,4 64,23 81,56 4,1 6,7 5,18l-3 23 -6 -1 0 -3 5 -10 -3 -3 3 -3 -3 -4 -6 -1c-2,13 -14,26 -38,40l-1 3 4 0c8,1 20,-3 35,-12l-1 6 -19 18c12,2 30,21 54,60 -2,24 -39,50 -109,75 -30,15 -53,21 -69,20l-6 -8 -4 0c0,7 -5,9 -14,8 -1,6 -3,10 -7,10l-1 0c-4,-1 -6,-9 -4,-24l-3 -1 -5 17 -4 -1c3,-22 1,-33 -6,-34l-2 -14 4 -3 -3 -3 32 -142 -3 -3 4 0 -3 -3 8 -50 1 -3 -4 -24 3 0c12,-7 22,-10 29,-10 1,0 2,0 2,0zm80 42l-1 4 27 6c0,-4 -3,-7 -9,-8l-17 -2zm-64 34l0 23 31 -3 -1 7 50 -22 -1 4 -25 17c28,-8 43,-21 45,-39l-7 -1c-1,11 -5,16 -12,16l1 -7 -4 0 5 -10 3 4 3 0 1 -3c-9,-8 -21,-12 -39,-14 -31,-4 -48,5 -50,28zm77 -5l0 3 -7 6 -4 0 11 -9zm-15 79l0 3 33 7 3 0 0 -3 -13 -5 -23 -2zm-75 12l-10 59 3 4 3 0c16,2 52,-12 109,-42l7 -5c0,-9 -8,-15 -25,-17l-26 -3 -61 4zm120 13l-9 13 15 -9 -3 -4 -3 0zm21 16c0,7 -22,23 -66,50 50,-20 75,-35 76,-46l-4 0 -2 -4 -4 0zm240 -181l16 12c-5,19 -13,29 -26,28l-87 4 0 7 16 1 20 -2 4 4 3 0 24 -2 6 0 0 4 -78 8 -6 43 4 0 90 -7 3 4 0 3 -6 -1 0 4 23 5 -1 3c-4,13 -37,23 -96,31l-33 1 3 3 -16 43 -4 0 2 -31 -3 0 -7 47c67,-9 114,-13 142,-11l16 5 0 6 -7 0 3 3 0 10c-7,9 -20,12 -41,11l0 3 26 2 0 7 -156 23 -3 -1c-11,-2 -16,-5 -16,-10l0 -1 0 -10 10 -36 -4 -3 7 0 -1 17 3 0c2,-11 4,-17 8,-16l-3 -4 2 -33 -6 -1 -5 17 4 -3 3 0 -1 20 -4 0 1 -10 -3 0 -1 6 -3 0 0 -7 11 -56 -3 0 7 -16 -3 -4 0 -3 8 -57 3 4 3 0 1 -7 -3 -17 6 -30 0 -10 4 1 3 3 3 -3 4 1 3 3 3 -3 10 1 118 -3zm-168 146l-1 24 3 0 2 -23 -4 -1zm111 5l3 0 0 3 -61 6 -3 -3 0 -4 30 -1 0 3 31 -4zm270 -159l3 0 0 7 4 -4 3 0c16,6 24,10 24,14l-17 20 7 0c8,-5 13,-10 13,-17l10 0 0 3 -3 4 3 3 0 3c-79,86 -118,154 -116,204l-7 33 4 4 0 3 -17 30 -27 -3 0 -27 -10 -13 0 -7 3 -40 4 3 3 0 -3 -3 0 -3 3 -4 0 -3 -3 -3 10 -4 -4 17 0 13 4 0 4 -40 -4 -10 -3 0 0 10 -3 0 -4 -27 4 -3 0 -3 -46 -118 0 -6 6 0 -6 -17 3 -4 7 0c5,0 8,6 10,17l10 -6 10 0c0,13 12,42 36,87 13,-25 24,-39 33,-44l0 4c-22,28 -33,45 -33,50l0 3 3 0 79 -106 0 -4 -39 40 0 -3 42 -50zm-42 53l0 3 -6 7 0 -3 6 -7zm45 -3c-48,62 -72,97 -72,107l7 0c19,-37 42,-73 69,-107l-4 0zm-109 234l0 13 3 0 0 -13 -3 0zm324 -277c26,0 50,8 73,24l-3 3 0 3 13 21 -6 0 -4 -4 -3 0 10 74 3 0c0,-11 3,-17 7,-17l0 13c0,13 -11,42 -33,87l3 0c-16,22 -39,42 -70,61l-17 3 -3 0c-53,0 -87,-21 -101,-64l-13 -20 3 -3 -3 -23 0 -7c0,-19 18,-51 53,-97l0 3c-16,22 -29,47 -40,74l0 3 4 0c8,-33 38,-74 90,-124l-23 14 -4 0c0,-10 21,-18 64,-24zm-17 57l-3 -3 0 3 3 4 -23 20c-19,0 -37,31 -54,93 0,18 10,34 30,47l4 0c24,0 52,-26 83,-77 11,-24 17,-42 17,-53l0 -27c0,-6 -11,-11 -34,-13l-3 0 -3 3 -4 0 0 -3 -13 6zm97 10l7 0 0 17 -7 0 0 -17zm-171 37l-10 20 4 0 10 -20 -4 0zm131 20l-14 34 10 0 11 -24 -4 -10 -3 0zm23 13l-3 10 0 7 3 0 4 -13 0 -4 -4 0zm-197 14l0 27 3 0 0 -27 -3 0zm157 10l-13 17 3 0 13 -17 -3 0zm-107 73l0 4 17 10 0 -3 -17 -11zm282 -231l24 20c0,-7 2,-10 6,-10l4 0 46 120 0 7 -3 0 -7 -20 -3 0 0 7 23 56 4 0c9,-57 22,-118 38,-181l10 7 10 -4 21 10 0 4c-7,0 -10,4 -10,13l3 0 3 3 4 0 3 -16 7 0 0 3 -4 3 4 4 0 3c-17,52 -32,126 -46,222l-6 0 6 -54c-4,0 -11,21 -20,64 -8,6 -16,10 -23,10l0 7 -4 0c0,-5 -4,-7 -13,-7l0 -24c0,-10 -22,-65 -67,-167l-3 0c-9,40 -17,93 -23,161l-4 -4c-13,4 -20,10 -20,17l-7 0c-4,-8 -6,-23 -6,-43l-4 0 0 30 -6 0 -4 -17c0,-61 14,-134 40,-221l27 -3zm-47 84l0 3 4 3 -4 4 0 6 4 0 3 -13 -3 -3 -4 0zm127 53c6,0 11,9 14,27l0 3 -4 0 -10 -30zm188 -140l14 0 10 7 23 -3c39,0 75,22 107,67l17 33 -3 3 3 17 0 17c0,57 -47,101 -140,130l-34 4c0,-6 -4,-9 -13,-10l0 13 -10 0 0 -20 -4 -3 4 -4 0 -3c-14,-9 -20,-17 -20,-24 6,-101 17,-174 33,-220l3 0 4 3 6 -7zm-13 34l-17 97 0 3 4 0 16 -93 0 -7 -3 0zm54 23c0,5 -5,7 -14,7 -9,41 -15,87 -20,140 13,0 46,-11 100,-33l0 -3 -6 0c18,-19 26,-38 26,-57l0 -10c0,-25 -16,-39 -50,-44l-36 0zm66 0l0 4 14 6 0 -3 -10 -7 -4 0zm30 47l-3 40 7 0 0 -10 3 -13 -3 -17 -4 0zm24 27l-17 53 0 4 4 0 16 -51 0 -6 -3 0zm-34 23l-6 14 3 0 7 -14 -4 0zm-20 60c6,0 13,-7 24,-20l0 -3 -24 23zm-76 20l0 4 13 0 17 -7 0 -3 -4 0 -26 6zm-27 4l3 10 7 0 6 -7 0 -3 -3 0 -10 3 -3 -3zm-37 20l3 0 0 3 -6 7 -4 0 0 -3 7 -7z"/>
 </g>
</svg>
