<svg id="_Layer_1" data-name="#Layer 1" xmlns="http://www.w3.org/2000/svg" xmlns:xlink="http://www.w3.org/1999/xlink" viewBox="0 0 29.36 24.08"><defs><style>.cls-1{fill:url(#GradientFill_1);}.cls-2{fill:url(#GradientFill_1-2);}.cls-3{fill:url(#GradientFill_1-3);}.cls-4{fill:url(#GradientFill_1-4);}</style><linearGradient id="GradientFill_1" x1="606.44" y1="534.53" x2="620.2" y2="534.53" gradientUnits="userSpaceOnUse"><stop offset="0" stop-color="#fff33b"/><stop offset="0.15" stop-color="#ffc709"/><stop offset="0.28" stop-color="#ffc709"/><stop offset="0.66" stop-color="#f49040"/><stop offset="0.88" stop-color="#ed693c"/><stop offset="1" stop-color="#ea3e3a"/></linearGradient><linearGradient id="GradientFill_1-2" x1="610.74" y1="534.53" x2="615.9" y2="534.53" xlink:href="#GradientFill_1"/><linearGradient id="GradientFill_1-3" x1="606.76" y1="529.37" x2="635.8" y2="529.37" xlink:href="#GradientFill_1"/><linearGradient id="GradientFill_1-4" x1="629.78" y1="536.25" x2="631.5" y2="536.25" xlink:href="#GradientFill_1"/></defs><title>agriculture</title><path class="cls-1" d="M613.32,527.65a6.88,6.88,0,1,0,6.88,6.88,6.89,6.89,0,0,0-6.88-6.88h0Zm0,12a5.16,5.16,0,1,1,5.16-5.16,5.17,5.17,0,0,1-5.16,5.16h0Zm0,0" transform="translate(-606.44 -517.33)"/><path class="cls-2" d="M613.32,532a2.58,2.58,0,1,0,2.58,2.58,2.58,2.58,0,0,0-2.58-2.58h0Zm0,3.44a0.86,0.86,0,1,1,.86-0.86,0.86,0.86,0,0,1-.86.86h0Zm0,0" transform="translate(-606.44 -517.33)"/><path class="cls-3" d="M634.08,532.41v-3a3.44,3.44,0,0,0-3.44-3.44h-1.72v-4.3a0.86,0.86,0,0,1,.86-0.86v-1.72a2.58,2.58,0,0,0-2.58,2.58v4.3h-3.77l-2.06-6.88h1.42v-1.72H609v1.72h1.72v5.49a10.32,10.32,0,0,0-4,2l1.1,1.33a8.6,8.6,0,0,1,14.07,6.63v2.58h3.63a5.16,5.16,0,1,0,8.53-4.7h0Zm-21.62-8.16v-5.2h7.1l2.06,6.88H619a10.26,10.26,0,0,0-5.7-1.72q-0.43,0-.86,0h0Zm8.55,3.4h9.63a1.72,1.72,0,0,1,1.72,1.72v2a5.14,5.14,0,0,0-1.72-.3h-7.59a10.33,10.33,0,0,0-2-3.44h0Zm2.49,5.16h3.3a5.14,5.14,0,0,0-1.25,2.58h-1.91v-0.86a10.32,10.32,0,0,0-.14-1.72h0Zm7.14,6.88a3.44,3.44,0,1,1,3.44-3.44,3.44,3.44,0,0,1-3.44,3.44h0Zm0,0" transform="translate(-606.44 -517.33)"/><path class="cls-4" d="M631.5,536.25a0.86,0.86,0,1,1-.86-0.86,0.86,0.86,0,0,1,.86.86h0Zm0,0" transform="translate(-606.44 -517.33)"/></svg>