<svg id="_Layer_1" data-name="#Layer 1" xmlns="http://www.w3.org/2000/svg" xmlns:xlink="http://www.w3.org/1999/xlink" viewBox="0 0 24 24"><defs><style>.cls-1,.cls-10,.cls-11,.cls-12,.cls-13,.cls-14,.cls-15,.cls-16,.cls-17,.cls-18,.cls-19,.cls-2,.cls-20,.cls-3,.cls-4,.cls-5,.cls-6,.cls-7,.cls-8,.cls-9{fill-rule:evenodd;}.cls-1{fill:url(#GradientFill_1);}.cls-2{fill:url(#GradientFill_1-2);}.cls-3{fill:url(#GradientFill_1-3);}.cls-4{fill:url(#GradientFill_1-4);}.cls-5{fill:url(#GradientFill_1-5);}.cls-6{fill:url(#GradientFill_1-6);}.cls-7{fill:url(#GradientFill_1-7);}.cls-8{fill:url(#GradientFill_1-8);}.cls-9{fill:url(#GradientFill_1-9);}.cls-10{fill:url(#GradientFill_1-10);}.cls-11{fill:url(#GradientFill_1-11);}.cls-12{fill:url(#GradientFill_1-12);}.cls-13{fill:url(#GradientFill_1-13);}.cls-14{fill:url(#GradientFill_1-14);}.cls-15{fill:url(#GradientFill_1-15);}.cls-16{fill:url(#GradientFill_1-16);}.cls-17{fill:url(#GradientFill_1-17);}.cls-18{fill:url(#GradientFill_1-18);}.cls-19{fill:url(#GradientFill_1-19);}.cls-20{fill:url(#GradientFill_1-20);}</style><linearGradient id="GradientFill_1" x1="426.08" y1="531.54" x2="450.08" y2="531.54" gradientUnits="userSpaceOnUse"><stop offset="0" stop-color="#fff33b"/><stop offset="0.15" stop-color="#ffc709"/><stop offset="0.28" stop-color="#ffc709"/><stop offset="0.66" stop-color="#f49040"/><stop offset="0.88" stop-color="#ed693c"/><stop offset="1" stop-color="#ea3e3a"/></linearGradient><linearGradient id="GradientFill_1-2" x1="434.88" y1="521.94" x2="435.68" y2="521.94" xlink:href="#GradientFill_1"/><linearGradient id="GradientFill_1-3" x1="447.68" y1="521.94" x2="448.48" y2="521.94" xlink:href="#GradientFill_1"/><linearGradient id="GradientFill_1-4" x1="447.68" y1="524.34" x2="448.48" y2="524.34" xlink:href="#GradientFill_1"/><linearGradient id="GradientFill_1-5" x1="447.68" y1="526.74" x2="448.48" y2="526.74" xlink:href="#GradientFill_1"/><linearGradient id="GradientFill_1-6" x1="434.88" y1="531.54" x2="435.68" y2="531.54" xlink:href="#GradientFill_1"/><linearGradient id="GradientFill_1-7" x1="447.68" y1="531.54" x2="448.48" y2="531.54" xlink:href="#GradientFill_1"/><linearGradient id="GradientFill_1-8" x1="434.88" y1="533.94" x2="435.68" y2="533.94" xlink:href="#GradientFill_1"/><linearGradient id="GradientFill_1-9" x1="447.68" y1="533.94" x2="448.48" y2="533.94" xlink:href="#GradientFill_1"/><linearGradient id="GradientFill_1-10" x1="434.88" y1="536.34" x2="435.68" y2="536.34" xlink:href="#GradientFill_1"/><linearGradient id="GradientFill_1-11" x1="447.68" y1="536.34" x2="448.48" y2="536.34" xlink:href="#GradientFill_1"/><linearGradient id="GradientFill_1-12" x1="427.68" y1="523.94" x2="430.08" y2="523.94" xlink:href="#GradientFill_1"/><linearGradient id="GradientFill_1-13" x1="427.68" y1="533.94" x2="430.08" y2="533.94" xlink:href="#GradientFill_1"/><linearGradient id="GradientFill_1-14" x1="435.28" y1="529.14" x2="448.08" y2="529.14" xlink:href="#GradientFill_1"/><linearGradient id="GradientFill_1-15" x1="432.88" y1="539.94" x2="438.48" y2="539.94" xlink:href="#GradientFill_1"/><linearGradient id="GradientFill_1-16" x1="439.28" y1="539.94" x2="440.88" y2="539.94" xlink:href="#GradientFill_1"/><linearGradient id="GradientFill_1-17" x1="436.48" y1="533.94" x2="446.88" y2="533.94" xlink:href="#GradientFill_1"/><linearGradient id="GradientFill_1-18" x1="436.88" y1="524.34" x2="446.88" y2="524.34" xlink:href="#GradientFill_1"/><linearGradient id="GradientFill_1-19" x1="438.48" y1="533.14" x2="440.48" y2="533.14" xlink:href="#GradientFill_1"/><linearGradient id="GradientFill_1-20" x1="438.88" y1="533.94" x2="443.28" y2="533.94" xlink:href="#GradientFill_1"/></defs><title>animation</title><path class="cls-1" d="M448.48,519.54h-13.6a1.6,1.6,0,0,0-1.6,1.6v4.44l-1.1,1.1-1.06-1.06a2.8,2.8,0,1,0-4.22.3l0,0,3,3-3,3,0,0a2.8,2.8,0,1,0,4,0l1-1,1.38,1.38V538a2.8,2.8,0,0,0,.4,5.57h13.6a2.8,2.8,0,0,0,2.8-2.8v-19.6a1.6,1.6,0,0,0-1.6-1.6h0Zm-21,3h0a2,2,0,0,1,2.83,2.83h0a2,2,0,0,1-2.81,0h0a2,2,0,0,1,0-2.83h0Zm1.39,4.21h0a2.78,2.78,0,0,0,1.67-.56l1.06,1.06-1.13,1.13-1.64-1.63h0Zm2,7.2h0a2,2,0,1,1-3.42-1.41h0a2,2,0,0,1,3.4,1.42h0Zm-2-2.8h0l1.92-1.92,1.7-1.7h0l4.87-4.86a1.2,1.2,0,0,1,0,1.7l-4,4h0l-1.7,1.7h0l-1.4,1.4a2.79,2.79,0,0,0-1.33-.34h0Zm3.59-.79h0l0.81-.81v1.63l-0.81-.82h0Zm1.21,12.39h0a2,2,0,1,1,0-4h11.64a2.79,2.79,0,0,0,0,4H433.68Zm13.6,0h0a2,2,0,0,1,0-4,0.4,0.4,0,0,0,0-.8h-13.2v-9.2l3.82-3.82a2,2,0,0,0,0-2.83,0.81,0.81,0,0,0-1.13,0l-2.69,2.69v-3.64a0.8,0.8,0,0,1,.8-0.8h13.6a0.8,0.8,0,0,1,.8.8v19.6A2,2,0,0,1,447.28,542.74Z" transform="translate(-426.08 -519.54)"/><path class="cls-2" d="M435.28,521.14a0.4,0.4,0,0,0-.4.4v0.8a0.4,0.4,0,1,0,.8,0v-0.8A0.4,0.4,0,0,0,435.28,521.14Z" transform="translate(-426.08 -519.54)"/><path class="cls-3" d="M448.08,521.14a0.4,0.4,0,0,0-.4.4v0.8a0.4,0.4,0,1,0,.8,0v-0.8A0.4,0.4,0,0,0,448.08,521.14Z" transform="translate(-426.08 -519.54)"/><path class="cls-4" d="M448.08,523.54a0.4,0.4,0,0,0-.4.4v0.8a0.4,0.4,0,1,0,.8,0v-0.8A0.4,0.4,0,0,0,448.08,523.54Z" transform="translate(-426.08 -519.54)"/><path class="cls-5" d="M448.08,525.94a0.4,0.4,0,0,0-.4.4v0.8a0.4,0.4,0,1,0,.8,0v-0.8A0.4,0.4,0,0,0,448.08,525.94Z" transform="translate(-426.08 -519.54)"/><path class="cls-6" d="M435.28,530.74a0.4,0.4,0,0,0-.4.4v0.8a0.4,0.4,0,1,0,.8,0v-0.8A0.4,0.4,0,0,0,435.28,530.74Z" transform="translate(-426.08 -519.54)"/><path class="cls-7" d="M448.08,530.74a0.4,0.4,0,0,0-.4.4v0.8a0.4,0.4,0,1,0,.8,0v-0.8A0.4,0.4,0,0,0,448.08,530.74Z" transform="translate(-426.08 -519.54)"/><path class="cls-8" d="M435.28,533.14a0.4,0.4,0,0,0-.4.4v0.8a0.4,0.4,0,1,0,.8,0v-0.8A0.4,0.4,0,0,0,435.28,533.14Z" transform="translate(-426.08 -519.54)"/><path class="cls-9" d="M448.08,533.14a0.4,0.4,0,0,0-.4.4v0.8a0.4,0.4,0,1,0,.8,0v-0.8A0.4,0.4,0,0,0,448.08,533.14Z" transform="translate(-426.08 -519.54)"/><path class="cls-10" d="M435.28,535.54a0.4,0.4,0,0,0-.4.4v0.8a0.4,0.4,0,1,0,.8,0v-0.8A0.4,0.4,0,0,0,435.28,535.54Z" transform="translate(-426.08 -519.54)"/><path class="cls-11" d="M448.08,535.54a0.4,0.4,0,0,0-.4.4v0.8a0.4,0.4,0,1,0,.8,0v-0.8A0.4,0.4,0,0,0,448.08,535.54Z" transform="translate(-426.08 -519.54)"/><path class="cls-12" d="M428.88,525.14a1.2,1.2,0,1,0-1.2-1.2,1.2,1.2,0,0,0,1.2,1.2h0Zm0-1.6h0a0.4,0.4,0,1,1-.4.4A0.4,0.4,0,0,1,428.88,523.54Z" transform="translate(-426.08 -519.54)"/><path class="cls-13" d="M428.88,532.74a1.2,1.2,0,1,0,1.2,1.2,1.2,1.2,0,0,0-1.2-1.2h0Zm0,1.6h0a0.4,0.4,0,1,1,.4-0.4A0.4,0.4,0,0,1,428.88,534.34Z" transform="translate(-426.08 -519.54)"/><path class="cls-14" d="M448.08,529.14a0.4,0.4,0,0,0-.4-0.4h-12a0.4,0.4,0,0,0,0,.8h12A0.4,0.4,0,0,0,448.08,529.14Z" transform="translate(-426.08 -519.54)"/><path class="cls-15" d="M438.08,539.54h-4.8a0.4,0.4,0,1,0,0,.8h4.8A0.4,0.4,0,0,0,438.08,539.54Z" transform="translate(-426.08 -519.54)"/><path class="cls-16" d="M440.48,539.54h-0.8a0.4,0.4,0,0,0,0,.8h0.8A0.4,0.4,0,0,0,440.48,539.54Z" transform="translate(-426.08 -519.54)"/><path class="cls-17" d="M446.08,530.74h-8.8a0.8,0.8,0,0,0-.8.8v4.8a0.8,0.8,0,0,0,.8.8h8.8a0.8,0.8,0,0,0,.8-0.8v-4.8a0.8,0.8,0,0,0-.8-0.8h0Zm-8.8,5.6h0v-4.8h8.8v4.8h-8.8Z" transform="translate(-426.08 -519.54)"/><path class="cls-18" d="M437.28,527.54h8.8a0.8,0.8,0,0,0,.8-0.8v-4.8a0.8,0.8,0,0,0-.8-0.8h-7.2a0.4,0.4,0,0,0,0,.8h7.2v4.8h-8.8A0.4,0.4,0,1,0,437.28,527.54Z" transform="translate(-426.08 -519.54)"/><path class="cls-19" d="M440.3,533.07a0.4,0.4,0,0,0-.44-0.67l-1.2.8a0.4,0.4,0,1,0,.44.67Z" transform="translate(-426.08 -519.54)"/><path class="cls-20" d="M442.66,532.4l-3.6,2.4a0.4,0.4,0,1,0,.44.67l3.6-2.4A0.4,0.4,0,1,0,442.66,532.4Z" transform="translate(-426.08 -519.54)"/></svg>