<svg id="_Layer_1" data-name="#Layer 1" xmlns="http://www.w3.org/2000/svg" xmlns:xlink="http://www.w3.org/1999/xlink" viewBox="0 0 24 24"><defs><style>.cls-1,.cls-2,.cls-3,.cls-4,.cls-5,.cls-6,.cls-7{fill-rule:evenodd;}.cls-1{fill:url(#GradientFill_1);}.cls-2{fill:url(#GradientFill_1-2);}.cls-3{fill:url(#GradientFill_1-3);}.cls-4{fill:url(#GradientFill_1-4);}.cls-5{fill:url(#GradientFill_1-5);}.cls-6{fill:url(#GradientFill_1-6);}.cls-7{fill:url(#GradientFill_1-7);}</style><linearGradient id="GradientFill_1" x1="310.26" y1="238.79" x2="311.2" y2="238.79" gradientUnits="userSpaceOnUse"><stop offset="0" stop-color="#fff33b"/><stop offset="0.15" stop-color="#ffc709"/><stop offset="0.28" stop-color="#ffc709"/><stop offset="0.66" stop-color="#f49040"/><stop offset="0.88" stop-color="#ed693c"/><stop offset="1" stop-color="#ea3e3a"/></linearGradient><linearGradient id="GradientFill_1-2" x1="296.29" y1="247.37" x2="300.98" y2="247.37" xlink:href="#GradientFill_1"/><linearGradient id="GradientFill_1-3" x1="303.28" y1="248.7" x2="317.48" y2="248.7" xlink:href="#GradientFill_1"/><linearGradient id="GradientFill_1-4" x1="308.93" y1="250.36" x2="315.13" y2="250.36" xlink:href="#GradientFill_1"/><linearGradient id="GradientFill_1-5" x1="293.48" y1="243.8" x2="315.32" y2="243.8" xlink:href="#GradientFill_1"/><linearGradient id="GradientFill_1-6" x1="308.46" y1="247.08" x2="309.4" y2="247.08" xlink:href="#GradientFill_1"/><linearGradient id="GradientFill_1-7" x1="302.43" y1="240.66" x2="305.99" y2="240.66" xlink:href="#GradientFill_1"/></defs><title>architecture</title><path class="cls-1" d="M310.73,239.26a0.47,0.47,0,1,0-.33-0.14A0.47,0.47,0,0,0,310.73,239.26Z" transform="translate(-293.48 -231.8)"/><path class="cls-2" d="M300.51,245h-3.75a0.47,0.47,0,0,0-.47.47v3.75a0.47,0.47,0,0,0,.47.47h3.75a0.47,0.47,0,0,0,.47-0.47v-3.75a0.47,0.47,0,0,0-.47-0.47h0ZM300,248.77h-2.81V246H300v2.81Z" transform="translate(-293.48 -231.8)"/><path class="cls-3" d="M317.19,241.64a0.47,0.47,0,0,0-.51.1l-4.78,4.78h0l-5.57,5.57h0L303.41,255a0.47,0.47,0,0,0,.33.8H317a0.47,0.47,0,0,0,.47-0.47V242.07a0.47,0.47,0,0,0-.29-0.43h0Zm-0.65,13.23H304.88l1.79-1.79,0.45,0.45a0.47,0.47,0,0,0,.66-0.66l-0.45-.45,1.19-1.19,0.45,0.45a0.47,0.47,0,0,0,.66-0.66l-0.45-.45,1.19-1.19,0.45,0.45a0.47,0.47,0,0,0,.66-0.66L311,248.7l1.19-1.19,0.45,0.45a0.47,0.47,0,0,0,.66-0.66l-0.45-.45,1.19-1.19,0.45,0.45a0.47,0.47,0,0,0,.66-0.66l-0.45-.45,1.79-1.79v11.67Z" transform="translate(-293.48 -231.8)"/><path class="cls-4" d="M314.85,247.29a0.47,0.47,0,0,0-.51.1l-5.26,5.26a0.47,0.47,0,0,0,.33.8h5.26a0.47,0.47,0,0,0,.47-0.47v-5.26a0.47,0.47,0,0,0-.29-0.43h0Zm-0.65,5.23h-3.66l3.66-3.66v3.66Z" transform="translate(-293.48 -231.8)"/><path class="cls-5" d="M302.82,253.06a1.9,1.9,0,0,0,1.35-.56l4-4a0.47,0.47,0,1,0-.66-0.66l-3,3-1.37-1.37,8.56-8.56,1.37,1.37-3.27,3.27a0.47,0.47,0,0,0,.66.66l3.59-3.59a0.47,0.47,0,0,0,.11-0.17l1.17-3.2a0.47,0.47,0,0,0-.6-0.6l-3.2,1.17a0.47,0.47,0,0,0-.17.11l-0.9.9L304.54,235a0.47,0.47,0,0,0-.66,0l-7.07,7.07h-1.73l9.13-9.13,5,5a0.47,0.47,0,0,0,.66-0.66l-5.34-5.34a0.47,0.47,0,0,0-.66,0l-10.27,10.27a0.47,0.47,0,0,0,.33.8h0.47v12.33a0.47,0.47,0,0,0,.47.47h7.45a0.47,0.47,0,1,0,0-.94h-7V243H297a0.47,0.47,0,0,0,.33-0.14l6.88-6.88,5.55,5.55-7,7v-4.21h3.28a0.47,0.47,0,0,0,0-.94h-3.75a0.47,0.47,0,0,0-.47.47v5.44a0.47,0.47,0,0,0,0,.16l-0.42.42a1.9,1.9,0,0,0,1.35,3.25h0Zm10.68-11.6h0l-1-1,1.55-.57-0.57,1.55h0Zm-11.36,9h0l0.3-.3,1.37,1.37-0.3.29A1,1,0,1,1,302.14,250.48Z" transform="translate(-293.48 -231.8)"/><path class="cls-6" d="M308.6,246.75a0.47,0.47,0,1,0,.33-0.14A0.47,0.47,0,0,0,308.6,246.75Z" transform="translate(-293.48 -231.8)"/><path class="cls-7" d="M306,240.66a1.78,1.78,0,1,0-1.78,1.78,1.78,1.78,0,0,0,1.78-1.78h0Zm-2.62,0h0a0.84,0.84,0,1,1,.84.84A0.84,0.84,0,0,1,303.37,240.66Z" transform="translate(-293.48 -231.8)"/></svg>