<svg id="_Layer_1" data-name="#Layer 1" xmlns="http://www.w3.org/2000/svg" xmlns:xlink="http://www.w3.org/1999/xlink" viewBox="0 0 24 24"><defs><style>.cls-1{fill-rule:evenodd;fill:url(#GradientFill_1);}</style><linearGradient id="GradientFill_1" x1="293.48" y1="160" x2="317.48" y2="160" gradientUnits="userSpaceOnUse"><stop offset="0" stop-color="#fff33b"/><stop offset="0.15" stop-color="#ffc709"/><stop offset="0.28" stop-color="#ffc709"/><stop offset="0.66" stop-color="#f49040"/><stop offset="0.88" stop-color="#ed693c"/><stop offset="1" stop-color="#ea3e3a"/></linearGradient></defs><title>art&amp;amp;humanities</title><path class="cls-1" d="M308.29,163.19a1.55,1.55,0,0,1,0,2.19l-0.55-.55a0.77,0.77,0,0,0,0-1.09,0.79,0.79,0,0,0-1.09,0l-0.55-.55a1.55,1.55,0,0,1,2.19,0h0Zm-12.81,1.87h0a1.55,1.55,0,0,0,0,2.19l0.55-.55a0.77,0.77,0,0,1,0-1.09,0.79,0.79,0,0,1,1.09,0l0.55-.55a1.58,1.58,0,0,0-2.19,0h0Zm6.58,0.77h0a1.55,1.55,0,0,0,0,2.19l0.55-.55a0.77,0.77,0,0,1,0-1.09,0.79,0.79,0,0,1,1.09,0l0.55-.55a1.58,1.58,0,0,0-2.19,0h0Zm0.77-5h0a1.55,1.55,0,0,0,0,2.19l0.55-.55a0.77,0.77,0,0,1,0-1.09,0.79,0.79,0,0,1,1.09,0l0.55-.55a1.58,1.58,0,0,0-2.19,0h0Zm4.35-1.82h0a0.77,0.77,0,0,1,0,1.09l0.55,0.55a1.55,1.55,0,0,0,0-2.19,1.58,1.58,0,0,0-2.19,0l0.55,0.55a0.79,0.79,0,0,1,1.09,0h0Zm6.1,5.65h0l0.55,0.55a0.79,0.79,0,0,1,1.09,0,0.77,0.77,0,0,1,0,1.09l0.55,0.55a1.55,1.55,0,0,0,0-2.19,1.58,1.58,0,0,0-2.19,0h0Zm-13.7-10.9h0a2.93,2.93,0,0,0-.27.37,1.15,1.15,0,0,1-.45,1.93,1.93,1.93,0,0,1-3.81,0,1.15,1.15,0,0,1-.46-1.93,3.13,3.13,0,0,0-.28-0.38,3.48,3.48,0,1,1,5.27,0h0Zm-1.54,2.36h-2.18a1.15,1.15,0,0,0,2.18,0h0ZM298.9,155h0a0.39,0.39,0,0,0-.39-0.39h-3.1a0.39,0.39,0,0,0,0,.77h3.1a0.39,0.39,0,0,0,.39-0.39h0Zm-1.94-3.1h0a0.39,0.39,0,1,0-.39-0.39,0.39,0.39,0,0,0,.39.39h0Zm1.65,1.95h0a3.72,3.72,0,0,1,.39-0.56,2.71,2.71,0,0,0-2.35-4.47,2.73,2.73,0,0,0-2.36,2.26,2.69,2.69,0,0,0,.62,2.2,3.94,3.94,0,0,1,.4.57h1.27v-1.23a1.16,1.16,0,1,1,.77,0v1.23h1.26Zm16.93-4.11-0.39.48V148h-5.42v10.49a5,5,0,0,0-8.58.11,4.25,4.25,0,0,0-5.35,3.92,3.48,3.48,0,0,0,1.15,6.77h5a1.16,1.16,0,0,1,.94.49l1,1.43a1.89,1.89,0,0,0,3.08,0l1-1.43a1.16,1.16,0,0,1,.95-0.49h4.9a3.55,3.55,0,0,0,3.58-3.25c0-.08,0-0.15,0-0.23h0V152.12l-1.94-2.42h0Zm0,1.24,0.74,0.93H314.8l0.74-.93h0Zm0.39,4h-0.77v7.56a3.54,3.54,0,0,0-.53-0.14,4.19,4.19,0,0,0-.24-0.67v-9.07h0.77v1.55h0.77v-1.55h0.77v11l-0.17-.2a3.48,3.48,0,0,0-.61-0.51V155h0Zm-5.42-6.19h3.87v2.38l-0.77,1v8.45a4.26,4.26,0,0,0-3.1-1.34v-1.16h1.55v-0.77h-1.55v-0.77h2.32v-0.77h-2.32V155h1.55v-0.77h-1.55v-0.77h2.32v-0.77h-2.32v-0.77h1.55V151.1h-1.55v-0.77h2.32v-0.77h-2.32v-0.77h0ZM316,164h0a2.68,2.68,0,0,0-2-.86,2.71,2.71,0,0,0-2.71,2.71h-0.77a3.49,3.49,0,0,1,3.29-3.47,3.45,3.45,0,0,0-3.86-2.28l-0.32.05-0.11-.31a4.26,4.26,0,1,0-7.91,3.12l-0.71.32a5,5,0,0,1-.09-3.92,3.47,3.47,0,0,0-4.21,3,3.48,3.48,0,0,1,3.85,3.46h-0.77a2.7,2.7,0,0,0-1-2.09,2.74,2.74,0,0,0-2.27-.56,2.69,2.69,0,0,0-2.11,2.11,2.73,2.73,0,0,0,.56,2.27,2.7,2.7,0,0,0,2.09,1h5a1.94,1.94,0,0,1,1.57.81l1,1.43a1.12,1.12,0,0,0,1.82,0l1-1.43a1.94,1.94,0,0,1,1.57-.81h4.9A2.77,2.77,0,0,0,316.7,166,2.69,2.69,0,0,0,316,164Z" transform="translate(-293.48 -148)"/></svg>