<svg id="_Layer_1" data-name="#Layer 1" xmlns="http://www.w3.org/2000/svg" xmlns:xlink="http://www.w3.org/1999/xlink" viewBox="0 0 24 20.24"><defs><style>.cls-1,.cls-2,.cls-3,.cls-4{fill-rule:evenodd;}.cls-1{fill:url(#GradientFill_1);}.cls-2{fill:url(#GradientFill_1-2);}.cls-3{fill:url(#GradientFill_1-3);}.cls-4{fill:url(#GradientFill_1-4);}</style><linearGradient id="GradientFill_1" x1="579.48" y1="440.26" x2="603.48" y2="440.26" gradientUnits="userSpaceOnUse"><stop offset="0" stop-color="#fff33b"/><stop offset="0.15" stop-color="#ffc709"/><stop offset="0.28" stop-color="#ffc709"/><stop offset="0.66" stop-color="#f49040"/><stop offset="0.88" stop-color="#ed693c"/><stop offset="1" stop-color="#ea3e3a"/></linearGradient><linearGradient id="GradientFill_1-2" x1="580.98" y1="438.76" x2="599.72" y2="438.76" xlink:href="#GradientFill_1"/><linearGradient id="GradientFill_1-3" x1="583.24" y1="438.76" x2="601.98" y2="438.76" xlink:href="#GradientFill_1"/><linearGradient id="GradientFill_1-4" x1="585.87" y1="438.76" x2="596.34" y2="438.76" xlink:href="#GradientFill_1"/></defs><title>commerce &amp;amp; banking</title><path class="cls-1" d="M602,430.14H581a1.48,1.48,0,0,0-1.48,1.48V445.9a1.48,1.48,0,0,0,1.48,1.48h7.12l-0.29,2.3h-1.19a0.35,0.35,0,0,0,0,.7h9.77a0.35,0.35,0,0,0,0-.7h-1.19l-0.29-2.3H602a1.48,1.48,0,0,0,1.48-1.48V431.62a1.48,1.48,0,0,0-1.48-1.48h0Zm-7.54,19.54h-6l0.29-2.3h1.29l0.13,0.51a1.31,1.31,0,0,0,2.55,0l0.13-.51h1.29l0.29,2.3h0Zm-3.66-2.3h1.35l-0.08.34a0.61,0.61,0,0,1-1.19,0l-0.08-.34h0Zm12-1.48h0a0.78,0.78,0,0,1-.78.78H581a0.78,0.78,0,0,1-.78-0.78V431.62a0.78,0.78,0,0,1,.78-0.78h21a0.78,0.78,0,0,1,.78.78V445.9h0Z" transform="translate(-579.48 -430.14)"/><path class="cls-2" d="M582.09,445.17h-0.4V432.34h17.68a0.35,0.35,0,1,0,0-.7h-18a0.35,0.35,0,0,0-.35.35v13.53a0.35,0.35,0,0,0,.35.35h0.75A0.35,0.35,0,0,0,582.09,445.17Z" transform="translate(-579.48 -430.14)"/><path class="cls-3" d="M601.62,431.64h-0.75a0.35,0.35,0,1,0,0,.7h0.4v12.82H583.59a0.35,0.35,0,0,0,0,.7h18a0.35,0.35,0,0,0,.35-0.35V432A0.35,0.35,0,0,0,601.62,431.64Z" transform="translate(-579.48 -430.14)"/><path class="cls-4" d="M589.12,440.51a1.1,1.1,0,0,0,.27,0h0.13l4.94-.58a1.48,1.48,0,0,0,1.28-1.18l0.59-3a0.35,0.35,0,0,0-.33-0.42l-8.27-.38h0a0.73,0.73,0,0,0-.29-0.39l-1-.67a0.35,0.35,0,1,0-.39.59l1,0.67h0l1.29,4.51a1.11,1.11,0,0,0,.19.38l-0.47.94a0.72,0.72,0,0,0,0,.71,0.73,0.73,0,0,0,.18.2,1.1,1.1,0,1,0,2,.15h3.21a1.1,1.1,0,1,0,2-.09,0.35,0.35,0,0,0-.24-0.61h-6.55a0,0,0,0,1,0,0l0.43-.87h0Zm0.32-.67h0a0.4,0.4,0,0,1-.43-0.29L588.56,438h1.12l0.3,1.79-0.54.06h0Zm2.76-.33h0V438h1.2l-0.13,1.4-1.08.13h0Zm0-2.23h0v-1.35l1.38,0.06-0.12,1.28h-1.27Zm-0.7,0h-1.22L590,435.83l1.46,0.07v1.38h0Zm0,0.7h0v1.61l-0.82.1L590.4,438h1.1Zm2.88,1.27h0l-0.39,0,0.12-1.32h1.07l-0.13.66a0.77,0.77,0,0,1-.67.62h0Zm0.94-2h-1.14l0.11-1.25,1.27,0.06-0.24,1.19h0Zm-6-1.48h0l0.24,1.48h-1.21l-0.44-1.54,1.41,0.06h0Zm0.3,6.71h0a0.4,0.4,0,1,1-.4-0.4,0.4,0.4,0,0,1,.4.4h0Zm4.86,0.4h0a0.4,0.4,0,1,1,.4-0.4A0.4,0.4,0,0,1,594.48,442.91Z" transform="translate(-579.48 -430.14)"/></svg>