<svg id="_Layer_1" data-name="#Layer 1" xmlns="http://www.w3.org/2000/svg" xmlns:xlink="http://www.w3.org/1999/xlink" viewBox="0 0 24 27.29"><defs><style>.cls-1{fill:url(#GradientFill_1);}.cls-2,.cls-3,.cls-4{fill-rule:evenodd;}.cls-2{fill:url(#GradientFill_1-2);}.cls-3{fill:url(#GradientFill_1-3);}.cls-4{fill:url(#GradientFill_1-4);}</style><linearGradient id="GradientFill_1" x1="18.3" y1="3.04" x2="19.35" y2="3.04" gradientUnits="userSpaceOnUse"><stop offset="0" stop-color="#fff33b"/><stop offset="0.15" stop-color="#ffc709"/><stop offset="0.28" stop-color="#ffc709"/><stop offset="0.66" stop-color="#f49040"/><stop offset="0.88" stop-color="#ed693c"/><stop offset="1" stop-color="#ea3e3a"/></linearGradient><linearGradient id="GradientFill_1-2" x1="426.08" y1="161.65" x2="450.08" y2="161.65" xlink:href="#GradientFill_1"/><linearGradient id="GradientFill_1-3" x1="445.96" y1="155.74" x2="447.97" y2="155.74" xlink:href="#GradientFill_1"/><linearGradient id="GradientFill_1-4" x1="429.17" y1="155.8" x2="436.53" y2="155.8" xlink:href="#GradientFill_1"/></defs><title>dental</title><ellipse class="cls-1" cx="18.83" cy="3.04" rx="0.53" ry="0.53"/><path class="cls-2" d="M445.39,148.43a9,9,0,0,0-7.31.87,9,9,0,0,0-7.31-.87c-4.37,1.42-6.41,7.89-2.91,13.1a12.61,12.61,0,0,1,2.11,6.39,16.54,16.54,0,0,0,1.09,4.79c0.5,1.2,1.2,2.57,2.25,2.57h0c0.84,0,1.51-.86,2.19-2.73a22.3,22.3,0,0,0,.78-3.17c0.38-2,.78-4,1.78-4h0c1,0,1.38,2,1.77,4a22.24,22.24,0,0,0,.78,3.17c0.68,1.87,1.35,2.72,2.19,2.74h0c1,0,1.75-1.38,2.25-2.58a16.76,16.76,0,0,0,1.07-4.7,13.06,13.06,0,0,1,2.13-6.49c3.54-5.28,1.38-11.7-2.92-13.1h0Zm2,12.5h0a14.12,14.12,0,0,0-2.31,7,15.67,15.67,0,0,1-1,4.42c-0.77,1.86-1.22,1.93-1.28,1.93h0s-0.5,0-1.23-2a21.51,21.51,0,0,1-.73-3,17.62,17.62,0,0,0-.81-3.17,2.22,2.22,0,0,0-2-1.68h0a2.25,2.25,0,0,0-2,1.69,17.64,17.64,0,0,0-.81,3.16,21.53,21.53,0,0,1-.73,3c-0.72,2-1.21,2-1.23,2s-0.5,0-1.28-1.92a15.45,15.45,0,0,1-1-4.5,13.68,13.68,0,0,0-2.29-6.87c-3.15-4.7-1.25-10.31,2.36-11.49a8,8,0,0,1,6.71.92,0.52,0.52,0,0,0,.56,0,8,8,0,0,1,6.71-.92C448.76,150.64,450.53,156.31,447.44,160.93Z" transform="translate(-426.08 -148)"/><path class="cls-3" d="M446.19,152a0.54,0.54,0,0,0-.14.74,4.72,4.72,0,0,1,.55,1.12,6.63,6.63,0,0,1-.37,4.94,0.54,0.54,0,0,0,.24.71,0.52,0.52,0,0,0,.7-0.25,7.72,7.72,0,0,0,.42-5.75,5.82,5.82,0,0,0-.67-1.37A0.52,0.52,0,0,0,446.19,152Z" transform="translate(-426.08 -148)"/><path class="cls-4" d="M436.17,155.29l-2.12-.72-0.7-2.15a0.52,0.52,0,0,0-1,0l-0.71,2.15-2.12.72a0.54,0.54,0,0,0,0,1l2.12,0.72,0.71,2.15a0.52,0.52,0,0,0,1,0l0.7-2.15,2.12-.72a0.54,0.54,0,0,0,0-1h0Zm-2.7.8h0a0.53,0.53,0,0,0-.33.34l-0.29.88-0.29-.88a0.53,0.53,0,0,0-.33-0.34l-0.87-.29,0.87-.29a0.53,0.53,0,0,0,.33-0.34l0.29-.88,0.29,0.88a0.53,0.53,0,0,0,.33.34l0.87,0.29Z" transform="translate(-426.08 -148)"/></svg>