<svg id="_Layer_1" data-name="#Layer 1" xmlns="http://www.w3.org/2000/svg" xmlns:xlink="http://www.w3.org/1999/xlink" viewBox="0 0 24 18.74"><defs><style>.cls-1{fill-rule:evenodd;fill:url(#GradientFill_1);}</style><linearGradient id="GradientFill_1" x1="579.48" y1="160" x2="603.48" y2="160" gradientUnits="userSpaceOnUse"><stop offset="0" stop-color="#fff33b"/><stop offset="0.15" stop-color="#ffc709"/><stop offset="0.28" stop-color="#ffc709"/><stop offset="0.66" stop-color="#f49040"/><stop offset="0.88" stop-color="#ed693c"/><stop offset="1" stop-color="#ea3e3a"/></linearGradient></defs><title>education</title><path class="cls-1" d="M601.77,156.29c-0.1-.73-0.11-2,0.57-2.41l0,0c0.55-.18.94-0.43,0.64-0.76l-8.17-2.46-13.23,1.84s-1.51.22-1.38,2.57a3,3,0,0,0,.83,2.22l-1.09.33c-0.3.33,0.08,0.58,0.64,0.76l0,0c0.68,0.42.66,1.68,0.57,2.41-2.43.69-1.56,0.92-1.56,0.92l0.53,0.13a2.58,2.58,0,0,0-.68,2.2c0.13,2.36,1.38,2.52,1.38,2.52l8.66,2.81,13.07-3.17s0.87-.23-1.56-0.92c-0.1-.73-0.11-2,0.57-2.41l0,0c0.55-.18.94-0.43,0.64-0.76l-0.57-.17c0.38-.23.95-0.83,1-2.38a2.75,2.75,0,0,0-.54-2.06l1.12-.27s0.87-.22-1.56-0.92h0Zm-10.93,0h0l2.2-.45,7.43-1.53,1.11-.23a3.82,3.82,0,0,0-.28,2.1c0,0.13,0,.25,0,0.34l-1.21.3-9.38,2.33,0.09-2.87h0Zm-9.44,2.29h0l1.11,0.23,7.13,1.47,0.62,0.13,1.87,0.38,0.09,2.87-9.64-2.4-1-.24c0-.09,0-0.21,0-0.34a3.86,3.86,0,0,0-.28-2.1h0ZM581,154.93h0a1.86,1.86,0,0,1,.33-1.31,0.59,0.59,0,0,1,.43-0.18h0.11l5.7,1.86,2.84,0.93-0.09,2.89-8-2.24-0.42-.12h-0.05s-0.82-.08-0.86-1.83h0Zm8.59,13.19h0l-8.4-2.36h-0.05s-0.82-.07-0.86-1.83a1.85,1.85,0,0,1,.32-1.31,0.58,0.58,0,0,1,.43-0.18h0.11l8.55,2.79-0.09,2.89h0Zm11-3h0c0,0.13,0,.25,0,0.34L590,168.12l0.09-2.86,2.26-.47,0.33,0.08,1.25-.41,5.78-1.19,1.11-.23a3.83,3.83,0,0,0-.28,2.1h0Zm0.58-3.9h-0.06l-0.8.22-7.6,2.13-0.09-2.89,2.5-.81,6-2a0.63,0.63,0,0,1,.55.17,1.87,1.87,0,0,1,.32,1.31C602,161.18,601.17,161.25,601.14,161.26Z" transform="translate(-579.48 -150.63)"/></svg>