<svg id="_Layer_1" data-name="#Layer 1" xmlns="http://www.w3.org/2000/svg" xmlns:xlink="http://www.w3.org/1999/xlink" viewBox="0 0 24 24"><defs><style>.cls-1{fill-rule:evenodd;fill:url(#GradientFill_1);}</style><linearGradient id="GradientFill_1" x1="579.48" y1="339.55" x2="603.48" y2="339.55" gradientUnits="userSpaceOnUse"><stop offset="0" stop-color="#fff33b"/><stop offset="0.15" stop-color="#ffc709"/><stop offset="0.28" stop-color="#ffc709"/><stop offset="0.66" stop-color="#f49040"/><stop offset="0.88" stop-color="#ed693c"/><stop offset="1" stop-color="#ea3e3a"/></linearGradient></defs><title>engineering</title><path class="cls-1" d="M593.19,350.57l0.33,1h2.1l0.33-1a5,5,0,0,0,1.06-.44l0.92,0.45,1.49-1.49-0.45-.92a5.06,5.06,0,0,0,.44-1.06l1-.33v-2.1l-1-.33a5,5,0,0,0-.44-1.06l0.45-.92-1.49-1.49-0.92.46a5,5,0,0,0-1.06-.44l-0.33-1h-2.1l-0.33,1a5,5,0,0,0-1.06.44l-0.92-.46-1.49,1.49,0.45,0.92-0.15.29-2-.68v-0.46a3.51,3.51,0,0,0,1.18-1.35,1.55,1.55,0,0,0,1.53-1.55v-2a1.15,1.15,0,0,0-.06-2.2,4.24,4.24,0,0,0-3.64-3.49,1.07,1.07,0,0,0-.86-0.43H586a1.07,1.07,0,0,0-.86.43,4.25,4.25,0,0,0-3.64,3.49,1.15,1.15,0,0,0-.06,2.2v2a1.55,1.55,0,0,0,1.53,1.54,3.51,3.51,0,0,0,1.18,1.35v0.46l-3.11,1a2.24,2.24,0,0,0-1.53,2.13V350h12.4a12.2,12.2,0,0,0,1.32.57h0Zm-10.62-2.12h7v0.77h-7v-0.77h0Zm7.63-1.82h0a2.24,2.24,0,0,1-.66-1.6v-0.79l1.32,0.44a1.47,1.47,0,0,1,1,1.4v3.15h-1.55v-2.48l-0.11-.11h0Zm1.91-2h0a2.71,2.71,0,1,1,.53,3v-1.56a2.24,2.24,0,0,0-.53-1.44h0Zm-1.44-2.1h0l0.7-.7,0.8,0.4,0.18-.11a4.21,4.21,0,0,1,1.23-.51l0.21,0,0.29-.85h1l0.29,0.85,0.21,0a4.22,4.22,0,0,1,1.23.51l0.18,0.11,0.8-.4,0.7,0.7-0.4.8,0.11,0.18a4.22,4.22,0,0,1,.51,1.23l0,0.21,0.85,0.29v1l-0.85.29,0,0.21a4.24,4.24,0,0,1-.51,1.23l-0.11.18,0.4,0.8-0.7.7-0.8-.4-0.18.11a4.22,4.22,0,0,1-1.23.51l-0.21,0-0.29.85h-1l-0.29-.85-0.21,0a6.53,6.53,0,0,1-.94-0.37v-0.87a3.48,3.48,0,1,0-1.15-4.51,2.24,2.24,0,0,0-.39-0.18l-0.33-.11c0.05-.11.11-0.21,0.18-0.32l0.11-.18-0.4-.8h0Zm-1.9,1.45h0V345a3,3,0,0,0,.77,2v0.62h-7v-0.62a3,3,0,0,0,.77-2V344l0.8-.27a1.93,1.93,0,0,0,3.81,0l0.8,0.27h0Zm1.16-6.37h0v0.6a1.51,1.51,0,0,0-.39-0.16v-0.44h0.39Zm-0.46,2.64h0a3.47,3.47,0,0,0,.07-0.71v-0.67a0.77,0.77,0,0,1-.07,1.37h0ZM586,332.2h0.17a0.3,0.3,0,0,1,.3.3,0.31,0.31,0,0,1,0,.07l-0.29,1.17H586l-0.29-1.17a0.31,0.31,0,0,1,0-.07,0.3,0.3,0,0,1,.3-0.3h0Zm-2.75,1.39h0l0.55,1.11,0.69-.35-0.62-1.24a3.45,3.45,0,0,1,1.07-.43s0,0.06,0,.09l0.44,1.76h1.38l0.44-1.76s0-.06,0-0.09a3.47,3.47,0,0,1,1.07.43l-0.62,1.24,0.69,0.35,0.55-1.11a3.47,3.47,0,0,1,.95,1.71h-7.56a3.47,3.47,0,0,1,.95-1.71h0Zm-1.42,2.48h8.52a0.39,0.39,0,0,1,0,.77H581.8a0.39,0.39,0,0,1,0-.77h0Zm0.77,2h0a1.53,1.53,0,0,0-.39.16v-0.6h0.39v0.44h0Zm-0.39,1.49h0a0.77,0.77,0,0,1,.39-0.67v0.67a3.5,3.5,0,0,0,.07.71,0.77,0.77,0,0,1-.46-0.71h0Zm1.16,0h0v-1.94h5.42v1.94a2.71,2.71,0,1,1-5.42,0h0Zm2.71,3.48h0a3.46,3.46,0,0,0,1.16-.2v0.59a1.16,1.16,0,0,1-2.32,0v-0.59a3.46,3.46,0,0,0,1.16.2h0Zm-5.81,3h0a1.47,1.47,0,0,1,1-1.4l1.32-.44V345a2.24,2.24,0,0,1-.66,1.6l-0.11.11v2.48h-1.55v-3.15h0Zm21.68-17.34a4.64,4.64,0,0,1-.34,7.2l-0.05,0a1.15,1.15,0,0,1-.38,2V338a2.32,2.32,0,1,1-4.65,0v-0.07a1.15,1.15,0,0,1-.39-2l-0.07-.06a4.64,4.64,0,1,1,5.87-7.18h0Zm-3.1,10.82h0a1.55,1.55,0,0,1-1.55-1.55h3.1a1.55,1.55,0,0,1-1.55,1.55h0Zm1.94-2.32H596.9a0.39,0.39,0,0,1,0-.77h3.87a0.39,0.39,0,1,1,0,.77h0Zm-3.1-5.42h-0.39a0.39,0.39,0,1,1,.39-0.39v0.39h0Zm1.55,3.87h-0.77v-3.1h0.77v3.1h0Zm1.91-.37h0a1.73,1.73,0,0,0-.36.37H600v-3.1h0.39a1.16,1.16,0,1,0-1.16-1.16v0.39h-0.77v-0.39a1.16,1.16,0,1,0-1.16,1.16h0.39v3.1h-0.78a1.82,1.82,0,0,0-.37-0.38,3.87,3.87,0,1,1,6.18-3.1,3.83,3.83,0,0,1-1.57,3.11h0Zm-1.14-3.5h0v-0.39a0.39,0.39,0,1,1,.39.39H600Zm-13.16,14.32h1.55v0.77h-1.55v-0.77Z" transform="translate(-579.48 -327.55)"/></svg>