<svg id="_Layer_1" data-name="#Layer 1" xmlns="http://www.w3.org/2000/svg" xmlns:xlink="http://www.w3.org/1999/xlink" viewBox="0 0 24 24"><defs><style>.cls-1,.cls-2,.cls-3,.cls-4,.cls-5{fill-rule:evenodd;}.cls-1{fill:url(#GradientFill_1);}.cls-2{fill:url(#GradientFill_1-2);}.cls-3{fill:url(#GradientFill_1-3);}.cls-4{fill:url(#GradientFill_1-4);}.cls-5{fill:url(#GradientFill_1-5);}</style><linearGradient id="GradientFill_1" x1="440.09" y1="440.26" x2="450.08" y2="440.26" gradientUnits="userSpaceOnUse"><stop offset="0" stop-color="#fff33b"/><stop offset="0.15" stop-color="#ffc709"/><stop offset="0.28" stop-color="#ffc709"/><stop offset="0.66" stop-color="#f49040"/><stop offset="0.88" stop-color="#ed693c"/><stop offset="1" stop-color="#ea3e3a"/></linearGradient><linearGradient id="GradientFill_1-2" x1="426.08" y1="443.74" x2="433.2" y2="443.74" xlink:href="#GradientFill_1"/><linearGradient id="GradientFill_1-3" x1="430.02" y1="445.98" x2="430.95" y2="445.98" xlink:href="#GradientFill_1"/><linearGradient id="GradientFill_1-4" x1="434.14" y1="440.26" x2="440.33" y2="440.26" xlink:href="#GradientFill_1"/><linearGradient id="GradientFill_1-5" x1="445.11" y1="447.69" x2="446.05" y2="447.69" xlink:href="#GradientFill_1"/></defs><title>fashion</title><path class="cls-1" d="M448.56,429.66a5,5,0,0,0-6.9,0l-0.06.06a5,5,0,0,0-1.06,5.65l1.56,3.39v11.41a2.1,2.1,0,0,0,2.09,2.09h1.62a2.1,2.1,0,0,0,2.09-2.09V438.76l1.65-3.34a5,5,0,0,0-1-5.76h0Zm-4.81,9.45H447v3H443v-3h0.71Zm2.07,12.21H444.2a1.16,1.16,0,0,1-1.16-1.16V443h2.06v3a0.47,0.47,0,0,0,.94,0v-3H447v7.14a1.16,1.16,0,0,1-1.16,1.16h0Zm2.9-16.32h0l-1.56,3.17H447l0.38-2.27a0.47,0.47,0,1,0-.92-0.15l-0.4,2.42h-0.53v-2.34a0.47,0.47,0,0,0-.94,0v2.34h-0.39l-0.4-2.42a0.47,0.47,0,0,0-.92.15l0.38,2.27h-0.33L441.4,435a4,4,0,0,1,.86-4.58l0.06-.06A4,4,0,0,1,448.73,435Z" transform="translate(-426.08 -428.26)"/><path class="cls-2" d="M432.36,443.26V441.2a0.94,0.94,0,0,0-.56-0.86v-2.9a1.4,1.4,0,0,0-.74-1.24l-1.5-.8a1.41,1.41,0,0,0-2.07,1.24v3.7a0.94,0.94,0,0,0-.56.86v2.07a0.94,0.94,0,0,0-.84.93v6.66a1.41,1.41,0,0,0,1.41,1.41h4.31a1.41,1.41,0,0,0,1.41-1.41V444.2a0.94,0.94,0,0,0-.84-0.93h0Zm-4.5-2.07h3.56v2.06h-3.56V441.2h0Zm0.56-4.56h0a0.47,0.47,0,0,1,.69-0.41l1.5,0.8a0.47,0.47,0,0,1,.25.41v2.82h-2.44v-3.62h0Zm3.84,14.21h0a0.47,0.47,0,0,1-.47.47H431v-3.56a0.47,0.47,0,0,0-.94,0v3.56h-2.53a0.47,0.47,0,0,1-.47-0.47V444.2h5.25v6.66Z" transform="translate(-426.08 -428.26)"/><path class="cls-3" d="M430.49,445.51a0.47,0.47,0,1,0,.33.14A0.47,0.47,0,0,0,430.49,445.51Z" transform="translate(-426.08 -428.26)"/><path class="cls-4" d="M439.86,439.79H437.7V435.2h0.8a0.47,0.47,0,0,0,0-.94h-0.8V433.7h0.8a0.47,0.47,0,0,0,0-.94h-0.8V432.2h0.8a0.47,0.47,0,0,0,0-.94h-0.8V430.7h0.8a0.47,0.47,0,0,0,0-.94h-0.8V429.2h0.8a0.47,0.47,0,0,0,0-.94H436a0.47,0.47,0,0,0,0,.94h0.8v0.56H436a0.47,0.47,0,0,0,0,.94h0.8v0.56H436a0.47,0.47,0,0,0,0,.94h0.8v0.56H436a0.47,0.47,0,0,0,0,.94h0.8v0.56H436a0.47,0.47,0,0,0,0,.94h0.8v4.59h-2.16a0.47,0.47,0,0,0-.47.47v5.24A12.61,12.61,0,0,0,436,452a0.47,0.47,0,0,0,.4.23h1.73a0.47,0.47,0,0,0,.4-0.23,12.61,12.61,0,0,0,1.83-6.54v-5.24a0.47,0.47,0,0,0-.47-0.47h0Zm-0.47,5.7h0a11.67,11.67,0,0,1-1.56,5.83h-1.2a11.67,11.67,0,0,1-1.56-5.83v-2.7h2.82a0.47,0.47,0,1,0,0-.94h-2.82v-1.12h4.31v4.77Z" transform="translate(-426.08 -428.26)"/><path class="cls-5" d="M445.58,447.22a0.47,0.47,0,1,0,.33.14A0.47,0.47,0,0,0,445.58,447.22Z" transform="translate(-426.08 -428.26)"/></svg>