<svg id="_Layer_1" data-name="#Layer 1" xmlns="http://www.w3.org/2000/svg" xmlns:xlink="http://www.w3.org/1999/xlink" viewBox="0 0 24 24"><defs><style>.cls-1,.cls-10,.cls-11,.cls-12,.cls-13,.cls-14,.cls-15,.cls-16,.cls-17,.cls-18,.cls-2,.cls-3,.cls-4,.cls-5,.cls-6,.cls-7,.cls-8,.cls-9{fill-rule:evenodd;}.cls-1{fill:url(#GradientFill_1);}.cls-2{fill:url(#GradientFill_1-2);}.cls-3{fill:url(#GradientFill_1-3);}.cls-4{fill:url(#GradientFill_1-4);}.cls-5{fill:url(#GradientFill_1-5);}.cls-6{fill:url(#GradientFill_1-6);}.cls-7{fill:url(#GradientFill_1-7);}.cls-8{fill:url(#GradientFill_1-8);}.cls-9{fill:url(#GradientFill_1-9);}.cls-10{fill:url(#GradientFill_1-10);}.cls-11{fill:url(#GradientFill_1-11);}.cls-12{fill:url(#GradientFill_1-12);}.cls-13{fill:url(#GradientFill_1-13);}.cls-14{fill:url(#GradientFill_1-14);}.cls-15{fill:url(#GradientFill_1-15);}.cls-16{fill:url(#GradientFill_1-16);}.cls-17{fill:url(#GradientFill_1-17);}.cls-18{fill:url(#GradientFill_1-18);}</style><linearGradient id="GradientFill_1" x1="302.28" y1="443.26" x2="317.48" y2="443.26" gradientUnits="userSpaceOnUse"><stop offset="0" stop-color="#fff33b"/><stop offset="0.15" stop-color="#ffc709"/><stop offset="0.28" stop-color="#ffc709"/><stop offset="0.66" stop-color="#f49040"/><stop offset="0.88" stop-color="#ed693c"/><stop offset="1" stop-color="#ea3e3a"/></linearGradient><linearGradient id="GradientFill_1-2" x1="309.48" y1="435.26" x2="310.28" y2="435.26" xlink:href="#GradientFill_1"/><linearGradient id="GradientFill_1-3" x1="308.28" y1="434.66" x2="311.48" y2="434.66" xlink:href="#GradientFill_1"/><linearGradient id="GradientFill_1-4" x1="303.08" y1="439.06" x2="316.68" y2="439.06" xlink:href="#GradientFill_1"/><linearGradient id="GradientFill_1-5" x1="306.31" y1="438.06" x2="310.28" y2="438.06" xlink:href="#GradientFill_1"/><linearGradient id="GradientFill_1-6" x1="293.48" y1="440.46" x2="297.48" y2="440.46" xlink:href="#GradientFill_1"/><linearGradient id="GradientFill_1-7" x1="294.08" y1="430.26" x2="296.88" y2="430.26" xlink:href="#GradientFill_1"/><linearGradient id="GradientFill_1-8" x1="294.28" y1="434.86" x2="296.68" y2="434.86" xlink:href="#GradientFill_1"/><linearGradient id="GradientFill_1-9" x1="295.08" y1="432.46" x2="295.88" y2="432.46" xlink:href="#GradientFill_1"/><linearGradient id="GradientFill_1-10" x1="298.28" y1="440.46" x2="302.28" y2="440.46" xlink:href="#GradientFill_1"/><linearGradient id="GradientFill_1-11" x1="298.88" y1="430.26" x2="301.68" y2="430.26" xlink:href="#GradientFill_1"/><linearGradient id="GradientFill_1-12" x1="299.08" y1="434.86" x2="301.48" y2="434.86" xlink:href="#GradientFill_1"/><linearGradient id="GradientFill_1-13" x1="299.88" y1="432.46" x2="300.68" y2="432.46" xlink:href="#GradientFill_1"/><linearGradient id="GradientFill_1-14" x1="293.48" y1="448.06" x2="317.48" y2="448.06" xlink:href="#GradientFill_1"/><linearGradient id="GradientFill_1-15" x1="293.48" y1="448.26" x2="296.28" y2="448.26" xlink:href="#GradientFill_1"/><linearGradient id="GradientFill_1-16" x1="293.48" y1="449.86" x2="297.48" y2="449.86" xlink:href="#GradientFill_1"/><linearGradient id="GradientFill_1-17" x1="314.68" y1="447.46" x2="317.48" y2="447.46" xlink:href="#GradientFill_1"/><linearGradient id="GradientFill_1-18" x1="313.48" y1="445.86" x2="317.48" y2="445.86" xlink:href="#GradientFill_1"/></defs><title>hotel_management</title><path class="cls-1" d="M317.08,441.86h-14.4a0.4,0.4,0,0,0-.35.6l1.17,2a0.4,0.4,0,0,0,.35.2h12.06a0.4,0.4,0,0,0,.35-0.2l1.17-2a0.4,0.4,0,0,0-.35-0.6h0Zm-1.4,2h-11.6l-0.7-1.2h13Z" transform="translate(-293.48 -428.26)"/><path class="cls-2" d="M309.48,434.66v1.2a0.4,0.4,0,1,0,.8,0v-1.2A0.4,0.4,0,1,0,309.48,434.66Z" transform="translate(-293.48 -428.26)"/><path class="cls-3" d="M308.68,435.06h2.4a0.4,0.4,0,1,0,0-.8h-2.4A0.4,0.4,0,1,0,308.68,435.06Z" transform="translate(-293.48 -428.26)"/><path class="cls-4" d="M316.68,442.26a6.8,6.8,0,0,0-13.6,0,0.4,0.4,0,0,0,.4.4h12.8a0.4,0.4,0,0,0,.4-0.4h0Zm-12.79-.4h0a6,6,0,0,1,12,0h-12Z" transform="translate(-293.48 -428.26)"/><path class="cls-5" d="M307,439a4.38,4.38,0,0,1,2.91-1.1,0.4,0.4,0,0,0,0-.8,5.18,5.18,0,0,0-3.44,1.3A0.4,0.4,0,0,0,307,439Z" transform="translate(-293.48 -428.26)"/><path class="cls-6" d="M296.87,438a4.91,4.91,0,0,0,.21-1.3,0.4,0.4,0,0,0-.4-0.4h-2.4a0.4,0.4,0,0,0-.4.4,4.9,4.9,0,0,0,.21,1.3,7.54,7.54,0,0,1,.17.78,1.2,1.2,0,0,0,0,2.26v1.79a1.93,1.93,0,0,0-.8,1.48,0.4,0.4,0,0,0,.4.4h3.2a0.4,0.4,0,0,0,.4-0.4,1.93,1.93,0,0,0-.8-1.48V441a1.2,1.2,0,0,0,0-2.26,7.54,7.54,0,0,1,.17-0.78h0Zm-2.47,5.9h0a0.9,0.9,0,0,1,.28-0.4,0.4,0.4,0,0,0,.4-0.4v-2.4a0.4,0.4,0,0,0-.4-0.4,0.4,0.4,0,0,1,0-.8,0.4,0.4,0,0,0,.4-0.4,4.91,4.91,0,0,0-.21-1.3c-0.08-.31-0.13-0.53-0.16-0.7h1.53c0,0.18-.08.39-0.15,0.7a4.91,4.91,0,0,0-.21,1.3,0.4,0.4,0,0,0,.4.4,0.4,0.4,0,1,1,0,.8,0.4,0.4,0,0,0-.4.4v2.4a0.4,0.4,0,0,0,.4.4,0.9,0.9,0,0,1,.28.4h-2.17Z" transform="translate(-293.48 -428.26)"/><path class="cls-7" d="M295.13,428.47l-0.87,1.6a1.49,1.49,0,0,0,1.07,2.18h0.31a1.49,1.49,0,0,0,1.07-2.18l-0.87-1.6a0.4,0.4,0,0,0-.7,0h0Zm0.87,2h0a0.69,0.69,0,0,1-.45,1h-0.14a0.69,0.69,0,0,1-.45-1l0.52-1Z" transform="translate(-293.48 -428.26)"/><path class="cls-8" d="M294.68,437.06h1.6a0.4,0.4,0,0,0,.4-0.4v-3.6a0.4,0.4,0,0,0-.4-0.4h-1.6a0.4,0.4,0,0,0-.4.4v3.6a0.4,0.4,0,0,0,.4.4h0Zm0.4-3.6h0.8v2.8h-0.8v-2.8Z" transform="translate(-293.48 -428.26)"/><path class="cls-9" d="M295.08,431.86v1.2a0.4,0.4,0,0,0,.8,0v-1.2A0.4,0.4,0,0,0,295.08,431.86Z" transform="translate(-293.48 -428.26)"/><path class="cls-10" d="M301.67,438a4.91,4.91,0,0,0,.21-1.3,0.4,0.4,0,0,0-.4-0.4h-2.4a0.4,0.4,0,0,0-.4.4,4.91,4.91,0,0,0,.21,1.3,7.44,7.44,0,0,1,.17.78,1.2,1.2,0,0,0,0,2.26v1.79a1.93,1.93,0,0,0-.8,1.48,0.4,0.4,0,0,0,.4.4h3.2a0.4,0.4,0,0,0,.4-0.4,1.93,1.93,0,0,0-.8-1.48V441a1.2,1.2,0,0,0,0-2.26,7.54,7.54,0,0,1,.17-0.78h0Zm-2.47,5.9h0a0.9,0.9,0,0,1,.28-0.4,0.4,0.4,0,0,0,.4-0.4v-2.4a0.4,0.4,0,0,0-.4-0.4,0.4,0.4,0,0,1,0-.8,0.4,0.4,0,0,0,.4-0.4,4.91,4.91,0,0,0-.21-1.3c-0.08-.31-0.13-0.53-0.16-0.7H301c0,0.18-.08.39-0.15,0.7a4.91,4.91,0,0,0-.21,1.3,0.4,0.4,0,0,0,.4.4,0.4,0.4,0,1,1,0,.8,0.4,0.4,0,0,0-.4.4v2.4a0.4,0.4,0,0,0,.4.4,0.9,0.9,0,0,1,.28.4h-2.17Z" transform="translate(-293.48 -428.26)"/><path class="cls-11" d="M299.93,428.47l-0.87,1.6a1.49,1.49,0,0,0,1.07,2.18h0.31a1.49,1.49,0,0,0,1.07-2.18l-0.87-1.6a0.4,0.4,0,0,0-.7,0h0Zm0.87,2h0a0.69,0.69,0,0,1-.45,1h-0.14a0.69,0.69,0,0,1-.45-1l0.52-1Z" transform="translate(-293.48 -428.26)"/><path class="cls-12" d="M299.48,437.06h1.6a0.4,0.4,0,0,0,.4-0.4v-3.6a0.4,0.4,0,0,0-.4-0.4h-1.6a0.4,0.4,0,0,0-.4.4v3.6a0.4,0.4,0,0,0,.4.4h0Zm0.4-3.6h0.8v2.8h-0.8v-2.8Z" transform="translate(-293.48 -428.26)"/><path class="cls-13" d="M299.88,431.86v1.2a0.4,0.4,0,1,0,.8,0v-1.2A0.4,0.4,0,1,0,299.88,431.86Z" transform="translate(-293.48 -428.26)"/><path class="cls-14" d="M316.68,444.66v5.64a1.16,1.16,0,0,1-1.16,1.16H295.44a1.16,1.16,0,0,1-1.16-1.16v-5.64h22.4Zm-1.16,7.6h0a2,2,0,0,0,2-2v-6a0.4,0.4,0,0,0-.4-0.4h-23.2a0.4,0.4,0,0,0-.4.4v6a2,2,0,0,0,2,2h20.09Z" transform="translate(-293.48 -428.26)"/><path class="cls-15" d="M293.88,448.66h2a0.4,0.4,0,1,0,0-.8h-2A0.4,0.4,0,1,0,293.88,448.66Z" transform="translate(-293.48 -428.26)"/><path class="cls-16" d="M293.88,450.26h3.2a0.4,0.4,0,0,0,0-.8h-3.2A0.4,0.4,0,0,0,293.88,450.26Z" transform="translate(-293.48 -428.26)"/><path class="cls-17" d="M317.08,447.06h-2a0.4,0.4,0,0,0,0,.8h2A0.4,0.4,0,0,0,317.08,447.06Z" transform="translate(-293.48 -428.26)"/><path class="cls-18" d="M317.08,445.46h-3.2a0.4,0.4,0,0,0,0,.8h3.2A0.4,0.4,0,1,0,317.08,445.46Z" transform="translate(-293.48 -428.26)"/></svg>