<svg id="_Layer_1" data-name="#Layer 1" xmlns="http://www.w3.org/2000/svg" xmlns:xlink="http://www.w3.org/1999/xlink" viewBox="0 0 24 24"><defs><style>.cls-1,.cls-2,.cls-3,.cls-4,.cls-5{fill-rule:evenodd;}.cls-1{fill:url(#GradientFill_1);}.cls-2{fill:url(#GradientFill_1-2);}.cls-3{fill:url(#GradientFill_1-3);}.cls-4{fill:url(#GradientFill_1-4);}.cls-5{fill:url(#GradientFill_1-5);}.cls-6{fill:url(#GradientFill_1-6);}.cls-7{fill:url(#GradientFill_1-7);}.cls-8{fill:url(#GradientFill_1-8);}.cls-9{fill:url(#GradientFill_1-9);}</style><linearGradient id="GradientFill_1" x1="579.48" y1="254.2" x2="585.08" y2="254.2" gradientUnits="userSpaceOnUse"><stop offset="0" stop-color="#fff33b"/><stop offset="0.15" stop-color="#ffc709"/><stop offset="0.28" stop-color="#ffc709"/><stop offset="0.66" stop-color="#f49040"/><stop offset="0.88" stop-color="#ed693c"/><stop offset="1" stop-color="#ea3e3a"/></linearGradient><linearGradient id="GradientFill_1-2" x1="579.48" y1="243.8" x2="603.48" y2="243.8" xlink:href="#GradientFill_1"/><linearGradient id="GradientFill_1-3" x1="595.88" y1="250.6" x2="600.68" y2="250.6" xlink:href="#GradientFill_1"/><linearGradient id="GradientFill_1-4" x1="583.88" y1="237.4" x2="587.36" y2="237.4" xlink:href="#GradientFill_1"/><linearGradient id="GradientFill_1-5" x1="592.8" y1="237.4" x2="596.28" y2="237.4" xlink:href="#GradientFill_1"/><linearGradient id="GradientFill_1-6" x1="587.92" y1="237" x2="592.24" y2="237" gradientTransform="translate(538.16 -396.77) rotate(63.43)" xlink:href="#GradientFill_1"/><linearGradient id="GradientFill_1-7" x1="15.6" y1="8.4" x2="16.4" y2="8.4" xlink:href="#GradientFill_1"/><linearGradient id="GradientFill_1-8" x1="17.2" y1="8.4" x2="18" y2="8.4" xlink:href="#GradientFill_1"/><linearGradient id="GradientFill_1-9" x1="18.8" y1="8.4" x2="19.6" y2="8.4" xlink:href="#GradientFill_1"/></defs><title>information_technology</title><path class="cls-1" d="M582.28,252.6a2.8,2.8,0,0,0-2.8,2.8,0.4,0.4,0,0,0,.4.4h4.8a0.4,0.4,0,0,0,.4-0.4,2.8,2.8,0,0,0-2.8-2.8h0Zm-2,2.4h0a2,2,0,0,1,1.56-1.56v0.76h0.8v-0.76a2,2,0,0,1,1.56,1.56h-3.92Z" transform="translate(-579.48 -231.8)"/><path class="cls-2" d="M603.08,249h-0.7l-0.07-.17,0.5-.5a0.4,0.4,0,0,0,0-.57l-1.7-1.7a0.39,0.39,0,0,0-.3-0.11,2,2,0,0,0,1.07-1.76V233.8a2,2,0,0,0-2-2h-18.4a2,2,0,0,0-2,2v10.4a2,2,0,0,0,2,2h5.22l-1.51,2.8h-0.71a1.4,1.4,0,0,0,0,2.8h8.6a0.4,0.4,0,0,0,.4.4h0.7l0.07,0.17-0.5.5a0.4,0.4,0,0,0,0,.57l1.7,1.7a0.4,0.4,0,0,0,.57,0l0.5-.5,0.17,0.07v0.7a0.4,0.4,0,0,0,.4.4h2.4a0.4,0.4,0,0,0,.4-0.4v-0.7l0.17-.07,0.5,0.5a0.4,0.4,0,0,0,.57,0l1.7-1.7a0.4,0.4,0,0,0,0-.57l-0.5-.5,0.07-.17h0.7a0.4,0.4,0,0,0,.4-0.4v-2.4a0.4,0.4,0,0,0-.4-0.4h0Zm-3.2-2.8h0a2,2,0,0,0,.66-0.12l-0.49.49-0.17-.07v-0.3h0Zm-18.4-13.6h18.4a1.2,1.2,0,0,1,1.2,1.2v8.4h-20.8v-8.4a1.2,1.2,0,0,1,1.2-1.2h0Zm-1.2,11.6h0V243h20.8v1.2a1.2,1.2,0,0,1-1.2,1.2h-18.4a1.2,1.2,0,0,1-1.2-1.2h0Zm14.7,2.34h0l-0.24-.34h0.58l-0.34.34h0Zm1.7-.34h0v0.3l-0.17.07-0.37-.37h0.54Zm-12.2,4.8h0a0.6,0.6,0,1,1,0-1.2h8.6V251h-8.6Zm1.62-2h0l1.51-2.8h6.17l0.63,0.92-0.65.65a0.4,0.4,0,0,0,0,.57l0.5,0.5-0.07.17H586.1Zm16.58,2.4H602.1a0.4,0.4,0,0,0-.38.28,3.58,3.58,0,0,1-.24.58,0.4,0.4,0,0,0,.07.47l0.41,0.41-1.13,1.13-0.41-.41a0.4,0.4,0,0,0-.47-0.07,3.61,3.61,0,0,1-.58.24,0.4,0.4,0,0,0-.28.38V255h-1.6v-0.58a0.4,0.4,0,0,0-.28-0.38,3.57,3.57,0,0,1-.58-0.24,0.4,0.4,0,0,0-.47.07l-0.41.41-1.13-1.13,0.41-.41a0.4,0.4,0,0,0,.07-0.47,3.62,3.62,0,0,1-.24-0.58,0.4,0.4,0,0,0-.38-0.28h-0.58v-1.6h0.58a0.4,0.4,0,0,0,.38-0.28,3.6,3.6,0,0,1,.24-0.58,0.4,0.4,0,0,0-.07-0.47l-0.41-.41,1.13-1.13,0.41,0.41a0.4,0.4,0,0,0,.47.07,3.63,3.63,0,0,1,.58-0.24,0.4,0.4,0,0,0,.28-0.38V246.2h1.6v0.58a0.4,0.4,0,0,0,.28.38,3.58,3.58,0,0,1,.58.24,0.4,0.4,0,0,0,.47-0.07l0.41-.41,1.13,1.13-0.41.41a0.4,0.4,0,0,0-.07.47,3.61,3.61,0,0,1,.24.58,0.4,0.4,0,0,0,.38.28h0.58v1.6Z" transform="translate(-579.48 -231.8)"/><path class="cls-3" d="M598.28,248.2a2.4,2.4,0,1,0,2.4,2.4,2.4,2.4,0,0,0-2.4-2.4h0Zm0,4h0a1.6,1.6,0,1,1,1.6-1.6A1.6,1.6,0,0,1,598.28,252.2Z" transform="translate(-579.48 -231.8)"/><path class="cls-4" d="M586.8,240.49l0.57-.57-2.52-2.52,2.52-2.52-0.57-.57-2.8,2.8a0.4,0.4,0,0,0,0,.57Z" transform="translate(-579.48 -231.8)"/><path class="cls-5" d="M593.36,240.49l2.8-2.8a0.4,0.4,0,0,0,0-.57l-2.8-2.8-0.57.57,2.52,2.52-2.52,2.52Z" transform="translate(-579.48 -231.8)"/><rect class="cls-6" x="586.05" y="236.6" width="8.05" height="0.8" transform="translate(-465.28 426.98) rotate(-63.43)"/><rect class="cls-7" x="15.6" y="8" width="0.8" height="0.8"/><rect class="cls-8" x="17.2" y="8" width="0.8" height="0.8"/><rect class="cls-9" x="18.8" y="8" width="0.8" height="0.8"/></svg>