<svg id="_Layer_1" data-name="#Layer 1" xmlns="http://www.w3.org/2000/svg" xmlns:xlink="http://www.w3.org/1999/xlink" viewBox="0 0 24 24"><defs><style>.cls-1{fill-rule:evenodd;fill:url(#GradientFill_1);}</style><linearGradient id="GradientFill_1" x1="426.08" y1="339.55" x2="450.08" y2="339.55" gradientUnits="userSpaceOnUse"><stop offset="0" stop-color="#fff33b"/><stop offset="0.15" stop-color="#ffc709"/><stop offset="0.28" stop-color="#ffc709"/><stop offset="0.66" stop-color="#f49040"/><stop offset="0.88" stop-color="#ed693c"/><stop offset="1" stop-color="#ea3e3a"/></linearGradient></defs><title>law</title><path class="cls-1" d="M447.27,335.21v-3.35h0.21l2.29-1.52L449,329.17l-1.93,1.29h-7a2.12,2.12,0,0,0-1.29-1.29v-1.62h-1.41v1.62a2.12,2.12,0,0,0-1.29,1.29h-7l-1.93-1.29-0.78,1.17,2.29,1.52h0.21v3.35l-2.81,5.63V341a3.52,3.52,0,1,0,7,0v-0.17l-2.81-5.63v-3.35h5.79a2.12,2.12,0,0,0,1.29,1.29v8.56H436v5.62h-2.81v2.81h-2.81v1.41h15.47v-1.41H443v-2.81h-2.81v-5.62h-1.41v-8.56a2.12,2.12,0,0,0,1.29-1.29h5.79v3.35L443,340.84V341a3.52,3.52,0,1,0,7,0v-0.17l-2.81-5.63h0ZM429.6,337h0l1.68,3.35h-3.35L429.6,337h0Zm0,6.16h0a2.11,2.11,0,0,1-2-1.41h4a2.11,2.11,0,0,1-2,1.41h0Zm12,7h-7v-1.41h7v1.41h0Zm-4.22-2.81h0v-4.22h1.41v4.22h-1.41Zm0.7-15.47h0a0.7,0.7,0,1,1,.7-0.7,0.7,0.7,0,0,1-.7.7h0Zm10.16,8.44h-3.35l1.67-3.35,1.67,3.35h0Zm-1.67,2.81h0a2.11,2.11,0,0,1-2-1.41h4A2.11,2.11,0,0,1,446.57,343.11Z" transform="translate(-426.08 -327.55)"/></svg>