<svg id="_Layer_1" data-name="#Layer 1" xmlns="http://www.w3.org/2000/svg" xmlns:xlink="http://www.w3.org/1999/xlink" viewBox="0 0 24 21.6"><defs><style>.cls-1{fill-rule:evenodd;fill:url(#GradientFill_1);}</style><linearGradient id="GradientFill_1" x1="188.92" y1="243.8" x2="212.92" y2="243.8" gradientUnits="userSpaceOnUse"><stop offset="0" stop-color="#fff33b"/><stop offset="0.15" stop-color="#ffc709"/><stop offset="0.28" stop-color="#ffc709"/><stop offset="0.66" stop-color="#f49040"/><stop offset="0.88" stop-color="#ed693c"/><stop offset="1" stop-color="#ea3e3a"/></linearGradient></defs><title>management</title><path class="cls-1" d="M211.72,236.6h-5.2V235a2,2,0,0,0-2-2h-7.2a2,2,0,0,0-2,2v1.6h-5.2a1.2,1.2,0,0,0-1.2,1.2v8.9a1.21,1.21,0,0,0,.8,1.13v5.57a1.2,1.2,0,0,0,1.2,1.2h20a1.2,1.2,0,0,0,1.2-1.2v-5.57a1.21,1.21,0,0,0,.8-1.13v-8.9a1.2,1.2,0,0,0-1.2-1.2h0Zm-15.6-1.6h0a1.2,1.2,0,0,1,1.2-1.2h7.2a1.2,1.2,0,0,1,1.2,1.2v1.6h-0.8V235a0.4,0.4,0,0,0-.4-0.4h-7.2a0.4,0.4,0,0,0-.4.4v1.6h-0.8V235h0Zm8,1.6h-6.4v-1.2h6.4v1.2h0Zm7.2,16.8h0a0.4,0.4,0,0,1-.4.4h-20a0.4,0.4,0,0,1-.4-0.4V248l8.8,1.21v1a1.2,1.2,0,0,0,1.2,1.2h0.8a1.2,1.2,0,0,0,1.2-1.2v-1l8.8-1.21v5.43h0Zm-9.6-3.2h0a0.4,0.4,0,0,1-.4.4h-0.8a0.4,0.4,0,0,1-.4-0.4v-2.4a0.4,0.4,0,0,1,.4-0.4h0.8a0.4,0.4,0,0,1,.4.4v2.4h0Zm10.4-3.5h0a0.4,0.4,0,0,1-.34.4h-0.11l-9.15,1.26V247.8a1.2,1.2,0,0,0-1.2-1.2h-0.8a1.2,1.2,0,0,0-1.2,1.2v0.58l-9.26-1.28a0.4,0.4,0,0,1-.34-0.4v-8.9a0.4,0.4,0,0,1,.4-0.4h21.6a0.4,0.4,0,0,1,.4.4v8.9Z" transform="translate(-188.92 -233)"/></svg>