<svg id="_Layer_1" data-name="#Layer 1" xmlns="http://www.w3.org/2000/svg" xmlns:xlink="http://www.w3.org/1999/xlink" viewBox="0 0 24 18.92"><defs><style>.cls-1{fill:url(#GradientFill_1);}.cls-2{fill:url(#GradientFill_1-2);}.cls-3{fill-rule:evenodd;fill:url(#GradientFill_1-3);}.cls-4{fill:url(#GradientFill_1-4);}</style><linearGradient id="GradientFill_1" x1="4.18" y1="5.52" x2="6.86" y2="5.52" gradientUnits="userSpaceOnUse"><stop offset="0" stop-color="#fff33b"/><stop offset="0.15" stop-color="#ffc709"/><stop offset="0.28" stop-color="#ffc709"/><stop offset="0.66" stop-color="#f49040"/><stop offset="0.88" stop-color="#ed693c"/><stop offset="1" stop-color="#ea3e3a"/></linearGradient><linearGradient id="GradientFill_1-2" x1="13.81" y1="5.52" x2="16.5" y2="5.52" xlink:href="#GradientFill_1"/><linearGradient id="GradientFill_1-3" x1="188.92" y1="440.26" x2="212.92" y2="440.26" xlink:href="#GradientFill_1"/><linearGradient id="GradientFill_1-4" x1="4.43" y1="15.42" x2="9.61" y2="15.42" xlink:href="#GradientFill_1"/></defs><title>mass communication</title><circle class="cls-1" cx="5.52" cy="5.52" r="1.34"/><circle class="cls-2" cx="15.15" cy="5.52" r="1.34"/><path class="cls-3" d="M212.92,441.78l-6.07.94v-1.63a5.52,5.52,0,1,0-7.59-7.47,5.52,5.52,0,1,0-8.67,6.64v9.45h16.26v-1.84l6.07,0.94v-7h0Zm-8.85-9.57h0a4.11,4.11,0,1,1-4.11,4.11,4.12,4.12,0,0,1,4.11-4.11h0Zm-13.75,4.11h0a4.11,4.11,0,1,1,4.11,4.11,4.12,4.12,0,0,1-4.11-4.11h0Zm1.67,12h0v-7a5.52,5.52,0,0,0,7.26-2.25,5.52,5.52,0,0,0,6.18,2.65v6.64H192Zm14.85-4.17h0l0.91-.14v2.59l-0.91-.14v-2.31h0Zm4.66,3h0l-2.35-.36v-3l2.35-.36v3.75Z" transform="translate(-188.92 -430.8)"/><rect class="cls-4" x="4.43" y="14.72" width="5.18" height="1.41"/></svg>