<svg id="_Layer_1" data-name="#Layer 1" xmlns="http://www.w3.org/2000/svg" xmlns:xlink="http://www.w3.org/1999/xlink" viewBox="0 0 24 24"><defs><style>.cls-1,.cls-2{fill-rule:evenodd;}.cls-1{fill:url(#GradientFill_1);}.cls-2{fill:url(#GradientFill_1-2);}</style><linearGradient id="GradientFill_1" x1="426.08" y1="243.8" x2="450.08" y2="243.8" gradientUnits="userSpaceOnUse"><stop offset="0" stop-color="#fff33b"/><stop offset="0.15" stop-color="#ffc709"/><stop offset="0.28" stop-color="#ffc709"/><stop offset="0.66" stop-color="#f49040"/><stop offset="0.88" stop-color="#ed693c"/><stop offset="1" stop-color="#ea3e3a"/></linearGradient><linearGradient id="GradientFill_1-2" x1="435.74" y1="255.33" x2="436.67" y2="255.33" xlink:href="#GradientFill_1"/></defs><title>medical</title><path class="cls-1" d="M449.08,237.4a3.77,3.77,0,0,0,1-2.57,0.47,0.47,0,0,0-.58-0.45l-2.23.57a4.46,4.46,0,0,1-1.1.14H442.9a2.12,2.12,0,0,0-2.11,1.81,1.19,1.19,0,0,1-1.18,1h-0.12v-1a2.76,2.76,0,1,0-2.81,0v1h-0.12a1.19,1.19,0,0,1-1.18-1,2.12,2.12,0,0,0-2.11-1.81H430a4.45,4.45,0,0,1-1.1-.14l-2.23-.57a0.47,0.47,0,0,0-.58.45,3.77,3.77,0,0,0,1,2.57,3.63,3.63,0,0,0,1.39,2.81l0.44,0.59a5.38,5.38,0,0,0,4.29,2.15,5.32,5.32,0,0,0,3.48-1.28v1.67h-0.42a3,3,0,0,0-2.66,4.49,0.47,0.47,0,1,0,.82-0.45,2.09,2.09,0,0,1,1.84-3.1h0.42v4.19h-1.1a2.24,2.24,0,0,0,0,4.48h1.3a12.12,12.12,0,0,0,.78,2.57,0.47,0.47,0,0,0,.43.28h0a0.47,0.47,0,0,0,.43-0.29v0a12.12,12.12,0,0,0,.76-2.55h0.53a1,1,0,0,1,0,1.92h0a0.47,0.47,0,1,0,0,.94h0a1.9,1.9,0,0,0,0-3.8h-0.4a12.26,12.26,0,0,0,.06-1.24V249.4h0.31a3,3,0,1,0,0-6.06h-0.31v-1.67a5.32,5.32,0,0,0,3.48,1.28,5.38,5.38,0,0,0,4.29-2.15l0.44-.59a3.63,3.63,0,0,0,1.39-2.81h0Zm-11-4.66h0a1.82,1.82,0,1,1-1.82,1.82,1.82,1.82,0,0,1,1.82-1.82h0Zm-1.78,8h0A4.39,4.39,0,0,1,433.2,242a4.44,4.44,0,0,1-2.84-1l0.36,0h0.78a0.47,0.47,0,0,0,0-.94h-0.78a2.7,2.7,0,0,1-2.56-1.84,3.76,3.76,0,0,0,1.71.41h1a0.47,0.47,0,1,0,0-.94h-1a2.86,2.86,0,0,1-2.78-2.23l1.58,0.4A5.39,5.39,0,0,0,430,236h3.27a1.19,1.19,0,0,1,1.18,1,2.12,2.12,0,0,0,2.11,1.81h0.12v1.52l-0.37.37h0Zm1.31-3.45h0a2.71,2.71,0,0,0,.94,0v11.18h-0.94V237.28h0Zm-2,14.73h0a1.3,1.3,0,1,1,0-2.61h1.1v1.34a12.24,12.24,0,0,0,.07,1.27h-1.17Zm3-1.24h0a11.17,11.17,0,0,1-.46,3.2,11.15,11.15,0,0,1-.47-3.23V249.4h0.94v1.37h0Zm1.25-6.49h0a2.09,2.09,0,1,1,0,4.19h-0.31v-4.19h0.31ZM443,242h0a4.39,4.39,0,0,1-3.11-1.28l-0.37-.37v-1.52h0.12a2.12,2.12,0,0,0,2.11-1.81,1.19,1.19,0,0,1,1.18-1h3.27a5.39,5.39,0,0,0,1.33-.17l1.58-.4a2.86,2.86,0,0,1-2.78,2.23h-1a0.47,0.47,0,0,0,0,.94h1a3.76,3.76,0,0,0,1.71-.41,2.7,2.7,0,0,1-2.56,1.84h-0.78a0.47,0.47,0,1,0,0,.94h0.78l0.36,0A4.44,4.44,0,0,1,443,242Z" transform="translate(-426.08 -231.8)"/><path class="cls-2" d="M436.21,254.87a0.47,0.47,0,1,0,.33.14A0.47,0.47,0,0,0,436.21,254.87Z" transform="translate(-426.08 -231.8)"/></svg>