<svg id="Layer_1" data-name="Layer 1" xmlns="http://www.w3.org/2000/svg" xmlns:xlink="http://www.w3.org/1999/xlink" viewBox="0 0 24 25.71"><defs><style>.cls-1,.cls-2,.cls-3{fill-rule:evenodd;}.cls-1{fill:url(#GradientFill_1);}.cls-2{fill:url(#GradientFill_1-2);}.cls-3{fill:url(#GradientFill_1-3);}</style><linearGradient id="GradientFill_1" x1="293.48" y1="339.55" x2="317.48" y2="339.55" gradientUnits="userSpaceOnUse"><stop offset="0" stop-color="#fff33b"/><stop offset="0.15" stop-color="#ffc709"/><stop offset="0.28" stop-color="#ffc709"/><stop offset="0.66" stop-color="#f49040"/><stop offset="0.88" stop-color="#ed693c"/><stop offset="1" stop-color="#ea3e3a"/></linearGradient><linearGradient id="GradientFill_1-2" x1="295.19" y1="347.48" x2="308.54" y2="347.48" xlink:href="#GradientFill_1"/><linearGradient id="GradientFill_1-3" x1="311.05" y1="334.19" x2="314.05" y2="334.19" xlink:href="#GradientFill_1"/></defs><title>paramedical</title><path class="cls-1" d="M293.91,352.41h23.14a0.43,0.43,0,0,0,.43-0.43v-2.57a0.43,0.43,0,0,0-.43-0.43h-1c1.31-2.63,1.43-5.09,1.43-8a12.37,12.37,0,0,0-1.75-6.33,3.14,3.14,0,0,0-.82-2.64l0.73-.73a0.43,0.43,0,0,0,0-.61l-3.86-3.86a0.43,0.43,0,0,0-.61,0l-0.86.86a0.43,0.43,0,0,0,0,.61l0.12,0.13-0.25.25-0.13-.13a0.43,0.43,0,0,0-.61,0L301,337l-1.2-1.2a0.43,0.43,0,0,0-.61,0l-1.29,1.29a0.43,0.43,0,0,0,0,.61l1.2,1.2-0.34.34a0.43,0.43,0,0,0-.13.3v3.86a0.43,0.43,0,0,0,.43.43v0.49a0.43,0.43,0,0,0,.15.33l0.43,0.36a0.43,0.43,0,0,0,.28.1h0.86A0.43,0.43,0,0,0,301,345l0.43-.36a0.43,0.43,0,0,0,.15-0.33v-0.49h0.43v0.91a0.43,0.43,0,0,0,.14.32l0.43,0.38a0.43,0.43,0,0,0,.28.11h0.86a0.43,0.43,0,0,0,.28-0.11l0.43-.38a0.43,0.43,0,0,0,.14-0.32v-0.91a0.43,0.43,0,0,0,.43-0.43v-0.73l0.76-1.14,4.79-4.79a3.19,3.19,0,0,0,1.47.62,6.88,6.88,0,0,1,1.36,3.68,8.85,8.85,0,0,1-5.88,7.94H293.91a0.43,0.43,0,0,0-.43.43V352a0.43,0.43,0,0,0,.43.43h0Zm18.64-15.86h0a2.36,2.36,0,1,1,2.36-2.36,2.36,2.36,0,0,1-2.36,2.36h0Zm-1.07-8.82h0l3.25,3.25-0.25.25L311.23,328l0.25-.25h0ZM311,329h0l2,2a3.17,3.17,0,0,0-.51,0h0l-1.71-1.71L311,329h0Zm-1.29.43h0l1.72,1.72a3.18,3.18,0,0,0-2.12,3.46L306,338a0.43,0.43,0,1,0,.6.62h0l3-3a3.22,3.22,0,0,0,.35.58l-4.52,4.52-0.32-.32a2,2,0,0,0-.08-2.36l3.7-3.7a0.43,0.43,0,0,0-.61-0.61l-3.75,3.75a2,2,0,0,0-.94-0.24,2,2,0,0,0-1.36.54l-0.32-.32,8-8h0Zm-5.5,12.87h0a0.43,0.43,0,0,0-.07.24V343h-4.71v-0.86h4.91l-0.13.19h0Zm-3.07-4.3h0l0.42,0.42a2,2,0,0,0,2.92,2.49l0.33,0.33h-5.39v-1.54l1.71-1.71h0Zm3.46,1.2h0a1.17,1.17,0,1,1-1.17-1.17,1.17,1.17,0,0,1,1.17,1.17h0Zm-5.17-2.48h0l0.68,0.68-0.68.68-0.68-.68,0.68-.68h0Zm1.29,7.4h0l-0.16.13h-0.54l-0.16-.13v-0.29h0.86v0.29h0Zm3,0.42h0l-0.16.14h-0.53l-0.16-.14v-0.71h0.86v0.71h0ZM314.29,341h0a7,7,0,0,0-1.22-3.68,3.22,3.22,0,0,0,2.29-1.61,11.5,11.5,0,0,1,1.27,5.24c0,3-.11,5.38-1.54,8h-5.49a9.6,9.6,0,0,0,4.69-7.94h0Zm-20,8.79h22.29v1.71H294.34v-1.71Z" transform="translate(-293.48 -326.69)"/><path class="cls-2" d="M295.19,347.48a1,1,0,0,0,1,1.07h11.26a1.07,1.07,0,0,0,0-2.14H296.2a1,1,0,0,0-1,1.07h0Zm1-.21h11.26a0.23,0.23,0,0,1,0,.43H296.2A0.23,0.23,0,0,1,296.2,347.26Z" transform="translate(-293.48 -326.69)"/><path class="cls-3" d="M312.55,332.69a1.5,1.5,0,1,0,1.5,1.5,1.5,1.5,0,0,0-1.5-1.5h0Zm0,2.14h0a0.64,0.64,0,1,1,.64-0.64A0.64,0.64,0,0,1,312.55,334.84Z" transform="translate(-293.48 -326.69)"/></svg>