<svg id="_Layer_1" data-name="#Layer 1" xmlns="http://www.w3.org/2000/svg" xmlns:xlink="http://www.w3.org/1999/xlink" viewBox="0 0 24 24"><defs><style>.cls-1{fill-rule:evenodd;fill:url(#GradientFill_1);}</style><linearGradient id="GradientFill_1" x1="188.92" y1="339.55" x2="212.92" y2="339.55" gradientUnits="userSpaceOnUse"><stop offset="0" stop-color="#fff33b"/><stop offset="0.15" stop-color="#ffc709"/><stop offset="0.28" stop-color="#ffc709"/><stop offset="0.66" stop-color="#f49040"/><stop offset="0.88" stop-color="#ed693c"/><stop offset="1" stop-color="#ea3e3a"/></linearGradient></defs><title>pharmacy</title><path class="cls-1" d="M206.92,339.55a6,6,0,0,0-6,5.9v-11.9a6,6,0,0,0-12,0v12a6,6,0,0,0,12,0,6,6,0,1,0,6-6h0Zm0,1.87h0a4.13,4.13,0,0,1,4,3.19h-8a4.13,4.13,0,0,1,4-3.19h0Zm-12-12h0a4.13,4.13,0,0,1,4.13,4.13v5.06h-8.25v-5.06a4.13,4.13,0,0,1,4.13-4.13h0Zm0,20.25h0a4.13,4.13,0,0,1-4.13-4.13v-5.06H199v5.06a4.13,4.13,0,0,1-4.13,4.13h0Zm12,0h0a4.13,4.13,0,0,1-4-3.19h8A4.13,4.13,0,0,1,206.92,349.68Z" transform="translate(-188.92 -327.55)"/></svg>