<svg id="_Layer_1" data-name="#Layer 1" xmlns="http://www.w3.org/2000/svg" xmlns:xlink="http://www.w3.org/1999/xlink" viewBox="0 0 24 24"><defs><style>.cls-1{fill-rule:evenodd;fill:url(#GradientFill_1);}</style><linearGradient id="GradientFill_1" x1="188.92" y1="160" x2="212.92" y2="160" gradientUnits="userSpaceOnUse"><stop offset="0" stop-color="#fff33b"/><stop offset="0.15" stop-color="#ffc709"/><stop offset="0.28" stop-color="#ffc709"/><stop offset="0.66" stop-color="#f49040"/><stop offset="0.88" stop-color="#ed693c"/><stop offset="1" stop-color="#ea3e3a"/></linearGradient></defs><title>sciences</title><path class="cls-1" d="M209.32,153.36a3.65,3.65,0,0,0-3.6,3.7s0,0.07,0,.11l-2.11.73a3.5,3.5,0,0,0-4.19-.9l-3.63-3.73a3.75,3.75,0,0,0-1.77-4.92,3.56,3.56,0,0,0-4.78,1.82,3.75,3.75,0,0,0,1.77,4.92,3.51,3.51,0,0,0,3.28-.14l3.5,3.6a3.74,3.74,0,0,0-.35,2.75l-2.25,1.54a3.56,3.56,0,0,0-5.11.52,3.81,3.81,0,0,0,.51,5.26,3.56,3.56,0,0,0,5.11-.52,3.82,3.82,0,0,0,.7-3.32l2.25-1.54a3.49,3.49,0,0,0,3.38.65l1.12,1.7a3.85,3.85,0,0,0,0,5.33,3.59,3.59,0,0,0,5.19,0,3.85,3.85,0,0,0,0-5.33,3.6,3.6,0,0,0-3.18-1.05l-1.31-2a3.7,3.7,0,0,0,.63-2.65l1.9-.65a3.53,3.53,0,0,0,5,.9,3.77,3.77,0,0,0,.88-5.15,3.57,3.57,0,0,0-2.95-1.57h0Zm-19.58-1.64h0a2.8,2.8,0,1,1,2.8,2.88,2.84,2.84,0,0,1-2.8-2.88h0Zm5.64,2.27h0l4.26,4.39a0.32,0.32,0,0,1,0,.45l0,0a0.3,0.3,0,0,1-.39,0l-4.25-4.37a3.7,3.7,0,0,0,.42-0.46h0Zm-2.44,14.59h0a2.88,2.88,0,1,1,2.8-2.88,2.84,2.84,0,0,1-2.8,2.88h0Zm2.83-5.15h0l2-1.36a3.76,3.76,0,0,0,.35.55l-2,1.36a3.7,3.7,0,0,0-.35-0.55h0Zm12.75,4.74h0a2.8,2.8,0,1,1-2.8-2.88,2.84,2.84,0,0,1,2.8,2.88h0ZM203.78,165h0L202,162.39a0.35,0.35,0,0,1,.1-0.47,0.33,0.33,0,0,1,.46.1l1.76,2.71a3.52,3.52,0,0,0-.57.31h0Zm-0.52-3.48h0a1.11,1.11,0,0,0-1.57-.32,1.18,1.18,0,0,0-.32,1.59l0.2,0.3A2.79,2.79,0,0,1,198.2,161a3,3,0,0,1,.18-1.89l0.25,0.25a1.08,1.08,0,0,0,1.56,0,1.16,1.16,0,0,0,0-1.58l-0.16-.16a2.77,2.77,0,0,1,3.53,1.79,2.94,2.94,0,0,1,.15.94,2.91,2.91,0,0,1-.35,1.39l-0.11-.17h0Zm1-2.53h0a3.77,3.77,0,0,0-.19-0.44l1.75-.6a3.84,3.84,0,0,0,.15.45l-1.7.59h0Zm5,0.9h0a2.88,2.88,0,1,1,2.8-2.88A2.84,2.84,0,0,1,209.32,159.94Z" transform="translate(-188.92 -148)"/></svg>