<svg id="_Layer_1" data-name="#Layer 1" xmlns="http://www.w3.org/2000/svg" xmlns:xlink="http://www.w3.org/1999/xlink" viewBox="0 0 24 23.66"><defs><style>.cls-1{fill-rule:evenodd;fill:url(#GradientFill_1);}</style><linearGradient id="GradientFill_1" x1="293.48" y1="531.54" x2="317.48" y2="531.54" gradientUnits="userSpaceOnUse"><stop offset="0" stop-color="#fff33b"/><stop offset="0.15" stop-color="#ffc709"/><stop offset="0.28" stop-color="#ffc709"/><stop offset="0.66" stop-color="#f49040"/><stop offset="0.88" stop-color="#ed693c"/><stop offset="1" stop-color="#ea3e3a"/></linearGradient></defs><title>veterinary</title><path class="cls-1" d="M299.67,526.34a0.39,0.39,0,1,1,.39.39,0.39,0.39,0,0,1-.39-0.39h0Zm5,0.39h0a0.39,0.39,0,1,0-.39-0.39,0.39,0.39,0,0,0,.39.39h0Zm-11.23.39a8.13,8.13,0,0,0,7.74,8.11V536H302v1.55h0.77V536h0.77v-0.79a8.13,8.13,0,0,0,7.74-8.11V524.4h-1.55v-0.77H309a8.78,8.78,0,0,0,.7-3.41v-0.51l-1.07.13a9.15,9.15,0,0,0-4.41,1.81,5.32,5.32,0,0,0-3.74,0,9.16,9.16,0,0,0-4.41-1.81l-1.07-.13v0.51a8.78,8.78,0,0,0,.7,3.41H295v0.77h-1.55v2.71h0Zm4-2.71a5.39,5.39,0,0,0-.3.77H295.8V524.4h1.69ZM297,529.71h0a2,2,0,0,0,.89,1.66l0.49,0.33a7.34,7.34,0,0,0,.75.43,3.48,3.48,0,1,1,6.58,0,7.32,7.32,0,0,0,.75-0.43l0.49-.33a2,2,0,0,0,.89-1.66,2,2,0,0,0-.4-1.2L307,528v-1.29a4.65,4.65,0,0,0-2.71-4.22v2.28h-0.77v-2.56a4.62,4.62,0,0,0-.77-0.13v2.69H302V522.1a4.62,4.62,0,0,0-.77.13v2.56h-0.77v-2.28a4.65,4.65,0,0,0-2.71,4.22V528l-0.38.5a2,2,0,0,0-.4,1.2h0Zm10.61-4.53a5.38,5.38,0,0,0-.3-0.77H309v0.77h-1.39Zm-4.6,3.41a0.6,0.6,0,0,1-1.17,0l-0.06-.24a2.61,2.61,0,0,1,1.29,0l-0.06.24h0Zm-0.59,4.33a7.26,7.26,0,0,1-2.17-.33,2.69,2.69,0,0,1,.8-3.94l0,0.13a1.37,1.37,0,0,0,1,1V531a0.39,0.39,0,1,1-.77,0h-0.77a2.08,2.08,0,0,0,3.87,0h-0.77a0.39,0.39,0,1,1-.77,0v-1.22a1.37,1.37,0,0,0,1-1l0-.13a2.71,2.71,0,0,1,1.34,2.33,2.68,2.68,0,0,1-.53,1.6,7.27,7.27,0,0,1-2.18.33h0Zm0.39,2.32H302v-1.56h0.77v1.56h0Zm7-10.06h0.77v1.94a7.36,7.36,0,0,1-7,7.34v-0.84a8,8,0,0,0,3.31-1.27l0.49-.33a2.76,2.76,0,0,0,.68-4l-0.22-.29v-1a5.41,5.41,0,0,0-.06-0.77h2v-0.77h0Zm-1.54-1.55h-1.37c-0.09-.14-0.19-0.27-0.3-0.39a8.47,8.47,0,0,1,2.2-1.11,8,8,0,0,1-.53,1.5h0ZM305.05,522a8.39,8.39,0,0,1,3.71-1.41l0.19,0c0,0.23,0,.46-0.06.69a9.24,9.24,0,0,0-2.92,1.41,5.44,5.44,0,0,0-.92-0.66h0Zm-9.24-1.43,0.19,0a8.39,8.39,0,0,1,3.71,1.41,5.46,5.46,0,0,0-.92.66,9.24,9.24,0,0,0-2.92-1.41c0-.23-0.05-0.46-0.06-0.69h0Zm0.76,3a7.93,7.93,0,0,1-.53-1.5,8.48,8.48,0,0,1,2.2,1.11c-0.11.13-.21,0.26-0.3,0.39h-1.37Zm-2.32,3.48h0a7.36,7.36,0,0,0,7,7.34v-0.84a8,8,0,0,1-3.31-1.27l-0.49-.33a2.76,2.76,0,0,1-.68-4l0.22-.29v-1A5.4,5.4,0,0,1,297,526h-2v-0.77h-0.77v1.94h0Zm23.23,4.26h0a3.1,3.1,0,0,1-1.94,2.87V536h-0.77v1.55H314V536h-0.77v-1.78a3.1,3.1,0,1,1,4.26-2.87h0Zm-2.71,3.07h0l-0.39,0-0.39,0v0.8h0.77v-0.8h0Zm1.94-3.07h0a2.32,2.32,0,1,0-2.32,2.32,2.32,2.32,0,0,0,2.32-2.32h0Zm-0.77,0a1.55,1.55,0,1,0-1.55,1.55,1.55,1.55,0,0,0,1.55-1.55h0Zm-0.77,0h0a0.77,0.77,0,1,0-.77.77,0.77,0.77,0,0,0,.77-0.77h0ZM314,540.85v-1h0.77v1a2.52,2.52,0,1,1-5,0v-3.29a1.55,1.55,0,1,0-3.1,0V541a2.32,2.32,0,1,1-4.65,0v-1.16h0.77V541a1.55,1.55,0,1,0,3.1,0v-3.48a2.32,2.32,0,1,1,4.65,0v3.29a1.74,1.74,0,1,0,3.48,0h0Zm-11.23-2.52H302v0.77h0.77v-0.77h0ZM314,539.11h0.77v-0.77H314v0.77Z" transform="translate(-293.48 -519.71)"/></svg>