<svg id="Layer_1" data-name="Layer 1" xmlns="http://www.w3.org/2000/svg" xmlns:xlink="http://www.w3.org/1999/xlink" viewBox="0 0 24 23.99"><defs><style>.cls-1,.cls-2,.cls-3,.cls-4,.cls-5,.cls-6{fill-rule:evenodd;}.cls-1{fill:url(#GradientFill_1);}.cls-2{fill:url(#GradientFill_1-2);}.cls-3{fill:url(#GradientFill_1-3);}.cls-4{fill:url(#GradientFill_1-4);}.cls-5{fill:url(#GradientFill_1-5);}.cls-6{fill:url(#GradientFill_1-6);}</style><linearGradient id="GradientFill_1" x1="202.11" y1="531.56" x2="212.92" y2="531.56" gradientUnits="userSpaceOnUse"><stop offset="0" stop-color="#fff33b"/><stop offset="0.15" stop-color="#ffc709"/><stop offset="0.28" stop-color="#ffc709"/><stop offset="0.66" stop-color="#f49040"/><stop offset="0.88" stop-color="#ed693c"/><stop offset="1" stop-color="#ea3e3a"/></linearGradient><linearGradient id="GradientFill_1-2" x1="205.31" y1="528.16" x2="206.11" y2="528.16" xlink:href="#GradientFill_1"/><linearGradient id="GradientFill_1-3" x1="206.91" y1="528.16" x2="207.71" y2="528.16" xlink:href="#GradientFill_1"/><linearGradient id="GradientFill_1-4" x1="208.51" y1="528.16" x2="209.3" y2="528.16" xlink:href="#GradientFill_1"/><linearGradient id="GradientFill_1-5" x1="206.51" y1="540.96" x2="208.51" y2="540.96" xlink:href="#GradientFill_1"/><linearGradient id="GradientFill_1-6" x1="188.92" y1="531.56" x2="201.31" y2="531.56" xlink:href="#GradientFill_1"/></defs><title>vocational</title><path class="cls-1" d="M204.91,531.63V541a2.6,2.6,0,1,0,5.2,0v-9.33a4.06,4.06,0,0,1,1.23-2.87,7.32,7.32,0,0,0,1.12-1.41h0a6,6,0,0,0-1.71-6.91,0.4,0.4,0,0,0-.56.09l-0.05.09-1.86,4.84-1.63-.54,1.9-4.75a0.4,0.4,0,0,0-.22-0.52l-0.1,0a5.39,5.39,0,0,0-4.48,9.21,3.92,3.92,0,0,1,1.17,2.8h0Zm5.77-10.2h0a4.57,4.57,0,0,1,1.43,3.38,5.49,5.49,0,0,1-.22,1.86l-2.86-1,1.65-4.29h0Zm-3.37-1.06h0.28L205.73,525a0.4,0.4,0,0,0,.22.52h0l2.4,0.8,3.1,1a8.35,8.35,0,0,1-.72.82,4.85,4.85,0,0,0-1.46,3.43V541a1.8,1.8,0,0,1-3.6,0v-9.33a4.72,4.72,0,0,0-1.41-3.38,4.54,4.54,0,0,1-1.39-3.42A4.66,4.66,0,0,1,207.31,520.37Z" transform="translate(-188.92 -519.57)"/><path class="cls-2" d="M205.71,528.76a0.4,0.4,0,0,0,.4-0.4V528a0.4,0.4,0,1,0-.8,0v0.4A0.4,0.4,0,0,0,205.71,528.76Z" transform="translate(-188.92 -519.57)"/><path class="cls-3" d="M207.31,528.76a0.4,0.4,0,0,0,.4-0.4V528a0.4,0.4,0,1,0-.8,0v0.4A0.4,0.4,0,0,0,207.31,528.76Z" transform="translate(-188.92 -519.57)"/><path class="cls-4" d="M208.91,528.76a0.4,0.4,0,0,0,.4-0.4V528a0.4,0.4,0,1,0-.8,0v0.4A0.4,0.4,0,0,0,208.91,528.76Z" transform="translate(-188.92 -519.57)"/><path class="cls-5" d="M207.51,542a1,1,0,1,0-1-1,1,1,0,0,0,1,1h0Zm0-1.2h0a0.2,0.2,0,1,1-.2.2A0.2,0.2,0,0,1,207.51,540.76Z" transform="translate(-188.92 -519.57)"/><path class="cls-6" d="M189.32,526.76h3.6v16.39a0.4,0.4,0,0,0,.4.4h4a0.4,0.4,0,0,0,.4-0.4V526.76h3.2a0.4,0.4,0,0,0,.4-0.4v-5.2a0.4,0.4,0,0,0-.4-0.4h-3.2V520a0.4,0.4,0,0,0-.4-0.4h-4a0.4,0.4,0,0,0-.4.4v0.8a0.4,0.4,0,0,0-.19.05l-3.6,2a0.4,0.4,0,0,0-.21.35v3.2a0.4,0.4,0,0,0,.4.4h0Zm7.6,16h-3.2v-1.6h3.2v1.6h0Zm0-2.4h-3.2v-0.8h3.2v0.8h0Zm0-1.6h-3.2V538h3.2v0.8h0Zm0-1.6h-3.2v-0.8h3.2v0.8h0Zm0-1.6h-3.2v-0.8h3.2v0.8h0Zm0-1.6h-3.2v-7.2h3.2V534h0Zm-3.2-13.59h3.2v0.4h-3.2v-0.4h0Zm-4,3h0l3.3-1.83h7.49V526H189.72V523.4Z" transform="translate(-188.92 -519.57)"/></svg>