<?xml version="1.0" encoding="utf-8"?>
<!-- Generator: Adobe Illustrator 24.1.1, SVG Export Plug-In . SVG Version: 6.00 Build 0)  -->
<svg version="1.1" id="Layer_1" xmlns="http://www.w3.org/2000/svg" xmlns:xlink="http://www.w3.org/1999/xlink" x="0px" y="0px"
	 viewBox="0 0 2000 2000" enable-background="new 0 0 2000 2000" xml:space="preserve">
<g>
	<path opacity="0.3" fill="#DAEEF7" d="M1324.922,969.302h-315.392c-10.234,0-18.529,8.296-18.529,18.529v131.404
		c0,10.234,8.296,18.53,18.529,18.53h32.751c-1.901,14.466-4.389,35.216-3.024,35.216c1.453,0,17.347-21.83,26.957-35.216h258.708
		c10.233,0,18.529-8.296,18.529-18.53V987.831C1343.451,977.598,1335.155,969.302,1324.922,969.302z"/>
	<g>
		<path fill="#FEB546" d="M1339.999,934.372h-315.392c-10.233,0-18.529,8.296-18.529,18.529v131.404
			c0,10.234,8.296,18.53,18.529,18.53h32.751c-1.901,14.466-4.389,35.216-3.024,35.216c1.453,0,17.347-21.829,26.957-35.216h258.708
			c10.234,0,18.53-8.296,18.53-18.53V952.902C1358.528,942.668,1350.233,934.372,1339.999,934.372z"/>
		
			<ellipse transform="matrix(0.7071 -0.7071 0.7071 0.7071 -408.0332 1053.0605)" fill="#FFFFFF" cx="1067.14" cy="1019.07" rx="46.451" ry="46.452"/>
		<g>
			<rect x="1060.851" y="1042.476" fill="#FFC0BB" width="13.639" height="13.618"/>
			<path fill="#F99893" d="M1074.49,1050.641v-8.165h-13.639v6.946C1063.787,1050.997,1068.135,1051.904,1074.49,1050.641z"/>
			<path fill="#FFC0BB" d="M1095.996,1018.101c-1.423-0.701-3.075-0.576-4.57,0.181c0.514-13.438-10.462-24.74-24.286-24.262
				c-13.824-0.478-24.8,10.824-24.286,24.262c-1.496-0.757-3.147-0.882-4.571-0.181c-2.73,1.345-3.579,5.197-1.896,8.604
				c1.684,3.407,5.262,5.08,7.992,3.735c0.379-0.187,0.718-0.426,1.023-0.702c1.564,11.109,10.846,19.437,21.737,19.282
				c10.891,0.155,20.172-8.173,21.737-19.282c0.305,0.276,0.644,0.515,1.023,0.702c2.731,1.345,6.308-0.328,7.992-3.735
				C1099.575,1023.298,1098.727,1019.446,1095.996,1018.101z"/>
			<path fill="#07085B" d="M1050.531,988.695c0,0,6.845-5.794,22.403-4.858c15.559,0.935,18.52,9.055,19.402,20.648l-0.911,13.796
				c0,0-4.039-4.153-9.3-15.67c0,0-8.711,9.776-12.505,8.617c-3.794-1.158,1.435-8.196,1.435-8.196s-17.748,15.271-28.202,15.248
				c0,0-5.532-17.872,2.233-24.429c0,0-5.849,0.279-6.159-0.872c-0.309-1.15,2.79-2.871,8.412-2.221c0,0-4.006-7.836-1.768-8.651
				C1047.81,981.294,1050.531,988.695,1050.531,988.695z"/>
			<path fill="#FFFFFF" d="M1076.065,1033.974c-0.599,2.694-3.683,4.811-7.463,4.927c-3.78,0.115-6.988-1.81-7.751-4.462
				L1076.065,1033.974z"/>
		</g>
		<path fill="#FFFFFF" d="M1312.104,980.311h-180.173c-1.3,0-2.353-1.054-2.353-2.353v-3.366c0-1.3,1.054-2.353,2.353-2.353h180.172
			c1.3,0,2.353,1.054,2.353,2.353v3.366C1314.457,979.258,1313.403,980.311,1312.104,980.311z"/>
		<path fill="#FFFFFF" d="M1170.887,1001.611h-38.957c-1.299,0-2.353-1.053-2.353-2.352v-3.366c0-1.299,1.053-2.353,2.353-2.353
			h38.956c1.299,0,2.353,1.053,2.353,2.352v3.366C1173.24,1000.557,1172.186,1001.611,1170.887,1001.611z"/>
		<path fill="#FFFFFF" d="M1312.104,1001.611H1192.07c-1.299,0-2.353-1.053-2.353-2.352v-3.366c0-1.299,1.053-2.353,2.353-2.353
			h120.033c1.3,0,2.353,1.054,2.353,2.353v3.366C1314.457,1000.557,1313.403,1001.611,1312.104,1001.611z"/>
		<path fill="#FFFFFF" d="M1222.734,1022.91h-90.803c-1.3,0-2.353-1.053-2.353-2.353v-3.365c0-1.299,1.053-2.353,2.353-2.353h90.802
			c1.3,0,2.353,1.053,2.353,2.353v3.366C1225.087,1021.857,1224.033,1022.91,1222.734,1022.91z"/>
		<path fill="#FFFFFF" d="M1312.104,1022.91h-70.694c-1.299,0-2.353-1.053-2.353-2.353v-3.366c0-1.299,1.053-2.352,2.353-2.352
			h70.694c1.3,0,2.353,1.053,2.353,2.353v3.366C1314.457,1021.857,1313.403,1022.91,1312.104,1022.91z"/>
		<path fill="#FFFFFF" d="M1312.104,1044.21h-180.173c-1.3,0-2.353-1.053-2.353-2.353v-3.365c0-1.299,1.053-2.353,2.353-2.353
			h180.172c1.3,0,2.353,1.053,2.353,2.353v3.366C1314.457,1043.156,1313.403,1044.21,1312.104,1044.21z"/>
	</g>
</g>
<path fill="#FFFFFF" d="M1128.227,1214.942c-6.081,32.728-12.519,65.328-19.063,97.88c-6.685,32.521-13.597,64.977-21.469,97.178
	c-7.781,32.215-16.43,64.216-26.891,95.592c-5.239,15.686-11.093,31.157-17.95,46.178c-6.765,15.053-14.781,29.623-25.532,42.363
	c12.227-11.417,21.222-25.887,29.345-40.465c7.875-14.783,14.669-30.131,20.52-45.787c5.98-15.615,11.108-31.527,15.969-47.497
	c4.688-16.021,8.977-32.148,12.979-48.337c3.816-16.233,7.478-32.497,10.763-48.833c3.171-16.359,6.29-32.724,8.911-49.173
	C1121.246,1281.184,1125.473,1248.126,1128.227,1214.942z"/>
<path fill="#FFFFFF" d="M1523.968,1498.915c-11.648,2.775-23.467,4.805-35.166,7.269c-23.552,4.294-47.175,8.035-70.867,11.36
	c-23.722,3.113-47.476,5.98-71.292,8.277c-23.724,2.354-47.852,4.374-71.333,5.686l-3.161,0.177l-0.692,2.736
	c-2.017,7.963-3.332,15.732-4.335,23.693c-0.996,7.929-1.41,15.927-1.399,23.929c0.066,8.007,0.757,16.023,2.074,23.95
	c1.46,7.917,3.801,15.675,6.954,23.104l0.273,0.644l0.512,0.343l26.093,17.503c8.693,5.842,17.419,11.636,26.229,17.315
	c-8.179-6.556-16.439-12.995-24.734-19.389l-24.268-18.736c-2.515-7.017-4.303-14.274-5.285-21.689
	c-0.923-7.606-1.346-15.283-1.117-22.978c0.254-7.692,1.015-15.369,2.092-23c0.974-6.615,2.264-13.3,3.896-19.69
	c11.264-0.369,22.054-1.103,33.106-1.907c11.997-0.886,23.988-1.836,35.95-3.097c23.928-2.472,47.807-5.456,71.567-9.253
	c23.755-3.832,47.388-8.47,70.804-14.001c11.663-2.981,23.343-5.854,34.824-9.477c11.574-3.253,22.915-7.307,34.217-11.327
	C1547.226,1493.198,1535.706,1496.464,1523.968,1498.915z"/>
<path fill="#07085B" d="M778.284,1195.61h452.774c13.89,0,26.402,8.396,31.667,21.248l138.641,338.402h250.329
	c7,0,12.675,5.675,12.675,12.675l0,0c0,7-5.675,12.675-12.675,12.675H928.982c-13.348,0-25.452-7.837-30.914-20.016
	l-145.736-324.898C743.889,1216.877,757.658,1195.61,778.284,1195.61z"/>
<g>
	<path opacity="0.3" fill="#DAEEF7" d="M1048.911,734.392H717.419c-11.45,0-20.733,9.283-20.733,20.733v136.799
		c0,11.451,9.283,20.733,20.733,20.733h260.983c10.563,14.739,29.713,41.133,31.403,41.133c1.583,0-1.464-24.93-3.612-41.133h42.718
		c11.45,0,20.733-9.282,20.733-20.733V755.125C1069.644,743.675,1060.362,734.392,1048.911,734.392z"/>
	<path fill="#FF5B7E" d="M1035.225,698.907H703.733c-11.451,0-20.733,9.283-20.733,20.733V856.44
		c0,11.45,9.282,20.733,20.733,20.733h260.983c10.562,14.739,29.713,41.133,31.403,41.133c1.583,0-1.464-24.93-3.612-41.133h42.717
		c11.451,0,20.733-9.282,20.733-20.733V719.641C1055.958,708.19,1046.676,698.907,1035.225,698.907z"/>
	
		<ellipse transform="matrix(0.9225 -0.3861 0.3861 0.9225 -245.7863 352.2895)" fill="#FFFFFF" cx="754.146" cy="788.04" rx="51.975" ry="51.975"/>
	<path fill="#040744" d="M727.091,789.405c0,0-5.154-21.149,7.124-29.069c12.279-7.921,25.388-9.733,34.347-5.169
		c12.419,6.325,17.521,23.419,13.548,32.873l-32.963-8.279L727.091,789.405z"/>
	<g>
		<rect x="747.11" y="814.229" fill="#FFC0BB" width="15.261" height="15.237"/>
		<path fill="#F99893" d="M762.371,823.365v-9.135H747.11v7.772C750.395,823.763,755.26,824.778,762.371,823.365z"/>
		<path fill="#FFC0BB" d="M786.434,786.956c-1.592-0.784-3.44-0.644-5.114,0.202c0.574-15.035-11.706-27.682-27.174-27.147
			c-15.468-0.535-27.749,12.112-27.174,27.147c-1.673-0.847-3.521-0.987-5.113-0.202c-3.055,1.505-4.005,5.815-2.121,9.628
			c1.884,3.813,5.887,5.684,8.943,4.179c0.424-0.209,0.803-0.477,1.145-0.785c1.751,12.43,12.136,21.748,24.322,21.575
			c12.186,0.173,22.571-9.145,24.322-21.575c0.341,0.308,0.72,0.576,1.144,0.785c3.055,1.505,7.059-0.367,8.943-4.179
			C790.439,792.771,789.489,788.461,786.434,786.956z"/>
		<path fill="#FFFFFF" d="M764.132,804.716c-0.671,3.014-4.121,5.383-8.35,5.512c-4.229,0.129-7.818-2.025-8.672-4.992
			L764.132,804.716z"/>
	</g>
	<path fill="#040744" d="M726.972,787.158c0,0,19.973-6.052,28.715-16.154c0,0-2.474,12.172-4.32,14.114
		c0.583,0.388,19.949-9.028,22.579-17.716c2.631-8.689-19.8-11.811-19.8-11.811s-7.687,3.271-8.076,3.465
		c-0.388,0.194-7.598,1.035-8.425,2.875c-1.076,2.393-6.166,2.605-6.166,2.605l-3.213,6.687l-2.249,7.035L726.972,787.158z"/>
	<path fill="#040744" d="M710.61,759.645c4.412,1.776,9.507,2.597,14.79,0.974c11.655-3.582,16.273-2.192,17.823-1.313
		c0.932,0.529,2.042,0.737,3.058,0.398c1.15-0.384,2.217-1.423,1.885-4.05c0,0,0.461-11.075-9.032-17.384
		C727.291,741.837,717.231,749.514,710.61,759.645z"/>
	<g>
		<g>
			<path fill="#FEB546" d="M735.689,758.916l-0.003-0.004c-0.345-0.455-0.236-1.107,0.24-1.42c1.947-1.28,6.956-4.161,12.969-4.468
				c0.564-0.029,1.037,0.425,1.037,0.989l0,0c0,0.526-0.413,0.957-0.938,0.984c-5.497,0.286-10.209,2.997-11.984,4.152
				C736.578,759.431,736.001,759.328,735.689,758.916z"/>
		</g>
	</g>
	<path fill="#FFFFFF" d="M883.016,752.294h-63.89c-1.585,0-2.869-1.285-2.869-2.869v-3.294c0-1.584,1.284-2.869,2.869-2.869h63.891
		c1.584,0,2.869,1.284,2.869,2.869v3.294C885.886,751.01,884.601,752.294,883.016,752.294z"/>
	<path fill="#FFFFFF" d="M860.421,776.126h-41.295c-1.585,0-2.869-1.285-2.869-2.869v-3.294c0-1.584,1.284-2.869,2.869-2.869h41.296
		c1.584,0,2.869,1.284,2.869,2.869v3.294C863.29,774.842,862.005,776.126,860.421,776.126z"/>
	<path fill="#FFFFFF" d="M926.41,776.126h-52.141c-1.585,0-2.869-1.285-2.869-2.869v-3.294c0-1.584,1.284-2.869,2.869-2.869h52.141
		c1.585,0,2.869,1.285,2.869,2.869v3.294C929.279,774.842,927.994,776.126,926.41,776.126z"/>
	<path fill="#FFFFFF" d="M1012.542,752.294H900.292c-1.584,0-2.869-1.284-2.869-2.869v-3.294c0-1.584,1.284-2.869,2.869-2.869
		h112.25c1.584,0,2.869,1.284,2.869,2.869v3.294C1015.411,751.01,1014.126,752.294,1012.542,752.294z"/>
	<path fill="#FFFFFF" d="M1012.542,822.841H819.126c-1.585,0-2.869-1.284-2.869-2.869v-3.294c0-1.585,1.285-2.869,2.869-2.869
		h193.416c1.584,0,2.869,1.284,2.869,2.869v3.294C1015.411,821.556,1014.126,822.841,1012.542,822.841z"/>
	<path fill="#FFFFFF" d="M916.271,799.959h-97.145c-1.585,0-2.869-1.285-2.869-2.869v-3.294c0-1.584,1.284-2.869,2.869-2.869h97.146
		c1.584,0,2.869,1.284,2.869,2.869v3.294C919.14,798.674,917.855,799.959,916.271,799.959z"/>
	<path fill="#FFFFFF" d="M1012.542,799.959h-75.483c-1.585,0-2.869-1.285-2.869-2.869v-3.294c0-1.584,1.284-2.869,2.869-2.869
		h75.484c1.584,0,2.869,1.284,2.869,2.869v3.294C1015.411,798.674,1014.126,799.959,1012.542,799.959z"/>
</g>
<ellipse transform="matrix(0.9785 -0.2063 0.2063 0.9785 -292.3824 188.4123)" fill="#FFFFFF" cx="757.067" cy="1495.903" rx="28.612" ry="39.136"/>
<g>
	<g>
		<path fill="#C12F56" d="M1358.475,776.072l9.686,72.984l-51.841-37.859l-158.672-81.06l122.731,11.236
			c0,0,62.523,15.189,65.907,18.252C1349.67,762.688,1358.475,776.072,1358.475,776.072z"/>
		<polygon fill="#FF5B7E" points="1412.822,732 1157.647,730.137 1358.475,776.072 		"/>
		<polygon fill="#FF5B7E" points="1276.446,849.497 1343.308,795.79 1157.647,730.137 		"/>
	</g>
	<g>
		<g>
			<path fill="#FEB546" d="M1674.069,1170.533l-3.367-4.978c5.157-3.488,9.882-7.765,14.044-12.711l4.598,3.868
				C1684.826,1162.083,1679.687,1166.734,1674.069,1170.533z"/>
		</g>
		<g>
			<path fill="#FEB546" d="M1707.834,1121.557l-5.734-1.8c3.481-11.085,5.782-23.671,6.837-37.408l5.991,0.46
				C1713.838,1097.001,1711.452,1110.038,1707.834,1121.557z M1714.727,1043.533l-5.979,0.606c-0.166-1.649-0.359-3.295-0.577-4.939
				c-0.743-5.593-1.813-11.242-3.182-16.794c-1.262-5.116-2.807-10.269-4.594-15.315l5.666-2.005
				c1.852,5.231,3.454,10.575,4.763,15.882c1.422,5.763,2.534,11.63,3.305,17.439
				C1714.35,1040.069,1714.551,1041.794,1714.727,1043.533z M1683.904,972.765c-6.424-10.494-14.087-20.819-22.779-30.69
				l4.509-3.971c8.921,10.129,16.792,20.735,23.396,31.523L1683.904,972.765z M1496.153,958.549
				c-4.093,1.009-14.515,1.239-21.206-2.75c-5.003-2.982-9.168-7.665-12.043-13.544l5.398-2.641
				c2.396,4.897,5.667,8.606,9.721,11.023c4.825,2.876,13.43,2.881,16.691,2.076c0.436-0.107,0.604-0.189,0.605-0.19
				c0.253-0.162,0.556-0.359,0.855-0.559l3.336,4.998c-0.344,0.229-0.689,0.455-1.039,0.675
				C1497.881,958.012,1497.121,958.31,1496.153,958.549z M1633.74,915.256c-9.563-8.14-19.917-15.868-30.773-22.971l3.291-5.029
				c11.066,7.241,21.623,15.122,31.378,23.423L1633.74,915.256z M1521.16,923.197l-5.882-1.233
				c0.776-3.702,1.174-7.478,1.184-11.223c0.014-5.275-0.663-10.723-2.012-16.191c-0.732-2.968-1.675-5.995-2.803-8.997l5.625-2.114
				c1.211,3.222,2.225,6.476,3.013,9.672c1.466,5.944,2.201,11.88,2.187,17.646C1522.46,914.909,1522.02,919.095,1521.16,923.197z
				 M1468.333,904.705l-5.421-2.592c5.445-11.387,15.676-21.363,28.074-27.368l0.827-0.395l2.556,5.439l-0.763,0.363
				C1482.413,885.575,1473.201,894.524,1468.333,904.705z M1568.027,877.759c-10.895-3.328-19.547-5.35-23.736-5.55
				c-4.805-0.229-9.198-0.278-13.43-0.15l-0.183-6.006c4.391-0.133,8.938-0.082,13.899,0.154c6.389,0.304,18.534,3.768,25.206,5.806
				L1568.027,877.759z M1492.167,853.435c-8.195-9.597-17.781-17.938-28.494-24.789l3.239-5.063
				c11.211,7.171,21.246,15.902,29.824,25.951L1492.167,853.435z"/>
		</g>
		<g>
			<path fill="#FEB546" d="M1429.204,813.254c-6.321-1.738-12.703-2.942-18.973-3.578l0.607-5.979
				c6.601,0.669,13.317,1.936,19.959,3.763L1429.204,813.254z"/>
		</g>
	</g>
</g>
<ellipse transform="matrix(0.9928 -0.1199 0.1199 0.9928 -160.4898 137.1976)" fill="#FFFFFF" cx="1059.991" cy="1402.414" rx="25.343" ry="26.01"/>
</svg>
