<?xml version="1.0" encoding="UTF-8"?>
<!DOCTYPE svg PUBLIC "-//W3C//DTD SVG 1.1//EN" "http://www.w3.org/Graphics/SVG/1.1/DTD/svg11.dtd">
<!-- Creator: CorelDRAW X7 -->
<svg xmlns="http://www.w3.org/2000/svg" xml:space="preserve" width="183.546mm" height="126.399mm" version="1.1" style="shape-rendering:geometricPrecision; text-rendering:geometricPrecision; image-rendering:optimizeQuality; fill-rule:evenodd; clip-rule:evenodd"
viewBox="0 0 1364 939"
 xmlns:xlink="http://www.w3.org/1999/xlink">
 <defs>
  <style type="text/css">
   <![CDATA[
    .str0 {stroke:#524F62;stroke-width:2.62203}
    .fil33 {fill:none;fill-rule:nonzero}
    .fil36 {fill:#2B2A29;fill-rule:nonzero}
    .fil3 {fill:#B5E0F4;fill-rule:nonzero}
    .fil31 {fill:#36344B;fill-rule:nonzero}
    .fil13 {fill:#423F50;fill-rule:nonzero}
    .fil23 {fill:#494449;fill-rule:nonzero}
    .fil5 {fill:#524F62;fill-rule:nonzero}
    .fil19 {fill:#5B60D3;fill-rule:nonzero}
    .fil4 {fill:#5BB59A;fill-rule:nonzero}
    .fil6 {fill:#62A590;fill-rule:nonzero}
    .fil29 {fill:#75444F;fill-rule:nonzero}
    .fil30 {fill:#8283E4;fill-rule:nonzero}
    .fil20 {fill:#8285E6;fill-rule:nonzero}
    .fil18 {fill:#906069;fill-rule:nonzero}
    .fil15 {fill:#9091EB;fill-rule:nonzero}
    .fil34 {fill:#BCBACD;fill-rule:nonzero}
    .fil26 {fill:#D88E9C;fill-rule:nonzero}
    .fil12 {fill:#DFE4ED;fill-rule:nonzero}
    .fil16 {fill:#E9D18C;fill-rule:nonzero}
    .fil14 {fill:#EDBCC4;fill-rule:nonzero}
    .fil24 {fill:#EFF2F6;fill-rule:nonzero}
    .fil0 {fill:white;fill-rule:nonzero}
    .fil28 {fill:#494449;fill-rule:nonzero;fill-opacity:0.701961}
    .fil17 {fill:url(#id28);fill-rule:nonzero}
    .fil21 {fill:url(#id29);fill-rule:nonzero}
    .fil27 {fill:url(#id30);fill-rule:nonzero}
    .fil2 {fill:url(#id31);fill-rule:nonzero}
    .fil32 {fill:url(#id32);fill-rule:nonzero}
    .fil25 {fill:url(#id33);fill-rule:nonzero}
    .fil35 {fill:url(#id34);fill-rule:nonzero}
    .fil1 {fill:url(#id35);fill-rule:nonzero}
    .fil22 {fill:url(#id36);fill-rule:nonzero}
    .fil9 {fill:url(#id37);fill-rule:nonzero}
    .fil11 {fill:url(#id38);fill-rule:nonzero}
    .fil7 {fill:url(#id39);fill-rule:nonzero}
    .fil10 {fill:url(#id40);fill-rule:nonzero}
    .fil8 {fill:url(#id41);fill-rule:nonzero}
   ]]>
  </style>
    <mask id="id0">
  <linearGradient id="id1" gradientUnits="userSpaceOnUse" x1="179.677" y1="824.849" x2="-52.1965" y2="979.432">
   <stop offset="0" style="stop-opacity:0.00784314; stop-color:white"/>
   <stop offset="1" style="stop-opacity:0.317647; stop-color:white"/>
  </linearGradient>
     <rect style="fill:url(#id1)" x="35" y="868" width="130.893" height="18.7719"/>
    </mask>
    <mask id="id2">
  <linearGradient id="id3" gradientUnits="userSpaceOnUse" x1="1378.25" y1="827.758" x2="1146.38" y2="982.341">
   <stop offset="0" style="stop-opacity:0.00784314; stop-color:white"/>
   <stop offset="1" style="stop-opacity:0.317647; stop-color:white"/>
  </linearGradient>
     <rect style="fill:url(#id3)" x="1234" y="871" width="130.893" height="18.7719"/>
    </mask>
    <mask id="id4">
  <linearGradient id="id5" gradientUnits="userSpaceOnUse" x1="380.099" y1="787.569" x2="-139.143" y2="1133.73">
   <stop offset="0" style="stop-opacity:0.00784314; stop-color:white"/>
   <stop offset="1" style="stop-opacity:0.317647; stop-color:white"/>
  </linearGradient>
     <rect style="fill:url(#id5)" x="55" y="887" width="294.382" height="38.3851"/>
    </mask>
    <mask id="id6">
  <linearGradient id="id7" gradientUnits="userSpaceOnUse" x1="1357.54" y1="802.114" x2="838.297" y2="1148.28">
   <stop offset="0" style="stop-opacity:0.00784314; stop-color:white"/>
   <stop offset="1" style="stop-opacity:0.317647; stop-color:white"/>
  </linearGradient>
     <rect style="fill:url(#id7)" x="1033" y="901" width="294.381" height="38.3844"/>
    </mask>
    <mask id="id8">
  <linearGradient id="id9" gradientUnits="userSpaceOnUse" x1="717.549" y1="783.204" x2="198.306" y2="1129.37">
   <stop offset="0" style="stop-opacity:0.00784314; stop-color:white"/>
   <stop offset="1" style="stop-opacity:0.317647; stop-color:white"/>
  </linearGradient>
     <rect style="fill:url(#id9)" x="393" y="882" width="294.379" height="38.3836"/>
    </mask>
    <mask id="id10">
  <linearGradient id="id11" gradientUnits="userSpaceOnUse" x1="1104.45" y1="777.386" x2="585.211" y2="1123.55">
   <stop offset="0" style="stop-opacity:0.00784314; stop-color:white"/>
   <stop offset="1" style="stop-opacity:0.317647; stop-color:white"/>
  </linearGradient>
     <rect style="fill:url(#id11)" x="780" y="877" width="294.379" height="38.3844"/>
    </mask>
    <mask id="id12">
  <linearGradient id="id13" gradientUnits="userSpaceOnUse" x1="807.146" y1="789.641" x2="480.458" y2="1007.43">
   <stop offset="0" style="stop-opacity:0.00784314; stop-color:white"/>
   <stop offset="1" style="stop-opacity:0.317647; stop-color:white"/>
  </linearGradient>
     <rect style="fill:url(#id13)" x="607" y="845" width="176.074" height="38.3836"/>
    </mask>
     <mask id="id14">
  <linearGradient id="id15" gradientUnits="userSpaceOnUse" x1="437.653" y1="578.926" x2="480.422" y2="578.926">
   <stop offset="0" style="stop-opacity:0; stop-color:white"/>
   <stop offset="1" style="stop-opacity:0.34902; stop-color:white"/>
  </linearGradient>
      <rect style="fill:url(#id15)" x="437" y="533" width="43.3356" height="91.9576"/>
     </mask>
     <mask id="id16">
  <linearGradient id="id17" gradientUnits="userSpaceOnUse" x1="322.789" y1="586.421" x2="421.687" y2="586.421">
   <stop offset="0" style="stop-opacity:0; stop-color:white"/>
   <stop offset="1" style="stop-opacity:0.498039; stop-color:white"/>
  </linearGradient>
      <rect style="fill:url(#id17)" x="323" y="536" width="99.4647" height="101.57"/>
     </mask>
     <mask id="id18">
  <linearGradient id="id19" gradientUnits="userSpaceOnUse" x1="455.516" y1="624.906" x2="671.752" y2="539.376">
   <stop offset="0" style="stop-opacity:0; stop-color:white"/>
   <stop offset="1" style="stop-opacity:0.698039; stop-color:white"/>
  </linearGradient>
      <rect style="fill:url(#id19)" x="519" y="529" width="56.3491" height="119.179"/>
     </mask>
     <mask id="id20">
  <linearGradient id="id21" gradientUnits="userSpaceOnUse" x1="667.43" y1="511.892" x2="714.477" y2="387.443">
   <stop offset="0" style="stop-opacity:0; stop-color:white"/>
   <stop offset="1" style="stop-opacity:0.498039; stop-color:white"/>
  </linearGradient>
      <rect style="fill:url(#id21)" x="655" y="417" width="76.1407" height="56.8634"/>
     </mask>
     <mask id="id22">
  <linearGradient id="id23" gradientUnits="userSpaceOnUse" x1="887.304" y1="584.064" x2="981.007" y2="584.064">
   <stop offset="0" style="stop-opacity:0; stop-color:white"/>
   <stop offset="1" style="stop-opacity:1; stop-color:white"/>
  </linearGradient>
      <rect style="fill:url(#id23)" x="887" y="518" width="94.269" height="131.926"/>
     </mask>
     <mask id="id24">
  <linearGradient id="id25" gradientUnits="userSpaceOnUse" x1="1102.44" y1="583.057" x2="1116.73" y2="495.096">
   <stop offset="0" style="stop-opacity:0; stop-color:white"/>
   <stop offset="1" style="stop-opacity:0.498039; stop-color:white"/>
  </linearGradient>
      <rect style="fill:url(#id25)" x="1098" y="506" width="23.7685" height="64.2115"/>
     </mask>
     <mask id="id26">
  <linearGradient id="id27" gradientUnits="userSpaceOnUse" x1="658.256" y1="753.9" x2="729.95" y2="423.003">
   <stop offset="0" style="stop-opacity:0; stop-color:white"/>
   <stop offset="1" style="stop-opacity:0.698039; stop-color:white"/>
  </linearGradient>
      <rect style="fill:url(#id27)" x="312" y="651" width="722.011" height="66.505"/>
     </mask>
  <linearGradient id="id28" gradientUnits="userSpaceOnUse" x1="437.653" y1="578.926" x2="480.422" y2="578.926">
   <stop offset="0" style="stop-opacity:1; stop-color:#E9D18C"/>
   <stop offset="1" style="stop-opacity:1; stop-color:#524F62"/>
  </linearGradient>
  <linearGradient id="id29" gradientUnits="userSpaceOnUse" x1="322.789" y1="586.421" x2="421.687" y2="586.421">
   <stop offset="0" style="stop-opacity:1; stop-color:#484DC1"/>
   <stop offset="1" style="stop-opacity:1; stop-color:#444BCC"/>
  </linearGradient>
  <linearGradient id="id30" gradientUnits="userSpaceOnUse" x1="887.304" y1="584.064" x2="981.007" y2="584.064">
   <stop offset="0" style="stop-opacity:1; stop-color:#B55679"/>
   <stop offset="1" style="stop-opacity:1; stop-color:#C35670"/>
  </linearGradient>
  <linearGradient id="id31" gradientUnits="userSpaceOnUse" x1="1378.25" y1="827.758" x2="1146.38" y2="982.341">
   <stop offset="0" style="stop-opacity:1; stop-color:#494FC1"/>
   <stop offset="1" style="stop-opacity:1; stop-color:#444BCC"/>
  </linearGradient>
  <linearGradient id="id32" gradientUnits="userSpaceOnUse" xlink:href="#id29" x1="1102.44" y1="583.057" x2="1116.73" y2="495.096">
  </linearGradient>
  <linearGradient id="id33" gradientUnits="userSpaceOnUse" xlink:href="#id29" x1="667.43" y1="511.892" x2="714.477" y2="387.443">
  </linearGradient>
  <linearGradient id="id34" gradientUnits="userSpaceOnUse" x1="658.256" y1="753.9" x2="729.95" y2="423.003">
   <stop offset="0" style="stop-opacity:1; stop-color:#676475"/>
   <stop offset="1" style="stop-opacity:1; stop-color:#524F62"/>
  </linearGradient>
  <linearGradient id="id35" gradientUnits="userSpaceOnUse" xlink:href="#id31" x1="179.677" y1="824.849" x2="-52.1965" y2="979.432">
  </linearGradient>
  <linearGradient id="id36" gradientUnits="userSpaceOnUse" xlink:href="#id28" x1="455.516" y1="624.906" x2="671.752" y2="539.376">
  </linearGradient>
  <linearGradient id="id37" gradientUnits="userSpaceOnUse" xlink:href="#id31" x1="717.549" y1="783.204" x2="198.306" y2="1129.37">
  </linearGradient>
  <linearGradient id="id38" gradientUnits="userSpaceOnUse" xlink:href="#id31" x1="807.146" y1="789.641" x2="480.458" y2="1007.43">
  </linearGradient>
  <linearGradient id="id39" gradientUnits="userSpaceOnUse" xlink:href="#id31" x1="380.099" y1="787.569" x2="-139.143" y2="1133.73">
  </linearGradient>
  <linearGradient id="id40" gradientUnits="userSpaceOnUse" xlink:href="#id31" x1="1104.45" y1="777.386" x2="585.211" y2="1123.55">
  </linearGradient>
  <linearGradient id="id41" gradientUnits="userSpaceOnUse" xlink:href="#id31" x1="1357.54" y1="802.114" x2="838.297" y2="1148.28">
  </linearGradient>
 </defs>
 <g id="Layer_x0020_1">
  <metadata id="CorelCorpID_0Corel-Layer"/>
  <g id="_1457136622144">
   <g>
    <polygon class="fil0" points="1240,578 700,578 700,0 1240,0 "/>
   </g>
   <path class="fil1" style="mask:url(#id0)" d="M166 878c0,5 -30,9 -66,9 -36,0 -65,-4 -65,-9 0,-5 29,-9 65,-9 36,0 66,4 66,9z"/>
   <path class="fil2" style="mask:url(#id2)" d="M1364 881c0,5 -29,9 -65,9 -36,0 -65,-4 -65,-9 0,-5 29,-9 65,-9 36,0 65,4 65,9z"/>
   <g>
    <polygon class="fil0" points="655,578 115,578 115,0 713,0 713,255 655,256 "/>
   </g>
   <polygon class="fil3" points="1246,291 1182,291 1182,401 1111,401 1111,433 1053,433 1053,328 984,328 984,473 910,473 910,291 864,291 864,442 851,442 851,410 784,410 784,473 758,473 758,255 694,255 694,433 694,433 694,578 1246,578 "/>
   <polygon class="fil3" points="661,291 609,291 609,401 538,401 538,433 480,433 480,265 410,265 410,473 344,473 344,291 291,291 291,442 278,442 278,410 210,410 210,473 185,473 185,255 109,255 109,519 109,578 661,578 "/>
   <g>
    <path class="fil4" d="M50 596c0,0 -20,89 12,150 32,60 32,60 32,60 0,0 8,-151 -44,-210z"/>
    <path class="fil0" d="M51 829c2,11 5,22 10,32 5,9 14,18 25,20 5,1 10,1 15,1 6,0 11,0 16,-3 6,-4 10,-11 12,-17 4,-12 8,-24 10,-36 1,-7 2,-14 -1,-20 -5,-9 -15,-12 -24,-14 -16,-2 -38,-4 -53,3 -13,5 -12,22 -10,34z"/>
    <path class="fil5" d="M87 807c12,0 26,-1 33,-6 2,-1 3,-2 3,-3 -1,-1 -5,-1 -7,-2 -15,-1 -32,-2 -47,1 -21,3 6,9 18,10z"/>
    <path class="fil6" d="M80 574c0,0 -10,170 14,232 0,0 15,-151 -14,-232z"/>
    <path class="fil4" d="M91 805l5 0c8,-34 32,-143 20,-194 0,0 -41,144 -31,176 3,8 4,14 6,18z"/>
   </g>
   <g>
    <path class="fil4" d="M1251 602c0,0 -20,89 12,150 32,60 32,60 32,60 0,0 9,-151 -44,-210z"/>
    <path class="fil0" d="M1253 835c2,11 4,22 9,31 6,10 15,18 25,21 5,1 10,1 16,1 5,0 11,0 16,-3 6,-4 9,-11 12,-18 4,-11 7,-23 9,-35 2,-7 2,-14 -1,-21 -4,-8 -15,-12 -24,-13 -16,-3 -37,-4 -52,2 -13,6 -12,23 -10,35z"/>
    <path class="fil5" d="M1288 812c13,1 26,-1 34,-5 1,-1 3,-2 2,-3 -1,-1 -4,-2 -7,-2 -15,-1 -31,-2 -46,0 -22,4 6,10 17,10z"/>
    <path class="fil6" d="M1282 580c0,0 -11,170 13,232 0,0 15,-151 -13,-232z"/>
    <path class="fil4" d="M1292 811l6 0c8,-34 32,-143 19,-194 0,0 -40,143 -30,175 2,9 4,15 5,19z"/>
   </g>
   <path class="fil7" style="mask:url(#id4)" d="M349 906c0,10 -65,19 -146,19 -82,0 -147,-9 -147,-19 0,-11 65,-19 147,-19 81,0 146,8 146,19z"/>
   <path class="fil8" style="mask:url(#id6)" d="M1327 920c0,11 -66,19 -147,19 -81,0 -147,-8 -147,-19 0,-10 66,-18 147,-18 81,0 147,8 147,18z"/>
   <path class="fil9" style="mask:url(#id8)" d="M687 902c0,10 -66,18 -147,18 -81,0 -147,-8 -147,-18 0,-11 66,-19 147,-19 81,0 147,8 147,19z"/>
   <path class="fil10" style="mask:url(#id10)" d="M1074 896c0,10 -66,19 -147,19 -81,0 -147,-9 -147,-19 0,-11 66,-19 147,-19 81,0 147,8 147,19z"/>
   <path class="fil11" style="mask:url(#id12)" d="M783 864c0,11 -39,19 -88,19 -48,0 -87,-8 -87,-19 0,-10 39,-19 87,-19 49,0 88,9 88,19z"/>
   <g>
    <path class="fil12" d="M229 399l55 9 -26 -24 12 -14 48 43c7,7 2,18 -7,19l-67 2 -15 -35z"/>
    <polygon class="fil5" points="252,541 251,903 232,905 219,598 201,599 183,902 164,901 166,535 "/>
    <path class="fil12" d="M229 399l-64 -2c-7,-1 -13,2 -18,7l19 147 88 2 -8 -135c0,0 -15,-19 -17,-19z"/>
    <path class="fil0" d="M258 371c-4,3 -8,6 -9,10 -1,4 2,8 6,9 3,1 8,1 11,-1 6,-2 10,-7 12,-14 0,-4 -2,-13 -7,-14 -6,-2 -9,7 -13,10z"/>
    <polygon class="fil13" points="164,901 127,912 128,915 182,909 183,902 "/>
    <path class="fil14" d="M44 400l-6 -10 7 -13c0,0 3,-9 3,-12 0,-3 -3,-7 -6,-2 -3,5 -6,9 -6,9l-17 -26c-1,0 -1,-1 -2,-1 -2,0 -4,2 -3,4l4 8c2,2 -1,5 -3,3l-1 0c-5,-3 -11,-2 -14,2l0 0 0 9c0,6 3,11 7,15 11,8 29,23 29,22 1,-2 8,-8 8,-8z"/>
    <path class="fil14" d="M243 343c-3,-1 -6,0 -7,2 -2,2 -2,5 -1,8 2,4 7,8 12,7 5,-1 9,-6 8,-11 -1,-3 -3,-6 -7,-8 -3,-1 -7,-1 -10,1l5 1z"/>
    <path class="fil14" d="M241 348l29 23c0,0 1,12 -6,14 -2,1 -29,-27 -29,-27l6 -10z"/>
    <path class="fil13" d="M232 905l1 6 46 7c0,0 3,-3 1,-4 -1,0 -29,-11 -29,-11l-19 2z"/>
    <path class="fil14" d="M186 368l2 40c0,5 3,9 8,10 5,0 10,-3 10,-8l2 -35 -22 -7z"/>
    <g>
     <polygon class="fil5" points="237,378 217,374 225,331 245,335 "/>
     <polygon class="fil5" points="235,377 217,374 225,331 243,335 "/>
    </g>
    <path class="fil0" d="M184 402c0,0 -3,3 -3,4 0,1 11,19 11,19l8 -13 9 13 4 -23 -6 -1 -7 8 -13 -10 -3 3z"/>
    <polygon class="fil15" points="200,412 195,420 198,426 196,431 198,490 205,497 211,490 205,431 201,426 206,420 "/>
    <path class="fil14" d="M170 326c-4,9 -4,20 -2,30 2,11 7,21 16,28 8,7 21,9 30,3 6,-4 9,-11 11,-17 3,-12 4,-26 -1,-38 -9,-22 -43,-33 -54,-6z"/>
    <polygon class="fil12" points="155,446 87,469 37,414 49,404 95,442 147,404 156,420 "/>
    <polygon class="fil0" points="29,410 34,419 58,405 48,396 "/>
    <path class="fil14" d="M158 343c-3,2 -5,5 -4,9 0,3 2,6 4,8 1,2 2,3 4,4 1,1 3,1 5,2 2,0 4,0 5,-2 1,-1 1,-2 1,-3 1,-6 0,-8 -3,-12 -3,-3 -7,-8 -12,-6z"/>
    <path class="fil5" d="M178 344c-1,5 -4,11 -8,14 -4,-5 -6,-11 -7,-17 0,-7 1,-15 5,-21 5,-6 13,-10 21,-11 9,0 17,2 25,5 3,2 7,3 10,0 1,3 2,6 2,9 0,2 0,4 -2,6 -2,3 -5,6 -9,7 -27,6 -39,-9 -39,-8 -1,1 0,3 0,4 1,4 2,8 2,12z"/>
   </g>
   <g>
    <path class="fil16" d="M576 648l-7 -150c0,0 -39,-2 -50,-2 -7,0 -17,3 -26,5 -8,3 -14,3 -18,10l-63 121 38 4 13 -15 -6 -10 23 -56 0 95 96 -2z"/>
    <path class="fil17" style="mask:url(#id14)" d="M480 533l-42 76 13 15c0,0 5,1 10,0l2 -3 -6 -10 23 -56 0 -22z"/>
    <path class="fil18" d="M513 618c-2,-1 -15,-9 -24,-9 -10,0 -22,11 -22,11 0,0 -2,5 5,4 6,-1 11,-2 11,-2 0,0 -12,6 -4,7 8,2 39,0 39,0l-5 -11z"/>
    <path class="fil19" d="M511 640l-125 0 0 -10 125 0c2,0 4,2 4,5 0,3 -2,5 -4,5z"/>
    <path class="fil20" d="M476 640l-120 0c-6,0 -10,-4 -12,-9l-21 -80c-2,-8 4,-15 12,-15l105 0c5,0 10,4 11,9l25 95z"/>
    <path class="fil21" style="mask:url(#id16)" d="M335 536c-8,0 -14,7 -12,15l21 80c1,2 3,4 4,6l74 -101 -87 0z"/>
    <path class="fil0" d="M405 595c2,5 -2,9 -7,9 -5,0 -11,-4 -12,-9 -1,-5 2,-10 7,-10 6,0 11,5 12,10z"/>
    <path class="fil18" d="M515 477c1,2 8,32 8,32 0,0 3,5 9,4 7,0 10,-10 10,-10l-12 -37 -15 11z"/>
    <path class="fil18" d="M555 459c0,20 -22,43 -43,43 -20,0 -32,-23 -32,-43 0,-21 17,-38 38,-38 20,0 37,17 37,38z"/>
    <path class="fil0" d="M521 500l-5 11 3 12 9 -13 8 15 10 -18 -6 -11c0,0 -4,7 -11,9 -7,2 -8,-5 -8,-5z"/>
    <polygon class="fil20" points="528,510 521,519 524,523 520,534 521,601 527,615 536,600 534,535 529,523 533,517 "/>
    <polygon class="fil22" style="mask:url(#id18)" points="573,529 575,648 520,647 "/>
    <path class="fil16" d="M569 498l5 112 -52 10 7 14 74 4 -10 -111c-1,-11 -8,-21 -18,-26l-6 -3z"/>
    <polygon class="fil0" points="513,618 523,619 532,634 515,635 "/>
    <path class="fil5" d="M462 668l-92 23 47 183 16 -8 -14 -157 82 -26 -48 28 1 149 15 0c0,0 40,-146 44,-146 4,0 71,-45 71,-45l-122 -1z"/>
    <polygon class="fil5" points="367,889 431,884 433,864 365,880 "/>
    <polygon class="fil5" points="419,900 432,902 468,888 469,860 454,860 448,878 428,889 "/>
    <path class="fil23" d="M479 445c-1,3 -3,6 -2,9 2,3 6,5 10,5 6,1 12,1 19,1 4,0 8,0 12,-1 7,-2 13,-5 19,-9 5,-2 10,-5 10,-10 1,-5 -2,-9 -6,-13 -2,-2 -3,-4 -6,-6 -5,-4 -12,-5 -19,-4 -17,3 -29,14 -37,28z"/>
    <path class="fil23" d="M540 457c0,-2 3,-3 5,-2 2,1 3,3 3,5 1,2 0,4 -1,6 0,0 -1,1 -1,2 0,1 0,2 0,3 0,3 0,7 0,11 3,-1 5,-4 6,-7 4,-7 7,-13 7,-20 -1,-6 -4,-11 -6,-16 -1,-1 -2,-3 -3,-3 -1,-1 -3,-1 -5,-1 -2,1 -3,2 -5,3 -1,1 -2,2 -4,3 -1,1 -3,2 -4,3 -1,3 1,4 3,6 0,1 -1,19 5,7z"/>
    <g>
     <path class="fil24" d="M485 488c-5,0 -10,-4 -12,-9 -1,-3 -1,-5 1,-7 1,-2 3,-3 5,-3 5,0 10,5 12,10 1,2 1,5 0,7 -1,2 -3,2 -6,2zm-6 -17l0 0c-2,0 -3,1 -4,2 -1,1 -1,3 -1,6 2,4 7,8 11,8 2,0 4,-1 5,-2 1,-1 1,-4 0,-6 -2,-4 -7,-8 -11,-8z"/>
    </g>
    <g>
     <path class="fil24" d="M510 488c-5,0 -10,-4 -12,-9 -1,-3 -1,-5 0,-7 1,-2 3,-3 6,-3 5,0 10,5 12,10 1,2 1,5 -1,7 -1,2 -3,2 -5,2zm-6 -17l0 0c-2,0 -4,1 -5,2 -1,1 -1,3 0,6 2,4 7,8 11,8 2,0 3,-1 4,-2 1,-1 1,-4 1,-6 -2,-4 -7,-8 -11,-8z"/>
    </g>
   </g>
   <g>
    <path class="fil5" d="M646 401c0,5 3,11 2,17 -2,4 -6,8 -7,12 -2,6 1,11 3,16 2,4 5,8 10,8 2,0 4,-1 6,-1 4,-3 8,-5 13,-7 1,-1 3,-2 5,-3 2,-2 3,-5 4,-8 4,-10 7,-19 6,-29 -1,-10 -6,-20 -15,-23 -5,-2 -20,-4 -25,0 -1,2 0,4 -1,7 0,4 -2,7 -1,11z"/>
    <path class="fil14" d="M656 430l-4 1c-19,12 -29,28 -32,50l-9 152 14 -6 31 -197z"/>
    <path class="fil20" d="M749 429l-75 -3c-6,-1 -18,2 -24,3l-9 5 17 80 0 0c-16,26 -23,56 -22,86l8 110 85 0 10 -116c1,-24 -3,-47 -13,-69l-4 -11 27 -85z"/>
    <path class="fil25" style="mask:url(#id20)" d="M659 461c2,4 5,7 8,9 5,3 12,4 17,3 6,-2 11,-4 16,-7 9,-6 18,-12 24,-20 5,-6 9,-14 5,-20 -2,-4 -7,-6 -12,-8 -24,-6 -77,8 -58,43z"/>
    <path class="fil14" d="M717 389c0,20 -22,47 -42,47 -19,0 -31,-27 -31,-47 0,-19 17,-36 37,-36 19,0 36,17 36,36z"/>
    <path class="fil14" d="M749 429l52 67c5,7 3,18 -4,22l-61 38 -7 -12 41 -34c3,-2 4,-6 2,-10l-32 -44 9 -27z"/>
    <path class="fil14" d="M582 640l33 0c5,0 9,-4 10,-10l0 -3 -43 13z"/>
    <path class="fil14" d="M671 414c-1,-1 8,24 8,24 0,0 3,10 11,7 9,-2 3,-39 2,-39 -1,-1 -20,10 -21,8z"/>
    <path class="fil5" d="M692 385c-16,10 -34,20 -54,22 5,-6 4,-14 5,-21 1,-11 8,-22 18,-28 9,-6 22,-7 33,-3 4,1 7,3 10,7 7,10 -4,18 -12,23z"/>
    <path class="fil5" d="M691 425c1,5 4,10 5,15 0,4 -1,7 -1,11 -1,4 -2,8 -3,12 6,-1 11,-4 15,-7 17,-14 26,-37 22,-58 -1,-6 -3,-11 -5,-17 -2,-5 -3,-9 -6,-13 -3,-3 -8,-6 -12,-6 -6,0 -11,3 -14,8 -3,3 -4,7 -4,11 0,3 1,16 5,18 4,-3 11,0 12,5 3,7 -4,9 -8,11 -6,4 -8,4 -6,10z"/>
    <path class="fil5" d="M729 401c4,3 8,5 11,8 3,3 5,8 3,12 -1,3 -3,5 -5,6 -2,2 -4,5 -3,8 0,2 1,3 2,5 3,4 5,8 4,13 -1,4 -3,7 -7,9 -3,2 -7,3 -11,2 -2,0 -4,-1 -7,-1 -6,0 -10,6 -16,7 -4,0 -7,-1 -9,-4 -3,-2 -4,-6 -3,-9 1,-6 6,-9 10,-13 4,-3 9,-7 10,-13 0,-4 -2,-8 -1,-12 0,-6 6,-10 7,-16 1,-3 0,-11 5,-11 4,0 7,7 10,9z"/>
    <path class="fil5" d="M686 395c-1,2 -2,3 -4,5 -2,3 -4,5 -5,8 1,-5 1,-10 1,-15 0,-1 0,-2 0,-2 0,-2 2,-3 3,-4 1,-1 6,-5 8,-2 1,2 -2,8 -3,10z"/>
   </g>
   <g>
    <polygon class="fil5" points="730,533 727,536 738,550 "/>
    <path class="fil26" d="M984 648l-8 -150c0,0 -39,-8 -50,-8 -6,0 -17,3 -26,5 -7,3 -14,9 -18,16l-63 121 39 4 13 -15 -7 -10 24 -56 -1 95 97 -2z"/>
    <path class="fil14" d="M978 454c0,21 -16,38 -37,38 -11,0 -19,-12 -26,-20 -5,-7 -10,-9 -10,-18 0,-20 16,-37 36,-37 21,0 37,17 37,37z"/>
    <polygon class="fil5" points="884,640 754,640 727,536 856,536 "/>
    <polygon class="fil0" points="884,640 758,640 730,533 857,536 "/>
    <polygon class="fil5" points="844,640 755,640 755,632 844,632 "/>
    <path class="fil27" style="mask:url(#id22)" d="M931 622l50 -24 -4 -80 -9 1 -64 67c0,0 -10,25 -17,45l0 19 67 -2 -23 -26z"/>
    <polygon class="fil20" points="849,616 780,616 764,557 834,559 "/>
    <path class="fil15" d="M869 668l-92 23 47 183 16 -8 -14 -157 82 -26 -47 28 1 149 14 0c0,0 40,-146 44,-146 4,0 71,-45 71,-45l-122 -1z"/>
    <polygon class="fil5" points="775,889 838,884 840,864 772,880 "/>
    <path class="fil24" d="M918 505c0,8 2,15 4,22 0,1 1,3 2,4 3,2 7,0 9,-2 5,-3 9,-7 13,-11 2,-3 4,-6 5,-10 1,-3 0,-7 -3,-10 -4,-4 -13,-3 -19,-4 -7,0 -12,3 -11,11z"/>
    <polygon class="fil5" points="826,900 839,902 875,888 876,860 862,860 855,878 836,889 "/>
    <path class="fil14" d="M927 473l-2 31c0,0 2,14 9,11 8,-2 9,-8 9,-8l4 -37 -20 3z"/>
    <path class="fil23" d="M955 442c6,0 12,0 17,-3 5,-2 10,-7 10,-13 0,-6 -6,-12 -12,-10 -1,1 -2,1 -4,2 -2,0 -4,-1 -6,-1 -15,-5 -32,-8 -46,-1 -2,2 -5,3 -6,6 -1,2 -1,4 -2,7 0,6 0,12 -1,18 4,-2 8,-5 13,-7 4,-2 6,0 11,1 8,2 17,2 26,1z"/>
    <path class="fil28" d="M920 433c-4,-1 -8,0 -11,3 -2,4 -4,10 -5,15 1,2 1,4 1,6 0,1 1,3 1,5 2,4 6,6 9,10 0,0 1,0 1,0 3,-6 9,-20 10,-22 2,-2 7,-8 6,-11 -1,-3 -9,-6 -12,-6z"/>
    <path class="fil14" d="M920 448c0,-1 0,-1 -1,-1 0,-1 -1,-1 -2,-1 -2,0 -5,0 -6,2 -1,1 -1,2 -1,3 -1,3 -1,5 -1,8 1,3 2,8 6,8 2,1 5,0 6,-1 6,-6 3,-13 -1,-18z"/>
    <path class="fil23" d="M967 467c2,0 4,-1 6,0 2,0 4,2 4,4 0,0 0,1 -1,2 0,3 1,6 2,9 2,6 4,13 0,19 -3,5 -10,6 -16,6 -18,-1 -35,-14 -41,-31 -2,-6 -2,-13 0,-19 0,-2 2,-4 4,-3 1,7 5,13 12,17 11,5 20,-2 30,-4z"/>
    <g>
     <path class="fil5" d="M734 536l121 3 25 97 -120 0 -26 -100zm-4 -3l0 0 28 107 126 0 -27 -104 -127 -3z"/>
    </g>
    <path class="fil0" d="M933 640l-178 0 0 -8 178 0c2,0 4,2 4,4 0,2 -2,4 -4,4z"/>
    <path class="fil19" d="M843 640l-88 0 0 -8 88 0c2,0 4,2 4,4 0,2 -2,4 -4,4z"/>
    <path class="fil26" d="M976 498l-33 86 -82 11 3 16 106 -3 28 -76c2,-3 2,-8 1,-11 -3,-9 -9,-16 -17,-20l-6 -3z"/>
    <path class="fil14" d="M861 595l-45 -24c0,0 -2,3 1,6 4,3 15,11 15,11l0 7c4,12 15,18 28,17l4 -1 -3 -16z"/>
   </g>
   <g>
    <path class="fil29" d="M1042 639l-53 0c0,0 -1,-3 7,-5 9,-2 33,-2 33,-2l6 -7 8 2 -1 12z"/>
    <path class="fil30" d="M1086 477l-57 153 14 3 88 -149c0,0 -3,-10 -18,-19 -15,-9 -27,12 -27,12z"/>
    <path class="fil18" d="M1088 407c-11,-18 -34,-23 -52,-12 -9,7 -16,18 -17,29 0,6 0,8 2,13 2,5 9,13 5,23 -1,3 0,7 3,8 3,1 5,-2 8,-2 6,0 16,8 20,11 2,1 3,3 6,3 1,0 3,0 5,-1 8,-4 13,-13 17,-21 4,-8 7,-16 8,-24 2,-9 0,-19 -5,-27z"/>
    <path class="fil18" d="M1086 478c2,2 4,4 6,3 1,0 2,0 3,-1 2,-2 4,-3 6,-5 1,-2 2,-3 2,-5 0,-1 0,-2 0,-2 -4,-9 -12,-15 -14,-24 -2,-4 -2,-8 -3,-12 -2,-4 -5,-8 -9,-8 -2,0 -5,1 -7,2 -6,5 -10,13 -9,21 0,8 5,14 10,18 6,4 10,8 15,13z"/>
    <path class="fil23" d="M1036 395c-7,5 -12,12 -14,19 7,4 25,-4 30,-7 -1,13 6,25 17,31 6,4 14,6 21,10 1,-5 2,-10 3,-14 2,-9 0,-19 -5,-27 -11,-18 -34,-23 -52,-12z"/>
    <path class="fil18" d="M1056 433c-2,-4 0,-9 4,-11 4,-2 9,-1 12,2 3,3 5,8 4,12 0,6 -4,12 -10,11 -3,0 -5,-2 -7,-4 -2,-3 -3,-6 -3,-9l0 -1z"/>
    <polygon class="fil0" points="1107,459 1096,447 1079,478 1085,497 1108,472 "/>
    <path class="fil15" d="M1119 461l99 110 -61 54 -74 -115c-8,-11 4,-35 11,-46 6,-8 17,-9 25,-3z"/>
    <polygon class="fil31" points="1215,910 1188,760 1157,625 1218,571 1215,758 1229,903 "/>
    <polygon class="fil5" points="1218,571 1168,915 1153,913 1157,625 "/>
    <polygon class="fil5" points="1125,926 1165,924 1167,912 1156,911 1117,921 1118,927 "/>
    <polygon class="fil31" points="1229,903 1231,915 1184,917 1184,914 1225,901 "/>
    <path class="fil18" d="M1023 639l-54 0c0,0 -1,-3 7,-5 9,-2 34,-2 34,-2l5 -7 11 4 -3 10z"/>
    <path class="fil15" d="M1098 471l-40 76 -48 85 15 0 43 -59 58 -73c7,-6 9,-17 5,-25 -6,-13 -23,-15 -33,-4z"/>
    <path class="fil32" style="mask:url(#id24)" d="M1121 570c-1,-16 -6,-64 -6,-64l-17 28 23 36z"/>
   </g>
   <g>
    <path class="fil14" d="M681 697c-3,0 -24,9 -24,9l17 139c-4,2 -9,3 -13,4 -8,2 -16,3 -23,8 -1,1 -1,3 -1,3 0,2 2,3 3,3 10,0 21,0 31,0 6,0 11,-4 17,-7 3,-1 5,-6 4,-9 0,0 -8,-150 -11,-150z"/>
    <path class="fil5" d="M663 858c9,-1 22,-6 30,-12 0,7 -1,13 -14,16 -14,4 -29,8 -43,4 -1,-1 -3,-2 -3,-3 0,-1 0,-2 1,-2 2,-4 10,-10 14,-8 2,1 4,3 6,4 3,1 6,1 9,1z"/>
   </g>
   <g>
    <path class="fil14" d="M733 847c0,0 -9,-150 -11,-150 -3,0 -25,9 -25,9l17 139c3,8 6,15 10,22 4,6 10,13 17,16 1,1 2,1 2,1 1,-1 1,-1 1,-2 1,-4 -1,-8 -2,-12 -3,-7 -8,-15 -9,-23z"/>
    <path class="fil5" d="M719 866c4,8 10,16 18,20 1,0 3,1 4,1 2,-1 4,-3 4,-5 1,-2 1,-4 0,-6 -1,-3 -2,-6 -4,-9 0,0 -1,-1 -1,-1 -1,0 -2,1 -3,1 -2,2 -5,1 -7,0 -3,-1 -4,-3 -6,-5 -3,-5 -6,-13 -10,-15 -2,6 2,13 5,19z"/>
   </g>
   <g>
    <path class="fil5" d="M491 888c0,6 -5,11 -10,11 -6,0 -11,-5 -11,-11 0,-5 5,-10 11,-10 5,0 10,5 10,10z"/>
    <path class="fil5" d="M616 888c0,6 -5,11 -11,11 -5,0 -10,-5 -10,-11 0,-5 5,-10 10,-10 6,0 11,5 11,10z"/>
    <path class="fil5" d="M551 888c0,6 -5,11 -11,11 -5,0 -10,-5 -10,-11 0,-5 5,-10 10,-10 6,0 11,5 11,10z"/>
    <line class="fil33 str0" x1="481" y1="888" x2="481" y2= "883" />
    <path class="fil33 str0" d="M481 883c0,-12 9,-22 21,-22"/>
    <polyline class="fil33 str0" points="502,861 543,861 543,756 "/>
    <line class="fil33 str0" x1="604" y1="888" x2="604" y2= "883" />
    <path class="fil33 str0" d="M604 883c0,-12 -9,-22 -21,-22"/>
    <polyline class="fil33 str0" points="583,861 542,861 542,756 "/>
    <line class="fil33 str0" x1="540" y1="888" x2="540" y2= "861" />
    <polygon class="fil5" points="552,860 529,860 529,808 552,808 "/>
    <polygon class="fil5" points="548,816 533,816 533,756 548,756 "/>
   </g>
   <g>
    <path class="fil5" d="M889 888c0,6 -5,11 -10,11 -6,0 -11,-5 -11,-11 0,-5 5,-10 11,-10 5,0 10,5 10,10z"/>
    <path class="fil5" d="M1014 888c0,6 -5,11 -10,11 -6,0 -11,-5 -11,-11 0,-5 5,-10 11,-10 5,0 10,5 10,10z"/>
    <path class="fil5" d="M949 888c0,6 -5,11 -11,11 -5,0 -10,-5 -10,-11 0,-5 5,-10 10,-10 6,0 11,5 11,10z"/>
    <line class="fil33 str0" x1="879" y1="888" x2="879" y2= "883" />
    <path class="fil33 str0" d="M879 883c0,-12 9,-22 21,-22"/>
    <polyline class="fil33 str0" points="900,861 941,861 941,756 "/>
    <line class="fil33 str0" x1="1002" y1="888" x2="1002" y2= "883" />
    <path class="fil33 str0" d="M1002 883c0,-12 -9,-22 -21,-22"/>
    <polyline class="fil33 str0" points="981,861 940,861 940,756 "/>
    <line class="fil33 str0" x1="938" y1="888" x2="938" y2= "861" />
    <polygon class="fil5" points="950,860 927,860 927,808 950,808 "/>
    <polygon class="fil5" points="946,816 931,816 931,756 946,756 "/>
   </g>
   <g>
    <polygon class="fil34" points="1026,764 313,764 313,651 1026,651 "/>
    <polygon class="fil5" points="326,939 314,939 314,652 326,652 "/>
    <polygon class="fil5" points="1034,939 1022,939 1022,652 1034,652 "/>
    <polygon class="fil35" style="mask:url(#id26)" points="1034,717 313,651 1034,651 "/>
    <polygon class="fil12" points="1060,659 286,659 286,640 1060,640 "/>
   </g>
  </g>
  <path class="fil36" d="M362 171c-4,3 -9,6 -15,11 -5,5 -10,10 -15,15 -5,6 -8,12 -12,18 -3,6 -4,12 -4,18 0,1 0,3 2,4 1,1 2,1 4,1 2,0 4,0 5,-1 2,-1 3,-2 5,-3 2,-3 5,-6 8,-12 3,-6 6,-12 10,-18 3,-7 6,-13 8,-19 2,-7 4,-11 4,-14zm160 -29c-5,0 -10,-1 -14,-3 -5,-2 -10,-3 -16,-3 -3,0 -7,0 -10,1 -4,0 -8,0 -11,1 -2,4 -4,10 -6,15 -2,6 -3,12 -5,18 -1,6 -2,12 -3,18 0,6 -1,12 -1,17 0,3 1,6 1,8 1,3 2,5 3,7 1,2 1,4 2,5 1,1 1,2 1,3 0,2 -1,3 -2,4 -2,1 -3,1 -4,1 -2,0 -4,0 -6,-2 -2,-2 -4,-4 -5,-5 -2,-4 -3,-9 -4,-14 -1,-5 -1,-10 -1,-14 0,-10 1,-20 3,-30 2,-10 4,-19 8,-28 -11,2 -22,4 -33,8 -11,3 -21,7 -31,12 -2,4 -3,10 -5,16 -2,7 -5,14 -8,21 -2,7 -5,15 -9,22 -3,7 -7,14 -11,19 -4,6 -9,11 -14,14 -5,4 -10,6 -16,6 -8,0 -15,-3 -19,-8 -4,-5 -6,-11 -6,-19 0,-6 1,-13 4,-19 3,-6 6,-12 11,-18 4,-6 9,-11 14,-16 5,-5 10,-9 15,-13 3,-2 7,-4 10,-6 4,-3 7,-5 11,-7 0,-1 1,-3 1,-7 1,-3 2,-8 3,-14 1,-6 2,-12 3,-19 1,-6 2,-13 2,-19 1,-6 2,-11 2,-16 1,-5 1,-8 1,-9 0,-3 0,-6 -1,-10 0,-4 -1,-8 -2,-12 -2,-4 -3,-7 -6,-10 -2,-3 -5,-4 -9,-4 -2,0 -4,0 -5,1 -1,0 -3,1 -5,1 -1,0 -2,-1 -4,-2 -1,-1 -2,-2 -2,-4 0,-1 1,-3 4,-4 2,-2 5,-3 8,-4 4,-1 7,-2 10,-2 3,-1 5,-1 7,-1 6,0 11,1 15,4 4,4 7,7 10,12 2,5 4,10 5,15 0,6 1,11 1,16 0,13 -1,27 -4,40 -2,13 -5,25 -8,38 11,-3 22,-7 32,-9 11,-3 22,-6 33,-7 7,-17 15,-35 23,-51 9,-17 19,-33 30,-49 1,-1 2,-3 4,-6 2,-2 4,-4 6,-7 2,-2 4,-4 6,-6 2,-2 4,-3 6,-3 3,0 4,2 4,4 0,2 0,3 -1,5 -1,2 -3,4 -4,6 -1,1 -3,3 -4,5 -2,1 -3,3 -4,4 -5,7 -10,14 -14,22 -5,8 -9,16 -13,24 -4,9 -8,17 -11,26 -4,8 -7,16 -9,24 4,0 9,-1 14,-1 4,0 9,0 14,0 3,0 6,0 8,1 3,0 6,0 9,1 3,0 5,1 7,2 2,1 3,4 3,7 0,2 -1,4 -2,5 -2,2 -4,2 -6,2z"/>
  <path id="1" class="fil36" d="M539 198c0,-9 1,-17 2,-26 1,-2 2,-4 3,-7 1,-3 2,-6 3,-8 1,-3 1,-6 2,-9 1,-2 1,-4 1,-6 0,-5 -2,-7 -7,-7 -6,0 -10,2 -13,6 -3,3 -6,8 -7,13 -2,5 -3,11 -5,17 -1,7 -1,13 -1,18 0,4 0,9 0,15 1,6 2,11 4,16 2,5 5,10 8,13 4,4 8,5 14,5 5,0 10,-1 16,-5 5,-3 10,-7 15,-12 5,-5 10,-10 14,-15 5,-5 8,-10 11,-14 0,0 1,-1 2,-3 1,-1 2,-2 2,-4 1,-1 2,-2 3,-4 0,-1 0,-2 0,-3 0,-2 0,-3 0,-5 0,-1 -1,-2 -3,-2 -2,0 -4,1 -5,3 -1,2 -2,3 -3,5 -2,3 -5,7 -9,12 -3,5 -7,10 -11,15 -5,5 -9,9 -14,13 -4,3 -8,5 -12,5 -3,0 -5,-1 -6,-3 -1,-2 -2,-5 -3,-8 -1,-2 -1,-5 -1,-8 0,-3 0,-5 0,-7zm11 -107c-4,0 -7,2 -9,5 -3,3 -4,7 -4,11 0,2 1,5 2,7 2,2 4,4 8,4 3,0 7,-2 9,-5 3,-3 4,-7 4,-11 0,-3 -1,-5 -2,-7 -2,-3 -5,-4 -8,-4z"/>
  <path id="2" class="fil36" d="M635 171c0,5 -1,11 -1,16 -1,5 -1,10 -1,16 0,3 0,7 1,12 0,4 1,9 2,13 1,4 3,8 6,10 3,3 7,5 11,5 5,0 10,-2 16,-6 5,-3 11,-8 16,-13 6,-5 10,-10 15,-16 4,-6 8,-10 10,-14 1,-1 1,-2 2,-3 0,-1 0,-2 0,-3 0,-1 0,-3 0,-4 -1,-1 -2,-2 -4,-2 -1,0 -3,1 -4,2 -1,2 -2,4 -3,5 -2,3 -5,6 -8,11 -4,4 -8,9 -12,13 -4,5 -9,8 -13,12 -4,3 -8,5 -11,5 -3,0 -5,-2 -5,-4 -1,-3 -1,-5 -1,-7 0,-7 1,-14 2,-21 1,-6 2,-13 4,-20 1,-4 1,-8 1,-11 0,-6 -1,-11 -4,-15 -2,-4 -6,-7 -9,-10 -4,-2 -8,-5 -12,-7 -4,-2 -7,-5 -9,-8 1,-5 1,-9 1,-14 0,-2 0,-4 0,-6 -1,-3 -1,-5 -2,-7 -1,-3 -2,-5 -3,-7 -1,-2 -2,-3 -5,-3 -2,0 -5,2 -7,4 -2,3 -4,6 -5,9 -2,4 -3,7 -4,11 0,3 -1,6 -1,9 0,4 1,8 2,13 1,4 3,7 6,11 -1,10 -4,19 -9,27 -5,9 -10,17 -16,25 -1,1 -1,2 -2,3 0,1 0,2 0,3 0,3 1,4 3,4 2,0 3,0 5,-1 1,-1 2,-2 3,-3 3,-3 6,-7 9,-11 3,-5 5,-9 7,-14 3,-4 5,-9 7,-14 1,-4 3,-9 5,-13 4,2 8,4 11,7 4,2 6,6 6,11z"/>
  <path id="3" class="fil36" d="M727 198c0,-9 1,-17 2,-26 1,-2 2,-4 3,-7 1,-3 2,-6 3,-8 1,-3 1,-6 2,-9 1,-2 1,-4 1,-6 0,-5 -2,-7 -7,-7 -6,0 -10,2 -13,6 -3,3 -6,8 -7,13 -2,5 -3,11 -4,17 -2,7 -2,13 -2,18 0,4 0,9 1,15 0,6 1,11 3,16 2,5 5,10 8,13 4,4 8,5 14,5 5,0 10,-1 16,-5 5,-3 10,-7 15,-12 6,-5 10,-10 14,-15 5,-5 8,-10 11,-14 0,0 1,-1 2,-3 1,-1 2,-2 3,-4 0,-1 1,-2 2,-4 0,-1 1,-2 1,-3 0,-2 -1,-3 -1,-5 0,-1 -1,-2 -3,-2 -2,0 -4,1 -5,3 -1,2 -2,3 -3,5 -2,3 -5,7 -8,12 -4,5 -8,10 -12,15 -5,5 -9,9 -14,13 -4,3 -8,5 -12,5 -3,0 -4,-1 -6,-3 -1,-2 -2,-5 -3,-8 -1,-2 -1,-5 -1,-8 0,-3 0,-5 0,-7zm11 -107c-3,0 -7,2 -9,5 -3,3 -4,7 -4,11 0,2 1,5 2,7 2,2 5,4 8,4 3,0 7,-2 9,-5 3,-3 4,-7 4,-11 0,-3 0,-5 -2,-7 -2,-3 -5,-4 -8,-4z"/>
  <path id="4" class="fil36" d="M781 243c2,0 5,-1 7,-3 2,-2 3,-4 5,-7 3,-7 6,-14 10,-21 3,-7 7,-14 11,-21 4,-5 7,-11 12,-17 4,-6 8,-12 13,-16 1,-1 2,-2 3,-3 2,-1 3,-2 4,-2 1,0 2,1 2,2 0,2 0,3 0,4 0,5 0,11 0,16 -1,6 -1,11 -1,17 0,3 0,7 1,12 0,4 1,8 2,12 2,4 4,7 7,10 2,2 6,4 11,4 6,0 11,-2 17,-6 5,-3 11,-7 16,-12 5,-5 10,-11 13,-16 4,-6 7,-11 10,-15 0,-1 0,-2 1,-3 0,-1 1,-2 1,-3 0,-2 -1,-3 -2,-4 -1,-1 -2,-2 -3,-2 -2,0 -3,1 -5,3 -1,1 -2,3 -3,4 -1,3 -3,7 -6,12 -3,4 -6,8 -10,12 -4,4 -7,8 -11,11 -4,3 -8,4 -12,4 -2,0 -4,0 -5,-1 -2,-1 -2,-3 -3,-5 -1,-1 -1,-3 -1,-5 0,-2 0,-4 0,-6 0,-7 0,-13 0,-20 1,-7 1,-13 1,-20 0,-2 0,-5 0,-8 -1,-3 -1,-6 -2,-9 -1,-3 -2,-6 -4,-8 -2,-2 -4,-3 -7,-3 -3,0 -8,2 -13,6 -4,4 -9,9 -14,15 -5,6 -9,11 -13,17 -5,6 -8,10 -10,13 1,-5 2,-11 3,-17 1,-5 3,-11 5,-16 2,-5 3,-10 5,-15 2,-6 2,-11 2,-16 0,-3 0,-5 -1,-7 -2,-2 -4,-3 -7,-3 -4,0 -7,2 -11,5 -3,3 -5,6 -6,9 -1,5 -2,9 -2,14 -1,4 -2,9 -3,13 -3,14 -6,29 -9,44 -3,15 -4,29 -4,43 0,2 0,4 1,5 1,2 3,3 5,3z"/>
  <path id="5" class="fil36" d="M994 128c3,0 5,1 7,2 3,1 5,2 7,3 2,0 4,1 5,2 2,1 3,2 4,2 1,0 1,-1 2,-1 1,-1 1,-1 1,-2 0,-3 -1,-5 -4,-7 -2,-2 -5,-4 -9,-5 -3,-2 -7,-3 -10,-3 -3,-1 -6,-1 -8,-1 -11,0 -20,2 -29,6 -9,4 -18,9 -25,17 -4,3 -7,7 -10,12 -4,5 -6,9 -9,15 -2,5 -4,10 -6,16 -1,5 -2,10 -2,16 0,3 0,6 1,10 1,3 2,6 3,8 2,3 4,5 7,6 3,2 6,3 10,3 6,0 12,-2 18,-6 6,-4 12,-9 17,-14 5,-6 10,-11 15,-17 4,-6 8,-12 11,-16 0,4 0,7 0,11 0,4 0,8 0,12 0,5 0,11 -1,19 -1,8 -2,17 -4,27 -2,9 -4,19 -7,28 -2,10 -6,19 -10,27 -3,8 -8,14 -13,19 -5,5 -10,8 -16,8 -3,0 -5,-1 -6,-2 -1,-1 -2,-3 -3,-4 -1,-2 -2,-3 -3,-5 -1,-1 -2,-1 -4,-1 -2,0 -3,0 -4,2 -1,1 -2,3 -2,4 0,1 0,2 1,3 0,1 0,2 1,3 2,4 5,7 9,9 3,2 7,3 12,3 12,0 22,-4 30,-11 8,-7 15,-16 21,-27 6,-11 10,-23 13,-37 3,-14 6,-28 8,-41 1,-14 2,-27 3,-40 0,-12 0,-22 0,-31 0,-3 0,-6 -2,-8 -2,-2 -5,-3 -8,-3 -4,0 -8,2 -11,5 -2,4 -5,7 -6,10 -2,4 -5,9 -9,16 -5,6 -10,13 -15,19 -5,6 -11,11 -17,16 -6,4 -11,7 -15,7 -4,0 -6,-1 -7,-4 -2,-2 -2,-4 -2,-8 0,-4 1,-8 2,-12 2,-5 4,-10 6,-14 3,-4 6,-9 9,-13 3,-3 5,-7 8,-10 6,-6 13,-11 21,-16 7,-4 16,-7 25,-7z"/>
 </g>
</svg>
