<?xml version="1.0" encoding="UTF-8"?>
<!DOCTYPE svg PUBLIC "-//W3C//DTD SVG 1.1//EN" "http://www.w3.org/Graphics/SVG/1.1/DTD/svg11.dtd">
<!-- Creator: CorelDRAW X7 -->
<svg xmlns="http://www.w3.org/2000/svg" xml:space="preserve" width="101.6mm" height="16.7746mm" version="1.1" style="shape-rendering:geometricPrecision; text-rendering:geometricPrecision; image-rendering:optimizeQuality; fill-rule:evenodd; clip-rule:evenodd" viewBox="0 0 636 105" xmlns:xlink="http://www.w3.org/1999/xlink">
 <defs>
  <style type="text/css">
   <![CDATA[
    .fil0 {fill:#F58634;fill-rule:nonzero}
    .fil1 {fill:#00AFEF;fill-rule:nonzero}
   ]]>
  </style>
 </defs>
 <g id="Design">
  <metadata id="CorelCorpID_0Corel-Layer"/>
  <g id="_1574837529712">
   <path class="fil0" d="M36 4l3 2c-1,4 -3,6 -5,6l-17 1 0 1 3 0 4 0 1 1 0 0 5 -1 1 0 0 1 -15 2 -1 8 1 0 17 -1 1 0 0 1 -2 0 0 0 5 1 0 1c-1,2 -7,4 -19,6l-6 0 0 1 -3 8 0 0 0 -6 -1 0 -1 9c13,-2 22,-2 27,-2l3 1 0 1 -1 0 1 1 0 2c-2,1 -4,2 -8,2l0 0 5 1 0 1 -30 4 -1 0c-2,0 -3,-1 -3,-2l0 0 0 -2 2 -7 -1 0 2 0 -1 3 1 0c0,-2 1,-3 2,-3l-1 -1 0 -6 -1 0 -1 3 1 -1 1 0 -1 4 0 0 0 -2 -1 0 0 1 -1 0 0 -1 3 -11 -1 0 1 -3 0 -1 0 0 1 -11 1 1 0 0 1 -2 -1 -3 1 -6 0 -2 1 0 0 1 1 -1 1 1 0 0 1 0 2 0 23 -1zm-33 28l0 5 1 0 0 -4 -1 -1zm22 1l0 0 0 1 -11 1 -1 -1 0 0 6 0 0 0 6 -1zm48 -30l1 0 0 2 -1 2 -1 0 0 0 1 -4zm-24 1l2 0 1 1 0 0c3,0 4,1 5,3 2,0 3,4 5,13l9 -13 0 -1 1 0 0 1 -9 16 1 0c7,-13 11,-20 12,-20l2 1 0 0c2,0 4,2 7,6l0 2 -1 1 0 0 0 3 -1 0 1 4 -1 7 -1 2 1 0 0 1 -1 1 1 2 -2 1 1 1 0 1 -1 0 1 1 -2 18c-1,0 -2,0 -2,2 -1,0 -2,1 -2,3l-2 0 -4 -3 1 -4 -1 -4 5 -27c-2,2 -5,7 -7,14 -1,2 -2,4 -3,5l-1 0 0 -1 1 0 0 -1 -1 -1 2 -1 0 -2 -2 0c0,3 -1,4 -3,5l0 0 -3 -3c-1,0 -2,-2 -2,-6 -2,-4 -3,-7 -3,-9l-1 0 -1 7 -1 6 0 2 0 3 -1 14c-1,0 -2,1 -2,2l-3 3 -1 0 -4 -2 1 -3 0 -7 0 -3 1 -1 -1 -1 0 0c1,-7 2,-14 4,-22l0 0 0 0 0 -1 1 -2 -1 -3 0 -1 1 0 0 2 1 0 0 -2 -1 -1 3 -4 0 -2 -1 0 -1 0 0 0 0 -2 1 0 0 0 1 0 1 -1zm16 29l1 2 1 0c0,-2 2,-8 7,-17l1 -4c-3,4 -6,11 -10,19zm12 -13l-1 0 -1 16 0 0 2 -13 0 -1 0 0 0 -1 0 0 0 -1 0 0 0 0zm-4 33l-1 5 1 0 1 -3 -1 -2 0 0zm20 -51l0 0 0 1 1 -1 3 0c1,0 1,1 1,4l1 0c0,-2 0,-2 1,-2 1,0 2,0 2,2l4 -1 7 1 3 0c3,0 5,1 7,5l-1 4 1 1 0 1 -1 3 -1 0 0 -1 -1 0c-3,8 -8,14 -14,17l-10 4 0 11 0 4c-1,0 -2,2 -3,6l-1 1 -1 0 -5 -3 1 -5 -2 -3 2 -9 -1 0 3 -13 -1 0 1 -1 1 0 0 3 0 0 1 -4 -1 -1 1 0 0 -4 -1 -1 0 3 -1 0c0,-3 -1,-5 -3,-7l-1 -4 0 -2c6,-3 9,-4 9,-5l0 0 -1 -2 -1 1 -1 -3 1 0 1 0zm5 25l2 0c5,-3 10,-6 14,-12l-2 0c-8,1 -13,2 -13,4l-1 8zm17 -9c-2,2 -7,6 -17,11l0 0 0 1 1 0c6,-2 12,-6 16,-12l0 0zm-27 13l0 1 1 1 -1 0 0 2 2 0 0 -4 -2 0zm64 -27c5,0 10,2 14,5l0 0 0 1 2 4 -1 0 -1 -1 0 0 2 14 0 0c0,-2 1,-3 2,-3l0 3c0,2 -3,8 -7,16l1 0c-3,5 -8,8 -14,12l-3 1 -1 0c-10,0 -16,-4 -19,-13l-2 -3 0 -1 0 -5 0 -1c0,-3 3,-10 10,-19l0 1c-3,4 -6,9 -8,14l0 1 1 0c1,-6 7,-14 17,-24l-4 3 -1 0c0,-2 4,-4 12,-5zm-3 11l-1 -1 0 1 1 1 -4 4c-4,0 -7,6 -11,18 0,3 2,6 6,9l1 0c4,0 10,-5 16,-15 2,-5 3,-8 3,-10l0 -6c0,-1 -2,-2 -6,-2l-1 0 -1 0 0 0 0 0 -3 1zm19 2l1 0 0 3 -1 0 0 -3zm-33 7l-2 4 1 0 2 -4 -1 0zm25 4l-3 6 2 0 2 -4 0 -2 -1 0zm4 3l0 1 0 2 0 0 1 -3 0 0 -1 0zm-38 2l0 5 1 0 0 -5 -1 0zm31 2l-3 3 1 0 2 -3 0 0zm-21 14l0 1 3 2 0 -1 -3 -2zm39 -46l2 0 1 3c1,0 2,-1 2,-2l0 0 2 1 -1 4 1 0 -1 1 0 1 1 0 0 1 -1 0 1 1 0 0 -1 21 0 1 1 0 2 -6 1 0 -5 12 2 0 7 -22 -1 0 -2 8 -2 0 0 0 5 -11 0 0 0 2 6 -2c1,1 2,2 2,2l1 0 2 0 2 15 1 0c0,-2 3,-13 10,-33l1 0 0 2 1 0 0 -1 1 0c3,0 5,0 5,2l0 1 -1 2 0 0 1 0 1 -4 1 0 1 1 0 1 -15 50 -1 1 0 -1 -1 0 -1 0 0 0c0,2 -1,2 -2,2 -4,0 -5,-1 -5,-2l0 0c0,-2 -1,-3 -2,-4l-3 -14c-1,0 -3,6 -8,18l-3 3 -1 0 0 -3c6,-10 10,-19 10,-25 -1,1 -4,8 -8,20 -1,0 -2,2 -3,7l-6 0 0 -2 -1 0 -1 0c0,-2 0,-4 -2,-5l0 -2 3 2 -1 -11 0 -1 0 -1 0 0 0 0 0 -1 0 -9 1 -3 -1 0 1 -1 0 -17 -1 0 0 -1 2 -1zm38 0c-6,20 -9,31 -9,33l0 1 0 0 10 -34 -1 0zm-1 25l-1 6 0 0 0 0 2 -5 0 -1 -1 0zm-4 15l-1 6 0 2 1 0 1 -7 0 -1 -1 0zm49 -39l3 2c-1,4 -2,6 -5,6l-16 1 0 1 3 0 4 0 0 1 1 0 4 -1 2 0 0 1 -15 2 -1 8 0 0 18 -1 0 0 0 1 -1 0 0 0 4 1 0 1c-1,2 -7,4 -18,6l-7 0 1 1 -3 8 -1 0 1 -6 -1 0 -1 9c13,-2 22,-2 27,-2l3 1 0 1 -1 0 0 1 0 2c-1,1 -4,2 -8,2l0 0 5 1 0 1 -30 4 0 0c-2,0 -3,-1 -3,-2l0 0 0 -2 1 -7 0 0 1 0 0 3 1 0c0,-2 0,-3 1,-3l-1 -1 1 -6 -1 0 -1 3 1 -1 0 0 0 4 -1 0 0 -2 0 0 0 1 -1 0 0 -1 2 -11 -1 0 2 -3 -1 -1 0 0 2 -11 0 1 1 0 0 -2 0 -3 1 -6 0 -2 0 0 1 1 1 -1 0 1 1 0 1 0 2 0 22 -1zm-32 28l0 5 0 0 1 -4 -1 -1zm21 1l1 0 0 1 -12 1 0 -1 0 0 5 0 0 0 6 -1zm28 -29l8 0c9,2 13,6 13,12l0 3 -6 9 1 0 6 -5 0 1c-2,5 -5,8 -8,10l-4 1 0 2c1,0 5,6 13,17 2,1 4,3 6,5l0 1 -4 -3 0 1c2,2 4,4 4,5l-1 0 -3 2 -1 0 -1 -2 -1 1 -1 0c-8,-7 -14,-14 -18,-21l-3 -7c-1,0 -2,3 -2,8 0,4 0,7 -1,8 -1,1 -1,2 -1,3l0 1 -2 0c0,0 -1,-1 -1,-2l-1 0c0,1 0,2 -2,2l-3 -4 1 -6 0 -3 4 -18 0 0 0 3 1 0 3 -14c-1,0 -1,1 -1,3l-1 0 0 -1 -3 0 0 -1c0,-1 1,-2 3,-2l0 -1 -1 0 -4 2 0 0c0,-1 0,-2 2,-2l0 0c-2,0 -2,-1 -2,-2l11 -6zm1 23l1 0c6,-3 11,-7 14,-10l0 -1c0,-2 -3,-3 -8,-5l-4 1 -3 15zm13 -16c1,2 1,3 2,3l0 -1 -2 -2zm4 4l-1 3 1 0 0 -1 0 -2 0 0zm-24 2l0 0 0 2 0 2 -1 0 0 -2 1 -2zm22 2l-4 5 1 0 3 -4 0 -1 0 0zm6 2l1 0 0 2 -1 0 0 -2zm-30 2l1 0 0 2 -1 0 0 -2zm-1 8l0 3 1 0 0 -3 -1 0zm20 19l0 1 2 3c-1,-2 -2,-3 -2,-4zm3 5l0 1 2 1 0 0 -2 -2zm26 -50c0,1 0,1 2,1l1 3 0 1 0 0c-3,9 -5,19 -5,31l-1 4 1 1 0 0 -1 1 1 0 -1 1 1 4 0 1c-3,3 -4,5 -4,7l-3 0 -3 -1 1 -5 -2 -2 1 -10 0 -12 2 -2 0 -2 -1 -1 0 0 2 0 0 -1 -1 -1 3 -12 -1 0 1 -1 0 -4 -1 0 0 -1 8 0zm-7 11l-1 5 1 0 0 -5 0 0zm-1 7l-1 3 1 0 0 -3 0 0zm-1 5l-1 4 1 0 0 -4 0 0zm-1 26l0 3 2 -1 0 -2 -2 0zm26 -49l5 3c0,-1 0,-1 1,-1l1 0 9 23 0 1 -1 0 -1 -4 -1 0 0 1 5 11 0 0c2,-11 5,-22 8,-35l2 2 2 -1 4 2 0 1c-2,0 -2,1 -2,2l0 0 1 1 1 0 0 -3 1 0 0 0 0 1 0 1 0 0c-3,10 -6,24 -8,43l-2 0 2 -10c-1,0 -2,4 -4,12 -2,1 -3,2 -5,2l0 1 0 0c0,-1 -1,-1 -3,-1l0 -5c0,-2 -4,-12 -13,-32l0 0c-2,8 -4,18 -5,31l0 -1c-3,1 -4,2 -4,4l-2 0c0,-2 -1,-5 -1,-9l-1 0 0 6 -1 0 0 -3c0,-12 2,-26 7,-43l5 0zm-9 16l0 0 1 1 -1 1 0 1 1 0 1 -3 -1 0 -1 0zm25 10c1,0 2,2 2,5l0 1 0 0 -2 -6zm47 -26l1 1 1 0 0 -1c7,2 10,5 10,8l1 4 -2 0c0,-2 0,-3 -1,-3l0 0 0 4 0 0 -1 0c-1,0 -2,0 -1,-2l-1 1 -1 0c-2,-2 -4,-3 -6,-3 -4,0 -9,5 -15,14l-2 7c-1,6 2,10 7,12l0 2 -1 0 -1 0 2 0c3,0 7,-4 13,-11l0 -1 0 0c-4,4 -7,7 -10,9l0 0 8 -8 -5 0c0,-1 0,-2 -2,-2l0 0 0 -1c0,-1 2,-2 7,-2l0 -1 -1 0 -4 0 -3 -4 0 -1 0 0 8 0 16 -2 1 0c-3,0 -4,-1 -4,-2l1 0 1 1 0 -1 1 0c5,2 7,3 7,4l0 0 -1 1 0 1 3 0 -1 1 0 0 -11 1 0 1 1 0 6 -1 0 1c-5,0 -7,2 -7,6l-3 10 0 1 0 0 -1 3 0 6 -1 1 0 0c-2,1 -2,2 -3,4l-2 0c0,0 -1,-2 0,-6l-1 0 0 4 -2 0 0 -3 0 -4 -1 0c-3,1 -5,2 -8,2l-3 0 -1 -1 0 -1 1 0 0 0c-9,0 -13,-3 -14,-9 -1,-3 -1,-6 -1,-9 0,-1 0,-3 0,-5l0 -1c1,-3 2,-8 5,-13l1 0 0 1 -3 5 0 0 1 0c0,-4 4,-8 12,-14l1 0 0 -1 -1 0 -2 1c2,-3 6,-4 12,-4zm-13 4l1 0 -5 5 0 -1 4 -4zm10 2l-1 0 5 0 0 0 -4 0zm-14 3l0 0 -3 3 0 -1 3 -2zm28 10l3 0 -2 1 -1 -1zm-19 22l1 0 -2 1 0 0 1 -1zm3 6l6 -2 0 -1 -1 0 -5 3zm-5 2l0 1 4 0 0 -1 -4 0zm82 -51l1 0 0 1 0 -1 1 0c3,1 5,2 5,3l-4 4 2 0c1,-1 2,-2 2,-3l2 0 0 0 0 1 0 0 0 1c-15,17 -23,30 -22,39l-1 7 0 0 0 1 -3 6 -5 -1 0 -5 -2 -2 0 -2 1 -7 0 0 1 0 -1 0 0 -1 1 -1 0 0 -1 -1 2 -1 -1 4 0 2 1 0 1 -8 -1 -2 0 0 0 2 -1 0 -1 -5 1 0 0 -1 -9 -23 0 -1 1 0 -1 -3 1 -1 1 0c1,0 2,1 2,3l2 -1 2 0c0,3 2,8 7,17 2,-5 4,-8 6,-9l0 1c-4,6 -6,9 -6,10l0 0 0 0 16 -20 0 -1 -8 8 0 -1 8 -9zm-8 10l0 1 -1 1 0 -1 1 -1zm9 -1c-9,12 -14,19 -14,21l1 0c4,-7 8,-14 13,-21l0 0zm-21 45l0 3 0 0 0 -3 0 0zm55 -53c5,0 10,2 15,5l-1 0 0 1 3 4 -2 0 0 -1 -1 0 2 14 1 0c0,-2 0,-3 1,-3l0 3c0,2 -2,8 -7,16l1 0c-3,5 -8,8 -14,12l-3 1 0 0c-11,0 -17,-4 -20,-13l-2 -3 0 -1 0 -5 0 -1c0,-3 3,-10 10,-19l0 1c-3,4 -6,9 -8,14l0 1 1 0c2,-6 7,-14 17,-24l-4 3 -1 0c0,-2 4,-4 12,-5zm-3 11l0 -1 0 1 0 1 -4 4c-4,0 -7,6 -11,18 0,3 2,6 6,9l1 0c5,0 10,-5 16,-15 2,-5 3,-8 3,-10l0 -6c0,-1 -2,-2 -6,-2l-1 0 -1 0 0 0 0 0 -3 1zm19 2l1 0 0 3 -1 0 0 -3zm-33 7l-2 4 1 0 2 -4 -1 0zm25 4l-2 6 2 0 1 -4 0 -2 -1 0zm5 3l-1 1 0 2 1 0 0 -3 0 0 0 0zm-38 2l0 5 0 0 0 -5 0 0zm30 2l-3 3 1 0 3 -3 -1 0zm-21 14l0 1 4 2 0 -1 -4 -2zm46 -45l1 2 -1 4 1 0 1 0 0 -3 2 0 0 2c-3,12 -5,22 -5,29 1,5 1,7 3,7l15 -17 0 -3 0 -18 2 -1c0,0 1,1 1,2l0 0c0,-1 2,-2 4,-2l1 2 -1 3c1,0 2,-1 2,-3l1 0 1 1 0 0 -3 46 -1 3c-1,0 -2,1 -2,2l-3 0 1 -6 -1 0 0 4 -2 2 0 -1 0 -6c-1,0 -2,-1 -2,-3l0 0 -11 5 -5 -1 0 1c-5,0 -8,-7 -9,-20 1,-19 3,-29 5,-29l0 0 0 0 0 2 -1 0 0 2 1 0 0 1 -1 0 1 2 -2 3 0 0 1 -1 -2 12 0 3 1 0c1,-17 3,-26 7,-26zm-8 26l-1 1 0 5 1 0 1 -6 -1 0zm20 5l-4 5 0 0 5 -5 -1 0zm-19 11l0 1 1 2 1 0 0 -1 -1 -2 -1 0zm5 3l0 0c0,2 2,3 6,4l1 0 0 0c-2,0 -5,-2 -7,-4zm70 -46l2 1 0 1 -2 0 1 2c-1,2 -4,3 -10,3l-5 1 0 2 0 0c-1,3 -4,17 -7,41l2 8 -1 0c-1,0 -2,-2 -3,-6l1 -6 0 -1 -1 0 0 1c-1,0 -2,1 -2,1l0 1 2 10 0 1 -2 0 -2 -2 -1 1 0 0c-2,-4 -3,-7 -3,-10l1 1 0 0 -1 -5 2 0 0 -4 -1 0 0 0c1,0 2,-1 2,-2l0 0 -2 0c0,-4 1,-5 2,-5l0 -9c1,0 2,-5 3,-13l-5 0 -9 0 0 -1 3 -1 0 1 1 -1 10 0 0 -1 -11 1 0 -1 -1 0 -4 1 -2 -1 1 -4 -1 0c0,-3 3,-4 8,-4l35 -1zm-4 2l0 1 3 0 0 -1 -3 0zm-24 36l-1 14 1 0 0 -3 0 -1 1 -2 -1 0 1 -1 0 0 -1 -1 0 -1 1 -2 0 -3 -1 0zm32 -37l0 0 0 2 1 0 0 -1 3 0c1,0 1,1 1,3l2 1c0,-1 0,-2 1,-2l1 1 0 0 -3 18 9 -1 7 0 0 -3 0 -1 1 0 -1 -4 0 -1 2 0 -1 0 0 -2 1 0 0 -1 -1 0 0 -1 1 0 0 0 0 -5 0 1 1 0 0 -3 -1 0 0 -1 2 0 -3 22c1,0 2,-7 4,-21l2 -1c1,3 2,5 2,5l1 0c0,-1 0,-2 1,-2l1 0c-2,15 -5,32 -10,52l0 0 -1 0 1 -1 0 -5 -1 0 -2 6 -2 0c-1,0 -1,-1 -1,-4l-1 0 0 3 0 0c-1,0 -2,-1 -2,-2 0,-3 2,-10 4,-22l0 0 -9 1 -6 -1c-1,11 -2,17 -4,21l-1 0c-1,0 -2,-2 -2,-5l0 0 -1 4 -1 -1 0 -2 0 -1 0 0 0 -1 -1 0 -1 1 0 0 -1 -3c2,-14 4,-25 6,-31l1 0 -1 -1 0 -2 2 -7 -1 0 1 -2zm0 3l0 4 1 0 0 -4 -1 0zm0 5l-1 5 0 1 1 0 0 -5 0 -1 0 0zm-1 7l0 2 0 0 0 -2 0 0zm-1 3l-1 3 0 1 1 0 1 -3 0 -1 -1 0zm-1 6l0 3 0 0 0 -3 0 0zm24 7l-1 4 0 0 1 0 1 -3 0 -1 -1 0zm-1 5l0 3 0 0 0 -3 0 0zm4 7l0 3 0 2 0 0 1 -4 0 -1 -1 0zm-31 3l0 0 0 4 0 0 0 -4z"/>
   <path class="fil1" d="M299 69l6 0c1,1 2,2 2,3l-1 1c0,2 -2,5 -6,10 2,3 4,6 5,7l1 0c2,-2 4,-4 5,-6 0,0 1,0 1,1l-1 1 1 0 1 -1 1 0 0 0 1 -1 0 1 0 1c-1,2 -3,5 -7,7l0 0 4 5 0 1c-2,1 -4,2 -6,2 0,0 -1,-1 -3,-3l-1 0 3 2 0 1 -1 0 -3 -2 -4 1 -2 0 -2 0 0 1c1,0 2,0 2,0l-3 2 -1 0c-4,0 -7,-2 -8,-6l0 -1c0,-2 3,-7 10,-13 -1,-1 -1,-3 -2,-6l1 -3 -1 -1c4,-2 6,-4 8,-4zm6 2l0 1 0 1 0 1 1 0 0 -1 -1 -2 0 0zm-8 5l1 3c1,-1 2,-3 3,-5l-1 -2c-2,1 -3,3 -3,4zm6 -3c0,1 -1,3 -4,7l0 0 0 0c3,-2 4,-4 5,-6l0 -1 -1 0zm-7 4l0 1 1 2 0 0 0 -1 0 -2 -1 0zm-1 10c1,4 3,7 5,9l1 0 0 -1c0,0 -2,-3 -6,-8l0 0zm-6 9c1,2 2,3 5,3l3 -1 1 0 3 -2 0 0 0 0 -1 1 0 0c-2,-3 -4,-5 -6,-9l0 0c-3,2 -4,5 -5,8zm-1 -1l0 1c0,1 0,2 0,2l0 -3 0 0zm21 0l0 1 1 2 0 -1 -1 -2zm37 -25l0 1 0 0 0 -1c5,1 7,3 7,5l0 2 -1 0c0,-1 0,-1 0,-1l-1 0 0 2 0 0 0 0c-1,0 -1,0 -1,-1l0 0 -1 0c-1,-1 -2,-1 -4,-1 -2,0 -5,2 -9,8l-1 4c0,4 1,6 4,8l0 0 -1 0 0 1 1 0c2,0 5,-3 8,-7l0 -1 0 0c-2,3 -4,5 -6,6l0 0 5 -5 -3 0c0,-1 0,-1 -1,-1l0 0 0 -1c0,0 1,-1 4,-1l0 -1 -1 1 -2 0 -2 -3 0 0 0 -1 5 1 10 -2 0 0c-1,0 -2,0 -2,-1l1 0 0 1 0 -1 1 0c3,1 4,2 4,2l0 1 -1 0 0 0 2 0 0 1 -1 0 -6 1 0 0 0 0 4 0 0 1c-3,0 -4,1 -4,3l-2 6 0 0 0 1 -1 2 1 3 -1 1 0 0c-1,0 -2,1 -2,2l-1 0c0,0 -1,-1 0,-4l-1 0 0 3 -1 0 0 -2 0 -2 -1 0c-1,1 -3,1 -4,1l-2 0 -1 -1 0 0 1 0 0 0c-5,0 -8,-2 -9,-6 0,-2 0,-3 0,-5 0,-1 0,-2 0,-3l0 -1c0,-2 1,-5 3,-8l0 0 0 1 -1 3 0 0 0 0c0,-2 3,-5 8,-9l0 0 0 0 0 0 -2 0c1,-1 4,-2 8,-2zm-8 3l0 0 -3 2 0 0 3 -2zm5 0l0 1 3 0 0 -1 -3 0zm-8 2l0 1 -2 1 0 0 2 -2zm17 7l2 0 -1 0 -1 0zm-11 13l0 0 -1 1 0 0 1 -1zm2 4l3 -2 0 -1 0 0 -3 3zm-3 1l0 0 2 0 0 0 -2 0zm35 -31c3,0 6,1 8,3l0 1 0 0 2 2 -1 0 -1 0 0 0 1 9 1 0c0,-2 0,-2 0,-2l0 1c0,2 -1,5 -4,10l1 0c-2,3 -5,5 -8,7l-2 1 -1 0c-6,0 -10,-3 -11,-8l-2 -2 0 0 0 -3 0 -1c0,-2 2,-6 6,-11l0 0c-2,3 -3,6 -4,9l0 0 0 0c1,-4 4,-9 10,-14l-2 1 -1 0c0,-1 3,-2 8,-3zm-2 7l-1 0 0 0 1 0 -3 3c-2,0 -4,3 -6,11 0,2 1,4 3,5l1 0c3,0 6,-3 9,-9 2,-3 2,-5 2,-6l0 -3c0,-1 -1,-1 -3,-2l-1 0 0 1 -1 0 0 -1 -1 1zm11 1l1 0 0 2 -1 0 0 -2zm-20 5l-1 2 0 0 2 -2 -1 0zm15 2l-1 4 1 0 1 -3 0 -1 -1 0zm3 1l0 2 0 0 0 0 1 -1 0 -1 -1 0zm-23 2l0 3 1 0 0 -3 -1 0zm18 1l-1 2 0 0 2 -2 -1 0zm-12 9l0 0 2 1 0 0 -2 -1zm30 -27c0,1 0,1 1,1l1 1 0 1 0 0c-2,5 -3,12 -3,19l-1 2 1 1 0 0 -1 1 1 0 -1 0 1 3 0 0c-2,2 -3,3 -3,4l-1 0 -2 0 0 -3 -1 -2 1 -6 0 -7 1 -1 0 -1 0 -1 0 0 0 0 0 -1 0 0 2 -7 -1 0 1 -1 0 -2 -1 0 0 -1 5 0zm-5 7l0 2 1 0 0 -2 -1 0zm0 4l0 2 0 0 0 -2 0 0zm-1 3l0 3 1 0 0 -3 -1 0zm0 16l0 2 1 -1 0 -1 -1 0zm16 -30l3 2c0,-1 0,-1 0,-1l1 0 5 14 0 1 0 0 -1 -3 0 0 0 1 3 7 0 0c1,-7 2,-14 4,-21l2 0 1 0 2 1 0 1c-1,0 -1,0 -1,1l0 0 1 1 0 0 0 -2 1 0 0 0 0 0 0 1 0 0c-2,6 -3,15 -5,26l-1 0 1 -6c-1,0 -1,2 -2,7 -1,1 -2,1 -3,1l0 1 0 0c0,0 -1,-1 -2,-1l0 -2c0,-2 -3,-8 -8,-20l0 0c-1,5 -2,11 -3,19l0 0c-2,0 -3,1 -3,1l-1 0c0,-1 0,-2 0,-5l-1 0 0 4 0 0 -1 -2c0,-7 2,-16 5,-26l3 0zm-6 10l0 0 1 0 -1 1 0 0 1 0 0 -1 0 0 -1 0zm15 6c1,0 2,1 2,3l0 0 0 0 -2 -3zm29 -16l1 1 0 0 0 -1c4,1 6,3 6,5l1 2 -1 0c0,-1 0,-1 -1,-1l0 0 0 2 0 0 -1 0c0,0 -1,0 0,-1l-1 0 0 0c-2,-1 -3,-1 -4,-1 -3,0 -6,2 -9,8l-1 4c-1,4 1,6 4,8l0 0 -1 0 0 1 1 0c2,0 4,-3 8,-7l0 -1 0 0c-2,3 -4,5 -6,6l0 0 4 -5 -2 0c0,-1 -1,-1 -1,-1l-1 0 0 -1c0,0 2,-1 4,-1l0 -1 0 1 -2 0 -2 -3 0 0 0 -1 4 1 11 -2 0 0c-2,0 -2,0 -2,-1l0 0 0 1 1 -1 0 0c3,1 4,2 4,2l0 1 0 0 0 0 1 0 0 1 0 0 -6 1 0 0 0 0 4 0 -1 1c-2,0 -4,1 -4,3l-2 6 1 0 0 1 -1 2 0 3 -1 1 1 0c-1,0 -2,1 -2,2l-1 0c-1,0 -1,-1 -1,-4l0 0 0 3 -2 0 1 -2 -1 -2 0 0c-2,1 -3,1 -5,1l-2 0 0 -1 0 0 0 0 0 0c-5,0 -8,-2 -8,-6 -1,-2 -1,-3 -1,-5 0,-1 0,-2 0,-3l0 -1c1,-2 2,-5 3,-8l1 0 0 1 -2 3 0 0 0 0c1,-2 3,-5 8,-9l0 0 1 0 -1 0 -1 0c1,-1 3,-2 7,-2zm-8 3l0 0 -3 2 1 0 2 -2zm6 0l0 1 3 0 0 -1 -3 0zm-9 2l0 1 -1 1 0 0 1 -2zm18 7l1 0 -1 0 0 0zm-12 13l1 0 -1 1 -1 0 1 -1zm2 4l3 -2 0 -1 0 0 -3 3zm-3 1l0 0 2 0 0 0 -2 0zm47 -32l2 1 0 0 -2 0 0 -1zm-8 0l1 1 4 0 0 0 1 0 1 0c4,1 7,3 9,7 1,0 1,0 1,2l0 2 -1 0 0 0 0 -1 0 -1 1 0 -1 0 -1 0c0,1 -1,3 -4,4l0 1 0 0c1,0 3,-1 4,-2l0 1 -2 2c2,0 4,2 6,7 0,3 -4,6 -12,9 -4,1 -7,2 -8,2l-1 -1 -1 0c0,1 0,1 -1,1 0,1 -1,1 -1,1l0 0c-1,0 -1,-1 -1,-3l0 0 -1 2 0 0c0,-2 0,-4 -1,-4l0 -1 1 -1 -1 0 4 -17 0 0 0 0 0 -1 1 -5 0 -1 -1 -2 1 0c1,-1 2,-2 3,-2 0,0 0,0 0,0zm10 5l0 1 3 0c0,0 -1,0 -1,0l-2 -1zm-8 4l0 3 4 0 0 0 5 -2 0 0 -3 2c4,-1 5,-2 6,-4l-1 0c0,1 -1,2 -2,1l1 0 -1 0 1 -1 0 0 0 0 0 0c0,-1 -2,-2 -4,-2 -4,0 -6,1 -6,3zm9 0l0 0 -1 1 0 0 1 -1zm-2 9l0 0 4 1 1 0 0 0 -2 -1 -3 0zm-8 1l-2 7 1 1 0 0c2,0 6,-2 13,-5l1 -1c0,-1 -1,-2 -3,-2l-3 0 -7 0zm14 2l-1 1 1 -1 0 0 0 0zm2 2c0,0 -3,2 -8,5 6,-2 9,-4 9,-5l0 0 -1 0 0 0zm24 -21l2 1c-1,2 -2,3 -3,3l-10 1 0 0 2 1 2 -1 0 1 1 0 3 0 0 0 0 0 -9 1 -1 5 1 0 10 -1 1 1 0 0 -1 0 0 0 3 1 0 0c-1,2 -5,3 -12,4l-3 0 0 0 -2 5 0 0 0 -3 -1 0 0 5c8,-1 13,-1 16,-1l2 1 0 0 -1 0 1 1 0 1c-1,1 -3,1 -5,1l0 1 3 0 0 0 -18 3 -1 0c-1,0 -2,-1 -2,-1l0 0 0 -1 2 -5 -1 0 1 0 0 2 0 0c0,-1 1,-2 1,-2l0 0 0 -4 -1 0 0 2 0 -1 1 0 -1 3 0 0 0 -1 0 0 0 0 -1 0 0 -1 2 -6 -1 0 1 -2 0 0 0 -1 1 -6 0 0 0 0 0 -1 0 -2 1 -3 0 -1 0 0 1 0 0 0 0 0 1 0 0 0 1 0 14 0zm-20 17l0 2 1 0 0 -2 -1 0zm13 0l1 0 0 1 -7 0 -1 0 0 -1 4 0 0 1 3 -1zm28 -18l0 0 0 0 1 0 0 0c2,1 3,1 3,2l-2 2 1 0c1,-1 1,-1 1,-2l1 0 0 0 0 1 0 0 0 1c-9,9 -13,17 -13,23l-1 4 0 1 0 0 -1 3 -4 0 0 -3 -1 -2 0 0 1 -5 0 0 0 0 0 0 0 0 0 -1 0 0 0 -1 1 0 0 2 0 2 0 0 1 -5 -1 -1 0 0 0 1 -1 0 0 -3 0 -1 0 0 -5 -14 0 -1 1 0 -1 -2 0 0 1 0c1,0 1,1 1,2l2 -1 1 0c0,2 1,5 4,10 1,-2 3,-4 4,-5l0 1c-3,3 -4,5 -4,6l0 0 0 0 10 -12 0 -1 -5 5 0 -1 5 -5zm-5 6l0 0 -1 1 0 0 1 -1zm5 -1c-5,8 -8,12 -8,13l1 0c2,-4 5,-9 8,-13l-1 0zm-12 28l0 1 0 0 0 -1 0 0zm33 -33c3,0 6,1 9,3l0 1 0 0 1 2 -1 0 0 0 0 0 1 9 0 0c0,-2 0,-2 1,-2l0 1c0,2 -1,5 -4,10l0 0c-1,3 -4,5 -8,7l-2 1 0 0c-6,0 -10,-3 -12,-8l-1 -2 0 0 0 -3 0 -1c0,-2 2,-6 6,-11l0 0c-2,3 -4,6 -5,9l0 0 1 0c0,-4 4,-9 10,-14l-3 1 0 0c0,-1 2,-2 7,-3zm-2 7l0 0 0 0 0 0 -2 3c-3,0 -5,3 -7,11 0,2 2,4 4,5l0 0c3,0 6,-3 10,-9 1,-3 2,-5 2,-6l0 -3c0,-1 -1,-1 -4,-2l0 0 -1 1 0 0 0 -1 -2 1zm12 1l1 0 0 2 -1 0 0 -2zm-20 5l-1 2 0 0 1 -2 0 0zm15 2l-2 4 2 0 1 -3 -1 -1 0 0zm3 1l-1 2 0 0 1 0 0 -1 0 -1 0 0zm-23 2l0 3 0 0 0 -3 0 0zm18 1l-1 2 0 0 1 -2 0 0zm-12 9l0 0 2 1 0 0 -2 -1zm29 -27l2 2c0,-1 1,-1 1,-1l0 0 6 14 0 1 0 0 -1 -3 -1 0 0 1 3 7 0 0c2,-7 3,-14 5,-21l1 0 1 0 3 1 0 1c-1,0 -2,0 -2,1l1 0 0 1 1 0 0 -2 1 0 0 0 -1 0 1 1 0 0c-2,6 -4,15 -5,26l-1 0 1 -6c-1,0 -2,2 -3,7 -1,1 -2,1 -3,1l0 1 0 0c0,0 0,-1 -1,-1l0 -2c0,-2 -3,-8 -8,-20l-1 0c-1,5 -2,11 -2,19l-1 0c-1,0 -2,1 -2,1l-1 0c0,-1 -1,-2 -1,-5l0 0 0 4 -1 0 0 -2c0,-7 1,-16 4,-26l4 0zm-6 10l0 0 0 0 0 1 0 0 0 0 1 -1 -1 0 0 0zm15 6c1,0 1,1 1,3l0 0 0 0 -1 -3zm18 -17l1 0 2 1 2 0c5,0 9,2 13,8l2 4 -1 0 1 2 0 2c0,7 -6,12 -17,15l-4 1c0,-1 0,-2 -1,-2l0 2 -1 0 0 -2 -1 -1 1 0 0 -1c-2,-1 -3,-2 -3,-2 1,-12 2,-21 4,-26l1 0 0 0 1 -1zm-2 4l-2 12 0 0 1 0 2 -11 0 -1 -1 0zm7 3c0,1 -1,1 -2,1 -1,5 -2,10 -2,16 1,0 5,-1 11,-4l0 0 0 0c2,-2 3,-4 3,-7l0 -1c0,-3 -2,-4 -6,-5l-4 0zm7 0l0 0 2 1 0 0 -1 -1 -1 0zm4 6l-1 4 1 0 0 -1 1 -1 -1 -2 0 0zm3 3l-2 6 0 0 0 0 2 -6 0 0 0 0zm-4 2l-1 2 0 0 1 -2 0 0zm-3 7c1,0 2,0 3,-2l0 0 -3 2zm-9 3l0 0 2 0 2 -1 0 0 -1 0 -3 1zm-3 0l1 1 0 0 1 0 0 -1 0 0 -1 1 -1 -1zm-4 3l0 0 0 0 0 1 -1 0 0 -1 1 0z"/>
  </g>
 </g>
</svg>