<?xml version="1.0" encoding="UTF-8"?>
<!DOCTYPE svg PUBLIC "-//W3C//DTD SVG 1.1//EN" "http://www.w3.org/Graphics/SVG/1.1/DTD/svg11.dtd">
<!-- Creator: CorelDRAW X7 -->
<svg xmlns="http://www.w3.org/2000/svg" xml:space="preserve" width="167.922mm" height="115.848mm" version="1.1" style="shape-rendering:geometricPrecision; text-rendering:geometricPrecision; image-rendering:optimizeQuality; fill-rule:evenodd; clip-rule:evenodd"
viewBox="0 0 1075 742"
 xmlns:xlink="http://www.w3.org/1999/xlink">
 <defs>
  <style type="text/css">
   <![CDATA[
    .fil3 {fill:none}
    .fil2 {fill:#00A0E3}
    .fil0 {fill:#DEF1FA;fill-opacity:0.650980}
    .fil1 {fill:#C4E5F3;fill-opacity:0.650980}
   ]]>
  </style>
   <clipPath id="id0">
    <path d="M0 0l1075 0 0 742 -1075 0 0 -742z"/>
   </clipPath>
     <mask id="id1">
  <linearGradient id="id2" gradientUnits="userSpaceOnUse" x1="517.494" y1="260.285" x2="-255.696" y2="968.683">
   <stop offset="0" style="stop-opacity:1; stop-color:white"/>
   <stop offset="0.831373" style="stop-opacity:0.501961; stop-color:white"/>
   <stop offset="1" style="stop-opacity:0; stop-color:white"/>
  </linearGradient>
      <rect style="fill:url(#id2)" x="-3" y="105" width="1078" height="639"/>
     </mask>
 </defs>
 <g id="Layer_x0020_1">
  <metadata id="CorelCorpID_0Corel-Layer"/>
  <g>
  </g>
  <g style="clip-path:url(#id0)">
   <g>
    <path class="fil0" d="M0 415l898 0 0 0c1,0 2,0 2,0 92,0 166,84 166,189 0,104 -74,188 -166,188 0,0 -1,0 -2,0l0 0 -898 0 0 -377z"/>
    <path class="fil1" d="M316 66c39,40 59,93 89,139l281 536 -478 0 -208 0 0 -552c-1,-46 0,-58 20,-89 11,-15 25,-33 54,-54 68,-50 183,-40 242,20z"/>
    <path class="fil2" style="mask:url(#id1)" d="M823 193l252 550 -78 -1 -997 0 -2 -374 635 -251c75,-31 156,2 190,76z"/>
   </g>
  </g>
  <polygon class="fil3" points="0,0 1075,0 1075,742 0,742 "/>
 </g>
</svg>
