<?xml version="1.0" encoding="UTF-8"?>
<!DOCTYPE svg PUBLIC "-//W3C//DTD SVG 1.1//EN" "http://www.w3.org/Graphics/SVG/1.1/DTD/svg11.dtd">
<!-- Creator: CorelDRAW X7 -->
<svg xmlns="http://www.w3.org/2000/svg" xml:space="preserve" width="351.239mm" height="242.316mm" version="1.1" style="shape-rendering:geometricPrecision; text-rendering:geometricPrecision; image-rendering:optimizeQuality; fill-rule:evenodd; clip-rule:evenodd"
viewBox="0 0 6897 4758"
 xmlns:xlink="http://www.w3.org/1999/xlink">
 <defs>
  <style type="text/css">
   <![CDATA[
    .fil3 {fill:none}
    .fil2 {fill:#00A0E3}
    .fil0 {fill:#DEF1FA;fill-opacity:0.650980}
    .fil1 {fill:#C4E5F3;fill-opacity:0.650980}
   ]]>
  </style>
   <clipPath id="id0">
    <path d="M0 0l6897 0 0 4758 -6897 0 0 -4758z"/>
   </clipPath>
     <mask id="id1">
  <linearGradient id="id2" gradientUnits="userSpaceOnUse" x1="3319.53" y1="1704.04" x2="-1640.19" y2="6248.15" spreadMethod="reflect">
   <stop offset="0" style="stop-opacity:1; stop-color:white"/>
   <stop offset="0.831373" style="stop-opacity:0.501961; stop-color:white"/>
   <stop offset="1" style="stop-opacity:0; stop-color:white"/>
  </linearGradient>
      <rect style="fill:url(#id2)" x="-14" y="708" width="6913" height="4093"/>
     </mask>
 </defs>
 <g id="Layer_x0020_1">
  <metadata id="CorelCorpID_0Corel-Layer"/>
  <g>
  </g>
  <g style="clip-path:url(#id0)">
   <g>
    <path class="fil0" d="M0 2661l5761 0 0 0c5,0 9,0 14,0 587,0 1064,542 1064,1210 0,669 -477,1211 -1064,1211 -5,0 -9,0 -14,0l0 0 -5761 0 0 -2421z"/>
    <path class="fil1" d="M2027 424c250,253 381,596 571,894l1805 3436 -3067 0 -1336 0 0 -3542c-3,-295 0,-374 131,-569 65,-98 158,-212 346,-350 432,-317 1170,-254 1550,131z"/>
    <path class="fil2" style="mask:url(#id1)" d="M5278 1271l1619 3529 -500 -4 -6397 0 -12 -2404 4070 -1610c487,-193 1002,14 1220,489z"/>
   </g>
  </g>
  <polygon class="fil3" points="0,0 6897,0 6897,4758 0,4758 "/>
 </g>
</svg>
