<?xml version="1.0" encoding="UTF-8"?>
<!DOCTYPE svg PUBLIC "-//W3C//DTD SVG 1.1//EN" "http://www.w3.org/Graphics/SVG/1.1/DTD/svg11.dtd">
<!-- Creator: CorelDRAW X7 -->
<svg xmlns="http://www.w3.org/2000/svg" xml:space="preserve" width="146.144mm" height="36.8234mm" version="1.1" style="shape-rendering:geometricPrecision; text-rendering:geometricPrecision; image-rendering:optimizeQuality; fill-rule:evenodd; clip-rule:evenodd"
viewBox="0 0 2591 653"
 xmlns:xlink="http://www.w3.org/1999/xlink">
 <defs>
  <style type="text/css">
   <![CDATA[
    .fil6 {fill:#00A0E3;fill-rule:nonzero}
    .fil7 {fill:#FF7803;fill-rule:nonzero}
    .fil3 {fill:url(#id0)}
    .fil0 {fill:url(#id1)}
    .fil2 {fill:url(#id2)}
    .fil1 {fill:url(#id3)}
    .fil4 {fill:url(#id4)}
    .fil5 {fill:url(#id5)}
   ]]>
  </style>
  <linearGradient id="id0" gradientUnits="userSpaceOnUse" x1="492.497" y1="233.286" x2="340.433" y2="197.085">
   <stop offset="0" style="stop-opacity:1; stop-color:#028CB1"/>
   <stop offset="1" style="stop-opacity:1; stop-color:#38CCF5"/>
  </linearGradient>
  <linearGradient id="id1" gradientUnits="userSpaceOnUse" x1="70.401" y1="270.135" x2="272.442" y2="65.1667">
   <stop offset="0" style="stop-opacity:1; stop-color:#028CB1"/>
   <stop offset="1" style="stop-opacity:1; stop-color:#81DDF7"/>
  </linearGradient>
  <linearGradient id="id2" gradientUnits="userSpaceOnUse" x1="137.773" y1="117.411" x2="653.293" y2="593.823">
   <stop offset="0" style="stop-opacity:1; stop-color:#F7AE6B"/>
   <stop offset="1" style="stop-opacity:1; stop-color:#FF7803"/>
  </linearGradient>
  <linearGradient id="id3" gradientUnits="userSpaceOnUse" x1="528.091" y1="549.557" x2="608.948" y2="566.252">
   <stop offset="0" style="stop-opacity:1; stop-color:#FDE7D3"/>
   <stop offset="0.631373" style="stop-opacity:1; stop-color:#F1AB7A"/>
   <stop offset="1" style="stop-opacity:1; stop-color:#E46F20"/>
  </linearGradient>
  <linearGradient id="id4" gradientUnits="userSpaceOnUse" x1="407.684" y1="99.096" x2="483.544" y2="150.126">
   <stop offset="0" style="stop-opacity:1; stop-color:#018AAF"/>
   <stop offset="1" style="stop-opacity:1; stop-color:#40D6FF"/>
  </linearGradient>
  <linearGradient id="id5" gradientUnits="userSpaceOnUse" x1="-21.1483" y1="471.944" x2="97.312" y2="249.03">
   <stop offset="0" style="stop-opacity:1; stop-color:#038DB2"/>
   <stop offset="0.184314" style="stop-opacity:1; stop-color:#038DB2"/>
   <stop offset="0.419608" style="stop-opacity:1; stop-color:#73D0E9"/>
   <stop offset="1" style="stop-opacity:1; stop-color:#038DB2"/>
  </linearGradient>
 </defs>
 <g id="Layer_x0020_1">
  <metadata id="CorelCorpID_0Corel-Layer"/>
  <g id="_2013082252944">
   <g>
    <g>
     <g>
      <path class="fil0" d="M343 160c-39,-20 -64,-25 -137,-33 -74,-7 -204,15 -198,151 -28,-107 19,-170 94,-200 75,-30 173,-30 240,9l1 73z"/>
      <path class="fil1" d="M550 480c33,-23 105,103 10,158 0,0 -61,-7 -10,-158z"/>
      <path class="fil2" d="M787 227c-11,-324 -252,-123 -308,118 -16,69 -22,122 -23,161l12 94c4,9 6,13 6,13 0,0 41,48 86,25 0,0 -48,-7 -4,-170 44,-163 135,-434 231,-241zm-337 283c-32,18 -79,41 -140,60 -119,38 -211,-76 -211,-76 45,133 222,155 222,155 0,0 72,6 138,-41 1,-1 2,-2 3,-3l-12 -95 0 0zm-396 -143c0,0 -85,59 -32,149 54,90 177,118 177,118 0,0 66,19 113,19 0,0 -70,-14 -136,-46 -66,-33 -91,-102 -91,-102 0,0 -19,-34 13,-89l-44 -49z"/>
      <path class="fil3" d="M350 164c-18,-108 31,-136 83,-92 -83,-17 23,169 54,205 0,0 -11,27 -26,101 -50,-47 -96,-141 -111,-214z"/>
      <path class="fil4" d="M424 159c0,0 -12,-43 15,-22 27,22 43,34 43,34 0,0 22,-4 -16,-64 -37,-59 -58,-20 -58,-20 0,0 -11,10 16,72z"/>
     </g>
     <path class="fil5" d="M156 299c0,0 122,-33 168,31 0,0 30,54 -24,83 -53,28 -128,-1 -128,-1 0,0 -187,-52 -152,-173 0,0 4,-46 99,-45 0,0 -77,15 -43,77 0,0 43,55 155,64l-75 -36z"/>
    </g>
    <g>
     <path class="fil6" d="M1091 337l0 0c-1,0 -3,0 -5,0 -54,0 -108,0 -162,0 -1,0 -1,0 -1,0 0,0 0,0 0,0 0,-1 0,-1 -1,-1 0,0 0,-1 0,-1 0,-11 -1,-22 -1,-33 0,-4 0,-8 0,-13 1,-2 1,-4 1,-7 0,-1 0,-2 0,-3 0,-5 0,-9 0,-14 0,-8 0,-16 0,-25 0,-1 0,-2 0,-3 0,-4 0,-7 0,-11 0,0 0,-1 0,-2 1,-16 1,-32 1,-47 0,-2 0,-4 0,-6 0,-1 0,-2 0,-4 0,-3 0,-7 0,-11 0,-8 0,-16 0,-24 0,-8 0,-16 0,-24 0,-4 0,-8 0,-11 0,-1 0,-1 0,-1 0,-4 0,-7 0,-11 0,0 0,-1 0,-1 0,0 0,0 0,-1 1,0 2,0 3,0 0,0 1,0 1,0 1,-1 2,-1 3,-1 7,-1 15,-2 22,-4 6,-1 12,-2 18,-3 3,-1 6,-1 10,-2 2,0 4,-1 6,-1 3,-1 7,-1 10,-2 2,0 4,-1 5,-1 1,0 1,0 1,0 4,0 8,-1 12,-2 2,0 3,0 5,0 2,0 4,-1 6,-1 2,0 5,-1 7,-1 3,0 5,-1 7,-1 2,0 4,0 6,-1 2,0 3,0 5,0 2,-1 4,-1 6,-1 2,0 3,-1 5,-1 2,0 4,0 6,-1 2,0 3,0 5,0 3,-1 5,-1 8,-1 1,-1 2,-1 3,-1 1,0 2,0 3,0 2,-1 5,-1 7,-1 1,0 1,0 1,0 1,0 1,0 1,0 0,0 0,0 0,0 0,0 0,1 0,1 0,0 0,1 0,1 0,0 0,0 0,1 0,2 0,5 0,8 0,18 0,37 0,56 0,0 0,0 0,1 0,0 0,1 0,1 -1,1 -2,1 -3,1 -1,0 -2,0 -3,0 -1,0 -2,0 -3,0 -1,0 -1,0 -2,0 -1,1 -2,1 -3,1 -1,0 -1,0 -2,0 -1,0 -1,0 -1,0 -2,0 -3,0 -5,0 -1,0 -2,0 -3,0 -1,0 -2,1 -3,1 -1,0 -2,0 -3,0 -1,0 -2,0 -2,0 -2,0 -4,0 -6,1 -2,0 -3,0 -5,0 -2,0 -4,0 -6,0 0,0 0,0 0,0 -1,0 -2,0 -3,0 0,1 -1,1 -2,1 -1,0 -2,0 -2,0 -1,0 -3,0 -4,0 -2,0 -3,0 -5,1 -1,0 -2,0 -3,0 -1,0 -2,0 -3,0 -1,0 -2,0 -4,0 0,0 -1,0 -1,0 -1,0 -1,0 -2,0 -1,1 -3,1 -4,1 -1,0 -1,0 -2,0 -1,0 -2,0 -3,0 -2,0 -3,0 -4,1 -1,0 -2,0 -2,0 0,0 0,0 0,0 0,1 0,1 0,1 0,7 -1,13 -1,19 0,5 0,9 0,14 0,1 0,1 0,2 0,0 0,1 0,2 0,0 0,0 0,0 0,1 0,1 0,1 0,0 0,0 1,0 0,0 0,0 1,0 3,0 5,0 8,0 4,0 7,0 11,0 4,0 8,0 12,0 4,0 9,0 13,0 3,1 6,1 9,1 1,0 3,0 5,0 0,0 1,0 1,0 1,0 1,0 1,0 0,0 0,0 0,0 0,0 0,1 0,1 0,0 0,1 0,1 0,0 0,0 0,1 0,2 0,4 0,6 0,12 0,24 0,36 0,1 0,1 0,2 0,0 0,1 0,1 0,0 0,0 0,0 -1,0 -1,0 -1,0 -5,0 -9,0 -14,0 -4,0 -7,0 -11,0 -13,0 -26,0 -40,0 0,0 0,0 0,0 -1,0 -1,0 -1,0 0,0 0,0 0,1 0,0 0,0 0,0 0,5 0,9 -1,14 0,2 0,5 0,7 0,4 0,8 0,12 -1,4 -1,8 -1,12 0,0 0,1 0,1 0,0 0,0 0,0 0,1 1,1 1,1 0,0 0,0 1,0 8,-1 17,-1 26,-2 0,0 0,0 0,0 9,0 18,0 28,-1 8,0 16,-1 24,-1 1,0 2,0 3,0 2,0 3,0 5,0 4,-1 9,-1 14,-1 0,0 0,0 1,0 0,0 0,0 0,0 0,0 0,0 0,0 0,0 0,0 0,0 0,0 0,0 0,0 1,0 1,1 1,1 -2,23 -4,46 -5,70 0,0 0,0 0,0 -1,0 -1,1 -1,1zm191 -148l0 0c0,0 0,0 0,0 1,0 1,0 1,-1 2,-2 5,-4 7,-6 1,0 1,-1 1,-1 0,0 0,0 1,0 2,-3 4,-5 7,-7 11,-9 24,-16 38,-19 6,-1 11,-2 17,-1 5,0 10,0 15,2 10,3 18,9 25,17 3,5 7,10 9,15 3,7 6,15 8,23 2,7 3,15 4,23 2,14 2,27 2,40 0,8 0,16 -1,24 0,7 -1,15 -2,22 0,4 -1,8 -2,12 0,2 0,4 0,5 0,1 0,1 -1,1 0,1 0,1 0,1 -1,0 -1,0 -2,0 0,0 0,0 0,0 0,0 -1,0 -1,1 -2,0 -4,0 -6,0 -2,0 -3,0 -5,0 -3,1 -5,1 -8,1 -3,0 -5,1 -8,1 -2,0 -4,0 -5,0 -1,1 -1,1 -2,1 -3,0 -6,0 -9,1 -2,0 -5,0 -7,0 -2,0 -4,1 -6,1 -1,0 -1,0 -2,0 0,0 -1,0 -1,0 -1,0 -2,0 -2,-2 1,-2 1,-4 1,-6 1,-5 2,-9 3,-14 1,-7 2,-14 2,-21 1,-5 2,-11 2,-16 0,-1 0,-3 0,-4 0,0 0,0 0,0 1,-1 1,-1 1,-2 0,-2 0,-3 0,-5 0,-4 0,-9 0,-13 0,-8 0,-17 -1,-25 -1,-6 -2,-11 -4,-16 -1,-3 -3,-7 -5,-9 -2,-4 -5,-6 -9,-8 -4,-1 -7,-1 -10,-1 -8,1 -15,5 -21,11 -5,6 -9,13 -11,21 -1,3 -1,6 -1,9 -1,6 -1,13 -2,19 0,5 -1,11 -1,16 0,0 0,1 0,2 0,5 -1,10 -1,16 0,2 0,4 0,6 0,1 0,1 0,1 0,1 0,2 0,3 0,2 0,4 0,6 -1,7 -1,15 -1,22 0,2 0,2 0,3 -1,1 -1,1 -1,1 -1,0 -2,0 -3,1 0,0 0,0 0,0 -3,0 -6,0 -9,0 -2,1 -3,1 -5,1 0,0 0,0 0,0 -3,0 -6,0 -10,1 -1,0 -3,0 -5,0 -3,0 -5,1 -7,1 -3,0 -5,0 -8,1 -2,0 -4,0 -5,0 -1,0 -2,0 -3,0 -2,1 -3,1 -5,1 -2,0 -2,0 -3,0 0,-1 0,-2 0,-4 2,-9 3,-18 5,-27 1,-7 2,-14 3,-22 0,-3 0,-6 0,-9 0,-2 1,-4 1,-6 0,-9 1,-17 0,-26 0,-7 -1,-14 -2,-21 -1,-4 -2,-9 -4,-13 -1,-3 -3,-5 -5,-7 -5,-5 -10,-8 -17,-7 -8,1 -14,4 -20,11 -2,2 -4,4 -5,6 -5,7 -8,15 -9,24 -1,3 -1,6 -1,9 -1,18 -2,36 -2,54 0,9 0,19 0,28 1,1 1,3 1,5 0,1 -1,2 -2,2 -5,0 -9,0 -13,1 -7,0 -13,0 -20,1 -3,0 -6,0 -8,0 -1,0 -1,0 -1,0 0,0 0,0 -1,0 -1,0 -2,1 -4,1 -4,0 -8,0 -12,0 -2,0 -4,0 -6,0 -1,0 -1,0 -1,-1 0,-1 0,-1 0,-2 0,-1 0,-1 0,-2 0,0 0,0 0,-1 0,-56 0,-112 0,-168 0,-1 0,-1 0,-1 0,-1 0,-2 0,-3 0,0 0,-1 0,-1 0,0 0,-1 0,-1 1,0 2,-1 4,-1 7,-2 14,-3 21,-5 7,-1 13,-3 20,-4 5,-1 10,-2 14,-3 1,0 1,0 1,0 1,0 1,0 1,0 1,0 1,0 1,1 0,0 0,0 0,0 0,0 0,0 0,1 0,0 0,0 0,1 0,0 0,0 0,0 0,1 0,2 0,3 0,3 -1,5 -1,8 0,0 0,1 0,1 0,6 0,13 0,19 0,1 0,2 0,2 0,1 0,1 0,1 0,0 0,0 0,0 0,0 0,0 0,1 0,0 0,0 0,0 0,0 0,0 0,0 0,-1 0,-1 0,-1 1,0 1,0 2,-1 1,-2 2,-3 4,-5 1,-3 3,-5 5,-7 3,-2 6,-4 9,-6 9,-6 18,-11 28,-14 7,-2 15,-3 22,-2 6,0 11,1 16,3 9,3 16,8 22,15 4,4 7,9 9,13 0,1 0,1 0,1 1,1 1,2 2,3zm143 -5l0 0c2,0 3,0 4,-1 3,-1 5,-2 8,-2 3,-1 6,-2 9,-3 2,-1 5,-2 8,-3 6,-2 11,-3 17,-3 4,-1 7,-1 10,-1 1,0 2,0 4,0 0,-1 1,-1 2,-1 1,0 1,1 2,1 0,0 0,1 0,2 0,4 0,8 0,11 0,6 0,11 1,16 0,2 0,3 0,5 0,1 0,1 0,2 0,0 0,0 0,0 0,0 0,0 0,0 0,0 0,0 0,0 0,0 0,0 0,0 0,0 0,0 0,0 0,0 1,0 1,0 0,0 0,-1 1,-1 0,0 0,0 0,0 1,-2 2,-4 4,-5 4,-6 9,-11 14,-15 4,-2 7,-4 10,-6 9,-5 18,-7 28,-7 9,0 18,2 26,6 13,5 23,14 31,26 6,9 9,18 12,28 2,7 3,14 3,22 1,7 1,15 0,22 -1,11 -4,22 -8,32 -5,13 -13,23 -24,29 -8,5 -16,8 -25,10 -8,1 -16,1 -24,0 -13,-1 -25,-5 -37,-11 -1,0 -2,-1 -2,-1 -1,-1 -3,-1 -4,-2 0,0 0,0 -1,1 0,0 0,0 0,0 0,0 0,0 0,0 0,1 0,1 0,1 0,5 1,11 1,16 0,2 0,3 0,5 0,1 0,2 0,3 0,3 0,6 1,8 0,6 0,13 0,19 0,5 1,10 1,15 0,3 0,6 0,9 0,2 1,3 1,5 0,1 -1,1 -2,1 -5,0 -9,0 -14,-1 -1,0 -2,0 -3,0 -1,0 -1,0 -1,0 0,0 0,0 -1,0 -2,0 -4,0 -7,0 -4,0 -9,-1 -15,-1 -4,0 -8,0 -12,-1 -3,0 -6,0 -9,0 -2,0 -3,0 -4,0 -1,0 -2,0 -3,0 0,0 0,0 0,0 -1,-1 -1,-1 -2,-1 0,0 0,0 0,0 -1,0 -1,0 -1,0 0,-1 0,-1 0,-2 0,-1 0,-2 0,-3 0,0 0,0 0,0 0,-4 0,-8 0,-12 0,-69 0,-138 0,-206 0,-1 0,-1 0,-1 0,-1 0,-3 0,-5zm68 110l0 0c3,3 5,6 9,8 9,6 20,8 31,5 10,-3 17,-10 22,-20 5,-9 7,-19 5,-30 -2,-10 -6,-18 -11,-24 -6,-6 -12,-10 -18,-12 -6,-2 -11,-3 -16,-2 -10,2 -18,8 -23,17 -1,1 -1,2 -1,3 0,2 0,3 0,5 0,0 0,1 0,2 0,10 1,19 1,29 1,4 1,9 1,13 0,2 0,4 0,6zm329 -50l0 0c0,18 -3,36 -10,53 -5,11 -10,21 -18,29 -11,13 -24,22 -40,27 -6,2 -13,4 -20,4 -4,1 -8,1 -13,1 -8,-1 -16,-2 -24,-5 -23,-8 -42,-22 -58,-41 -10,-12 -17,-26 -21,-41 -2,-8 -3,-17 -3,-26 0,0 0,0 0,0 -1,-2 -1,-4 0,-7 0,-24 7,-45 22,-63 12,-17 29,-28 48,-35 6,-2 13,-3 20,-4 7,-1 14,-1 22,-1 15,1 29,5 43,12 13,7 24,16 33,29 7,10 11,21 14,32 3,9 4,18 5,27 0,2 0,4 0,6 0,1 0,2 0,3zm-55 -1l0 0c0,0 0,-1 0,-1 0,-1 0,-2 0,-4 0,-1 -1,-3 -1,-4 0,0 0,0 0,-1 -1,-5 -2,-10 -5,-15 -4,-9 -11,-16 -21,-20 -10,-4 -20,-6 -30,-4 -8,1 -15,5 -22,10 -14,13 -20,29 -16,49 1,8 5,15 9,21 8,9 17,16 27,19 5,2 10,2 14,2 2,0 4,0 6,0 0,0 0,0 0,0 5,-1 9,-2 13,-4 10,-5 17,-13 21,-23 3,-8 5,-16 5,-25z"/>
     <path class="fil6" d="M1898 277l0 0c0,-1 0,-1 0,-2 0,-1 1,-2 1,-3 0,-4 1,-7 1,-10 1,-4 1,-7 1,-11 1,-4 2,-8 2,-12 1,-3 1,-6 1,-9 1,-2 1,-5 1,-8 1,-2 1,-4 1,-5 0,-3 1,-5 1,-7 0,-3 1,-6 1,-9 1,-3 1,-6 1,-9 1,-2 1,-4 1,-6 0,-1 0,-1 0,-2 1,-4 1,-8 2,-12 0,-3 1,-6 1,-9 0,-1 0,-1 1,-1 0,-1 0,-1 1,-1 0,0 0,0 0,0 1,0 2,0 3,0 2,-1 4,-1 5,-1 2,0 4,0 6,-1 3,0 5,0 7,0 2,0 3,-1 5,-1 2,0 5,0 7,-1 6,0 11,-1 17,-1 0,0 1,0 1,1 1,2 1,3 1,5 2,8 4,15 6,22 7,27 13,53 20,80 0,0 0,0 0,1 1,1 1,2 2,3 0,0 0,0 0,0 0,0 0,0 0,0 0,0 0,0 0,0 0,0 0,0 0,0 0,0 0,0 0,0 1,-1 1,-2 1,-3 1,-6 2,-13 3,-19 2,-8 3,-17 5,-25 2,-8 3,-16 5,-24 1,-7 2,-13 3,-20 1,-5 2,-10 3,-15 1,-4 2,-8 3,-12 0,-1 0,-1 0,-2 0,0 0,0 0,0 0,-1 0,-1 0,-1 1,0 1,0 1,0 0,0 1,0 1,0 1,0 2,0 3,0 3,1 7,1 11,2 4,1 9,1 13,2 4,1 8,1 13,2 2,0 3,0 6,1 2,0 4,0 6,1 0,0 0,0 1,0 0,0 0,0 0,0 0,0 0,0 1,0 0,1 0,1 0,1 0,1 0,2 -1,3 0,2 0,4 -1,6 0,3 -1,6 -1,9 -2,12 -4,24 -6,35 -3,14 -6,27 -9,40 -7,28 -15,56 -23,84 0,0 0,1 0,2 -1,1 -1,1 -2,1 -1,0 -1,1 -2,1 -2,0 -5,0 -7,0 -1,1 -3,1 -4,1 -3,0 -5,0 -7,0 -3,1 -5,1 -7,1 -2,0 -3,1 -5,1 -3,0 -6,0 -9,1 -4,0 -8,1 -12,1 -1,0 -2,0 -2,0 -1,0 -2,0 -2,-1 -1,-2 -1,-4 -2,-6 -3,-19 -7,-37 -11,-55 -3,-11 -6,-23 -9,-34 -1,0 -1,-1 -1,-2 0,0 0,0 0,0 0,0 0,0 0,0 0,0 0,0 0,0 -1,0 -1,0 -1,0 0,0 0,0 0,0 0,0 0,0 0,0 0,1 0,1 0,1 -1,6 -2,12 -3,17 0,1 0,2 0,3 -1,6 -2,11 -3,16 0,4 -1,7 -1,10 -1,3 -1,6 -1,9 -1,3 -1,6 -2,9 0,3 -1,7 -1,10 -1,2 -1,5 -1,7 0,2 -1,4 -1,6 0,1 0,2 -1,3 0,1 0,1 -1,1 0,0 0,0 0,0 -1,0 -1,0 -2,0 -4,1 -8,2 -12,2 -4,1 -9,2 -13,2 -8,1 -15,2 -23,4 -2,0 -5,0 -8,1 -2,0 -3,0 -5,1 -1,0 -1,0 -2,0 0,0 -1,0 -1,-1 -1,-1 -1,-2 -1,-3 -1,-3 -2,-5 -3,-8 -3,-6 -5,-12 -8,-18 -10,-28 -20,-56 -29,-84 -7,-20 -12,-39 -16,-60 -1,-3 -1,-6 -2,-9 0,-1 0,-2 -1,-4 0,-1 1,-1 1,-1 1,0 2,-1 3,-1 8,-1 16,-3 24,-4 4,-1 8,-1 12,-2 3,0 6,-1 10,-2 1,0 2,0 3,0 2,0 3,-1 4,-1 1,0 2,0 3,0 1,-1 2,0 2,1 2,9 4,18 6,26 0,1 0,1 0,2 1,5 2,10 3,15 2,10 4,19 6,29 2,8 3,16 5,24 1,7 3,14 4,21 0,1 1,2 1,3 0,2 0,4 1,6 0,0 0,0 0,0 0,0 0,1 0,1 0,0 1,0 1,1zm274 -135l0 0c5,0 10,0 16,1 12,2 23,5 34,11 12,7 21,16 29,28 2,3 4,7 6,10 3,6 4,12 4,19 -1,8 -3,15 -8,21 -4,6 -10,11 -18,13 -2,1 -4,1 -6,1 0,0 -1,1 -2,1 -3,0 -6,1 -9,1 -1,0 -3,0 -4,1 -3,0 -5,0 -8,1 -2,0 -4,1 -6,1 -3,0 -5,0 -7,1 -2,0 -5,1 -7,1 -2,0 -5,1 -7,1 -3,0 -5,1 -7,1 -3,0 -5,1 -7,1 -2,0 -5,1 -7,1 -2,0 -4,1 -6,1 -3,0 -6,1 -8,1 -3,1 -5,1 -8,1 -2,1 -4,1 -6,1 -1,1 -2,1 -3,1 -1,0 -1,0 -1,1 1,4 1,7 2,10 4,10 10,18 19,23 9,6 19,8 30,7 7,-1 15,-3 21,-8 4,-2 8,-5 11,-8 0,-1 1,-2 2,-2 0,-1 1,-1 1,-1 1,0 2,1 3,1 0,0 0,0 1,0 2,0 4,1 7,1 6,1 12,2 18,4 3,0 7,1 11,2 3,0 6,1 9,1 1,1 3,1 5,2 1,0 1,0 1,0 0,0 0,1 0,1 0,0 0,0 0,0 0,1 -1,1 -1,2 -5,11 -12,20 -21,27 -6,5 -12,8 -19,11 -8,4 -17,7 -25,9 -3,0 -6,1 -9,2 -8,1 -16,1 -24,1 -5,-1 -9,-1 -14,-2 -23,-5 -42,-15 -60,-31 -10,-9 -17,-19 -23,-31 -3,-8 -6,-16 -7,-25 -1,-5 -1,-10 -1,-15 0,-18 4,-34 13,-49 9,-17 22,-30 39,-39 10,-5 20,-9 30,-11 9,-2 18,-3 27,-3zm-8 47l0 0c0,0 -1,0 -1,0 -2,0 -4,1 -6,1 -4,1 -8,3 -12,6 -6,4 -10,9 -14,15 -4,6 -7,12 -8,18 -1,1 -1,2 -1,4 0,0 0,0 0,1 0,0 0,0 0,0 0,0 0,0 0,1 0,0 0,0 0,0 0,0 0,0 0,0 1,0 1,0 2,0 1,0 3,-1 4,-1 2,-1 4,-1 5,-1 9,-2 17,-4 25,-6 9,-2 18,-4 28,-6 0,0 0,0 1,0 1,0 3,-1 5,-1 3,-1 5,-4 6,-7 1,-3 0,-6 -2,-9 -1,-1 -1,-1 -2,-2 -4,-3 -8,-6 -13,-9 -5,-2 -11,-4 -17,-4zm101 -19l0 0c0,-1 0,-1 1,-1 1,0 1,0 2,0 19,-4 37,-9 56,-13 0,0 1,0 2,0 0,0 0,0 0,0 0,0 1,0 1,0 0,0 0,1 0,1 0,0 0,0 0,0 1,0 1,1 1,1 0,3 0,6 0,8 1,2 1,3 1,5 0,2 0,5 0,7 1,1 1,3 1,4 0,0 0,1 0,1 0,0 0,0 0,0 0,0 0,0 0,0 0,0 0,0 0,0 0,0 0,0 0,0 1,0 1,0 1,0 0,0 0,0 0,0 0,0 0,0 1,-1 1,0 1,-2 2,-3 3,-4 7,-8 11,-10 7,-5 14,-8 22,-10 6,-1 13,-2 19,-1 10,0 19,2 27,5 2,1 3,1 4,2 0,0 1,0 1,0 0,1 0,1 0,1 0,0 0,1 0,1 0,0 0,0 0,0 0,1 -1,1 -1,2 -10,14 -20,29 -29,43 -1,1 -2,2 -2,2 0,0 0,1 -1,1 0,0 0,0 0,0 -1,-1 -1,-2 -2,-2 -3,-3 -6,-5 -10,-7 -3,-1 -7,-2 -11,-3 -1,0 -2,0 -4,0 -5,1 -10,2 -14,4 -3,1 -5,3 -7,4 -2,2 -4,5 -6,8 -1,1 -1,4 -1,6 0,1 0,2 0,4 0,3 0,6 0,9 0,7 0,14 0,21 0,10 1,20 1,31 0,4 0,8 0,12 0,0 0,0 0,0 0,0 0,1 0,1 0,1 1,3 1,5 0,10 0,21 1,31 0,1 0,1 0,2 0,1 -1,2 -2,2 -2,0 -5,1 -7,1 -4,0 -8,1 -11,1 -3,0 -5,0 -7,1 -2,0 -3,0 -5,0 -2,1 -4,1 -6,1 -2,0 -4,0 -6,1 -2,0 -4,0 -6,0 -2,0 -4,1 -6,1 -4,0 -8,1 -11,1 0,0 -1,0 -1,0 0,-1 0,-1 0,-1 0,0 0,-1 0,-1 0,0 0,0 0,0 0,-1 0,-2 0,-3 0,0 0,0 0,-1 0,-18 0,-37 0,-55 0,-3 0,-6 0,-8 0,-6 0,-13 0,-19 0,-29 0,-58 0,-87 0,0 0,-1 0,-1 -1,-1 -1,-3 0,-4z"/>
    </g>
    <path class="fil7" d="M1680 624l0 0c-1,0 -2,0 -3,0 -2,1 -4,1 -6,1 -6,1 -12,2 -18,3 -3,1 -7,1 -10,2 -4,0 -8,1 -12,1 -3,1 -6,1 -9,2 -3,0 -5,1 -7,1 -6,1 -11,2 -17,3 -4,0 -8,1 -12,2 0,0 0,0 -1,0 0,0 0,0 0,-1 0,0 0,0 0,0 0,0 0,-1 0,-2 0,-4 0,-7 0,-11 0,0 0,0 0,-1 0,-10 1,-20 1,-31 0,0 0,0 0,0 0,-1 0,-1 0,-1 0,-4 1,-7 1,-11 0,-6 0,-13 0,-20 1,-4 1,-9 1,-14 0,-2 0,-4 0,-6 0,-1 0,-1 0,-1 0,-1 0,-1 0,-2 0,-1 0,-2 0,-3 -2,-3 -3,-6 -5,-9 0,-1 -1,-2 -2,-4 -4,-9 -9,-18 -13,-27 -17,-34 -34,-68 -51,-101 0,-2 -1,-3 -1,-4 0,0 0,0 0,-1 0,0 0,0 0,0 0,0 0,0 0,0 1,0 1,0 1,0 1,0 3,0 5,-1 2,0 4,0 6,0 3,0 6,0 8,-1 2,0 5,0 7,0 3,0 7,-1 10,-1 2,0 4,0 7,0 2,-1 5,-1 7,-1 4,0 7,0 10,-1 2,0 4,0 6,0 3,-1 7,-1 11,-1 1,0 1,0 2,0 0,0 0,1 0,2 1,0 1,1 1,1 0,1 0,1 0,1 2,5 4,11 5,16 8,26 17,52 25,78 0,0 0,0 0,0 0,1 1,2 1,3 0,0 0,0 0,0 0,0 0,0 1,0 0,0 0,0 0,-1 0,0 0,0 0,-1 1,-6 2,-12 4,-18 1,-9 3,-18 5,-27 2,-10 3,-20 5,-29 1,-6 2,-12 4,-18 0,-1 0,-3 1,-5 0,-2 0,-3 0,-5 1,-1 1,-2 2,-2 1,0 2,0 2,0 0,0 0,0 0,0 2,0 3,0 4,0 3,0 6,0 9,0 3,0 6,-1 9,-1 4,0 8,0 12,0 6,-1 11,-1 17,-1 2,0 4,-1 7,-1 0,0 0,0 0,0 0,0 0,0 0,0 1,0 2,0 3,0 8,0 16,0 24,-1 1,0 1,0 1,0 0,0 0,0 0,0 1,0 1,0 1,0 0,0 0,1 0,1 0,0 0,0 0,0 0,0 0,0 0,1 0,0 0,1 -1,2 -3,9 -7,18 -11,28 -10,26 -21,53 -31,80 -7,16 -13,33 -20,50 0,0 0,0 0,1 0,0 0,0 0,0 -1,1 -1,3 -1,4 0,1 0,1 0,2 0,1 0,2 0,3 1,7 1,14 2,20 0,3 0,6 0,9 0,2 1,5 1,7 0,4 0,8 1,12 0,3 0,6 0,8 0,3 1,6 1,9 0,1 0,3 0,5 0,1 0,2 0,4 0,1 0,2 0,3 0,0 0,0 0,0 0,0 0,1 0,1zm208 -79l0 0c0,17 -4,32 -10,48 -4,10 -10,19 -17,27 -11,11 -24,19 -39,24 -6,2 -13,3 -20,4 -4,0 -8,0 -12,0 -8,0 -16,-2 -23,-4 -23,-8 -41,-20 -56,-37 -10,-11 -16,-24 -20,-37 -3,-8 -4,-16 -4,-24 0,0 0,0 0,0 0,-2 0,-4 0,-6 1,-22 8,-41 21,-58 13,-15 28,-25 47,-31 6,-1 13,-3 19,-4 7,0 14,0 21,0 15,1 29,4 42,11 13,6 24,14 32,26 7,8 11,18 14,29 2,8 4,16 4,24 0,2 0,4 0,6 0,0 1,1 1,2zm-54 -1l0 0c0,0 0,0 0,-1 0,-1 0,-2 0,-3 0,-1 0,-3 0,-4 0,0 0,0 0,0 -1,-5 -3,-10 -5,-14 -4,-9 -11,-15 -21,-19 -9,-3 -19,-5 -28,-3 -8,1 -15,4 -22,9 -13,12 -19,26 -16,44 2,7 5,13 10,19 7,8 15,14 26,18 4,1 9,2 13,2 2,0 4,-1 5,-1 1,0 1,0 1,0 4,0 9,-2 13,-3 9,-5 15,-12 20,-21 3,-7 4,-15 4,-23zm241 83l0 0c-1,0 -2,1 -3,1 0,0 0,0 -1,0 -10,2 -21,4 -32,6 -3,1 -7,2 -11,3 0,0 0,0 -1,0 -3,1 -7,1 -10,2 0,0 -1,0 -1,0 0,0 0,0 -1,0 0,0 0,0 0,0 0,0 0,0 0,-1 0,0 0,0 0,0 0,0 0,-1 0,-1 0,-3 0,-6 0,-9 0,-3 0,-5 0,-8 0,-1 0,-2 0,-3 0,-1 1,-2 1,-3 0,-2 0,-4 0,-6 0,-1 0,-2 0,-2 0,-1 0,-1 0,-1 0,0 0,0 0,0 0,0 -1,0 -1,0 0,0 0,0 0,0 0,0 0,0 -1,1 0,0 0,0 0,0 -1,2 -2,3 -3,4 -3,3 -6,6 -9,9 -7,5 -14,9 -23,12 -5,3 -11,5 -17,6 -6,1 -11,1 -17,0 -3,0 -6,-1 -10,-2 -9,-2 -17,-7 -24,-14 -4,-4 -7,-9 -9,-14 -4,-7 -7,-14 -9,-22 -1,-7 -3,-14 -4,-22 -1,-11 -1,-23 -1,-34 0,-8 0,-16 1,-23 0,-6 1,-11 2,-17 0,0 0,-1 0,-1 0,-4 1,-8 1,-12 1,0 1,-1 1,-1 0,-1 0,-2 0,-3 0,-1 0,-1 0,-2 1,0 1,0 1,0 0,0 1,-1 1,-1 0,0 0,0 0,0 1,0 1,0 2,0 2,0 3,0 5,0 2,0 5,-1 7,-1 3,0 5,0 7,0 2,-1 4,-1 6,-1 2,0 4,0 7,-1 1,0 3,0 5,0 2,0 4,0 6,-1 3,0 5,0 8,0 2,0 4,-1 6,-1 0,0 1,0 1,1 0,0 1,0 1,0 0,0 0,1 -1,1 0,1 0,2 0,3 -2,9 -3,17 -5,26 -1,7 -2,14 -2,21 -1,8 -2,17 -2,25 0,7 1,14 2,21 0,5 1,9 3,13 1,2 2,5 3,8 2,2 4,4 6,6 3,2 7,3 11,3 7,1 14,-2 20,-7 3,-2 5,-5 7,-8 5,-7 8,-15 9,-23 1,-1 1,-3 1,-4 0,0 0,0 0,0 0,-2 0,-5 0,-8 1,-22 2,-44 1,-66 0,-1 0,-3 0,-4 0,-1 0,-2 0,-3 0,0 0,0 0,-1 0,0 0,0 0,0 0,0 0,0 1,-1 0,0 0,0 0,0 1,0 2,0 2,0 8,-1 15,-1 22,-1 2,0 4,-1 6,-1 0,0 1,0 1,0 0,0 0,0 0,0 2,0 5,0 7,0 5,0 11,0 16,-1 2,0 3,0 5,0 1,0 2,0 4,0 0,0 1,0 1,0 0,0 0,0 0,0 1,0 1,0 1,1 0,0 0,0 0,1 0,1 0,2 0,3 0,0 0,0 0,0 0,51 0,102 0,153 0,0 0,1 0,1 0,1 0,2 0,4zm39 -207l0 0c0,0 0,0 0,0 1,-1 1,-1 1,-1 2,0 4,0 7,0 2,0 5,0 7,-1 3,0 5,0 8,0 4,0 8,-1 12,-1 2,0 4,0 5,0 0,0 1,0 1,0 0,0 0,0 0,0 1,0 1,0 2,-1 6,0 11,0 17,-1 0,0 1,0 1,0 0,0 0,0 0,0 1,0 1,1 1,1 0,0 0,0 0,1 0,1 0,2 0,3 -1,2 -1,5 -2,7 -1,6 -2,11 -3,17 0,5 -1,9 -2,14 0,1 0,3 0,5 0,1 -1,3 -1,5 0,1 0,1 0,1 0,0 1,0 1,0 1,0 1,0 2,0 1,0 2,0 4,0 0,0 0,0 0,0 2,0 3,0 4,0 4,0 8,0 12,0 1,0 2,1 3,1 0,0 0,0 0,0 0,0 0,0 0,0 0,1 0,2 0,2 -2,5 -3,9 -4,13 -1,2 -1,4 -2,6 -1,3 -1,6 -2,9 -1,2 -2,5 -3,7 0,1 0,1 0,2 0,0 -1,0 -1,0 -1,1 -2,1 -3,0 -2,0 -4,0 -5,0 -3,0 -5,0 -7,0 -1,0 -1,0 -2,0 0,1 0,1 -1,1 0,0 0,0 0,0 0,1 0,2 0,3 0,2 0,4 0,6 -1,4 -1,9 -1,13 0,2 -1,4 -1,6 0,1 0,2 0,3 -1,6 -1,12 -1,18 0,3 0,5 0,8 0,3 1,5 2,7 0,1 0,2 1,3 2,4 5,6 9,7 1,0 1,0 2,0 0,0 1,0 1,0 0,0 0,1 0,1 0,0 0,0 0,0 0,2 0,3 0,4 0,1 0,2 0,3 0,14 0,28 0,43 0,0 0,0 0,1 1,1 0,2 0,3 0,0 0,0 0,0 -1,0 -1,1 -1,1 -7,3 -15,4 -22,4 0,0 0,0 0,0 -5,0 -9,0 -14,-1 -5,-1 -10,-2 -15,-4 -9,-4 -15,-10 -19,-19 -2,-5 -3,-10 -4,-15 -2,-10 -2,-21 -1,-31 0,-6 1,-11 1,-17 0,-3 1,-6 1,-9 0,-1 0,-1 0,-2 0,-2 0,-3 0,-4 1,-2 1,-3 1,-5 0,-5 1,-9 1,-14 1,-2 1,-4 1,-5 0,-1 0,-2 0,-2 0,-2 0,-3 0,-5 0,-1 0,-1 0,-2 0,0 0,0 0,0 0,0 0,0 0,0 0,-1 0,-1 -1,-1 0,0 -1,0 -2,0 -3,0 -6,0 -8,0 -4,0 -8,0 -12,0 -2,0 -3,0 -5,0 0,0 -1,0 -1,-1 0,0 0,0 0,-1 0,0 0,-1 0,-2 1,-8 2,-16 4,-24 0,-3 0,-5 1,-8 0,0 0,-1 0,-1 0,-1 0,-1 1,-1 0,0 0,-1 0,-1 2,0 3,0 4,0 4,0 7,0 11,0 2,0 4,0 6,0 0,0 0,0 0,0 1,0 2,0 3,0 1,0 1,0 1,0 0,0 1,-1 1,-1 0,-1 0,-2 0,-3 0,-1 0,-2 0,-4 1,-1 1,-3 1,-5 0,-4 1,-8 1,-12 1,-6 2,-12 3,-18 0,-1 0,-2 0,-4 0,0 1,-1 1,-1 0,-1 0,-1 0,-1zm81 -1l0 0c2,0 4,-1 6,-1 1,0 2,0 2,-1 12,-2 24,-4 35,-7 2,0 3,0 4,-1 4,0 8,-1 12,-2 1,0 1,0 1,1 0,0 0,0 0,0 0,0 0,1 0,1 0,0 0,1 0,1 0,1 0,1 0,1 0,5 0,9 0,14 0,12 0,25 0,37 0,4 0,8 0,12 0,2 0,3 0,4 0,4 0,8 -1,13 0,3 0,7 0,11 0,0 0,1 0,1 0,0 0,0 0,0 0,0 0,0 0,0 0,0 0,1 0,1 0,0 1,0 1,-1 0,0 0,0 0,0 0,0 0,0 0,0 1,0 1,-1 1,-1 1,-1 2,-3 3,-4 3,-3 6,-6 9,-9 5,-4 10,-7 16,-9 7,-4 15,-6 23,-8 6,-1 13,-2 19,-1 4,1 8,1 12,3 7,2 13,6 19,11 3,4 6,8 9,13 4,6 7,13 9,20 2,7 4,14 5,22 1,12 2,25 2,37 0,8 0,16 -1,24 0,6 -1,12 -2,18 -1,6 -1,12 -2,18 0,0 0,0 0,0 0,0 0,0 0,0 -1,1 -1,2 -2,2 -1,0 -3,0 -4,0 -5,1 -11,1 -16,2 -2,0 -4,0 -6,0 -2,0 -4,1 -6,1 -3,0 -5,0 -8,0 -2,0 -3,1 -5,1 -4,0 -8,1 -13,1 0,0 -1,0 -2,0 0,0 0,0 0,0 0,0 0,0 -1,0 0,-1 0,-1 0,-1 0,0 0,0 0,0 1,-2 1,-3 1,-5 2,-8 3,-17 4,-25 1,-1 1,-2 1,-3 0,-4 1,-8 1,-12 1,-2 1,-5 1,-7 0,-2 0,-4 1,-6 0,-6 0,-13 0,-19 0,-6 0,-12 -1,-18 0,-6 -1,-11 -3,-16 -1,-2 -2,-4 -4,-6 -1,-2 -2,-4 -3,-5 -4,-3 -8,-5 -13,-5 -8,0 -15,2 -21,8 -2,2 -4,5 -6,7 -5,7 -8,14 -10,23 0,0 0,1 0,2 0,0 0,1 0,1 0,2 0,4 0,6 0,2 -1,4 -1,6 0,12 0,25 -1,38 0,10 0,20 1,30 0,1 0,2 0,3 0,0 0,1 -1,1 0,0 0,0 -1,0 -1,1 -2,1 -3,1 -7,0 -14,0 -21,1 -3,0 -5,0 -7,0 0,0 0,0 -1,0 0,0 0,0 0,0 -2,0 -4,0 -6,0 -6,1 -11,1 -17,1 -1,0 -2,0 -3,0 -1,0 -1,0 -2,0 0,0 0,0 -1,0 0,0 -1,0 -2,0 0,0 0,0 0,0 -1,0 -1,0 -1,0 0,0 0,-1 0,-1 0,0 0,0 0,0 0,-1 0,-2 0,-3 0,-1 0,-1 0,-1 0,-5 0,-10 0,-15 0,-66 0,-133 0,-200 0,0 0,0 0,-1 0,-1 0,-2 0,-4z"/>
   </g>
   <path class="fil6" d="M2591 95c0,3 -1,19 -4,48 -1,1 -2,2 -4,2 -10,0 -22,0 -38,-1 -19,0 -32,-1 -38,-1 0,10 0,25 1,45 1,19 1,34 1,44 0,7 -10,11 -29,11 -13,0 -21,-1 -26,-4 -1,-1 -2,-3 -2,-7 -1,-11 -1,-26 0,-44 0,-23 1,-37 1,-45 -6,0 -18,1 -37,1 -15,1 -27,1 -36,1 -4,0 -5,-1 -5,-4 0,-1 1,-9 2,-23 0,-8 1,-16 1,-25 2,-2 4,-3 7,-3 -6,0 17,1 68,2 0,-9 0,-24 -1,-43 0,-19 0,-34 0,-43 0,-3 2,-5 6,-5 4,0 12,0 22,-1 9,0 17,0 22,0 4,0 7,3 7,8 0,9 0,23 -1,42 -1,19 -1,33 -1,42 9,0 22,0 39,0 18,-1 31,-1 40,-1 3,0 5,2 5,4z"/>
  </g>
 </g>
</svg>
