<?xml version="1.0" encoding="UTF-8"?>
<!DOCTYPE svg PUBLIC "-//W3C//DTD SVG 1.1//EN" "http://www.w3.org/Graphics/SVG/1.1/DTD/svg11.dtd">
<!-- Creator: CorelDRAW X7 -->
<svg xmlns="http://www.w3.org/2000/svg" xml:space="preserve" width="146.144mm" height="36.8234mm" version="1.1" style="shape-rendering:geometricPrecision; text-rendering:geometricPrecision; image-rendering:optimizeQuality; fill-rule:evenodd; clip-rule:evenodd"
viewBox="0 0 4375 1102"
 xmlns:xlink="http://www.w3.org/1999/xlink">
 <defs>
  <style type="text/css">
   <![CDATA[
    .fil0 {fill:#FEFEFE}
    .fil1 {fill:#FEFEFE;fill-rule:nonzero}
   ]]>
  </style>
 </defs>
 <g id="Layer_x0020_1">
  <metadata id="CorelCorpID_0Corel-Layer"/>
  <g id="_1831514716576">
   <g>
    <g>
     <g>
      <path class="fil0" d="M579 270c-66,-33 -107,-43 -232,-55 -124,-12 -344,25 -334,255 -46,-181 33,-287 159,-337 127,-51 293,-52 405,14l2 123z"/>
      <path class="fil0" d="M929 811c55,-40 177,174 17,267 0,0 -103,-12 -17,-267z"/>
      <path class="fil0" d="M1328 383c-18,-547 -425,-207 -519,200 -27,117 -37,205 -39,272l20 159c6,15 11,20 11,20 0,0 69,82 145,44 0,0 -82,-13 -8,-288 74,-274 229,-732 390,-407zm-568 477c-54,31 -134,71 -237,103 -200,63 -356,-129 -356,-129 77,224 374,261 374,261 0,0 123,11 233,-69 3,-1 5,-3 7,-5l-21 -160 0 -1zm-670 -241c0,0 -143,100 -52,252 90,151 297,200 297,200 0,0 112,31 191,31 0,0 -118,-24 -229,-78 -111,-54 -153,-171 -153,-171 0,0 -32,-57 22,-151l-76 -83z"/>
      <path class="fil0" d="M591 276c-31,-182 51,-228 139,-155 -138,-28 40,286 92,347 0,0 -19,46 -44,171 -83,-81 -162,-239 -187,-363z"/>
      <path class="fil0" d="M715 269c0,0 -20,-74 26,-37 46,36 72,57 72,57 0,0 38,-7 -26,-108 -63,-100 -99,-34 -99,-34 0,0 -18,17 27,122z"/>
     </g>
     <path class="fil0" d="M263 504c0,0 206,-55 284,53 0,0 51,91 -40,140 -91,48 -216,-2 -216,-2 0,0 -317,-87 -256,-292 0,0 6,-77 167,-75 0,0 -131,24 -73,129 0,0 72,93 261,108l-127 -61z"/>
    </g>
    <g>
     <path class="fil1" d="M1843 568l0 0c-3,0 -6,0 -9,0 -92,0 -183,0 -275,0 0,0 0,0 -1,0 0,0 0,0 0,0 0,0 0,0 -1,-1 0,0 0,-1 0,-1 -1,-19 -1,-37 -2,-55 0,-8 0,-15 1,-23 0,-4 0,-7 0,-11 0,-2 0,-4 0,-6 0,-8 1,-15 1,-23 0,-14 0,-28 0,-42 0,-2 0,-4 0,-6 0,-6 0,-12 0,-18 0,-1 0,-3 0,-4 1,-26 1,-53 1,-80 0,-3 0,-6 0,-10 0,-2 0,-3 0,-5 0,-7 0,-13 0,-19 0,-14 0,-28 0,-42 0,-13 0,-27 0,-40 0,-6 1,-13 1,-19 0,-1 0,-1 0,-2 0,-6 0,-12 0,-17 0,-1 0,-2 0,-2 0,-1 0,-1 0,-2 1,0 3,0 5,0 0,-1 1,-1 1,-1 2,0 3,0 5,0 12,-2 25,-4 37,-7 11,-2 21,-4 31,-6 5,-1 11,-2 16,-3 4,0 7,-1 11,-2 6,-1 11,-2 17,-3 3,0 6,-1 9,-1 0,0 1,0 1,0 7,-1 14,-2 20,-3 3,0 6,-1 8,-1 4,-1 7,-1 11,-1 4,-1 8,-2 12,-2 4,-1 7,-1 11,-2 4,0 7,-1 10,-1 3,0 6,-1 9,-1 3,-1 6,-1 10,-1 2,-1 6,-1 9,-2 3,0 6,-1 10,-1 2,0 5,-1 8,-1 4,-1 9,-1 14,-2 1,0 3,-1 4,-1 2,0 3,0 5,0 4,-1 9,-2 13,-2 0,0 1,0 2,0 0,0 0,0 1,0 0,0 0,0 0,0 0,1 0,1 0,2 0,0 0,1 0,2 0,0 0,0 0,0 0,5 0,9 0,14 0,32 0,63 0,95 0,1 0,1 0,1 0,1 0,2 0,4 -2,0 -4,0 -6,0 -1,0 -2,0 -4,0 -2,1 -4,1 -6,1 -1,0 -2,0 -3,0 -1,0 -3,0 -4,0 -2,1 -3,1 -5,1 0,0 0,0 -1,0 -3,0 -6,0 -8,1 -2,0 -4,0 -5,0 -2,0 -3,0 -5,0 -2,1 -4,1 -6,1 -1,0 -2,0 -3,0 -3,0 -6,0 -9,1 -4,0 -7,0 -10,0 -3,0 -6,1 -9,1 0,0 0,0 0,0 -2,0 -3,0 -5,0 -1,0 -3,1 -5,1 -1,0 -2,0 -3,0 -2,0 -4,0 -6,0 -3,1 -6,1 -9,1 -2,0 -4,0 -5,1 -2,0 -3,0 -5,0 -2,0 -4,0 -6,0 -1,0 -2,0 -3,1 -1,0 -1,0 -2,0 -3,0 -5,0 -7,0 -1,0 -2,0 -3,0 -2,1 -4,1 -7,1 -2,0 -4,0 -6,0 -1,0 -2,1 -3,1 0,0 0,0 0,1 0,1 0,1 0,2 -1,10 -1,21 -1,32 0,7 -1,15 -1,23 0,1 0,2 0,3 0,1 0,2 0,3 0,0 0,1 0,1 0,0 0,1 0,1 1,0 1,0 1,0 1,0 1,0 2,0 5,0 10,0 15,0 6,0 12,1 18,1 6,0 13,0 19,0 8,0 16,0 24,0 4,0 9,0 14,0 3,0 5,0 8,0 1,0 2,0 3,0 0,0 1,0 1,0 0,1 0,1 0,1 1,1 1,1 1,2 0,0 0,1 0,1 0,1 0,1 0,1 0,4 0,7 0,10 0,21 0,42 0,62 0,1 0,2 0,3 0,1 0,1 0,2 -1,0 -1,0 -1,0 -1,0 -1,0 -2,0 -8,0 -16,0 -24,0 -6,0 -12,0 -18,0 -22,0 -44,0 -67,0 0,0 -1,0 -1,0 0,0 -1,0 -1,0 0,0 0,0 0,1 0,0 0,1 0,1 -1,8 -1,15 -1,22 0,5 0,9 -1,14 0,6 0,13 0,19 -1,7 -1,13 -1,20 0,1 0,2 0,2 0,1 0,1 0,1 0,0 1,0 1,0 0,0 1,0 1,0 15,0 30,-1 44,-2 0,0 1,0 1,0 16,-1 31,-1 46,-2 14,-1 28,-1 42,-2 2,0 3,0 5,0 2,0 5,0 7,0 8,-1 16,-1 24,-1 1,0 1,0 2,0 0,0 1,0 1,0 0,0 0,0 0,0 0,0 0,0 0,0 0,0 0,0 0,0 0,0 1,0 1,0 -4,40 -6,80 -9,119 0,0 0,1 0,1 0,0 0,0 0,0zm322 -249l0 0c0,0 0,0 0,0 0,0 0,-1 1,-1 4,-3 8,-7 12,-10 1,-1 2,-2 2,-3 0,0 0,0 1,0 3,-4 7,-8 11,-11 20,-16 42,-27 65,-32 10,-2 19,-3 29,-3 8,0 16,2 25,4 17,5 31,15 42,30 6,7 12,16 16,25 6,12 10,25 13,38 3,13 5,26 7,40 3,22 4,44 4,66 -1,14 -1,28 -2,42 -1,12 -2,24 -4,35 -1,8 -1,15 -2,22 -1,3 -1,5 -1,8 -1,1 -1,2 -1,2 -1,1 -1,1 -1,2 -1,0 -2,0 -3,0 0,0 0,0 0,0 -1,0 -1,0 -2,0 -3,1 -6,1 -9,1 -4,0 -7,1 -10,1 -4,0 -8,1 -13,1 -4,0 -9,1 -14,1 -3,1 -5,1 -8,1 -1,0 -2,0 -3,0 -5,1 -10,1 -15,2 -4,0 -8,1 -12,1 -4,0 -7,1 -10,1 -2,0 -3,0 -4,0 0,0 -1,1 -2,1 -2,0 -3,-1 -2,-4 0,-3 1,-7 1,-11 2,-7 3,-15 4,-23 2,-11 4,-23 5,-35 1,-9 2,-18 3,-28 0,-2 0,-4 0,-6 0,0 0,0 0,0 1,-1 1,-2 1,-3 0,-3 0,-6 0,-9 0,-7 1,-14 1,-22 0,-14 -1,-28 -2,-42 -2,-9 -4,-18 -7,-27 -2,-6 -5,-11 -8,-16 -4,-5 -10,-10 -16,-12 -6,-2 -11,-3 -17,-2 -13,2 -25,8 -34,19 -10,9 -16,21 -20,35 -1,5 -2,10 -2,14 -1,11 -2,23 -2,34 -1,8 -2,17 -2,26 0,1 0,2 0,3 -1,9 -1,18 -2,27 0,4 0,7 0,11 0,1 0,1 0,2 0,1 0,2 0,4 -1,3 -1,7 -1,10 0,13 -1,25 -1,38 0,2 0,4 -1,5 0,1 0,1 -1,2 -1,0 -2,0 -4,0 0,0 0,0 0,0 -6,1 -11,1 -16,2 -3,0 -5,0 -8,1 0,0 0,0 0,0 -6,0 -11,0 -16,1 -4,0 -7,0 -10,1 -4,0 -8,1 -12,1 -4,0 -8,1 -12,1 -3,0 -7,1 -10,1 -2,0 -3,1 -5,1 -2,0 -5,0 -8,0 -2,1 -4,1 -4,0 -1,-1 -1,-3 0,-6 2,-15 5,-30 7,-45 2,-13 4,-25 5,-38 0,-5 1,-10 1,-15 0,-3 1,-7 1,-10 1,-15 1,-30 1,-44 0,-12 -2,-24 -4,-35 -2,-8 -4,-15 -7,-22 -2,-5 -5,-9 -8,-13 -8,-9 -18,-12 -29,-11 -13,1 -24,7 -34,18 -3,3 -6,7 -8,11 -8,12 -13,25 -16,40 -1,5 -2,10 -2,14 -1,31 -2,61 -2,92 0,16 0,32 0,47 1,3 1,6 1,9 0,2 -1,3 -3,3 -8,1 -15,1 -23,1 -11,1 -21,2 -32,2 -5,1 -10,1 -15,1 0,0 -1,0 -1,0 0,0 -1,1 -1,1 -2,0 -5,0 -7,0 -7,0 -14,0 -20,1 -4,0 -7,0 -10,0 -2,0 -3,-1 -3,-2 0,-1 0,-2 0,-3 0,-2 0,-3 0,-4 0,0 0,-1 0,-1 0,-95 0,-190 0,-285 0,0 0,-1 0,-1 0,-2 0,-3 0,-5 0,-1 0,-2 0,-2 0,-1 1,-1 1,-1 2,-1 4,-2 6,-2 12,-3 24,-5 37,-8 10,-3 21,-5 32,-7 8,-2 17,-4 25,-6 1,0 1,0 2,0 0,0 1,0 1,0 1,0 1,1 1,2 0,0 0,0 0,0 0,0 0,1 0,1 0,1 0,2 0,2 0,1 0,1 0,2 0,1 0,3 0,4 -1,4 -1,8 -1,13 0,1 0,2 0,3 -1,10 -1,20 -1,31 0,1 0,3 0,4 0,1 0,1 0,2 0,0 0,0 0,0 0,0 0,0 1,0 0,0 0,0 0,0 0,0 0,0 0,0 0,0 0,0 0,0 1,-1 2,-2 2,-2 2,-3 5,-6 7,-10 3,-4 6,-7 10,-11 4,-4 9,-7 14,-11 15,-10 30,-17 47,-22 13,-4 26,-5 39,-4 9,0 18,1 26,4 15,6 27,15 37,27 6,7 11,14 15,22 0,0 0,1 1,2 0,1 1,3 3,4zm242 -8l0 0c2,0 4,-1 6,-2 4,-1 9,-3 13,-4 5,-2 10,-3 15,-5 4,-1 9,-3 14,-4 9,-3 19,-5 29,-6 5,-1 11,-1 17,-2 2,0 4,0 5,0 2,0 3,0 4,0 2,0 3,0 3,1 1,0 1,1 1,3 0,7 0,13 0,19 0,9 1,18 1,27 0,2 0,5 0,8 0,1 0,2 0,3 0,0 0,0 0,0 0,1 0,1 0,1 0,0 1,0 1,0 0,0 0,0 0,0 0,0 0,0 0,0 0,0 1,0 1,0 0,-1 1,-2 2,-3 0,0 0,0 0,0 2,-3 4,-6 6,-8 7,-10 15,-18 25,-24 5,-4 11,-8 17,-11 15,-8 30,-12 47,-11 15,0 29,3 43,8 22,10 40,25 53,46 9,14 16,30 20,47 3,12 5,24 6,36 1,13 0,25 -1,38 -2,19 -6,37 -13,54 -9,22 -22,38 -42,49 -13,9 -27,14 -42,16 -13,3 -27,3 -40,1 -22,-3 -43,-9 -63,-19 -1,-1 -2,-1 -3,-2 -2,-1 -4,-2 -6,-3 0,0 -1,1 -1,1 -1,0 -1,0 -1,1 0,0 0,0 0,0 0,0 0,1 0,1 1,9 1,18 1,27 0,3 1,6 1,9 0,1 0,3 0,5 0,5 0,9 1,14 0,10 0,21 1,31 0,9 0,18 1,26 0,5 0,10 1,16 0,2 0,5 0,7 0,2 -1,3 -3,3 -8,-1 -15,-1 -23,-2 -2,0 -4,0 -6,0 0,0 -1,0 -1,0 0,0 0,0 -1,0 -4,0 -8,-1 -12,-1 -8,0 -16,-1 -25,-1 -7,-1 -15,-1 -22,-2 -5,0 -10,0 -15,0 -2,0 -4,-1 -6,-1 -2,0 -3,0 -5,0 0,0 0,0 0,0 -1,0 -2,0 -3,0 -1,0 -1,-1 -1,-1 0,0 0,0 0,-1 -1,0 -1,-1 -1,-2 0,-1 0,-3 0,-5 0,0 0,0 0,0 0,-7 0,-14 0,-21 0,-116 0,-232 0,-348 0,0 0,-1 0,-1 0,-2 0,-5 1,-8zm114 186l0 0c4,5 9,10 14,13 17,11 34,13 53,8 17,-5 29,-16 38,-33 8,-16 10,-33 8,-50 -3,-17 -10,-31 -19,-41 -10,-11 -20,-18 -31,-21 -9,-4 -18,-5 -27,-3 -17,4 -29,13 -38,28 -2,2 -2,4 -2,6 0,2 0,5 0,7 0,2 0,3 0,5 1,16 2,32 3,48 0,7 0,15 1,22 0,4 0,7 0,11zm555 -85l0 0c0,31 -6,60 -17,89 -8,18 -17,35 -30,50 -18,22 -41,36 -67,45 -11,4 -23,6 -35,7 -7,1 -14,1 -21,1 -14,-1 -28,-4 -41,-8 -39,-14 -71,-37 -98,-69 -16,-21 -28,-44 -35,-69 -4,-14 -6,-29 -6,-44 0,0 0,0 0,-1 0,-3 0,-7 0,-10 1,-41 13,-77 37,-108 22,-28 49,-47 82,-58 10,-3 22,-6 33,-8 12,-1 25,-1 37,0 25,1 50,8 73,19 22,12 41,28 56,49 11,17 19,35 24,55 4,15 7,30 7,45 1,4 1,7 1,10 0,2 0,3 0,5zm-93 -2l0 0c0,0 0,-1 0,-1 0,-2 0,-4 0,-6 0,-3 -1,-6 -1,-8 0,0 0,-1 0,-1 -1,-9 -4,-17 -8,-25 -8,-17 -20,-28 -36,-35 -16,-7 -33,-9 -50,-6 -14,2 -26,8 -38,16 -24,22 -33,49 -28,83 3,13 9,25 17,35 12,16 27,27 45,33 8,2 16,4 24,4 3,-1 6,-1 9,-1 0,0 1,0 1,0 8,-1 15,-4 22,-7 16,-8 27,-21 35,-38 5,-13 8,-27 8,-43z"/>
     <path class="fil1" d="M3204 467l0 0c1,-1 1,-2 1,-3 0,-2 0,-4 1,-5 0,-6 1,-12 2,-17 1,-6 2,-12 2,-18 1,-7 2,-14 3,-21 1,-5 1,-9 2,-14 1,-5 1,-9 2,-14 0,-3 1,-6 1,-9 1,-4 1,-8 2,-11 0,-6 1,-11 2,-16 0,-5 1,-10 1,-15 1,-3 1,-6 2,-10 0,-1 0,-2 0,-3 1,-7 2,-14 3,-21 1,-5 1,-10 2,-15 0,-1 1,-2 1,-2 0,-1 1,-1 2,-1 0,0 0,0 0,0 2,0 4,-1 5,-1 3,0 6,-1 9,-1 4,0 7,0 10,-1 4,0 8,0 12,-1 2,0 5,0 7,-1 5,0 9,-1 14,-1 9,-1 18,-2 27,-3 1,0 2,1 2,2 1,3 2,6 3,9 3,12 6,25 9,37 11,45 22,89 34,134 0,0 0,1 0,2 1,2 1,4 2,6 0,0 0,0 0,0 1,0 1,0 1,0 0,0 0,0 0,0 0,0 0,0 0,0 0,-1 0,-1 1,-1 0,-2 0,-3 1,-5 2,-10 4,-21 6,-32 2,-14 5,-28 8,-42 2,-13 5,-27 7,-41 2,-11 4,-22 7,-33 1,-9 3,-17 4,-26 1,-6 3,-13 4,-20 0,-1 1,-2 1,-4 0,0 0,0 0,0 0,0 0,-1 1,-1 0,0 0,0 1,0 0,0 1,0 1,0 2,0 3,0 5,0 6,1 13,2 19,3 7,2 15,3 22,4 7,1 14,2 21,3 3,1 7,1 10,2 4,0 7,0 11,1 0,0 1,0 1,0 1,1 1,1 1,1 0,0 1,0 1,1 0,0 0,1 0,1 0,1 0,3 -1,4 0,4 -1,8 -1,11 -1,5 -2,10 -3,15 -3,20 -7,40 -10,59 -5,23 -10,45 -15,67 -12,48 -24,95 -38,141 -1,2 -1,3 -2,5 0,1 -1,1 -2,2 -1,0 -2,0 -3,0 -4,1 -8,1 -12,2 -2,0 -5,0 -7,0 -5,1 -8,1 -12,1 -4,1 -8,1 -12,2 -3,0 -5,0 -8,1 -5,0 -10,1 -15,1 -7,1 -14,2 -21,2 -1,1 -2,1 -4,1 -1,0 -2,-1 -2,-2 -1,-4 -2,-7 -3,-11 -6,-31 -12,-61 -20,-92 -5,-19 -10,-38 -15,-57 -1,-1 -1,-2 -1,-3 0,0 -1,0 -1,-1 0,0 0,0 0,0 0,0 0,0 0,0 0,0 0,0 0,0 -1,0 -1,1 -1,1 0,0 0,0 0,0 0,0 0,0 0,1 -2,9 -3,19 -4,29 -1,1 -1,3 -1,5 -2,9 -3,18 -4,27 -1,6 -2,11 -3,17 0,5 -1,10 -2,15 -1,5 -2,10 -2,15 -1,6 -2,11 -3,16 0,4 -1,8 -1,12 -1,4 -1,7 -2,11 0,1 0,3 -1,5 0,0 -1,1 -2,1 0,0 0,0 -1,1 -1,0 -2,0 -2,0 -7,1 -14,2 -20,3 -8,1 -16,2 -23,3 -13,2 -25,4 -38,6 -4,1 -9,2 -13,2 -4,1 -7,1 -10,2 -1,0 -2,0 -3,0 -1,0 -1,0 -2,-1 0,-2 -1,-4 -2,-6 -2,-4 -3,-8 -5,-13 -4,-10 -8,-20 -12,-31 -18,-46 -35,-94 -50,-141 -11,-33 -20,-67 -27,-101 -1,-5 -2,-10 -3,-16 -1,-2 -1,-4 -1,-6 0,-1 0,-2 1,-3 2,0 3,0 4,-1 14,-2 27,-4 41,-7 7,-1 13,-2 20,-3 6,-1 12,-2 17,-3 3,0 4,-1 6,-1 2,0 4,-1 6,-1 2,0 4,-1 6,-1 2,0 3,1 3,3 3,15 6,29 9,44 0,1 1,1 1,2 2,9 3,18 5,26 4,17 7,33 10,49 3,14 6,27 8,40 3,12 5,24 8,36 0,2 0,4 1,6 0,3 1,6 2,9 0,0 0,0 0,0 0,1 0,1 0,2 1,0 1,1 1,1zm463 -227l0 0c9,0 18,0 27,2 20,2 40,8 58,18 19,12 35,27 48,47 4,5 7,11 10,18 5,9 7,20 6,31 0,13 -4,25 -12,36 -8,11 -18,18 -31,22 -3,1 -6,1 -9,2 -1,0 -2,0 -3,0 -5,1 -11,2 -16,3 -2,0 -5,0 -8,1 -4,0 -8,1 -13,2 -3,0 -7,1 -10,1 -4,1 -8,2 -12,2 -4,1 -7,1 -11,2 -4,1 -8,1 -13,2 -3,0 -7,1 -12,1 -3,1 -7,2 -11,2 -4,1 -7,1 -11,2 -3,0 -7,1 -11,1 -4,1 -9,2 -14,3 -4,0 -8,1 -12,1 -4,1 -7,1 -11,2 -1,1 -3,1 -5,1 -1,0 -2,1 -1,3 0,5 2,10 3,15 7,17 17,30 32,40 15,10 32,14 50,12 13,-1 25,-6 36,-13 7,-4 13,-9 18,-15 1,-1 2,-2 3,-3 1,-1 2,-1 3,-1 1,0 3,0 4,1 1,0 1,0 2,0 4,1 8,1 11,2 11,2 21,4 31,6 6,1 12,2 19,3 5,1 10,2 14,3 4,1 7,2 10,2 1,0 1,0 1,1 0,0 0,1 0,1 0,1 0,1 0,1 0,1 -1,2 -1,3 -8,19 -20,34 -36,46 -10,7 -21,14 -32,19 -14,6 -28,10 -42,14 -5,1 -10,3 -16,4 -13,2 -26,2 -39,1 -9,-1 -17,-2 -25,-3 -38,-8 -71,-25 -100,-52 -17,-15 -30,-32 -39,-53 -6,-13 -10,-27 -12,-42 -2,-8 -2,-17 -2,-25 0,-30 7,-58 21,-84 17,-28 39,-50 67,-65 16,-9 33,-15 51,-19 14,-3 30,-4 45,-4zm-14 80l0 0c0,0 -1,0 -2,0 -2,0 -5,0 -9,1 -7,2 -14,5 -21,9 -9,7 -17,16 -24,26 -6,10 -11,20 -13,30 -1,2 -1,4 -2,7 0,0 0,1 0,2 0,0 0,0 0,0 0,1 0,1 0,1 0,0 0,0 0,1 1,0 1,0 1,0 1,0 2,0 3,0 2,-1 5,-2 7,-2 3,-1 6,-1 9,-2 14,-3 28,-6 42,-9 15,-3 30,-7 46,-10 0,0 1,0 2,-1 2,0 5,-1 8,-2 6,-2 9,-6 11,-11 1,-6 0,-11 -4,-16 -1,-1 -1,-2 -2,-3 -7,-6 -15,-11 -23,-15 -8,-4 -18,-6 -29,-6zm171 -34l0 0c0,0 1,0 1,0 2,-1 3,-1 4,-1 31,-7 63,-14 94,-21 1,0 2,0 4,-1 0,0 0,0 0,0 1,0 1,0 2,1 0,0 0,0 0,1 0,0 0,0 0,0 1,1 1,1 1,2 0,5 1,9 1,14 0,3 0,5 1,7 0,5 1,9 1,13 0,2 0,4 1,6 0,1 0,1 0,2 0,0 0,0 0,0 0,1 0,1 0,1 0,0 0,0 0,0 0,0 0,0 0,0 1,0 1,0 1,0 0,0 1,-1 1,-1 0,0 0,0 1,-1 1,-2 2,-3 4,-5 5,-8 11,-14 18,-18 11,-8 24,-13 37,-16 11,-3 22,-4 33,-3 16,1 31,4 46,10 2,1 4,1 6,2 0,1 1,1 1,1 1,0 1,1 1,1 0,1 0,1 0,1 0,1 0,1 0,1 -1,1 -2,2 -2,3 -17,24 -34,49 -50,73 -1,1 -2,3 -3,4 0,0 0,0 -1,0 0,0 0,0 0,0 -1,-1 -3,-2 -4,-2 -5,-5 -10,-8 -17,-11 -6,-3 -12,-5 -18,-6 -2,0 -4,0 -7,0 -8,1 -16,3 -24,7 -4,1 -8,4 -12,7 -3,3 -6,7 -9,12 -1,3 -2,7 -2,10 0,3 0,5 0,7 0,6 0,11 0,17 0,11 0,22 0,34 1,17 1,35 2,52 0,7 0,14 0,21 0,0 0,0 0,1 0,0 0,0 0,0 0,3 0,6 1,9 0,18 1,35 1,52 0,1 0,3 0,4 0,2 -1,3 -3,3 -4,1 -8,1 -12,2 -6,0 -12,1 -19,2 -3,0 -7,0 -10,1 -3,0 -7,0 -10,1 -3,0 -7,0 -10,1 -3,0 -6,0 -9,1 -4,0 -7,0 -11,1 -3,0 -7,1 -10,1 -6,1 -12,1 -18,2 -1,0 -2,-1 -2,-1 -1,0 -1,-1 -1,-2 0,0 0,0 0,0 0,0 0,-1 0,-1 0,-2 0,-3 0,-5 0,0 0,0 0,0 0,-32 0,-63 0,-94 0,-5 0,-9 0,-14 0,-10 0,-21 0,-31 0,-49 0,-99 0,-147 0,-1 0,-2 0,-2 0,-2 0,-5 1,-8z"/>
    </g>
    <path class="fil1" d="M2836 1053l0 0c-1,1 -3,1 -4,1 -4,1 -7,1 -11,2 -10,1 -20,3 -30,5 -6,1 -12,1 -17,2 -7,1 -13,2 -20,3 -5,1 -10,2 -16,3 -4,0 -8,1 -12,2 -9,1 -18,3 -27,4 -7,1 -14,2 -21,3 -1,0 -1,0 -2,0 0,0 0,0 0,0 0,0 0,-1 0,-1 -1,-1 -1,-2 -1,-3 0,-6 1,-12 1,-19 0,0 0,0 0,-1 1,-17 1,-35 2,-52 0,0 0,-1 0,-1 0,-1 0,-2 0,-2 0,-6 1,-12 1,-17 0,-12 1,-23 1,-34 0,-8 1,-16 1,-24 0,-4 0,-7 0,-11 0,-1 0,-1 0,-2 0,-1 1,-1 1,-2 0,-2 -1,-4 -2,-6 -2,-5 -5,-9 -7,-14 -1,-3 -2,-5 -4,-7 -7,-16 -15,-31 -22,-46 -28,-57 -57,-114 -85,-171 -1,-3 -2,-5 -3,-7 0,0 0,0 0,0 0,-1 1,-1 1,-1 0,0 0,0 0,0 0,0 1,-1 1,-1 3,0 6,0 9,0 3,0 7,-1 10,-1 5,0 9,-1 14,-1 3,0 7,-1 10,-1 7,0 12,-1 19,-1 3,0 6,-1 10,-1 4,0 9,-1 13,-1 5,0 11,-1 16,-1 3,0 6,-1 10,-1 6,-1 13,-1 19,-2 1,0 2,1 3,1 0,0 1,1 1,2 1,1 1,2 1,3 0,1 0,1 1,2 3,9 5,17 8,26 14,44 28,88 42,132 0,0 0,0 0,0 0,2 1,3 2,5 0,0 0,-1 0,-1 0,0 0,0 0,0 1,0 1,0 1,0 0,0 0,-1 1,-2 1,-10 3,-20 5,-30 3,-16 6,-31 9,-47 3,-16 6,-32 9,-48 2,-10 4,-20 6,-30 1,-3 1,-6 2,-9 0,-3 1,-6 1,-9 1,-1 2,-2 3,-2 1,0 2,0 4,0 0,0 0,0 0,0 2,0 3,-1 5,-1 5,0 10,0 15,0 6,-1 11,-1 16,-1 7,0 14,-1 21,-1 9,-1 19,-1 28,-2 4,0 8,0 12,0 0,0 0,0 0,0 0,0 0,0 0,0 2,0 4,0 5,0 14,-1 27,-2 41,-2 1,0 1,0 2,0 0,0 0,0 0,0 0,0 1,0 1,0 0,0 0,0 0,1 0,0 0,0 0,0 0,0 0,1 0,1 0,1 -1,2 -1,3 -6,16 -12,32 -19,48 -17,45 -35,90 -53,135 -11,28 -22,57 -33,85 0,0 0,1 0,1 -1,1 -1,1 -1,1 -1,2 -1,4 -1,6 0,1 0,3 0,4 0,2 0,3 0,5 1,12 2,23 3,34 0,5 0,10 1,15 0,4 0,8 1,12 0,7 1,14 1,21 0,4 1,9 1,13 0,5 1,9 1,14 0,3 0,6 0,9 1,2 1,4 1,7 0,1 0,3 0,4 0,0 0,1 0,1 0,0 -1,1 -1,1zm351 -133l0 0c0,28 -6,55 -17,81 -7,17 -16,32 -28,45 -18,20 -40,33 -65,41 -11,3 -23,5 -34,6 -7,1 -14,1 -20,1 -14,-1 -27,-3 -40,-8 -38,-11 -69,-32 -95,-62 -16,-18 -27,-39 -34,-62 -3,-13 -5,-26 -6,-40 0,0 0,0 0,0 0,-3 0,-7 0,-10 1,-37 13,-69 36,-98 21,-25 48,-42 79,-52 11,-3 21,-5 32,-7 12,-1 24,-1 36,0 25,1 48,7 71,18 21,10 39,24 54,43 11,15 19,32 23,50 4,14 7,27 7,41 0,3 0,6 0,9 1,1 1,3 1,4zm-90 -1l0 0c0,0 0,-1 0,-2 0,-1 0,-3 0,-5 0,-2 -1,-5 -1,-7 0,0 0,0 0,-1 -1,-8 -4,-15 -8,-23 -8,-15 -19,-25 -35,-31 -16,-7 -32,-8 -48,-6 -14,2 -25,7 -36,15 -24,20 -33,45 -27,75 2,12 8,22 15,32 12,14 27,24 45,30 7,2 15,3 22,3 3,0 6,-1 9,-1 0,0 1,0 1,0 7,-1 14,-3 21,-6 16,-8 27,-19 34,-35 5,-12 8,-24 8,-38zm405 139l0 0c-1,1 -3,1 -4,2 0,0 -1,0 -1,0 -18,3 -36,7 -54,11 -6,1 -12,2 -18,4 -1,0 -2,0 -3,0 -5,1 -11,3 -17,4 0,0 -1,0 -1,0 -1,0 -1,0 -1,0 -1,0 -1,0 -1,0 0,-1 0,-1 0,-1 -1,0 -1,-1 -1,-1 0,-1 0,-1 0,-2 0,-5 1,-10 1,-15 0,-5 0,-9 1,-13 0,-2 0,-4 0,-5 0,-2 0,-4 0,-5 0,-4 0,-8 0,-11 0,-1 1,-2 1,-3 -1,-1 -1,-1 -1,-2 0,0 0,0 0,0 0,0 0,0 0,0 -1,0 -1,0 -1,0 0,0 -1,1 -1,1 -1,1 -1,1 -1,2 -2,2 -4,4 -5,7 -4,5 -9,9 -15,14 -11,9 -24,16 -38,21 -10,4 -20,7 -30,9 -9,1 -19,2 -28,1 -6,-1 -11,-2 -17,-3 -16,-4 -29,-13 -41,-25 -6,-7 -11,-15 -15,-23 -6,-12 -11,-24 -14,-37 -3,-12 -5,-24 -7,-37 -2,-19 -3,-39 -3,-59 1,-13 1,-26 2,-38 1,-10 2,-19 3,-28 0,-1 0,-2 0,-2 1,-7 2,-13 3,-20 0,-1 0,-1 0,-2 1,-2 1,-4 1,-6 1,0 1,-1 1,-2 0,0 0,-1 1,-1 0,0 1,0 1,0 0,0 0,0 0,0 1,-1 2,-1 3,-1 3,0 6,0 9,-1 4,0 8,0 12,-1 4,0 8,0 12,-1 3,0 6,0 10,-1 3,0 7,0 11,-1 3,0 6,0 9,0 4,-1 7,-1 10,-1 5,-1 9,-1 13,-1 4,-1 8,-1 11,-1 1,0 1,0 2,0 0,0 1,0 1,0 0,1 0,2 -1,3 0,2 0,3 0,5 -3,14 -6,29 -8,43 -2,12 -3,24 -4,36 -2,14 -3,28 -3,42 0,13 1,24 2,36 1,7 3,15 5,21 2,5 4,9 6,13 3,5 6,8 10,11 5,4 11,6 18,6 13,1 24,-3 34,-12 5,-4 9,-8 12,-14 8,-12 14,-25 16,-39 1,-2 1,-4 1,-6 0,0 0,0 0,0 0,-5 1,-9 1,-13 1,-38 2,-75 1,-112 0,-3 0,-5 0,-7 0,-2 0,-3 0,-5 0,0 0,-1 0,-2 0,0 0,0 0,0 0,0 0,-1 1,-1 0,-1 0,-1 1,-1 1,0 2,0 4,0 12,0 24,-1 36,-2 4,0 7,0 11,0 0,0 0,0 0,0 0,0 1,0 1,0 4,-1 7,-1 11,-1 9,0 19,-1 28,-1 3,0 5,-1 8,-1 2,0 4,0 6,0 1,0 2,0 3,0 0,0 0,0 0,1 0,0 0,0 0,0 1,1 1,1 1,2 0,2 0,4 0,6 0,0 0,0 0,0 0,86 0,172 0,258 0,1 0,1 0,2 0,2 0,4 -1,6zm67 -349l0 0c0,0 1,-1 1,-1 0,0 1,0 1,0 4,0 7,0 11,-1 4,0 9,0 13,0 4,-1 8,-1 13,-2 7,0 14,0 21,-1 3,0 5,0 8,-1 0,0 1,0 1,0 0,0 0,0 0,0 1,0 3,0 4,0 10,0 19,-1 29,-2 0,0 1,0 1,0 0,0 1,0 1,0 0,0 0,1 1,1 0,1 0,1 0,1 0,2 -1,4 -1,5 -1,5 -1,9 -2,13 -2,9 -3,19 -5,29 -1,7 -2,15 -3,23 -1,3 -1,5 -1,8 -1,3 -1,6 -2,9 0,1 1,1 1,2 0,0 1,0 1,0 1,0 2,1 3,1 2,0 4,0 7,0 0,0 0,0 1,0 2,0 4,0 6,0 7,0 14,0 21,0 1,0 2,0 4,0 0,0 0,0 0,0 0,1 0,1 0,1 0,1 0,3 0,4 -2,7 -5,14 -7,21 -1,3 -2,7 -3,10 -1,5 -2,10 -4,14 -1,5 -3,9 -4,13 0,1 0,2 -1,3 0,1 -1,1 -2,1 -1,0 -3,0 -5,0 -2,0 -5,0 -8,0 -4,0 -8,0 -12,0 -1,0 -2,0 -3,0 0,0 -1,1 -1,1 0,0 0,0 0,0 0,2 0,4 0,5 -1,3 -1,7 -1,10 0,8 -1,15 -2,23 0,3 0,6 0,9 -1,2 -1,4 -1,5 -1,10 -1,21 -1,31 0,4 0,9 0,13 0,5 1,9 2,13 1,1 1,3 2,4 3,7 8,11 16,12 1,0 2,0 3,1 1,0 1,0 2,0 0,0 0,0 0,0 0,1 0,1 0,1 0,3 0,4 0,6 0,2 0,3 0,5 0,24 0,48 0,73 0,0 0,1 0,1 1,2 0,4 0,6 0,0 -1,0 -1,0 0,1 -1,1 -2,1 -12,5 -24,7 -36,7 0,0 -1,0 -1,0 -7,0 -15,0 -22,-2 -9,-1 -18,-3 -26,-7 -14,-6 -25,-17 -31,-31 -4,-8 -7,-17 -8,-26 -3,-17 -3,-34 -2,-52 1,-9 1,-19 2,-29 1,-4 1,-9 2,-14 0,-2 0,-3 0,-5 0,-2 0,-4 1,-6 0,-3 0,-6 1,-9 0,-7 1,-15 2,-23 0,-3 0,-6 1,-9 0,-1 0,-2 0,-3 0,-3 0,-6 1,-8 0,-1 0,-2 0,-3 0,0 0,0 0,0 0,-1 0,-1 -1,-1 0,-1 -1,-1 -1,-1 -1,0 -3,0 -4,0 -5,0 -10,0 -15,0 -6,0 -12,-1 -19,-1 -3,0 -6,0 -8,0 -1,0 -1,0 -2,-1 0,0 0,-1 0,-1 0,-1 0,-2 0,-3 2,-14 4,-28 6,-42 1,-4 1,-9 2,-13 0,-1 1,-1 1,-2 0,-1 0,-1 0,-2 1,0 1,0 2,0 2,0 4,0 6,0 6,0 12,0 18,0 4,0 7,0 11,0 0,0 0,0 0,0 1,0 3,-1 4,-1 1,0 2,0 3,0 0,-1 0,-1 1,-2 0,-2 0,-3 0,-4 0,-3 0,-5 1,-7 0,-3 0,-6 0,-9 1,-6 2,-13 3,-20 1,-10 3,-20 4,-31 0,-2 1,-4 1,-6 0,-1 0,-2 1,-3 0,0 0,-1 0,-1zm137 -1l0 0c4,-1 7,-2 11,-3 1,0 2,0 3,0 20,-4 40,-9 59,-13 2,0 5,0 6,-1 7,-1 14,-3 21,-4 1,0 2,0 2,2 0,0 0,0 0,0 0,0 0,1 0,1 0,1 0,2 0,3 0,0 0,0 0,1 0,8 0,16 0,24 0,21 0,42 0,63 0,7 0,13 -1,20 0,2 0,4 0,6 0,7 -1,14 -1,21 0,7 0,13 -1,20 0,0 0,1 1,1 0,1 0,1 0,1 0,0 0,0 0,0 0,0 0,0 0,0 0,0 0,0 0,0 0,0 0,0 0,0 1,0 1,0 2,-1 0,0 0,-1 1,-1 1,-3 3,-5 5,-7 4,-6 10,-11 15,-15 9,-6 18,-12 27,-16 12,-6 25,-11 38,-13 11,-2 22,-3 33,-1 7,0 13,2 19,4 13,4 24,10 33,19 6,6 11,13 16,21 6,11 11,22 15,34 3,12 6,25 8,38 3,21 4,41 4,62 -1,13 -1,27 -2,40 -1,11 -2,21 -3,32 -2,9 -3,19 -4,29 0,0 0,0 -1,0 0,0 0,0 0,1 0,1 -1,2 -2,2 -3,1 -5,1 -7,1 -9,1 -18,2 -27,3 -4,0 -7,0 -10,0 -4,1 -8,1 -11,2 -4,0 -9,0 -13,0 -2,1 -6,1 -9,1 -6,1 -14,1 -21,2 -1,0 -2,0 -3,0 0,0 0,0 0,0 -1,0 -1,0 -2,0 0,-1 0,-1 0,-2 0,0 0,0 0,0 1,-3 1,-5 2,-8 3,-14 5,-28 7,-42 0,-2 0,-4 1,-6 0,-6 1,-12 2,-19 1,-4 1,-8 1,-12 1,-3 1,-7 1,-10 1,-11 2,-22 2,-33 0,-10 -1,-20 -2,-30 -1,-9 -3,-18 -6,-27 -2,-4 -3,-7 -6,-10 -1,-3 -4,-6 -6,-8 -6,-6 -13,-9 -22,-9 -13,-1 -25,4 -35,13 -4,4 -7,8 -10,13 -8,11 -14,24 -16,38 -1,1 -1,2 -1,3 0,1 0,2 0,3 0,3 -1,7 -1,10 0,3 0,6 0,10 -1,21 -1,42 -2,63 0,17 0,34 1,51 0,2 0,4 0,6 0,0 0,1 -1,1 0,0 -1,1 -1,1 -3,0 -5,0 -7,0 -12,1 -23,1 -35,2 -4,0 -8,0 -12,0 0,0 0,0 0,0 -1,0 -1,0 -1,0 -4,1 -7,1 -11,1 -9,1 -18,1 -28,2 -2,0 -4,0 -6,0 0,0 -2,0 -3,0 0,0 0,0 -1,0 -1,0 -2,0 -3,0 0,0 -1,0 -1,0 0,-1 -1,-1 -1,-1 0,0 0,-1 0,-1 0,0 0,-1 0,-1 0,-2 0,-3 0,-5 0,0 0,-1 0,-1 0,-8 0,-16 0,-25 0,-112 0,-225 0,-338 0,0 0,-1 0,-1 0,-3 0,-5 0,-7z"/>
   </g>
   <path class="fil1" d="M4375 160c0,5 -3,32 -7,81 -1,3 -4,4 -7,4 -16,0 -37,0 -64,-1 -32,-1 -54,-2 -64,-2 0,17 0,42 1,75 1,33 2,57 2,74 0,13 -17,19 -49,19 -22,0 -36,-2 -43,-6 -3,-2 -5,-6 -5,-12 -1,-19 -1,-43 0,-75 1,-38 2,-63 2,-75 -9,0 -29,1 -62,2 -25,1 -46,1 -62,1 -5,0 -8,-2 -8,-7 0,-2 2,-15 4,-39 0,-13 1,-27 2,-42 3,-3 6,-5 12,-5 -10,0 28,1 114,3 0,-16 0,-40 -1,-72 0,-33 0,-57 0,-73 0,-6 3,-9 9,-9 8,0 21,0 37,0 17,-1 30,-1 38,-1 8,0 12,5 12,14 0,15 -1,39 -2,70 -1,32 -1,55 -1,71 14,0 37,0 66,0 30,-1 52,-1 67,-1 6,0 9,2 9,6z"/>
  </g>
 </g>
</svg>
