<?xml version="1.0" encoding="UTF-8"?>
<!DOCTYPE svg PUBLIC "-//W3C//DTD SVG 1.1//EN" "http://www.w3.org/Graphics/SVG/1.1/DTD/svg11.dtd">
<!-- Creator: CorelDRAW X7 -->
<svg xmlns="http://www.w3.org/2000/svg" xml:space="preserve" width="137.001mm" height="34.045mm" version="1.1" style="shape-rendering:geometricPrecision; text-rendering:geometricPrecision; image-rendering:optimizeQuality; fill-rule:evenodd; clip-rule:evenodd"
viewBox="0 0 2730 678"
 xmlns:xlink="http://www.w3.org/1999/xlink">
 <defs>
  <style type="text/css">
   <![CDATA[
    .fil6 {fill:#00A0E3;fill-rule:nonzero}
    .fil7 {fill:#FF7803;fill-rule:nonzero}
    .fil3 {fill:url(#id0)}
    .fil0 {fill:url(#id1)}
    .fil1 {fill:url(#id2)}
    .fil2 {fill:url(#id3)}
    .fil4 {fill:url(#id4)}
    .fil5 {fill:url(#id5)}
   ]]>
  </style>
  <linearGradient id="id0" gradientUnits="userSpaceOnUse" x1="555.873" y1="204.667" x2="384.244" y2="163.807">
   <stop offset="0" style="stop-opacity:1; stop-color:#028CB1"/>
   <stop offset="1" style="stop-opacity:1; stop-color:#38CCF5"/>
  </linearGradient>
  <linearGradient id="id1" gradientUnits="userSpaceOnUse" x1="79.4616" y1="246.259" x2="307.5" y2="14.9132">
   <stop offset="0" style="stop-opacity:1; stop-color:#028CB1"/>
   <stop offset="1" style="stop-opacity:1; stop-color:#81DDF7"/>
  </linearGradient>
  <linearGradient id="id2" gradientUnits="userSpaceOnUse" x1="596.044" y1="561.639" x2="687.308" y2="580.483">
   <stop offset="0" style="stop-opacity:1; stop-color:#FDE7D3"/>
   <stop offset="0.631373" style="stop-opacity:1; stop-color:#F1AB7A"/>
   <stop offset="1" style="stop-opacity:1; stop-color:#E46F20"/>
  </linearGradient>
  <linearGradient id="id3" gradientUnits="userSpaceOnUse" x1="155.504" y1="73.8808" x2="737.36" y2="611.601">
   <stop offset="0" style="stop-opacity:1; stop-color:#F7AE6B"/>
   <stop offset="1" style="stop-opacity:1; stop-color:#FF7803"/>
  </linearGradient>
  <linearGradient id="id4" gradientUnits="userSpaceOnUse" x1="460.146" y1="53.2084" x2="545.769" y2="110.804">
   <stop offset="0" style="stop-opacity:1; stop-color:#018AAF"/>
   <stop offset="1" style="stop-opacity:1; stop-color:#40D6FF"/>
  </linearGradient>
  <linearGradient id="id5" gradientUnits="userSpaceOnUse" x1="-23.8692" y1="474.036" x2="109.834" y2="222.438">
   <stop offset="0" style="stop-opacity:1; stop-color:#038DB2"/>
   <stop offset="0.184314" style="stop-opacity:1; stop-color:#038DB2"/>
   <stop offset="0.419608" style="stop-opacity:1; stop-color:#73D0E9"/>
   <stop offset="1" style="stop-opacity:1; stop-color:#038DB2"/>
  </linearGradient>
 </defs>
 <g id="Layer_x0020_1">
  <metadata id="CorelCorpID_0Corel-Layer"/>
  <g id="_2244296988368">
   <g>
    <g>
     <path class="fil0" d="M387 122c-44,-22 -72,-29 -155,-37 -83,-8 -230,16 -223,171 -31,-122 22,-192 106,-226 85,-34 196,-34 271,10l1 82z"/>
     <path class="fil1" d="M621 484c37,-27 118,116 11,178 0,0 -69,-8 -11,-178z"/>
     <path class="fil2" d="M888 197c-12,-365 -284,-138 -347,134 -18,78 -25,137 -26,182l13 106c4,10 8,14 8,14 0,0 45,54 96,29 0,0 -54,-9 -5,-192 50,-184 153,-490 261,-273zm-380 320c-36,20 -90,46 -159,68 -133,42 -237,-86 -237,-86 51,150 250,174 250,174 0,0 82,8 156,-46 1,-1 3,-2 4,-3l-14 -107 0 0zm-448 -162c0,0 -95,67 -35,169 60,101 199,133 199,133 0,0 75,21 128,21 0,0 -79,-16 -153,-52 -75,-36 -103,-115 -103,-115 0,0 -21,-38 15,-101l-51 -55z"/>
     <path class="fil3" d="M395 126c-21,-122 34,-153 93,-104 -93,-18 27,191 61,232 0,0 -12,31 -29,114 -56,-53 -108,-159 -125,-242z"/>
     <path class="fil4" d="M478 121c0,0 -13,-49 18,-25 30,25 48,38 48,38 0,0 25,-4 -18,-71 -42,-67 -66,-23 -66,-23 0,0 -12,11 18,81z"/>
    </g>
    <path class="fil5" d="M176 279c0,0 138,-38 190,35 0,0 33,61 -27,93 -61,33 -145,-1 -145,-1 0,0 -211,-58 -171,-195 0,0 4,-52 112,-51 0,0 -88,17 -49,87 0,0 49,62 175,72l-85 -40z"/>
   </g>
   <g>
    <path class="fil6" d="M1232 321l0 0c-2,0 -4,0 -6,0 -61,0 -122,0 -184,0 0,0 0,0 0,0 0,0 0,0 -1,0 0,0 0,0 0,0 0,-1 0,-1 0,-2 -1,-12 -1,-24 -1,-36 0,-5 0,-10 0,-15 0,-3 0,-5 0,-8 0,-1 0,-2 1,-4 0,-5 0,-10 0,-15 0,-10 0,-19 0,-28 0,-2 0,-3 0,-4 0,-4 0,-8 0,-12 0,-1 0,-2 0,-3 0,-18 0,-36 1,-53 0,-2 0,-5 0,-7 0,-1 0,-2 0,-4 0,-4 0,-8 0,-12 0,-10 0,-19 0,-28 0,-9 0,-18 0,-27 0,-4 0,-8 0,-13 0,0 0,-1 0,-1 0,-4 0,-8 0,-11 0,-1 0,-1 0,-2 0,0 0,0 0,-1 1,0 2,0 3,0 1,0 1,0 1,0 1,-1 2,-1 4,-1 8,-1 16,-3 25,-4 6,-1 13,-3 20,-4 4,-1 7,-1 11,-2 2,-1 5,-1 7,-2 4,0 7,-1 11,-2 2,0 4,0 6,-1 0,0 1,0 1,0 5,0 9,-1 14,-2 1,0 3,0 5,0 2,-1 5,-1 7,-1 3,0 5,-1 8,-1 3,-1 5,-1 8,-1 2,-1 4,-1 6,-1 2,0 4,-1 6,-1 2,0 4,0 7,-1 2,0 4,0 6,-1 2,0 4,0 6,-1 2,0 4,0 6,0 3,-1 6,-1 9,-1 1,-1 2,-1 3,-1 1,0 2,0 4,0 2,-1 5,-1 8,-1 0,0 1,0 1,0 0,-1 1,-1 1,-1 0,0 0,1 0,1 0,0 0,0 0,1 0,0 0,1 0,1 0,0 0,0 0,1 0,2 0,6 0,9 0,21 0,42 0,63 0,0 0,1 0,1 0,1 0,1 0,2 -1,0 -3,1 -4,1 -1,0 -2,0 -2,0 -2,0 -3,0 -4,0 -1,0 -2,0 -3,0 -1,0 -1,0 -2,0 -1,1 -3,1 -4,1 0,0 0,0 0,0 -2,0 -4,0 -6,0 -1,0 -2,0 -3,0 -1,0 -2,0 -3,1 -2,0 -3,0 -4,0 -1,0 -2,0 -3,0 -2,0 -4,0 -6,1 -2,0 -4,0 -6,0 -2,0 -4,0 -6,0 0,0 0,0 0,0 -1,1 -2,1 -3,1 -1,0 -2,0 -3,0 -1,0 -2,0 -3,0 -1,0 -2,0 -4,0 -2,1 -4,1 -6,1 -1,0 -2,0 -3,0 -1,0 -2,0 -3,0 -2,0 -3,0 -4,1 -1,0 -2,0 -2,0 -1,0 -1,0 -2,0 -2,0 -3,0 -5,0 0,0 -1,0 -2,0 -1,0 -2,1 -4,1 -1,0 -3,0 -4,0 -1,0 -2,0 -2,0 0,0 0,1 0,1 0,1 0,1 0,1 -1,7 -1,14 -1,22 0,5 0,10 0,15 0,1 0,1 0,2 0,1 0,1 0,2 0,0 0,1 0,1 0,0 0,0 0,0 0,0 0,0 0,1 1,0 1,0 1,0 4,0 7,0 10,0 4,0 8,0 12,0 5,0 9,0 13,0 6,0 11,0 16,0 3,0 6,0 9,0 2,0 4,0 6,0 1,0 1,0 2,0 0,0 1,0 1,0 0,1 0,1 0,1 0,0 0,1 0,1 0,0 0,1 0,1 0,0 0,0 0,1 0,2 0,4 0,7 0,13 0,27 0,41 0,1 0,1 0,2 0,0 0,0 0,1 0,0 0,0 -1,0 0,0 0,0 -1,0 -5,0 -10,0 -16,0 -4,0 -8,0 -12,0 -15,0 -29,0 -44,0 -1,0 -1,0 -1,0 0,0 -1,0 -1,0 0,0 0,0 0,1 0,0 0,0 0,0 0,5 0,10 -1,15 0,3 0,6 0,9 0,5 0,9 0,13 -1,5 -1,9 -1,14 0,0 0,1 0,1 0,0 0,0 0,0 0,1 0,1 1,1 0,0 0,0 1,0 9,-1 19,-1 29,-2 0,0 0,0 1,0 10,0 20,-1 31,-1 9,-1 18,-1 28,-1 1,0 2,0 3,0 1,-1 3,-1 5,-1 5,0 10,0 16,0 0,0 0,0 1,0 0,0 0,0 0,0 0,0 1,0 1,0 0,0 0,0 0,0 0,0 0,0 0,0 0,0 0,0 0,0 -2,26 -4,53 -6,80 0,0 0,0 0,0 0,0 0,0 0,0zm215 -166l0 0c0,0 0,0 0,0 1,-1 1,-1 1,-1 3,-2 5,-5 8,-7 1,0 1,-1 2,-2 0,0 0,0 0,0 2,-2 5,-5 8,-7 13,-11 27,-18 43,-22 6,-1 13,-2 19,-1 6,0 11,1 17,2 11,4 21,10 28,20 4,5 8,11 11,17 3,8 6,16 9,25 2,9 3,18 4,27 2,15 3,30 2,44 0,10 0,19 -1,28 0,8 -1,16 -2,24 -1,5 -1,10 -2,14 0,2 0,4 -1,6 0,0 0,1 0,1 0,1 -1,1 -1,1 0,0 -1,0 -2,0 0,0 0,0 0,0 0,0 0,0 -1,1 -2,0 -4,0 -6,0 -2,0 -5,0 -7,1 -2,0 -5,0 -8,0 -3,1 -6,1 -10,1 -1,0 -3,1 -5,1 -1,0 -1,0 -2,0 -3,0 -7,1 -10,1 -3,0 -5,1 -8,1 -3,0 -5,0 -7,0 -1,0 -1,1 -2,1 -1,0 -1,0 -1,0 -2,0 -3,-1 -2,-2 0,-3 1,-5 1,-8 1,-5 2,-10 2,-15 2,-8 3,-16 4,-24 0,-6 1,-12 2,-18 0,-1 0,-3 0,-4 0,0 0,0 0,-1 0,0 0,-1 0,-2 0,-2 0,-4 0,-6 1,-4 1,-9 1,-14 0,-9 -1,-19 -2,-28 -1,-7 -2,-13 -4,-18 -1,-4 -3,-8 -5,-11 -3,-4 -7,-6 -11,-8 -4,-1 -8,-2 -12,-1 -8,1 -16,5 -22,12 -7,7 -11,15 -14,24 0,3 -1,6 -1,9 0,8 -1,15 -1,23 -1,5 -1,11 -2,17 0,1 0,2 0,2 0,6 0,12 -1,18 0,3 0,5 0,8 0,0 0,0 0,1 0,1 0,2 0,2 0,3 0,5 0,7 -1,9 -1,17 -1,26 0,1 0,2 -1,3 0,1 0,1 -1,1 0,0 -1,0 -2,1 0,0 -1,0 -1,0 -3,0 -7,0 -10,1 -2,0 -3,0 -5,0 0,0 0,0 -1,0 -3,0 -7,1 -10,1 -2,0 -5,0 -7,1 -2,0 -5,0 -8,0 -2,1 -5,1 -8,1 -2,0 -4,1 -6,1 -2,0 -3,0 -4,0 -1,0 -3,0 -5,1 -2,0 -3,0 -3,-1 -1,0 -1,-1 0,-3 2,-11 4,-21 5,-31 1,-8 2,-16 3,-25 1,-3 1,-7 1,-10 0,-2 0,-5 0,-7 1,-10 1,-20 1,-29 0,-8 -1,-16 -2,-24 -1,-5 -3,-10 -5,-14 -2,-4 -4,-7 -6,-9 -5,-6 -11,-8 -19,-7 -9,0 -16,4 -23,12 -2,2 -3,4 -5,7 -5,8 -9,17 -11,27 0,3 -1,6 -1,9 0,21 -1,41 -1,62 -1,10 -1,21 0,31 0,2 0,4 0,6 0,2 0,2 -2,2 -5,1 -10,1 -15,1 -7,1 -14,1 -22,1 -3,1 -6,1 -10,1 0,0 0,0 0,0 0,0 -1,0 -1,0 -1,0 -3,0 -5,0 -4,0 -9,1 -13,1 -2,0 -4,0 -7,0 -1,0 -1,0 -1,-1 0,-1 0,-2 0,-2 0,-1 0,-2 0,-3 0,0 0,0 0,-1 0,-63 0,-127 0,-190 0,0 0,-1 0,-1 -1,-1 -1,-2 0,-3 0,-1 0,-1 0,-1 0,-1 0,-1 0,-1 1,-1 3,-1 4,-1 8,-2 16,-4 25,-6 7,-2 14,-3 21,-5 6,-1 11,-2 17,-3 0,0 1,0 1,-1 0,0 1,0 1,1 0,0 1,0 1,1 0,0 0,0 0,0 0,0 0,0 0,1 0,0 0,1 0,1 0,0 0,1 0,1 -1,1 -1,2 -1,3 0,3 0,5 0,8 0,1 0,2 0,2 0,7 -1,14 -1,21 0,1 0,2 0,3 0,0 0,1 0,1 0,0 0,0 0,0 0,0 1,0 1,0 0,0 0,0 0,0 0,0 0,0 0,0 0,0 0,0 0,0 1,0 1,-1 1,-1 2,-2 3,-4 5,-6 2,-3 4,-6 6,-8 3,-2 7,-5 10,-7 10,-7 20,-12 32,-15 8,-3 17,-4 25,-3 6,0 12,1 18,3 10,4 18,10 25,18 4,4 7,9 10,15 0,0 0,0 0,1 1,1 1,2 2,3zm162 -6l0 0c1,0 3,0 4,-1 3,-1 6,-2 9,-3 3,-1 6,-2 10,-3 3,-1 6,-2 9,-3 6,-2 13,-3 20,-4 3,0 7,0 11,-1 1,0 2,0 4,0 0,0 1,0 2,0 1,0 2,0 2,0 1,1 1,2 1,3 0,4 0,8 0,12 0,6 0,12 0,18 0,2 0,4 0,6 0,0 0,1 1,2 0,0 0,0 0,0 0,0 0,0 0,0 0,0 0,0 0,0 0,0 0,0 0,0 0,0 0,0 0,0 0,0 0,0 1,0 0,0 0,-1 1,-1 0,0 0,0 0,-1 1,-2 3,-4 4,-5 5,-7 10,-12 17,-16 3,-3 7,-5 11,-7 10,-6 20,-8 31,-8 10,0 20,2 29,6 15,6 27,16 36,30 6,10 10,20 13,32 2,8 3,16 4,24 0,8 0,17 -1,25 -1,13 -4,25 -8,36 -6,15 -15,26 -28,33 -9,6 -18,9 -28,11 -9,2 -18,2 -27,1 -15,-2 -29,-6 -42,-13 -1,-1 -2,-1 -2,-1 -2,-1 -3,-2 -4,-2 0,0 -1,0 -1,0 0,0 -1,0 -1,1 0,0 0,0 0,0 0,0 0,0 0,0 1,7 1,13 1,19 0,2 0,3 1,5 0,1 0,3 0,4 0,3 0,6 0,9 0,7 1,14 1,21 0,6 0,12 1,18 0,3 0,6 0,10 0,1 0,3 0,5 0,1 0,1 -2,1 -5,0 -10,0 -15,-1 -1,0 -3,0 -4,0 0,0 0,0 -1,0 0,0 0,0 0,0 -3,0 -6,0 -8,0 -6,0 -11,-1 -17,-1 -5,0 -10,-1 -15,-1 -3,0 -6,0 -10,-1 -1,0 -2,0 -4,0 -1,0 -2,0 -3,0 0,0 0,0 0,0 -1,0 -2,0 -2,0 -1,0 -1,0 -1,-1 0,0 0,0 0,0 0,-1 0,-1 0,-2 0,-1 0,-2 0,-3 0,0 0,0 0,0 0,-5 0,-10 0,-14 0,-78 0,-155 0,-232 0,-1 0,-1 0,-1 -1,-2 0,-4 0,-6zm76 124l0 0c3,4 6,7 10,9 11,7 23,9 35,6 11,-4 20,-11 26,-22 5,-11 7,-22 5,-34 -2,-11 -7,-21 -13,-27 -6,-7 -13,-12 -20,-15 -6,-2 -12,-2 -19,-1 -11,2 -19,9 -25,19 -1,1 -1,2 -1,4 0,1 0,3 0,4 0,1 0,2 0,3 0,11 1,22 1,32 1,5 1,10 1,15 0,3 0,5 0,7zm371 -56l0 0c0,20 -3,40 -11,59 -5,13 -12,24 -20,34 -12,14 -27,24 -45,30 -7,2 -15,4 -23,5 -5,0 -9,0 -14,0 -10,0 -19,-2 -28,-5 -26,-9 -47,-25 -65,-47 -11,-13 -19,-29 -23,-46 -3,-9 -4,-19 -5,-29 0,0 0,0 0,0 0,-3 0,-5 0,-7 1,-28 9,-52 25,-73 15,-18 33,-31 55,-38 7,-3 14,-4 22,-5 8,-1 16,-1 25,-1 17,1 33,6 49,13 15,8 27,19 37,33 7,11 13,23 16,37 3,10 4,20 5,30 0,2 0,4 0,7 0,1 0,2 0,3zm-62 -1l0 0c0,-1 0,-1 0,-1 0,-2 0,-3 0,-4 0,-2 0,-4 0,-6 0,0 0,0 0,0 -1,-6 -3,-12 -6,-17 -5,-11 -13,-19 -24,-23 -11,-5 -22,-7 -34,-4 -9,1 -17,5 -24,11 -17,14 -23,32 -19,55 2,8 5,16 11,23 8,11 18,18 30,22 5,2 11,3 16,3 2,0 4,-1 6,-1 0,0 1,0 1,0 5,-1 10,-2 14,-4 11,-6 19,-14 24,-26 3,-9 5,-18 5,-28z"/>
    <path class="fil6" d="M2142 253l0 0c0,0 1,-1 1,-1 0,-2 0,-3 0,-4 1,-4 1,-8 2,-11 0,-4 1,-8 1,-12 1,-5 1,-9 2,-14 0,-3 1,-6 1,-10 1,-3 1,-6 2,-9 0,-2 0,-4 0,-6 1,-3 1,-5 1,-8 1,-3 1,-7 2,-10 0,-3 1,-7 1,-10 0,-2 1,-4 1,-7 0,0 0,-1 0,-2 1,-4 1,-9 2,-14 0,-3 1,-6 2,-10 0,-1 0,-1 0,-1 0,-1 1,-1 1,-1 0,0 1,0 1,0 1,0 2,0 3,0 2,-1 4,-1 6,-1 2,0 4,0 7,-1 2,0 5,0 7,0 2,-1 4,-1 5,-1 3,0 6,-1 9,-1 6,-1 12,-1 19,-2 0,0 1,1 1,1 1,2 1,4 2,6 2,9 4,17 6,25 7,30 15,60 23,90 0,0 0,1 0,1 0,2 1,3 1,4 0,0 0,0 0,0 0,0 0,0 1,0 0,0 0,0 0,0 0,0 0,0 0,0 0,0 0,-1 0,-1 0,-1 1,-2 1,-3 1,-7 2,-14 4,-21 1,-9 3,-19 5,-28 2,-9 3,-18 5,-28 1,-7 3,-14 4,-22 1,-6 2,-11 4,-17 0,-4 1,-9 2,-13 0,-1 0,-2 1,-3 0,0 0,0 0,0 0,0 0,-1 0,-1 0,0 1,0 1,0 0,0 1,0 1,0 1,0 2,0 3,0 4,1 9,2 13,2 5,1 9,2 14,3 5,0 10,1 15,2 2,0 4,1 6,1 3,0 5,1 8,1 0,0 0,0 0,0 1,0 1,0 1,0 0,0 0,1 0,1 1,0 1,1 1,1 -1,1 -1,2 -1,3 0,2 -1,5 -1,7 -1,3 -1,7 -2,10 -2,13 -4,26 -7,40 -3,15 -6,30 -10,44 -8,32 -16,63 -25,95 0,1 -1,2 -1,3 0,0 -1,1 -1,1 -1,0 -2,0 -3,0 -3,1 -5,1 -8,1 -1,0 -3,0 -5,1 -2,0 -5,0 -7,0 -3,1 -6,1 -9,1 -1,1 -3,1 -5,1 -3,0 -6,1 -10,1 -4,0 -9,1 -14,1 0,0 -1,1 -2,1 -1,0 -2,-1 -2,-2 -1,-2 -1,-5 -2,-7 -4,-21 -8,-41 -13,-61 -3,-13 -7,-26 -10,-39 -1,0 -1,-1 -1,-2 0,0 0,0 0,0 0,0 0,0 0,0 0,0 0,0 0,0 -1,0 -1,0 -1,0 0,0 0,0 0,0 0,0 0,0 0,0 0,0 0,1 0,1 -1,6 -2,13 -3,19 0,1 0,2 -1,4 -1,6 -1,12 -2,18 -1,4 -2,8 -2,11 -1,4 -1,7 -2,10 0,3 -1,7 -1,10 -1,4 -1,8 -2,11 0,3 -1,6 -1,8 0,3 0,5 -1,7 0,1 0,2 -1,3 0,1 0,1 -1,2 0,0 0,0 0,0 -1,0 -2,0 -2,0 -5,1 -9,1 -13,2 -6,1 -11,2 -16,2 -8,2 -17,3 -25,4 -3,1 -6,1 -9,2 -2,0 -4,0 -6,1 -1,0 -1,0 -2,0 -1,0 -1,-1 -1,-1 -1,-1 -2,-3 -2,-4 -1,-3 -2,-6 -3,-8 -3,-7 -6,-14 -9,-21 -11,-31 -23,-63 -33,-95 -7,-22 -13,-44 -18,-67 -1,-3 -1,-7 -2,-11 0,-1 -1,-2 -1,-4 0,-1 0,-1 1,-2 1,0 2,0 3,0 9,-2 18,-3 27,-5 5,-1 9,-1 14,-2 3,-1 7,-1 11,-2 2,0 3,-1 4,-1 1,0 3,0 4,-1 1,0 3,0 4,0 1,0 2,0 2,2 2,10 4,19 6,29 0,1 0,1 1,2 1,6 2,11 3,17 2,11 5,22 7,33 2,9 3,18 5,27 2,8 3,15 5,23 0,2 1,3 1,4 0,3 1,4 1,6 0,0 0,0 0,0 0,1 0,1 0,2 1,0 1,0 1,0zm310 -151l0 0c5,0 11,0 18,1 13,2 26,6 38,12 13,8 24,18 32,31 3,4 5,8 7,12 3,7 5,14 4,21 0,9 -3,17 -8,24 -5,7 -12,12 -21,15 -2,1 -4,1 -6,1 -1,0 -1,1 -2,1 -3,0 -7,1 -10,1 -2,0 -4,1 -5,1 -3,0 -6,1 -9,1 -3,1 -5,1 -7,1 -3,1 -5,1 -8,2 -3,0 -5,0 -8,1 -2,0 -5,1 -8,1 -2,0 -5,1 -8,1 -2,0 -5,1 -8,1 -2,1 -4,1 -7,1 -2,1 -5,1 -7,1 -3,1 -6,1 -9,2 -3,0 -6,1 -9,1 -2,0 -5,1 -7,1 -1,1 -2,1 -3,1 -1,0 -1,1 -1,2 0,3 1,7 2,10 5,11 12,20 21,27 11,6 22,9 34,8 8,-1 17,-4 24,-9 5,-3 8,-6 12,-10 1,-1 1,-1 2,-2 1,-1 1,-1 2,-1 1,0 2,0 3,1 0,0 0,0 1,0 3,0 5,1 8,1 6,2 13,3 20,4 4,1 8,2 13,3 3,0 6,1 9,1 3,1 5,1 7,2 0,0 0,0 1,0 0,1 0,1 0,1 0,0 0,1 0,1 -1,0 -1,1 -1,2 -6,12 -14,22 -24,30 -7,5 -14,10 -22,13 -9,4 -18,7 -28,9 -3,1 -7,2 -10,3 -9,1 -18,2 -27,1 -5,-1 -11,-1 -16,-2 -25,-6 -48,-17 -67,-35 -11,-10 -20,-22 -26,-35 -4,-9 -7,-19 -8,-28 -1,-6 -2,-12 -2,-17 0,-21 5,-39 15,-56 11,-19 25,-34 44,-44 11,-6 22,-10 34,-12 10,-2 20,-3 31,-3zm-10 53l0 0c0,0 0,0 -1,0 -2,0 -4,0 -6,1 -5,1 -10,3 -14,6 -6,5 -12,11 -16,17 -5,7 -8,14 -9,21 -1,1 -1,2 -1,4 0,0 0,1 0,1 0,0 0,0 0,1 0,0 0,0 0,0 0,0 0,0 0,0 0,1 0,1 0,1 1,0 1,0 2,0 2,-1 3,-1 5,-2 2,0 4,-1 6,-1 9,-2 19,-4 28,-6 10,-2 20,-4 31,-7 0,0 0,0 1,0 2,0 4,-1 6,-2 3,-1 6,-3 7,-7 1,-4 0,-8 -3,-11 0,0 -1,-1 -1,-2 -5,-4 -10,-7 -15,-9 -6,-3 -12,-5 -20,-5zm114 -22l0 0c1,0 1,-1 1,-1 1,0 2,0 3,0 21,-5 42,-10 63,-14 1,0 1,0 2,-1 0,0 0,0 0,0 1,0 1,0 1,1 1,0 1,0 1,0 0,0 0,0 0,1 0,0 0,0 0,1 0,3 1,6 1,9 0,2 0,4 0,5 1,3 1,6 1,8 0,2 1,3 1,5 0,0 0,1 0,1 0,0 0,0 0,0 0,0 0,0 0,0 0,0 0,0 0,0 0,0 0,0 0,0 0,0 1,0 1,0 0,0 0,0 0,0 0,0 0,0 1,-1 1,-1 2,-2 2,-3 4,-5 8,-9 13,-12 7,-5 15,-9 24,-11 8,-2 15,-2 23,-2 10,1 20,3 30,7 1,0 3,1 4,2 0,0 1,0 1,0 0,0 0,0 1,1 0,0 0,0 0,0 -1,1 -1,1 -1,1 0,1 -1,1 -1,2 -11,16 -22,32 -33,49 -1,1 -2,1 -2,2 0,0 0,1 -1,1 0,0 0,0 0,0 -1,-1 -2,-2 -2,-2 -4,-3 -7,-6 -12,-8 -4,-1 -8,-2 -12,-3 -1,0 -3,0 -5,0 -5,0 -11,2 -16,4 -3,1 -5,3 -8,5 -2,2 -4,5 -6,8 -1,2 -1,5 -1,7 0,1 0,3 0,4 0,4 0,8 0,12 0,7 0,15 0,22 0,12 1,24 1,35 0,5 0,10 0,14 0,0 0,1 0,1 0,0 0,0 0,0 0,2 1,4 1,6 0,12 0,23 1,35 0,1 0,2 0,3 0,1 -1,2 -2,2 -3,0 -5,0 -8,1 -4,0 -9,0 -13,1 -2,0 -4,0 -7,1 -2,0 -4,0 -6,0 -3,0 -5,1 -7,1 -2,0 -4,0 -6,1 -3,0 -5,0 -7,0 -3,1 -5,1 -7,1 -4,1 -8,1 -12,1 -1,0 -1,0 -2,0 0,0 0,-1 0,-1 0,0 0,0 0,0 0,-1 0,-1 0,-1 0,-1 0,-2 0,-3 0,-1 0,-1 0,-1 0,-21 0,-42 0,-63 0,-3 0,-6 0,-9 0,-7 0,-14 0,-21 0,-33 0,-65 0,-98 0,0 0,-1 0,-1 0,-2 0,-3 0,-5z"/>
   </g>
   <path class="fil7" d="M1896 646l0 0c-1,0 -2,0 -3,0 -2,0 -5,1 -7,1 -7,1 -14,2 -20,3 -4,1 -8,2 -11,2 -5,1 -9,1 -14,2 -3,1 -7,1 -10,2 -3,0 -6,1 -9,1 -6,1 -12,2 -18,3 -5,1 -9,2 -14,2 0,0 0,0 -1,0 0,0 0,0 0,0 0,0 0,0 0,0 0,-1 -1,-2 -1,-3 1,-4 1,-8 1,-12 0,0 0,-1 0,-1 1,-12 1,-23 1,-35 0,0 0,0 0,-1 0,0 0,-1 0,-1 1,-4 1,-8 1,-11 0,-8 0,-15 1,-23 0,-5 0,-11 0,-16 0,-2 0,-5 0,-7 0,-1 0,-1 0,-2 1,0 1,-1 1,-1 0,-1 -1,-3 -1,-4 -2,-3 -3,-6 -5,-9 -1,-2 -1,-4 -2,-5 -5,-10 -11,-21 -16,-31 -18,-38 -37,-76 -56,-114 -1,-2 -2,-3 -2,-5 0,0 0,0 0,0 0,0 0,0 0,-1 0,0 0,0 1,0 0,0 0,0 0,0 2,0 4,0 6,0 2,0 5,-1 7,-1 3,0 6,0 9,0 2,-1 5,-1 7,-1 4,0 8,-1 12,-1 2,0 5,0 7,0 3,-1 6,-1 9,-1 4,0 7,-1 10,-1 3,0 5,0 7,0 5,-1 9,-1 13,-1 1,0 2,0 2,0 0,0 1,1 1,2 0,0 0,1 1,2 0,0 0,0 0,0 2,6 4,12 5,18 10,29 19,59 28,88 0,0 0,0 0,0 1,1 1,2 2,3 0,0 0,0 0,0 0,0 0,0 0,0 0,0 0,0 0,0 1,0 1,-1 1,-1 1,-7 2,-14 4,-21 2,-10 4,-20 6,-31 2,-11 4,-21 6,-32 1,-7 2,-14 4,-20 0,-2 0,-4 1,-6 0,-2 0,-4 1,-6 0,-1 1,-1 1,-2 1,0 2,0 3,0 0,0 0,0 0,0 1,0 3,0 4,0 3,0 6,0 10,0 3,0 7,-1 10,-1 5,0 10,0 14,0 7,-1 13,-1 19,-2 3,0 5,0 8,0 0,0 0,0 0,0 0,0 0,0 0,0 1,0 2,0 3,0 10,0 19,-1 28,-1 0,0 1,0 1,0 0,0 0,0 0,0 0,0 0,0 1,0 0,0 0,0 0,0 0,0 0,0 0,1 0,0 0,0 0,0 0,1 -1,2 -1,2 -4,11 -8,21 -12,32 -12,30 -24,60 -36,91 -7,19 -15,37 -22,56 0,1 0,1 0,1 -1,0 -1,1 -1,1 0,1 -1,2 -1,4 0,1 1,2 1,2 0,2 0,3 0,4 0,7 1,15 1,22 1,4 1,7 1,10 0,3 1,6 1,9 0,4 0,9 1,13 0,3 0,6 0,9 0,3 1,7 1,10 0,2 0,3 0,5 0,2 1,3 1,5 0,1 0,2 0,3 0,0 0,1 0,1 -1,0 -1,0 -1,1zm234 -89l0 0c0,18 -3,36 -10,54 -5,11 -12,21 -20,30 -12,13 -26,22 -43,27 -8,2 -15,4 -23,4 -4,1 -9,1 -13,1 -9,-1 -18,-2 -27,-5 -25,-8 -46,-22 -63,-42 -11,-12 -18,-26 -23,-42 -2,-8 -4,-17 -4,-26 0,0 0,0 0,0 0,-2 0,-5 0,-7 1,-24 9,-46 24,-65 14,-17 32,-29 53,-35 7,-2 14,-4 21,-5 8,0 16,-1 24,0 17,1 33,5 48,12 14,7 26,16 36,29 7,10 12,21 16,33 2,9 4,19 4,28 0,2 0,4 0,6 0,1 0,2 0,3zm-60 -1l0 0c0,0 0,-1 0,-1 0,-1 0,-3 0,-4 0,-2 0,-3 0,-5 0,0 0,0 0,0 -1,-5 -3,-11 -5,-16 -6,-9 -13,-16 -24,-21 -10,-4 -21,-5 -32,-3 -9,1 -17,5 -24,10 -16,13 -22,29 -18,50 1,8 5,15 10,21 8,10 18,16 30,20 5,1 10,2 15,2 2,0 4,0 6,0 0,0 0,-1 0,-1 5,0 10,-1 14,-4 11,-4 18,-12 23,-23 4,-8 5,-16 5,-25zm271 93l0 0c0,0 -2,1 -3,1 0,0 0,0 0,0 -12,2 -24,5 -36,7 -4,1 -8,2 -12,3 -1,0 -1,0 -2,0 -4,1 -8,2 -11,3 -1,0 -1,0 -2,0 0,0 0,0 0,0 0,0 -1,0 -1,-1 0,0 0,0 0,0 0,0 0,0 0,-1 0,0 0,0 0,-1 0,-3 0,-7 0,-10 0,-3 1,-6 1,-9 0,-1 0,-2 0,-3 0,-1 0,-2 0,-4 0,-2 0,-4 0,-7 0,-1 0,-1 0,-2 0,0 0,-1 0,-1 0,0 0,0 0,0 0,0 0,0 0,0 0,0 0,0 0,0 -1,0 -1,0 -1,1 -1,0 -1,0 -1,1 -1,1 -3,3 -4,4 -2,4 -5,7 -9,10 -8,6 -17,10 -26,14 -6,3 -13,5 -20,6 -6,1 -12,1 -19,1 -3,-1 -7,-2 -11,-2 -10,-3 -20,-9 -27,-17 -4,-5 -8,-10 -11,-15 -4,-8 -7,-16 -9,-25 -2,-8 -3,-16 -4,-25 -2,-13 -3,-26 -2,-39 0,-9 0,-17 1,-26 1,-6 1,-12 2,-19 0,0 0,-1 0,-1 1,-4 1,-9 2,-13 0,0 0,-1 0,-2 0,-1 1,-2 1,-3 0,-1 0,-1 0,-2 0,0 1,0 1,-1 0,0 1,0 1,0 0,0 0,0 0,0 0,0 1,0 2,0 2,0 4,0 5,-1 3,0 6,0 9,0 3,0 5,-1 8,-1 2,0 4,0 6,-1 3,0 5,0 8,0 2,0 4,-1 6,-1 2,0 5,0 7,0 3,-1 5,-1 8,-1 3,0 5,0 8,-1 0,0 0,1 1,1 0,0 0,0 0,0 0,0 0,1 0,1 0,2 0,3 0,4 -2,9 -4,19 -6,29 -1,8 -2,16 -3,24 -1,9 -1,19 -1,28 0,8 0,16 1,24 1,5 2,10 4,14 1,3 2,6 4,9 1,3 4,5 6,7 4,3 8,4 12,4 9,0 16,-2 23,-8 3,-3 6,-6 8,-9 6,-8 9,-17 11,-27 0,-1 0,-2 0,-3 0,-1 0,-1 0,-1 0,-3 1,-6 1,-8 1,-25 1,-50 1,-75 0,-2 0,-4 0,-5 0,-1 0,-2 0,-3 0,0 0,-1 0,-1 0,0 0,0 0,-1 0,0 0,0 0,0 0,-1 1,-1 1,-1 1,0 1,0 2,0 9,0 17,-1 25,-1 2,0 4,0 7,0 0,0 0,0 0,0 0,0 0,0 1,0 2,-1 5,-1 7,-1 6,0 13,0 19,-1 2,0 3,0 5,0 2,0 3,0 4,0 1,0 2,0 2,0 0,0 0,0 0,0 0,0 0,1 0,1 1,0 1,0 1,1 0,1 0,2 0,4 0,0 0,0 0,0 0,57 0,115 0,172 0,1 0,1 0,1 0,2 0,3 -1,5zm45 -234l0 0c0,0 0,0 0,0 1,0 1,0 1,0 3,0 5,-1 8,-1 3,0 5,0 8,0 3,0 6,-1 9,-1 4,0 9,-1 14,-1 2,0 4,0 6,0 0,0 0,0 0,0 0,0 0,0 0,0 1,0 2,0 3,-1 6,0 13,0 19,-1 0,0 1,0 1,0 0,0 0,0 0,0 1,0 1,0 1,1 0,0 0,0 0,1 0,1 0,2 0,3 -1,3 -1,6 -2,8 -1,7 -2,13 -3,20 -1,5 -2,10 -2,15 -1,2 -1,4 -1,5 0,3 -1,5 -1,7 0,0 0,0 0,1 1,0 1,0 1,0 1,0 2,0 2,0 2,0 3,0 5,0 0,0 0,0 0,0 2,0 3,0 5,0 4,0 9,0 13,0 1,0 2,0 3,0 0,0 0,1 0,1 0,0 0,0 0,0 0,1 0,2 0,3 -1,4 -3,9 -4,14 -1,2 -2,5 -2,7 -1,3 -2,6 -3,9 -1,3 -2,6 -3,9 0,0 0,1 0,1 0,1 -1,1 -2,1 -1,0 -2,0 -3,0 -2,0 -4,0 -5,0 -3,0 -6,0 -8,0 -1,0 -2,0 -2,0 -1,0 -1,1 -1,1 0,0 0,0 0,0 0,1 0,2 -1,3 0,3 0,5 0,7 0,5 -1,10 -1,15 0,2 0,4 0,6 -1,2 -1,3 -1,4 -1,7 -1,13 -1,20 0,3 0,6 0,9 1,3 1,6 2,9 0,1 1,2 1,3 2,4 6,7 11,7 0,1 1,1 2,1 0,0 1,0 1,0 0,0 0,0 0,0 0,1 0,1 0,1 0,2 0,3 0,4 0,1 0,2 0,3 0,16 0,33 0,49 0,0 0,0 0,1 1,1 1,2 0,4 0,0 0,0 0,0 -1,0 -1,0 -2,0 -8,4 -16,5 -24,5 0,0 0,0 0,0 -5,0 -10,0 -16,-1 -5,-1 -11,-3 -17,-5 -9,-4 -16,-11 -21,-21 -2,-5 -4,-11 -5,-17 -1,-12 -2,-23 -1,-35 0,-6 1,-13 1,-19 1,-3 1,-6 1,-10 0,-1 1,-2 1,-3 0,-1 0,-3 0,-4 0,-2 1,-4 1,-6 0,-5 1,-10 1,-15 0,-3 1,-5 1,-6 0,-1 0,-2 0,-2 0,-2 0,-4 0,-6 0,0 0,-1 0,-2 0,0 0,0 0,0 0,0 0,0 0,-1 0,0 0,0 -1,0 -1,0 -2,0 -2,0 -4,0 -7,0 -10,0 -4,0 -9,0 -13,0 -2,0 -4,-1 -6,-1 0,0 0,0 -1,0 0,0 0,-1 0,-1 0,-1 0,-1 0,-2 2,-10 3,-19 4,-28 1,-3 1,-6 2,-9 0,0 0,-1 0,-1 0,-1 0,-1 1,-1 0,-1 0,-1 0,-1 2,0 3,0 4,0 4,0 9,0 12,0 3,0 5,0 8,0 0,0 0,0 0,0 1,0 2,0 3,0 1,0 1,0 1,0 1,-1 1,-1 1,-2 0,-1 0,-2 0,-2 0,-2 1,-3 1,-5 0,-2 0,-4 0,-6 1,-4 1,-9 2,-13 1,-7 2,-14 3,-21 0,-1 0,-3 0,-4 0,-1 0,-1 1,-2 0,0 0,0 0,-1zm92 0l0 0c2,-1 4,-2 7,-2 0,0 1,0 2,0 13,-3 26,-6 39,-9 2,0 3,0 5,-1 4,-1 9,-1 13,-2 1,0 1,0 1,1 0,0 0,0 0,0 1,0 1,1 1,1 0,1 0,1 0,2 0,0 0,0 0,0 0,5 0,11 0,16 0,14 0,28 0,42 0,5 -1,9 -1,14 0,1 0,3 0,4 0,5 0,9 -1,14 0,4 0,9 0,13 0,1 0,1 0,1 0,0 0,1 0,1 0,0 0,0 0,0 0,0 0,0 0,0 1,0 1,0 1,0 0,0 0,0 0,0 0,0 0,-1 0,-1 1,0 1,-1 1,-1 1,-1 3,-3 4,-4 3,-4 6,-8 10,-11 6,-4 12,-7 18,-10 8,-4 17,-7 25,-9 8,-1 15,-2 22,-1 5,1 9,2 13,3 9,3 16,7 22,13 4,4 8,9 11,14 4,7 7,15 9,23 3,8 5,16 6,25 2,14 3,28 3,42 -1,8 -1,17 -2,26 0,7 -1,15 -2,22 -1,6 -1,12 -2,19 0,0 -1,0 -1,0 0,0 0,0 0,1 0,1 0,1 -1,1 -2,1 -3,1 -5,1 -6,0 -12,1 -18,2 -2,0 -5,0 -7,0 -2,0 -5,0 -7,1 -3,0 -6,0 -8,0 -2,0 -4,1 -6,1 -5,0 -10,1 -14,1 -1,0 -2,0 -3,0 0,0 0,0 0,0 0,0 -1,0 -1,0 0,0 0,-1 0,-1 0,0 0,0 0,0 0,-2 1,-4 1,-5 2,-10 4,-19 5,-29 0,-1 0,-2 0,-4 1,-4 2,-8 2,-12 0,-3 1,-6 1,-9 0,-2 0,-4 1,-6 0,-7 0,-15 0,-22 0,-7 0,-14 -1,-20 0,-6 -2,-12 -4,-18 -1,-3 -2,-5 -4,-7 -1,-2 -2,-4 -4,-6 -4,-3 -9,-5 -14,-5 -9,-1 -17,2 -24,8 -2,3 -5,6 -7,9 -5,8 -9,16 -10,25 -1,1 -1,2 -1,2 0,1 0,2 0,3 0,2 0,4 0,6 0,2 -1,4 -1,7 0,14 0,28 -1,42 0,11 0,23 1,34 0,2 0,3 0,4 0,0 -1,0 -1,1 0,0 0,0 -1,0 -1,0 -3,0 -4,0 -8,1 -16,1 -24,2 -2,0 -5,0 -7,0 -1,0 -1,0 -1,0 0,0 0,0 0,0 -3,0 -5,0 -7,0 -7,1 -13,1 -19,1 -1,0 -3,0 -4,1 -1,0 -1,0 -2,0 0,0 -1,0 -1,0 -1,0 -1,0 -2,0 0,0 -1,0 -1,-1 0,0 0,0 0,0 0,0 0,0 0,-1 0,0 0,0 0,0 0,-1 0,-3 0,-4 0,0 0,0 0,0 0,-6 0,-11 0,-17 0,-75 0,-150 0,-226 0,0 0,0 0,-1 -1,-1 0,-3 0,-4z"/>
  </g>
 </g>
</svg>
