<?xml version="1.0" encoding="UTF-8"?>
<!DOCTYPE svg PUBLIC "-//W3C//DTD SVG 1.1//EN" "http://www.w3.org/Graphics/SVG/1.1/DTD/svg11.dtd">
<!-- Creator: CorelDRAW X7 -->
<svg xmlns="http://www.w3.org/2000/svg" xml:space="preserve" width="99.9897mm" height="51.2678mm" version="1.1" style="shape-rendering:geometricPrecision; text-rendering:geometricPrecision; image-rendering:optimizeQuality; fill-rule:evenodd; clip-rule:evenodd"
viewBox="0 0 2739 1404"
 xmlns:xlink="http://www.w3.org/1999/xlink">
 <defs>
  <style type="text/css">
   <![CDATA[
    .fil2 {fill:#00A0E3}
    .fil3 {fill:#FF7803}
    .fil1 {fill:#00A0E3;fill-rule:nonzero}
    .fil0 {fill:#FF7803;fill-rule:nonzero}
   ]]>
  </style>
 </defs>
 <g id="Layer_x0020_1">
  <metadata id="CorelCorpID_0Corel-Layer"/>
  <g id="_2582511233488">
   <g>
    <path class="fil0" d="M874 703l0 0c-6,0 -12,0 -17,0 -3,0 -6,0 -9,0 -1,1 -2,1 -3,2 0,0 -1,0 -2,0 -1,0 -1,0 -1,0 -3,0 -6,1 -8,1 -6,0 -11,1 -17,1 -23,4 -47,11 -69,20 -39,17 -72,40 -101,71 -3,4 -7,8 -11,11 -27,26 -50,55 -66,88 -24,46 -36,95 -37,146 0,20 1,40 3,60 3,23 9,46 16,69 19,50 46,93 80,128 34,35 71,61 111,78 31,15 64,24 98,26 7,0 14,0 21,0 15,-1 30,-3 46,-7 47,-11 89,-33 124,-67 9,-9 17,-18 26,-27 2,-2 4,-4 7,-6 23,-24 41,-51 55,-81 24,-51 37,-104 39,-160 1,-22 1,-43 -1,-65 -2,-23 -6,-46 -12,-68 -7,-29 -18,-56 -33,-82 -23,-39 -54,-71 -93,-94 -37,-22 -76,-35 -119,-40 -5,-1 -10,-1 -15,-2 -2,0 -5,0 -7,0 0,0 0,0 0,0 -2,0 -4,-1 -5,-2zm268 323l0 0c0,54 -8,104 -24,149 -9,28 -22,53 -39,77 -15,22 -33,40 -54,57 -27,20 -57,34 -90,41 -15,4 -31,6 -47,7 -5,0 -11,0 -16,0 -31,-2 -61,-9 -90,-22 -41,-18 -77,-44 -109,-77 -32,-33 -56,-70 -72,-114 -9,-23 -15,-48 -18,-73 -3,-18 -4,-37 -3,-55 1,-53 14,-102 39,-148 23,-43 55,-77 96,-104 30,-19 62,-32 97,-38 22,-4 44,-5 68,-4 30,2 60,8 89,19 66,26 113,70 142,134 10,22 17,45 22,69 3,15 6,30 7,45 2,15 2,28 2,37zm-272 -106l0 0c-8,-1 -16,0 -24,1 -22,4 -41,13 -58,28 -27,23 -41,52 -43,87 -1,30 7,56 24,80 18,26 43,44 73,54 14,5 28,6 43,5 5,0 9,-1 14,-2 26,-5 47,-18 63,-38 8,-9 14,-20 18,-31 5,-13 9,-25 10,-39 3,-22 2,-43 -5,-64 -11,-37 -35,-61 -71,-74 -14,-5 -29,-7 -44,-7zm-107 122l0 0c0,-19 5,-37 14,-53 2,-4 5,-7 9,-9 15,-9 31,-13 49,-14 14,0 27,1 41,6 35,11 56,33 65,68 6,27 5,54 -4,80 -2,7 -5,14 -9,21 -2,2 -4,4 -6,6 -9,4 -19,8 -28,10 -5,1 -10,1 -15,1 -10,0 -20,-1 -30,-4 -26,-9 -48,-24 -65,-47 -10,-13 -17,-29 -20,-46 0,-4 -1,-9 -1,-13 0,-2 0,-4 0,-6z"/>
    <path id="1" class="fil0" d="M1538 707l0 0c0,1 -1,2 -1,2 0,2 0,3 0,4 -1,2 -1,5 -1,7 0,3 0,6 0,8 -1,2 -1,4 -2,5 0,1 -2,1 -5,1 -1,0 -2,1 -4,1 -1,0 -3,0 -4,0 -3,1 -7,1 -11,1 -1,1 -2,2 -2,3 0,1 -1,1 -1,1 0,3 0,5 0,7 -1,10 -2,20 -2,30 -1,6 -1,11 -1,16 -1,7 -1,14 -2,21 -1,7 -1,15 -1,23 -1,1 -1,3 -1,4 0,5 0,9 -1,13 0,9 -1,17 -2,25 0,7 -1,13 -1,20 -1,5 -1,11 -1,16 -1,8 -2,17 -2,26 0,0 0,0 -1,1 0,4 0,9 -1,13 0,8 -1,16 -1,24 -1,7 -1,13 -1,20 -1,6 -2,11 -2,16 -1,9 -1,18 -2,27 0,4 0,8 -1,12 0,9 -1,17 -2,25 0,7 -1,13 -2,20 -1,10 -4,20 -9,29 -1,2 -3,4 -5,4 -1,1 -1,1 -2,1 -1,1 -2,1 -3,1 -14,4 -29,5 -43,3 -17,-4 -29,-12 -39,-26 -5,-7 -8,-14 -10,-22 -5,-17 -7,-33 -5,-50 0,-1 0,-3 0,-4 0,-4 0,-7 1,-11 0,-2 0,-5 0,-7 1,-9 2,-17 2,-27 0,-5 1,-10 2,-16 0,-7 0,-14 1,-21 1,-7 1,-14 1,-21 1,-5 1,-10 1,-15 1,-5 1,-11 2,-16 0,-2 0,-4 0,-6 0,-1 0,-3 0,-5 1,-8 2,-17 2,-26 1,-5 1,-9 2,-13 0,-9 1,-17 1,-25 1,-7 1,-14 2,-20 0,-5 1,-10 1,-16 1,-8 1,-17 2,-25 0,-6 1,-11 1,-16 1,-6 1,-13 2,-19 0,-2 0,-3 0,-5 0,0 -1,0 -1,0 0,-1 -1,-1 -1,-1 -1,0 -3,0 -4,-1 -5,0 -9,0 -12,0 -18,0 -35,0 -52,-1 -35,0 -69,0 -103,-1 -11,0 -23,0 -35,0 0,0 -1,0 -2,0 0,0 0,0 0,0 -1,0 -2,1 -2,1 -1,1 -1,1 -2,2 0,4 0,7 -1,10 0,2 0,3 0,5 0,2 0,5 0,7 0,3 -2,5 -4,5 -3,0 -5,0 -7,0 -2,-1 -4,-1 -6,-1 -3,0 -5,0 -8,1 0,0 -1,0 -2,0 0,1 0,1 0,2 -1,1 -1,2 -1,3 0,4 -1,8 -1,12 -1,7 -1,14 -2,21 0,5 0,10 -1,16 0,7 0,14 -1,21 0,2 -1,5 -1,8 0,4 0,8 -1,13 0,8 -1,17 -2,25 0,7 -1,13 -1,20 0,5 -1,10 -1,16 -1,7 -1,15 -2,22 0,2 0,4 0,5 -1,4 -1,8 -1,13 -1,8 -2,16 -2,24 0,4 -1,8 -1,13 0,7 -1,15 -2,22 -1,16 -2,31 -2,46 -1,33 1,65 6,97 4,23 10,47 18,69 11,33 28,63 50,90 29,37 67,62 112,76 24,7 49,11 74,12 5,0 10,0 15,0 3,0 6,0 9,0 17,0 33,-1 50,-3 19,-3 37,-8 55,-15 38,-14 70,-36 97,-66 2,-3 5,-6 9,-9 20,-19 38,-40 52,-63 17,-27 29,-56 37,-86 6,-20 10,-39 13,-59 2,-12 3,-24 5,-36 0,-7 1,-15 1,-22 0,-4 1,-8 1,-12 1,-8 1,-16 1,-23 1,-2 1,-4 1,-5 0,-4 1,-9 1,-13 1,-9 1,-16 2,-24 1,-7 1,-15 1,-22 1,-5 1,-10 1,-15 1,-4 1,-9 1,-14 1,-2 1,-5 1,-7 0,-3 0,-7 1,-10 0,-7 1,-14 1,-21 0,-5 1,-10 2,-15 0,-7 1,-14 1,-22 0,-5 1,-11 1,-17 1,-6 1,-13 1,-19 1,-11 2,-22 3,-33 1,-9 2,-19 2,-29 1,-10 2,-20 3,-30 0,-5 0,-10 1,-16 0,-2 0,-3 -1,-4 0,-1 -2,-1 -4,-1 -4,0 -9,1 -13,1 -4,1 -8,1 -13,2 -4,0 -8,1 -13,1 -5,1 -10,1 -14,1 -4,1 -8,1 -12,1 -7,1 -13,2 -20,3 -4,0 -7,0 -11,1 -5,0 -10,1 -15,1 -5,1 -10,1 -16,2 -3,0 -7,0 -11,1 -5,0 -10,1 -15,1 -2,0 -4,1 -6,1 -4,0 -7,1 -10,1 -8,1 -16,1 -23,2 -4,1 -8,1 -12,2 -2,0 -3,0 -5,0zm16 17l0 0c1,0 1,-1 2,-1 1,0 3,-1 4,-1 0,0 0,0 0,0 4,0 8,0 11,-1 5,0 10,-1 15,-1 6,-1 11,-1 17,-2 3,0 7,-1 10,-1 1,0 2,0 3,0 6,-1 12,-2 18,-2 4,-1 8,-1 12,-1 5,-1 10,-1 15,-2 5,0 11,-1 16,-1 3,-1 7,-1 11,-2 5,0 10,-1 15,-1 2,0 4,0 6,-1 2,0 3,0 4,0 5,0 9,-1 13,-2 1,0 3,0 4,0 0,0 0,0 0,0 1,0 2,1 2,1 1,1 1,1 1,2 0,2 0,4 -1,6 0,6 0,11 -1,17 -1,15 -2,30 -3,45 0,6 -1,13 -1,19 -1,6 -1,11 -2,17 -1,9 -1,19 -2,29 0,5 -1,10 -1,16 -1,7 -1,14 -1,21 -1,7 -2,15 -2,22 -1,5 -1,9 -1,14 -1,9 -2,17 -2,25 -1,5 -1,10 -1,15 -1,7 -1,14 -2,20 0,9 -1,17 -2,26 0,4 0,8 -1,13 0,4 0,8 -1,11 0,6 0,12 -1,17 0,3 0,6 -1,9 0,7 0,14 -1,21 -4,43 -15,85 -32,124 -12,29 -30,56 -51,79 -22,24 -47,42 -76,55 -17,7 -34,13 -52,16 -19,4 -39,6 -59,5 -3,0 -6,0 -9,0 -4,0 -9,0 -14,0 -24,0 -48,-4 -72,-12 -42,-13 -76,-37 -104,-72 -19,-24 -33,-50 -43,-78 -8,-23 -14,-46 -18,-69 -4,-28 -7,-56 -7,-84 0,-18 1,-36 3,-54 1,-7 1,-14 2,-22 0,-4 0,-7 0,-11 1,-9 2,-18 2,-27 1,-5 1,-9 1,-13 1,-3 1,-6 1,-9 1,-6 1,-13 2,-20 0,-5 0,-11 1,-16 0,-7 1,-14 1,-21 1,-7 1,-14 2,-21 0,-5 1,-10 1,-15 1,-10 1,-19 2,-29 1,-6 1,-11 1,-17 1,-5 1,-11 1,-16 0,0 0,0 0,0 0,-1 0,-2 1,-3 0,-1 0,-1 1,-2 0,0 0,0 1,0 1,0 2,0 3,0 2,0 4,0 6,0 14,0 28,0 43,0 15,1 31,1 47,1 12,0 24,0 37,0 10,0 20,1 30,1 2,0 4,0 6,0 1,0 2,0 2,0 1,0 1,0 1,0 0,1 0,1 1,1 0,1 0,1 0,1 0,0 0,1 0,2 0,1 0,2 0,3 0,0 0,0 0,1 -1,15 -2,31 -4,46 0,9 -1,18 -2,27 -1,12 -2,23 -3,34 0,7 0,13 -1,20 0,5 -1,11 -1,17 -1,8 -1,15 -2,23 0,4 -1,9 -1,14 0,0 0,1 0,2 -1,9 -1,17 -2,26 0,5 -1,11 -1,16 -1,6 -1,13 -1,20 -1,12 -2,24 -3,36 -2,16 -1,32 1,47 2,15 7,28 15,41 8,15 21,25 37,32 8,2 15,4 23,5 8,0 15,1 23,0 24,-2 43,-12 58,-30 10,-13 17,-27 21,-43 2,-9 3,-18 4,-28 0,-9 1,-17 2,-26 0,-4 0,-8 1,-12 0,-1 0,-3 0,-5 1,-8 1,-16 2,-24 0,-5 1,-11 1,-16 0,-7 1,-14 2,-21 0,-7 0,-14 1,-21 0,-5 1,-10 1,-14 1,-9 2,-18 2,-27 1,-4 1,-9 1,-15 1,-6 1,-13 2,-20 1,-8 1,-16 2,-25 0,-4 1,-9 1,-13 0,-2 0,-4 0,-6 1,-7 1,-14 2,-20 0,-6 0,-12 1,-17 0,-7 1,-13 1,-19 1,-9 1,-18 2,-27 0,0 0,-1 1,-1 0,0 0,-1 0,-1z"/>
    <path id="2" class="fil0" d="M1703 938l0 0c0,4 0,8 0,13 1,-1 2,-1 3,-1 2,0 3,-1 5,-1 11,-1 21,-1 32,-2 8,0 16,-1 24,-2 5,0 9,0 14,0 1,-1 1,-1 2,-1 0,0 1,0 2,0 13,-1 26,-2 39,-2 1,0 3,-1 4,-1 4,0 9,-1 14,-1 4,0 9,0 14,0 1,0 2,0 3,0 0,1 0,1 0,2 0,3 0,6 0,9 0,59 0,118 0,177 -1,56 -2,112 -2,168 0,23 -1,46 -1,68 0,4 0,7 0,11 0,1 1,2 3,2 9,1 18,2 28,2 5,1 11,1 16,1 2,0 4,0 5,0 4,1 8,1 12,1 6,1 13,1 19,1 10,1 21,1 32,2 1,0 2,0 3,0 0,0 1,0 2,0 0,0 1,0 1,0 4,1 9,1 13,1 11,0 21,1 32,2 6,0 12,0 18,1 1,0 1,0 2,0 0,0 1,0 1,0 2,0 4,0 5,0 11,1 22,1 32,2 2,0 4,-1 4,-4 0,-2 0,-4 -1,-7 0,-1 0,-3 0,-5 0,-3 0,-6 0,-9 0,0 0,0 0,0 0,-1 0,-3 0,-4 0,0 1,-1 1,-1 1,0 1,0 1,0 5,0 9,0 13,0 2,0 4,0 6,0 2,0 4,1 6,1 1,0 2,-1 2,-1 1,-1 1,-1 1,-2 0,-3 0,-5 0,-7 0,-3 0,-6 0,-8 -1,-4 -1,-8 -1,-12 -1,-20 -2,-40 -3,-61 0,-6 -1,-13 -1,-20 0,-12 -1,-25 -2,-37 0,-14 -1,-28 -2,-42 0,-14 -1,-28 -2,-42 0,-13 -1,-26 -2,-38 0,-2 0,-4 0,-6 -1,-24 -2,-49 -3,-74 -1,-25 -3,-51 -3,-76 0,-1 0,-1 0,-2 0,0 0,0 0,-1 0,0 0,-1 0,-2 1,0 1,-1 1,-1 1,0 2,0 2,0 1,0 2,0 3,0 8,-1 17,-1 25,-2 4,0 8,-1 11,-1 2,0 4,0 5,0 1,0 1,0 1,0 4,0 8,-1 11,-1 9,-1 17,-1 26,-2 7,-1 14,-1 21,-2 5,0 9,0 13,0 1,0 1,-1 2,-1 0,0 1,0 1,0 0,0 1,0 1,-1 1,0 1,-1 1,-1 0,-3 0,-5 0,-7 0,-2 0,-4 0,-6 0,-3 0,-6 0,-9 0,-2 1,-3 4,-3 3,0 7,-1 10,-1 4,0 7,-1 10,-1 2,0 3,0 4,-1 0,0 1,0 1,0 0,0 0,-1 0,-1 0,-2 0,-5 0,-7 0,-61 0,-123 0,-184 0,-2 0,-4 0,-6 0,-2 -1,-3 -2,-3 -1,0 -1,0 -2,0 -3,0 -7,1 -11,1 -3,0 -7,1 -12,1 -1,0 -3,1 -4,1 -7,1 -15,1 -23,2 0,0 -1,0 -1,0 -3,1 -6,1 -9,1 -6,1 -13,2 -19,2 -5,0 -10,1 -14,1 -5,0 -9,1 -13,1 -6,1 -11,1 -17,2 -1,0 -2,0 -4,0 -3,1 -6,1 -9,1 -6,1 -12,2 -18,2 -5,1 -9,1 -14,1 -5,1 -9,2 -13,2 -11,1 -22,2 -32,3 -1,0 -2,0 -3,0 -6,1 -11,1 -16,2 -3,0 -6,0 -8,1 -3,0 -6,0 -8,1 -7,0 -14,1 -20,2 -5,0 -10,0 -14,1 -5,0 -9,1 -13,1 -5,1 -10,1 -16,2 -1,0 -3,0 -4,0 -4,0 -7,1 -10,1 -6,1 -12,1 -18,2 -5,1 -10,1 -14,1 -5,1 -9,1 -13,1 -11,1 -21,2 -31,4 -2,0 -3,0 -4,0 -6,0 -11,1 -17,2 -3,0 -5,0 -8,1 -2,0 -5,0 -8,0 -6,1 -13,1 -19,2 -5,1 -11,1 -16,1 -4,1 -8,1 -12,1 -4,1 -9,2 -14,2 0,0 0,0 0,0 -1,0 -1,0 -2,0 0,0 -1,0 -1,0 -1,1 -1,1 -1,2 -1,0 -1,1 -1,1 0,2 0,4 0,7 0,2 -1,4 -1,6 0,2 0,5 0,8 0,2 -1,4 -4,4 -2,0 -5,0 -8,1 -4,0 -8,0 -12,1 -1,0 -2,0 -3,1 0,0 -1,0 -1,0 0,0 0,0 0,0 -1,3 -1,6 -1,8 -1,32 -1,64 -2,96 0,8 0,15 0,22 0,3 0,6 0,9 0,7 -1,14 -1,21 0,4 0,7 -1,10 -1,1 -1,1 -1,2 -1,0 -1,0 -1,1zm202 173l0 0c1,-13 1,-27 1,-40 0,-31 0,-62 0,-94 0,-20 0,-41 0,-61 0,-5 0,-11 0,-16 0,-2 0,-5 0,-8 0,0 0,0 -1,0 0,0 0,-1 0,-1 -2,0 -4,0 -5,0 -10,1 -20,2 -30,2 -2,1 -4,1 -6,1 -1,0 -1,0 -2,0 -1,0 -1,0 -2,0 -4,1 -8,1 -13,1 -8,1 -17,1 -25,2 -7,0 -14,1 -21,1 -6,1 -12,1 -17,2 -8,0 -15,1 -23,1 -2,0 -3,0 -5,1 -1,0 -2,-1 -2,-1 -1,-1 -1,-2 -1,-2 0,-3 0,-5 0,-7 1,-43 2,-86 3,-130 0,-1 0,-3 0,-5 0,0 0,-1 0,-1 1,-1 1,-1 1,-1 2,0 3,0 4,0 4,-1 8,-2 12,-2 6,-1 13,-1 20,-2 3,0 7,-1 10,-1 3,0 5,-1 8,-1 4,0 8,-1 13,-1 3,-1 8,-1 12,-1 5,-1 10,-1 14,-2 7,0 13,-1 20,-2 2,0 5,0 8,0 2,-1 5,-1 7,-1 6,-1 11,-1 17,-2 2,0 3,0 4,0 10,-1 21,-3 31,-4 5,0 11,0 16,-1 4,0 8,-1 11,-1 8,-1 17,-1 25,-2 11,-1 22,-2 33,-3 5,-1 11,-2 16,-2 4,0 7,-1 11,-1 1,0 3,-1 4,-1 6,0 11,-1 17,-2 4,0 8,0 12,-1 5,0 10,0 15,-1 5,0 11,-1 17,-1 4,-1 7,-1 11,-2 5,0 11,-1 17,-1 2,-1 5,-1 7,-1 3,-1 6,-1 10,-1 8,-1 16,-2 24,-3 5,0 11,-1 16,-1 4,-1 7,-1 11,-1 2,0 3,0 5,-1 1,0 2,0 3,0 1,0 2,0 2,0 2,-1 4,-1 6,-1 1,0 2,1 3,1 1,1 1,2 1,4 0,1 0,1 0,2 0,0 0,0 0,1 0,1 0,2 0,3 0,0 0,0 0,0 0,13 0,26 0,39 0,35 0,70 0,106 0,1 0,1 0,2 0,3 0,5 0,6 0,1 -1,2 -2,2 0,0 -2,1 -4,1 -1,0 -3,0 -4,0 -1,0 -3,0 -4,0 -4,1 -8,1 -12,1 -8,1 -16,2 -24,2 -9,1 -17,2 -26,2 -3,1 -7,1 -10,1 -1,0 -1,0 -2,0 0,0 -1,0 -2,0 -4,1 -8,1 -12,1 -8,0 -16,1 -24,2 -7,0 -14,1 -21,2 -2,0 -4,0 -6,0 -1,0 -1,0 -2,1 0,0 -1,1 -1,1 0,0 0,1 0,1 0,1 0,1 0,2 0,3 0,6 0,8 1,15 2,31 3,46 0,4 0,8 0,13 0,1 0,1 0,2 0,1 1,2 1,4 0,6 0,12 0,19 1,13 1,27 2,40 1,13 1,26 2,39 0,6 1,11 1,17 0,0 0,1 0,1 0,1 0,2 0,3 0,6 1,13 1,19 1,14 1,27 2,41 1,13 1,26 2,39 0,6 0,11 0,17 0,1 0,1 1,1 0,1 0,2 0,3 0,6 0,13 0,19 1,14 2,28 2,41 1,12 2,23 2,34 0,8 1,15 1,22 0,4 0,9 0,13 0,1 0,3 0,4 0,1 0,2 0,3 0,2 -1,3 -3,3 -3,0 -6,0 -10,0 0,0 0,0 -1,0 -3,-1 -6,-1 -8,-1 -3,0 -6,0 -9,0 -4,-1 -9,-1 -13,-1 -3,0 -6,0 -9,-1 -1,0 -1,0 -2,0 0,0 -1,0 -2,0 -5,0 -11,0 -16,-1 -12,0 -24,-1 -35,-2 -10,0 -20,-1 -30,-1 -7,0 -14,-1 -20,-2 -4,0 -7,0 -11,0 -2,0 -4,0 -5,0 -1,0 -2,0 -4,0 -2,0 -5,-1 -8,-1 -2,0 -4,0 -4,-1 -1,-1 -1,-3 -1,-5 0,-7 0,-15 0,-22 0,-9 0,-17 1,-25 0,-34 0,-66 1,-99 0,-16 0,-32 0,-48 0,-7 0,-14 0,-21 0,0 0,0 0,0z"/>
    <path id="3" class="fil0" d="M2463 918l0 0c-1,-1 -1,-2 -2,-3 0,0 0,-1 0,-2 0,-1 0,-1 0,-1 0,-9 0,-19 1,-28 0,-28 0,-56 1,-84 0,-33 1,-66 1,-99 0,-2 0,-5 0,-8 0,0 0,-1 -1,-1 0,-1 -1,-1 -1,-1 0,0 0,0 -1,0 0,0 -1,-1 -2,-1 -1,1 -3,1 -4,1 -6,0 -12,0 -17,0 -8,1 -16,2 -23,2 -9,0 -18,1 -27,1 -11,1 -23,2 -35,2 -5,1 -10,1 -16,1 0,0 -1,0 -1,0 -1,0 -1,0 -2,0 -4,0 -9,1 -14,1 -13,1 -26,1 -39,2 -7,0 -14,1 -20,1 -7,0 -13,1 -20,1 -1,0 -2,0 -2,0 -1,1 -1,1 -1,1 0,0 0,1 -1,1 0,1 0,2 0,3 0,2 0,5 0,8 0,1 0,3 0,4 0,0 0,1 0,1 0,2 0,4 0,6 0,3 -1,4 -4,4 -1,0 -1,0 -2,0 0,0 -1,0 -1,0 -1,0 -3,1 -4,1 -5,0 -10,0 -15,1 -2,0 -3,1 -3,2 0,4 0,8 0,12 0,19 0,39 0,58 0,36 1,73 1,109 1,60 1,120 2,180 0,25 0,50 0,75 0,4 0,9 0,13 0,8 -1,15 -1,23 -1,28 0,56 2,85 0,2 0,5 0,8 0,8 1,15 1,23 0,1 0,2 0,3 1,5 1,12 2,18 0,0 0,1 0,1 0,1 0,1 0,2 1,0 1,1 1,1 2,1 4,2 7,2 0,0 0,0 0,0 5,0 10,1 14,1 5,0 11,1 16,1 9,1 17,2 26,2 4,1 9,1 13,2 5,0 11,1 17,1 5,1 10,1 15,2 5,0 10,0 15,1 6,0 11,1 16,2 4,0 9,0 13,1 8,1 17,1 25,2 3,0 6,0 8,0 3,0 4,-1 4,-3 0,-3 0,-5 0,-8 0,0 0,-1 0,-1 0,-2 0,-4 0,-6 0,-3 1,-6 1,-9 0,-3 1,-4 4,-4 2,1 3,1 5,1 4,0 8,1 12,1 3,1 6,0 7,-1 0,-1 1,-3 1,-6 0,-3 0,-6 0,-9 0,0 0,-1 0,-2 0,-4 0,-8 0,-12 0,-10 1,-20 1,-29 0,-19 1,-38 1,-57 1,-19 1,-39 1,-58 1,-7 1,-14 1,-20 0,-5 0,-10 0,-14 0,-3 1,-6 1,-9 0,-1 0,-1 1,-2 0,0 1,-1 2,-1 0,0 1,0 2,0 3,1 5,1 8,2 4,0 9,1 14,2 9,1 19,3 28,4 3,0 5,1 7,1 1,1 2,2 2,3 0,1 0,3 0,5 0,1 0,2 0,2 0,14 -1,27 -1,41 -1,6 -1,12 -1,17 0,0 0,0 0,0 0,0 0,1 0,1 -1,6 -1,12 -1,18 -1,13 -2,27 -2,40 -1,13 -2,26 -2,39 0,7 0,14 -1,21 0,1 0,3 0,3 0,1 0,2 0,4 -1,10 -1,20 -2,30 0,1 0,2 1,2 0,1 0,1 0,1 0,1 0,1 0,2 1,0 2,1 2,1 1,0 1,0 2,0 2,0 4,0 5,0 3,1 6,1 8,1 3,0 7,0 10,0 6,1 12,1 19,2 8,0 15,1 23,1 10,1 20,1 30,2 5,0 10,1 14,1 1,0 2,0 3,0 0,0 1,0 1,0 2,0 5,0 7,1 12,0 25,1 37,2 7,0 14,1 21,1 0,0 0,0 1,0 3,0 6,1 9,1 2,0 3,0 4,-1 1,-1 1,-2 1,-4 0,-3 0,-6 0,-9 0,-1 0,-3 0,-4 0,-1 0,-1 0,-2 0,-2 1,-4 1,-6 0,-1 0,-2 0,-3 0,0 1,0 1,0 0,-1 0,-1 0,-1 2,0 3,-1 4,-1 4,1 7,1 11,1 3,0 6,0 9,0 2,0 3,0 3,-2 0,-1 0,-3 0,-4 0,-4 1,-9 1,-13 1,-26 1,-51 2,-76 1,-24 1,-48 1,-71 1,-12 1,-24 1,-36 0,-1 0,-2 0,-3 0,-1 1,-2 1,-3 0,-8 0,-16 0,-23 1,-31 2,-61 3,-92 0,-4 0,-8 0,-12 0,-5 0,-9 0,-14 1,-15 1,-30 2,-44 0,-18 0,-35 1,-52 1,-21 1,-43 2,-64 0,-17 1,-34 1,-51 0,-18 1,-36 2,-54 0,-6 0,-13 0,-20 0,-3 0,-6 0,-9 0,-1 0,-2 1,-3 0,-2 0,-4 0,-6 0,-3 -2,-4 -4,-4 -1,0 -2,0 -3,0 -6,-1 -13,-1 -20,-2 -8,0 -16,-1 -24,-2 -4,0 -8,0 -13,-1 0,0 -1,0 -2,0 0,0 -1,0 -2,0 -3,0 -7,0 -10,-1 -9,0 -17,-1 -26,-2 -7,0 -14,-1 -21,-1 -5,0 -11,-1 -16,-1 -9,-1 -18,-1 -26,-2 -5,0 -9,-1 -14,-1 -8,-1 -16,-1 -24,-2 -2,0 -3,0 -4,0 -5,-1 -8,-1 -8,0 -1,1 -1,4 -1,8 0,1 0,3 0,5 0,3 0,6 0,9 0,1 1,3 1,5 0,1 -1,2 -1,2 0,1 -1,1 -2,1 0,0 0,0 -1,0 0,0 -1,0 -1,0 -6,0 -12,0 -18,-1 0,0 -1,0 -1,0 -1,0 -1,0 -1,0 -1,0 -1,0 -2,0 -2,0 -4,1 -4,4 0,1 0,2 1,3 0,1 0,1 0,1 0,7 0,13 1,20 0,14 1,28 1,42 1,19 2,39 2,58 1,8 1,16 1,25 0,1 0,2 0,3 0,2 0,3 0,5 1,20 1,39 2,59 0,1 0,3 0,4 0,1 0,1 0,2 0,0 0,0 0,1 0,0 0,0 0,1 -1,1 -2,2 -3,2 -6,0 -12,-1 -18,-1 -3,-1 -6,-2 -9,-2 -1,0 -3,-1 -4,-1 -1,0 -2,0 -2,0zm256 -223l0 0c1,0 1,1 1,2 1,1 1,2 1,2 0,1 0,1 0,1 -1,11 -1,22 -1,33 -1,17 -1,33 -2,50 0,25 -1,50 -2,75 0,10 0,19 0,28 -1,1 -1,2 -1,2 0,1 0,2 0,2 0,11 0,22 0,32 -1,24 -2,48 -2,71 -1,24 -2,49 -2,74 0,10 -1,21 -1,32 0,1 0,1 0,2 0,0 0,1 0,2 0,11 -1,22 -1,33 -1,24 -1,49 -2,73 -1,30 -1,60 -2,89 0,4 -1,8 -1,12 0,1 0,2 0,3 0,1 0,2 -1,2 0,1 -1,1 -1,1 -1,0 -2,0 -3,-1 -7,0 -13,0 -20,0 -3,-1 -7,-1 -10,-1 -3,0 -5,0 -7,-1 -10,0 -20,-1 -30,-1 -6,-1 -11,-1 -17,-1 -1,0 -1,0 -1,0 -1,0 -1,0 -2,0 -4,-1 -9,-1 -13,-1 -10,-1 -20,-2 -30,-2 -7,-1 -13,-1 -19,-1 -2,-1 -4,-1 -6,-1 0,0 -1,-1 -1,-1 -1,-1 -1,-1 -1,-1 0,-1 0,-1 0,-1 0,-3 0,-7 0,-9 0,-6 1,-11 1,-16 0,-3 0,-6 0,-9 1,-13 2,-25 2,-38 0,-9 1,-17 1,-25 0,-1 0,-1 0,-2 0,0 0,-1 1,-2 0,-6 0,-13 0,-19 1,-14 1,-28 2,-41 1,-13 1,-26 2,-39 0,-6 1,-11 1,-17 0,-1 0,-1 0,-1 0,-1 0,-2 0,-3 0,-2 -1,-3 -3,-4 0,0 -1,0 -1,0 -1,0 -3,-1 -4,-1 -8,-1 -17,-3 -26,-4 -13,-2 -26,-4 -39,-6 -8,-1 -16,-2 -23,-3 -6,-1 -12,-3 -19,-4 -2,0 -5,0 -8,-1 -1,0 -2,0 -3,0 0,0 -1,0 -2,1 0,0 0,1 0,1 0,1 0,1 0,1 -1,1 -1,2 -1,3 0,3 0,7 0,10 0,9 0,19 -1,28 0,22 -1,44 -1,66 0,18 -1,35 -1,54 -1,19 -1,38 -1,58 -1,7 -1,14 -1,21 0,0 0,0 0,0 0,2 0,5 0,7 0,2 -1,3 -2,4 0,1 -2,1 -4,1 -5,0 -10,-1 -15,-2 -6,0 -11,0 -16,-1 -3,0 -7,-1 -11,-1 -6,-1 -13,-1 -20,-1 -4,-1 -8,-1 -12,-1 -6,-1 -12,-2 -19,-2 -5,-1 -11,-1 -17,-2 -4,0 -8,0 -12,-1 -5,0 -9,-1 -14,-1 -4,-1 -7,-1 -10,-1 0,0 -1,0 -1,0 -1,0 -1,0 -2,-1 0,0 -1,0 -1,0 -1,-1 -1,-1 -1,-2 0,-2 0,-4 -1,-6 -2,-32 -3,-64 -3,-96 0,-3 0,-6 0,-8 0,-27 1,-54 0,-81 0,-10 0,-19 0,-29 0,-12 0,-23 0,-35 0,-6 0,-12 0,-19 0,-18 0,-37 0,-55 -1,-38 -1,-76 -1,-114 -1,-27 -1,-53 -1,-79 0,-16 0,-32 -1,-48 0,-2 1,-5 1,-8 0,0 0,0 0,0 0,0 0,0 1,0 1,-1 2,-1 4,-1 6,-1 11,-1 17,-1 8,-1 15,-1 22,-1 12,-1 23,-2 35,-2 4,-1 9,-1 14,-1 0,0 1,0 1,0 1,0 1,0 2,0 6,-1 12,-1 17,-1 12,-1 23,-1 35,-2 6,0 11,0 17,-1 7,0 14,0 20,-1 2,0 3,0 5,0 0,0 0,0 1,1 0,0 0,0 0,1 1,1 1,3 1,5 -1,20 -1,40 -1,60 0,10 0,19 -1,29 0,17 0,34 0,52 -1,16 -1,32 -1,49 0,2 0,5 0,8 0,5 0,9 0,14 0,1 0,2 0,4 0,0 0,0 1,0 0,1 0,1 0,1 1,0 1,0 1,0 3,1 5,1 7,2 7,1 14,1 21,2 10,1 20,3 30,4 8,1 15,2 23,2 2,0 5,0 8,0 4,-1 7,-3 8,-7 1,-3 1,-7 2,-10 0,-3 0,-7 0,-10 0,-1 0,-1 0,-1 0,-32 0,-64 -1,-96 0,-3 0,-6 0,-8 0,0 0,0 0,-1 -1,-8 -1,-16 -1,-24 -1,-19 -1,-38 -2,-57 0,-8 -1,-16 -1,-24 0,-6 0,-11 -1,-17 0,-2 1,-3 1,-5 0,0 0,-1 0,-1 0,0 1,0 1,0 1,-1 1,-1 2,0 0,0 1,0 1,0 2,0 5,0 7,0 7,0 13,1 19,1 5,1 11,1 16,2 10,0 19,1 27,1 6,1 11,1 16,1 7,1 14,2 22,2 7,1 14,1 20,2 6,0 11,1 16,1 5,0 9,1 14,1 6,0 12,1 18,2z"/>
    <path class="fil1" d="M353 0l0 0c-1,0 -1,0 -1,0 -1,0 -1,1 -2,1 0,0 -1,0 -1,0 -1,0 -1,0 -1,0 -2,0 -5,1 -8,1 -4,1 -9,1 -13,2 -5,1 -10,1 -15,2 -6,1 -12,1 -18,2 -6,1 -13,2 -20,3 -4,0 -8,0 -12,1 -2,0 -4,0 -7,1 -1,0 -2,0 -4,0 -1,0 -3,1 -5,1 -6,1 -12,2 -18,2 -3,1 -6,1 -10,1 -4,1 -8,1 -12,2 -3,0 -7,1 -10,2 -5,0 -9,1 -13,2 -3,0 -6,1 -8,1 -4,1 -8,2 -12,2 -8,2 -16,3 -24,4 -17,4 -33,6 -50,8 -2,1 -4,1 -5,1 -1,0 -2,1 -2,1 -2,0 -3,0 -3,2 0,1 0,3 0,5 0,1 0,2 0,3 0,2 0,3 0,4 0,0 0,1 0,1 -1,0 -1,0 -1,0 -1,1 -1,1 -2,1 -2,0 -4,0 -6,1 -3,0 -6,1 -8,1 0,0 0,1 0,1 -1,0 -1,1 -1,1 0,1 0,3 0,4 0,6 0,12 0,18 0,8 0,16 0,24 0,5 0,10 0,14 0,16 0,32 0,49 0,10 -1,21 -1,31 0,13 0,25 0,38 0,39 -1,78 -2,118 0,5 0,11 0,17 0,14 1,29 2,43 0,3 0,5 1,7 0,1 0,1 0,1 0,2 1,2 2,2 2,0 4,0 6,0 84,0 168,0 251,0 1,0 1,0 1,0 2,0 3,0 5,0 1,0 1,0 1,0 1,0 1,0 1,0 1,-1 1,-1 1,-1 0,-1 0,-2 0,-3 0,-1 0,-3 1,-4 0,-1 0,-2 0,-4 0,-1 0,-2 0,-3 0,-2 1,-3 2,-3 1,0 2,0 3,0 2,0 3,0 4,0 2,0 4,0 6,0 1,0 2,-1 2,-2 0,-3 1,-7 1,-10 0,-4 1,-8 1,-12 0,-4 0,-7 1,-11 0,-3 0,-7 0,-11 1,-4 1,-8 1,-11 1,-5 1,-9 1,-13 0,-3 1,-6 1,-9 1,-5 1,-11 1,-16 1,-4 1,-8 1,-12 0,-3 1,-6 1,-9 0,-1 0,-1 0,-2 0,-2 -1,-3 -2,-3 -2,0 -3,1 -4,1 0,0 0,0 0,0 -5,0 -9,0 -13,0 -9,1 -18,1 -27,1 -9,1 -18,1 -27,2 -4,0 -8,0 -12,0 0,0 -1,0 -1,0 0,0 -1,0 -1,0 -5,0 -10,1 -15,1 -9,0 -18,1 -28,1 -2,0 -4,0 -6,0 -3,0 -6,0 -9,1 -2,0 -3,0 -5,0 -1,0 -1,-1 -1,-1 -1,0 -1,-1 -1,-1 0,0 0,0 0,0 0,-1 0,-1 0,-1 0,-1 0,-2 0,-3 0,-5 1,-10 1,-15 0,-2 0,-3 1,-3 0,-1 1,-1 2,-1 2,0 3,0 4,0 0,0 1,0 1,0 6,0 12,0 18,0 16,0 32,0 48,0 2,0 4,0 6,0 1,0 2,-1 2,-2 0,-2 0,-4 0,-5 0,-1 0,-1 0,-2 0,-1 0,-1 0,-2 0,-2 0,-3 0,-5 0,-1 1,-2 2,-2 1,0 3,0 4,0 0,0 1,0 1,0 1,0 2,0 3,0 2,0 4,0 6,0 0,0 1,0 1,-1 1,0 1,-1 1,-1 0,-1 0,-2 0,-3 0,-26 0,-52 0,-79 0,-1 0,-1 0,-2 0,0 0,0 0,0 0,-1 0,-1 -1,-1 0,-1 0,-1 -1,-1 0,0 0,0 0,0 -1,0 -2,0 -3,0 -7,0 -15,0 -22,-1 -17,0 -35,0 -52,0 -1,0 -2,0 -3,0 -3,0 -6,0 -9,-1 0,0 0,0 0,-1 0,0 0,-1 0,-3 0,-2 0,-4 0,-8 0,0 0,-1 0,-2 0,0 0,0 0,-1 0,0 0,0 0,0 2,0 4,-1 6,-1 0,0 0,0 1,0 6,0 12,-1 18,-1 1,0 1,0 2,0 4,0 8,-1 11,-1 5,0 9,-1 13,-1 6,0 12,-1 18,-1 3,0 6,-1 9,-1 5,0 9,-1 14,-1 8,0 16,-1 24,-1 3,0 4,-1 5,-1 0,-1 0,-2 0,-4 0,-1 0,-2 0,-3 0,-2 0,-4 0,-5 0,-1 0,-2 0,-3 0,-1 0,-1 1,-1 0,0 0,-1 1,-1 3,0 7,0 10,-1 1,0 2,0 3,0 0,0 1,0 2,0 0,0 0,0 1,0 0,-1 0,-1 0,-1 0,-1 0,-1 0,-1 0,-2 0,-3 0,-5 0,-32 0,-63 0,-95 0,-3 0,-7 0,-10 0,0 0,-1 0,-1 0,-1 0,-2 0,-3 0,-1 0,-1 0,-2 0,0 0,-1 0,-1zm-11 13l0 0c0,0 0,1 0,1 0,0 0,0 0,1 0,1 0,2 0,3 0,29 0,58 0,86 0,1 0,2 0,3 0,0 0,0 0,0 0,1 0,1 0,1 -1,1 -1,1 -1,1 -1,0 -2,0 -3,0 -2,0 -4,1 -6,1 -4,0 -8,0 -12,1 -4,0 -7,0 -11,0 -6,1 -12,1 -18,1 -3,1 -5,1 -8,1 -1,0 -1,0 -1,0 -1,0 -1,0 -2,0 -3,1 -5,1 -8,1 -6,0 -11,0 -17,1 -4,0 -8,1 -12,1 -4,0 -7,0 -11,1 -5,0 -10,0 -15,1 -3,0 -5,0 -7,0 0,0 -1,0 -1,0 -1,0 -2,0 -3,1 -1,0 -2,0 -2,2 0,1 0,3 0,4 -1,14 -1,27 -2,41 0,2 0,3 0,5 0,0 1,1 1,1 0,0 1,0 2,0 0,1 2,1 3,1 3,0 6,0 9,0 17,0 35,0 53,0 4,1 8,1 11,1 3,0 5,0 8,0 1,0 2,0 3,0 0,0 0,0 0,0 1,0 1,0 1,0 1,0 1,1 1,1 0,0 0,0 0,1 0,1 0,1 0,2 0,19 0,38 0,57 0,1 0,3 0,4 0,0 0,0 -1,0 0,0 0,0 0,1 0,0 -1,0 -2,0 -1,0 -3,0 -5,0 -9,0 -17,0 -26,0 -19,0 -38,0 -57,0 -2,0 -4,0 -5,0 -1,0 -1,0 -1,0 0,0 -1,0 -1,0 0,1 0,1 0,1 0,0 0,0 0,0 -1,1 -1,2 -1,3 0,1 0,2 0,3 0,3 0,6 0,10 -1,13 -2,25 -2,38 0,2 0,4 0,5 0,1 0,2 0,3 0,1 0,1 0,2 1,0 1,0 2,0 0,0 1,0 1,0 1,0 2,0 4,0 4,0 8,0 12,-1 10,0 20,-1 30,-1 4,0 7,0 10,0 1,0 2,0 2,0 1,-1 2,-1 3,-1 2,0 5,0 7,0 6,0 12,0 17,-1 6,0 12,0 18,-1 7,0 14,0 21,0 4,0 7,-1 10,-1 3,0 6,0 8,0 0,0 1,0 1,0 2,0 4,0 5,0 0,1 0,3 0,5 0,0 0,0 0,1 -1,7 -1,13 -2,20 0,10 -1,19 -2,29 0,4 0,8 -1,13 0,3 0,5 0,9 -1,6 -1,12 -2,18 0,0 0,0 0,1 0,0 0,0 0,0 0,1 0,1 -1,1 0,1 0,1 -1,1 0,0 -1,0 -2,0 -1,0 -2,0 -4,0 0,0 0,0 0,0 -5,0 -11,0 -17,0 -71,0 -143,0 -215,0 -2,0 -4,0 -6,0 0,0 0,0 0,0 -1,0 -1,0 -1,-1 -1,0 -1,0 -1,-1 0,0 0,0 0,0 0,0 0,-1 0,-1 -1,-13 -2,-26 -2,-38 0,-14 0,-28 1,-41 1,-17 1,-33 1,-49 0,-3 0,-6 0,-9 0,-10 0,-20 0,-30 0,-17 0,-33 1,-50 0,-19 0,-39 0,-58 0,-4 0,-8 0,-11 0,-12 0,-23 0,-35 0,-6 0,-12 0,-18 0,-1 0,-3 0,-4 0,-1 1,-2 2,-2 1,0 1,0 2,0 2,-1 5,-1 7,-1 11,-2 22,-3 33,-6 10,-1 20,-3 30,-5 3,0 6,-1 9,-1 7,-2 13,-3 19,-4 6,-1 11,-2 16,-2 2,0 3,-1 5,-1 5,-1 11,-1 16,-2 3,0 5,-1 8,-1 2,0 4,0 6,-1 2,0 4,0 5,-1 3,0 5,0 7,0 7,-1 13,-2 20,-3 3,0 7,-1 11,-1 4,0 8,-1 12,-2 4,0 9,-1 13,-1 3,-1 6,-1 10,-2 6,0 13,-1 19,-2 0,0 1,0 1,0 0,0 0,0 1,0z"/>
    <path id="1" class="fil1" d="M651 337l0 0c1,2 1,5 2,6 1,7 2,13 4,19 2,12 4,24 7,37 0,2 1,3 1,4 1,1 1,1 2,1 0,0 1,0 3,0 0,0 1,-1 2,-1 35,-12 70,-24 105,-36 0,0 1,0 2,0 1,-1 2,-1 3,-1 0,-1 0,-1 1,-2 0,-1 0,-2 0,-4 0,0 0,0 -1,-1 0,0 0,0 0,-1 0,-1 0,-3 1,-4 3,-2 5,-3 8,-3 3,-1 6,-3 9,-4 1,0 1,0 1,0 0,-1 0,-1 0,-2 0,-2 0,-5 -1,-7 -1,-10 -2,-20 -3,-30 -3,-13 -5,-26 -7,-39 -3,-12 -5,-25 -8,-38 0,0 0,0 0,0 -3,-18 -7,-37 -12,-55 -10,-39 -21,-77 -34,-115 -6,-17 -12,-34 -19,-50 -1,0 -1,-1 -1,-1 0,0 0,-1 0,-1 -1,-1 -1,-1 -2,-1 -2,-1 -3,0 -5,0 -1,0 -2,0 -3,0 -15,3 -30,6 -45,9 -20,4 -40,9 -60,13 -4,1 -10,2 -15,3 -2,1 -4,1 -6,2 -1,0 -2,0 -3,0 0,1 -1,1 -1,2 0,0 0,1 0,1 0,0 0,1 0,1 0,1 0,2 0,3 0,2 0,4 0,6 -1,1 -1,2 -2,2 -2,1 -3,1 -5,1 -2,1 -5,1 -7,2 0,0 0,0 0,0 -1,0 -1,0 -2,0 -1,1 -1,1 -2,1 0,1 0,1 0,1 0,1 0,2 0,3 0,6 -1,13 -1,19 0,9 0,18 0,27 -1,4 -1,8 -1,13 0,0 0,1 0,2 0,1 0,1 0,2 0,0 0,0 0,0 -1,0 -1,0 -1,0 0,0 0,0 0,1 0,0 0,0 0,0 0,0 0,0 0,-1 0,0 0,0 0,0 0,0 -1,0 -1,0 0,-1 -1,-2 -1,-3 0,-1 -1,-3 -1,-4 -2,-4 -3,-8 -4,-12 -4,-11 -8,-22 -12,-33 -2,-7 -4,-14 -6,-21 -1,-1 -1,-2 -2,-3 0,0 -1,0 -3,0 0,0 -1,0 -1,0 -2,0 -3,0 -5,1 -3,0 -6,0 -9,0 -4,0 -8,1 -12,1 -5,0 -11,1 -16,1 -3,1 -6,1 -9,1 -4,1 -8,1 -12,1 -2,0 -5,1 -7,1 -4,0 -8,0 -12,1 -11,1 -22,2 -32,3 -5,0 -10,1 -15,2 -2,0 -4,0 -5,1 -2,0 -2,0 -2,1 -1,2 -1,3 -1,5 0,1 0,1 0,2 -1,1 -1,1 -1,2 0,1 0,3 0,4 0,1 -1,2 -2,2 -1,0 -2,0 -3,0 0,0 0,0 0,0 -2,1 -3,1 -5,1 -1,0 -3,1 -5,1 -1,0 -2,1 -2,2 -1,6 -1,13 -2,20 0,0 0,1 0,2 -1,2 -1,5 -1,8 -1,12 -1,24 -1,37 -1,2 -1,4 -1,6 0,2 0,4 0,6 0,25 0,49 1,74 0,2 0,5 0,7 0,2 0,4 0,5 0,3 0,6 1,8 0,8 0,16 1,24 0,7 1,14 1,22 1,4 1,8 1,13 1,0 1,1 1,2 0,4 1,9 1,13 0,2 0,4 1,6 0,1 0,3 0,5 0,4 1,7 1,11 1,8 2,15 2,23 1,1 1,2 1,4 0,2 0,4 1,6 0,6 1,12 2,18 1,9 2,18 3,27 1,2 1,3 1,5 0,2 1,4 1,6 0,0 1,1 1,1 0,1 0,1 0,1 1,1 1,1 2,1 1,0 3,0 4,0 1,0 2,-1 3,-1 2,0 3,0 5,0 3,0 7,0 11,-1 3,0 7,0 11,-1 6,0 11,0 17,-1 3,0 6,0 9,0 4,-1 9,-1 14,-2 5,0 9,0 14,-1 3,0 6,0 9,0 5,0 10,-1 14,-1 3,0 5,-1 8,-1 1,0 1,0 2,0 0,0 1,0 1,-1 0,0 0,0 0,-1 0,-2 0,-5 0,-7 0,-1 0,-2 -1,-3 0,-1 0,-2 0,-3 0,-1 1,-2 2,-2 1,0 2,0 4,0 1,0 2,0 3,0 1,0 2,0 3,-1 2,0 4,0 6,0 0,0 1,0 1,-1 1,0 1,-1 0,-1 0,-1 0,-2 0,-2 0,-4 0,-7 -1,-10 0,-7 -1,-13 -2,-19 0,-3 0,-6 0,-8 0,-1 0,-2 0,-2 0,0 0,-1 0,-1 0,0 0,0 0,0 0,0 0,0 0,0 0,0 0,0 1,0 0,0 0,0 0,0 0,1 0,2 1,2 3,9 6,17 9,25 2,6 4,11 5,16 1,3 3,7 4,10 1,1 1,1 2,1 1,0 1,0 2,0 3,0 6,-1 10,-2 21,-3 43,-7 65,-11 1,-1 3,-1 5,-2 1,0 1,0 1,0 0,0 0,-1 0,-1 0,0 1,-1 1,-2 0,0 0,0 0,0 0,-2 0,-3 0,-4 0,-1 0,-3 0,-5 0,-1 0,-2 1,-2 0,-1 1,-1 2,-1 2,0 4,-1 6,-1 1,0 2,-1 3,-1 0,0 0,0 0,0 2,0 4,0 5,-1 1,-1 1,-3 1,-4 0,0 0,-1 0,-1 0,-1 0,-2 0,-4 0,0 0,-1 0,-1 0,-1 0,-1 0,-2 0,-1 0,-2 1,-4 0,-1 0,-2 0,-3 0,0 0,-1 0,-2 0,-1 0,-3 0,-4 0,-2 0,-3 0,-4 0,0 0,-1 0,-2 0,0 0,-1 0,-1 0,-1 0,-3 0,-4 1,-1 1,-2 1,-3 0,-1 0,-1 0,-2 0,-1 0,-1 0,-2 0,-1 0,-2 0,-3 0,-1 0,-1 0,-1 0,-2 0,-3 1,-5zm-239 71l0 0c-1,-3 -1,-6 -2,-10 0,-2 0,-3 0,-4 -1,-8 -2,-16 -3,-24 -1,-7 -2,-13 -3,-19 0,-2 0,-4 0,-6 -1,-5 -1,-11 -2,-16 0,-1 0,-2 0,-3 -1,-4 -1,-7 -1,-11 -1,-7 -2,-15 -2,-23 0,-3 -1,-6 -1,-9 0,-2 0,-4 -1,-6 0,-4 0,-9 -1,-14 0,-7 -1,-14 -1,-21 -1,-18 -2,-36 -2,-54 0,-24 0,-47 1,-71 0,-9 0,-18 1,-27 0,-3 1,-6 1,-9 0,-1 0,-2 0,-4 0,-2 1,-4 1,-7 0,0 0,-1 0,-1 0,0 0,-1 0,-1 2,-1 4,-1 6,-1 0,0 0,0 0,0 2,-1 5,-1 7,-1 8,-1 16,-2 24,-3 4,0 8,0 12,-1 3,0 5,0 7,0 4,-1 7,-1 11,-1 3,-1 6,-1 9,-1 6,0 11,-1 17,-1 4,-1 8,-1 11,-1 4,0 7,-1 10,-1 1,0 3,0 4,0 1,-1 3,-1 4,-1 1,0 2,1 2,2 1,2 2,4 2,5 10,32 21,63 33,94 7,19 14,38 23,57 0,1 0,2 1,3 0,0 0,0 0,0 0,0 0,0 0,0 1,0 1,0 1,0 0,0 0,0 0,0 0,0 0,0 0,0 0,0 0,0 0,0 0,0 0,-1 0,-1 0,0 0,-1 0,-1 1,-4 1,-7 1,-10 0,-12 1,-24 1,-36 0,-7 0,-14 0,-21 1,-11 1,-22 2,-33 0,-13 0,-27 1,-40 0,-6 0,-12 0,-17 0,-1 0,-2 0,-3 0,-3 1,-6 1,-9 0,-1 0,-2 2,-2 4,-1 8,-2 12,-3 4,-1 9,-2 14,-3 14,-3 29,-6 43,-9 16,-4 32,-7 48,-9 0,-1 0,-1 0,-1 1,0 1,0 1,0 0,1 1,1 1,1 0,0 0,0 0,0 1,1 2,3 2,4 6,12 10,24 15,37 12,37 24,75 34,114 5,20 9,39 13,59 3,15 6,30 9,45 1,10 3,19 4,29 1,1 1,2 1,3 1,5 1,10 2,16 0,2 1,3 1,5 0,2 0,3 0,4 1,2 0,3 0,3 0,1 -1,1 -3,2 -19,6 -39,13 -58,19 -8,3 -16,6 -24,9 -3,0 -5,1 -8,2 0,0 0,0 0,0 -1,1 -1,1 -2,1 -1,0 -1,0 -2,0 0,0 -1,-1 -1,-1 0,0 0,0 0,0 0,0 0,-1 0,-1 -3,-15 -6,-31 -9,-46 -2,-10 -4,-19 -6,-29 -1,-7 -3,-13 -4,-20 -1,-4 -2,-8 -3,-12 -3,-14 -5,-28 -8,-42 -4,-17 -7,-34 -11,-51 0,-1 0,-1 0,-1 0,-1 0,-1 0,-1 0,0 0,0 0,0 0,0 0,0 0,0 0,0 -1,0 -1,0 0,0 0,0 0,0 0,1 0,1 0,1 0,0 0,0 0,0 0,1 -1,2 -1,3 0,6 0,13 -1,19 0,5 0,9 0,13 -1,6 -1,13 -1,19 -1,7 -1,15 -2,23 0,3 0,6 0,9 0,0 0,1 0,1 0,1 0,1 0,2 0,3 -1,7 -1,10 0,8 0,15 -1,22 0,7 -1,14 -1,21 0,3 0,6 -1,9 0,1 0,1 0,1 0,1 0,1 0,2 0,4 0,7 0,11 -1,7 -1,14 -1,22 -1,7 -1,13 -2,20 0,1 0,2 0,3 0,0 0,0 0,1 0,0 -1,0 -1,0 -1,1 -2,1 -3,1 -7,1 -15,3 -22,4 -4,1 -9,1 -13,2 -5,1 -9,2 -15,3 -2,0 -4,1 -7,1 0,0 0,0 -1,0 0,0 -1,1 -2,1 -1,0 -2,0 -3,-1 0,0 -1,-1 -1,-2 -4,-10 -7,-20 -11,-30 -7,-20 -15,-40 -22,-60 -12,-33 -24,-67 -36,-100 -1,-1 -1,-3 -2,-5 0,0 0,0 0,-1 0,0 -1,0 -1,0 0,0 0,0 0,0 0,0 -1,0 -1,0 1,1 1,1 1,2 0,1 0,2 0,4 0,3 0,7 1,10 0,2 0,3 0,4 0,2 0,5 1,7 0,5 1,10 1,15 1,5 1,10 1,14 1,6 2,11 2,17 0,3 1,6 1,9 0,3 0,5 1,8 0,4 1,8 1,12 0,2 0,4 1,7 0,1 0,2 0,3 0,4 0,7 1,11 0,4 1,8 1,12 0,6 1,12 2,18 0,5 1,10 1,16 1,5 1,9 2,14 0,6 1,13 1,20 0,1 0,2 1,4 0,0 -1,0 -1,1 0,0 0,0 0,0 0,0 0,1 0,1 -1,0 -2,0 -2,0 -4,0 -8,1 -12,1 -3,0 -7,0 -10,1 -4,0 -8,0 -12,0 -6,1 -10,1 -15,2 -3,0 -7,0 -10,0 -5,1 -10,1 -15,1 -8,1 -16,2 -23,2 0,0 0,0 0,0 -1,0 -2,0 -2,0 -1,0 -1,0 -2,-1z"/>
    <path id="2" class="fil1" d="M1807 436l0 0c0,0 0,0 1,0 0,0 0,0 0,0 2,0 4,0 6,0 1,0 2,0 3,0 1,0 2,0 3,0 3,-1 5,-1 8,-1 3,-1 6,-1 9,-1 3,0 6,-1 9,-1 1,0 3,0 4,-1 2,0 3,0 5,0 4,0 8,-1 11,-1 3,0 6,-1 9,-1 3,0 6,-1 8,-1 4,0 8,-1 12,-1 0,0 1,0 1,0 2,0 4,0 6,-1 4,0 7,0 10,-1 3,0 6,0 9,0 3,-1 5,-1 8,-1 2,-1 4,-1 5,-1 1,0 2,-1 2,-1 0,-2 1,-3 1,-4 1,-2 1,-5 2,-7 1,-2 1,-3 2,-4 0,0 0,-1 1,-1 1,0 2,0 3,0 1,0 1,0 1,0 2,-1 4,-1 6,-1 1,0 2,-1 2,-2 1,-1 1,-3 2,-4 16,-53 31,-106 46,-160 8,-32 15,-64 21,-96 1,-5 2,-9 3,-14 1,-7 2,-13 3,-20 3,-12 5,-24 7,-35 2,-11 3,-22 5,-32 0,-1 0,-3 1,-4 0,-3 1,-7 1,-10 -1,-1 -1,-1 -2,-1 -1,0 -3,0 -4,-1 -2,0 -5,0 -8,0 -6,0 -13,-1 -20,-1 -4,0 -7,0 -11,-1 -1,0 -2,0 -3,0 0,0 -1,0 -1,0 -1,0 -2,0 -2,0 -2,0 -5,0 -7,0 -4,-1 -9,-1 -13,-1 -6,0 -12,-1 -18,-1 -3,0 -5,0 -7,0 -2,-1 -4,-1 -6,-1 -5,0 -10,0 -15,-1 -3,0 -7,0 -10,0 0,0 -1,0 -2,0 0,0 0,0 -1,0 0,2 -1,3 -1,4 0,0 0,0 0,1 -1,4 -2,8 -3,12 0,1 0,1 0,1 -1,0 -1,1 -1,1 -2,0 -4,0 -6,0 -1,0 -2,-1 -3,-1 -1,0 -1,0 -2,0 -2,0 -2,1 -3,2 0,0 0,0 0,0 0,1 0,2 0,3 -2,10 -4,20 -6,30 -2,7 -3,13 -4,20 -2,9 -4,19 -6,29 -3,17 -7,34 -10,50 -1,4 -2,8 -3,12 0,2 0,4 -1,6 0,0 0,0 -1,0 0,0 0,-1 0,-1 -1,-2 -1,-4 -2,-6 -8,-28 -15,-57 -23,-86 -6,-21 -12,-43 -18,-65 0,-1 -1,-2 -1,-4 0,-1 -1,-1 -2,-1 -1,0 -2,0 -2,0 -1,0 -1,0 -1,0 -9,0 -17,0 -25,0 -21,0 -42,0 -63,0 -1,0 -1,0 -2,0 -2,0 -4,0 -5,0 -1,0 -1,0 -2,0 0,0 0,0 -1,0 0,1 0,2 0,3 0,2 -1,4 -1,6 0,0 0,1 0,1 0,2 -1,4 -1,6 0,1 -1,2 -2,2 -1,0 -3,0 -4,0 -1,0 -2,0 -3,0 -1,0 -3,0 -4,0 -1,0 -2,0 -2,0 -1,1 -1,1 -1,2 0,0 0,1 0,1 0,0 0,0 0,0 -1,3 -1,6 -2,10 -1,7 -2,14 -3,21 -1,8 -2,16 -3,24 -1,7 -2,13 -3,20 -1,10 -2,19 -4,29 0,4 -1,8 -2,12 0,1 0,2 0,3 0,2 -1,4 -1,6 0,0 0,0 0,0 0,1 0,1 0,2 0,0 -1,1 -1,1 -1,-3 -2,-7 -3,-10 0,-2 -1,-4 -1,-6 -1,-3 -2,-7 -2,-10 -1,-2 -1,-3 -1,-5 -1,-2 -1,-5 -2,-7 -1,-3 -1,-6 -2,-9 0,-2 -1,-5 -1,-7 -1,-3 -2,-5 -2,-8 -1,-4 -1,-7 -2,-11 -1,-1 -1,-3 -2,-5 0,-3 -1,-5 -1,-9 -1,-2 -1,-4 -2,-6 0,-2 -1,-4 -1,-5 -1,-4 -1,-7 -2,-11 -1,-5 -3,-10 -4,-16 0,-1 0,-3 -1,-4 0,-4 -1,-7 -2,-11 -1,-2 -1,-3 -1,-5 -1,-4 -2,-7 -3,-11 -2,0 -5,0 -7,0 -3,1 -5,1 -7,1 -1,0 -2,0 -3,0 0,1 -1,1 -2,1 -3,0 -6,0 -10,1 -1,0 -3,0 -5,0 -3,1 -6,1 -9,2 -3,0 -6,0 -8,1 -2,0 -5,0 -7,0 -3,0 -5,1 -8,1 -1,0 -2,0 -3,1 -2,0 -3,0 -5,0 -3,0 -6,1 -10,1 -2,1 -5,1 -8,1 -2,0 -4,0 -6,1 -2,0 -5,0 -7,1 -1,0 -3,0 -4,0 -2,0 -4,1 -6,1 -4,0 -7,1 -11,1 -4,0 -7,1 -11,2 0,0 0,0 0,0 0,0 0,1 0,1 -1,0 -1,1 -1,2 0,0 0,0 0,0 0,2 1,3 1,5 0,2 0,4 0,5 0,2 0,2 -1,2 -2,1 -4,1 -7,1 0,0 0,0 -1,0 -1,1 -2,1 -3,1 -2,0 -4,0 -5,1 -1,0 -1,0 -1,0 -1,0 -1,1 -1,1 0,1 0,2 0,3 0,2 1,4 1,6 1,7 1,15 3,22 2,15 5,30 8,46 8,34 18,67 30,101 14,40 29,80 45,120 11,28 22,56 34,84 0,0 1,1 1,2 1,1 1,2 1,3 1,0 1,0 2,0 1,0 2,0 4,0 0,0 0,-1 0,-1 1,0 1,0 2,0 0,0 0,0 1,0 6,-1 13,-2 20,-3 4,0 7,0 11,-1 4,-1 7,-1 10,-2 4,0 7,0 10,-1 3,0 7,-1 10,-1 4,-1 9,-2 13,-2 3,0 6,-1 9,-1 6,-1 13,-2 20,-3 0,0 1,0 2,-1 7,0 13,-1 19,-2 1,0 3,0 4,-1 2,0 4,0 6,-1 2,0 3,-1 3,-2 0,-1 0,-3 0,-4 1,-2 1,-3 1,-5 0,-1 1,-3 1,-4 0,0 0,0 0,-1 1,0 1,0 1,0 1,0 2,0 4,0 1,-1 2,-1 3,-1 2,0 4,0 6,-1 0,0 1,0 1,0 0,-1 0,-1 1,-1 0,-1 0,-1 0,-2 1,-8 3,-16 4,-24 0,-3 1,-7 1,-11 2,-7 3,-14 4,-21 0,0 0,-1 0,-1 0,0 0,-1 0,-1 0,-1 1,-2 1,-2 0,0 0,0 0,0 0,0 0,0 0,0 0,0 0,0 0,0 7,26 13,51 18,77 1,5 2,11 4,17zm138 -40l0 0c-1,0 -2,0 -3,0 -2,0 -5,1 -7,1 -3,0 -7,0 -11,1 -2,0 -3,0 -5,0 -1,0 -2,0 -3,0 -4,1 -8,1 -13,2 -6,1 -13,1 -20,2 -4,0 -7,1 -10,1 -2,0 -5,0 -7,1 0,0 -1,0 -1,0 -4,0 -8,1 -12,1 -5,1 -10,1 -16,2 -1,0 -2,-1 -3,-1 0,0 0,0 0,0 0,0 0,0 0,0 -1,-2 -1,-4 -2,-5 -6,-33 -14,-65 -22,-97 -5,-21 -11,-42 -18,-63 0,0 0,-1 0,-2 -1,0 -1,0 -1,-1 0,0 0,0 0,0 0,0 -1,1 -1,1 0,0 0,1 0,1 -2,8 -3,16 -4,24 -1,5 -2,11 -3,16 0,3 -1,6 -1,8 -1,3 -1,6 -2,9 -1,8 -2,17 -4,26 0,4 -1,8 -1,12 -2,7 -3,14 -4,21 -1,5 -1,10 -2,14 -1,4 -1,8 -2,12 0,4 -1,7 -2,11 0,2 -1,3 -3,3 -2,0 -5,1 -8,1 -4,0 -7,1 -11,1 -4,1 -7,1 -11,2 -3,0 -6,1 -10,2 -3,0 -7,0 -11,1 -3,0 -6,1 -9,1 -4,1 -8,1 -12,2 -3,0 -6,1 -9,1 -3,1 -6,1 -10,1 -3,1 -6,2 -9,2 -3,0 -7,1 -10,1 -4,1 -8,1 -13,2 0,0 0,0 0,0 0,0 -1,0 -1,0 -1,0 -1,0 -1,0 0,0 -1,0 -1,-1 0,0 0,-1 0,-1 -1,-1 -1,-2 -2,-3 -1,-4 -3,-7 -4,-10 -4,-10 -8,-20 -13,-30 -20,-50 -39,-101 -57,-152 -11,-30 -21,-61 -28,-92 -4,-18 -8,-35 -11,-53 0,0 0,0 0,0 -1,-7 -2,-15 -3,-22 0,0 0,0 0,0 0,-1 0,-1 0,-2 0,0 1,-1 1,-1 1,0 1,0 2,0 0,0 0,0 0,0 3,-1 6,-1 9,-1 5,-1 10,-2 15,-2 5,-1 9,-1 14,-2 4,0 7,-1 11,-1 3,0 6,-1 9,-1 2,0 4,-1 6,-1 3,0 7,0 10,-1 3,0 6,0 8,-1 3,0 5,0 7,-1 3,0 6,0 9,-1 1,0 2,0 3,0 1,0 1,0 2,0 2,-1 5,-1 7,-1 1,0 2,0 3,0 0,0 0,0 0,0 1,0 1,0 1,0 1,0 1,1 1,1 0,1 0,1 0,2 2,8 4,15 6,23 2,10 4,20 6,30 3,13 6,25 8,38 2,6 3,11 4,17 1,6 3,12 4,17 3,13 5,26 8,39 3,14 6,28 10,42 1,6 2,13 4,19 0,1 0,2 0,3 1,5 3,11 4,16 0,1 0,1 0,1 0,0 0,0 0,0 0,0 0,0 1,0 0,0 0,0 0,0 0,0 0,0 1,-1 0,0 0,0 0,-1 0,0 0,0 0,0 1,-5 1,-10 2,-16 1,-9 3,-19 4,-28 1,-7 2,-13 3,-19 0,-6 1,-12 2,-18 1,-6 2,-13 3,-19 1,-6 2,-12 2,-18 1,-5 2,-9 3,-14 0,-5 1,-10 1,-14 1,-6 2,-12 3,-18 1,-7 2,-13 3,-19 0,-5 1,-11 2,-16 1,-4 1,-8 2,-12 1,-6 1,-11 2,-16 0,-4 1,-7 2,-11 0,-1 0,-1 0,-1 0,-1 0,-1 0,-1 0,0 1,0 1,0 1,0 2,-1 3,-1 10,0 19,0 28,0 14,0 28,1 42,1 1,0 3,0 4,0 0,0 0,0 0,0 2,0 3,0 4,0 1,0 2,0 2,0 0,0 1,1 1,2 3,10 6,20 8,30 6,20 11,40 17,61 7,27 15,55 22,82 4,16 8,31 12,46 1,1 1,2 1,3 1,2 1,3 1,4 1,1 1,1 1,2 0,0 1,0 1,-1 0,0 1,0 1,-1 0,-3 1,-6 1,-9 1,-2 1,-3 1,-4 1,-4 2,-9 3,-13 2,-10 4,-20 6,-30 3,-14 6,-29 9,-44 1,-7 3,-14 4,-22 2,-9 4,-18 5,-26 2,-8 4,-16 5,-24 1,-7 3,-13 4,-20 3,-13 5,-27 8,-40 0,0 0,0 0,0 0,-1 0,-1 1,-1 0,-1 0,-1 0,-1 0,0 0,0 0,0 1,-1 2,-1 2,-1 6,1 11,1 16,1 3,0 6,0 9,1 1,0 2,0 4,0 1,0 2,0 4,0 2,0 5,0 8,0 0,0 0,0 1,1 0,0 0,0 1,0 4,0 8,0 12,0 6,0 12,1 19,1 9,1 18,1 27,2 1,0 2,0 4,0 0,0 0,0 0,0 1,0 1,0 1,1 0,0 0,0 0,1 0,0 0,1 0,1 0,1 0,2 0,3 0,2 -1,4 -1,5 -1,9 -3,17 -4,25 -2,8 -3,17 -5,25 0,2 0,3 0,3 -1,4 -1,7 -2,10 -1,8 -3,16 -5,25 -2,10 -4,20 -6,31 -1,4 -1,8 -2,12 -4,16 -7,32 -11,48 -13,49 -27,98 -42,147 -2,6 -4,11 -5,17 -1,1 -1,1 -1,2 0,1 0,1 -1,2z"/>
    <path id="3" class="fil1" d="M2324 0l0 0c-1,0 -1,0 -2,0 0,0 0,1 -1,1 0,0 -1,0 -2,0 0,0 0,0 0,0 -2,0 -5,1 -8,1 -4,1 -9,1 -14,2 -4,1 -9,1 -14,2 -6,1 -12,1 -18,2 -6,1 -13,2 -20,3 -4,0 -8,0 -12,1 -2,0 -4,0 -7,1 -1,0 -3,0 -4,0 -1,0 -3,1 -5,1 -6,1 -12,2 -18,2 -3,1 -7,1 -10,1 -4,1 -8,1 -12,2 -4,0 -7,1 -10,2 -5,0 -9,1 -13,2 -3,0 -6,1 -8,1 -4,1 -8,2 -12,2 -8,2 -16,3 -24,4 -17,4 -33,6 -50,8 -2,1 -4,1 -5,1 -1,0 -2,1 -3,1 -1,0 -2,0 -2,2 0,1 0,3 0,5 0,1 0,2 0,3 0,2 0,3 0,4 0,0 0,1 0,1 -1,0 -1,0 -1,0 -1,1 -1,1 -2,1 -2,0 -4,0 -6,1 -3,0 -6,1 -8,1 0,0 0,1 0,1 -1,0 -1,1 -1,1 0,1 0,3 0,4 0,6 0,12 0,18 0,8 0,16 0,24 0,5 0,10 0,14 0,16 0,32 0,49 -1,10 -1,21 -1,31 0,13 0,25 0,38 0,39 -1,78 -2,118 0,5 0,11 0,17 0,14 1,29 2,43 0,3 0,5 1,7 0,1 0,1 0,1 0,2 1,2 2,2 2,0 4,0 6,0 84,0 168,0 251,0 1,0 1,0 1,0 2,0 3,0 5,0 0,0 1,0 1,0 1,0 1,0 1,0 1,-1 1,-1 1,-1 0,-1 0,-2 0,-3 0,-1 0,-3 0,-4 0,-1 0,-2 0,-4 1,-1 1,-2 1,-3 0,-2 1,-3 2,-3 1,0 2,0 3,0 1,0 3,0 4,0 2,0 4,0 6,0 1,0 2,-1 2,-2 0,-3 1,-7 1,-10 0,-4 1,-8 1,-12 0,-4 0,-7 0,-11 1,-3 1,-7 1,-11 1,-4 1,-8 1,-11 1,-5 1,-9 1,-13 0,-3 1,-6 1,-9 0,-5 1,-11 1,-16 0,-4 1,-8 1,-12 0,-3 0,-6 1,-9 0,-1 0,-1 0,-2 0,-2 -1,-3 -2,-3 -2,0 -3,1 -4,1 0,0 0,0 -1,0 -4,0 -8,0 -12,0 -9,1 -18,1 -27,1 -9,1 -18,1 -27,2 -4,0 -8,0 -12,0 0,0 -1,0 -1,0 0,0 -1,0 -1,0 -5,0 -10,1 -15,1 -10,0 -19,1 -28,1 -2,0 -4,0 -6,0 -3,0 -6,0 -9,1 -2,0 -4,0 -5,0 -1,0 -1,-1 -1,-1 -1,0 -1,-1 -1,-1 0,0 0,0 0,0 0,-1 0,-1 0,-1 0,-1 0,-2 0,-3 0,-5 1,-10 1,-15 0,-2 0,-3 0,-3 1,-1 2,-1 3,-1 1,0 3,0 4,0 0,0 1,0 1,0 6,0 12,0 18,0 16,0 32,0 48,0 2,0 4,0 6,0 1,0 1,-1 2,-2 0,-2 0,-4 0,-5 0,-1 0,-1 0,-2 0,-1 0,-1 0,-2 0,-2 0,-3 0,-5 0,-1 0,-2 2,-2 1,0 2,0 4,0 0,0 1,0 1,0 1,0 2,0 3,0 2,0 4,0 6,0 0,0 1,0 1,-1 1,0 1,-1 1,-1 0,-1 0,-2 0,-3 0,-26 0,-52 0,-79 0,-1 0,-1 0,-2 0,0 0,0 0,0 0,-1 0,-1 -1,-1 0,-1 0,-1 -1,-1 0,0 0,0 0,0 -1,0 -2,0 -3,0 -8,0 -15,0 -22,-1 -18,0 -35,0 -52,0 -1,0 -2,0 -4,0 -2,0 -5,0 -8,-1 0,0 0,0 0,-1 0,0 -1,-1 -1,-3 0,-2 1,-4 1,-8 0,0 0,-1 0,-2 0,0 0,0 0,-1 0,0 0,0 0,0 2,0 4,-1 6,-1 0,0 0,0 1,0 6,0 12,-1 18,-1 1,0 1,0 2,0 4,0 7,-1 11,-1 5,0 9,-1 13,-1 6,0 12,-1 17,-1 4,0 7,-1 10,-1 5,0 9,-1 14,-1 8,0 16,-1 24,-1 3,0 4,-1 4,-1 1,-1 1,-2 1,-4 0,-1 0,-2 0,-3 0,-2 0,-4 0,-5 0,-1 0,-2 0,-3 0,-1 0,-1 1,-1 0,0 0,-1 0,-1 4,0 8,0 11,-1 1,0 2,0 2,0 1,0 2,0 2,0 1,0 1,0 1,0 1,-1 1,-1 1,-1 0,-1 0,-1 0,-1 0,-2 0,-3 0,-5 0,-32 0,-63 0,-95 0,-3 0,-7 0,-10 0,0 0,-1 0,-1 0,-1 0,-2 0,-3 0,-1 0,-1 0,-2 0,0 0,-1 0,-1zm-11 13l0 0c0,0 0,1 0,1 0,0 0,0 0,1 0,1 0,2 0,3 0,29 0,58 0,86 0,1 0,2 0,3 0,0 0,0 0,0 0,1 0,1 0,1 -1,1 -1,1 -1,1 -1,0 -2,0 -3,0 -2,0 -4,1 -6,1 -4,0 -8,0 -12,1 -4,0 -7,0 -11,0 -6,1 -12,1 -18,1 -3,1 -6,1 -8,1 -1,0 -1,0 -1,0 -1,0 -1,0 -2,0 -3,1 -5,1 -8,1 -6,0 -11,0 -17,1 -4,0 -8,1 -12,1 -4,0 -7,0 -11,1 -5,0 -10,0 -16,1 -2,0 -4,0 -6,0 0,0 -1,0 -1,0 -1,0 -2,0 -3,1 -1,0 -2,0 -2,2 0,1 0,3 0,4 -1,14 -1,27 -2,41 0,2 0,3 0,5 0,0 0,1 1,1 0,0 1,0 1,0 1,1 3,1 4,1 3,0 6,0 8,0 18,0 36,0 54,0 4,1 8,1 11,1 3,0 5,0 8,0 1,0 2,0 3,0 0,0 0,0 0,0 1,0 1,0 1,0 0,0 1,1 1,1 0,0 0,0 0,1 0,1 0,1 0,2 0,19 0,38 0,57 0,1 0,3 0,4 0,0 0,0 -1,0 0,0 0,0 0,1 -1,0 -1,0 -2,0 -2,0 -3,0 -5,0 -9,0 -18,0 -26,0 -19,0 -38,0 -57,0 -2,0 -4,0 -6,0 0,0 0,0 0,0 -1,0 -1,0 -1,0 0,1 -1,1 -1,1 0,0 0,0 0,0 0,1 0,2 0,3 0,1 0,2 0,3 0,3 0,6 -1,10 0,13 -1,25 -1,38 0,2 0,4 0,5 0,1 0,2 0,3 0,1 0,1 0,2 0,0 1,0 1,0 1,0 2,0 2,0 1,0 2,0 4,0 4,0 8,0 12,-1 10,0 20,-1 30,-1 3,0 7,0 10,0 1,0 2,0 2,0 1,-1 2,-1 3,-1 2,0 5,0 7,0 6,0 11,0 17,-1 6,0 12,0 18,-1 7,0 14,0 21,0 3,0 6,-1 9,-1 4,0 6,0 9,0 0,0 0,0 0,0 3,0 5,0 6,0 0,1 0,3 0,5 0,0 0,0 0,1 -1,7 -1,13 -2,20 0,10 -1,19 -2,29 0,4 0,8 -1,13 0,3 0,5 -1,9 0,6 0,12 -1,18 0,0 0,0 0,1 0,0 0,0 0,0 0,1 0,1 -1,1 0,1 0,1 -1,1 0,0 -1,0 -2,0 -1,0 -2,0 -4,0 0,0 0,0 0,0 -6,0 -11,0 -17,0 -71,0 -143,0 -215,0 -2,0 -4,0 -6,0 0,0 0,0 -1,0 0,0 0,0 -1,-1 0,0 0,0 0,-1 0,0 0,0 0,0 0,0 0,-1 0,-1 -1,-13 -2,-26 -2,-38 0,-14 0,-28 1,-41 0,-17 1,-33 1,-49 0,-3 0,-6 0,-9 0,-10 0,-20 0,-30 0,-17 0,-33 1,-50 0,-19 0,-39 0,-58 0,-4 0,-8 0,-11 0,-12 0,-23 0,-35 0,-6 0,-12 0,-18 0,-1 0,-3 0,-4 0,-1 1,-2 2,-2 1,0 1,0 1,0 3,-1 6,-1 8,-1 11,-2 22,-3 33,-6 10,-1 20,-3 29,-5 4,0 7,-1 10,-1 7,-2 13,-3 19,-4 6,-1 11,-2 16,-2 2,0 3,-1 5,-1 5,-1 11,-1 16,-2 3,0 5,-1 8,-1 2,0 4,0 6,-1 2,0 4,0 5,-1 3,0 5,0 7,0 7,-1 13,-2 20,-3 3,0 7,-1 11,-1 4,0 8,-1 12,-2 4,0 8,-1 13,-1 3,-1 6,-1 10,-2 6,0 12,-1 19,-2 0,0 1,0 1,0 0,0 0,0 1,0z"/>
    <path id="4" class="fil1" d="M2638 222l0 0c0,0 0,-1 0,-1 0,0 0,0 0,0 0,-1 0,-1 0,-1 1,-1 2,-2 3,-3 0,0 0,-1 1,-1 5,-6 9,-12 14,-19 8,-12 15,-24 20,-38 4,-11 6,-22 7,-34 1,-11 0,-23 -3,-34 -7,-23 -20,-40 -42,-51 -6,-4 -12,-7 -19,-9 -15,-4 -29,-6 -44,-7 -19,0 -38,1 -57,3 -15,2 -30,5 -44,9 -20,4 -40,9 -59,15 -19,6 -38,13 -57,20 0,0 -1,0 -1,0 -1,1 -2,1 -3,2 0,0 0,1 -1,1 0,1 0,2 0,3 0,1 0,1 0,1 0,0 0,1 0,2 1,1 0,3 0,4 -1,0 -1,0 -1,0 -1,1 -2,1 -3,2 -2,0 -3,1 -5,2 -1,0 -3,1 -5,1 -1,1 -2,1 -3,2 0,0 -1,1 -1,2 0,2 0,4 0,6 0,116 0,233 0,350 0,1 0,3 0,5 0,0 0,0 1,1 0,0 0,0 0,0 0,0 0,0 0,0 1,0 1,0 2,0 13,-2 26,-4 38,-6 13,-3 25,-5 36,-7 6,-1 12,-2 17,-3 7,-1 13,-2 19,-3 9,-2 18,-3 27,-5 3,-1 6,-1 9,-2 2,0 5,0 7,-1 5,-1 10,-2 15,-2 1,-1 2,-1 2,-1 1,-1 1,-2 1,-3 0,-1 -1,-2 -1,-3 0,-1 0,-2 0,-2 0,-2 0,-4 -1,-5 0,-1 1,-1 1,-1 0,-1 1,-1 1,-1 2,0 3,0 4,-1 4,-1 7,-1 10,-2 2,0 3,0 4,-1 0,-1 0,-2 0,-4 -1,-4 -1,-8 -2,-12 -1,-4 -1,-9 -2,-13 -2,-10 -3,-19 -5,-28 0,-2 -1,-4 -1,-6 0,-1 0,-2 0,-3 -1,-7 -2,-14 -4,-21 0,-2 0,-3 0,-6 0,0 0,0 0,0 0,0 0,0 0,0 0,0 0,0 0,0 1,0 1,0 1,0 1,0 2,0 3,0 7,1 13,4 18,9 5,6 9,13 11,20 2,11 5,21 7,32 2,11 4,23 6,34 1,7 2,15 4,22 1,6 1,11 2,17 1,1 1,1 1,2 0,1 0,3 1,5 0,0 1,0 1,0 0,0 1,0 1,0 1,-1 3,-1 4,-2 47,-22 95,-44 142,-67 0,0 0,0 1,0 1,0 2,-1 3,-1 0,0 1,-1 1,-1 0,0 0,-1 0,-1 0,0 0,-1 0,-1 -1,-2 -1,-3 -2,-5 0,0 0,0 0,-1 0,0 1,0 1,-1 0,0 1,0 1,-1 2,0 4,-1 6,-2 2,-1 4,-2 6,-3 2,-1 4,-2 5,-2 1,-1 2,-2 1,-3 0,-1 -1,-2 -1,-3 -9,-22 -18,-44 -28,-66 -4,-9 -8,-18 -12,-27 -3,-6 -7,-11 -11,-17 -9,-12 -21,-20 -36,-25 -2,-1 -5,-2 -8,-2 -1,-1 -2,-1 -4,-1zm-274 -141l0 0c1,-1 1,-1 2,-1 1,0 2,-1 3,-1 36,-14 72,-25 110,-33 12,-3 25,-6 38,-7 16,-3 33,-4 49,-4 14,0 28,1 41,4 9,2 19,6 27,10 11,6 20,14 27,25 5,8 8,17 10,26 3,16 2,32 -3,48 -3,11 -7,21 -13,30 -8,15 -19,29 -31,41 -2,3 -5,5 -8,8 -1,1 -2,2 -4,4 0,0 0,0 0,1 -1,0 -1,0 -1,0 0,0 0,0 0,0 0,0 0,0 0,0 1,0 1,0 1,0 0,1 0,1 0,1 2,0 2,0 3,0 2,0 5,-1 7,-1 6,-1 11,0 16,1 17,3 30,12 41,25 3,4 6,9 8,14 5,9 9,19 13,28 5,11 9,23 14,34 3,7 6,13 9,20 1,3 1,4 1,5 0,1 -1,1 -4,2 0,0 0,0 0,1 -25,12 -51,23 -76,35 -10,5 -21,10 -31,15 0,0 -1,0 -1,0 -5,3 -10,5 -15,8 -1,0 -2,0 -3,0 0,0 0,0 0,0 0,0 0,0 0,0 -1,-2 -1,-4 -2,-6 -1,-5 -1,-10 -2,-15 -2,-9 -3,-18 -5,-27 0,0 0,-1 0,-1 -3,-15 -6,-30 -9,-45 0,0 0,-1 -1,-2 0,0 0,-1 0,-2 -2,-9 -7,-17 -13,-24 -6,-7 -14,-12 -24,-14 -4,-1 -8,-1 -13,-1 -5,0 -11,1 -17,2 0,0 0,1 0,1 -2,0 -3,0 -5,1 -2,0 -3,0 -4,1 -1,0 -1,1 -1,1 0,1 0,2 0,3 0,1 0,1 1,3 1,7 2,14 3,21 1,3 1,7 2,10 1,6 2,12 2,18 1,5 2,10 3,14 0,4 1,8 2,12 0,4 1,9 2,13 1,5 1,9 2,13 0,1 -1,2 -2,2 0,0 0,0 -1,0 -3,1 -7,2 -10,2 -17,3 -35,6 -52,9 -8,2 -17,3 -25,5 -8,1 -16,3 -24,4 -7,1 -15,3 -22,4 -4,1 -8,2 -12,2 0,0 -1,0 -1,0 -1,0 -1,0 -1,0 -1,0 -1,-1 -1,-1 0,0 0,0 0,0 0,-1 0,-1 0,-2 0,-1 0,-2 0,-4 0,0 0,0 0,0 0,-110 0,-219 0,-329 0,0 0,-1 0,-1 0,-2 0,-3 0,-4 0,-1 0,-1 0,-2 0,0 0,0 0,0zm112 53l0 0c0,0 0,0 0,0 0,1 0,1 0,2 0,3 0,6 1,10 0,3 0,6 1,9 0,4 0,7 0,11 1,4 1,8 2,12 0,2 0,5 0,8 0,3 1,6 1,8 0,2 0,3 0,5 0,1 0,2 0,4 1,3 1,7 1,10 0,2 1,4 1,5 0,0 0,0 0,0 0,0 0,0 0,0 1,1 1,1 1,1 1,0 2,0 2,0 5,-1 10,-1 15,-3 0,0 0,0 1,0 11,-2 23,-5 33,-10 8,-3 14,-7 20,-11 5,-3 9,-7 13,-11 10,-12 14,-27 10,-43 -3,-11 -10,-19 -22,-23 -4,-1 -8,-2 -13,-2 -6,0 -13,0 -19,1 -16,3 -30,8 -45,15 0,0 -1,0 -2,1 0,0 0,0 -1,1zm14 44l0 0c0,-2 0,-3 0,-5 -1,-6 -1,-12 -2,-19 0,-1 0,-1 0,-2 1,0 1,-1 1,-1 1,-1 1,-1 1,-1 0,0 0,0 0,0 9,-2 18,-4 27,-5 5,-1 10,0 15,1 1,0 2,0 4,1 6,2 11,7 13,13 2,8 2,16 -1,24 -1,3 -3,5 -5,6 -5,3 -11,6 -16,8 -10,4 -21,7 -31,8 -1,1 -2,1 -3,0 0,0 0,-1 0,-2 0,0 -1,-1 -1,-2 0,-2 0,-5 0,-7 -1,-4 -1,-8 -1,-12 0,-2 -1,-4 -1,-5z"/>
    <path id="5" class="fil1" d="M821 63l0 0c-1,1 -2,1 -2,1 -2,1 -3,1 -4,2 -1,0 -2,1 -4,1 -2,1 -4,2 -6,3 -1,0 -1,1 -1,3 0,0 0,1 0,2 -1,1 -1,2 -1,3 0,117 0,233 0,350 0,1 0,3 1,5 0,0 0,1 0,1 0,0 0,0 0,1 0,0 0,0 1,0 0,0 1,0 1,0 9,-2 17,-3 26,-5 7,-1 15,-3 22,-4 5,-1 9,-1 14,-2 4,-1 8,-2 12,-3 8,-1 15,-2 23,-4 5,-1 10,-2 16,-2 6,-1 13,-3 20,-4 7,-1 14,-2 21,-4 5,0 9,-1 13,-2 1,0 1,0 2,0 0,0 0,-1 0,-1 2,0 2,-1 2,-2 0,-1 0,-2 0,-3 0,-1 0,-1 -1,-1 0,-1 0,-2 0,-2 0,-1 0,-3 0,-4 0,-2 0,-3 1,-3 2,0 4,0 5,0 1,-1 2,-1 4,-1 0,0 0,0 0,0 3,-1 5,-1 8,-2 1,0 1,0 1,-1 0,0 1,0 1,-1 -1,-5 -2,-11 -3,-17 -1,-5 -2,-10 -3,-15 0,-3 -1,-7 -1,-10 -1,-6 -2,-11 -3,-17 0,-3 -1,-5 -1,-8 -1,-3 -1,-6 -2,-8 -1,-8 -2,-15 -3,-22 0,-1 0,-2 1,-2 2,-1 3,-1 5,-1 2,0 4,-1 7,-1 21,-5 42,-12 62,-23 16,-10 30,-21 43,-35 1,-2 3,-3 5,-5 8,-7 15,-15 21,-24 18,-25 25,-52 22,-83 -2,-13 -5,-25 -9,-38 -9,-24 -25,-42 -49,-54 -5,-2 -10,-4 -15,-6 -15,-5 -31,-7 -47,-8 -19,0 -37,1 -56,3 -14,2 -29,5 -43,8 -22,5 -44,12 -65,19 -12,4 -23,8 -35,13 -1,1 -3,1 -5,2 0,0 0,1 0,1 0,0 0,0 0,1 -1,1 -1,1 -1,2 0,0 0,1 0,1 0,1 0,1 0,2 0,1 0,3 0,4zm12 -3l0 0c0,-1 1,-1 2,-1 1,-1 2,-1 4,-2 22,-8 44,-16 67,-22 16,-5 32,-8 48,-11 10,-2 20,-3 30,-4 11,-2 23,-2 34,-2 13,0 27,1 40,4 9,2 18,5 26,10 20,10 34,25 42,46 5,12 8,24 9,36 2,21 -1,40 -10,59 -6,12 -13,22 -22,32 -10,10 -21,18 -33,26 -19,10 -39,18 -60,23 -14,3 -27,4 -41,4 -1,0 -2,0 -4,0 0,0 0,0 0,1 0,0 0,0 0,0 0,1 0,1 0,2 1,6 2,12 3,18 0,4 1,8 2,12 0,6 1,11 2,16 1,3 1,7 2,10 0,0 0,0 0,0 1,11 3,22 5,32 1,4 1,8 2,11 0,5 1,9 2,13 0,1 0,1 0,2 0,0 0,0 0,0 0,1 0,2 -2,2 -3,1 -7,2 -11,2 -15,3 -30,6 -44,9 -7,1 -13,2 -20,3 -7,1 -15,2 -23,4 -8,1 -17,3 -26,5 -5,1 -10,2 -16,2 0,1 -1,1 -2,1 -1,0 -2,0 -3,0 -2,1 -3,1 -3,0 -1,0 -1,-1 -1,-3 0,-1 0,-2 0,-3 0,-1 0,-1 0,-1 0,-110 0,-219 0,-329 0,0 0,0 0,-1 0,-1 0,-3 0,-4 0,0 0,-1 0,-1 1,-1 1,-1 1,-1zm112 60l0 0c0,0 0,0 0,0 0,0 0,0 0,0 0,1 0,2 0,2 0,2 0,4 0,5 0,3 1,5 1,7 0,5 1,9 1,13 0,4 0,8 1,11 0,3 0,6 0,10 1,7 2,14 2,21 0,2 1,3 1,4 0,2 0,2 0,3 0,2 1,2 3,2 0,0 0,0 0,0 2,0 3,0 5,0 11,-2 22,-5 33,-8 9,-3 17,-7 26,-12 5,-3 11,-7 16,-12 4,-4 7,-9 10,-15 4,-10 5,-21 2,-32 -3,-11 -11,-18 -22,-22 -4,-1 -8,-2 -13,-2 -6,0 -13,0 -20,2 -15,3 -28,7 -42,13 -1,1 -2,1 -3,2 -1,0 -2,1 -2,3 0,1 1,2 1,4 0,0 0,1 0,1zm13 33l0 0c0,-1 0,-2 0,-4 0,-4 -1,-9 -1,-14 0,-1 0,-2 0,-3 0,-1 0,-2 1,-2 0,0 0,0 0,0 1,0 2,-1 3,-1 7,-2 15,-4 23,-5 5,0 11,0 16,1 1,0 2,1 3,1 7,2 12,7 14,14 2,8 2,16 -1,24 -1,2 -2,4 -5,5 -5,4 -11,6 -17,9 -10,3 -20,6 -31,8 -1,0 -2,0 -2,-2 0,0 0,0 0,0 0,0 0,0 0,0 0,-1 0,-2 0,-3 -1,-2 -1,-4 -1,-6 0,-5 -1,-10 -1,-15 0,-2 0,-4 -1,-7z"/>
    <path id="6" class="fil1" d="M1329 15l0 0c-3,0 -7,0 -11,0 -1,0 -3,0 -5,0 -1,0 -1,0 -2,0 0,0 -1,0 -1,0 -1,0 -1,0 -1,0 -2,1 -3,1 -5,1 -3,0 -7,0 -10,1 -15,2 -29,6 -43,12 -24,11 -45,25 -62,44 -3,3 -5,5 -7,7 -18,16 -31,34 -42,55 -14,28 -22,58 -22,90 -1,13 0,25 2,37 1,15 5,29 9,43 12,32 29,58 50,80 21,21 44,38 69,48 19,9 39,15 61,16 4,0 8,0 12,0 10,0 20,-2 29,-4 30,-7 55,-21 77,-42 6,-5 11,-11 16,-17 2,-1 3,-2 4,-3 15,-15 26,-32 35,-50 14,-32 23,-65 24,-100 1,-13 0,-27 -1,-40 -1,-14 -3,-28 -7,-42 -4,-18 -11,-35 -21,-51 -14,-24 -33,-44 -57,-59 -23,-13 -48,-21 -74,-24 -3,-1 -6,-1 -9,-1 -2,0 -3,0 -5,-1 0,0 0,0 0,0 -1,0 -2,0 -3,0zm167 200l0 0c0,33 -5,64 -15,92 -6,17 -14,33 -25,48 -9,13 -20,25 -33,35 -17,12 -36,21 -56,26 -9,2 -19,4 -29,4 -3,0 -7,0 -10,0 -20,-1 -38,-6 -56,-14 -25,-11 -48,-27 -68,-47 -19,-21 -34,-44 -44,-71 -6,-14 -10,-30 -12,-45 -1,-12 -2,-23 -1,-35 0,-32 8,-63 24,-91 14,-27 34,-48 59,-65 19,-12 39,-19 60,-23 14,-3 28,-4 43,-3 19,1 37,5 55,12 41,16 70,43 88,83 6,14 11,28 14,43 2,9 3,18 4,27 1,10 2,18 2,24zm-170 -66l0 0c-4,-1 -9,0 -15,1 -13,2 -25,8 -35,17 -17,14 -26,32 -27,54 0,18 4,35 15,50 11,15 26,27 45,33 9,3 18,4 27,3 3,0 6,0 9,-1 16,-3 28,-11 39,-24 5,-6 8,-12 11,-19 3,-8 5,-16 6,-24 2,-14 1,-27 -3,-40 -7,-23 -22,-38 -44,-46 -9,-3 -18,-4 -28,-4zm-66 76l0 0c0,-12 3,-23 9,-33 1,-3 3,-5 5,-6 10,-5 20,-8 31,-8 8,-1 17,0 25,3 22,7 35,21 41,42 4,17 3,34 -3,50 -1,5 -3,9 -5,13 -1,1 -3,3 -4,4 -6,2 -12,5 -18,6 -3,0 -6,1 -9,1 -6,0 -12,-1 -18,-3 -17,-5 -30,-15 -40,-29 -7,-8 -11,-18 -13,-29 0,-2 0,-5 0,-8 -1,-1 -1,-2 -1,-3z"/>
   </g>
   <g>
    <path class="fil2" d="M424 914c0,0 -23,-55 -66,-89 0,0 213,-2 343,-184 0,0 -66,213 -277,273z"/>
    <path class="fil2" d="M392 1404c0,0 -5,-371 -236,-605 0,0 346,161 236,605z"/>
    <path class="fil3" d="M405 1049c-67,-219 -301,-268 -405,-457 164,160 488,230 405,457z"/>
    <circle class="fil3" cx="366" cy="713" r="62"/>
   </g>
  </g>
 </g>
</svg>
