<?xml version="1.0" encoding="UTF-8"?>
<!DOCTYPE svg PUBLIC "-//W3C//DTD SVG 1.1//EN" "http://www.w3.org/Graphics/SVG/1.1/DTD/svg11.dtd">
<!-- Creator: CorelDRAW X7 -->
<svg xmlns="http://www.w3.org/2000/svg" xml:space="preserve" width="107.098mm" height="18.6471mm" version="1.1" style="shape-rendering:geometricPrecision; text-rendering:geometricPrecision; image-rendering:optimizeQuality; fill-rule:evenodd; clip-rule:evenodd"
viewBox="0 0 15303 2664"
 xmlns:xlink="http://www.w3.org/1999/xlink">
 <defs>
  <style type="text/css">
   <![CDATA[
    .fil2 {fill:#00A0E3}
    .fil3 {fill:#FF7803}
    .fil0 {fill:white}
    .fil4 {fill:#00A0E3;fill-rule:nonzero}
    .fil1 {fill:#FF7803;fill-rule:nonzero}
   ]]>
  </style>
 </defs>
 <g id="Layer_x0020_1">
  <metadata id="CorelCorpID_0Corel-Layer"/>
  <g id="_2227296312464">
   <path class="fil0" d="M11202 2284c-22,-18 -95,37 -21,9 2,-1 53,18 21,-9zm-11200 -536l-2 35c12,-5 28,-15 52,-26 54,-25 68,-31 130,-50 57,-17 76,-22 120,-57l93 -80c25,25 33,39 72,46 -61,110 -45,88 -112,95 43,49 -4,33 70,11 -19,50 -8,50 9,102l85 -7 -46 73 120 -10c-62,69 -21,30 -129,64 -28,9 -60,16 -100,28l117 3 -15 35c51,19 32,-16 54,30 -46,30 -96,54 -166,66l3 34c64,-21 42,-29 118,-43 73,-14 73,-10 134,-30 -35,57 -19,27 -79,60l-33 20c-162,105 -187,30 -215,119 51,-29 61,-22 135,-28 -3,2 -8,5 -11,7l-54 33c66,0 56,12 138,5l-64 57c226,-38 443,-72 696,-93l1 17c-141,12 -292,52 -423,70 -61,9 -164,6 -218,22 -62,20 -44,43 -151,78 22,25 13,14 36,32 72,54 55,42 107,42l-32 20c-9,5 -19,17 -22,13 -2,-3 -8,4 -11,7 52,-1 118,14 160,16 60,3 123,-6 184,-11l-209 -34c62,-5 125,-13 187,-15l136 -12c114,-15 741,-34 852,-15 60,11 94,3 160,-3l-22 14c-32,16 12,-3 -23,11l-138 42c205,-17 343,-43 507,-35 435,22 1035,-54 1489,-117 189,-26 377,-25 511,-26 91,-1 169,20 249,26 214,14 583,5 754,24l467 66c-96,8 -66,-10 -82,41 87,-7 216,-17 270,-17 67,0 148,11 237,16 278,17 530,-5 813,-7 84,-1 169,17 259,12l797 -7c186,12 583,-7 798,-8 195,-1 605,10 780,-9 27,-3 61,-9 111,-17 69,-11 66,-19 103,-8l528 -45c201,-18 372,5 566,-13 118,-12 167,4 290,-7l559 -43c85,4 170,-2 278,-12l-1 -17c-130,11 -492,-17 -528,-15 -45,3 -55,7 -128,-32 128,-11 296,-19 420,-11 130,8 281,-14 418,-26 -59,-67 21,-3 -187,-41l-592 -30c-8,-19 -36,19 31,-37 -48,4 -70,9 -104,-8 66,-22 579,-50 734,-63 227,-19 147,31 185,-32l-241 -14c229,-20 855,3 1148,8 115,2 251,18 365,17 248,0 547,-10 753,-12 236,-1 398,44 588,29l67 -15c-78,-12 -158,-8 -208,-9 -146,-4 -442,-56 -655,-38 -16,-29 7,-26 -49,-54l60 -16 -69 -11c-78,-3 -439,19 -452,-8 -3,-5 -9,-2 -13,-4 92,-30 232,-25 330,-16l844 32c4,1 9,3 12,4 4,1 8,3 12,3l74 -11c-28,-76 -69,-51 -158,-58 -54,-4 -98,-28 -144,-54 -74,8 -50,18 -112,19 -39,0 -75,-3 -126,1l-2 -17c78,-6 117,0 169,-31 -45,-53 4,-20 -80,-36 -19,-3 -69,-10 -85,-12 -66,-6 -127,4 -184,-26l85 -7 -1 -17c68,-6 226,-1 279,7 366,54 345,8 544,-9 98,-9 156,5 275,-5 -96,-70 4,-51 -69,-87l-281 -43c-163,-37 -621,-16 -701,-107 88,-29 264,-28 321,-62 -62,-77 -149,-63 -231,-63 -231,-1 -662,-102 -864,-101 2,-2 29,-36 31,-37 109,-10 135,-3 233,5l416 1c79,1 132,12 203,14 70,2 112,-13 186,-12 330,4 321,31 628,5 -15,-8 -94,-44 -225,-32l80 -59c66,-5 141,-15 205,-15 93,0 114,-3 117,-13l0 -11c-1,-5 -3,-11 -1,-19l-1 -4c-73,-27 -143,5 -235,-1l-956 -67c-71,-12 -40,-11 -91,-23 -86,-20 -127,0 -216,-7 -57,-5 -49,-22 -197,-29l-1439 -169c-76,-15 -131,-6 -189,-39l51 -5c-42,-48 -173,-46 -325,-84 -304,-77 -173,-5 -308,-31 -116,-22 -101,21 -218,0 -142,-26 -320,-50 -455,-81 -45,-10 -77,-11 -126,-20 -169,-29 -266,-22 -294,-101l102 -8c-61,-70 -31,8 -91,-61 117,-10 114,3 195,13l506 75c128,13 224,29 341,46l222 37c97,-4 247,42 338,49l347 39c190,20 540,79 705,65 -20,-10 7,-2 -36,-14l-913 -119c-73,-10 -239,-16 -303,-53 34,-2 136,14 142,-7 2,-5 8,-3 11,-6 -99,-14 -205,-25 -303,-53 -75,-21 -88,-6 -158,-19 -66,-12 -50,-32 -131,-32 65,81 69,19 144,74 -121,0 -543,-88 -680,-114l-1012 -170c-342,-72 -123,116 -469,2 -76,-25 -62,-42 -138,-62l-718 53c-388,-3 -377,-16 -723,-43 -345,-27 -724,-72 -1074,-78l-552 1 -1645 268c-261,8 -865,-155 -1455,38l-518 148c-183,77 -440,16 -598,134 -58,44 -38,67 -112,95l-482 164c-52,21 -93,34 -157,57 -108,38 -214,86 -311,117 -57,18 -120,22 -177,41 -56,19 -86,45 -158,57l-32 194c-1,59 32,109 44,148 -104,67 -95,35 -137,119 -1,2 -3,6 -4,8 -1,2 -3,6 -5,8 -21,27 -204,115 -306,151zm13989 231c-19,-17 -62,32 -18,10 0,0 49,16 18,-10zm-2836 155l-5 5c0,0 6,-4 5,-5zm2367 -218c-33,-18 37,-23 -35,-12 -36,6 -15,4 -33,17l68 -5zm-1535 113l-25 -8c-21,-3 -17,-4 -44,-4 -23,0 -62,6 -86,8l155 4zm2085 -315c-22,-11 -1,-7 -38,-10 -25,-3 -42,0 -66,2l1 17 103 -9zm-122 -23l-137 11 2 17 136 -11 -1 -17zm206 -1l-35 -17 35 17zm-378 -2c-20,-17 -63,32 -19,10 1,0 50,16 19,-10zm-31 -358l-4 6c0,-1 6,-4 4,-6zm-275 -11l-5 6c0,-1 7,-4 5,-6zm1509 -214l-35 -17 35 17zm-14406 1171l-68 6c33,17 -37,22 35,11 36,-6 15,-3 33,-17zm50 -21c-20,-17 -63,32 -19,10 1,0 49,16 19,-10zm34 -3c-2,-2 -5,3 -5,5l5 -5zm12801 -1069l-35 -17 35 17zm-11748 945c-19,-17 -62,32 -18,10 1,0 49,16 18,-10zm11697 -941c-14,-8 -9,-8 -34,-15 -31,-10 -16,-6 -54,-11 -42,-6 -64,-9 -104,-9 52,38 113,42 192,35zm-12928 788l0 0zm161 -117c-19,-16 -62,33 -18,11 1,0 49,15 18,-11zm11336 -1150c-34,-18 36,-23 -35,-12 -37,6 -16,4 -33,17l68 -5zm-173 -20c19,10 1,10 36,13 16,1 34,-2 50,-3l-1 -17 -85 7zm0 0c-25,-15 34,-20 -53,-13 22,14 -18,13 53,13zm-89 -27c-19,-16 -62,33 -18,11 1,-1 49,15 18,-11zm-11321 909l-2 -17 2 17zm-2 -17l36 -12 -36 12zm11184 -1120c18,13 24,24 58,26 76,5 52,-11 63,-19 -67,0 -46,-12 -121,-7zm-70 -12c4,2 9,2 11,6 2,5 9,5 12,5 23,3 23,3 47,1 -4,-2 -9,-10 -11,-6 -2,4 -9,-5 -12,-5 -23,-3 -22,-3 -47,-1zm-86 -9c19,10 1,9 36,12 16,1 34,-1 50,-3 -19,-10 -1,-9 -37,-12 -15,-1 -34,1 -49,3zm-1124 -94l-5 6c0,-1 7,-4 5,-6z"/>
   <path class="fil0" d="M12130 2497c-28,60 -26,32 -107,34 -99,2 4,9 -78,16 -84,7 -18,-15 -99,-3 -23,3 -49,8 -76,13l-200 4c-31,-8 -62,-21 -91,-43 238,-20 436,-2 651,-21z"/>
   <path class="fil0" d="M5246 2498l1 17c-140,12 -216,1 -342,12l-1 -17c139,-12 216,-2 342,-12z"/>
   <path class="fil0" d="M707 2625c-46,4 -109,6 -153,13 -88,15 -68,54 -121,-7l273 -23 1 17z"/>
   <path class="fil0" d="M11463 2537c-82,7 -87,15 -139,-23 55,-5 127,-25 139,23z"/>
   <path class="fil0" d="M480 2576l2 17c-92,8 -113,29 -157,-21 77,-5 69,11 155,4z"/>
   <path class="fil0" d="M135 1953l-17 1c-7,-86 -24,-94 60,-108 -26,96 -51,5 -43,107z"/>
   <path class="fil0" d="M278 2421l-3 -34 68 -6c-34,56 14,27 -65,40z"/>
   <polygon class="fil0" points="1631,2581 1528,2590 1527,2573 1629,2564 "/>
   <polygon class="fil0" points="11120,2531 11017,2540 11016,2523 11118,2514 "/>
   <path class="fil0" d="M12968 641c88,-8 65,-21 105,25l-94 -20c-2,-1 -7,-3 -11,-5z"/>
   <path class="fil0" d="M12098 509l118 -28c-49,51 -30,20 -118,28z"/>
   <polygon class="fil0" points="14814,2373 14746,2378 14745,2361 14813,2355 "/>
   <polygon class="fil0" points="12825,773 12756,779 12755,762 12823,756 "/>
   <polygon class="fil0" points="10493,198 10424,204 10423,187 10491,181 "/>
   <polygon class="fil0" points="12371,2099 12319,2103 12318,2086 12369,2082 "/>
   <polygon class="fil0" points="4249,2479 4197,2484 4196,2467 4247,2462 "/>
   <polygon class="fil0" points="3632,2497 3581,2502 3580,2485 3631,2480 "/>
   <polygon class="fil0" points="12027,480 11976,485 11975,468 12026,463 "/>
   <polygon class="fil0" points="2642,2564 2591,2568 2590,2551 2641,2547 "/>
   <polygon class="fil0" points="2352,2589 2301,2593 2300,2576 2351,2572 "/>
   <polygon class="fil0" points="1470,2509 1419,2513 1418,2496 1469,2492 "/>
   <polygon class="fil0" points="13074,2297 13023,2301 13021,2284 13073,2280 "/>
   <path class="fil0" d="M14056 1939l104 8c-62,6 -62,13 -104,-8z"/>
   <path class="fil0" d="M9762 2509l-3 -34c56,-5 6,31 3,34z"/>
   <path class="fil0" d="M5121 2440c-16,19 -64,-20 -21,-8 1,0 47,-23 21,8z"/>
   <path class="fil0" d="M14364 1724c-16,19 -63,-19 -20,-8 0,1 47,-23 20,8z"/>
   <path class="fil0" d="M12817 2302c-16,19 -64,-20 -21,-8 1,0 47,-23 21,8z"/>
   <path class="fil0" d="M409 2342c-16,19 -64,-20 -21,-8 1,0 47,-23 21,8z"/>
   <path class="fil0" d="M12516 782c-16,19 -63,-19 -20,-7 0,0 46,-24 20,7z"/>
   <path class="fil0" d="M3804 2500c-16,19 -64,-19 -21,-8 1,0 47,-23 21,8z"/>
   <path class="fil0" d="M12218 2524c-16,19 -64,-19 -21,-7 1,0 47,-24 21,7z"/>
   <path class="fil0" d="M14524 1779c-16,19 -64,-19 -21,-7 0,0 47,-24 21,7z"/>
   <path class="fil0" d="M2710 2558c-16,19 -63,-19 -20,-7 0,0 46,-24 20,7z"/>
   <path class="fil0" d="M13712 715c-16,19 -63,-19 -20,-8 0,1 46,-23 20,8z"/>
   <path class="fil0" d="M14213 1960c-16,19 -64,-19 -21,-7 1,0 47,-24 21,7z"/>
   <path class="fil0" d="M9589 69c-16,19 -64,-19 -21,-7 1,0 47,-24 21,7z"/>
   <path class="fil0" d="M10545 211c-16,19 -64,-19 -20,-7 0,0 46,-24 20,7z"/>
   <path class="fil0" d="M13314 680c-16,19 -63,-19 -20,-7 0,0 47,-24 20,7z"/>
   <path class="fil0" d="M11601 516c-16,19 -64,-19 -20,-7 0,0 46,-24 20,7z"/>
   <path class="fil0" d="M12394 758c-16,19 -64,-19 -20,-7 0,0 46,-24 20,7z"/>
   <path class="fil0" d="M14914 1935l-103 -9c7,0 47,-5 52,-5l51 14z"/>
   <path class="fil0" d="M9676 79c23,20 -18,24 -8,1l8 -1z"/>
   <polygon class="fil0" points="14578,1809 14595,1807 14582,1829 "/>
   <polygon class="fil0" points="14492,1816 14491,1799 14512,1812 "/>
   <path class="fil0" d="M12063 700l0 8c-16,0 27,31 -5,-1l5 -7z"/>
   <path class="fil0" d="M10598 224c-2,2 -6,-7 -6,-5l0 0c1,1 7,3 6,5z"/>
   <path class="fil0" d="M3683 2493c-1,2 -5,-7 -5,-5l0 0c0,1 7,3 5,5z"/>
   <path class="fil0" d="M4283 2476c-2,2 -6,-7 -6,-4l0 0c1,0 7,3 6,4z"/>
   <path class="fil0" d="M14848 2370l-5 -5c0,0 7,3 5,5z"/>
   <path class="fil0" d="M10406 189l-6 -5c1,0 8,3 6,5z"/>
   <path class="fil0" d="M9867 114l-5 -4c0,0 7,2 5,4z"/>
   <path class="fil0" d="M13013 774l-5 -4c0,0 7,2 5,4z"/>
   <path class="fil0" d="M4317 2473l-6 -4c1,0 7,3 6,4z"/>
   <path class="fil0" d="M9781 104l-6 -4c1,0 7,3 6,4z"/>
   <path class="fil0" d="M255 2149l-5 -5c0,0 7,3 5,5z"/>
   <path class="fil0" d="M12255 736l-6 -5c1,0 7,3 6,5z"/>
   <path class="fil0" d="M12944 763l-6 -5c1,1 7,3 6,5z"/>
   <path class="fil0" d="M5298 2510l-5 -4c0,0 7,3 5,4z"/>
   <path class="fil0" d="M13107 663l-5 -4c0,0 7,3 5,4z"/>
   <path class="fil0" d="M14455 1785l-5 -5c0,1 7,3 5,5z"/>
   <path class="fil0" d="M14943 2070l-5 -5c0,0 7,3 5,5z"/>
   <polygon class="fil0" points="9762,2509 9755,2547 "/>
   <polygon class="fil0" points="1696,2541 1664,2564 "/>
   <polygon class="fil0" points="14578,1809 14540,1803 "/>
   <polygon class="fil0" points="14157,1707 14194,1714 "/>
   <polygon class="fil0" points="14914,1935 14952,1941 "/>
  </g>
  <g id="_2227296272816">
   <path class="fil1" d="M10286 919l0 0c-9,0 -20,0 -30,0 -5,0 -10,0 -15,0 -2,2 -4,2 -6,2 -1,1 -2,1 -4,1 -1,0 -1,0 -2,0 -4,1 -9,1 -14,2 -10,0 -19,1 -29,2 -43,7 -84,19 -124,36 -69,29 -129,72 -179,126 -7,7 -14,14 -21,20 -49,45 -88,98 -118,157 -42,82 -64,169 -65,261 -2,35 0,71 5,106 5,42 15,83 28,123 34,91 81,167 143,229 61,62 127,109 197,140 56,26 115,41 176,45 13,1 25,1 37,0 27,-1 55,-5 82,-11 85,-20 159,-60 221,-121 16,-16 32,-32 48,-48 3,-4 7,-7 11,-10 41,-43 74,-91 99,-144 42,-91 65,-186 70,-286 2,-39 1,-78 -3,-117 -3,-40 -10,-81 -21,-121 -12,-51 -32,-100 -58,-145 -41,-71 -97,-127 -167,-169 -65,-39 -135,-63 -211,-72 -9,-1 -19,-1 -27,-2 -5,0 -9,0 -13,-1 0,0 0,0 -1,0 -3,0 -6,-1 -9,-3zm480 577l0 0c0,96 -15,185 -43,265 -17,49 -40,95 -70,138 -27,38 -59,72 -96,100 -49,36 -102,61 -161,75 -27,6 -55,10 -84,12 -9,1 -19,1 -29,0 -56,-3 -109,-17 -160,-40 -73,-32 -138,-78 -195,-136 -56,-59 -99,-127 -129,-204 -15,-42 -26,-85 -32,-130 -5,-34 -6,-66 -5,-99 2,-94 25,-182 69,-264 42,-76 99,-138 172,-185 53,-34 111,-57 172,-68 40,-7 81,-10 122,-7 55,3 108,14 160,34 116,46 200,125 252,238 18,40 32,81 40,123 6,27 10,54 13,80 2,28 4,51 4,68zm-487 -191l0 0c-14,0 -28,1 -43,3 -39,7 -73,23 -103,49 -48,42 -73,94 -76,156 -2,53 12,100 42,143 33,46 77,78 131,95 25,9 50,12 76,10 9,0 17,-2 25,-3 46,-10 83,-32 113,-68 14,-17 25,-36 33,-56 9,-22 14,-45 17,-69 6,-39 3,-78 -8,-115 -21,-66 -63,-109 -129,-132 -24,-9 -51,-13 -78,-13zm-190 219l0 0c0,-34 8,-66 25,-95 3,-7 8,-12 16,-16 26,-16 56,-23 87,-25 25,-1 49,2 74,10 61,20 99,60 115,122 12,48 10,96 -6,143 -5,13 -10,25 -17,37 -3,4 -6,8 -11,11 -16,8 -33,14 -50,17 -9,2 -18,3 -27,3 -18,0 -35,-2 -52,-7 -47,-16 -86,-44 -116,-84 -19,-24 -31,-52 -36,-83 -1,-7 -1,-15 -1,-22 -1,-4 -1,-7 -1,-11z"/>
   <path id="1" class="fil1" d="M11515 926l0 0c0,1 -1,3 -1,4 -1,2 -1,4 -1,7 -1,4 -1,8 -1,13 -1,4 -1,9 -1,13 -1,4 -2,7 -2,9 -2,1 -5,2 -9,3 -3,0 -5,0 -7,1 -3,0 -6,0 -8,0 -6,1 -13,2 -20,2 -2,1 -3,3 -3,6 -1,0 -1,1 -1,1 -1,4 -1,8 -1,12 -2,17 -3,36 -4,54 -1,10 -2,20 -2,29 -1,12 -2,24 -3,36 -1,13 -2,27 -2,41 -1,3 -1,6 -1,9 -1,8 -1,16 -2,23 -1,14 -2,29 -3,43 -2,13 -2,24 -3,36 -1,10 -1,19 -2,28 -1,15 -2,31 -3,46 0,1 0,2 -1,3 -1,8 -1,16 -2,24 -1,14 -2,28 -3,42 -1,12 -1,24 -2,36 -1,10 -2,20 -3,29 -1,16 -2,32 -3,48 -1,7 -1,14 -2,21 -1,15 -2,30 -3,45 -1,12 -2,23 -4,35 -3,18 -8,36 -16,52 -2,4 -5,7 -9,8 -1,0 -2,1 -3,2 -2,0 -4,1 -6,1 -25,8 -51,9 -78,4 -28,-5 -51,-21 -68,-45 -9,-13 -15,-26 -19,-40 -8,-29 -11,-58 -9,-88 0,-3 0,-6 1,-8 0,-7 0,-13 1,-19 1,-5 1,-9 1,-13 1,-15 2,-31 3,-47 1,-10 2,-20 3,-29 1,-13 1,-25 2,-38 2,-13 2,-25 3,-38 1,-9 1,-18 2,-27 0,-9 1,-18 2,-28 0,-3 1,-7 1,-10 0,-3 0,-6 0,-9 2,-16 3,-32 4,-48 1,-8 2,-15 2,-23 1,-15 2,-30 3,-44 1,-12 2,-24 3,-36 0,-9 1,-18 2,-28 1,-15 2,-30 4,-45 0,-10 1,-19 1,-28 1,-12 2,-23 3,-34 0,-3 0,-6 0,-9 0,0 0,-1 -1,-1 -1,0 -1,0 -2,0 -2,-1 -4,-2 -7,-2 -8,0 -15,0 -22,0 -31,-1 -62,-1 -93,-2 -61,0 -122,-1 -183,-2 -20,0 -41,0 -62,-1 -1,0 -3,1 -5,1 0,0 0,0 0,0 -1,0 -3,1 -3,2 -1,1 -2,2 -2,4 -1,5 -2,11 -2,18 0,2 0,5 0,8 -1,4 -1,9 -1,13 -1,5 -3,7 -8,7 -4,0 -8,0 -12,0 -3,0 -6,0 -10,0 -5,0 -10,0 -14,0 -1,0 -3,1 -3,2 -1,0 -2,1 -2,2 0,2 -1,4 -1,7 -1,6 -2,13 -2,20 -1,13 -2,25 -3,37 0,10 -1,20 -1,29 -1,13 -2,25 -3,38 -1,4 -1,9 -1,14 -1,7 -1,15 -2,23 -1,15 -2,30 -3,46 -1,12 -2,23 -3,35 0,9 -1,18 -2,28 -1,13 -2,27 -3,40 0,3 0,6 -1,9 0,7 -1,15 -2,22 -1,15 -2,29 -3,44 0,7 0,15 -1,22 -1,13 -2,27 -3,41 -3,27 -4,54 -5,81 -1,58 3,116 11,173 7,42 17,84 32,124 20,58 50,112 89,160 53,66 120,111 200,136 44,13 88,20 133,21 9,0 17,0 26,0 6,0 11,0 17,0 30,1 59,-1 89,-6 34,-5 67,-13 99,-25 66,-26 123,-65 171,-118 5,-6 11,-11 16,-16 37,-34 68,-72 94,-114 30,-48 52,-99 67,-153 10,-35 17,-69 23,-104 2,-22 5,-43 7,-65 1,-14 2,-27 3,-40 1,-7 1,-14 2,-21 1,-14 2,-28 2,-42 1,-3 1,-6 1,-8 1,-8 1,-16 2,-24 1,-14 2,-28 3,-42 1,-13 2,-26 3,-39 1,-9 1,-18 2,-26 0,-9 1,-17 1,-25 1,-5 1,-9 2,-13 0,-6 0,-12 1,-18 1,-13 2,-25 3,-37 0,-9 1,-18 2,-27 1,-13 2,-26 3,-40 0,-9 1,-20 2,-30 1,-12 1,-23 2,-34 2,-19 4,-39 5,-59 1,-17 3,-34 4,-51 1,-18 3,-36 4,-54 1,-9 1,-18 2,-28 0,-4 0,-6 -1,-8 -1,-1 -4,-2 -7,-1 -8,0 -16,0 -23,2 -8,0 -16,1 -24,2 -7,1 -15,2 -22,2 -10,1 -19,2 -27,3 -7,0 -13,1 -20,2 -12,0 -24,2 -37,4 -6,0 -12,1 -19,1 -9,2 -18,3 -26,3 -10,1 -19,2 -29,3 -6,0 -13,1 -20,2 -9,1 -17,2 -26,3 -4,0 -8,0 -12,1 -6,0 -11,1 -17,1 -14,2 -28,3 -42,5 -7,1 -14,1 -21,2 -3,1 -6,1 -9,1zm29 31l0 0c1,-2 2,-2 4,-3 2,-1 4,-1 6,-1 0,0 0,0 0,0 7,0 14,-1 20,-2 9,-1 18,-1 27,-2 10,-1 20,-2 31,-4 5,0 11,-1 17,-1 2,0 4,-1 6,-1 11,-1 22,-2 32,-3 7,-1 14,-2 21,-3 9,0 18,-1 27,-2 9,-1 19,-1 28,-3 7,0 13,-1 20,-2 9,-1 18,-2 27,-3 4,0 7,0 10,-1 3,0 6,-1 8,-1 8,0 15,-1 23,-2 2,0 4,0 7,0 0,0 1,0 1,0 1,0 2,0 3,1 0,1 1,2 1,3 0,4 0,7 -1,10 0,11 -1,21 -2,32 -1,26 -3,53 -6,79 0,12 -1,24 -2,35 -1,10 -2,20 -3,30 -1,17 -2,34 -3,52 -1,9 -2,19 -2,28 -1,12 -2,25 -3,38 -1,13 -2,26 -3,39 -1,8 -1,17 -2,25 -1,16 -2,30 -3,45 -1,9 -2,18 -2,27 -1,12 -2,24 -3,36 -1,15 -2,30 -3,45 -1,7 -1,15 -2,23 -1,8 -1,14 -2,21 0,11 -1,21 -2,31 0,5 -1,10 -1,15 -1,13 -2,25 -3,38 -8,76 -26,150 -56,221 -23,52 -54,99 -92,141 -39,42 -84,75 -136,98 -30,13 -60,23 -92,28 -35,7 -70,10 -106,10 -5,0 -10,0 -15,0 -9,0 -18,0 -26,0 -43,-1 -86,-8 -127,-22 -76,-24 -138,-67 -187,-128 -34,-43 -59,-90 -77,-140 -15,-40 -25,-81 -32,-123 -8,-50 -12,-99 -12,-150 0,-32 2,-64 5,-96 1,-12 2,-25 3,-39 0,-7 1,-14 1,-21 1,-16 2,-32 4,-48 0,-8 1,-15 1,-23 1,-5 1,-10 2,-15 1,-12 2,-24 3,-36 0,-10 1,-20 2,-29 1,-12 2,-25 2,-38 1,-12 2,-25 3,-38 1,-8 2,-17 2,-26 1,-17 3,-34 4,-52 1,-10 2,-20 2,-30 1,-9 2,-19 2,-28 0,0 0,0 0,0 0,-2 0,-4 1,-6 0,-1 1,-2 2,-2 0,-1 1,-1 1,-1 2,0 4,0 6,0 3,0 6,0 10,0 25,0 51,0 77,1 28,0 56,0 84,0 22,1 44,1 66,1 18,0 36,1 54,1 3,0 7,0 11,0 1,0 2,0 4,0 0,0 0,0 1,1 0,0 1,1 1,2 1,0 1,1 1,1 0,1 0,2 0,3 0,2 0,4 -1,5 0,1 0,1 0,2 -2,28 -4,55 -6,83 -1,16 -2,33 -4,49 -1,20 -3,40 -5,60 0,12 -1,24 -1,35 -1,10 -2,20 -3,31 -1,13 -2,27 -3,40 -1,9 -1,17 -2,25 0,1 0,3 0,4 -1,15 -2,31 -4,47 0,9 -1,18 -1,28 -2,12 -2,24 -3,36 -2,22 -3,43 -5,65 -3,28 -2,56 2,84 4,26 13,50 26,72 16,26 38,45 67,57 14,5 27,8 41,9 14,1 28,1 41,1 42,-4 77,-22 104,-54 18,-23 31,-49 37,-77 4,-17 6,-33 7,-50 1,-16 2,-31 3,-46 1,-7 2,-15 2,-21 0,-3 0,-6 1,-9 1,-14 2,-29 3,-43 1,-10 1,-19 2,-29 1,-13 2,-25 3,-37 0,-13 1,-26 2,-39 1,-8 2,-16 2,-25 2,-15 3,-31 4,-46 1,-9 2,-18 2,-27 1,-12 2,-24 3,-36 1,-15 2,-30 3,-45 1,-8 1,-16 2,-23 0,-4 0,-8 1,-11 1,-13 1,-25 2,-37 1,-10 2,-20 2,-29 1,-12 2,-23 3,-34 1,-16 2,-33 3,-49 0,0 1,-1 1,-1 0,-1 1,-1 1,-1z"/>
   <path id="2" class="fil1" d="M11853 1337l0 0c0,8 0,16 0,24 1,-1 3,-1 5,-1 3,-1 7,-2 10,-2 18,-1 37,-2 56,-3 14,-2 28,-3 43,-4 8,-1 17,-1 25,-1 1,0 2,-1 4,-1 0,0 2,0 3,0 23,-2 46,-3 69,-5 3,0 6,0 8,-1 8,0 16,-1 24,-1 9,-1 18,-1 26,-1 2,0 4,0 5,1 1,1 1,2 1,3 0,6 0,11 0,16 0,106 0,210 -1,315 -1,100 -3,201 -4,301 0,40 0,81 -1,122 0,6 0,12 0,18 0,4 2,5 6,5 16,2 32,3 49,4 10,0 20,1 29,2 3,0 6,0 9,0 8,0 15,1 22,1 11,1 22,2 34,2 18,1 37,2 56,3 2,0 3,0 5,0 1,0 3,0 5,0 0,0 1,0 1,0 8,1 15,1 24,1 19,2 38,3 57,4 11,1 21,1 32,2 1,0 2,0 2,0 2,0 3,0 3,0 4,0 7,0 10,1 19,0 38,1 57,2 3,0 5,-2 6,-6 0,-4 0,-8 -1,-12 0,-3 0,-6 0,-10 0,-5 0,-11 -1,-16 0,0 0,0 0,0 0,-3 0,-5 1,-7 0,-1 1,-1 1,-2 1,0 2,-1 3,-1 7,0 15,0 22,0 4,1 8,1 11,1 4,1 7,1 11,1 1,0 3,0 3,-1 1,-1 2,-2 2,-4 0,-4 0,-8 0,-12 -1,-5 -1,-10 -1,-15 -1,-7 -1,-14 -1,-20 -2,-36 -3,-73 -5,-109 -1,-12 -1,-23 -2,-36 -1,-21 -2,-44 -3,-66 -1,-25 -3,-50 -4,-75 -1,-25 -2,-50 -3,-75 -1,-24 -2,-46 -4,-69 0,-3 0,-7 0,-9 -2,-44 -4,-88 -6,-132 -2,-46 -4,-91 -6,-137 0,-1 0,-2 0,-3 0,0 0,-1 0,-1 0,-2 1,-3 2,-4 0,-1 1,-2 2,-2 1,0 2,0 2,0 2,0 4,-1 6,-1 15,-1 29,-2 45,-3 6,0 13,-1 19,-1 3,0 6,-1 9,-1 1,0 1,0 2,0 7,0 13,-1 20,-1 15,-2 30,-3 45,-4 13,-1 26,-2 39,-3 8,0 15,-1 21,-1 2,0 4,0 5,-1 0,0 1,0 1,0 1,0 2,-1 3,-1 1,-1 1,-2 1,-3 0,-5 1,-8 1,-13 0,-3 0,-7 0,-11 0,-5 0,-10 0,-15 0,-4 2,-5 6,-5 7,-1 12,-2 18,-2 7,-1 13,-1 18,-2 3,0 5,0 7,-1 1,0 1,0 2,-1 0,0 0,-1 0,-2 1,-4 1,-8 1,-13 0,-109 0,-218 0,-327 0,-4 0,-7 0,-10 -1,-4 -2,-6 -5,-6 -1,0 -2,0 -3,0 -6,0 -13,1 -19,1 -7,1 -14,2 -22,3 -3,0 -5,0 -7,1 -14,1 -27,2 -41,3 -1,1 -2,1 -3,1 -5,0 -10,1 -15,2 -12,1 -23,2 -34,3 -9,1 -17,1 -26,2 -8,0 -15,1 -23,2 -10,1 -19,2 -29,3 -2,1 -5,1 -7,1 -6,0 -12,1 -17,2 -11,1 -22,2 -33,3 -8,1 -16,1 -25,2 -7,1 -14,2 -22,2 -19,2 -39,4 -58,6 -2,0 -4,1 -5,1 -10,1 -19,2 -29,2 -5,1 -9,1 -14,2 -5,1 -10,1 -15,1 -11,2 -23,3 -35,4 -8,1 -17,1 -25,3 -8,0 -15,1 -23,1 -9,2 -18,2 -28,3 -2,1 -5,1 -8,1 -6,1 -11,1 -17,1 -11,2 -22,3 -33,4 -8,1 -17,2 -25,3 -8,0 -16,1 -23,1 -19,2 -37,4 -56,6 -2,0 -4,0 -6,0 -11,2 -20,3 -30,4 -5,0 -9,1 -14,2 -5,0 -10,0 -15,1 -11,1 -23,2 -34,3 -10,1 -19,2 -28,2 -7,1 -14,2 -21,2 -8,1 -16,2 -25,3 -1,1 -1,1 -1,1 -1,0 -2,0 -3,0 -1,0 -1,0 -2,0 -1,0 -2,1 -3,2 0,1 -1,2 -1,3 0,3 0,7 0,11 0,4 -1,7 -1,11 0,5 0,10 0,14 0,5 -3,7 -7,7 -5,1 -10,2 -14,2 -8,1 -15,1 -22,2 -2,0 -4,1 -6,2 0,0 -1,0 -1,0 0,1 -1,1 -1,1 -1,5 -1,9 -1,13 -2,58 -3,116 -4,173 0,13 0,26 0,39 0,5 0,10 0,15 0,13 -1,26 -1,39 0,5 -1,11 -3,17 -1,1 -1,2 -2,3 0,0 -1,1 -1,1zm361 310l0 0c1,-24 1,-48 1,-71 0,-56 1,-112 1,-168 0,-37 0,-74 0,-110 0,-9 0,-18 0,-28 0,-4 -1,-9 -1,-13 0,0 0,-1 -1,-1 0,-1 0,-1 -1,-1 -3,-1 -6,-1 -9,0 -17,1 -34,2 -52,3 -5,1 -8,1 -12,1 -1,0 -2,0 -3,1 -1,0 -3,0 -4,0 -7,1 -15,1 -22,2 -15,0 -30,1 -46,2 -12,1 -25,2 -37,3 -11,1 -21,2 -31,3 -13,1 -26,1 -40,2 -3,0 -6,0 -9,1 -2,0 -3,-1 -4,-2 -1,-1 -1,-2 -1,-3 0,-4 0,-8 0,-12 1,-77 2,-154 4,-232 0,-3 0,-6 1,-9 0,-1 0,-2 1,-2 0,-1 1,-2 1,-2 3,0 5,0 7,0 7,-2 13,-3 20,-3 12,-1 25,-3 37,-4 6,0 11,-1 18,-1 4,-1 9,-2 14,-2 7,-1 15,-2 22,-3 7,0 15,-1 22,-1 9,-1 17,-2 26,-3 12,-1 23,-2 35,-4 4,0 9,0 14,0 5,-1 9,-2 13,-2 10,-1 20,-2 31,-4 2,0 4,0 7,0 18,-2 37,-4 55,-6 9,0 19,-1 28,-2 7,-1 14,-2 21,-2 14,-1 29,-3 43,-4 20,-2 39,-4 59,-6 10,-1 19,-2 30,-3 6,0 12,-1 18,-2 3,0 5,-1 8,-1 10,-1 20,-2 31,-3 6,-1 14,-1 21,-2 9,0 18,-1 26,-3 10,0 20,-1 31,-2 6,-1 12,-1 19,-3 10,0 20,-1 31,-2 4,-1 8,-1 12,-2 6,-1 12,-1 17,-2 15,-1 29,-2 44,-4 10,-1 19,-1 28,-3 7,0 13,-1 20,-1 3,0 6,-1 9,-1 2,0 4,-1 6,-1 1,0 2,0 3,0 3,-1 7,-1 10,-1 3,0 5,1 6,1 1,1 2,3 2,7 0,1 0,3 0,4 0,0 0,0 0,1 0,2 0,4 0,5 0,1 0,1 0,1 0,23 0,46 0,69 0,63 0,126 0,189 0,2 0,3 0,5 0,4 0,8 0,10 -1,2 -2,3 -3,4 -2,0 -5,1 -8,1 -2,0 -5,1 -8,1 -2,0 -4,0 -6,0 -7,1 -15,1 -22,2 -14,1 -29,2 -43,4 -15,1 -30,2 -45,3 -7,0 -13,1 -20,1 0,0 -1,1 -2,1 -1,0 -2,0 -4,0 -7,0 -14,1 -21,1 -15,1 -29,2 -44,3 -12,1 -24,2 -37,4 -3,0 -7,0 -11,0 -1,0 -1,1 -2,2 -1,0 -2,1 -3,2 0,0 0,1 0,1 0,2 0,3 0,4 0,5 0,10 0,15 2,27 4,54 5,81 0,8 1,16 1,24 0,1 0,2 0,3 0,2 1,5 1,7 0,11 1,22 1,34 1,24 2,48 3,72 1,23 2,47 3,70 1,10 2,19 2,30 0,0 0,1 0,2 0,2 0,3 0,4 1,12 1,23 2,34 1,25 2,50 3,75 2,23 3,46 4,69 0,10 1,20 1,30 0,1 0,1 0,2 0,2 0,3 0,5 1,11 1,22 1,33 2,25 3,50 4,75 1,20 2,40 3,60 1,14 2,27 2,40 0,7 0,15 1,22 0,2 0,5 0,8 0,1 0,3 0,4 0,4 -2,6 -6,6 -6,0 -12,-1 -18,-1 0,0 -1,0 -2,0 -5,0 -10,0 -15,0 -5,-1 -10,-1 -15,-1 -8,-1 -16,-2 -24,-2 -6,0 -11,0 -16,-1 -1,0 -2,0 -3,0 -1,0 -2,0 -3,0 -10,-1 -20,-1 -30,-2 -21,-1 -42,-2 -62,-3 -18,-1 -36,-2 -54,-3 -12,0 -24,-1 -36,-2 -6,0 -12,-1 -19,-1 -3,0 -6,0 -9,0 -2,0 -4,0 -6,0 -5,-1 -9,-1 -14,-1 -5,0 -8,-1 -9,-3 -1,-2 -1,-5 -1,-8 0,-14 0,-27 0,-40 0,-15 1,-30 1,-45 1,-59 1,-118 2,-176 0,-29 0,-58 0,-86 1,-13 1,-25 1,-37 0,0 0,0 0,0z"/>
   <path id="3" class="fil1" d="M13252 1302l0 0c-1,-2 -2,-3 -2,-4 0,-2 0,-3 0,-5 0,-1 0,-1 0,-1 0,-17 0,-34 1,-50 0,-50 1,-101 1,-151 1,-58 2,-117 3,-175 0,-5 0,-10 0,-15 0,-1 -1,-2 -1,-3 -1,-1 -2,-1 -3,-1 0,0 -1,0 -1,0 -1,-1 -3,-1 -4,-1 -3,1 -5,1 -7,1 -11,0 -21,0 -31,1 -14,1 -27,2 -41,2 -15,1 -31,2 -47,3 -21,1 -42,2 -63,3 -10,1 -19,1 -28,1 -1,0 -2,1 -3,1 -1,0 -2,0 -3,0 -8,1 -17,1 -26,1 -23,2 -47,3 -70,4 -12,1 -24,1 -35,2 -12,1 -23,1 -35,2 -2,0 -3,0 -4,1 -1,0 -1,1 -2,1 0,0 0,1 -1,1 -1,2 -1,4 -1,5 0,5 0,10 0,15 0,2 0,5 0,7 0,1 0,1 0,2 0,4 0,8 0,11 0,5 -2,7 -7,7 -1,0 -2,0 -3,0 -1,0 -1,0 -2,0 -2,1 -5,1 -8,1 -9,0 -17,1 -27,2 -3,0 -5,2 -5,5 0,7 0,13 0,20 0,34 0,69 1,104 1,64 1,129 2,194 1,107 2,215 2,322 0,44 0,88 0,133 0,8 0,16 0,24 0,14 0,27 0,40 -2,50 -1,101 2,152 0,4 0,9 0,15 1,13 2,27 3,40 0,2 0,4 0,5 1,11 2,22 3,33 0,0 0,1 1,2 0,1 0,2 0,4 1,0 1,1 1,1 3,3 8,4 12,4 0,0 0,0 1,0 8,1 17,1 25,2 9,0 19,1 28,2 16,1 31,2 47,4 7,1 15,2 22,2 10,1 20,2 31,3 8,1 17,2 26,3 10,0 19,1 28,2 9,1 19,1 29,3 7,0 15,1 22,1 15,2 30,4 45,5 5,0 10,0 15,0 4,0 6,-1 6,-5 1,-5 1,-10 1,-14 0,-1 0,-2 0,-3 0,-3 0,-6 0,-10 0,-5 0,-11 1,-17 0,-4 2,-6 8,-6 3,1 5,1 7,1 8,1 15,1 22,2 6,1 11,1 12,-1 2,-2 2,-6 2,-12 0,-5 1,-10 1,-15 0,-1 0,-2 0,-4 0,-7 0,-14 0,-22 0,-17 1,-35 1,-52 1,-34 2,-67 2,-100 1,-35 2,-70 3,-105 1,-12 1,-24 1,-36 0,-9 1,-17 1,-25 0,-5 0,-10 1,-15 0,-2 0,-3 1,-4 1,-1 2,-1 4,-1 1,0 2,0 4,0 5,1 9,1 14,2 8,2 17,3 25,4 17,3 34,6 50,8 5,0 10,1 12,2 3,1 4,2 4,4 1,2 0,6 0,10 0,1 0,3 0,4 0,24 -1,48 -3,73 0,10 -1,20 -1,30 0,0 0,0 0,1 0,0 0,0 0,1 -1,10 -2,21 -2,31 -1,24 -2,48 -4,73 -1,23 -2,46 -2,69 -1,13 -1,25 -2,37 0,3 0,5 -1,6 0,2 0,4 0,6 0,18 -1,36 -2,55 0,1 0,2 1,4 0,0 0,0 0,1 0,1 0,2 1,3 1,1 2,1 3,1 1,0 2,0 3,0 3,1 6,1 10,1 4,1 9,1 14,1 6,1 11,1 17,1 11,1 22,2 34,3 14,1 27,2 41,2 18,1 36,3 54,4 9,0 17,1 25,1 2,0 3,1 5,1 0,0 1,0 2,0 4,0 8,0 12,0 22,2 44,3 66,5 13,0 26,1 38,2 0,0 1,0 1,0 5,0 11,0 16,1 4,0 7,-1 8,-2 1,-1 1,-3 1,-7 1,-6 1,-11 1,-16 0,-2 0,-4 0,-6 0,-2 0,-3 0,-4 0,-4 0,-8 1,-12 0,-1 0,-2 1,-4 0,-1 0,-1 1,-1 0,-1 1,-1 1,-1 2,-1 4,-1 7,-1 6,0 12,1 19,1 5,0 10,0 15,0 4,0 6,-1 6,-4 0,-2 0,-5 0,-7 1,-8 2,-15 2,-23 1,-46 3,-91 4,-137 1,-42 1,-84 2,-126 1,-21 1,-42 2,-63 0,-3 0,-5 0,-6 0,-2 0,-4 1,-5 0,-14 0,-28 1,-42 1,-54 2,-109 4,-163 0,-8 0,-15 1,-23 0,-8 0,-16 0,-24 1,-27 1,-53 2,-80 1,-30 2,-61 3,-92 1,-38 2,-76 3,-114 1,-30 2,-60 2,-91 1,-32 2,-63 3,-95 0,-13 0,-25 1,-37 0,-5 0,-10 0,-16 0,-2 0,-3 1,-5 0,-3 0,-7 0,-11 0,-5 -3,-7 -7,-7 -2,0 -3,0 -5,0 -11,-2 -23,-3 -35,-3 -15,-1 -29,-3 -44,-4 -7,0 -15,-1 -22,-1 -1,0 -3,0 -4,0 -1,0 -2,0 -3,0 -6,-1 -13,-2 -19,-2 -15,-1 -30,-2 -45,-3 -13,-2 -26,-3 -38,-3 -10,-1 -20,-1 -29,-2 -16,-1 -32,-2 -47,-3 -9,-1 -16,-2 -24,-2 -14,-2 -29,-3 -43,-4 -3,0 -6,0 -8,0 -8,-2 -13,-1 -15,0 -1,2 -1,7 -1,14 0,2 0,5 0,9 1,5 1,10 1,16 0,3 0,6 1,10 -1,1 -1,2 -2,3 0,1 -1,1 -2,1 -1,1 -2,1 -2,1 -1,0 -2,0 -3,0 -11,-1 -21,-1 -32,-1 0,-1 -1,-1 -2,-1 -1,0 -2,0 -2,0 -1,0 -2,0 -3,0 -4,-1 -7,1 -7,6 0,3 1,5 1,7 0,1 0,1 0,2 1,11 1,23 2,34 1,26 2,50 3,75 1,35 2,70 3,104 1,15 1,30 2,44 0,2 0,4 0,6 0,3 0,7 0,9 1,35 2,71 2,105 0,3 0,6 0,8 0,1 0,2 0,3 0,0 0,1 0,2 0,0 0,1 0,1 0,3 -2,5 -5,5 -10,0 -21,-2 -31,-3 -5,-1 -10,-2 -16,-3 -2,0 -5,-1 -8,-1 -2,0 -3,-1 -4,-1zm458 -398l0 0c1,1 2,2 2,4 0,2 0,3 0,4 0,1 0,1 0,1 0,20 -1,40 -1,59 -1,30 -2,60 -3,89 -1,45 -2,89 -3,134 -1,17 -1,34 -1,51 -1,1 -1,2 -1,4 0,1 0,2 0,3 -1,19 -1,38 -1,57 -1,43 -2,84 -3,126 -2,44 -3,88 -4,132 0,19 -1,38 -1,58 0,0 0,1 0,2 0,1 0,3 0,4 -1,20 -2,39 -2,59 -1,44 -3,87 -4,131 -1,53 -2,106 -3,159 -1,7 -2,14 -2,21 0,2 0,4 0,6 0,1 0,2 -1,3 -1,1 -2,1 -3,1 -2,0 -3,0 -5,-1 -12,0 -24,0 -35,0 -6,-1 -13,-1 -19,-2 -4,0 -8,0 -11,-1 -18,-1 -36,-2 -54,-3 -11,-1 -21,-2 -31,-2 -1,0 -1,0 -2,0 -1,0 -2,0 -3,0 -8,-1 -16,-1 -24,-2 -18,-1 -36,-2 -54,-4 -11,0 -22,0 -33,-1 -3,-1 -7,-1 -10,-1 -1,0 -2,-1 -3,-2 -1,-1 -1,-2 -1,-2 0,-1 0,-1 0,-2 0,-6 0,-11 0,-16 0,-10 1,-19 1,-28 0,-5 1,-11 1,-16 1,-23 3,-46 3,-68 1,-15 2,-30 2,-45 0,-1 0,-2 0,-3 0,-1 1,-2 1,-3 0,-12 0,-23 1,-35 1,-25 2,-49 4,-74 1,-22 2,-45 3,-68 1,-11 1,-21 1,-31 0,-1 0,-2 0,-2 1,-2 1,-4 1,-5 0,-4 -2,-6 -6,-7 0,0 -1,0 -1,0 -3,-1 -5,-1 -7,-1 -16,-3 -31,-6 -47,-8 -23,-3 -46,-7 -70,-11 -14,-2 -28,-4 -41,-5 -11,-3 -22,-5 -33,-7 -5,0 -10,-1 -16,-1 -1,0 -2,0 -4,0 -1,-1 -2,-1 -3,0 -1,1 -1,2 -1,3 0,1 0,1 0,1 -1,2 -1,4 -1,6 0,6 0,12 0,17 -1,17 -1,34 -2,51 -1,39 -2,78 -2,117 -1,32 -1,63 -2,96 -1,35 -2,69 -3,104 0,13 0,25 0,37 0,0 0,0 0,0 0,5 -1,9 -1,13 0,4 -1,6 -2,7 -2,1 -5,2 -8,2 -9,-1 -18,-1 -28,-3 -9,0 -18,-1 -27,-2 -7,-1 -13,-1 -19,-2 -13,-1 -25,-2 -37,-3 -7,0 -14,-1 -22,-2 -11,0 -22,-2 -32,-3 -11,0 -21,-1 -32,-2 -7,-1 -14,-2 -21,-2 -8,-1 -17,-2 -26,-3 -5,0 -11,-1 -18,-2 0,0 0,0 -1,0 -1,0 -2,0 -3,-1 -1,0 -1,0 -2,-1 -1,-1 -1,-1 -1,-2 -1,-3 -2,-7 -2,-11 -4,-57 -6,-115 -6,-172 0,-4 0,-9 0,-14 1,-48 1,-96 1,-144 0,-18 0,-35 0,-52 0,-21 0,-42 0,-63 0,-11 -1,-22 -1,-33 0,-33 0,-66 0,-99 -1,-68 -2,-136 -2,-203 -1,-48 -1,-95 -2,-142 0,-28 0,-56 0,-85 0,-4 0,-9 0,-13 0,0 0,0 1,-1 0,-1 0,-1 1,-1 2,-1 5,-1 7,-2 10,0 21,-1 31,-1 13,-1 27,-2 40,-2 20,-1 41,-3 62,-4 8,0 16,-1 25,-2 0,0 1,0 1,0 2,0 3,0 4,0 10,0 21,0 31,-1 20,-1 41,-2 62,-3 10,0 20,-1 30,-1 12,-1 24,-2 36,-2 3,-1 5,-1 8,0 1,0 1,0 2,1 1,0 1,1 1,1 0,3 1,6 1,10 -1,36 -1,71 -2,106 0,18 0,35 -1,52 0,31 0,62 -1,93 0,29 -1,58 -1,87 0,5 0,10 -1,15 0,9 0,17 0,25 0,2 1,4 1,7 0,0 1,0 1,1 0,0 0,1 1,1 1,0 1,0 2,0 4,2 8,3 13,3 12,2 24,3 36,4 18,3 36,5 55,7 13,2 26,3 40,4 4,0 9,0 14,0 8,-2 13,-5 14,-13 2,-5 3,-11 4,-18 0,-5 0,-11 0,-18 0,-1 0,-1 0,-2 1,-57 0,-114 -2,-170 0,-5 0,-10 0,-15 0,0 0,-1 0,-1 0,-14 -1,-29 -2,-43 -1,-34 -2,-68 -3,-103 -1,-14 -1,-28 -2,-42 0,-10 0,-20 -1,-30 0,-3 0,-6 1,-9 0,-1 0,-1 1,-2 0,0 0,-1 1,-1 1,0 2,0 3,0 1,0 2,0 3,0 4,0 8,0 12,0 12,2 23,2 34,3 10,1 19,2 29,3 16,1 32,2 48,3 10,0 19,1 28,2 13,1 26,2 39,2 12,2 25,3 37,4 9,0 19,1 28,2 8,0 16,1 24,1 12,1 22,2 33,4z"/>
   <g>
    <path class="fil2" d="M9379 1246c0,0 -42,-105 -123,-170 0,0 400,-3 647,-346 0,0 -125,402 -524,516z"/>
    <path class="fil2" d="M9318 2170c0,0 -8,-700 -444,-1143 0,0 652,305 444,1143z"/>
    <path class="fil3" d="M9343 1501c-125,-415 -568,-506 -764,-864 309,303 921,434 764,864z"/>
    <circle class="fil3" cx="9270" cy="865" r="117"/>
   </g>
   <path class="fil4" d="M1791 908l0 0c-2,0 -3,0 -4,0 -1,1 -2,2 -4,2 -1,1 -3,1 -5,1 0,0 0,0 0,0 -8,1 -16,2 -23,3 -13,2 -27,4 -40,5 -14,2 -27,4 -41,5 -17,3 -34,5 -52,7 -19,2 -38,5 -57,7 -11,2 -23,3 -35,4 -7,1 -13,2 -19,2 -4,1 -9,1 -12,2 -5,1 -10,1 -15,2 -17,2 -34,5 -51,7 -10,1 -20,2 -30,3 -12,1 -23,3 -35,5 -9,1 -19,2 -29,4 -13,2 -25,5 -37,7 -8,1 -16,2 -24,3 -11,3 -23,5 -34,6 -23,5 -46,9 -69,12 -47,10 -95,17 -143,23 -5,1 -10,2 -15,3 -3,0 -5,1 -7,1 -3,0 -6,2 -6,6 0,5 0,10 0,14 0,4 0,7 0,11 0,3 0,7 0,10 0,1 -1,2 -2,3 -1,1 -2,1 -3,1 -1,1 -3,1 -4,1 -7,1 -13,2 -18,3 -8,1 -16,3 -24,4 0,1 0,2 0,2 0,1 -1,2 -1,3 0,4 0,8 0,12 0,18 0,35 0,53 0,23 0,45 0,68 0,14 0,27 0,41 -1,46 -1,92 -1,139 -1,30 -1,61 -1,92 -1,35 -1,71 -1,108 -1,113 -3,225 -5,338 0,16 0,32 0,49 0,42 1,83 4,125 1,7 1,14 3,20 0,1 0,2 0,3 0,4 3,6 6,6 6,0 12,0 17,0 242,0 483,0 724,0 0,0 1,0 2,0 4,0 9,0 13,0 2,0 4,-1 5,-1 1,0 2,-1 2,-1 1,-1 1,-1 1,-2 1,-3 2,-6 2,-9 0,-3 0,-7 1,-11 0,-3 0,-7 0,-10 0,-4 1,-8 1,-11 1,-5 3,-7 7,-7 3,0 5,0 8,0 4,0 7,0 11,0 5,0 11,0 17,0 4,0 5,-2 6,-6 1,-10 2,-19 3,-29 1,-12 2,-23 2,-35 1,-10 1,-20 2,-30 1,-11 2,-21 3,-32 1,-12 1,-23 2,-34 1,-12 2,-23 3,-35 0,-9 1,-18 2,-26 2,-16 3,-32 4,-47 1,-11 1,-23 2,-34 1,-9 2,-18 2,-26 1,-3 1,-4 1,-6 0,-5 -2,-8 -7,-8 -3,1 -7,1 -10,1 -1,0 -1,0 -2,0 -12,0 -24,1 -36,2 -26,1 -52,2 -78,3 -26,1 -51,2 -77,4 -11,0 -23,0 -34,0 -2,0 -2,0 -3,0 -1,0 -2,0 -3,0 -14,1 -30,2 -45,3 -26,1 -52,2 -78,3 -6,0 -12,1 -18,1 -8,0 -17,1 -25,1 -6,0 -11,1 -17,1 -1,0 -2,-1 -2,-2 -1,-1 -2,-2 -2,-3 0,0 0,0 0,-1 0,-1 0,-2 0,-3 0,-3 0,-5 0,-8 1,-15 2,-29 2,-44 0,-5 1,-7 2,-9 2,-1 4,-2 8,-2 4,0 7,0 11,0 1,0 2,0 3,0 17,0 34,0 50,0 47,0 93,0 139,0 6,0 12,0 18,0 3,0 4,-2 5,-5 0,-5 0,-10 0,-16 0,-2 0,-3 0,-4 0,-2 0,-5 0,-7 0,-4 0,-9 0,-13 0,-4 2,-6 7,-6 3,-1 6,-1 10,-1 2,0 3,0 4,0 3,0 5,0 8,0 6,0 12,0 18,0 1,0 2,0 3,-2 1,-1 2,-2 2,-3 0,-3 1,-5 1,-8 0,-76 0,-151 0,-227 0,-2 -1,-4 -1,-7 0,0 0,-1 0,-1 0,-1 -1,-2 -2,-3 0,-1 -2,-1 -2,-1 0,0 0,0 0,0 -4,-1 -8,-1 -11,-1 -21,0 -42,0 -63,-1 -50,0 -100,0 -149,-1 -3,0 -6,0 -10,0 -8,1 -16,0 -23,-2 -2,0 -2,-1 -2,-3 -1,-2 -1,-5 -1,-10 0,-5 0,-12 1,-21 0,-2 0,-5 1,-7 0,-1 0,-1 1,-2 0,0 0,-1 0,-1 5,-1 10,-2 15,-2 1,-1 2,-1 3,-1 17,-1 35,-2 53,-3 1,0 3,0 5,0 11,-1 22,-2 33,-3 12,-1 24,-1 36,-2 17,-1 34,-2 50,-3 10,-1 19,-2 28,-3 14,-1 27,-2 40,-3 23,-1 47,-3 70,-4 7,-1 11,-2 12,-4 2,-1 2,-5 1,-10 0,-3 0,-6 0,-9 0,-5 0,-9 0,-14 0,-3 1,-6 1,-9 0,-1 1,-2 1,-2 1,-1 2,-2 3,-2 10,-1 20,-2 30,-3 2,0 5,0 7,0 2,0 4,-1 6,-1 1,0 2,0 3,-1 1,-1 1,-2 1,-3 0,-1 0,-1 0,-1 0,-5 0,-10 0,-16 0,-90 0,-181 0,-272 0,-9 0,-19 0,-29 0,-1 0,-2 0,-3 1,-3 1,-6 0,-8 0,-3 0,-5 0,-6 0,-1 0,-2 0,-3zm-32 38l0 0c0,1 0,1 0,1 1,1 1,2 1,4 0,3 0,6 0,10 0,82 0,164 0,246 0,3 0,6 0,9 0,0 0,0 0,0 0,2 0,3 -1,4 -1,0 -2,1 -3,1 -2,0 -5,0 -7,1 -6,0 -12,1 -18,2 -12,0 -23,1 -35,2 -11,1 -21,1 -30,2 -18,1 -36,2 -54,3 -8,1 -15,1 -23,2 -1,0 -2,0 -2,0 -2,1 -4,1 -5,1 -8,1 -16,1 -24,2 -16,0 -32,1 -48,2 -12,1 -24,2 -36,3 -10,1 -20,2 -30,2 -15,2 -30,2 -45,3 -7,1 -13,1 -19,2 -1,0 -2,0 -4,0 -2,0 -4,0 -7,1 -4,0 -7,2 -7,7 0,4 0,8 0,12 -2,39 -3,78 -4,118 0,4 0,9 0,13 0,1 1,3 2,4 1,0 2,1 4,1 3,0 6,1 10,1 8,0 17,0 25,0 51,0 102,1 154,1 11,1 22,1 32,1 7,0 14,0 22,0 3,0 6,0 9,0 0,0 0,0 0,0 1,1 2,1 3,2 1,1 2,2 2,2 0,1 1,2 1,2 0,3 0,5 0,7 0,55 0,110 0,165 0,3 -1,6 -1,10 0,0 -1,0 -1,1 -1,0 -1,0 -1,1 -2,1 -4,1 -5,1 -5,0 -10,0 -15,0 -25,0 -51,0 -76,0 -55,0 -109,0 -164,0 -5,0 -10,0 -15,0 0,0 -1,0 -2,0 -1,0 -2,0 -3,1 -1,1 -1,2 -1,3 0,0 0,0 0,0 0,3 -1,6 -1,8 0,2 0,5 -1,7 0,10 0,20 0,29 -2,37 -4,74 -5,110 0,6 0,11 -1,15 0,3 0,6 0,9 0,2 1,3 2,4 1,1 2,1 4,1 1,0 3,0 5,0 3,0 6,0 9,0 12,0 23,-1 35,-2 29,-1 58,-2 87,-4 10,0 20,0 30,-1 2,0 3,0 5,0 3,0 5,-1 8,-1 7,0 13,0 20,0 16,-1 33,-2 50,-2 17,-1 34,-2 50,-3 21,-1 42,-1 63,-3 8,0 17,0 26,0 9,-1 17,-1 25,-1 0,0 1,0 1,-1 8,-1 13,0 14,2 2,1 3,6 1,13 0,1 0,2 0,2 -1,20 -3,40 -5,60 -1,27 -4,54 -6,81 0,12 -1,25 -3,37 0,9 -1,17 -1,26 -1,17 -3,35 -4,52 0,1 0,2 0,3 0,1 0,1 0,1 -1,2 -2,3 -3,4 -1,1 -2,2 -3,2 -2,0 -3,0 -5,0 -4,0 -8,0 -12,0 -1,0 -1,0 -1,0 -16,0 -31,0 -48,0 -206,0 -412,0 -619,0 -6,0 -11,0 -17,0 0,0 -1,0 -2,0 -1,0 -2,-1 -3,-2 0,-1 -1,-2 -1,-3 0,0 0,0 -1,-1 0,-1 0,-2 0,-3 -2,-37 -3,-74 -4,-110 0,-39 1,-79 2,-118 1,-47 2,-94 2,-140 0,-9 0,-18 0,-27 1,-28 1,-56 1,-85 1,-48 1,-96 2,-144 0,-56 0,-111 0,-167 0,-11 1,-22 1,-33 0,-32 0,-65 0,-98 0,-18 0,-36 0,-53 0,-4 0,-7 0,-11 0,-3 2,-5 6,-7 2,0 3,0 4,0 8,-1 15,-2 22,-3 32,-4 64,-9 95,-15 28,-5 56,-10 84,-15 9,-2 19,-4 29,-5 18,-3 37,-7 54,-10 15,-2 30,-5 46,-6 4,-1 9,-2 13,-3 16,-1 32,-3 47,-5 8,-1 15,-2 23,-4 5,0 11,-1 17,-1 5,-1 11,-1 16,-3 6,0 12,-1 19,-1 19,-3 38,-6 57,-8 10,-2 20,-3 30,-4 12,-1 24,-2 36,-4 12,-2 24,-3 37,-5 9,-1 19,-3 29,-4 18,-2 36,-4 54,-7 1,0 3,0 4,1 0,0 1,0 2,0z"/>
   <path id="1" class="fil4" d="M2609 1878l0 0c2,6 3,12 4,17 4,18 8,36 12,55 7,34 13,69 21,105 1,6 2,10 3,13 1,2 2,3 4,3 2,0 5,0 9,-2 2,0 4,-1 6,-2 101,-34 202,-68 303,-102 1,-1 3,-2 5,-2 4,-1 7,-2 8,-3 2,-1 2,-3 3,-5 0,-2 0,-6 0,-10 0,-2 0,-3 -1,-5 0,0 0,-1 0,-2 0,-4 0,-9 1,-13 8,-4 17,-7 25,-9 9,-3 18,-6 26,-10 1,0 1,-1 1,-1 0,-2 0,-3 0,-5 0,-7 0,-13 -1,-20 -3,-29 -7,-58 -11,-87 -6,-37 -12,-74 -19,-110 -7,-37 -14,-73 -22,-110 0,0 0,-1 0,-1 -10,-53 -22,-105 -35,-158 -28,-111 -61,-222 -98,-331 -17,-49 -35,-97 -56,-144 0,0 -1,-1 -1,-1 0,-2 -1,-4 -2,-5 -1,-2 -2,-3 -4,-3 -5,-1 -10,0 -15,1 -3,0 -5,1 -7,1 -44,7 -88,15 -131,24 -57,13 -114,26 -171,38 -14,3 -29,6 -43,9 -7,1 -13,3 -19,5 -3,0 -6,1 -8,1 -1,2 -2,4 -2,5 0,2 -1,3 -1,4 0,1 0,1 0,2 0,3 -1,6 -1,9 0,5 0,11 -1,18 0,3 -2,4 -5,5 -4,1 -8,2 -13,2 -6,2 -14,4 -20,6 -1,0 -1,0 -1,0 -2,0 -4,1 -6,1 -1,1 -3,2 -5,3 0,1 0,2 0,3 0,2 0,4 0,7 -1,19 -2,37 -2,56 -1,26 -1,52 -2,77 -1,12 -1,24 -2,36 0,3 0,5 0,7 0,2 -1,4 -1,6 0,0 0,0 0,0 0,1 -1,1 -1,1 0,0 0,0 0,1 0,0 0,0 0,0 0,0 0,0 0,-1 -1,0 -1,0 -2,0 0,0 0,0 0,-1 -2,-3 -3,-6 -4,-9 -2,-4 -3,-7 -4,-11 -4,-12 -8,-24 -12,-36 -11,-32 -22,-63 -32,-94 -6,-20 -13,-40 -19,-59 -1,-5 -3,-8 -4,-9 -2,-1 -5,-1 -10,-1 -1,1 -2,1 -3,1 -4,0 -9,0 -13,1 -9,1 -18,1 -26,2 -13,1 -24,2 -36,2 -15,1 -30,2 -45,4 -9,1 -18,2 -27,2 -11,2 -22,2 -33,3 -7,1 -14,1 -22,1 -11,2 -23,3 -34,4 -31,3 -62,6 -93,9 -14,1 -28,3 -41,5 -6,1 -11,1 -16,3 -4,0 -6,1 -6,4 -1,4 -2,9 -2,15 0,1 -1,3 -1,5 0,2 -1,3 -1,5 0,5 -1,9 -1,13 -1,2 -2,4 -5,4 -3,1 -6,2 -9,2 0,0 0,0 0,0 -5,1 -9,1 -13,2 -6,0 -11,1 -16,2 -3,0 -4,2 -5,6 -2,19 -4,38 -6,57 -1,2 -1,4 -1,6 -1,7 -2,15 -3,22 -1,36 -2,71 -3,107 -1,6 -1,13 -1,19 0,6 0,12 0,18 -2,70 -1,141 1,212 0,6 0,12 1,19 0,5 0,11 0,16 0,8 1,15 2,23 1,22 2,45 3,67 2,21 3,42 4,63 2,13 3,25 4,38 0,2 0,4 0,5 2,13 3,26 4,38 1,6 1,11 2,17 0,4 1,9 1,15 1,10 2,21 3,32 3,22 5,43 7,65 1,4 1,8 2,12 0,6 1,12 2,18 1,17 3,34 5,51 4,26 8,52 11,78 1,5 2,10 3,15 0,5 1,10 2,16 1,1 1,3 1,5 1,1 1,2 2,3 1,0 3,1 4,1 5,0 9,0 13,-1 4,0 7,0 10,-1 4,0 8,0 12,-1 10,0 21,-1 31,-1 11,-1 22,-2 34,-3 16,-1 32,-2 48,-3 8,-1 17,-2 25,-2 14,-1 27,-3 41,-4 13,0 27,-1 40,-2 9,-1 18,-1 27,-2 13,-1 27,-2 40,-3 7,-1 14,-2 22,-2 2,0 4,0 5,-1 2,0 3,0 4,-1 0,-1 1,-2 1,-3 -1,-7 -1,-14 -2,-22 0,-2 0,-5 -1,-7 0,-3 0,-6 -1,-10 0,-2 2,-4 6,-5 3,0 7,-1 10,-1 3,0 6,0 10,0 3,0 7,-1 10,-1 5,0 10,-1 15,-2 1,0 3,0 4,-1 1,-1 2,-3 1,-5 0,-2 0,-4 0,-5 -1,-10 -2,-20 -3,-29 -1,-18 -4,-37 -6,-55 0,-8 -1,-15 -1,-23 0,-2 0,-4 0,-6 0,0 0,0 0,-1 0,0 0,0 0,-1 0,0 0,0 0,0 1,0 1,0 2,1 0,0 0,0 0,0 1,2 2,4 3,6 9,25 18,48 27,72 5,15 10,30 15,45 4,10 7,19 11,29 1,3 4,4 6,3 2,0 3,0 4,-1 10,-1 20,-2 30,-4 61,-11 124,-22 186,-34 5,0 11,-1 16,-3 1,0 1,-1 2,-1 1,-1 1,-2 1,-3 0,-2 1,-4 1,-7 0,0 0,0 0,0 0,-4 1,-7 1,-10 0,-5 0,-9 1,-14 0,-3 0,-6 1,-7 1,-2 4,-3 7,-3 6,-1 11,-2 17,-3 3,0 5,-1 7,-2 1,0 2,0 2,0 5,0 10,-2 14,-4 2,-3 3,-7 3,-11 0,-1 0,-2 0,-4 0,-3 0,-6 1,-9 0,-2 0,-4 0,-5 0,-2 0,-3 0,-4 0,-3 0,-7 0,-11 0,-3 0,-6 0,-9 1,-2 1,-4 1,-6 0,-4 0,-9 1,-14 0,-3 0,-6 0,-9 0,-2 0,-4 0,-5 1,-2 1,-4 1,-5 0,-3 0,-7 0,-10 0,-4 1,-7 1,-11 0,-1 0,-3 0,-4 0,-2 1,-4 1,-5 0,-4 0,-7 1,-11 0,-1 0,-2 0,-3 -1,-3 0,-8 2,-12zm-687 204l0 0c-3,-9 -5,-19 -5,-30 -1,-4 -2,-8 -2,-12 -4,-23 -7,-46 -10,-69 -1,-18 -3,-36 -6,-54 0,-6 -1,-12 -1,-17 -2,-16 -4,-31 -6,-46 0,-3 0,-6 -1,-8 -1,-11 -2,-22 -2,-32 -3,-22 -4,-43 -6,-65 -1,-9 -1,-17 -2,-26 0,-6 -1,-12 -2,-17 -1,-14 -2,-28 -3,-41 -2,-20 -3,-41 -4,-62 -3,-51 -4,-103 -6,-154 0,-68 1,-136 3,-205 1,-25 2,-51 4,-77 0,-9 1,-17 1,-26 1,-3 1,-7 2,-10 0,-7 1,-14 2,-21 0,-2 1,-3 1,-4 0,-1 0,-2 0,-2 6,-2 11,-4 16,-4 1,0 1,0 1,0 6,-1 13,-2 19,-2 24,-3 47,-6 70,-8 12,-1 23,-2 35,-3 7,0 13,-1 20,-1 10,-1 20,-2 31,-3 9,-1 18,-2 27,-3 15,-1 31,-2 47,-3 11,-1 22,-2 33,-3 10,-1 19,-2 28,-2 4,0 8,0 12,-1 4,-1 7,-1 12,-1 2,0 4,2 6,4 1,6 3,11 5,16 29,91 61,181 93,271 20,54 42,109 66,162 2,3 3,6 4,8 0,0 0,0 0,1 1,0 1,0 1,0 1,0 1,0 1,0 0,0 1,0 1,0 0,0 0,0 0,0 0,-1 0,-1 0,-1 0,0 0,-1 0,-1 1,-1 1,-3 1,-5 1,-10 1,-19 2,-28 1,-35 2,-69 2,-104 1,-20 2,-40 2,-60 1,-32 2,-63 3,-94 2,-38 3,-77 4,-116 1,-16 1,-33 2,-49 0,-2 0,-5 0,-8 0,-8 0,-17 1,-25 0,-4 2,-6 6,-7 11,-3 22,-5 34,-8 13,-3 27,-6 40,-9 42,-8 84,-17 125,-27 46,-10 91,-18 137,-26 1,0 1,0 1,0 1,0 2,0 3,0 1,0 2,0 2,1 1,0 1,1 2,1 1,3 3,7 5,11 15,34 29,69 41,105 37,108 69,218 98,329 14,57 27,113 38,169 9,44 18,87 26,131 4,27 9,55 13,82 0,3 1,7 1,10 3,15 5,29 7,45 1,5 2,10 2,15 1,4 1,8 1,12 1,4 1,7 -1,9 -1,1 -4,3 -8,4 -56,19 -111,38 -167,57 -23,8 -46,16 -70,23 -7,2 -14,5 -21,7 -1,1 -1,1 -1,1 -2,1 -4,1 -7,2 -1,0 -3,0 -4,0 -1,-1 -2,-2 -3,-3 0,-1 0,-1 0,-1 0,0 0,-1 0,-3 -9,-43 -18,-87 -27,-131 -6,-28 -11,-56 -17,-84 -4,-19 -8,-37 -12,-57 -2,-12 -5,-24 -7,-35 -8,-41 -16,-81 -24,-121 -10,-49 -20,-98 -30,-147 0,-1 -1,-2 -1,-3 -1,-1 -1,-1 -1,-1 0,0 0,0 0,0 0,0 0,0 -1,0 0,0 0,0 0,0 -1,0 -1,0 -1,0 -1,1 -1,1 -1,1 0,0 0,1 0,1 -1,3 -1,6 -1,8 -1,19 -2,38 -3,56 -1,13 -1,25 -2,37 -1,18 -2,36 -2,53 -2,23 -3,45 -5,66 0,9 0,18 -1,27 0,1 0,3 0,4 0,1 0,3 0,5 -1,10 -2,20 -2,29 -1,22 -2,43 -3,64 -1,20 -2,40 -3,60 -1,8 -2,17 -2,26 0,1 0,1 0,2 0,2 0,4 -1,6 0,11 0,21 -1,30 -1,22 -2,43 -3,64 -1,19 -3,39 -4,59 0,2 0,4 -1,7 0,1 0,2 0,3 -1,1 -2,1 -4,2 -2,1 -5,1 -7,1 -21,5 -42,8 -64,12 -12,2 -24,4 -36,6 -14,3 -28,5 -43,8 -7,1 -14,2 -21,4 -1,0 -2,0 -2,0 -3,1 -5,1 -8,2 -3,0 -5,-1 -7,-2 -1,0 -2,-2 -3,-5 -11,-29 -21,-58 -32,-87 -21,-58 -42,-115 -63,-173 -35,-96 -69,-192 -104,-288 -2,-4 -4,-8 -5,-13 -1,-1 -1,-2 -2,-3 0,0 0,0 0,-1 -1,0 -1,0 -1,0 -1,-1 -2,0 -2,1 0,2 1,3 1,4 0,4 0,8 0,11 1,11 2,21 2,31 1,4 1,7 2,11 1,6 1,13 1,19 2,15 3,30 5,45 1,13 2,26 3,40 2,15 4,31 5,46 1,9 2,18 2,27 1,8 2,16 3,23 1,12 2,24 3,36 1,6 2,12 2,19 0,3 1,6 1,10 0,10 1,20 2,30 2,11 3,23 4,34 1,17 3,35 4,53 2,15 3,30 5,45 1,14 3,28 4,41 2,19 4,38 5,57 0,4 1,8 1,11 0,1 0,3 -1,4 0,0 0,0 0,1 -1,0 -1,1 -1,1 -3,1 -5,1 -7,1 -11,1 -22,2 -33,3 -10,0 -19,1 -28,2 -12,0 -24,1 -37,2 -14,1 -28,3 -42,4 -9,0 -18,1 -28,1 -15,1 -30,3 -44,4 -22,2 -45,3 -67,4 0,0 0,0 0,0 -1,1 -3,1 -5,0 -2,0 -3,0 -4,-2z"/>
   <path id="2" class="fil4" d="M3057 1090l0 0c-2,1 -4,2 -5,3 -5,1 -8,3 -12,5 -3,1 -6,2 -10,3 -6,2 -12,5 -18,8 -3,1 -5,4 -5,8 0,2 0,4 0,6 0,3 0,6 0,9 0,335 0,671 0,1006 0,5 0,10 0,15 0,1 1,2 1,3 0,1 1,1 1,2 1,0 1,0 2,0 1,0 3,0 4,0 25,-5 50,-9 74,-13 22,-4 44,-8 65,-11 13,-3 25,-5 38,-8 12,-2 24,-4 36,-6 21,-4 43,-7 65,-12 15,-3 30,-5 46,-7 19,-4 39,-7 57,-11 21,-3 41,-7 61,-10 13,-3 26,-5 39,-8 1,0 3,0 4,0 0,-1 1,-1 2,-1 3,0 5,-3 5,-7 0,-3 -1,-6 -1,-9 0,-1 -1,-3 -1,-4 0,-1 -1,-3 -1,-4 -1,-4 -1,-8 -1,-12 0,-4 1,-7 4,-8 5,-1 10,-1 14,-2 3,0 6,-1 10,-1 0,-1 1,-1 2,-1 7,-2 15,-3 22,-5 2,0 3,0 4,-2 0,-1 1,-2 1,-4 -3,-15 -6,-31 -8,-47 -3,-15 -5,-29 -7,-44 -2,-10 -4,-20 -6,-30 -2,-16 -4,-31 -6,-47 -2,-9 -4,-17 -5,-25 -1,-8 -2,-16 -3,-24 -4,-20 -7,-41 -10,-62 0,-3 1,-5 4,-6 4,-1 9,-2 14,-3 6,-1 12,-2 18,-3 63,-13 122,-35 178,-67 47,-26 88,-59 124,-99 5,-5 10,-10 15,-14 23,-20 43,-43 61,-68 51,-72 72,-152 63,-239 -4,-38 -13,-74 -26,-110 -26,-71 -73,-122 -141,-155 -13,-7 -27,-13 -42,-18 -45,-13 -90,-21 -136,-22 -54,-2 -108,1 -161,9 -41,5 -82,13 -122,22 -64,15 -127,33 -188,55 -34,11 -67,24 -100,37 -5,1 -9,4 -14,6 -1,1 -1,1 -2,2 0,1 -1,2 -1,2 0,3 0,5 0,7 0,1 0,2 0,3 0,2 0,3 0,4 0,4 0,9 -2,14zm34 -10l0 0c2,-1 4,-2 6,-3 4,-2 8,-3 11,-4 63,-25 128,-47 194,-65 46,-13 93,-24 139,-32 29,-5 57,-9 86,-12 32,-3 64,-5 97,-5 38,0 77,5 115,13 26,6 52,15 76,27 58,28 98,73 121,133 12,34 21,69 25,104 6,59 -3,116 -29,170 -16,34 -37,64 -63,91 -29,28 -61,53 -96,74 -54,31 -111,53 -173,67 -38,8 -77,12 -117,12 -3,0 -7,0 -10,1 -1,0 -1,0 -1,1 -1,0 -1,1 -1,1 -1,1 -1,3 0,5 3,18 6,36 9,53 1,12 3,24 5,35 2,15 5,30 7,44 2,10 3,20 5,29 0,0 0,1 0,2 5,30 10,61 15,92 2,10 3,20 5,31 2,12 4,25 6,37 0,1 0,3 0,4 0,0 0,1 0,1 1,4 -1,6 -4,7 -11,2 -22,5 -33,6 -43,8 -85,16 -128,24 -18,3 -37,6 -55,9 -22,4 -44,8 -66,11 -25,5 -50,10 -75,14 -15,3 -31,6 -46,8 -2,1 -4,1 -6,1 -3,0 -6,1 -9,2 -5,1 -8,1 -9,0 -2,-2 -2,-5 -1,-10 0,-3 0,-6 0,-9 0,-1 0,-2 0,-3 0,-315 0,-630 0,-945 0,-1 0,-2 0,-2 0,-4 0,-9 0,-12 0,-2 0,-4 0,-5 0,-1 0,-2 0,-2zm322 174l0 0c0,0 0,0 0,0 0,0 0,0 0,0 1,2 1,4 1,6 1,4 1,9 1,14 0,7 1,14 1,21 1,12 3,25 4,37 0,10 1,20 3,30 0,9 1,19 1,28 2,21 4,41 5,61 1,5 1,10 1,13 1,3 1,6 1,8 1,4 3,6 8,6 1,0 1,-1 2,-1 4,0 8,0 13,0 33,-5 65,-13 96,-24 25,-8 50,-18 73,-32 17,-10 33,-23 47,-37 12,-12 21,-25 28,-41 14,-30 15,-61 6,-93 -9,-32 -30,-53 -62,-63 -12,-3 -25,-5 -37,-6 -19,-1 -39,1 -59,5 -41,8 -81,21 -120,39 -3,1 -6,3 -9,4 -3,2 -5,5 -5,8 1,4 1,8 1,12 0,1 0,3 0,5zm40 94l0 0c-1,-3 -1,-7 -1,-11 -1,-13 -3,-26 -4,-41 0,-3 0,-6 0,-8 0,-3 1,-5 3,-6 1,0 1,0 1,0 2,-2 5,-3 8,-3 21,-6 43,-11 66,-14 15,-2 31,-1 47,3 2,0 5,1 9,2 20,7 33,20 40,41 6,23 5,46 -4,68 -2,7 -6,13 -13,16 -16,9 -32,17 -50,24 -29,10 -59,18 -89,24 -4,0 -5,-1 -5,-5 -1,0 -1,0 -1,-1 0,0 0,0 0,0 0,-2 0,-5 -1,-8 -1,-6 -1,-12 -2,-18 -1,-13 -2,-28 -3,-43 0,-6 -1,-13 -1,-20z"/>
   <path id="3" class="fil4" d="M4479 950l0 0c-10,0 -20,0 -31,0 -5,0 -10,0 -15,0 -2,1 -4,1 -5,2 -1,0 -3,0 -5,0 0,0 -1,0 -1,0 -5,1 -10,1 -14,2 -10,1 -20,1 -30,2 -42,7 -84,19 -124,36 -68,30 -128,72 -179,127 -7,7 -13,13 -20,20 -49,45 -89,97 -119,156 -42,82 -63,169 -65,261 -1,36 1,71 5,106 5,42 15,83 29,123 34,91 81,167 142,229 61,62 127,109 198,140 56,26 115,41 176,46 12,0 24,0 36,0 28,-2 55,-6 82,-12 85,-20 159,-60 221,-120 17,-16 32,-33 48,-49 4,-3 7,-7 11,-10 41,-43 74,-90 99,-144 42,-91 66,-186 70,-286 2,-39 1,-78 -2,-116 -4,-41 -11,-82 -21,-122 -13,-51 -32,-100 -59,-145 -41,-71 -96,-127 -166,-169 -66,-39 -136,-63 -212,-71 -9,-1 -18,-2 -27,-3 -4,0 -9,0 -13,-1 0,0 0,0 -1,0 -3,0 -5,-1 -8,-2zm479 576l0 0c0,96 -14,185 -43,265 -17,49 -40,95 -70,138 -27,38 -59,72 -96,100 -48,36 -102,61 -160,75 -28,7 -56,10 -84,12 -10,1 -20,1 -30,0 -55,-3 -108,-16 -159,-40 -74,-32 -139,-78 -195,-136 -57,-59 -100,-127 -129,-203 -16,-42 -27,-86 -32,-131 -5,-33 -7,-66 -6,-99 2,-94 25,-182 70,-264 41,-76 99,-138 171,-185 54,-34 111,-57 173,-68 40,-7 80,-10 121,-7 55,3 108,15 160,34 117,46 201,125 253,239 18,39 31,80 39,123 6,26 11,53 13,79 3,29 4,51 4,68zm-486 -191l0 0c-15,0 -29,1 -44,4 -38,6 -73,22 -103,48 -47,42 -72,94 -75,156 -2,53 11,101 42,143 32,46 76,78 130,96 25,8 51,11 77,9 8,0 17,-1 25,-3 46,-9 83,-32 112,-68 14,-17 25,-36 33,-56 9,-22 15,-45 18,-69 5,-39 2,-77 -9,-115 -20,-65 -63,-109 -128,-132 -25,-8 -51,-13 -78,-13zm-191 220l0 0c0,-34 8,-66 25,-96 4,-7 9,-12 16,-16 27,-15 56,-23 87,-24 25,-2 50,2 74,9 61,20 100,60 115,122 12,49 10,96 -6,143 -4,13 -10,25 -16,37 -3,4 -7,8 -11,11 -17,8 -33,14 -51,17 -8,2 -17,3 -27,3 -17,0 -35,-2 -52,-7 -47,-16 -86,-43 -116,-83 -18,-25 -30,-53 -35,-84 -1,-7 -2,-15 -2,-22 -1,-4 -1,-7 -1,-10z"/>
   <path id="4" class="fil4" d="M5783 2162l0 0c2,0 3,1 3,1 1,0 1,0 2,0 6,0 11,0 17,-1 2,0 5,0 8,-1 3,0 6,0 9,0 7,-1 15,-2 22,-3 9,-1 17,-1 25,-2 9,-1 19,-2 28,-3 4,0 7,-1 10,-1 6,-1 11,-1 16,-2 11,-1 22,-2 32,-3 9,-1 18,-2 26,-2 8,-1 15,-2 23,-3 11,-1 23,-2 34,-3 1,0 1,0 2,0 6,-1 12,-1 17,-2 11,-1 21,-2 31,-3 8,-1 16,-2 24,-2 8,-1 16,-2 24,-3 5,0 10,-1 14,-3 2,0 4,0 5,-3 2,-3 3,-7 4,-10 1,-7 3,-14 6,-20 1,-5 2,-8 3,-11 2,-2 3,-3 5,-4 2,-1 5,-1 9,-1 1,0 1,0 2,0 6,-1 12,-1 18,-1 2,-1 4,-2 5,-5 2,-5 3,-9 5,-14 47,-152 91,-304 132,-458 24,-92 45,-185 62,-277 2,-14 4,-27 7,-40 4,-19 7,-39 11,-58 7,-34 12,-68 18,-101 5,-31 10,-61 15,-92 0,-3 1,-7 3,-10 1,-10 2,-20 3,-31 -2,-1 -4,-2 -6,-2 -3,0 -7,0 -11,-1 -7,-1 -14,-1 -22,-2 -20,0 -39,-1 -58,-3 -11,0 -22,-1 -34,-1 -1,0 -4,0 -6,0 -2,-1 -3,-1 -5,-1 -2,0 -4,0 -5,0 -7,0 -13,-1 -20,-1 -12,-1 -25,-2 -37,-2 -18,-1 -35,-2 -52,-3 -8,0 -14,0 -21,-1 -5,-1 -10,-1 -15,-1 -14,-1 -29,-2 -44,-3 -10,0 -20,0 -29,0 -2,0 -3,0 -5,0 -1,0 -2,0 -3,0 -2,4 -3,8 -4,11 0,0 0,1 0,2 -2,12 -5,24 -7,36 -1,1 -1,2 -2,3 -1,0 -2,1 -3,1 -6,0 -12,0 -17,0 -3,0 -5,-1 -7,-1 -3,0 -5,0 -8,0 -3,0 -5,1 -6,4 0,1 0,1 0,2 -1,3 -1,5 -2,8 -6,29 -11,57 -17,86 -4,19 -8,37 -12,56 -5,28 -11,56 -17,85 -9,48 -19,96 -28,144 -3,12 -6,23 -8,35 -1,6 -2,11 -3,17 -1,-1 -2,-1 -2,-1 -1,-1 -2,-2 -2,-3 -2,-5 -4,-10 -5,-16 -22,-82 -45,-165 -67,-248 -17,-62 -34,-124 -50,-187 -2,-3 -3,-7 -4,-11 -1,-3 -3,-4 -6,-4 -2,0 -5,0 -7,0 -1,0 -2,0 -3,0 -23,0 -47,0 -71,0 -60,0 -120,0 -180,0 -2,0 -5,0 -7,0 -5,0 -10,0 -14,0 -2,0 -4,0 -5,1 0,0 -1,1 -3,1 0,2 0,4 0,6 -1,6 -2,12 -3,17 0,2 0,3 -1,5 0,5 -1,11 -2,17 -1,2 -3,4 -6,4 -4,0 -8,0 -12,1 -2,0 -5,0 -7,0 -5,0 -9,0 -13,0 -3,0 -5,0 -6,1 -1,1 -2,3 -2,6 0,0 0,1 0,1 0,0 0,0 0,0 -2,10 -3,19 -5,28 -3,20 -6,41 -8,62 -4,22 -7,45 -10,68 -3,20 -6,40 -9,60 -3,27 -7,54 -11,82 -2,12 -3,23 -5,35 0,2 0,4 -1,7 -1,6 -2,13 -2,19 0,0 0,0 0,0 -1,2 -2,3 -2,4 0,1 -1,3 -3,4 -3,-10 -5,-19 -7,-29 -1,-6 -2,-11 -3,-16 -3,-10 -5,-20 -7,-31 -1,-4 -1,-9 -3,-13 -1,-7 -3,-14 -4,-21 -2,-8 -5,-17 -6,-25 -1,-7 -3,-13 -4,-20 -2,-8 -4,-16 -5,-24 -2,-10 -4,-20 -7,-30 -1,-5 -2,-10 -3,-15 -2,-8 -4,-16 -6,-25 -1,-7 -3,-14 -4,-20 -1,-5 -2,-9 -3,-14 -2,-10 -4,-20 -6,-30 -4,-15 -7,-30 -11,-46 0,-4 -1,-8 -2,-13 -3,-10 -5,-20 -7,-30 -1,-6 -3,-11 -4,-16 -1,-10 -4,-20 -7,-30 -7,-1 -14,-1 -21,0 -7,1 -14,2 -20,2 -2,1 -5,1 -7,1 -3,1 -5,1 -6,1 -10,1 -20,2 -29,4 -5,0 -10,1 -16,1 -9,2 -18,2 -26,4 -8,0 -15,1 -23,2 -6,1 -13,1 -19,2 -7,1 -15,2 -23,3 -3,0 -6,1 -10,1 -4,0 -8,1 -12,1 -10,1 -20,2 -29,4 -8,1 -15,2 -23,2 -6,1 -13,1 -18,2 -7,1 -14,2 -20,3 -4,0 -8,1 -12,1 -6,1 -12,1 -18,2 -10,1 -21,2 -32,4 -10,1 -19,2 -29,4 -1,0 -1,0 -2,1 0,1 -1,2 -1,2 0,2 -1,4 -1,6 0,0 0,0 0,0 1,6 2,11 2,16 0,5 0,10 1,15 0,3 -1,5 -4,6 -6,0 -12,1 -18,2 -2,0 -3,0 -4,0 -4,1 -7,2 -9,2 -6,1 -11,1 -15,2 -1,0 -2,0 -3,1 -1,1 -2,2 -2,3 0,3 1,6 1,8 0,6 0,13 1,19 2,20 5,41 8,61 7,44 15,88 25,132 23,98 51,196 85,291 41,116 84,231 129,346 32,80 65,161 99,240 1,3 2,5 3,7 1,3 3,6 3,8 1,1 3,2 5,1 2,0 6,0 11,-1 1,0 2,-1 2,-1 1,0 3,0 4,0 1,0 2,0 2,-1 20,-2 39,-4 58,-7 11,-1 22,-3 33,-5 10,-1 20,-3 30,-4 9,-1 18,-2 27,-3 9,-2 19,-4 29,-5 12,-2 25,-3 37,-5 9,-1 17,-2 25,-3 20,-3 39,-6 58,-8 2,-1 5,-1 7,-2 19,-2 36,-5 53,-7 4,-1 8,-1 13,-2 5,0 11,-1 18,-2 4,-1 6,-3 7,-8 0,-4 1,-7 1,-11 1,-5 2,-10 3,-15 0,-3 1,-7 2,-10 0,-1 1,-2 1,-2 1,-1 2,-1 2,-1 4,-1 7,-2 11,-2 3,-1 6,-1 9,-1 7,-1 12,-2 18,-3 1,0 2,-1 2,-2 1,0 1,-1 2,-2 0,-1 1,-3 1,-6 4,-22 7,-45 11,-67 2,-11 3,-21 5,-32 3,-21 6,-42 10,-62 0,0 0,-1 0,-1 0,-1 0,-3 0,-5 1,-2 2,-3 3,-4 0,0 0,0 1,0 0,0 0,0 0,0 0,0 0,0 0,0 19,74 35,147 51,220 4,17 7,33 10,50zm399 -116l0 0c-3,0 -7,0 -10,1 -7,1 -13,1 -19,3 -11,0 -21,1 -31,2 -6,1 -11,1 -16,2 -2,0 -5,0 -7,0 -13,1 -25,2 -37,4 -20,2 -40,4 -60,5 -9,1 -19,3 -28,4 -7,0 -13,1 -20,2 -1,0 -2,0 -3,0 -11,2 -22,3 -33,4 -16,1 -31,3 -47,4 -2,0 -5,0 -8,-1 0,0 -1,0 -1,0 -1,0 -1,-1 -1,-1 -1,-5 -3,-10 -4,-15 -19,-93 -41,-185 -64,-277 -15,-61 -33,-121 -51,-181 -1,-2 -1,-4 -2,-6 0,-1 -1,-2 -1,-3 0,0 -1,0 -1,1 -1,0 -2,0 -2,1 -1,1 -1,2 -2,4 -3,22 -7,45 -10,67 -3,16 -6,32 -8,47 -1,8 -2,16 -4,24 -1,8 -3,16 -4,24 -4,25 -8,51 -12,76 -2,12 -4,23 -5,35 -4,20 -7,40 -10,60 -2,14 -4,27 -6,41 -2,11 -3,22 -5,33 -2,11 -4,22 -6,33 -1,4 -3,6 -8,7 -7,1 -15,2 -23,4 -11,1 -22,2 -32,4 -11,1 -22,2 -32,4 -10,1 -19,3 -28,5 -10,1 -21,2 -31,4 -9,1 -18,2 -26,3 -13,2 -25,4 -37,6 -8,0 -16,2 -24,3 -10,1 -19,2 -29,3 -9,2 -18,4 -27,5 -10,1 -19,2 -28,3 -12,2 -24,4 -37,5 0,0 0,0 0,0 -2,1 -3,1 -5,1 0,0 -1,0 -2,0 -1,0 -1,-1 -2,-2 -1,-2 -1,-3 -1,-4 -2,-3 -3,-6 -5,-9 -4,-10 -8,-20 -11,-29 -13,-29 -25,-58 -37,-86 -59,-145 -114,-289 -166,-436 -31,-87 -58,-177 -80,-266 -12,-51 -22,-101 -31,-152 0,-1 0,-1 0,-1 -4,-20 -7,-41 -9,-62 0,0 0,-1 0,-1 0,-2 0,-3 0,-4 1,-2 2,-3 4,-3 1,-1 2,-2 4,-2 0,0 0,0 0,0 9,-1 18,-2 27,-3 14,-1 29,-3 44,-5 13,-1 26,-2 39,-4 10,-2 21,-3 32,-5 9,0 18,-1 26,-2 5,-1 10,-1 16,-2 10,-1 20,-2 31,-3 8,-1 15,-2 23,-3 6,-1 12,-1 18,-3 9,-1 18,-2 27,-2 3,-1 5,-1 8,-1 2,-1 4,-1 6,-1 7,-1 13,-2 20,-2 3,0 6,-1 9,-1 0,0 1,0 1,0 1,0 2,0 3,1 1,1 1,2 2,3 1,2 1,3 1,5 5,22 10,44 15,66 6,29 12,58 19,87 7,36 15,73 23,110 4,16 8,32 11,48 4,17 7,34 11,50 8,36 16,73 24,110 9,40 18,81 27,122 4,18 8,36 11,54 1,3 2,6 3,9 3,16 6,31 9,47 1,1 1,1 1,1 0,1 0,1 1,1 0,0 0,0 1,0 0,0 1,0 1,-1 0,0 1,0 1,-1 0,0 0,-1 0,-3 1,0 1,0 1,0 2,-16 4,-30 6,-45 4,-28 8,-56 12,-84 2,-17 5,-35 7,-53 3,-17 5,-34 8,-52 3,-18 5,-36 7,-54 3,-17 6,-34 8,-51 2,-14 4,-28 6,-41 2,-14 3,-28 5,-42 3,-17 6,-34 8,-52 2,-18 5,-35 7,-52 2,-16 5,-32 7,-47 2,-12 3,-24 5,-36 3,-15 5,-30 6,-45 2,-10 4,-21 5,-31 0,-2 1,-3 1,-4 0,-1 1,-2 1,-2 1,-1 1,-1 2,-1 3,0 6,0 9,-1 28,0 55,0 82,0 40,1 80,1 120,1 3,0 6,0 10,0 1,0 1,0 2,0 4,0 7,0 11,0 2,0 4,0 5,1 1,1 2,3 3,5 8,29 16,58 24,87 16,58 31,116 47,175 21,79 43,158 64,237 12,44 24,88 35,132 2,3 2,7 3,10 1,4 2,7 4,11 0,2 1,3 1,4 1,0 2,0 3,-1 1,-1 1,-2 1,-3 2,-9 4,-19 6,-28 0,-4 1,-7 2,-9 3,-13 5,-26 7,-40 6,-28 12,-56 18,-84 8,-43 17,-85 26,-128 4,-21 8,-41 12,-62 5,-26 10,-52 15,-77 5,-23 10,-46 14,-68 4,-19 8,-38 11,-56 8,-39 16,-78 24,-116 0,0 0,0 0,0 0,-2 0,-4 1,-5 0,0 1,-1 1,-1 0,0 1,-1 1,-1 2,-1 4,-1 6,-1 15,0 30,1 45,2 8,0 17,1 25,1 3,1 7,1 11,1 4,0 8,0 13,1 7,0 14,1 22,1 1,0 2,0 2,1 1,0 3,0 5,0 11,0 22,1 33,1 18,1 37,2 56,3 26,1 52,3 78,4 3,0 6,0 9,1 1,0 2,0 2,0 1,1 2,2 3,2 0,1 1,2 1,3 0,2 0,3 0,4 -1,3 -2,6 -2,9 -1,5 -2,10 -3,15 -3,23 -7,46 -11,69 -4,25 -9,50 -14,75 0,3 0,6 -1,9 -1,8 -3,17 -5,26 -4,23 -8,47 -13,71 -6,31 -12,61 -18,91 -3,11 -5,23 -7,35 -10,47 -20,93 -32,138 -37,142 -77,282 -120,422 -5,17 -10,33 -15,50 -1,1 -2,4 -3,6 0,1 0,2 -1,4z"/>
   <path id="5" class="fil4" d="M7231 908l0 0c-2,0 -3,0 -4,0 -1,1 -2,2 -4,2 -1,1 -3,1 -5,1 0,0 0,0 0,0 -8,1 -16,2 -23,3 -13,2 -27,4 -40,5 -14,2 -27,4 -41,5 -17,3 -34,5 -52,7 -19,2 -38,5 -57,7 -11,2 -23,3 -35,4 -7,1 -13,2 -19,2 -4,1 -9,1 -12,2 -5,1 -10,1 -15,2 -17,2 -34,5 -51,7 -10,1 -20,2 -30,3 -12,1 -23,3 -35,5 -9,1 -19,2 -29,4 -13,2 -25,5 -37,7 -8,1 -16,2 -24,3 -11,3 -23,5 -34,6 -23,5 -46,9 -69,12 -47,10 -95,17 -143,23 -5,1 -10,2 -15,3 -3,0 -5,1 -7,1 -3,0 -6,2 -6,6 0,5 0,10 0,14 0,4 0,7 0,11 0,3 0,7 0,10 0,1 -1,2 -2,3 -1,1 -2,1 -3,1 -1,1 -3,1 -4,1 -7,1 -13,2 -18,3 -8,1 -16,3 -24,4 0,1 0,2 0,2 0,1 -1,2 -1,3 0,4 0,8 0,12 0,18 0,35 0,53 0,23 0,45 0,68 0,14 0,27 0,41 -1,46 -1,92 -1,139 -1,30 -1,61 -1,92 -1,35 -1,71 -1,108 -1,113 -3,225 -5,338 0,16 0,32 0,49 0,42 1,83 4,125 1,7 1,14 3,20 0,1 0,2 0,3 0,4 3,6 6,6 6,0 12,0 17,0 242,0 483,0 724,0 0,0 1,0 2,0 4,0 9,0 13,0 2,0 4,-1 5,-1 1,0 2,-1 2,-1 1,-1 1,-1 1,-2 1,-3 2,-6 2,-9 0,-3 0,-7 1,-11 0,-3 0,-7 0,-10 0,-4 1,-8 1,-11 1,-5 3,-7 7,-7 3,0 5,0 8,0 4,0 7,0 11,0 6,0 11,0 17,0 4,0 5,-2 6,-6 1,-10 2,-19 3,-29 1,-12 2,-23 2,-35 1,-10 1,-20 2,-30 1,-11 2,-21 3,-32 1,-12 1,-23 2,-34 1,-12 2,-23 3,-35 0,-9 1,-18 2,-26 2,-16 3,-32 4,-47 1,-11 1,-23 2,-34 1,-9 2,-18 2,-26 1,-3 1,-4 1,-6 0,-5 -2,-8 -7,-8 -3,1 -7,1 -10,1 -1,0 -1,0 -2,0 -12,0 -24,1 -36,2 -26,1 -52,2 -78,3 -26,1 -51,2 -77,4 -11,0 -23,0 -34,0 -2,0 -2,0 -3,0 -1,0 -2,0 -3,0 -14,1 -30,2 -45,3 -26,1 -52,2 -78,3 -6,0 -12,1 -18,1 -8,0 -17,1 -25,1 -6,0 -11,1 -17,1 -1,0 -2,-1 -2,-2 -1,-1 -2,-2 -2,-3 0,0 0,0 0,-1 0,-1 0,-2 0,-3 0,-3 0,-5 0,-8 1,-15 2,-29 2,-44 0,-5 1,-7 2,-9 2,-1 4,-2 8,-2 4,0 7,0 11,0 1,0 2,0 3,0 17,0 34,0 50,0 47,0 93,0 139,0 6,0 12,0 18,0 3,0 4,-2 5,-5 0,-5 0,-10 0,-16 0,-2 0,-3 0,-4 0,-2 0,-5 0,-7 0,-4 0,-9 0,-13 0,-4 2,-6 7,-6 3,-1 7,-1 10,-1 2,0 3,0 4,0 3,0 5,0 8,0 6,0 12,0 18,0 1,0 2,0 3,-2 1,-1 2,-2 2,-3 0,-3 1,-5 1,-8 0,-76 0,-151 0,-227 0,-2 -1,-4 -1,-7 0,0 0,-1 0,-1 0,-1 -1,-2 -2,-3 0,-1 -2,-1 -2,-1 0,0 0,0 0,0 -4,-1 -8,-1 -11,-1 -21,0 -42,0 -63,-1 -50,0 -100,0 -149,-1 -3,0 -6,0 -10,0 -8,1 -16,0 -23,-2 -2,0 -2,-1 -2,-3 -1,-2 -1,-5 -1,-10 0,-5 0,-12 1,-21 0,-2 0,-5 1,-7 0,-1 0,-1 1,-2 0,0 0,-1 0,-1 5,-1 10,-2 15,-2 1,-1 2,-1 3,-1 17,-1 35,-2 53,-3 1,0 3,0 5,0 11,-1 22,-2 33,-3 12,-1 24,-1 36,-2 17,-1 34,-2 50,-3 10,-1 19,-2 28,-3 14,-1 27,-2 40,-3 23,-1 47,-3 70,-4 7,-1 11,-2 12,-4 2,-1 2,-5 1,-10 0,-3 0,-6 0,-9 0,-5 0,-9 0,-14 0,-3 1,-6 1,-9 0,-1 1,-2 1,-2 1,-1 2,-2 3,-2 10,-1 20,-2 30,-3 2,0 5,0 7,0 2,0 4,-1 6,-1 1,0 2,0 3,-1 1,-1 1,-2 1,-3 0,-1 0,-1 0,-1 0,-5 0,-10 0,-16 0,-90 0,-181 0,-272 0,-9 0,-19 0,-29 0,-1 0,-2 0,-3 1,-3 1,-6 0,-8 0,-3 0,-5 0,-6 0,-1 0,-2 0,-3zm-32 38l0 0c0,1 0,1 0,1 1,1 1,2 1,4 0,3 0,6 0,10 0,82 0,164 0,246 0,3 0,6 0,9 0,0 0,0 0,0 0,2 0,3 -1,4 -1,0 -2,1 -3,1 -2,0 -5,0 -7,1 -6,0 -12,1 -18,2 -12,0 -23,1 -35,2 -10,1 -21,1 -30,2 -18,1 -36,2 -54,3 -8,1 -15,1 -23,2 -1,0 -2,0 -2,0 -2,1 -4,1 -5,1 -8,1 -16,1 -24,2 -16,0 -32,1 -48,2 -12,1 -24,2 -36,3 -10,1 -20,2 -30,2 -15,2 -30,2 -45,3 -7,1 -13,1 -19,2 -1,0 -2,0 -4,0 -2,0 -4,0 -7,1 -4,0 -7,2 -7,7 0,4 0,8 0,12 -2,39 -3,78 -4,118 0,4 0,9 0,13 0,1 1,3 2,4 1,0 2,1 4,1 3,0 6,1 10,1 8,0 17,0 25,0 51,0 102,1 154,1 11,1 22,1 32,1 7,0 14,0 22,0 3,0 6,0 9,0 0,0 0,0 0,0 1,1 2,1 3,2 1,1 2,2 2,2 0,1 1,2 1,2 0,3 0,5 0,7 0,55 0,110 0,165 0,3 -1,6 -1,10 0,0 -1,0 -1,1 -1,0 -1,0 -1,1 -2,1 -4,1 -5,1 -5,0 -10,0 -15,0 -25,0 -51,0 -76,0 -55,0 -109,0 -164,0 -5,0 -10,0 -15,0 0,0 -1,0 -2,0 -1,0 -2,0 -3,1 -1,1 -1,2 -1,3 0,0 0,0 0,0 0,3 -1,6 -1,8 0,2 0,5 -1,7 0,10 0,20 0,29 -2,37 -4,74 -5,110 0,6 0,11 -1,15 0,3 0,6 0,9 0,2 1,3 2,4 1,1 2,1 4,1 1,0 3,0 5,0 3,0 6,0 9,0 12,0 23,-1 35,-2 29,-1 59,-2 88,-4 9,0 19,0 29,-1 2,0 3,0 5,0 3,0 5,-1 8,-1 7,0 13,0 20,0 16,-1 33,-2 50,-2 17,-1 34,-2 51,-3 20,-1 41,-1 62,-3 9,0 17,0 26,0 9,-1 17,-1 25,-1 0,0 1,0 1,-1 8,-1 13,0 14,2 2,1 3,6 1,13 0,1 0,2 0,2 -1,20 -3,40 -5,60 -1,27 -3,54 -6,81 0,12 -1,25 -3,37 0,9 -1,17 -1,26 -1,17 -3,35 -4,52 0,1 0,2 0,3 0,1 0,1 0,1 -1,2 -2,3 -3,4 -1,1 -2,2 -3,2 -2,0 -3,0 -5,0 -4,0 -8,0 -12,0 -1,0 -1,0 -1,0 -15,0 -31,0 -48,0 -206,0 -412,0 -619,0 -6,0 -11,0 -17,0 0,0 -1,0 -2,0 -1,0 -2,-1 -3,-2 0,-1 -1,-2 -1,-3 0,0 0,0 -1,-1 0,-1 0,-2 0,-3 -2,-37 -3,-74 -4,-110 0,-39 1,-79 2,-118 2,-47 2,-94 2,-140 0,-9 0,-18 0,-27 1,-28 1,-56 1,-85 1,-48 1,-96 2,-144 0,-56 0,-111 0,-167 0,-11 1,-22 1,-33 0,-32 0,-65 0,-98 0,-18 0,-36 0,-53 0,-4 0,-7 0,-11 0,-3 2,-5 6,-7 2,0 3,0 4,0 8,-1 15,-2 22,-3 32,-4 64,-9 95,-15 28,-5 56,-10 84,-15 9,-2 19,-4 29,-5 18,-3 37,-7 54,-10 15,-2 30,-5 46,-6 4,-1 9,-2 13,-3 16,-1 32,-3 47,-5 8,-1 15,-2 23,-4 5,0 11,-1 17,-1 5,-1 11,-1 16,-3 6,0 12,-1 19,-1 19,-3 38,-6 57,-8 10,-2 20,-3 30,-4 12,-1 24,-2 36,-4 12,-2 24,-3 37,-5 9,-1 19,-3 29,-4 18,-2 36,-4 54,-7 1,0 3,0 4,1 0,0 1,0 2,0z"/>
   <path id="6" class="fil4" d="M8095 1545l0 0c0,0 0,0 0,-1 0,0 0,-1 0,-1 0,-1 0,-1 1,-1 2,-4 5,-7 8,-10 0,-1 1,-2 1,-3 15,-17 29,-35 41,-53 24,-35 43,-72 57,-111 12,-31 19,-64 21,-97 2,-33 -1,-66 -9,-97 -18,-68 -58,-117 -119,-149 -18,-10 -37,-18 -56,-24 -42,-12 -84,-18 -127,-20 -54,-1 -108,2 -162,9 -43,6 -86,14 -129,23 -57,13 -114,28 -169,45 -55,17 -109,36 -163,58 -1,0 -2,0 -3,1 -3,1 -6,2 -8,3 -1,1 -2,2 -3,4 0,2 0,5 0,9 0,1 0,2 0,2 0,2 0,3 0,5 1,4 0,8 -2,13 -1,1 -2,1 -2,1 -3,1 -5,2 -8,3 -5,2 -10,4 -15,6 -4,2 -8,4 -13,5 -3,1 -6,3 -8,5 -3,0 -4,2 -4,5 -1,5 -1,11 -1,16 0,336 0,671 0,1007 0,5 0,10 1,14 0,1 0,3 1,4 0,0 0,1 0,2 1,0 2,0 3,0 1,0 2,-1 4,-1 37,-6 74,-13 111,-19 34,-7 69,-13 103,-19 16,-3 32,-5 48,-8 19,-4 37,-7 55,-10 26,-4 52,-9 77,-14 9,-1 18,-3 26,-5 7,0 13,-1 19,-2 15,-3 29,-6 44,-8 4,-1 6,-2 7,-3 1,-2 2,-4 1,-8 0,-3 -1,-6 -2,-9 0,-2 0,-4 0,-6 -1,-5 -1,-9 -2,-13 0,-2 1,-3 2,-4 1,-1 2,-2 3,-2 4,-1 8,-1 11,-2 10,-2 20,-4 30,-5 6,-1 9,-3 10,-4 1,-2 1,-6 0,-11 -2,-12 -4,-23 -6,-35 -1,-12 -4,-25 -6,-39 -5,-27 -9,-54 -13,-80 -1,-6 -2,-12 -3,-18 0,-2 -1,-5 -1,-8 -3,-20 -6,-40 -10,-59 0,-5 -1,-11 -2,-17 0,0 1,0 1,-1 0,0 1,0 1,-1 0,0 0,0 0,0 1,0 1,0 1,0 4,0 7,0 10,0 20,4 37,13 51,28 15,17 26,36 32,57 7,31 14,61 19,92 6,32 12,65 18,98 4,20 7,41 11,62 3,17 5,33 8,49 1,2 1,4 1,5 1,5 2,11 4,16 1,0 2,0 2,0 1,0 2,0 3,-1 4,-1 9,-3 12,-5 136,-63 272,-127 408,-192 1,0 2,0 3,0 3,-1 6,-3 9,-5 1,0 2,-1 3,-2 0,-1 0,-1 1,-2 -1,-1 -1,-3 -2,-4 -2,-4 -3,-8 -4,-13 -1,0 -1,-2 0,-3 0,-1 1,-2 1,-3 1,-1 3,-2 5,-2 5,-3 10,-5 16,-8 6,-3 12,-6 18,-8 5,-2 9,-4 13,-7 4,-1 5,-4 4,-6 -1,-3 -2,-7 -4,-10 -26,-64 -52,-127 -79,-190 -12,-26 -24,-53 -37,-78 -8,-17 -18,-32 -29,-47 -27,-34 -62,-59 -104,-73 -8,-3 -15,-5 -24,-7 -3,-1 -7,-2 -11,-3zm-787 -405l0 0c1,-1 3,-2 5,-2 2,-1 4,-3 7,-4 104,-40 209,-71 317,-95 36,-8 73,-15 110,-20 47,-7 95,-10 142,-10 39,0 78,4 116,12 28,6 54,16 79,29 31,17 57,40 76,70 14,24 24,49 29,77 8,46 6,92 -8,138 -9,29 -21,58 -37,85 -24,44 -54,83 -90,119 -7,7 -14,14 -21,21 -5,3 -8,7 -13,11 -1,1 -1,2 -1,3 -1,0 -1,1 -1,1 0,0 0,1 0,1 0,0 0,0 0,0 1,0 1,0 1,0 1,1 2,1 2,1 3,0 6,0 8,0 7,0 13,0 19,-2 17,-1 32,-1 48,3 47,10 86,34 115,72 9,13 18,26 25,41 13,26 25,52 37,79 14,33 27,66 41,98 9,20 17,39 25,59 3,6 4,11 4,13 -1,2 -5,4 -11,7 0,0 -1,1 -1,1 -73,34 -146,68 -218,102 -31,14 -61,28 -91,42 0,0 -1,1 -2,2 -15,7 -29,14 -44,20 -2,1 -4,2 -7,2 0,0 -1,0 -1,0 -1,0 -1,-1 -1,-2 -1,-4 -2,-9 -4,-14 -2,-15 -5,-29 -8,-45 -3,-25 -8,-50 -13,-76 0,-1 0,-3 0,-4 -8,-43 -16,-85 -25,-128 -1,-2 -2,-4 -2,-6 -1,-3 -1,-5 -2,-7 -6,-26 -19,-49 -36,-69 -19,-21 -42,-34 -70,-40 -11,-3 -23,-4 -36,-3 -16,0 -32,3 -49,7 0,0 -1,0 -1,1 -5,1 -9,2 -13,3 -6,1 -10,2 -12,3 -3,1 -4,2 -4,4 -1,2 0,4 0,8 1,2 1,4 2,7 3,20 6,40 9,61 2,10 4,20 6,31 2,16 5,33 7,51 3,14 5,27 7,41 2,11 4,21 6,32 2,13 4,26 5,40 3,12 5,24 6,36 0,3 -1,5 -5,6 0,0 -1,0 -1,0 -11,2 -21,4 -32,6 -49,9 -98,17 -147,26 -24,5 -48,9 -73,13 -22,4 -45,8 -67,12 -22,4 -44,8 -66,11 -11,3 -21,5 -32,6 -2,1 -4,1 -5,1 -2,0 -3,0 -4,-1 0,-1 -1,-2 -1,-3 0,0 0,0 0,-1 0,-1 0,-2 0,-3 0,-4 0,-8 0,-12 0,0 0,-1 0,-2 0,-315 0,-630 0,-945 0,-1 0,-2 0,-3 0,-5 0,-8 0,-12 0,-1 1,-3 1,-5 0,-1 0,-1 0,-1zm322 152l0 0c0,1 0,1 0,2 -1,1 -1,3 -1,4 0,10 1,19 2,29 1,9 2,18 2,27 1,10 2,20 3,31 1,11 2,23 3,34 1,8 1,16 2,24 1,8 1,16 2,24 0,4 0,8 1,12 0,4 0,8 0,12 2,11 3,21 3,31 0,4 1,9 3,13 0,0 0,0 0,0 0,0 0,1 0,1 1,1 2,1 2,1 3,0 5,0 6,0 15,-1 29,-3 43,-7 0,0 1,0 1,0 34,-7 66,-16 98,-29 20,-9 40,-19 57,-32 13,-9 25,-20 35,-32 31,-35 41,-76 30,-123 -8,-34 -28,-56 -62,-66 -12,-4 -25,-7 -38,-7 -18,-1 -37,1 -56,4 -44,9 -87,23 -128,42 -1,1 -3,2 -6,3 0,1 -1,1 -2,2zm41 127l0 0c-1,-5 -2,-8 -2,-13 -1,-18 -3,-36 -5,-56 0,-2 0,-3 0,-4 1,-2 2,-3 3,-5 1,0 2,-1 3,-1 0,0 1,0 1,0 24,-8 50,-13 76,-15 14,-2 28,-1 42,2 4,1 8,2 11,3 20,7 33,20 39,39 6,23 5,46 -3,68 -3,8 -8,14 -15,18 -15,9 -30,16 -47,22 -29,11 -58,20 -89,25 -3,0 -5,0 -6,-1 -2,-1 -3,-3 -3,-5 0,-2 0,-4 0,-6 -1,-8 -2,-15 -2,-22 -1,-11 -2,-22 -3,-34 0,-5 0,-10 0,-15z"/>
  </g>
 </g>
</svg>
