<?xml version="1.0" encoding="UTF-8"?>
<!DOCTYPE svg PUBLIC "-//W3C//DTD SVG 1.1//EN" "http://www.w3.org/Graphics/SVG/1.1/DTD/svg11.dtd">
<!-- Creator: CorelDRAW X7 -->
<svg xmlns="http://www.w3.org/2000/svg" xml:space="preserve" width="137.001mm" height="34.045mm" version="1.1" style="shape-rendering:geometricPrecision; text-rendering:geometricPrecision; image-rendering:optimizeQuality; fill-rule:evenodd; clip-rule:evenodd"
viewBox="0 0 10328 2567"
 xmlns:xlink="http://www.w3.org/1999/xlink">
 <defs>
  <style type="text/css">
   <![CDATA[
    .fil0 {fill:#FEFEFE}
    .fil1 {fill:#FEFEFE;fill-rule:nonzero}
   ]]>
  </style>
 </defs>
 <g id="Layer_x0020_1">
  <metadata id="CorelCorpID_0Corel-Layer"/>
  <g id="_2244276060128">
   <g>
    <g>
     <path class="fil0" d="M1464 462c-166,-85 -271,-109 -585,-140 -315,-31 -871,62 -845,645 -117,-459 82,-726 402,-854 321,-128 740,-129 1025,37l3 312z"/>
     <path class="fil0" d="M2349 1830c140,-102 448,439 43,674 0,0 -260,-30 -43,-674z"/>
     <path class="fil0" d="M3359 746c-44,-1383 -1075,-522 -1313,506 -68,296 -94,520 -99,688l52 402c15,38 27,53 27,53 0,0 174,206 367,109 0,0 -207,-33 -20,-727 188,-695 578,-1852 986,-1031zm-1437 1209c-136,77 -339,177 -600,259 -504,160 -900,-327 -900,-327 194,568 947,661 947,661 0,0 310,27 590,-174 5,-4 11,-8 16,-12l-53 -407 0 0zm-1693 -610c0,0 -363,253 -134,636 228,383 753,507 753,507 0,0 283,77 484,79 0,0 -299,-61 -581,-199 -281,-137 -387,-433 -387,-433 0,0 -81,-144 56,-382l-191 -208z"/>
     <path class="fil0" d="M1495 477c-78,-461 130,-578 353,-393 -352,-70 100,722 231,878 0,0 -47,116 -111,432 -211,-204 -410,-604 -473,-917z"/>
     <path class="fil0" d="M1810 458c0,0 -51,-186 66,-94 116,92 181,144 181,144 0,0 95,-18 -66,-271 -161,-254 -251,-86 -251,-86 0,0 -44,42 70,307z"/>
    </g>
    <path class="fil0" d="M665 1054c0,0 522,-141 719,133 0,0 128,231 -102,353 -229,123 -547,-3 -547,-3 0,0 -801,-221 -647,-740 0,0 15,-194 422,-190 0,0 -332,62 -185,327 0,0 184,236 663,273l-323 -153z"/>
   </g>
   <g>
    <path class="fil1" d="M4661 1216l0 0c-7,0 -14,0 -22,0 -232,0 -464,0 -695,0 -1,0 -2,0 -3,0 0,0 0,0 -1,0 0,-1 0,-2 -1,-3 0,-1 0,-3 0,-4 -2,-47 -4,-93 -5,-139 0,-19 1,-38 1,-58 1,-9 1,-18 1,-28 0,-5 0,-10 1,-15 0,-19 0,-39 1,-58 1,-35 1,-71 1,-107 0,-5 0,-9 0,-14 0,-15 0,-31 0,-46 0,-3 0,-6 0,-9 1,-68 2,-135 2,-203 0,-8 0,-16 0,-24 0,-5 0,-10 0,-15 0,-16 0,-32 0,-48 1,-35 1,-70 1,-105 0,-34 0,-68 0,-101 0,-17 0,-33 1,-48 0,-2 0,-4 0,-5 0,-15 0,-30 0,-44 0,-2 0,-4 0,-6 0,0 0,-1 0,-3 4,-1 8,-1 12,-1 2,-1 3,-1 4,-1 4,-1 8,-2 12,-2 32,-4 63,-10 95,-16 26,-5 51,-10 77,-15 14,-3 27,-5 40,-8 10,-1 19,-3 29,-5 14,-3 27,-5 42,-8 7,-1 15,-2 22,-3 1,0 3,0 5,0 17,-3 33,-6 50,-8 7,-1 14,-2 21,-3 9,-1 17,-1 26,-3 10,-1 20,-2 31,-4 9,-2 19,-3 29,-4 8,-1 16,-2 25,-3 6,-1 14,-2 21,-4 8,0 17,-1 25,-2 7,-2 15,-3 23,-3 8,-2 16,-3 25,-4 6,-1 13,-1 20,-3 12,-1 24,-3 36,-5 4,0 7,-1 11,-1 4,-1 8,-1 13,-1 11,-2 21,-4 32,-5 2,0 3,0 5,0 1,-1 1,-1 2,-1 0,1 0,1 0,2 1,1 1,2 1,4 0,1 0,2 0,4 0,1 0,2 0,2 0,12 0,23 0,35 0,80 0,160 0,240 0,1 0,2 0,3 0,2 0,5 -1,8 -4,2 -9,2 -14,2 -3,0 -6,0 -9,0 -5,1 -11,1 -16,2 -2,0 -5,0 -8,0 -4,1 -7,1 -10,1 -5,1 -9,1 -13,1 0,0 -1,0 -2,0 -7,1 -15,1 -21,2 -5,0 -8,0 -13,1 -4,0 -8,0 -12,1 -5,0 -10,0 -15,0 -3,0 -6,1 -9,1 -7,1 -15,2 -22,2 -9,1 -17,1 -24,1 -8,1 -16,2 -24,2 0,0 0,0 0,0 -4,1 -8,1 -12,1 -4,1 -7,1 -12,1 -2,0 -5,0 -8,1 -5,0 -10,0 -15,1 -8,1 -16,1 -24,2 -4,0 -8,0 -13,1 -4,0 -7,0 -11,1 -5,0 -10,0 -15,1 -3,0 -6,0 -8,1 -2,0 -4,0 -6,0 -6,0 -12,1 -18,1 -2,0 -5,0 -7,0 -5,1 -11,1 -17,1 -5,1 -10,2 -15,2 -3,0 -6,1 -8,1 0,1 0,2 0,3 -1,2 -1,3 -1,5 -1,27 -1,53 -2,80 0,20 -1,39 -2,59 0,2 0,5 0,7 0,3 0,5 0,8 0,1 0,2 0,4 0,0 0,0 0,1 2,0 2,0 3,1 2,0 3,0 4,0 13,0 26,0 38,0 15,1 30,1 45,1 17,0 33,0 50,1 20,0 39,0 59,0 11,1 23,1 35,1 8,0 15,0 22,0 3,0 5,0 7,0 1,0 2,0 3,0 0,1 0,1 0,2 1,1 1,2 1,4 0,1 0,3 0,4 0,1 0,1 0,2 0,9 0,18 0,26 0,53 0,105 0,157 0,3 0,5 0,7 0,1 0,3 0,4 -1,0 -2,0 -3,0 -1,0 -2,0 -3,0 -20,0 -40,0 -61,0 -15,0 -30,0 -45,0 -57,0 -113,0 -170,0 -1,0 -2,0 -3,0 -1,0 -1,1 -2,1 0,0 0,1 -1,1 0,1 0,3 0,4 -1,19 -2,37 -2,56 0,12 -1,23 -1,34 -1,16 -1,33 -2,49 -1,17 -2,34 -3,51 0,1 0,3 0,5 0,1 0,2 0,2 1,1 2,1 3,1 1,0 2,0 4,0 37,-2 74,-4 111,-6 1,0 1,0 3,0 38,-2 77,-3 116,-5 36,-2 71,-3 106,-5 4,0 8,0 12,0 6,-1 13,-1 19,-1 20,-1 40,-2 60,-3 1,0 3,0 5,0 0,0 1,0 2,0 0,0 1,1 1,1 0,0 0,0 0,0 0,0 0,0 0,0 0,1 0,1 0,1 -7,100 -14,201 -21,301 0,0 0,1 0,2 -1,0 -1,0 -1,1zm815 -631l0 0c0,0 0,0 0,0 1,-1 2,-2 2,-2 11,-9 22,-18 32,-27 2,-1 4,-3 5,-6 0,0 0,0 1,0 9,-10 19,-20 30,-29 49,-39 104,-66 164,-81 23,-5 47,-7 72,-6 21,0 42,4 63,10 43,13 79,38 107,74 16,20 29,41 40,64 14,31 26,63 34,96 7,33 13,66 17,101 7,56 10,112 9,169 -1,34 -2,69 -4,104 -3,31 -6,61 -9,91 -2,18 -5,36 -7,54 -1,7 -2,14 -3,21 0,2 -1,4 -2,5 -1,2 -2,3 -3,3 -2,1 -4,1 -6,1 0,0 0,0 -1,0 -1,0 -2,1 -4,1 -8,1 -16,2 -24,2 -8,1 -16,1 -25,2 -10,1 -21,2 -31,3 -12,1 -24,2 -36,3 -7,1 -14,2 -21,2 -3,1 -5,1 -8,1 -12,2 -25,3 -37,4 -10,1 -21,2 -31,3 -9,1 -18,1 -26,2 -3,0 -6,1 -8,1 -2,0 -3,1 -5,1 -6,0 -8,-2 -7,-9 2,-9 3,-18 4,-27 4,-19 7,-39 10,-58 5,-29 8,-59 12,-89 3,-23 5,-47 7,-71 1,-4 1,-10 2,-15 0,0 0,-1 0,-1 0,-3 1,-5 1,-8 0,-7 0,-15 1,-22 0,-19 1,-37 1,-55 1,-36 -1,-72 -6,-108 -3,-23 -8,-46 -15,-67 -6,-15 -13,-28 -21,-40 -11,-15 -25,-25 -42,-32 -13,-5 -27,-6 -42,-4 -34,5 -63,20 -87,47 -24,25 -40,55 -50,90 -2,12 -3,24 -4,35 -2,29 -4,57 -6,85 -2,22 -4,43 -5,66 0,2 0,6 -1,9 -1,22 -2,44 -3,66 -1,10 -1,20 -1,30 0,1 -1,2 -1,3 0,4 0,7 0,11 0,8 -1,17 -1,26 -1,32 -2,64 -3,96 0,5 -1,9 -1,12 -1,2 -2,4 -4,4 -2,1 -5,2 -10,2 -1,0 -1,0 -1,0 -13,2 -26,3 -39,4 -7,1 -13,1 -20,2 0,0 -1,0 -2,0 -13,1 -26,2 -40,4 -8,0 -16,1 -24,1 -10,2 -21,3 -31,3 -10,2 -20,3 -30,3 -9,2 -17,2 -25,3 -4,1 -9,1 -13,1 -6,1 -13,1 -20,2 -6,1 -10,1 -12,-1 -1,-2 -1,-7 1,-14 7,-38 13,-77 19,-116 5,-31 9,-62 12,-94 1,-13 2,-25 3,-38 1,-9 1,-18 2,-26 3,-38 4,-75 2,-112 0,-30 -3,-59 -9,-89 -4,-19 -10,-37 -18,-54 -6,-13 -13,-24 -22,-34 -20,-21 -43,-30 -71,-27 -34,2 -63,17 -87,45 -7,9 -14,18 -21,28 -19,31 -32,64 -39,100 -3,13 -4,25 -4,38 -3,77 -6,154 -7,232 -1,40 -1,79 1,119 1,7 1,15 1,23 0,5 -2,7 -7,7 -19,2 -38,3 -57,3 -28,2 -55,4 -82,5 -13,1 -26,1 -38,2 -1,0 -1,0 -2,0 -1,1 -2,1 -3,1 -6,0 -12,0 -18,1 -17,0 -34,1 -51,3 -8,0 -17,0 -25,0 -4,0 -6,-2 -6,-6 0,-2 0,-5 0,-8 0,-3 0,-6 0,-9 0,0 0,-1 0,-3 0,-240 0,-480 0,-720 0,-1 0,-2 0,-3 -1,-4 -1,-9 0,-13 0,-2 0,-3 0,-5 0,-1 0,-2 0,-3 6,-1 11,-3 16,-4 31,-7 62,-14 93,-21 28,-6 55,-12 82,-18 21,-5 42,-9 63,-14 2,0 3,0 5,-1 1,0 3,1 4,1 1,1 2,2 2,4 0,1 0,1 0,1 0,1 0,2 0,3 0,1 0,3 0,5 0,1 0,2 0,3 -1,4 -1,8 -1,12 -1,10 -1,21 -1,31 0,3 -1,5 -1,8 -1,26 -2,52 -3,79 0,3 0,7 0,11 0,1 0,2 0,4 0,0 0,0 1,0 0,0 0,0 1,1 0,0 0,0 1,0 0,0 0,0 0,0 0,-1 1,-1 1,-1 2,-2 3,-3 4,-5 6,-8 12,-15 18,-24 7,-10 15,-19 24,-28 11,-10 23,-19 36,-28 38,-25 78,-44 120,-57 32,-9 64,-12 97,-10 23,0 45,4 67,12 37,14 68,36 94,68 15,16 27,35 37,55 1,1 1,2 2,4 2,4 4,8 8,11zm611 -20l0 0c6,-1 11,-3 16,-5 11,-4 22,-7 34,-11 12,-4 24,-7 36,-11 13,-4 25,-8 36,-11 24,-8 49,-13 74,-15 14,-2 28,-3 42,-4 5,-1 10,-1 15,-1 3,-1 6,-1 9,-1 5,0 7,1 9,2 1,2 1,5 1,9 1,16 1,32 1,48 0,23 1,45 1,68 0,6 0,13 1,20 0,3 0,6 1,9 0,0 0,0 0,0 0,0 0,0 0,0 0,0 0,0 1,0 0,0 0,0 0,0 0,0 1,0 1,0 0,0 1,0 2,0 1,-1 3,-3 4,-5 0,0 1,0 1,-1 5,-7 10,-15 15,-21 18,-25 38,-45 63,-61 14,-10 28,-18 43,-27 37,-20 77,-30 119,-29 37,1 74,8 110,23 55,23 100,61 133,114 23,37 39,77 50,119 8,30 12,61 15,92 2,32 2,64 -2,96 -4,47 -15,93 -32,137 -22,54 -58,96 -106,124 -33,21 -69,35 -107,41 -33,6 -67,6 -101,2 -55,-7 -108,-23 -159,-48 -3,-2 -6,-4 -8,-5 -5,-2 -10,-5 -15,-7 -1,0 -2,0 -3,1 -2,0 -2,1 -2,2 0,0 0,1 0,1 0,1 0,2 0,2 1,24 2,47 2,70 1,7 2,13 2,21 0,4 0,8 0,13 1,12 1,23 2,35 1,26 2,53 3,79 1,22 2,45 3,67 1,12 1,25 2,38 0,6 1,13 1,20 0,3 -3,5 -7,5 -20,-1 -40,-2 -60,-3 -5,0 -9,0 -14,0 -1,-1 -2,-1 -2,-1 -1,0 -2,0 -3,0 -10,-1 -20,-1 -30,-1 -21,-1 -42,-3 -64,-4 -19,-1 -37,-3 -55,-4 -13,0 -25,-1 -38,-2 -5,0 -10,0 -16,-1 -4,0 -8,0 -12,0 -1,0 -1,0 -1,0 -2,0 -5,-1 -8,-1 0,0 -1,-1 -2,-1 0,-1 -1,-2 -1,-2 0,-2 0,-4 0,-6 0,-4 0,-8 0,-12 0,-1 0,-1 0,-2 0,-17 0,-35 0,-53 0,-292 0,-585 0,-879 0,-1 0,-2 0,-3 -1,-6 -1,-13 0,-20zm290 469l0 0c10,15 22,26 36,35 42,26 86,33 132,20 44,-14 76,-42 98,-84 20,-41 26,-83 19,-128 -8,-43 -24,-77 -48,-103 -24,-26 -50,-44 -77,-53 -22,-9 -45,-11 -69,-6 -42,9 -75,32 -97,70 -3,5 -4,10 -4,15 0,6 0,12 0,18 0,4 0,8 0,12 3,40 5,81 6,122 1,18 2,37 3,56 0,9 0,17 1,26zm1403 -215l0 0c0,78 -14,154 -42,226 -19,47 -44,89 -76,127 -46,54 -103,92 -169,114 -29,9 -59,15 -89,18 -18,2 -35,3 -52,2 -37,-2 -72,-10 -106,-21 -97,-34 -180,-92 -247,-175 -41,-51 -70,-109 -88,-174 -10,-36 -15,-73 -16,-110 0,-1 0,-2 0,-2 0,-9 0,-18 0,-27 2,-103 34,-194 94,-273 55,-71 124,-120 206,-147 28,-8 56,-15 85,-18 31,-4 62,-5 94,-2 64,4 126,20 185,50 56,28 103,69 140,122 29,42 49,89 62,139 10,38 16,76 18,115 1,9 1,17 1,25 0,4 0,8 0,11zm-235 -3l0 0c0,-1 0,-2 0,-4 0,-5 0,-10 0,-15 0,-7 -1,-14 -2,-20 0,-1 0,-1 0,-2 -4,-22 -10,-44 -20,-65 -21,-41 -51,-70 -92,-88 -41,-17 -83,-22 -127,-15 -34,6 -65,20 -94,42 -61,55 -85,124 -71,209 7,33 21,63 41,89 32,40 70,68 116,83 20,6 40,10 60,10 7,-1 14,-2 22,-2 1,-1 2,-1 3,-1 19,-2 37,-8 55,-17 41,-21 70,-53 88,-97 15,-33 21,-68 21,-107z"/>
    <path class="fil1" d="M8106 959l0 0c0,-2 1,-4 1,-6 1,-6 1,-10 2,-15 2,-14 4,-28 6,-43 2,-15 4,-30 5,-44 3,-17 5,-35 7,-52 2,-13 4,-25 5,-37 2,-12 4,-24 5,-36 1,-7 2,-15 4,-23 1,-9 2,-19 3,-28 2,-13 3,-26 5,-39 2,-13 4,-25 5,-37 1,-9 2,-18 3,-27 1,-2 1,-4 1,-7 2,-17 5,-35 7,-52 2,-14 4,-27 6,-40 0,-2 1,-4 2,-5 0,-1 2,-2 4,-2 1,0 2,0 2,0 4,-1 8,-2 12,-2 8,-1 16,-2 23,-2 8,-1 17,-2 26,-3 9,-1 19,-1 29,-3 6,0 13,-1 19,-2 11,-1 22,-2 33,-4 23,-2 46,-4 70,-7 3,0 4,2 6,5 1,7 3,15 5,22 8,32 16,64 24,95 28,113 57,226 85,339 1,1 1,2 1,4 2,6 3,11 6,15 0,1 0,1 0,1 0,0 1,0 2,0 0,0 0,0 0,0 0,-1 0,-1 0,-1 0,-1 0,-2 1,-2 1,-4 2,-8 3,-12 5,-27 10,-54 15,-81 6,-35 13,-70 20,-105 6,-35 13,-70 19,-104 5,-29 11,-57 16,-85 4,-22 8,-43 12,-65 3,-17 6,-34 10,-50 1,-3 1,-7 2,-10 0,0 0,0 1,0 0,-2 0,-3 1,-3 1,-1 2,-1 3,-1 1,0 2,0 3,0 5,0 8,1 12,2 16,2 32,4 49,7 18,3 36,6 54,8 18,4 37,6 55,9 8,1 16,3 25,4 9,1 18,2 27,3 2,1 3,1 4,1 1,1 1,1 1,1 1,0 2,1 3,2 0,1 0,3 0,4 0,4 -1,7 -1,11 -2,9 -3,18 -5,27 -2,13 -4,25 -6,38 -9,50 -18,100 -27,150 -11,57 -23,113 -38,170 -29,119 -61,238 -96,356 -1,4 -2,8 -3,11 -1,3 -3,5 -5,5 -4,1 -7,1 -10,2 -10,1 -20,2 -29,3 -6,1 -13,1 -19,2 -10,1 -20,1 -29,2 -11,2 -21,3 -32,4 -6,1 -12,2 -19,2 -12,1 -25,3 -38,4 -17,2 -35,4 -52,5 -3,1 -6,1 -10,1 -4,1 -6,-1 -7,-5 -2,-9 -4,-18 -6,-26 -15,-79 -32,-156 -51,-233 -12,-49 -25,-97 -39,-145 -1,-3 -2,-6 -2,-8 -1,0 -1,0 -1,-1 0,0 0,0 -1,0 0,0 0,0 0,0 -1,0 -1,0 -1,0 -1,0 -1,1 -1,1 0,0 0,0 0,0 0,1 -1,2 -2,3 -3,24 -6,49 -10,73 -1,4 -1,8 -2,12 -3,23 -7,46 -10,70 -3,14 -5,29 -7,43 -1,12 -3,24 -6,37 -1,13 -3,26 -5,39 -2,14 -4,27 -6,40 -2,11 -3,21 -4,31 -2,9 -3,18 -4,27 -1,4 -2,8 -3,12 0,2 -2,4 -4,4 -1,0 -1,1 -3,1 -2,1 -4,1 -6,1 -18,3 -34,5 -50,8 -21,3 -40,6 -59,8 -32,5 -64,10 -95,14 -12,2 -23,4 -34,6 -9,1 -17,2 -25,4 -2,0 -4,0 -6,0 -3,0 -5,-1 -5,-3 -3,-5 -5,-10 -6,-15 -5,-10 -9,-21 -13,-31 -10,-26 -20,-53 -31,-79 -44,-118 -87,-238 -126,-358 -28,-83 -50,-168 -68,-254 -3,-14 -6,-27 -8,-41 -1,-5 -2,-10 -3,-16 0,-3 1,-5 4,-7 3,0 7,-1 10,-1 34,-7 68,-13 103,-18 17,-3 34,-6 51,-9 14,-2 29,-5 44,-7 5,-1 10,-2 15,-3 5,-1 10,-2 15,-3 4,-1 9,-1 14,-1 5,-1 8,1 8,6 8,37 16,75 23,112 1,2 1,4 2,6 4,22 8,44 13,66 9,41 17,82 26,124 6,33 13,67 20,101 6,29 12,59 18,89 1,5 2,10 4,16 1,8 2,15 4,23 0,0 0,0 0,0 1,2 1,3 2,4 0,1 1,2 3,3zm1171 -573l0 0c21,-1 43,0 67,4 52,6 100,21 146,46 50,29 90,68 122,118 10,14 19,29 26,46 12,24 17,50 16,78 -2,34 -12,65 -32,91 -19,27 -45,46 -78,56 -8,2 -16,4 -23,5 -3,0 -6,1 -8,2 -13,1 -26,3 -39,5 -6,1 -13,2 -20,3 -11,2 -22,3 -33,5 -9,2 -18,3 -27,4 -10,1 -20,3 -30,5 -9,1 -18,3 -28,4 -10,2 -21,3 -31,5 -10,1 -20,3 -31,4 -9,1 -19,3 -29,5 -9,1 -18,2 -27,4 -9,1 -18,2 -27,3 -13,2 -25,4 -36,6 -11,2 -21,4 -32,4 -9,2 -18,3 -27,5 -3,1 -7,2 -11,2 -4,1 -5,3 -5,7 2,13 5,27 10,39 16,43 42,77 79,101 39,25 81,35 126,31 33,-4 65,-15 93,-34 17,-11 31,-23 45,-38 3,-2 5,-5 8,-7 2,-3 4,-4 7,-3 3,1 7,1 9,2 2,1 4,1 6,1 10,1 19,3 29,5 25,5 51,10 77,15 16,3 32,6 48,9 12,2 25,4 37,6 8,2 16,4 24,6 2,0 3,0 3,2 1,1 1,2 0,4 0,0 0,1 0,2 -1,2 -2,5 -3,7 -21,47 -51,85 -90,115 -26,20 -53,36 -82,48 -35,15 -70,27 -106,36 -13,4 -26,7 -40,9 -33,6 -67,7 -100,4 -21,-2 -42,-5 -62,-8 -96,-20 -180,-64 -255,-131 -41,-37 -74,-82 -97,-134 -16,-34 -26,-69 -32,-106 -3,-21 -5,-43 -5,-65 0,-76 19,-145 55,-210 42,-72 98,-127 168,-165 41,-23 84,-39 130,-48 37,-7 75,-11 115,-10zm-36 201l0 0c-1,0 -3,0 -4,0 -8,0 -15,1 -24,2 -19,6 -37,14 -53,25 -24,17 -44,39 -61,65 -17,26 -28,51 -34,77 -2,4 -3,10 -3,15 -1,2 -1,3 -1,5 0,1 0,1 -1,2 0,1 0,1 1,2 0,1 0,1 1,1 0,1 1,1 1,1 2,0 4,0 7,0 6,-2 13,-4 19,-5 7,-2 14,-3 22,-5 35,-8 70,-16 106,-23 39,-8 78,-17 117,-25 1,0 2,-1 4,-1 7,-2 14,-4 21,-6 15,-5 24,-15 27,-29 4,-14 1,-28 -8,-40 -3,-3 -5,-5 -6,-7 -18,-15 -37,-28 -58,-37 -21,-12 -45,-17 -73,-17zm431 -85l0 0c2,0 3,-1 4,-2 4,0 7,-1 10,-1 79,-18 159,-36 238,-53 3,-1 5,-1 8,-2 1,0 1,0 2,0 1,0 2,0 4,1 1,1 1,2 1,3 0,0 0,0 0,1 1,1 1,2 1,3 1,13 2,25 4,37 0,6 1,13 1,19 2,10 3,21 3,31 1,5 2,10 3,16 0,1 0,3 1,5 0,0 0,1 0,1 0,0 0,0 0,0 0,0 0,0 0,0 0,0 0,0 0,0 1,0 1,0 2,0 1,0 1,0 1,-1 1,0 1,-1 3,-3 3,-4 7,-9 10,-14 13,-18 29,-33 47,-44 28,-19 59,-33 92,-40 28,-8 56,-10 85,-8 39,3 77,11 115,25 5,2 10,4 15,7 1,0 2,1 4,1 1,1 1,2 2,3 0,2 0,2 0,3 -1,1 -1,1 -1,2 -2,2 -3,5 -5,7 -42,62 -84,123 -126,185 -2,3 -5,6 -7,10 0,0 -1,0 -2,0 -1,0 -1,0 -1,0 -3,-2 -6,-4 -9,-6 -13,-11 -27,-21 -43,-28 -15,-7 -30,-11 -45,-13 -6,-1 -12,-1 -19,0 -21,1 -42,6 -61,15 -11,5 -20,11 -29,18 -10,9 -17,20 -23,31 -4,8 -6,17 -6,27 0,5 -1,11 -1,17 0,14 0,28 0,42 0,28 0,57 2,86 1,44 2,88 3,132 1,18 1,36 2,54 0,0 0,0 0,1 0,0 0,0 0,1 0,7 0,15 1,23 1,44 2,88 3,131 1,4 1,7 1,11 0,5 -3,7 -8,7 -10,2 -20,3 -30,4 -15,1 -32,3 -48,5 -9,0 -17,1 -26,3 -8,0 -17,1 -25,2 -9,1 -17,2 -26,3 -7,1 -14,2 -22,2 -9,1 -18,2 -27,3 -9,1 -18,2 -26,3 -16,2 -32,3 -47,4 -2,0 -3,0 -4,-1 -2,-1 -2,-2 -2,-4 0,0 0,-1 0,-1 0,-2 0,-3 0,-4 0,-4 0,-7 0,-11 0,-1 0,-1 0,-2 0,-79 0,-159 0,-238 0,-11 0,-22 0,-34 0,-26 0,-53 0,-79 0,-124 0,-249 0,-372 0,-2 0,-3 0,-5 -1,-6 0,-12 1,-19z"/>
   </g>
   <path class="fil1" d="M7175 2442l0 0c-4,1 -8,2 -12,2 -9,2 -18,3 -27,4 -26,4 -51,9 -77,13 -14,2 -28,4 -42,6 -17,3 -33,5 -50,8 -13,2 -27,4 -40,7 -11,1 -22,3 -32,4 -23,5 -46,8 -69,11 -17,3 -34,6 -52,8 -1,1 -3,1 -4,0 0,0 -1,0 -1,-1 -1,0 -1,0 -1,0 -1,-3 -1,-6 -1,-9 1,-16 1,-32 2,-48 0,-1 0,-1 0,-2 2,-44 4,-88 5,-132 0,-1 0,-3 0,-4 0,-1 0,-3 0,-4 1,-15 2,-29 2,-44 1,-28 2,-57 3,-85 1,-20 2,-41 2,-60 1,-10 1,-19 1,-29 0,-2 0,-3 0,-4 1,-2 1,-4 1,-6 0,-5 -1,-10 -3,-14 -7,-12 -12,-25 -18,-36 -3,-6 -6,-13 -10,-18 -19,-39 -38,-78 -57,-116 -71,-145 -143,-290 -215,-434 -2,-5 -4,-11 -7,-17 0,0 1,0 1,-1 0,0 0,-1 1,-1 0,0 0,-1 1,-1 1,0 1,0 2,0 7,-1 15,-1 23,-2 8,-1 17,-1 26,-2 11,-1 22,-2 34,-2 9,-1 18,-2 27,-3 15,-1 30,-2 46,-3 8,-1 17,-1 26,-2 11,-1 23,-2 34,-2 13,-2 26,-3 39,-4 8,0 17,-1 26,-1 16,-2 32,-4 49,-5 2,0 5,1 6,2 1,0 3,3 4,6 1,2 1,5 2,8 0,1 1,2 1,3 8,22 15,44 22,67 35,110 70,221 105,332 0,0 1,1 1,2 1,4 2,7 4,11 0,0 1,-1 1,-1 0,0 1,0 1,0 0,0 0,0 1,0 1,-1 1,-3 2,-5 4,-26 9,-52 14,-78 8,-39 15,-78 22,-117 8,-41 16,-82 24,-123 5,-25 9,-51 15,-75 1,-7 2,-14 3,-22 2,-7 3,-15 4,-22 1,-4 4,-7 7,-7 3,0 6,0 9,0 0,0 1,0 1,0 5,-1 9,-1 14,-1 12,-1 25,-1 38,-2 13,0 26,-1 39,-1 18,-2 36,-3 54,-3 23,-2 47,-3 71,-4 9,-1 19,-1 29,-2 1,0 1,0 1,0 1,0 1,0 1,0 4,0 8,0 11,0 35,-2 70,-3 104,-5 2,0 4,0 5,0 0,0 0,0 0,0 1,0 1,0 2,1 1,0 1,1 2,1 0,1 0,1 0,1 -1,2 -1,3 -1,4 -1,2 -2,4 -3,7 -15,40 -31,80 -47,120 -45,114 -90,228 -135,343 -28,71 -56,143 -84,214 0,1 -1,2 -1,3 0,1 -1,2 -1,3 -3,5 -4,10 -3,15 0,3 0,7 1,10 0,4 0,8 1,13 1,29 3,57 6,85 0,13 1,25 2,38 1,10 2,20 3,31 1,17 2,34 3,52 1,11 1,22 2,34 1,12 2,23 2,35 1,8 1,15 2,22 1,5 1,11 1,17 0,4 1,8 1,12 -1,1 -1,2 -1,3 -1,0 -1,1 -1,2zm886 -336l0 0c0,70 -14,138 -41,204 -19,42 -43,81 -73,115 -46,49 -100,83 -164,102 -28,9 -57,14 -87,17 -16,2 -33,2 -50,2 -35,-2 -69,-9 -102,-20 -94,-30 -174,-82 -239,-157 -39,-47 -68,-99 -85,-158 -9,-32 -14,-66 -15,-100 0,0 0,-1 0,-1 -1,-8 -1,-16 0,-25 2,-93 32,-175 91,-247 53,-64 120,-108 199,-132 27,-8 54,-14 82,-17 30,-3 60,-4 90,-2 63,4 122,19 179,45 55,26 100,63 136,111 28,38 48,80 60,126 10,34 16,69 18,104 0,8 0,15 0,23 1,3 1,6 1,10zm-227 -3l0 0c0,-1 0,-3 0,-4 0,-5 0,-9 0,-14 -1,-6 -2,-12 -3,-18 0,0 0,-1 0,-1 -3,-21 -10,-40 -19,-59 -20,-37 -50,-64 -89,-79 -40,-16 -81,-21 -122,-14 -34,5 -64,18 -91,38 -60,49 -83,112 -69,188 7,30 20,57 40,81 30,36 67,61 112,76 19,5 38,8 57,8 7,-1 14,-1 22,-2 1,0 2,-1 3,-1 18,-2 36,-7 53,-15 39,-19 68,-48 85,-87 14,-30 21,-62 21,-97zm1026 351l0 0c-4,3 -8,4 -12,4 -1,0 -1,0 -2,0 -46,10 -91,20 -136,29 -16,3 -32,6 -47,10 -2,0 -4,0 -6,0 -14,4 -29,7 -43,10 -1,0 -3,0 -5,0 0,0 -1,0 -2,1 -1,0 -1,-1 -2,-2 0,0 -1,-1 -1,-2 0,0 0,-1 0,-1 0,-2 0,-4 0,-6 0,-13 1,-26 1,-39 1,-10 1,-21 2,-33 0,-3 0,-7 0,-12 0,-4 1,-8 1,-12 0,-10 1,-19 1,-28 0,-3 0,-6 0,-8 0,-1 0,-2 0,-4 0,0 -1,0 -1,0 0,0 -1,0 -1,0 -1,0 -1,0 -1,0 -1,1 -2,2 -3,3 -1,1 -3,3 -4,4 -4,6 -8,11 -12,17 -11,13 -22,25 -36,35 -30,23 -63,41 -98,55 -24,10 -49,17 -75,22 -23,4 -47,5 -72,2 -13,-2 -27,-4 -41,-7 -41,-10 -76,-32 -104,-63 -16,-18 -29,-37 -39,-58 -16,-29 -28,-60 -36,-92 -7,-31 -13,-63 -17,-95 -5,-49 -8,-99 -7,-149 1,-33 2,-65 5,-97 2,-24 5,-48 8,-72 0,-1 0,-3 0,-5 2,-16 4,-32 7,-48 0,-2 1,-5 1,-7 1,-4 2,-9 2,-13 1,-2 1,-4 1,-6 1,-1 2,-2 3,-3 1,-1 3,-1 4,-1 0,0 0,0 0,0 2,0 5,-1 7,-1 8,-1 15,-2 22,-2 10,-1 21,-2 32,-3 9,0 19,-1 29,-2 8,-1 16,-2 24,-3 10,-1 20,-1 29,-2 8,-1 16,-1 24,-2 9,-1 17,-1 25,-3 11,0 22,-1 32,-2 10,-1 20,-1 29,-2 1,0 2,0 4,1 0,0 1,0 3,0 -1,2 -2,5 -2,7 -1,4 -1,9 -2,13 -7,36 -14,72 -20,109 -4,30 -8,60 -11,90 -3,36 -6,72 -6,108 0,30 2,60 5,91 3,17 7,35 13,53 4,11 9,22 16,33 7,11 15,20 24,27 14,10 29,15 46,15 32,2 61,-8 86,-29 12,-11 22,-23 30,-36 21,-30 35,-64 41,-100 1,-5 2,-10 2,-14 0,-1 0,-1 0,-1 1,-12 1,-23 1,-33 5,-95 6,-189 5,-284 0,-6 0,-12 0,-18 0,-4 -1,-8 -1,-11 0,-2 0,-3 1,-5 0,0 0,0 0,-1 0,0 0,-1 1,-2 1,-1 2,-2 3,-2 3,0 6,0 9,-1 31,-1 62,-2 93,-4 9,0 17,-1 26,-2 1,0 1,0 2,0 0,0 1,0 1,0 10,0 20,0 29,0 23,-2 47,-3 71,-4 7,-1 13,-1 20,-2 5,0 10,0 15,0 3,0 5,0 7,0 0,0 0,1 1,1 1,1 1,1 1,2 0,1 0,3 0,4 0,5 0,10 0,15 0,0 0,0 0,1 0,217 0,434 0,652 0,2 0,3 0,4 1,5 1,11 0,16zm168 -883l0 0c1,0 1,-1 2,-1 1,0 2,-1 3,-1 9,0 18,-1 28,-2 11,-1 22,-1 32,-2 11,0 22,-1 33,-2 17,-1 35,-3 53,-4 7,0 14,-1 21,-2 1,0 1,0 1,0 1,0 1,0 1,0 4,0 8,0 11,0 24,-2 48,-3 72,-4 1,0 2,0 4,0 0,0 1,0 1,0 1,0 2,0 3,1 0,1 1,2 1,3 -1,5 -2,9 -3,13 -1,11 -3,21 -5,32 -5,24 -9,48 -13,72 -3,20 -5,39 -8,59 -1,7 -2,14 -3,21 -1,7 -2,15 -3,23 0,2 0,3 1,4 1,1 2,1 4,1 2,1 4,1 7,1 5,0 11,0 17,0 0,0 1,0 2,0 6,0 12,0 17,0 17,0 34,0 51,0 4,0 7,0 10,1 0,0 1,0 1,1 1,0 1,1 1,2 -1,3 -1,6 -2,9 -5,18 -10,36 -16,53 -2,9 -5,18 -7,27 -4,12 -7,23 -11,35 -3,12 -7,23 -10,33 0,3 -1,5 -1,6 -2,2 -3,4 -6,4 -4,0 -8,0 -12,0 -8,0 -15,0 -22,0 -10,0 -20,0 -29,0 -3,0 -6,0 -8,0 -1,0 -2,1 -3,1 0,1 0,2 0,2 0,4 -1,8 -1,12 -1,8 -1,17 -2,25 -1,20 -2,39 -4,57 -1,8 -1,16 -2,23 0,5 -1,10 -2,15 -2,25 -3,51 -3,76 0,12 1,23 1,35 0,11 2,21 6,31 1,4 3,8 4,11 8,17 21,27 40,30 3,0 6,1 9,2 1,0 2,0 4,0 0,0 0,1 1,1 0,2 0,3 0,4 0,5 0,10 0,14 0,4 0,8 0,12 0,61 0,122 0,184 0,1 0,2 0,4 1,4 1,9 0,14 -1,0 -2,1 -3,1 -1,1 -2,2 -4,2 -30,12 -61,18 -93,18 0,0 -1,0 -1,0 -19,0 -38,-1 -57,-4 -23,-4 -45,-10 -65,-19 -37,-16 -63,-43 -79,-79 -10,-21 -16,-42 -20,-65 -6,-44 -8,-87 -5,-131 2,-25 4,-49 6,-73 1,-12 2,-24 3,-37 1,-4 1,-8 1,-12 1,-5 1,-10 2,-16 1,-7 2,-14 2,-21 2,-20 4,-40 6,-59 1,-9 2,-16 2,-24 1,-2 1,-5 1,-7 0,-7 1,-14 2,-20 0,-3 0,-5 0,-7 0,-1 0,-1 0,-1 0,-1 -1,-2 -2,-3 0,-1 -2,-1 -3,-1 -3,-1 -6,-1 -10,-1 -12,0 -24,0 -36,0 -17,-1 -33,-1 -49,-1 -8,0 -15,0 -22,-1 -2,0 -3,0 -4,-2 0,-1 -1,-2 -1,-3 0,-3 1,-6 1,-9 5,-35 10,-70 15,-105 2,-11 4,-22 5,-33 1,-1 2,-3 2,-6 0,-1 1,-3 2,-3 1,-1 2,-2 3,-2 5,0 10,0 15,0 16,0 31,0 46,0 9,0 18,0 27,0 1,0 1,0 1,0 4,0 7,0 11,-1 3,0 5,0 6,-1 1,-1 2,-3 3,-5 0,-4 0,-7 1,-11 0,-5 1,-11 1,-18 1,-6 1,-13 2,-21 2,-16 4,-34 6,-52 3,-25 7,-50 11,-77 1,-5 2,-10 2,-16 0,-2 1,-4 2,-6 1,-2 1,-3 1,-4zm347 -3l0 0c9,-2 18,-4 27,-6 2,0 5,0 8,-1 50,-11 100,-21 149,-32 6,0 12,-2 17,-3 17,-3 33,-7 50,-10 4,-1 5,1 5,4 0,0 0,0 0,1 1,1 1,2 1,3 0,3 0,5 0,7 0,1 0,1 0,2 0,20 0,40 0,60 0,53 0,106 0,160 0,17 -1,34 -1,51 -1,5 -1,11 -1,16 -1,18 -1,35 -3,53 0,17 -1,33 -1,49 0,2 0,4 0,5 0,0 0,1 0,1 0,0 0,0 1,0 0,0 0,0 1,1 0,0 0,0 0,-1 0,0 0,0 0,0 2,0 3,-1 3,-2 2,-1 2,-2 3,-4 5,-5 9,-11 14,-17 11,-15 24,-28 39,-39 21,-15 43,-28 67,-39 31,-16 63,-27 96,-33 28,-5 56,-7 83,-3 17,2 33,5 50,10 31,10 58,27 81,49 16,16 30,34 41,53 16,27 28,56 37,86 10,32 17,63 21,96 7,52 11,105 10,157 -1,34 -2,67 -4,101 -3,27 -6,54 -9,81 -3,24 -6,48 -10,73 0,0 0,0 -1,0 0,1 0,2 0,2 0,4 -2,7 -6,7 -6,1 -12,2 -18,2 -22,2 -45,4 -68,7 -9,0 -17,1 -26,1 -9,1 -18,2 -27,3 -11,0 -21,1 -31,2 -8,1 -16,2 -23,3 -18,1 -36,2 -54,4 -2,0 -5,0 -7,0 -1,0 -2,0 -2,0 -1,0 -2,0 -3,-1 -1,-1 -1,-2 -1,-3 0,0 0,0 1,-1 1,-7 2,-13 3,-19 7,-37 13,-73 19,-109 0,-5 1,-9 1,-14 2,-16 5,-31 7,-48 1,-10 2,-20 3,-31 0,-8 1,-16 2,-24 2,-28 3,-56 3,-84 0,-26 -1,-52 -4,-76 -3,-24 -8,-46 -16,-68 -3,-9 -8,-18 -13,-27 -5,-7 -10,-14 -16,-20 -16,-14 -34,-22 -55,-22 -34,-1 -64,10 -89,34 -10,9 -19,20 -27,32 -20,29 -33,61 -40,95 0,3 -1,6 -1,9 0,2 -1,5 -1,8 -1,8 -1,16 -1,24 -1,8 -1,17 -1,25 -2,53 -4,107 -4,161 -1,42 -1,86 1,129 0,5 0,9 0,14 0,1 -1,2 -2,3 -1,1 -2,2 -4,2 -5,1 -11,1 -16,1 -30,1 -60,3 -89,4 -10,1 -20,1 -30,2 0,0 -1,0 -1,0 -1,0 -1,0 -2,0 -9,0 -18,1 -27,2 -24,1 -47,2 -70,3 -6,0 -11,0 -16,1 -2,0 -5,0 -8,0 0,0 -1,0 -2,0 -3,0 -6,0 -9,0 -1,0 -2,0 -2,-1 -1,-1 -2,-1 -2,-2 0,0 0,-1 0,-1 0,-2 0,-3 0,-4 0,-4 0,-8 0,-13 0,0 0,-1 0,-1 0,-21 0,-42 0,-63 0,-285 0,-570 0,-855 0,-1 0,-3 0,-4 -1,-6 -1,-11 0,-18z"/>
  </g>
 </g>
</svg>
