<svg id="c209b59a-a3c8-47a7-9b76-6e6b5f7b1151" data-name="Layer 1" xmlns="http://www.w3.org/2000/svg" viewBox="0 0 24 24"><title>tq4</title><path d="M304.26,458.7a12,12,0,1,0-12-12A12,12,0,0,0,304.26,458.7Z" transform="translate(-292.26 -434.7)" fill="#f6af94" fill-rule="evenodd"/><rect x="10.41" y="13.59" width="3.17" height="2.95" fill="#f7b17a"/><path d="M305.17,451.28a1.23,1.23,0,0,1-1.81,0,3.2,3.2,0,0,1-.23-0.73,4.59,4.59,0,0,0,1.14,0l0.9,0.23v0.51Z" transform="translate(-292.26 -434.7)" fill="#4292cf" fill-rule="evenodd"/><path d="M307,449.41l2.36,0.4a2.15,2.15,0,0,1,1.5,2.07v1.47a0.64,0.64,0,0,1-.68.6H298.37a0.64,0.64,0,0,1-.68-0.6v-1.47a2.15,2.15,0,0,1,1.5-2.07l2.35-.4,2.72,1.13Z" transform="translate(-292.26 -434.7)" fill="#996055" fill-rule="evenodd"/><path d="M300.48,449.59v0c1.72,2.78,3.4,3.14,3.58,3.18l0.15,0h0.08l0.15,0c0.19,0,1.86-.4,3.58-3.18v0l-1.07-.18-2.71,1.13-2.72-1.13Z" transform="translate(-292.26 -434.7)" fill="#7c575e" fill-rule="evenodd"/><path d="M302.22,448.28l-0.86,1.13,1.38,2a0.23,0.23,0,0,0,.35,0l1.17-.94Z" transform="translate(-292.26 -434.7)" fill="#48b8ea" fill-rule="evenodd"/><path d="M306.3,448.28l0.86,1.13-1.38,2a0.23,0.23,0,0,1-.35,0l-1.17-.94Z" transform="translate(-292.26 -434.7)" fill="#48b8ea" fill-rule="evenodd"/><path d="M307.44,444.39L307,443.3a9.09,9.09,0,0,0-5.21-.68h0a4.25,4.25,0,0,0-.91,2.72c0,2.25,1.52,4.08,3.4,4.08s3.4-1.83,3.4-4.08a4.84,4.84,0,0,0-.12-1.05Z" transform="translate(-292.26 -434.7)" fill="#feddad" fill-rule="evenodd"/><circle cx="10.63" cy="10.64" r="0.91" fill="#bae2f0"/><path d="M302.9,444.43a0.9,0.9,0,0,0-.64.26l1.28,1.28A0.91,0.91,0,0,0,302.9,444.43Z" transform="translate(-292.26 -434.7)" fill="#fff" fill-rule="evenodd"/><circle cx="13.35" cy="10.64" r="0.91" fill="#bae2f0"/><path d="M305.62,444.43a0.9,0.9,0,0,0-.64.26l1.28,1.28A0.91,0.91,0,0,0,305.62,444.43Z" transform="translate(-292.26 -434.7)" fill="#fff" fill-rule="evenodd"/><path d="M307.87,440a0.23,0.23,0,0,0-.24-0.13,6.31,6.31,0,0,1-2-.2c-1.22-.25-2.48-0.5-3.47.21h0a1.82,1.82,0,0,0-1.72,2,17.9,17.9,0,0,0,.45,2.93,0.23,0.23,0,0,0,.21.17h0a0.23,0.23,0,0,0,.22-0.16l0.64-2.06a9.14,9.14,0,0,1,4.86.64l0.43,1a0.22,0.22,0,0,0,.22.14,0.23,0.23,0,0,0,.21-0.16A7.53,7.53,0,0,0,307.87,440Z" transform="translate(-292.26 -434.7)" fill="#7c575e" fill-rule="evenodd"/><path d="M304.72,445.56a0.23,0.23,0,0,1-.23-0.23,0.23,0.23,0,0,0-.45,0,0.23,0.23,0,1,1-.45,0,0.68,0.68,0,0,1,1.36,0A0.23,0.23,0,0,1,304.72,445.56Z" transform="translate(-292.26 -434.7)" fill="#574e66" fill-rule="evenodd"/><path d="M302,445.34h-1.14a0.23,0.23,0,1,1,0-.45H302A0.23,0.23,0,1,1,302,445.34Z" transform="translate(-292.26 -434.7)" fill="#574e66" fill-rule="evenodd"/><path d="M307.65,445.34h-1.13a0.23,0.23,0,1,1,0-.45h1.13A0.23,0.23,0,1,1,307.65,445.34Z" transform="translate(-292.26 -434.7)" fill="#574e66" fill-rule="evenodd"/><path d="M302.9,446.47a1.13,1.13,0,1,1,1.13-1.13,1.13,1.13,0,0,1-1.13,1.13h0Zm0-1.81a0.68,0.68,0,1,0,.68.68A0.68,0.68,0,0,0,302.9,444.66Z" transform="translate(-292.26 -434.7)" fill="#848290" fill-rule="evenodd"/><path d="M305.62,446.47a1.13,1.13,0,1,1,1.13-1.13,1.13,1.13,0,0,1-1.13,1.13h0Zm0-1.81a0.68,0.68,0,1,0,.68.68A0.68,0.68,0,0,0,305.62,444.66Z" transform="translate(-292.26 -434.7)" fill="#848290" fill-rule="evenodd"/><path d="M300,453.95v-1.51a2,2,0,0,0-.6-1.44l-0.84-.84a2,2,0,0,0-.32.32l0.84,0.84a1.58,1.58,0,0,1,.46,1.12v1.51H300Z" transform="translate(-292.26 -434.7)" fill="#7c575e" fill-rule="evenodd"/><path d="M310,450.15l-0.84.84a2,2,0,0,0-.6,1.44v1.51H309v-1.51a1.58,1.58,0,0,1,.46-1.12l0.84-.84A2,2,0,0,0,310,450.15Z" transform="translate(-292.26 -434.7)" fill="#7c575e" fill-rule="evenodd"/></svg>