<svg id="dba175da-4a83-4c54-8b91-30a4cdead206" data-name="Layer 1" xmlns="http://www.w3.org/2000/svg" viewBox="0 0 24 24"><title>tq3</title><circle cx="12" cy="12" r="12" fill="#dae2ec"/><path d="M276.53,366.5H262.38a0.4,0.4,0,0,0-.4.4v2.46a0.4,0.4,0,0,0,.4.4h1.47l0.58,1.16,0.58-1.16h8.89l0.58,1.16,0.58-1.16h1.47a0.4,0.4,0,0,0,.4-0.4V366.9A0.41,0.41,0,0,0,276.53,366.5Z" transform="translate(-257.45 -360.61)" fill="#f8b842" fill-rule="evenodd"/><path d="M276.53,366.5h-7.1v3.27h4.47l0.58,1.16,0.58-1.16h1.47a0.4,0.4,0,0,0,.4-0.4V366.9A0.4,0.4,0,0,0,276.53,366.5Z" transform="translate(-257.45 -360.61)" fill="#f1a200" fill-rule="evenodd"/><circle cx="17" cy="14.42" r="3.69" fill="#fff"/><path d="M274.45,371.34a3.69,3.69,0,0,1,0,7.39v-7.39Z" transform="translate(-257.45 -360.61)" fill="#f0f4f8" fill-rule="evenodd"/><path d="M276.5,376.95h-4.1v-0.69a1.15,1.15,0,0,1,.78-1.09l0.75-.25h1l0.75,0.25a1.15,1.15,0,0,1,.78,1.09v0.69Z" transform="translate(-257.45 -360.61)" fill="#f0f4f8" fill-rule="evenodd"/><path d="M276.5,376.25a1.15,1.15,0,0,0-.78-1.09l-0.75-.25h-0.54v2h2.07v-0.69h0Z" transform="translate(-257.45 -360.61)" fill="#dad9da" fill-rule="evenodd"/><polygon points="17.51 14.3 17 14.82 16.49 14.3 16.49 13.79 17.51 13.79 17.51 14.3" fill="#fddebb" fill-rule="evenodd"/><polygon points="16.97 13.79 16.97 14.79 17 14.82 17.51 14.3 17.51 13.79 16.97 13.79" fill="#f2c79a" fill-rule="evenodd"/><path d="M273.43,373.38a1,1,0,1,1,2,0c0,0.57-.46,1.54-1,1.54S273.43,373.95,273.43,373.38Z" transform="translate(-257.45 -360.61)" fill="#f7e8ca" fill-rule="evenodd"/><path d="M274.45,372.35h0v2.56h0c0.57,0,1-1,1-1.54A1,1,0,0,0,274.45,372.35Z" transform="translate(-257.45 -360.61)" fill="#fddebb" fill-rule="evenodd"/><path d="M275.48,373.38a1,1,0,1,0-2,0,2,2,0,0,0,.2.78,1.41,1.41,0,0,1,0-.43,4.1,4.1,0,0,0,1.28-.36,0.78,0.78,0,0,0,.38.28,1.48,1.48,0,0,1,0,.51A2,2,0,0,0,275.48,373.38Z" transform="translate(-257.45 -360.61)" fill="#70563d" fill-rule="evenodd"/><path d="M275.48,373.38a1,1,0,0,0-1-1h0v1.2a4.12,4.12,0,0,0,.47-0.18,0.78,0.78,0,0,0,.38.28,1.48,1.48,0,0,1,0,.51A2,2,0,0,0,275.48,373.38Z" transform="translate(-257.45 -360.61)" fill="#60482f" fill-rule="evenodd"/><polygon points="16.79 16.32 16.93 14.99 17.07 14.99 17.22 16.32 16.79 16.32" fill="#f1a200" fill-rule="evenodd"/><polygon points="17.07 14.99 16.97 14.99 16.97 16.32 17.22 16.32 17.07 14.99" fill="#f8b842" fill-rule="evenodd"/><path d="M273.71,375l-0.52.17a1.15,1.15,0,0,0-.78,1.09v0.69h2v-0.09Z" transform="translate(-257.45 -360.61)" fill="#366393" fill-rule="evenodd"/><path d="M276.5,376.25a1.15,1.15,0,0,0-.78-1.09L275.2,375l-0.75,1.94,0-.07v0.09h2.07v-0.69h0Z" transform="translate(-257.45 -360.61)" fill="#273472" fill-rule="evenodd"/><polygon points="17.75 14.38 17.89 14.99 17.62 15.12 17.89 15.43 17 16.32 17.75 14.38" fill="#201945" fill-rule="evenodd"/><polygon points="16.25 14.38 16.11 14.99 16.38 15.12 16.11 15.43 17 16.32 16.25 14.38" fill="#273472" fill-rule="evenodd"/><polygon points="17.28 14.82 17.09 15.26 16.91 15.26 16.72 14.82 17.28 14.82" fill="#f8b842" fill-rule="evenodd"/><polygon points="17.28 14.82 16.97 14.82 16.97 15.26 17.09 15.26 17.28 14.82" fill="#f1a200" fill-rule="evenodd"/><polygon points="17.44 14.99 17.75 14.38 17.51 14.3 17 14.82 17.44 14.99" fill="#fff" fill-rule="evenodd"/><polygon points="16.56 14.99 16.25 14.38 16.49 14.3 17 14.82 16.56 14.99" fill="#fff" fill-rule="evenodd"/><circle cx="7" cy="14.42" r="3.69" fill="#fff"/><path d="M264.45,371.34a3.69,3.69,0,0,1,0,7.39v-7.39Z" transform="translate(-257.45 -360.61)" fill="#f0f4f8" fill-rule="evenodd"/><path d="M266.5,376.95h-4.1v-0.69a1.15,1.15,0,0,1,.78-1.09l0.75-.25h1l0.75,0.25a1.15,1.15,0,0,1,.78,1.09v0.69Z" transform="translate(-257.45 -360.61)" fill="#f0f4f8" fill-rule="evenodd"/><path d="M266.5,376.25a1.15,1.15,0,0,0-.78-1.09l-0.75-.25h-0.54v2h2.07v-0.69h0Z" transform="translate(-257.45 -360.61)" fill="#dad9da" fill-rule="evenodd"/><polygon points="7.51 14.3 7 14.82 6.49 14.3 6.49 13.79 7.51 13.79 7.51 14.3" fill="#fddebb" fill-rule="evenodd"/><polygon points="6.97 13.79 6.97 14.79 7 14.82 7.51 14.3 7.51 13.79 6.97 13.79" fill="#f2c79a" fill-rule="evenodd"/><path d="M263.43,373.38a1,1,0,1,1,2,0c0,0.57-.46,1.54-1,1.54S263.43,373.95,263.43,373.38Z" transform="translate(-257.45 -360.61)" fill="#f7e8ca" fill-rule="evenodd"/><path d="M264.45,372.35h0v2.56h0c0.57,0,1-1,1-1.54A1,1,0,0,0,264.45,372.35Z" transform="translate(-257.45 -360.61)" fill="#fddebb" fill-rule="evenodd"/><path d="M265.48,373.38a1,1,0,1,0-2,0,2,2,0,0,0,.2.78,1.41,1.41,0,0,1,0-.43,4.1,4.1,0,0,0,1.28-.36,0.78,0.78,0,0,0,.38.28,1.48,1.48,0,0,1,0,.51A2,2,0,0,0,265.48,373.38Z" transform="translate(-257.45 -360.61)" fill="#70563d" fill-rule="evenodd"/><path d="M265.48,373.38a1,1,0,0,0-1-1h0v1.2a4.12,4.12,0,0,0,.47-0.18,0.78,0.78,0,0,0,.38.28,1.49,1.49,0,0,1,0,.51A2,2,0,0,0,265.48,373.38Z" transform="translate(-257.45 -360.61)" fill="#60482f" fill-rule="evenodd"/><polygon points="6.79 16.32 6.93 14.99 7.07 14.99 7.22 16.32 6.79 16.32" fill="#f1a200" fill-rule="evenodd"/><polygon points="7.07 14.99 6.97 14.99 6.97 16.32 7.22 16.32 7.07 14.99" fill="#f8b842" fill-rule="evenodd"/><path d="M263.71,375l-0.52.17a1.15,1.15,0,0,0-.78,1.09v0.69h2v-0.09Z" transform="translate(-257.45 -360.61)" fill="#366393" fill-rule="evenodd"/><path d="M266.5,376.25a1.15,1.15,0,0,0-.78-1.09L265.2,375l-0.75,1.94,0-.07v0.09h2.07v-0.69h0Z" transform="translate(-257.45 -360.61)" fill="#273472" fill-rule="evenodd"/><polygon points="7.75 14.38 7.89 14.99 7.62 15.12 7.89 15.43 7 16.32 7.75 14.38" fill="#201945" fill-rule="evenodd"/><polygon points="6.25 14.38 6.11 14.99 6.38 15.12 6.11 15.43 7 16.32 6.25 14.38" fill="#273472" fill-rule="evenodd"/><polygon points="7.28 14.82 7.09 15.26 6.91 15.26 6.72 14.82 7.28 14.82" fill="#f8b842" fill-rule="evenodd"/><polygon points="7.28 14.82 6.97 14.82 6.97 15.26 7.09 15.26 7.28 14.82" fill="#f1a200" fill-rule="evenodd"/><polygon points="7.44 14.99 7.75 14.38 7.51 14.3 7 14.82 7.44 14.99" fill="#fff" fill-rule="evenodd"/><polygon points="6.56 14.99 6.25 14.38 6.49 14.3 7 14.82 6.56 14.99" fill="#fff" fill-rule="evenodd"/><rect x="5.47" y="6.85" width="13.07" height="0.24" fill="#fff"/><rect x="5.47" y="7.92" width="13.07" height="0.24" fill="#fff"/><rect x="11.97" y="6.85" width="6.56" height="0.24" fill="#dad9da"/><rect x="11.97" y="7.92" width="6.56" height="0.24" fill="#dad9da"/></svg>