<svg id="5a6ebc30-f749-437a-b61d-27510146db1f" data-name="Layer 1" xmlns="http://www.w3.org/2000/svg" viewBox="0 0 24 24"><title>tq2</title><circle cx="12" cy="12" r="12" fill="#67c1ec"/><path d="M231.75,416.64a2.9,2.9,0,0,0-2.77,2.91v2.73a0.31,0.31,0,0,0,.32.32h0a0.32,0.32,0,0,0,.32-0.29l0.28-2.87a0.2,0.2,0,0,1,.18-0.17h0a0.18,0.18,0,0,1,.18.18v8.43a0.46,0.46,0,0,0,.46.46h0.09a0.48,0.48,0,0,0,.46-0.41l0.35-4.41a0.2,0.2,0,0,1,.2-0.18h0a0.2,0.2,0,0,1,.2.18l0.44,4.43a0.45,0.45,0,0,0,.51.4,0.49,0.49,0,0,0,.41-0.47v-8.4a0.18,0.18,0,0,1,.18-0.18h0a0.2,0.2,0,0,1,.18.17l0.28,2.85a0.34,0.34,0,0,0,.28.31,0.33,0.33,0,0,0,.38-0.32v-2.8A2.87,2.87,0,0,0,231.75,416.64Z" transform="translate(-224 -408.94)" fill="#fff" fill-rule="evenodd"/><circle cx="7.82" cy="5.93" r="1.33" fill="#fff"/><path d="M230.84,425.26h-3a0.18,0.18,0,0,1-.18-0.18V423a0.18,0.18,0,0,1,.18-0.18h3a0.18,0.18,0,0,1,.18.18v2.05A0.17,0.17,0,0,1,230.84,425.26Z" transform="translate(-224 -408.94)" fill="#35485e" fill-rule="evenodd"/><path d="M228.81,423v-0.38a0.27,0.27,0,0,1,.28-0.28h0.52a0.27,0.27,0,0,1,.28.28V423H230v-0.38a0.44,0.44,0,0,0-.44-0.44h-0.52a0.44,0.44,0,0,0-.44.44V423h0.18Z" transform="translate(-224 -408.94)" fill="#35485e" fill-rule="evenodd"/><polygon points="7.48 8.37 7.44 8.51 7.54 8.73 8.1 8.73 8.19 8.51 8.16 8.37 7.48 8.37" fill="#e94933" fill-rule="evenodd"/><polygon points="8.1 8.73 7.54 8.73 7.27 11.1 7.82 11.63 8.36 11.1 8.1 8.73" fill="#ed6954" fill-rule="evenodd"/><path d="M239.92,416.64a2.88,2.88,0,0,1,2.75,2.91v2.72a0.32,0.32,0,0,1-.32.32h0a0.32,0.32,0,0,1-.32-0.29l-0.28-2.86a0.2,0.2,0,0,0-.18-0.17h0a0.18,0.18,0,0,0-.18.18v8.42a0.46,0.46,0,0,1-.46.46h-0.09a0.48,0.48,0,0,1-.46-0.41L240,423.51a0.2,0.2,0,0,0-.2-0.18h0a0.2,0.2,0,0,0-.2.18l-0.44,4.42a0.45,0.45,0,0,1-.51.4,0.49,0.49,0,0,1-.41-0.47v-8.4a0.18,0.18,0,0,0-.18-0.18h0a0.2,0.2,0,0,0-.18.17l-0.28,2.85a0.34,0.34,0,0,1-.28.31,0.33,0.33,0,0,1-.38-0.32v-2.79A2.87,2.87,0,0,1,239.92,416.64Z" transform="translate(-224 -408.94)" fill="#fff" fill-rule="evenodd"/><circle cx="15.83" cy="5.94" r="1.33" fill="#fff"/><path d="M242.84,422.57a0.27,0.27,0,0,0-.28-0.28h-0.51a0.27,0.27,0,0,0-.28.28v0.28h1.06v-0.28h0Zm-2,.28h0.81v-0.28a0.44,0.44,0,0,1,.44-0.44h0.52a0.44,0.44,0,0,1,.44.44v0.28h0.81a0.18,0.18,0,0,1,.18.18v2.05a0.18,0.18,0,0,1-.18.18h-3a0.18,0.18,0,0,1-.18-0.18V423A0.17,0.17,0,0,1,240.81,422.84Z" transform="translate(-224 -408.94)" fill="#35485e" fill-rule="evenodd"/><polygon points="16.18 8.37 16.21 8.51 16.1 8.74 15.55 8.74 15.46 8.51 15.49 8.37 16.18 8.37" fill="#e94933" fill-rule="evenodd"/><polygon points="15.55 8.74 16.1 8.74 16.38 11.1 15.83 11.63 15.29 11.1 15.55 8.74" fill="#ed6954" fill-rule="evenodd"/></svg>