<?xml version="1.0" encoding="UTF-8"?>
<!DOCTYPE svg PUBLIC "-//W3C//DTD SVG 1.1//EN" "http://www.w3.org/Graphics/SVG/1.1/DTD/svg11.dtd">
<!-- Creator: CorelDRAW X7 -->
<svg xmlns="http://www.w3.org/2000/svg" xml:space="preserve" width="16.5347mm" height="16.5347mm" version="1.1" style="shape-rendering:geometricPrecision; text-rendering:geometricPrecision; image-rendering:optimizeQuality; fill-rule:evenodd; clip-rule:evenodd"
viewBox="0 0 638 638"
 xmlns:xlink="http://www.w3.org/1999/xlink">
 <defs>
  <style type="text/css">
   <![CDATA[
    .fil7 {fill:none}
    .fil8 {fill:#FEFEFE}
    .fil4 {fill:#7B7B7B;fill-rule:nonzero;fill-opacity:0.301961}
    .fil1 {fill:#9A9A9A;fill-rule:nonzero;fill-opacity:0.301961}
    .fil5 {fill:#A7A7A7;fill-rule:nonzero;fill-opacity:0.301961}
    .fil2 {fill:#C6C6C6;fill-rule:nonzero;fill-opacity:0.301961}
    .fil3 {fill:#DFDFDF;fill-rule:nonzero;fill-opacity:0.301961}
    .fil0 {fill:url(#id1);fill-rule:nonzero}
    .fil6 {fill:url(#id2);fill-rule:nonzero;fill-opacity:0.501961}
   ]]>
  </style>
    <clipPath id="id0">
     <path d="M54 0l530 0c30,0 54,24 54,54l0 530c0,30 -24,54 -54,54l-530 0c-30,0 -54,-24 -54,-54l0 -530c0,-30 24,-54 54,-54z"/>
    </clipPath>
  <linearGradient id="id1" gradientUnits="userSpaceOnUse" x1="-1040.45" y1="1940.62" x2="1267.58" y2="-339.807">
   <stop offset="0" style="stop-opacity:1; stop-color:#FFCE0C"/>
   <stop offset="0.0196078" style="stop-opacity:1; stop-color:#FFCC00"/>
   <stop offset="0.14902" style="stop-opacity:1; stop-color:#FFCD03"/>
   <stop offset="0.160784" style="stop-opacity:1; stop-color:#FFD900"/>
   <stop offset="0.858824" style="stop-opacity:1; stop-color:#FFAE00"/>
   <stop offset="1" style="stop-opacity:1; stop-color:#FFC259"/>
  </linearGradient>
  <linearGradient id="id2" gradientUnits="userSpaceOnUse" x1="-971.347" y1="1931.61" x2="1169.43" y2="-300.264">
   <stop offset="0" style="stop-opacity:1; stop-color:#FFAE00"/>
   <stop offset="1" style="stop-opacity:1; stop-color:#FFF64B"/>
  </linearGradient>
 </defs>
 <g id="Layer_x0020_1">
  <metadata id="CorelCorpID_0Corel-Layer"/>
  <g id="_2633523312720">
   <g>
   </g>
   <g style="clip-path:url(#id0)">
    <g id="_2633523314128">
     <g>
      <polygon class="fil0" points="1835,1962 -1625,1962 -1625,-345 1835,-345 "/>
      <g>
       <polygon class="fil1" points="-1625,-318 -1598,-345 -1625,-345 "/>
       <polygon class="fil1" points="-1569,-345 -1323,-99 -1323,-345 "/>
       <polygon class="fil2" points="-1323,-345 -1323,-99 -1078,-345 "/>
       <polygon class="fil3" points="-1323,-99 -1064,-99 -1064,-345 -1078,-345 "/>
       <polygon class="fil3" points="-1625,160 -1583,160 -1625,119 "/>
       <polygon class="fil4" points="-1064,160 -1064,-99 -1323,-99 "/>
       <polygon class="fil4" points="-1625,420 -1583,420 -1583,160 -1625,202 "/>
       <polygon class="fil2" points="-1625,202 -1583,160 -1625,160 "/>
       <polygon class="fil2" points="-1583,420 -1323,420 -1583,160 "/>
       <polygon class="fil5" points="-1064,420 -1064,160 -1323,420 "/>
       <polygon class="fil3" points="-1598,-345 -1625,-318 -1625,-99 -1583,-99 -1583,-345 "/>
       <polygon class="fil2" points="-1323,-99 -1569,-345 -1583,-345 -1583,-99 "/>
       <polygon class="fil5" points="-1583,-99 -1625,-99 -1625,119 -1583,160 "/>
       <polygon class="fil4" points="-1583,160 -1323,-99 -1583,-99 "/>
       <polygon class="fil3" points="-1323,160 -1323,-99 -1583,160 "/>
       <polygon class="fil5" points="-1323,160 -1064,160 -1323,-99 "/>
       <polygon class="fil4" points="-1583,160 -1323,420 -1323,160 "/>
       <polygon class="fil2" points="-1323,420 -1064,160 -1323,160 "/>
       <polygon class="fil1" points="-284,160 -544,160 -284,420 "/>
       <polygon class="fil1" points="-284,680 -284,420 -544,680 "/>
       <polygon class="fil2" points="-284,940 -284,680 -544,680 "/>
       <polygon class="fil3" points="-544,680 -544,940 -284,940 "/>
       <polygon class="fil3" points="-544,160 -804,160 -804,420 "/>
       <polygon class="fil4" points="-804,940 -544,940 -544,680 "/>
       <polygon class="fil4" points="-1064,160 -1064,420 -804,420 "/>
       <polygon class="fil2" points="-804,160 -1064,160 -804,420 "/>
       <polygon class="fil2" points="-1064,420 -1064,680 -804,420 "/>
       <polygon class="fil5" points="-1064,940 -804,940 -1064,680 "/>
       <polygon class="fil3" points="-284,420 -544,160 -544,420 "/>
       <polygon class="fil2" points="-544,680 -284,420 -544,420 "/>
       <polygon class="fil5" points="-544,420 -544,160 -804,420 "/>
       <polygon class="fil4" points="-804,420 -544,680 -544,420 "/>
       <polygon class="fil3" points="-804,680 -544,680 -804,420 "/>
       <polygon class="fil5" points="-804,680 -804,940 -544,680 "/>
       <polygon class="fil4" points="-804,420 -1064,680 -804,680 "/>
       <polygon class="fil2" points="-1064,680 -804,940 -804,680 "/>
       <polygon class="fil1" points="-284,-99 -284,-345 -299,-345 -544,-99 "/>
       <polygon class="fil2" points="-284,160 -284,-99 -544,-99 "/>
       <polygon class="fil3" points="-544,-99 -544,160 -284,160 "/>
       <polygon class="fil4" points="-804,160 -544,160 -544,-99 "/>
       <polygon class="fil2" points="-1064,-345 -1064,-99 -818,-345 "/>
       <polygon class="fil5" points="-1064,160 -804,160 -1064,-99 "/>
       <polygon class="fil2" points="-544,-99 -299,-345 -544,-345 "/>
       <polygon class="fil4" points="-790,-345 -544,-99 -544,-345 "/>
       <polygon class="fil3" points="-804,-99 -544,-99 -790,-345 -804,-345 "/>
       <polygon class="fil5" points="-804,-99 -804,160 -544,-99 "/>
       <polygon class="fil4" points="-818,-345 -1064,-99 -804,-99 -804,-345 "/>
       <polygon class="fil2" points="-1064,-99 -804,160 -804,-99 "/>
       <polygon class="fil1" points="-1625,462 -1583,420 -1625,420 "/>
       <polygon class="fil1" points="-1323,420 -1583,420 -1323,680 "/>
       <polygon class="fil2" points="-1064,420 -1323,420 -1323,680 "/>
       <polygon class="fil3" points="-1323,680 -1064,680 -1064,420 "/>
       <polygon class="fil3" points="-1625,940 -1583,940 -1625,898 "/>
       <polygon class="fil4" points="-1064,940 -1064,680 -1323,680 "/>
       <polygon class="fil4" points="-1625,1199 -1583,1199 -1583,940 -1625,981 "/>
       <polygon class="fil2" points="-1625,981 -1583,940 -1625,940 "/>
       <polygon class="fil2" points="-1583,1199 -1323,1199 -1583,940 "/>
       <polygon class="fil5" points="-1064,1199 -1064,940 -1323,1199 "/>
       <polygon class="fil3" points="-1583,420 -1625,462 -1625,680 -1583,680 "/>
       <polygon class="fil2" points="-1323,680 -1583,420 -1583,680 "/>
       <polygon class="fil5" points="-1583,680 -1625,680 -1625,898 -1583,940 "/>
       <polygon class="fil4" points="-1583,940 -1323,680 -1583,680 "/>
       <polygon class="fil3" points="-1323,940 -1323,680 -1583,940 "/>
       <polygon class="fil5" points="-1323,940 -1064,940 -1323,680 "/>
       <polygon class="fil4" points="-1583,940 -1323,1199 -1323,940 "/>
       <polygon class="fil2" points="-1323,1199 -1064,940 -1323,940 "/>
       <polygon class="fil1" points="-1625,1241 -1583,1199 -1625,1199 "/>
       <polygon class="fil1" points="-1323,1199 -1583,1199 -1323,1459 "/>
       <polygon class="fil2" points="-1064,1199 -1323,1199 -1323,1459 "/>
       <polygon class="fil3" points="-1323,1459 -1064,1459 -1064,1199 "/>
       <polygon class="fil3" points="-1625,1719 -1583,1719 -1625,1677 "/>
       <polygon class="fil4" points="-1064,1719 -1064,1459 -1323,1459 "/>
       <polygon class="fil4" points="-1583,1962 -1583,1719 -1625,1761 -1625,1962 "/>
       <polygon class="fil2" points="-1625,1761 -1583,1719 -1625,1719 "/>
       <polygon class="fil2" points="-1340,1962 -1583,1719 -1583,1962 "/>
       <polygon class="fil5" points="-1064,1962 -1064,1719 -1307,1962 "/>
       <polygon class="fil3" points="-1583,1199 -1625,1241 -1625,1459 -1583,1459 "/>
       <polygon class="fil2" points="-1323,1459 -1583,1199 -1583,1459 "/>
       <polygon class="fil5" points="-1583,1459 -1625,1459 -1625,1677 -1583,1719 "/>
       <polygon class="fil4" points="-1583,1719 -1323,1459 -1583,1459 "/>
       <polygon class="fil3" points="-1323,1719 -1323,1459 -1583,1719 "/>
       <polygon class="fil5" points="-1323,1719 -1064,1719 -1323,1459 "/>
       <polygon class="fil4" points="-1583,1719 -1340,1962 -1323,1962 -1323,1719 "/>
       <polygon class="fil2" points="-1307,1962 -1064,1719 -1323,1719 -1323,1962 "/>
       <polygon class="fil1" points="-284,940 -544,940 -284,1199 "/>
       <polygon class="fil1" points="-284,1459 -284,1199 -544,1459 "/>
       <polygon class="fil2" points="-284,1719 -284,1459 -544,1459 "/>
       <polygon class="fil3" points="-544,1459 -544,1719 -284,1719 "/>
       <polygon class="fil3" points="-544,940 -804,940 -804,1199 "/>
       <polygon class="fil4" points="-804,1719 -544,1719 -544,1459 "/>
       <polygon class="fil4" points="-1064,940 -1064,1199 -804,1199 "/>
       <polygon class="fil2" points="-804,940 -1064,940 -804,1199 "/>
       <polygon class="fil2" points="-1064,1199 -1064,1459 -804,1199 "/>
       <polygon class="fil5" points="-1064,1719 -804,1719 -1064,1459 "/>
       <polygon class="fil3" points="-284,1199 -544,940 -544,1199 "/>
       <polygon class="fil2" points="-544,1459 -284,1199 -544,1199 "/>
       <polygon class="fil5" points="-544,1199 -544,940 -804,1199 "/>
       <polygon class="fil4" points="-804,1199 -544,1459 -544,1199 "/>
       <polygon class="fil3" points="-804,1459 -544,1459 -804,1199 "/>
       <polygon class="fil5" points="-804,1459 -804,1719 -544,1459 "/>
       <polygon class="fil4" points="-804,1199 -1064,1459 -804,1459 "/>
       <polygon class="fil2" points="-1064,1459 -804,1719 -804,1459 "/>
       <polygon class="fil1" points="-284,1719 -544,1719 -301,1962 -284,1962 "/>
       <polygon class="fil3" points="-544,1719 -804,1719 -804,1962 -787,1962 "/>
       <polygon class="fil4" points="-1064,1719 -1064,1962 -821,1962 "/>
       <polygon class="fil2" points="-804,1719 -1064,1719 -821,1962 -804,1962 "/>
       <polygon class="fil3" points="-301,1962 -544,1719 -544,1962 "/>
       <polygon class="fil5" points="-544,1962 -544,1719 -787,1962 "/>
       <polygon class="fil1" points="495,680 235,680 495,940 "/>
       <polygon class="fil1" points="495,1199 495,940 235,1199 "/>
       <polygon class="fil2" points="495,1459 495,1199 235,1199 "/>
       <polygon class="fil3" points="235,1199 235,1459 495,1459 "/>
       <polygon class="fil3" points="235,680 -25,680 -25,940 "/>
       <polygon class="fil4" points="-25,1459 235,1459 235,1199 "/>
       <polygon class="fil4" points="-284,680 -284,940 -25,940 "/>
       <polygon class="fil2" points="-25,680 -284,680 -25,940 "/>
       <polygon class="fil2" points="-284,940 -284,1199 -25,940 "/>
       <polygon class="fil5" points="-284,1459 -25,1459 -284,1199 "/>
       <polygon class="fil3" points="495,940 235,680 235,940 "/>
       <polygon class="fil2" points="235,1199 495,940 235,940 "/>
       <polygon class="fil5" points="235,940 235,680 -25,940 "/>
       <polygon class="fil4" points="-25,940 235,1199 235,940 "/>
       <polygon class="fil3" points="-25,1199 235,1199 -25,940 "/>
       <polygon class="fil5" points="-25,1199 -25,1459 235,1199 "/>
       <polygon class="fil4" points="-25,940 -284,1199 -25,1199 "/>
       <polygon class="fil2" points="-284,1199 -25,1459 -25,1199 "/>
       <polygon class="fil1" points="495,1459 235,1459 495,1719 "/>
       <polygon class="fil1" points="495,1962 495,1719 252,1962 "/>
       <polygon class="fil3" points="235,1459 -25,1459 -25,1719 "/>
       <polygon class="fil4" points="-284,1459 -284,1719 -25,1719 "/>
       <polygon class="fil2" points="-25,1459 -284,1459 -25,1719 "/>
       <polygon class="fil2" points="-284,1719 -284,1962 -268,1962 -25,1719 "/>
       <polygon class="fil3" points="495,1719 235,1459 235,1719 "/>
       <polygon class="fil2" points="252,1962 495,1719 235,1719 235,1962 "/>
       <polygon class="fil5" points="235,1719 235,1459 -25,1719 "/>
       <polygon class="fil4" points="-25,1719 218,1962 235,1962 235,1719 "/>
       <polygon class="fil3" points="218,1962 -25,1719 -25,1962 "/>
       <polygon class="fil4" points="-25,1719 -268,1962 -25,1962 "/>
       <polygon class="fil1" points="495,-99 235,-99 495,160 "/>
       <polygon class="fil1" points="495,420 495,160 235,420 "/>
       <polygon class="fil2" points="495,680 495,420 235,420 "/>
       <polygon class="fil3" points="235,420 235,680 495,680 "/>
       <polygon class="fil3" points="235,-99 -25,-99 -25,160 "/>
       <polygon class="fil4" points="-25,680 235,680 235,420 "/>
       <polygon class="fil4" points="-284,-99 -284,160 -25,160 "/>
       <polygon class="fil2" points="-25,-99 -284,-99 -25,160 "/>
       <polygon class="fil2" points="-284,160 -284,420 -25,160 "/>
       <polygon class="fil5" points="-284,680 -25,680 -284,420 "/>
       <polygon class="fil3" points="495,160 235,-99 235,160 "/>
       <polygon class="fil2" points="235,420 495,160 235,160 "/>
       <polygon class="fil5" points="235,160 235,-99 -25,160 "/>
       <polygon class="fil4" points="-25,160 235,420 235,160 "/>
       <polygon class="fil3" points="-25,420 235,420 -25,160 "/>
       <polygon class="fil5" points="-25,420 -25,680 235,420 "/>
       <polygon class="fil4" points="-25,160 -284,420 -25,420 "/>
       <polygon class="fil2" points="-284,420 -25,680 -25,420 "/>
       <polygon class="fil2" points="495,-99 495,-345 250,-345 "/>
       <polygon class="fil3" points="235,-345 235,-99 495,-99 250,-345 "/>
       <polygon class="fil4" points="-25,-99 235,-99 235,-345 221,-345 "/>
       <polygon class="fil5" points="-284,-99 -25,-99 -270,-345 -284,-345 "/>
       <polygon class="fil5" points="-25,-345 -25,-99 221,-345 "/>
       <polygon class="fil2" points="-270,-345 -25,-99 -25,-345 "/>
       <polygon class="fil1" points="1274,-345 1274,-99 1519,-345 "/>
       <polygon class="fil1" points="1548,-345 1794,-99 1794,-345 "/>
       <polygon class="fil2" points="1794,-345 1794,-99 1835,-141 1835,-345 "/>
       <polygon class="fil3" points="1794,-99 1835,-99 1835,-141 "/>
       <polygon class="fil3" points="1274,-99 1274,160 1534,160 "/>
       <polygon class="fil4" points="1835,-99 1794,-99 1835,-58 "/>
       <polygon class="fil4" points="1274,420 1534,420 1534,160 "/>
       <polygon class="fil2" points="1274,160 1274,420 1534,160 "/>
       <polygon class="fil2" points="1534,420 1794,420 1534,160 "/>
       <polygon class="fil5" points="1835,379 1794,420 1835,420 "/>
       <polygon class="fil3" points="1519,-345 1274,-99 1534,-99 1534,-345 "/>
       <polygon class="fil2" points="1794,-99 1548,-345 1534,-345 1534,-99 "/>
       <polygon class="fil5" points="1534,-99 1274,-99 1534,160 "/>
       <polygon class="fil4" points="1534,160 1794,-99 1534,-99 "/>
       <polygon class="fil3" points="1794,160 1794,-99 1534,160 "/>
       <polygon class="fil5" points="1794,160 1835,160 1835,-58 1794,-99 "/>
       <polygon class="fil4" points="1534,160 1794,420 1794,160 "/>
       <polygon class="fil2" points="1794,420 1835,379 1835,160 1794,160 "/>
       <polygon class="fil1" points="1274,420 1274,680 1534,420 "/>
       <polygon class="fil1" points="1794,420 1534,420 1794,680 "/>
       <polygon class="fil2" points="1835,420 1794,420 1794,680 1835,638 "/>
       <polygon class="fil3" points="1794,680 1835,680 1835,638 "/>
       <polygon class="fil3" points="1274,680 1274,940 1534,940 "/>
       <polygon class="fil4" points="1835,680 1794,680 1835,721 "/>
       <polygon class="fil4" points="1274,1199 1534,1199 1534,940 "/>
       <polygon class="fil2" points="1274,940 1274,1199 1534,940 "/>
       <polygon class="fil2" points="1534,1199 1794,1199 1534,940 "/>
       <polygon class="fil5" points="1835,1158 1794,1199 1835,1199 "/>
       <polygon class="fil3" points="1534,420 1274,680 1534,680 "/>
       <polygon class="fil2" points="1794,680 1534,420 1534,680 "/>
       <polygon class="fil5" points="1534,680 1274,680 1534,940 "/>
       <polygon class="fil4" points="1534,940 1794,680 1534,680 "/>
       <polygon class="fil3" points="1794,940 1794,680 1534,940 "/>
       <polygon class="fil5" points="1794,940 1835,940 1835,721 1794,680 "/>
       <polygon class="fil4" points="1534,940 1794,1199 1794,940 "/>
       <polygon class="fil2" points="1794,1199 1835,1158 1835,940 1794,940 "/>
       <polygon class="fil1" points="1274,1199 1274,1459 1534,1199 "/>
       <polygon class="fil1" points="1794,1199 1534,1199 1794,1459 "/>
       <polygon class="fil2" points="1835,1199 1794,1199 1794,1459 1835,1418 "/>
       <polygon class="fil3" points="1794,1459 1835,1459 1835,1418 "/>
       <polygon class="fil3" points="1274,1459 1274,1719 1534,1719 "/>
       <polygon class="fil4" points="1835,1459 1794,1459 1835,1501 "/>
       <polygon class="fil4" points="1534,1962 1534,1719 1291,1962 "/>
       <polygon class="fil2" points="1274,1719 1274,1962 1291,1962 1534,1719 "/>
       <polygon class="fil2" points="1777,1962 1534,1719 1534,1962 "/>
       <polygon class="fil5" points="1835,1937 1810,1962 1835,1962 "/>
       <polygon class="fil3" points="1534,1199 1274,1459 1534,1459 "/>
       <polygon class="fil2" points="1794,1459 1534,1199 1534,1459 "/>
       <polygon class="fil5" points="1534,1459 1274,1459 1534,1719 "/>
       <polygon class="fil4" points="1534,1719 1794,1459 1534,1459 "/>
       <polygon class="fil3" points="1794,1719 1794,1459 1534,1719 "/>
       <polygon class="fil5" points="1794,1719 1835,1719 1835,1501 1794,1459 "/>
       <polygon class="fil4" points="1534,1719 1777,1962 1794,1962 1794,1719 "/>
       <polygon class="fil2" points="1810,1962 1835,1937 1835,1719 1794,1719 1794,1962 "/>
       <polygon class="fil2" points="495,1719 495,1962 738,1962 "/>
       <polygon class="fil3" points="755,1962 755,1719 495,1719 738,1962 "/>
       <polygon class="fil4" points="1014,1719 755,1719 755,1962 771,1962 "/>
       <polygon class="fil5" points="1274,1719 1014,1719 1257,1962 1274,1962 "/>
       <polygon class="fil5" points="1014,1962 1014,1719 771,1962 "/>
       <polygon class="fil2" points="1257,1962 1014,1719 1014,1962 "/>
       <polygon class="fil1" points="1274,1719 1274,1459 1014,1719 "/>
       <polygon class="fil1" points="755,1719 1014,1719 755,1459 "/>
       <polygon class="fil2" points="495,1719 755,1719 755,1459 "/>
       <polygon class="fil3" points="755,1459 495,1459 495,1719 "/>
       <polygon class="fil3" points="1274,1459 1274,1199 1014,1199 "/>
       <polygon class="fil4" points="495,1199 495,1459 755,1459 "/>
       <polygon class="fil4" points="1274,940 1014,940 1014,1199 "/>
       <polygon class="fil2" points="1274,1199 1274,940 1014,1199 "/>
       <polygon class="fil2" points="1014,940 755,940 1014,1199 "/>
       <polygon class="fil2" points="495,940 495,1199 755,940 "/>
       <polygon class="fil3" points="1014,1719 1274,1459 1014,1459 "/>
       <polygon class="fil2" points="755,1459 1014,1719 1014,1459 "/>
       <polygon class="fil5" points="1014,1459 1274,1459 1014,1199 "/>
       <polygon class="fil4" points="1014,1199 755,1459 1014,1459 "/>
       <polygon class="fil3" points="755,1199 755,1459 1014,1199 "/>
       <polygon class="fil5" points="755,1199 495,1199 755,1459 "/>
       <polygon class="fil5" points="1014,1199 755,940 755,1199 "/>
       <polygon class="fil4" points="755,940 495,1199 755,1199 "/>
       <polygon class="fil2" points="495,156 495,416 755,156 "/>
       <polygon class="fil1" points="1014,156 755,156 1014,416 "/>
       <polygon class="fil2" points="1274,156 1014,156 1014,416 "/>
       <polygon class="fil3" points="1014,416 1274,416 1274,156 "/>
       <polygon class="fil3" points="495,416 495,676 755,676 "/>
       <polygon class="fil4" points="1274,676 1274,416 1014,416 "/>
       <polygon class="fil4" points="495,935 755,935 755,676 "/>
       <polygon class="fil2" points="495,676 495,935 755,676 "/>
       <polygon class="fil2" points="755,935 1014,935 755,676 "/>
       <polygon class="fil2" points="1274,935 1274,676 1014,935 "/>
       <polygon class="fil3" points="755,156 495,416 755,416 "/>
       <polygon class="fil2" points="1014,416 755,156 755,416 "/>
       <polygon class="fil5" points="755,416 495,416 755,676 "/>
       <polygon class="fil4" points="755,676 1014,416 755,416 "/>
       <polygon class="fil3" points="1014,676 1014,416 755,676 "/>
       <polygon class="fil5" points="1014,676 1274,676 1014,416 "/>
       <polygon class="fil5" points="755,676 1014,935 1014,676 "/>
       <polygon class="fil4" points="1014,935 1274,676 1014,676 "/>
       <polygon class="fil2" points="1274,160 1274,-99 1014,160 "/>
       <polygon class="fil1" points="755,160 1014,160 755,-99 "/>
       <polygon class="fil2" points="495,160 755,160 755,-99 "/>
       <polygon class="fil3" points="755,-99 495,-99 495,160 "/>
       <polygon class="fil3" points="1274,-99 1274,-345 1029,-345 "/>
       <polygon class="fil4" points="495,-345 495,-99 755,-99 509,-345 "/>
       <polygon class="fil3" points="1014,160 1274,-99 1014,-99 "/>
       <polygon class="fil2" points="755,-99 1014,160 1014,-99 "/>
       <polygon class="fil5" points="1014,-99 1274,-99 1029,-345 1014,-345 "/>
       <polygon class="fil4" points="1000,-345 755,-99 1014,-99 1014,-345 "/>
       <polygon class="fil3" points="755,-345 755,-99 1000,-345 "/>
       <polygon class="fil5" points="509,-345 755,-99 755,-345 "/>
      </g>
      <polygon class="fil6" points="-1625,1961 -1625,-344 1835,-344 1835,1961 "/>
     </g>
    </g>
   </g>
   <path class="fil7" d="M54 0l530 0c30,0 54,24 54,54l0 530c0,30 -24,54 -54,54l-530 0c-30,0 -54,-24 -54,-54l0 -530c0,-30 24,-54 54,-54z"/>
   <g id="_2633523310992">
    <path class="fil8" d="M254 279c19,10 54,27 82,27 16,0 32,-6 44,-10l28 -12c4,-2 6,-4 10,-4l0 65c-14,7 -58,23 -72,23 -20,0 -35,-3 -53,-10l-39 -13 0 -66zm249 -61l0 3c-1,4 -7,8 -12,12 -5,3 -9,6 -14,10l0 69c0,8 2,15 -5,18 -6,3 -11,-1 -12,-8l0 -68c-8,5 -16,11 -26,15 0,18 0,35 0,53 0,35 4,33 -12,40 -21,9 -59,23 -81,23 -24,0 -67,-14 -88,-22 -7,-3 -15,-5 -16,-12l0 -82c-6,-1 -48,-30 -53,-34 -10,-7 -15,-8 -15,-16 0,-4 4,-7 7,-9l28 -20c3,-2 6,-4 9,-6l29 -18c4,-2 7,-3 11,-6 19,-11 47,-21 69,-25 28,-6 64,9 87,21 23,11 58,32 78,47 3,3 6,5 9,7 4,3 6,6 7,8zm-312 1l31 -21c33,-19 76,-47 115,-47 18,0 45,10 60,18 7,3 12,6 18,9 19,9 48,30 65,41 -3,5 -38,26 -46,32l-43 22c-3,2 -6,3 -9,4 -35,14 -58,15 -92,0l-27 -12c-22,-12 -36,-21 -57,-35l-15 -11z"/>
    <g>
     <path class="fil8" d="M245 444c0,7 5,8 11,13l50 32c3,2 5,3 7,5 20,12 14,12 34,9l165 -23c10,-1 15,-1 15,-10 0,-8 -8,-8 -13,-7 -55,8 -112,15 -167,23 -7,1 -11,3 -14,0 -2,-1 -2,-1 -4,-2 -14,-8 -33,-22 -47,-31 -8,-4 -23,-16 -30,-16 -4,0 -7,3 -7,7z"/>
     <path class="fil8" d="M111 394c0,12 14,10 24,10l80 0c12,0 9,-1 23,8l39 25c8,5 25,18 32,18 6,0 13,-10 -1,-19l-52 -32c-2,-2 -3,-3 -5,-4 -5,-3 -20,-14 -24,-14l-106 0c-5,0 -10,3 -10,8z"/>
    </g>
   </g>
  </g>
 </g>
</svg>
