<?xml version="1.0" encoding="UTF-8"?>
<!DOCTYPE svg PUBLIC "-//W3C//DTD SVG 1.1//EN" "http://www.w3.org/Graphics/SVG/1.1/DTD/svg11.dtd">
<!-- Creator: CorelDRAW X7 -->
<svg xmlns="http://www.w3.org/2000/svg" xml:space="preserve" width="143.603mm" height="111.288mm" version="1.1" style="shape-rendering:geometricPrecision; text-rendering:geometricPrecision; image-rendering:optimizeQuality; fill-rule:evenodd; clip-rule:evenodd"
viewBox="0 0 2950 2286"
 xmlns:xlink="http://www.w3.org/1999/xlink">
 <defs>
  <style type="text/css">
   <![CDATA[
    .fil5 {fill:#FEFEFE}
    .fil0 {fill:#FEFEFE}
    .fil3 {fill:#C5C6C6}
    .fil13 {fill:#EC627B}
    .fil12 {fill:#E65875}
    .fil11 {fill:#EDBA9C}
    .fil16 {fill:#E9B18E}
    .fil8 {fill:#E6E6F4}
    .fil6 {fill:#C5C7E5}
    .fil10 {fill:#7EAADB}
    .fil1 {fill:#7BA9DA}
    .fil7 {fill:#828EC4}
    .fil20 {fill:#818CC1}
    .fil2 {fill:#3D80C2}
    .fil9 {fill:#544593}
    .fil14 {fill:#504392}
    .fil4 {fill:#4D4694}
    .fil18 {fill:#46435C}
    .fil15 {fill:#393A46}
    .fil17 {fill:#3A3545}
    .fil19 {fill:#3B374C}
    .fil23 {fill:#00A0E3}
    .fil24 {fill:#FF7803}
    .fil22 {fill:#00A0E3;fill-rule:nonzero}
    .fil21 {fill:#FF7803;fill-rule:nonzero}
   ]]>
  </style>
 </defs>
 <g id="Layer_x0020_1">
  <metadata id="CorelCorpID_0Corel-Layer"/>
  <g id="_2199730920416">
   <g>
    <path class="fil0" d="M2455 1180c-54,86 -37,199 41,265 30,25 66,53 109,85 114,83 342,199 74,526 -314,384 -1170,197 -1766,84 -928,-176 -921,-970 -394,-1070 422,-80 670,-74 791,-329 278,-579 1646,-347 1145,439z"/>
    <path class="fil0" d="M2769 1672c-248,138 -906,43 -1041,-523 -60,-253 -222,-368 -420,-403 1,-2 2,-3 2,-5 278,-579 1646,-347 1145,439l0 0c-54,86 -37,199 41,265 30,25 66,53 109,85 50,36 122,79 164,142z"/>
    <path class="fil1" d="M508 1795c-5,0 -138,0 -159,-121 -20,-122 60,-162 22,-295 -38,-134 -100,-166 18,-280 0,0 53,-47 49,-103 -5,-68 102,-159 185,-124 83,36 73,107 19,227 -53,120 13,132 30,166 17,35 51,70 -6,164 -58,94 35,190 -13,280 0,0 -43,67 -145,86z"/>
    <path class="fil2" d="M550 1979c3,-1 5,-4 4,-7 -114,-364 -30,-889 -29,-894 0,-4 -2,-6 -5,-7 -3,0 -6,2 -6,5 -1,5 -86,533 29,900 1,3 4,4 7,3l0 0z"/>
    <path class="fil2" d="M499 1283l0 -1c3,-1 4,-5 2,-7 0,-1 -37,-63 -56,-118 -1,-3 -4,-5 -7,-4 -3,1 -4,5 -3,7 19,56 56,120 57,120 1,3 4,4 7,3z"/>
    <path class="fil2" d="M493 1398l2 -2c25,-26 90,-77 91,-78 2,-2 3,-5 1,-8 -2,-2 -6,-3 -8,-1 -3,2 -66,53 -92,80 -2,2 -2,6 0,8 2,1 4,2 6,1z"/>
    <path class="fil2" d="M490 1509l1 0c3,-2 3,-5 2,-8l-48 -72c-2,-3 -6,-4 -8,-2 -3,2 -3,5 -2,8l48 72c2,3 5,3 7,2z"/>
    <path class="fil0" d="M659 710c0,0 -24,-31 -38,-45 -26,-26 -56,-71 -151,-38 -7,3 -15,6 -22,10 -8,4 -34,4 -61,-20 -42,-39 -59,-68 -117,-69 -67,-1 -78,95 -130,120 -34,16 -122,31 -140,38l659 4z"/>
    <path class="fil0" d="M2337 97l5 -4c0,0 -15,-18 -25,-26 -6,-5 -13,-13 -23,-19 -9,-6 -22,-10 -39,-10 -12,0 -25,2 -41,7 -5,1 -10,3 -14,5 -1,0 -3,1 -5,1 -7,0 -17,-3 -29,-11 -13,-11 -22,-20 -34,-28 -11,-7 -25,-12 -44,-12l-1 0c-12,0 -22,4 -30,10 -12,9 -20,21 -28,32 -8,12 -17,21 -27,26 -10,4 -30,8 -48,12 -9,2 -18,4 -25,5 -7,2 -13,3 -17,4 -2,1 -4,4 -4,7 1,2 3,5 6,5l423 2c3,0 5,-2 6,-4 1,-2 0,-4 -1,-6l-5 4 0 -6 -423 -2 0 6 2 5c2,0 8,-2 15,-3 11,-3 26,-5 39,-8 14,-3 27,-7 36,-10 19,-8 30,-26 41,-41 5,-7 11,-14 17,-19 7,-4 14,-7 23,-7l1 0c17,0 28,4 38,10 10,7 19,16 33,27 13,10 26,14 36,14 3,0 7,-1 9,-2 5,-2 9,-4 14,-5 15,-5 27,-6 37,-6 15,0 25,3 33,8 8,6 15,12 21,18 4,3 10,10 15,15 5,5 9,10 9,10l4 -4 0 -6 0 6z"/>
    <path class="fil0" d="M2575 559c0,0 13,-16 21,-23 15,-13 32,-35 86,-18 5,1 9,3 13,4 4,2 19,2 34,-10 24,-19 34,-33 67,-34 38,0 44,48 74,60 19,8 69,15 80,19l-375 2z"/>
    <path class="fil3" d="M2225 711l-5 -11 -4 11c-3,11 -12,19 -23,24 11,5 20,14 23,24l4 12 5 -12c3,-10 12,-19 23,-24 -11,-5 -20,-13 -23,-24z"/>
    <path class="fil3" d="M2468 1713l-4 -12 -4 12c-4,10 -12,18 -23,23 11,5 19,14 23,24l4 12 4 -12c4,-10 12,-19 24,-24 -12,-5 -20,-13 -24,-23z"/>
    <path class="fil3" d="M827 1179l-7 -20 -7 20c-6,17 -20,31 -39,39 19,9 33,23 39,40l7 20 7 -20c5,-17 19,-31 38,-40 -19,-8 -33,-22 -38,-39z"/>
    <path class="fil4" d="M726 349c19,-23 30,-52 30,-84 0,-72 -59,-132 -132,-132l-92 0c-73,0 -132,60 -132,132 0,73 59,132 132,132l92 0c21,0 41,-5 59,-14l66 36 -23 -70z"/>
    <path class="fil5" d="M667 251c-1,-5 -6,-10 -11,-10l-17 0 -29 0 -7 0c0,0 3,-22 2,-26 -1,-5 -10,-28 -10,-28 0,0 -3,-4 -8,-3 -6,2 -6,5 -6,5l1 25c-3,12 -23,38 -23,38l-7 5 0 57 2 3c3,4 7,6 12,6l29 0 44 0 2 0c6,0 10,-5 10,-11 0,-4 -2,-8 -6,-9l0 0c6,0 11,-5 11,-10 1,-5 -2,-9 -6,-11l0 0c6,0 11,-4 11,-10 0,-4 -3,-8 -6,-10l1 0c6,0 11,-5 11,-11z"/>
    <path class="fil5" d="M533 239l-34 0c-6,0 -10,4 -10,10l0 69c0,5 4,9 10,9l34 0c5,0 9,-4 9,-9l0 -69c0,-6 -4,-10 -9,-10z"/>
    <path class="fil6" d="M1733 1975l-695 0c-51,0 -92,-42 -92,-92l0 -1556c0,-50 41,-92 92,-92l695 0c51,0 92,42 92,92l0 1556c0,50 -41,92 -92,92z"/>
    <path class="fil5" d="M1682 1790l-596 0c-43,0 -78,-34 -78,-77l0 -1267c0,-43 35,-78 78,-78l596 0c43,0 78,35 78,78l0 1267c0,43 -35,77 -78,77z"/>
    <path class="fil7" d="M1454 1886l-6 0c0,17 -7,33 -19,44 -11,12 -26,19 -44,19 -17,0 -33,-7 -44,-19 -11,-11 -18,-27 -18,-44 0,-17 7,-33 18,-44 11,-11 27,-18 44,-18 18,0 33,7 44,18 12,11 19,27 19,44l6 0 6 0c0,-41 -33,-75 -75,-75 -41,0 -75,34 -75,75 0,42 34,75 75,75 42,0 75,-33 75,-75l-6 0z"/>
    <path class="fil8" d="M1600 1556l-440 0c-29,0 -52,-23 -52,-52l0 -364c0,-29 23,-52 52,-52l440 0c28,0 52,23 52,52l0 364c0,29 -24,52 -52,52z"/>
    <path class="fil8" d="M1600 982l-440 0c-29,0 -52,-24 -52,-52l0 -116c0,-29 23,-52 52,-52l440 0c28,0 52,23 52,52l0 116c0,28 -24,52 -52,52z"/>
    <path class="fil9" d="M1486 1192l-284 0c-5,0 -10,-4 -10,-9 0,-6 5,-10 10,-10l284 0c6,0 10,4 10,10 0,5 -4,9 -10,9z"/>
    <path class="fil9" d="M1393 1255l-191 0c-5,0 -10,-4 -10,-10 0,-5 5,-10 10,-10l191 0c5,0 10,5 10,10 0,6 -5,10 -10,10z"/>
    <polygon class="fil9" points="1221,1298 1230,1316 1250,1319 1235,1333 1239,1352 1221,1343 1203,1352 1207,1333 1192,1319 1212,1316 "/>
    <polygon class="fil9" points="1300,1298 1309,1316 1329,1319 1315,1333 1318,1352 1300,1343 1283,1352 1286,1333 1272,1319 1292,1316 "/>
    <polygon class="fil9" points="1380,1298 1389,1316 1409,1319 1394,1333 1398,1352 1380,1343 1362,1352 1366,1333 1351,1319 1371,1316 "/>
    <polygon class="fil10" points="1459,1298 1468,1316 1488,1319 1474,1333 1477,1352 1459,1343 1442,1352 1445,1333 1431,1319 1451,1316 "/>
    <polygon class="fil10" points="1539,1298 1548,1316 1568,1319 1553,1333 1557,1352 1539,1343 1521,1352 1525,1333 1510,1319 1530,1316 "/>
    <path class="fil10" d="M1546 1482l-332 0c-12,0 -22,-10 -22,-22l0 -53c0,-12 10,-21 22,-21l332 0c12,0 22,9 22,21l0 53c0,12 -10,22 -22,22z"/>
    <path class="fil11" d="M1868 1134l-80 72 -137 -98 -33 30 163 138c7,8 19,8 26,1l95 -86 -34 -57z"/>
    <path class="fil12" d="M1928 1048c0,0 -6,-4 -86,85l62 83 36 -40 -12 -128z"/>
    <path class="fil11" d="M2105 1137l95 59 4 206 41 19 23 -245c4,-9 0,-20 -9,-24l-113 -68 -41 53z"/>
    <path class="fil13" d="M1993 1033l-55 12c-15,3 -26,15 -28,30l-37 310 229 -15 15 -292c1,-19 -13,-36 -32,-38l-92 -7z"/>
    <polygon class="fil11" points="2202,2109 2185,2015 2131,2022 2151,2118 "/>
    <polygon class="fil11" points="1885,2106 1888,2008 1833,2006 1835,2104 "/>
    <polygon class="fil9" points="1873,1385 1855,1477 2114,1464 2102,1370 "/>
    <polygon class="fil9" points="1982,1441 1923,1692 1908,2075 1820,2072 1815,1690 1860,1452 "/>
    <polygon class="fil14" points="1959,1521 1906,1473 1972,1471 "/>
    <polygon class="fil9" points="2112,1452 2138,1696 2215,2065 2126,2084 2033,1710 1993,1441 "/>
    <path class="fil15" d="M1835 2104l50 2 -2 75 -155 9c1,-12 9,-21 20,-23l85 -29 2 -34z"/>
    <polygon class="fil6" points="1883,2181 1728,2190 1728,2202 1883,2193 "/>
    <path class="fil15" d="M2151 2118l51 -9 13 74 -148 12c-1,-12 5,-23 16,-27l74 -17 -6 -33z"/>
    <polygon class="fil6" points="2215,2183 2067,2195 2069,2206 2217,2194 "/>
    <path class="fil16" d="M2003 1070l-6 0c-15,-1 -27,-14 -27,-29l4 -107 62 3 -4 106c0,16 -13,28 -29,27z"/>
    <path class="fil11" d="M1966 1024l-3 0c-41,-1 -74,-35 -73,-77l2 -90 153 3 -2 91c-1,41 -36,74 -77,73z"/>
    <path class="fil17" d="M2042 930l-22 0c-5,0 -10,-6 -9,-12 3,-15 7,-42 -3,-46 -15,-4 -93,15 -119,-6 -37,-29 -9,-74 24,-75 34,-2 29,37 68,37 39,0 99,-14 72,89l-11 13z"/>
    <path class="fil11" d="M2055 956c-12,5 -26,0 -32,-12 -5,-12 0,-26 12,-32 12,-5 26,0 32,12 5,12 0,26 -12,32z"/>
    <path class="fil5" d="M1907 964l51 3c0,0 -4,23 -31,19 -22,-3 -20,-22 -20,-22z"/>
    <path class="fil13" d="M2095 1043c0,0 12,1 114,62l-45 92 -61 -32 -8 -122z"/>
    <path class="fil18" d="M2083 1500l258 0 18 187c0,0 -263,12 -262,9 0,-4 -15,-196 -14,-196z"/>
    <polygon class="fil19" points="2083,1500 2052,1674 2097,1696 "/>
    <path class="fil5" d="M2258 1534l-1 0c-2,-1 -4,-2 -4,-5 0,0 4,-53 -15,-74 -5,-6 -11,-9 -17,-9 -7,0 -12,2 -17,6 -22,20 -24,78 -24,78 -1,3 -3,4 -5,4 -2,0 -4,-2 -4,-4 0,-2 3,-62 27,-84 7,-6 15,-9 23,-8 9,0 17,4 23,11 21,24 18,79 17,81 0,2 -1,4 -3,4z"/>
    <path class="fil11" d="M1585 1131c1,20 18,36 39,36 20,-1 36,-18 36,-39 -1,-20 -18,-36 -39,-35 -20,0 -36,17 -36,38z"/>
    <path class="fil11" d="M1652 1108l-55 -42c-4,-3 -9,-3 -12,1 -3,4 -3,10 1,13l55 43c4,3 10,2 13,-2 3,-4 2,-10 -2,-13z"/>
    <path class="fil11" d="M2181 1435c1,21 19,38 41,38 22,-1 39,-19 38,-41 -1,-22 -19,-39 -41,-38 -21,1 -38,19 -38,41z"/>
    <path class="fil20" d="M1558 829l-378 0c-3,0 -7,-3 -7,-7 0,-4 4,-7 7,-7l378 0c4,0 7,3 7,7 0,4 -3,7 -7,7z"/>
    <path class="fil20" d="M1414 927l-234 0c-3,0 -7,-3 -7,-7 0,-4 4,-7 7,-7l234 0c4,0 7,3 7,7 0,4 -3,7 -7,7z"/>
    <path class="fil20" d="M1346 877l-166 0c-3,0 -7,-3 -7,-7 0,-4 4,-7 7,-7l166 0c4,0 7,3 7,7 0,4 -3,7 -7,7z"/>
    <g>
     <rect class="fil0" x="1272" y="290" width="179.632" height="17.9642" rx="9" ry="9"/>
     <circle class="fil0" cx="1485" cy="299" r="13"/>
    </g>
   </g>
   <g>
    <g>
     <path class="fil21" d="M1309 525l0 0c-1,0 -2,0 -3,0 0,0 -1,0 -1,0 0,0 -1,0 -1,0 0,0 0,0 0,0 0,0 0,0 0,0 -1,0 -1,0 -1,0 -1,0 -2,0 -3,0 -4,1 -7,2 -11,4 -6,2 -11,6 -15,11 -1,0 -1,1 -2,1 -4,4 -8,9 -10,14 -4,7 -6,15 -6,23 0,3 0,6 0,9 1,3 2,7 3,10 3,8 7,15 12,20 6,6 11,10 17,13 5,2 10,3 16,4 1,0 2,0 3,0 2,-1 5,-1 7,-1 7,-2 14,-6 19,-11 2,-1 3,-3 4,-4 1,0 1,-1 1,-1 4,-4 7,-8 9,-13 4,-7 6,-16 6,-24 0,-4 0,-7 0,-11 0,-3 -1,-7 -2,-10 -1,-5 -3,-9 -5,-13 -4,-6 -8,-11 -15,-14 -5,-4 -11,-6 -18,-7 -1,0 -2,0 -2,0 -1,0 -1,0 -1,0 0,0 0,0 0,0 -1,0 -1,0 -1,0zm41 50l0 0c0,8 -1,16 -3,23 -2,4 -4,8 -6,12 -3,3 -5,6 -9,9 -4,3 -9,5 -14,6 -2,1 -4,1 -7,1 -1,0 -2,0 -3,0 -4,0 -9,-1 -13,-3 -7,-3 -12,-7 -17,-12 -5,-5 -9,-11 -12,-18 -1,-3 -2,-7 -2,-11 -1,-3 -1,-6 -1,-9 0,-8 2,-15 6,-23 4,-6 9,-12 15,-16 5,-3 10,-5 15,-6 4,0 7,0 11,0 4,0 9,1 14,3 10,4 17,11 22,20 1,4 2,7 3,11 1,2 1,5 1,7 0,3 0,5 0,6zm-42 -17l0 0c-1,0 -2,0 -4,1 -3,0 -6,2 -9,4 -4,4 -6,8 -6,13 0,5 1,9 4,13 2,4 6,7 11,8 2,1 4,1 7,1 0,0 1,0 2,0 4,-1 7,-3 10,-6 1,-2 2,-3 2,-5 1,-2 2,-4 2,-6 0,-3 0,-7 -1,-10 -2,-6 -5,-10 -11,-11 -2,-1 -4,-2 -7,-2zm-16 19l0 0c0,-2 0,-5 2,-8 0,0 1,-1 1,-1 3,-2 5,-2 8,-2 2,0 4,0 6,0 6,2 9,6 10,11 1,4 1,8 0,13 -1,1 -1,2 -2,3 0,0 0,0 -1,1 -1,0 -3,1 -4,1 -1,0 -2,0 -2,0 -2,0 -4,0 -5,0 -4,-2 -7,-4 -10,-7 -2,-3 -3,-5 -3,-8 0,0 0,-1 0,-2 0,0 0,0 0,-1z"/>
     <path id="1" class="fil21" d="M1412 525l0 0c0,1 0,1 0,1 0,0 0,0 0,0 0,1 0,1 0,1 0,1 -1,1 -1,2 0,0 0,0 0,0 0,1 0,1 0,1 -1,0 -1,0 -1,0 0,0 -1,0 -1,0 0,0 -1,0 -1,0 -1,0 -1,0 -1,0 0,0 0,1 0,1 0,0 0,0 0,1 0,1 0,3 0,4 0,1 0,2 0,3 -1,1 -1,2 -1,3 0,1 0,2 0,4 0,0 0,0 0,0 0,1 0,2 0,2 0,2 0,3 0,4 -1,1 -1,2 -1,3 0,1 0,2 0,3 0,1 0,2 0,4 0,0 0,0 0,0 0,1 0,1 0,2 0,1 -1,2 -1,4 0,1 0,2 0,3 0,1 0,1 0,2 0,2 0,3 0,4 0,1 0,2 0,2 -1,2 -1,3 -1,4 0,1 0,2 0,3 0,2 -1,3 -2,5 0,0 0,0 0,0 0,0 0,1 -1,1 0,0 0,0 0,0 -2,0 -5,0 -7,0 -2,0 -4,-2 -6,-4 -1,-1 -1,-2 -1,-3 -1,-3 -1,-5 -1,-8 0,0 0,0 0,-1 0,0 0,-1 0,-1 0,-1 0,-1 0,-1 0,-2 0,-3 0,-5 0,0 0,-1 1,-2 0,-1 0,-2 0,-3 0,-2 0,-3 0,-4 0,0 0,-1 0,-2 0,-1 0,-2 0,-2 0,-1 0,-1 0,-1 0,-1 0,-1 0,-1 1,-1 1,-3 1,-4 0,-1 0,-2 0,-2 0,-2 0,-3 0,-4 0,-1 0,-2 0,-3 1,-1 1,-2 1,-3 0,-1 0,-2 0,-4 0,0 0,-1 0,-2 0,-1 0,-2 0,-3 0,0 0,0 0,-1 0,0 0,0 0,0 0,0 0,0 0,0 0,0 0,0 -1,0 0,0 -1,0 -1,0 -3,0 -6,0 -8,0 -6,0 -11,0 -16,0 -2,0 -4,0 -6,0 0,0 0,0 0,0 0,0 0,0 0,0 0,0 0,0 -1,0 0,0 0,0 0,0 0,1 0,1 0,2 0,0 0,0 0,0 0,1 0,1 0,1 0,1 0,1 -1,1 0,0 0,0 -1,0 0,0 0,0 -1,0 0,0 0,0 -1,0 0,0 0,0 0,0 0,0 0,0 0,0 0,1 0,1 0,1 0,1 0,1 0,2 -1,1 -1,2 -1,3 0,1 0,2 0,3 0,1 0,2 0,3 0,0 0,1 0,1 0,1 0,1 0,2 0,1 0,3 -1,4 0,1 0,2 0,3 0,1 0,2 0,3 0,1 0,2 0,3 0,0 0,1 0,1 0,0 0,1 0,2 -1,1 -1,2 -1,4 0,0 0,1 0,1 0,2 0,3 0,4 0,2 -1,5 -1,7 0,5 1,10 1,15 1,4 2,7 3,11 2,5 4,10 8,14 5,6 10,9 17,12 4,1 8,1 12,1 1,0 1,0 2,0 1,0 1,0 2,0 2,1 5,0 7,0 3,0 6,-1 9,-2 6,-2 11,-6 15,-10 0,-1 1,-1 1,-2 3,-3 6,-6 8,-10 3,-4 5,-8 6,-13 1,-3 2,-6 2,-9 0,-2 1,-4 1,-6 0,-1 0,-2 0,-3 0,-1 0,-1 0,-2 0,-1 0,-3 0,-4 0,0 0,0 0,0 1,-1 1,-2 1,-3 0,-1 0,-2 0,-3 0,-1 0,-2 0,-4 0,0 0,-1 0,-2 0,-1 0,-1 0,-2 1,0 1,-1 1,-1 0,-1 0,-1 0,-2 0,-1 0,-2 0,-3 0,-1 0,-1 0,-2 0,-1 0,-3 0,-4 0,-1 1,-1 1,-2 0,-1 0,-2 0,-3 0,-2 0,-4 0,-5 0,-2 0,-3 1,-5 0,-1 0,-3 0,-5 0,0 0,-1 0,-2 0,0 0,-1 0,-1 0,0 0,0 -1,0 0,0 -1,0 -2,0 0,0 -1,0 -2,1 0,0 -1,0 -2,0 0,0 -1,0 -2,0 -1,0 -1,0 -2,0 -1,0 -2,0 -3,0 0,1 -1,1 -2,1 0,0 -1,0 -2,0 -1,0 -2,0 -2,0 -1,0 -2,0 -2,0 -1,0 -2,0 -2,1 -1,0 -1,0 -1,0 -1,0 -1,0 -2,0 -1,0 -2,0 -4,0 0,0 -1,0 -1,0 -1,0 -1,0 -1,0zm2 3l0 0c0,0 1,0 1,0 0,0 0,0 0,0 0,0 0,0 0,0 1,0 1,0 2,0 1,0 2,-1 2,-1 1,0 2,0 3,0 0,0 1,0 1,0 1,0 1,0 1,0 1,0 2,0 3,0 0,0 1,-1 2,-1 0,0 1,0 2,0 1,0 2,0 2,0 1,0 2,0 2,0 1,0 2,0 2,0 1,0 1,0 1,-1 1,0 1,0 1,0 1,0 1,0 2,0 0,0 0,0 1,0 0,0 0,0 0,0 0,0 0,0 0,0 0,0 0,0 0,1 0,0 0,0 0,0 0,1 0,2 0,3 0,2 0,5 -1,7 0,1 0,2 0,3 0,1 0,2 0,3 0,1 0,3 0,4 0,1 -1,2 -1,3 0,1 0,2 0,3 0,1 0,2 0,3 0,1 0,2 0,3 0,1 0,2 -1,3 0,1 0,2 0,3 0,1 0,2 0,3 0,1 0,3 0,4 0,0 0,1 0,2 0,0 0,1 -1,2 0,1 0,1 0,2 0,1 0,1 0,2 0,1 0,2 0,3 -1,7 -2,13 -5,19 -2,5 -5,9 -8,12 -3,4 -7,7 -12,9 -2,1 -5,2 -8,2 -3,1 -6,1 -9,1 0,0 -1,0 -1,0 -1,0 -2,0 -3,0 -3,0 -7,0 -11,-2 -6,-2 -12,-5 -16,-11 -3,-4 -5,-8 -7,-12 -1,-3 -2,-7 -2,-11 -1,-4 -1,-8 -1,-13 0,-2 0,-5 0,-8 0,-1 0,-2 0,-3 0,-1 0,-2 0,-2 1,-2 1,-3 1,-4 0,-1 0,-2 0,-2 0,-1 0,-1 0,-2 0,-1 0,-2 0,-3 0,-1 0,-2 0,-2 1,-1 1,-3 1,-4 0,-1 0,-2 0,-3 0,-1 0,-1 0,-2 0,-2 0,-3 0,-5 1,-1 1,-1 1,-2 0,-1 0,-2 0,-3 0,0 0,0 0,0 0,0 0,0 0,0 0,0 0,-1 0,-1 0,0 0,0 0,0 0,0 0,0 1,0 0,0 0,0 1,0 2,0 4,0 6,0 3,0 5,1 8,1 1,0 3,0 5,0 2,0 3,0 5,0 0,0 1,0 1,0 0,0 0,0 0,0 0,0 0,0 0,0 0,0 0,0 0,0 0,0 1,0 1,0 0,0 0,0 0,0 0,0 -1,1 -1,1 0,0 0,0 0,0 0,2 0,5 0,7 0,1 0,3 0,4 -1,2 -1,4 -1,6 0,1 0,2 0,3 0,0 0,1 0,2 0,1 0,3 0,4 -1,1 -1,1 -1,2 0,0 0,0 0,0 0,2 0,3 0,4 0,1 0,2 0,3 0,1 0,2 0,3 -1,2 -1,4 -1,6 0,2 0,4 0,7 1,2 1,4 3,6 1,2 3,4 5,5 2,1 3,1 4,1 1,0 2,0 4,0 3,0 6,-2 9,-5 1,-2 2,-4 3,-6 0,-2 0,-3 0,-5 1,-1 1,-2 1,-4 0,0 0,-1 0,-2 0,0 0,0 0,0 0,-2 0,-3 0,-4 0,-1 0,-2 0,-3 0,-1 1,-2 1,-3 0,-1 0,-2 0,-3 0,-1 0,-2 0,-2 0,-2 0,-3 0,-4 0,-1 0,-2 1,-3 0,-1 0,-2 0,-3 0,-1 0,-2 0,-4 0,0 0,-1 0,-2 0,0 0,0 0,-1 0,-1 0,-2 1,-3 0,-1 0,-2 0,-3 0,-1 0,-1 0,-2 0,-2 0,-3 0,-5 0,0 0,0 0,0 0,0 0,0 0,0z"/>
     <path id="2" class="fil21" d="M1437 561l0 0c0,1 0,2 0,2 1,0 1,0 1,0 0,0 0,0 1,0 1,0 3,0 5,0 1,0 2,-1 3,-1 1,0 2,0 3,0 0,0 0,0 0,0 0,0 0,0 0,0 2,0 4,0 6,0 0,0 1,0 1,0 1,0 1,0 2,0 1,0 1,-1 2,-1 0,0 1,1 1,1 0,0 0,0 0,0 0,0 0,1 0,1 0,9 0,19 0,28 0,8 -1,17 -1,26 0,3 0,7 0,10 0,1 0,1 0,2 0,0 0,0 1,0 1,1 3,1 4,1 1,0 2,0 3,0 0,0 0,0 0,0 1,0 2,0 2,0 1,0 2,0 3,0 2,0 3,0 5,0 0,0 0,0 0,0 1,0 1,1 1,1 0,0 0,0 0,0 1,0 1,0 2,0 2,0 3,0 5,0 1,0 2,0 3,0 0,0 0,0 0,0 0,0 0,0 0,0 1,0 1,0 1,0 2,0 3,0 5,0 0,0 1,0 1,0 0,-1 0,-1 -1,-1 0,-1 0,-1 0,-1 0,-1 0,-1 0,-2 0,0 0,0 0,0 0,0 0,0 0,0 0,0 1,0 1,0 0,0 0,0 0,0 0,0 1,0 2,0 0,0 0,0 1,0 0,0 0,0 1,0 0,0 0,0 0,0 0,0 0,0 0,-1 0,0 0,0 0,-1 0,0 0,-1 0,-1 0,-1 0,-1 0,-2 0,-3 0,-6 -1,-9 0,-1 0,-2 0,-3 0,-2 0,-4 0,-6 0,-2 0,-4 0,-7 0,-2 0,-4 -1,-6 0,-2 0,-4 0,-6 0,0 0,-1 0,-1 0,-4 0,-8 0,-11 -1,-4 -1,-8 -1,-12 0,0 0,0 0,0 0,-1 0,-1 0,-1 0,0 0,0 0,0 0,0 0,0 0,0 0,0 1,0 1,0 0,0 0,0 0,0 1,0 3,0 4,0 1,-1 1,-1 2,-1 0,0 0,0 0,0 1,0 1,0 1,0 0,0 1,0 1,0 2,0 3,0 4,0 1,0 3,0 4,0 0,0 1,0 2,0 0,0 0,0 0,-1 0,0 0,0 0,0 0,0 0,0 0,0 0,0 0,0 0,0 0,0 0,-1 0,-1 0,0 0,-1 0,-1 0,0 0,-1 0,-1 0,-1 1,-1 1,-1 1,0 1,0 2,0 0,0 1,0 1,0 0,0 1,0 1,0 0,0 0,0 0,0 0,0 0,0 0,0 0,-1 0,-1 0,-1 0,-10 0,-19 0,-29 0,0 0,-1 0,-1 0,0 0,0 0,0 -1,0 -1,0 -1,0 0,0 -1,0 -1,0 -1,0 -2,0 -2,0 -1,0 -1,0 -1,0 -1,0 -2,0 -3,0 -1,0 -1,0 -1,0 0,0 -1,1 -1,1 -1,0 -2,0 -3,0 -1,0 -1,0 -2,0 -1,0 -2,0 -2,0 -1,0 -2,0 -3,0 0,1 0,1 0,1 -1,0 -1,0 -2,0 -1,0 -2,0 -3,0 0,0 -1,0 -2,0 -1,0 -1,0 -2,0 -1,1 -3,1 -5,1 0,0 0,0 0,0 -1,0 -2,0 -3,0 0,0 -1,0 -1,0 0,0 -1,0 -1,0 -1,1 -2,1 -3,1 -1,0 -2,0 -3,0 0,0 -1,0 -2,0 0,0 -1,0 -2,0 0,0 0,0 -1,0 0,0 -1,1 -1,1 -1,0 -2,0 -3,0 -1,0 -1,0 -2,0 -1,0 -2,0 -2,0 -2,0 -3,1 -5,1 0,0 0,0 -1,0 0,0 -1,0 -2,0 -1,0 -1,0 -1,0 -1,0 -1,0 -2,0 -1,0 -2,1 -3,1 0,0 -1,0 -2,0 -1,0 -1,0 -2,0 -1,0 -1,0 -2,0 0,0 0,0 0,0 0,0 0,0 0,0 -1,0 -1,0 -1,0 0,0 0,0 0,0 0,1 0,1 0,1 0,0 0,0 0,1 0,0 0,0 0,1 0,0 0,1 0,1 0,0 0,1 -1,1 0,0 0,0 -1,0 -1,0 -1,0 -2,0 0,0 0,0 0,0 0,0 0,0 0,0 0,0 0,0 0,0 -1,1 -1,1 -1,1 0,5 0,10 0,15 0,1 0,3 0,4 0,0 0,1 0,1 0,1 0,2 0,3 0,1 0,1 0,2 0,0 0,0 0,0 0,0 -1,0 -1,0zm32 27l0 0c0,-2 0,-4 0,-6 0,-5 0,-10 0,-15 0,-3 0,-6 0,-9 0,-1 0,-2 0,-3 0,0 0,0 0,-1 0,0 0,0 0,0 0,0 0,0 0,0 0,0 -1,0 -1,0 -1,0 -3,0 -5,0 0,0 0,0 -1,0 0,0 0,0 0,0 0,0 0,0 0,0 -1,1 -1,1 -2,1 -1,0 -3,0 -4,0 -1,0 -2,0 -3,0 -1,0 -2,0 -3,0 -1,0 -2,0 -3,1 -1,0 -1,0 -1,0 0,0 -1,0 -1,-1 0,0 0,0 0,0 0,0 0,-1 0,-1 0,-7 0,-13 1,-20 0,0 0,-1 0,-1 0,0 0,0 0,0 0,0 0,0 0,0 0,0 0,0 1,0 0,0 1,0 1,0 1,-1 2,-1 3,-1 1,0 1,0 2,0 0,0 1,0 1,0 1,0 2,0 2,0 1,0 1,0 2,0 1,0 2,-1 2,-1 1,0 2,0 3,0 1,0 1,0 2,0 0,0 0,0 1,0 1,0 1,0 2,0 1,0 1,0 1,0 2,-1 3,-1 5,-1 1,0 1,0 2,0 1,0 1,0 2,0 1,0 3,-1 4,-1 2,0 3,0 5,0 1,0 2,0 3,-1 0,0 1,0 1,0 0,0 1,0 1,0 1,0 2,0 2,0 1,0 2,0 2,0 1,0 2,0 3,0 0,0 1,-1 2,-1 1,0 1,0 2,0 1,0 2,0 3,0 0,0 0,0 1,0 0,0 1,0 1,0 1,-1 3,-1 4,-1 1,0 2,0 2,0 1,0 2,0 2,0 0,0 1,0 1,0 0,0 0,0 0,0 1,0 1,0 1,0 0,0 0,0 1,0 0,0 0,0 0,0 0,0 0,0 0,0 0,0 0,1 0,1 0,0 0,0 0,0 0,0 0,0 0,0 0,0 0,0 0,0 0,2 0,4 0,6 0,6 0,11 0,17 0,0 0,0 0,0 0,1 0,1 0,1 0,0 0,0 0,0 0,0 0,0 -1,0 0,0 0,0 0,1 -1,0 -1,0 -1,0 -1,0 -1,0 -2,0 -1,0 -2,0 -4,0 -1,0 -2,0 -3,0 -1,0 -2,0 -2,0 0,0 0,0 0,0 0,0 -1,0 -1,0 0,0 -1,1 -2,1 -1,0 -2,0 -3,0 -1,0 -2,0 -4,0 0,0 0,0 -1,0 0,0 0,0 0,0 0,0 0,0 0,0 0,1 0,1 0,1 0,0 0,0 0,0 0,0 0,1 0,1 0,3 0,5 0,7 0,1 1,2 1,2 0,0 0,1 0,1 0,0 0,0 0,0 0,1 0,2 0,3 0,2 0,4 0,6 0,3 0,5 0,7 0,0 0,1 0,2 0,0 0,0 0,0 0,0 0,1 0,1 0,1 1,2 1,3 0,2 0,4 0,6 0,2 0,4 0,6 0,1 0,2 0,3 0,0 0,0 0,0 0,0 0,0 0,0 0,1 0,2 0,3 1,2 1,5 1,7 0,2 0,3 0,5 0,1 0,2 0,3 0,1 0,2 0,2 0,1 0,1 0,1 0,0 0,0 0,0 0,1 0,1 0,1 -1,0 -1,0 -2,0 0,0 0,0 0,0 0,0 -1,0 -1,0 -1,0 -1,0 -2,0 0,0 -1,0 -2,0 0,0 -1,0 -1,0 0,0 0,0 0,0 0,0 -1,0 -1,0 -1,-1 -1,-1 -2,-1 -2,0 -4,0 -6,0 -1,0 -3,0 -4,0 -1,0 -2,0 -3,0 -1,0 -2,0 -2,0 0,0 -1,0 -1,0 0,0 0,0 0,0 -1,-1 -1,-1 -2,-1 0,0 0,0 0,0 0,0 -1,0 -1,-1 1,-1 1,-2 1,-3 0,-1 0,-3 0,-4 0,-5 0,-10 0,-15 0,-3 0,-5 0,-8 0,-1 0,-2 0,-3 0,0 0,0 0,0z"/>
     <path id="3" class="fil21" d="M1555 558l0 0c0,0 0,0 0,0 0,0 0,0 0,-1 0,0 0,0 0,0 0,-1 0,-3 0,-4 0,-4 0,-9 0,-13 0,-5 1,-10 1,-15 0,-1 0,-1 0,-2 0,0 0,0 -1,0 0,0 0,0 0,0 0,0 0,0 0,0 0,0 0,0 0,0 0,0 -1,0 -1,0 -1,0 -2,0 -2,0 -2,0 -3,0 -4,0 -1,0 -3,0 -4,0 -2,1 -4,1 -6,1 0,0 -1,0 -2,0 0,0 0,0 0,0 0,0 0,0 -1,0 0,0 -1,0 -2,0 -2,0 -4,0 -6,0 -1,0 -2,0 -3,0 -1,1 -2,1 -3,1 0,0 0,0 0,0 0,0 0,0 -1,0 0,0 0,0 0,0 0,0 0,0 0,0 0,1 0,1 0,2 0,0 0,0 0,0 0,0 0,0 0,0 0,1 0,1 0,1 0,1 0,1 0,1 0,0 0,0 -1,0 0,0 0,0 0,0 0,0 0,0 0,0 -1,0 -2,0 -3,0 0,0 0,0 0,1 0,0 0,1 0,1 0,3 0,6 0,9 0,6 0,12 0,17 0,10 0,19 0,28 0,4 0,8 0,12 0,1 0,1 0,2 0,1 0,2 0,3 0,5 0,9 0,14 0,0 0,0 0,1 0,1 1,2 1,3 0,1 0,1 0,1 0,1 0,2 0,3 0,0 0,0 0,0 0,0 0,0 0,0 0,0 0,0 0,0 0,1 1,1 1,1 0,0 0,0 0,0 1,0 2,0 2,0 1,0 2,0 3,0 1,0 3,0 4,0 1,0 1,1 2,1 1,0 2,0 2,0 1,0 2,0 3,0 1,0 1,0 2,0 1,0 2,0 3,1 0,0 1,0 2,0 1,0 2,0 4,0 0,0 0,0 1,0 0,0 0,0 0,0 0,-1 0,-1 0,-2 0,0 0,0 0,0 0,0 0,0 0,-1 0,0 0,-1 1,-1 0,-1 0,-1 0,-1 0,0 1,0 1,0 1,0 1,0 2,1 0,0 1,0 1,-1 0,0 0,0 0,-1 0,0 0,0 0,-1 0,0 0,0 0,0 0,-1 0,-1 0,-2 0,-2 0,-3 0,-5 0,-3 0,-5 0,-8 0,-3 1,-6 1,-9 0,-2 0,-3 0,-4 0,0 0,-1 0,-2 0,0 0,-1 0,-1 0,0 0,0 0,0 0,-1 0,-1 0,-1 0,0 0,0 1,0 0,1 0,1 1,1 1,0 1,0 2,0 1,0 3,0 4,1 1,0 1,0 1,0 1,0 1,0 1,0 0,0 0,1 0,1 0,0 0,0 0,0 0,3 0,5 0,7 -1,1 -1,2 -1,2 0,0 0,0 0,0 0,0 0,0 0,1 0,0 0,1 0,2 0,2 0,4 0,7 0,2 0,4 0,6 0,1 0,2 0,3 0,0 0,0 -1,0 0,1 0,1 0,1 0,1 0,3 0,5 0,0 0,0 0,0 0,0 0,0 0,0 0,0 0,0 0,0 1,0 1,0 1,0 0,0 0,0 0,0 0,1 1,1 1,1 0,0 1,0 1,0 1,0 1,0 2,0 1,0 1,0 2,0 2,0 3,0 4,0 2,0 3,0 5,0 1,0 1,1 2,1 0,0 0,0 0,0 0,0 0,0 1,0 0,0 0,0 1,0 2,0 3,0 5,0 1,0 3,0 4,0 0,0 0,0 0,0 0,0 1,0 1,0 0,0 1,0 1,0 0,0 0,0 0,0 0,-1 0,-1 0,-2 0,0 0,0 0,0 0,-1 0,-1 0,-1 0,0 0,0 0,-1 0,0 0,0 0,0 0,0 0,0 0,0 0,0 0,0 0,0 1,0 1,0 1,0 0,0 1,0 2,0 0,0 0,0 1,0 0,0 0,0 0,-1 0,0 0,0 0,0 0,-1 1,-2 1,-2 0,-4 0,-8 0,-12 0,-4 0,-7 0,-11 0,-2 0,-4 0,-6 0,0 0,0 0,0 0,0 0,0 0,-1 0,-1 0,-2 0,-3 1,-5 1,-10 1,-14 0,-1 0,-2 0,-2 0,-1 0,-2 0,-2 0,-3 0,-5 0,-7 0,-3 0,-6 0,-8 0,-4 0,-7 1,-10 0,-3 0,-6 0,-8 0,-3 0,-6 0,-9 0,-1 0,-2 0,-3 0,0 0,-1 0,-1 0,0 0,0 0,0 0,-1 0,-1 0,-1 0,-1 0,-1 0,-1 -1,0 -1,0 -1,0 -1,0 -2,0 -3,0 -1,0 -2,-1 -4,-1 0,0 -1,0 -2,0 0,0 0,0 0,0 0,0 0,0 0,0 -1,0 -1,0 -2,0 -1,0 -3,0 -4,0 -1,0 -2,0 -3,0 -1,-1 -2,-1 -3,-1 -1,0 -2,0 -4,0 0,0 -1,0 -2,0 -1,0 -2,0 -4,0 0,0 0,0 0,0 -1,-1 -1,-1 -2,0 0,0 0,0 0,1 0,0 0,0 0,1 0,0 0,0 0,1 0,0 0,1 1,1 -1,0 -1,0 -1,0 0,0 0,0 0,0 0,0 0,0 0,0 0,0 0,0 0,0 -1,0 -2,0 -3,0 0,0 0,0 0,0 0,0 0,0 0,0 0,0 -1,0 -1,0 0,0 0,0 0,1 0,0 0,0 0,0 0,0 0,0 0,0 0,1 0,2 0,3 0,3 0,5 0,7 0,3 0,6 1,9 0,1 0,2 0,4 0,0 0,0 0,0 0,1 0,1 0,1 0,3 0,6 0,9 0,0 0,1 0,1 0,0 0,0 0,0 0,0 0,0 0,0 0,0 0,0 0,0 0,1 0,1 -1,1 0,0 -1,0 -2,0 -1,-1 -1,-1 -2,-1 0,0 0,0 0,0 0,0 -1,0 -1,0zm40 -35l0 0c0,1 0,1 0,1 0,0 0,0 0,0 0,0 0,0 0,0 0,2 0,4 0,5 0,3 0,6 0,8 0,4 0,8 0,12 0,1 0,3 0,4 0,0 0,0 0,1 0,0 0,0 0,0 -1,2 -1,3 -1,5 0,4 0,7 0,11 0,4 0,7 0,11 0,2 0,4 0,5 0,0 0,0 0,0 0,1 0,1 0,1 0,2 0,3 0,5 -1,4 -1,8 -1,11 0,5 0,10 0,14 0,1 0,1 0,2 0,0 0,0 0,1 0,0 0,0 0,0 0,0 0,0 -1,0 0,0 0,0 0,0 -1,0 -2,0 -3,0 -1,0 -1,0 -2,0 0,0 0,0 -1,0 -1,-1 -3,-1 -4,-1 -1,0 -2,0 -3,0 0,0 0,0 0,0 0,0 0,0 0,0 -1,0 -2,0 -3,0 -1,0 -3,0 -4,0 -1,0 -2,0 -3,-1 0,0 -1,0 -1,0 0,0 0,0 0,0 0,0 0,0 0,0 0,0 0,0 0,0 0,-1 0,-1 0,-2 0,0 0,-1 0,-2 0,0 0,-1 0,-1 0,-2 0,-4 0,-6 0,-2 0,-3 0,-4 0,0 0,0 0,0 0,-1 0,-1 0,-1 0,-1 0,-2 0,-3 1,-2 1,-4 1,-6 0,-2 0,-4 0,-6 0,-1 0,-2 0,-3 0,0 0,0 0,0 0,0 0,0 0,0 0,-1 0,-1 0,-1 0,0 0,0 0,0 -1,0 -1,0 -1,0 -1,0 -3,-1 -4,-1 -2,0 -4,0 -6,-1 -1,0 -3,0 -4,0 -1,0 -2,-1 -3,-1 0,0 0,0 -1,0 0,0 0,0 0,0 0,0 0,0 -1,0 0,0 0,0 0,0 0,0 0,0 0,0 0,1 0,1 0,1 0,1 0,1 0,2 0,1 0,2 0,4 0,3 0,7 0,10 0,3 0,6 0,8 0,3 0,6 -1,9 0,2 0,3 0,4 0,0 0,0 0,0 0,0 0,0 0,1 0,0 0,0 0,0 0,1 0,1 0,1 -1,0 -2,-1 -3,-1 -1,0 -1,0 -2,0 -1,0 -1,0 -2,0 -1,0 -2,0 -3,0 -1,0 -1,0 -2,0 -1,0 -2,-1 -3,-1 -1,0 -2,0 -3,0 0,0 -1,0 -1,0 -1,0 -2,0 -3,0 0,0 -1,0 -1,0 0,0 0,0 0,0 0,0 -1,0 -1,-1 0,0 0,0 0,0 0,0 0,0 0,0 0,0 0,0 0,-1 0,-5 -1,-10 -1,-15 0,0 0,-1 0,-1 0,-4 1,-8 0,-13 0,-1 0,-3 0,-4 0,-2 0,-4 0,-5 0,-1 0,-2 0,-3 0,-3 0,-6 0,-9 0,-6 0,-12 0,-18 0,-4 0,-8 0,-12 0,-2 0,-5 0,-7 0,-1 0,-1 0,-2 0,0 0,0 0,0 0,0 0,0 0,0 0,0 1,0 1,0 1,0 2,0 3,0 1,0 2,0 3,0 2,0 4,0 5,0 1,0 2,-1 3,-1 0,0 0,0 0,0 0,0 0,0 0,0 1,0 2,0 3,0 1,0 3,0 5,0 1,0 2,0 3,0 1,0 2,0 3,0 0,0 0,0 1,0 0,0 0,0 0,0 0,0 0,0 0,0 0,0 0,1 0,1 0,3 0,6 0,9 0,2 0,3 0,5 0,2 0,5 0,8 0,2 -1,5 -1,7 0,1 0,1 0,2 0,0 0,1 0,2 0,0 0,0 0,0 0,0 1,0 1,0 0,0 0,0 0,0 0,0 0,1 0,1 0,0 1,0 1,0 1,0 2,0 3,0 2,0 3,1 5,1 1,0 2,0 3,0 1,0 1,0 2,0 0,0 1,0 1,-1 0,-1 0,-1 0,-2 0,0 0,-1 0,-1 0,0 0,0 0,0 0,-5 0,-10 0,-15 0,-1 0,-1 0,-1 0,0 0,-1 0,-1 0,-1 0,-2 0,-3 0,-3 0,-6 -1,-9 0,-1 0,-3 0,-4 0,-1 0,-2 0,-2 0,-1 0,-1 0,-1 0,0 0,0 0,0 0,-1 0,-1 0,-1 1,0 1,0 1,0 0,0 0,0 0,0 0,0 1,0 1,0 1,1 2,1 3,1 1,0 2,0 3,0 1,0 2,0 4,0 1,0 1,0 2,0 1,0 2,1 4,1 1,0 2,0 3,0 1,0 1,0 2,0 1,0 2,0 2,0 1,0 2,0 3,0z"/>
     <path class="fil22" d="M1228 416l0 0c0,0 0,0 0,0 0,0 0,0 0,0 -1,0 -1,0 -1,0 0,0 0,0 0,0 0,0 -1,0 -1,0 -1,0 -1,0 -2,0 -1,0 -2,0 -2,1 -1,0 -2,0 -3,0 -1,0 -2,0 -3,0 -1,0 -1,0 -2,1 0,0 -1,0 -1,0 0,0 -1,0 -1,0 0,0 0,0 -1,0 -1,0 -1,0 -2,0 -1,0 -1,0 -2,0 -1,0 -1,1 -2,1 0,0 -1,0 -1,0 -1,0 -2,0 -2,0 -1,0 -1,0 -2,0 0,1 -1,1 -2,1 -1,0 -2,0 -3,0 -3,1 -5,1 -8,2 0,0 -1,0 -1,0 0,0 0,0 0,0 0,0 0,0 0,0 0,0 0,1 0,1 0,0 0,0 0,1 -1,0 -1,0 -1,0 0,0 0,0 0,0 0,0 0,0 0,0 0,0 0,0 0,0 0,0 -1,0 -1,0 0,1 -1,1 -1,1 0,0 0,0 0,0 0,0 0,0 0,0 0,0 0,0 0,1 0,1 0,2 0,2 0,2 0,3 0,4 0,1 0,2 0,2 0,3 0,5 0,8 0,1 0,3 0,5 0,2 0,4 0,6 -1,6 -1,12 -1,18 0,1 0,2 0,3 0,2 0,4 0,6 1,1 1,1 1,1 0,0 0,0 0,1 0,0 0,0 0,0 0,0 1,0 1,0 13,0 26,0 39,0 0,0 0,0 0,0 0,0 1,0 1,0 0,0 0,0 0,0 0,0 0,0 0,0 0,0 0,0 0,0 0,-1 0,-1 0,-1 0,0 0,0 0,0 0,-1 0,-1 0,-1 0,0 0,0 0,-1 0,0 1,0 1,0 0,0 0,0 0,0 0,0 1,0 1,0 0,0 0,0 1,0 0,0 0,0 0,0 0,-1 0,-1 0,-2 0,0 0,-1 0,-2 0,0 0,-1 0,-1 0,-1 1,-2 1,-2 0,-1 0,-1 0,-2 0,-1 0,-1 0,-2 0,0 0,-1 0,-1 0,-1 0,-2 0,-3 0,0 0,-1 0,-2 0,0 0,-1 0,-1 0,0 0,0 0,0 0,-1 0,-1 0,-1 0,0 0,0 0,0 -1,0 -1,0 -1,0 0,0 -1,0 -2,0 -1,0 -2,1 -4,1 -1,0 -3,0 -4,0 0,0 -1,0 -2,0 0,0 0,0 0,0 0,0 0,0 0,0 -1,0 -2,0 -2,0 -2,0 -3,0 -5,0 0,0 0,0 -1,0 0,0 -1,0 -1,0 0,0 -1,0 -1,0 0,0 0,0 0,0 0,0 0,0 0,0 0,0 0,0 0,0 0,0 0,0 0,0 0,0 0,-1 0,-1 0,0 0,-1 0,-2 0,0 0,0 0,0 0,-1 0,-1 1,-1 0,0 0,0 0,0 0,0 0,0 0,0 1,0 2,0 3,0 2,0 5,0 7,0 1,0 1,0 1,0 1,0 1,0 1,0 0,0 0,0 0,-1 0,0 0,0 0,0 0,0 0,0 0,0 0,-1 0,-1 0,-1 0,0 0,0 0,0 0,0 0,0 1,0 0,0 0,0 0,0 0,0 0,0 0,0 1,0 1,0 1,0 0,0 0,0 0,-1 0,0 0,0 0,0 1,0 1,0 1,0 0,-4 0,-8 0,-12 0,0 0,-1 -1,-1 0,0 0,0 0,0 0,0 0,0 0,0 0,0 0,0 0,0 0,0 0,0 0,0 0,0 0,0 0,0 -1,0 -3,0 -4,0 -2,0 -5,0 -8,0 0,0 0,0 0,0 -1,0 -1,0 -2,0 0,0 0,0 0,0 0,-1 0,-1 0,-1 0,0 0,-1 0,-1 0,0 0,0 0,0 0,-1 0,-1 0,-1 0,0 0,0 0,0 1,0 1,0 1,0 0,0 0,0 0,0 1,0 2,0 3,0 0,0 0,0 1,0 0,0 1,0 1,0 1,0 2,0 2,0 1,0 2,0 3,0 1,0 1,-1 2,-1 0,0 1,0 2,0 1,0 2,0 3,0 1,0 1,0 1,0 0,0 0,0 0,-1 0,0 0,0 0,0 0,0 0,-1 0,-1 0,0 0,0 0,0 0,0 0,-1 0,-1 0,0 0,0 0,0 1,0 2,0 2,0 0,0 0,0 0,0 1,0 1,0 1,0 0,0 0,0 0,0 0,0 0,0 0,0 0,0 0,0 0,0 0,0 0,-1 0,-1 0,-5 0,-10 0,-15 0,0 0,-1 0,-1 0,0 0,0 0,0 0,-1 0,-1 0,-1 0,0 0,0 0,0 0,0 0,0 0,0zm-2 2l0 0c0,0 0,0 0,0 0,0 0,0 0,0 0,0 0,0 0,1 0,4 0,8 0,13 0,0 0,0 0,0 0,0 0,0 0,0 0,0 0,0 0,1 0,0 0,0 0,0 0,0 0,0 0,0 -1,0 -1,0 -1,0 -1,0 -2,0 -2,0 -1,0 -1,0 -2,0 -1,0 -2,0 -3,0 0,0 -1,0 -1,0 0,0 0,0 0,0 0,0 0,0 0,0 -1,0 -1,0 -2,0 0,0 -1,0 -2,0 -1,1 -1,1 -2,1 -1,0 -1,0 -2,0 -1,0 -1,0 -2,0 -1,0 -1,0 -1,0 0,0 0,0 0,0 -1,0 -1,0 -1,0 0,0 0,0 0,0 0,1 0,1 0,1 0,2 0,4 0,6 0,1 0,1 0,1 0,0 0,0 0,0 0,0 0,0 0,0 0,0 0,0 0,0 1,0 1,0 2,0 3,1 5,1 8,1 1,0 1,0 2,0 0,0 1,0 1,0 0,0 0,0 1,0 0,0 0,0 0,0 0,0 0,0 0,0 0,0 0,0 0,0 0,0 0,0 0,0 0,0 0,0 0,0 0,3 0,6 0,9 0,0 0,1 0,1 0,0 0,0 0,0 0,0 0,0 0,0 0,0 -1,0 -1,0 0,0 0,0 0,0 -2,0 -3,0 -5,0 -2,0 -5,0 -8,0 -1,0 -1,0 -1,0 0,0 0,0 0,0 0,0 0,0 0,0 0,0 0,0 0,0 0,0 0,0 0,0 -1,0 -1,0 -1,1 0,0 0,0 0,0 0,0 0,1 0,2 0,2 0,3 0,5 0,1 0,1 0,1 0,0 0,1 0,1 0,0 0,0 0,0 0,0 0,0 0,0 0,0 1,0 1,0 0,0 0,0 0,0 1,0 1,0 2,0 2,0 3,0 5,0 0,0 1,0 1,0 0,0 1,0 1,0 0,0 0,0 0,0 0,0 1,0 1,0 1,0 2,-1 3,-1 1,0 2,0 3,0 1,0 2,0 3,0 0,0 1,0 1,0 1,0 1,0 2,0 0,0 0,0 0,0 0,0 0,0 1,0 0,0 0,0 0,1 0,0 0,0 0,0 -1,1 -1,2 -1,3 0,2 0,3 0,5 0,0 0,1 0,2 0,0 0,0 0,1 0,1 0,2 0,3 0,0 0,0 0,0 0,0 0,0 0,0 -1,0 -1,0 -1,0 0,0 0,0 0,0 0,0 0,0 0,0 0,0 -1,0 -1,0 0,0 0,0 0,0 -1,0 -1,0 -2,0 -11,0 -23,0 -34,0 0,0 0,0 -1,0 0,0 0,0 0,0 0,0 0,0 0,0 0,0 0,0 0,0 0,0 0,0 0,0 0,0 0,0 0,0 0,-2 0,-4 0,-6 0,-2 0,-4 0,-6 0,-3 0,-6 0,-8 0,-1 0,-1 0,-1 0,-2 0,-4 0,-5 0,-3 0,-5 0,-8 0,-3 0,-6 0,-9 0,0 0,-1 0,-2 0,-1 0,-3 0,-5 0,-1 0,-2 0,-3 0,0 0,0 0,0 0,-1 0,-1 0,-1 1,0 1,0 1,0 0,0 1,0 1,0 2,0 3,0 5,-1 2,0 3,0 5,-1 0,0 1,0 1,0 1,0 2,0 3,0 1,0 2,-1 2,-1 1,0 1,0 1,0 1,0 2,0 3,0 0,0 1,0 1,0 0,0 1,0 1,0 0,0 0,0 1,-1 0,0 0,0 1,0 1,0 2,0 3,0 0,0 1,0 2,0 0,0 1,0 1,0 1,-1 2,-1 2,-1 1,0 1,0 2,0 1,0 2,0 3,0 0,0 0,0 0,0 0,0 0,0 0,0z"/>
     <path id="1" class="fil22" d="M1274 468l0 0c0,0 0,1 0,1 1,1 1,2 1,3 0,2 1,4 1,6 0,0 0,0 0,0 0,0 1,0 1,0 0,0 0,0 0,0 0,0 0,0 0,0 6,-2 11,-3 17,-5 0,0 0,0 0,0 0,0 0,-1 0,-1 1,0 1,0 1,0 0,0 0,0 0,0 0,0 0,-1 0,-1 0,0 0,0 0,0 0,0 0,0 0,0 0,-1 1,-1 1,-1 0,0 1,0 1,0 0,0 0,-1 0,-1 0,0 0,0 0,0 0,0 0,-1 0,-1 0,-1 0,-3 0,-5 -1,-2 -1,-4 -1,-6 -1,-1 -1,-3 -1,-5 0,0 0,0 0,-1 -1,-2 -2,-5 -2,-8 -2,-6 -4,-12 -6,-18 -1,-3 -2,-5 -3,-8 0,0 0,0 0,0 0,0 0,0 0,0 0,0 0,0 0,0 0,0 -1,0 -1,0 0,0 0,0 0,0 -3,0 -5,1 -7,1 -3,1 -6,2 -9,2 -1,0 -2,1 -3,1 0,0 -1,0 -1,0 0,0 0,0 0,0 0,0 0,0 0,0 0,0 0,1 0,1 0,0 0,0 0,0 0,0 0,0 0,0 0,0 0,1 -1,1 0,0 0,0 0,0 0,1 0,1 0,1 -1,0 -1,0 -2,0 0,0 0,0 0,0 0,0 0,0 0,0 0,0 0,0 0,0 0,0 0,0 0,0 0,0 0,0 0,1 0,1 0,2 0,3 0,1 0,2 0,4 0,0 -1,1 -1,2 0,0 0,0 0,0 0,0 0,0 0,0 0,0 0,0 0,0 0,1 0,1 0,1 0,0 0,0 0,0 0,0 0,0 0,0 0,0 0,0 0,0 0,0 0,0 0,0 0,0 0,0 0,-1 0,0 0,0 0,0 0,0 0,0 0,-1 0,0 -1,-1 -1,-2 0,-1 -1,-3 -2,-5 0,-1 0,-2 -1,-3 0,0 0,0 0,0 0,0 0,0 0,0 0,0 0,0 -1,0 0,0 0,0 0,0 -1,0 -1,0 -2,0 0,0 -1,0 -2,0 0,0 -1,0 -2,0 0,0 -1,0 -1,0 -1,0 -2,0 -2,0 -1,0 -1,1 -1,1 -1,0 -2,0 -2,0 -2,0 -4,0 -5,0 -1,0 -2,0 -3,0 0,1 0,1 0,1 -1,0 -1,0 -1,0 0,0 0,0 0,1 0,0 0,0 0,0 0,0 0,0 0,0 0,0 0,1 0,1 0,0 0,0 0,0 0,0 -1,0 -1,0 0,0 0,0 0,0 0,0 0,0 0,0 -1,0 -1,0 -1,0 0,0 0,1 -1,1 0,1 0,2 0,3 0,0 0,0 0,0 0,1 0,1 0,1 0,2 0,4 0,6 0,0 0,1 0,1 0,0 0,1 0,1 0,4 0,8 0,12 0,0 0,0 0,1 0,0 0,0 0,0 0,1 0,1 0,2 0,1 0,2 0,3 0,1 0,3 0,4 0,0 0,1 1,2 0,0 0,0 0,0 0,1 0,1 0,2 0,0 0,1 0,1 0,0 0,0 0,1 0,0 0,1 0,2 0,1 0,2 0,3 0,0 1,0 1,1 0,0 0,0 0,1 0,1 0,2 0,2 0,2 0,3 1,5 0,0 0,0 0,0 0,1 0,1 0,1 0,0 0,0 0,1 0,0 0,0 0,0 0,0 0,0 0,0 0,0 1,0 1,0 0,0 0,0 0,0 1,0 1,0 1,0 1,0 1,0 2,0 0,-1 1,-1 2,-1 0,0 1,0 2,0 1,0 1,0 2,0 0,0 1,0 2,0 0,0 1,0 2,0 0,0 1,0 1,0 1,0 2,0 2,0 1,-1 1,-1 2,-1 0,0 0,0 0,0 0,0 0,0 0,0 0,0 0,0 0,0 0,0 0,-1 0,-1 0,0 0,0 0,0 0,-1 0,-1 0,-1 0,0 0,0 0,0 0,0 1,0 1,0 0,0 0,0 0,0 1,0 1,0 1,0 0,0 0,0 1,0 0,0 0,0 0,-1 0,0 0,0 0,0 0,0 0,0 0,0 0,-1 0,-1 0,-2 0,-1 0,-2 0,-3 0,0 -1,0 -1,-1 0,0 0,0 0,0 0,0 0,0 0,0 0,0 0,0 0,0 0,0 0,0 0,0 1,0 1,0 1,0 0,0 0,0 0,0 0,0 0,0 0,0 0,1 1,3 1,4 0,1 1,2 1,2 0,1 0,1 1,2 0,0 0,0 0,0 0,0 0,0 0,0 1,0 1,0 2,0 3,-1 6,-1 10,-2 0,0 0,0 1,0 0,0 0,0 0,0 0,0 0,0 0,0 0,0 0,-1 0,-1 0,0 0,0 0,0 0,0 0,0 0,0 0,0 0,-1 0,-1 0,0 0,0 0,0 0,0 0,0 0,-1 1,0 1,0 1,0 0,0 1,0 1,0 0,0 0,0 0,0 0,0 0,0 1,0 0,0 0,0 0,-1 0,0 0,0 0,0 0,0 0,0 0,0 0,0 0,0 0,-1 0,0 0,0 0,0 0,0 0,0 0,0 0,-1 0,-1 0,-1 0,0 0,0 0,0 0,0 0,-1 0,-1 0,0 0,0 0,0 0,-1 0,-1 0,-1 0,0 0,0 0,0 0,0 0,0 0,-1 0,0 0,0 0,0 0,0 0,0 0,0 0,0 0,-1 0,-1 0,0 0,0 0,0 0,0 0,0 0,0 0,-1 0,-1 0,-1zm-37 11l0 0c0,0 0,-1 0,-2 0,0 0,0 0,0 0,-2 -1,-3 -1,-4 0,-1 0,-2 0,-3 0,0 0,-1 0,-1 0,-1 0,-1 0,-2 0,0 0,-1 0,-1 -1,0 -1,-1 -1,-1 0,-2 0,-3 0,-4 0,0 0,-1 0,-1 0,-1 0,-1 0,-1 0,-1 0,-2 0,-2 0,-2 0,-3 -1,-4 0,-3 0,-5 0,-8 0,-4 0,-7 0,-11 0,-2 0,-3 0,-4 1,-1 1,-1 1,-2 0,0 0,0 0,0 0,-1 0,-1 0,-1 0,-1 0,-1 0,-1 0,0 0,0 0,0 0,0 0,0 1,0 0,0 0,0 0,0 0,0 0,0 1,0 1,0 2,0 4,0 0,-1 1,-1 1,-1 1,0 1,0 2,0 0,0 1,0 1,0 1,0 1,0 2,0 0,0 1,0 2,0 1,0 1,0 2,0 0,0 1,0 1,0 1,0 1,0 1,-1 0,0 1,0 1,0 0,0 0,1 0,1 0,0 0,0 0,1 2,4 4,9 5,14 1,3 3,6 4,9 0,0 0,0 0,0 0,0 0,0 0,0 0,0 0,0 0,0 0,0 0,0 0,0 0,0 0,0 0,0 0,0 0,0 0,0 0,0 0,0 0,0 0,0 0,0 0,0 0,0 0,0 0,0 0,-1 0,-1 0,-2 1,-1 1,-3 1,-5 0,-1 0,-2 0,-3 0,-2 0,-4 0,-5 0,-3 0,-5 0,-7 0,-1 0,-1 0,-2 0,0 0,-1 0,-1 0,0 0,-1 0,-1 0,0 0,0 1,-1 0,0 1,0 1,0 1,0 2,0 3,0 2,-1 4,-1 6,-2 3,0 5,-1 8,-1 0,0 0,0 0,0 0,0 0,0 0,0 0,0 0,0 0,0 0,0 0,0 0,0 0,0 0,0 0,0 1,2 2,4 3,6 2,6 3,12 5,18 1,3 1,6 2,9 0,2 1,5 1,7 1,1 1,3 1,4 0,1 0,1 0,1 0,1 0,2 0,2 1,1 1,1 1,1 0,0 0,1 0,1 0,0 0,0 0,0 0,0 -1,0 -1,1 -3,1 -6,2 -9,3 -1,0 -2,0 -4,1 0,0 0,0 -1,0 0,0 0,0 0,0 0,0 0,0 0,0 0,0 0,0 0,0 0,0 -1,0 -1,0 0,0 0,0 0,0 0,0 0,0 0,0 0,-2 -1,-5 -1,-7 0,-2 -1,-3 -1,-5 0,-1 0,-2 -1,-3 0,0 0,-1 0,-2 0,-2 -1,-4 -1,-6 -1,-3 -1,-5 -2,-8 0,0 0,0 0,0 0,0 0,0 0,0 0,0 0,0 0,0 0,0 0,0 0,0 0,0 0,0 0,0 0,0 0,0 0,0 0,0 0,0 0,0 0,0 0,0 0,0 0,0 0,0 0,0 0,1 0,2 0,3 0,1 0,2 0,2 -1,1 -1,2 -1,3 0,1 0,3 0,4 0,0 0,1 0,1 0,0 0,0 0,0 0,1 0,1 0,1 0,0 0,1 0,1 0,1 0,3 0,4 0,1 0,2 0,3 0,0 0,1 0,1 0,0 0,0 0,0 0,1 0,1 -1,1 0,0 0,1 0,1 0,2 0,3 0,4 0,1 0,2 0,3 0,0 0,0 0,0 0,0 0,1 0,1 0,0 0,0 0,0 0,0 0,0 -1,0 -1,0 -2,0 -3,0 -1,1 -1,1 -2,1 -1,0 -2,0 -2,0 -1,0 -1,0 -1,0 0,0 -1,0 -1,0 0,0 0,0 0,0 0,0 0,0 0,0 0,0 0,0 -1,0 0,-1 -1,-3 -1,-5 -1,-3 -3,-6 -4,-9 -2,-5 -3,-10 -5,-15 0,-1 0,-1 -1,-1 0,0 0,0 0,0 0,0 0,0 0,0 0,0 0,0 0,0 0,0 0,0 0,0 0,0 0,0 0,0 0,0 0,0 0,1 0,0 0,1 0,1 0,0 0,1 0,1 1,0 1,0 1,1 0,1 0,1 0,2 0,1 0,2 0,2 0,1 0,2 0,3 0,0 0,1 0,1 0,1 0,1 1,2 0,0 0,1 0,2 0,0 0,0 0,0 0,1 0,1 0,1 0,1 0,1 0,2 0,0 0,1 0,2 0,0 0,1 0,2 0,1 1,2 1,3 0,1 0,1 0,2 0,1 0,2 0,3 0,0 0,0 0,1 0,0 0,0 0,0 0,0 0,0 0,0 0,0 0,0 0,0 0,0 0,0 0,0 -1,0 -2,0 -2,0 -1,0 -1,0 -2,0 0,0 -1,0 -2,0 0,0 -1,1 -2,1 0,0 -1,0 -1,0 -1,0 -2,0 -3,0 -1,0 -2,0 -3,0 0,0 0,0 0,0 0,0 -1,0 -1,0 0,0 0,0 0,0z"/>
     <path id="2" class="fil22" d="M1453 483l0 0c1,0 1,0 1,0 0,0 0,0 0,0 0,0 0,0 1,0 0,0 0,0 0,0 0,0 0,0 1,0 0,0 0,0 1,0 0,0 1,0 1,0 1,0 1,0 2,0 0,0 0,0 0,0 0,0 1,0 1,0 1,0 1,0 2,0 0,-1 1,-1 1,-1 1,0 1,0 1,0 1,0 2,0 2,0 0,0 0,0 0,0 1,0 1,0 1,0 1,0 1,0 2,0 0,0 1,0 1,0 1,0 1,0 1,0 1,0 1,-1 1,-1 0,0 0,0 1,0 0,0 0,0 0,0 0,-1 0,-1 0,-1 0,-1 0,-1 0,-1 0,0 0,0 0,0 1,0 1,0 1,0 0,0 0,0 0,0 0,0 1,0 1,0 0,0 0,0 0,-1 0,0 1,0 1,0 2,-9 5,-17 7,-25 1,-5 2,-10 3,-15 0,-1 0,-1 0,-2 1,-1 1,-2 1,-3 0,-2 1,-4 1,-6 0,-1 1,-3 1,-5 0,0 0,0 0,0 0,-1 0,-1 0,-2 0,0 0,0 0,0 0,0 -1,0 -1,0 0,0 -1,0 -1,0 -1,0 -2,0 -3,0 -1,0 -1,0 -2,0 0,0 0,0 0,0 0,0 0,0 -1,0 0,0 0,0 0,0 0,0 -1,0 -1,0 -1,-1 -1,-1 -2,-1 -1,0 -2,0 -3,0 0,0 0,0 -1,0 0,0 0,0 -1,0 0,0 -1,0 -2,0 -1,0 -1,0 -2,0 0,0 0,0 0,0 0,0 0,0 0,0 0,0 0,0 0,1 0,0 0,0 0,0 0,0 0,1 -1,2 0,0 0,0 0,0 0,0 0,0 0,0 0,0 0,0 -1,0 0,0 0,0 0,0 0,0 0,0 -1,0 0,0 0,0 0,0 0,0 0,0 0,0 0,0 0,0 0,1 0,1 -1,3 -1,4 0,1 0,2 -1,3 0,2 0,3 0,5 -1,2 -1,5 -2,8 0,0 0,1 0,1 -1,1 -1,1 -1,1 0,0 0,0 0,0 0,0 0,0 0,0 0,0 0,0 0,-1 -1,-4 -2,-9 -4,-13 -1,-3 -2,-7 -2,-10 0,0 -1,-1 -1,-1 0,0 0,0 0,0 0,0 0,0 0,0 0,0 0,0 0,0 -2,0 -3,0 -4,0 -4,0 -7,0 -10,0 0,0 0,0 0,0 -1,0 -1,0 -1,0 0,0 0,0 0,0 0,0 0,0 -1,0 0,0 0,0 0,0 0,1 0,1 0,1 0,0 0,1 0,1 0,0 0,0 0,1 0,0 0,0 0,0 0,0 -1,0 -1,0 0,0 0,0 0,0 0,0 -1,0 -1,0 0,0 0,0 0,0 0,0 0,0 0,0 0,0 0,0 0,0 0,0 0,0 0,0 0,1 -1,1 -1,2 0,1 0,2 0,3 0,1 0,3 -1,4 0,1 0,2 0,3 0,1 0,3 -1,4 0,1 0,2 0,2 0,0 0,1 0,1 0,0 0,0 0,1 0,0 0,0 0,0 0,0 0,0 0,0 0,0 0,0 0,0 -1,0 -1,-1 -1,-1 0,-1 0,-1 0,-1 0,-1 0,-1 0,-2 0,0 0,0 0,-1 -1,0 -1,0 -1,-1 0,0 0,-1 0,-1 0,0 0,-1 0,-1 0,-1 0,-1 0,-2 -1,0 -1,-1 -1,-1 0,0 0,-1 0,-1 0,0 0,-1 0,-1 0,-1 -1,-1 -1,-1 0,-1 0,-1 0,-1 0,-1 0,-1 0,-2 0,-1 0,-1 -1,-2 0,0 0,-1 0,-1 0,0 0,-1 0,-2 0,0 0,0 0,0 0,-1 -1,-2 -1,-2 0,0 -1,0 -1,0 0,0 -1,0 -1,0 0,0 0,0 0,0 0,0 -1,0 -1,0 0,0 -1,0 -1,0 0,0 -1,0 -1,0 -1,1 -1,1 -2,1 0,0 0,0 -1,0 0,0 0,0 -1,0 0,0 -1,0 -1,0 0,0 0,0 -1,0 0,0 0,0 0,0 -1,0 -1,0 -2,0 0,0 -1,0 -1,1 0,0 -1,0 -1,0 0,0 -1,0 -1,0 0,0 0,0 -1,0 0,0 0,0 -1,0 0,0 -1,0 -1,0 -1,0 -1,0 -2,0 0,0 0,0 0,0 0,0 0,1 0,1 0,0 0,0 0,0 0,0 0,0 0,0 0,0 0,0 0,1 0,0 0,0 0,1 0,0 0,0 0,0 -1,0 -1,0 -1,0 0,0 0,0 0,0 -1,0 -1,0 -1,0 0,0 0,0 -1,0 0,0 0,0 0,0 0,0 0,0 0,0 0,1 0,1 0,1 0,0 0,1 0,1 0,1 0,2 1,3 0,3 0,5 1,7 1,6 3,11 5,16 2,6 4,12 6,19 2,4 4,8 6,13 0,0 0,0 0,0 0,0 0,0 0,0 0,0 0,0 0,0 1,0 1,0 1,0 0,0 0,0 0,0 0,0 0,0 0,0 0,0 0,0 0,0 2,0 3,0 4,0 0,0 1,0 1,0 1,0 1,-1 2,-1 0,0 1,0 1,0 1,0 1,0 2,0 1,0 1,0 2,0 0,0 1,0 1,0 1,-1 2,-1 3,-1 1,0 1,0 1,0 1,0 2,0 3,0 0,0 0,0 0,0 1,-1 1,-1 1,-1 1,0 1,0 1,0 0,0 0,0 0,-1 0,0 0,0 0,0 0,-1 0,-1 0,-1 0,0 0,0 0,0 0,0 0,0 0,0 0,0 1,0 1,0 0,0 0,0 0,0 1,0 1,0 1,0 0,0 0,-1 0,-1 0,0 0,0 0,0 1,0 1,0 1,0 0,-1 0,-2 0,-4 0,0 0,-1 0,-1 1,-1 1,-3 1,-4 0,0 0,0 0,0 0,0 0,0 0,0 0,0 0,0 0,0 0,0 0,0 0,0 0,0 0,0 0,0 0,0 0,0 0,0 1,4 2,8 3,12 0,1 0,1 0,2zm22 -6l0 0c0,0 0,0 -1,0 0,0 0,0 -1,0 0,0 -1,0 -1,0 -1,0 -1,0 -1,0 0,0 0,0 -1,0 0,1 -1,1 -2,1 -1,0 -2,0 -3,0 0,0 -1,0 -1,0 -1,0 -1,0 -1,0 0,0 0,0 -1,0 0,0 -1,0 -1,1 -1,0 -2,0 -3,0 0,0 0,0 0,0 0,0 0,0 0,0 0,0 0,0 0,0 0,-1 0,-1 -1,-1 -1,-5 -2,-10 -3,-15 -1,-3 -2,-7 -3,-10 0,0 0,0 0,0 0,0 0,0 0,0 0,0 0,0 0,0 0,0 0,0 0,0 0,0 0,0 0,0 0,1 -1,2 -1,4 0,0 0,1 0,2 0,1 0,1 0,1 0,1 -1,1 -1,2 0,1 0,2 0,4 0,0 0,1 -1,2 0,1 0,2 0,3 0,1 0,1 0,2 0,1 -1,1 -1,2 0,1 0,1 0,2 0,0 0,0 0,0 -1,0 -1,0 -2,0 0,0 -1,0 -1,0 -1,1 -2,1 -2,1 -1,0 -1,0 -2,0 0,0 -1,0 -1,0 -1,0 -1,0 -2,0 0,0 -1,1 -2,1 0,0 -1,0 -1,0 0,0 -1,0 -2,0 0,0 -1,0 -1,0 -1,0 -1,0 -2,0 0,1 -1,1 -1,1 0,0 0,0 -1,0 0,0 0,0 0,0 0,0 0,0 0,0 0,0 0,0 0,0 0,0 0,0 0,-1 0,0 0,0 0,0 -1,-1 -1,-1 -1,-2 -1,-1 -1,-3 -2,-4 -3,-8 -6,-16 -9,-24 -2,-4 -3,-9 -4,-14 -1,-3 -1,-6 -2,-8 0,0 0,0 0,0 0,-1 0,-3 0,-4 0,0 0,0 0,0 0,0 0,0 0,0 0,0 0,0 0,0 0,0 0,0 0,0 0,0 0,0 0,0 1,0 1,0 2,0 0,0 1,-1 2,-1 1,0 1,0 2,0 1,0 1,0 2,0 0,0 1,0 1,0 0,0 1,0 1,0 1,0 1,0 2,-1 0,0 1,0 1,0 0,0 1,0 1,0 0,0 1,0 1,0 1,0 1,0 1,0 0,0 0,0 0,0 0,0 1,0 1,0 0,0 1,0 1,0 0,0 0,0 0,0 0,0 0,0 0,0 0,0 0,0 0,0 0,0 0,0 0,0 0,1 1,3 1,4 0,1 1,3 1,4 0,2 1,4 1,6 0,1 1,2 1,3 0,1 0,2 0,3 1,2 1,4 2,6 0,2 1,4 1,6 0,1 1,2 1,3 0,0 0,0 0,1 0,0 0,1 0,2 0,0 0,0 0,0 0,0 0,0 0,0 0,0 0,0 0,0 1,0 1,0 1,0 0,0 0,0 0,0 0,0 0,0 0,0 0,0 0,0 0,0 0,-1 0,-2 0,-2 0,-2 0,-3 1,-5 0,-1 0,-2 0,-3 0,-1 0,-2 0,-3 1,-1 1,-2 1,-3 0,0 0,-1 0,-2 0,-1 0,-2 1,-2 0,-1 0,-2 0,-3 0,-1 0,-2 0,-3 0,-1 1,-1 1,-2 0,-1 0,-2 0,-3 0,-1 0,-1 0,-2 0,-1 1,-1 1,-2 0,-1 0,-1 0,-2 0,0 0,0 0,0 0,0 0,0 0,0 0,0 0,0 0,0 0,0 0,0 1,0 1,0 3,0 4,0 2,0 4,0 6,0 1,0 1,0 1,0 0,0 0,0 0,0 0,0 1,0 1,0 0,0 0,0 0,0 0,0 0,0 0,0 1,2 1,3 1,5 1,3 2,6 3,9 1,4 2,9 3,13 1,2 2,5 2,7 0,0 0,0 0,1 1,0 1,0 1,0 0,0 0,0 0,0 0,0 0,0 0,0 0,0 0,0 0,0 0,0 0,-1 0,-1 0,-1 0,-1 0,-1 1,-1 1,-1 1,-2 0,-1 0,-3 1,-5 0,-2 1,-4 1,-6 0,-2 1,-3 1,-4 0,-1 0,-3 1,-4 0,-1 0,-2 0,-4 1,-1 1,-2 1,-3 0,-2 1,-4 1,-6 0,0 0,0 0,0 0,0 0,0 0,0 0,0 0,0 0,0 0,0 0,0 0,0 1,0 1,0 1,0 1,0 1,0 2,0 1,0 1,0 2,0 0,0 0,0 0,0 0,0 1,0 1,0 0,0 1,0 1,0 0,0 0,0 0,0 0,0 0,0 0,0 1,0 2,0 2,0 1,0 2,0 3,0 2,0 3,0 4,1 1,0 1,0 1,0 0,0 0,0 0,0 0,0 0,0 0,0 0,0 0,0 0,0 0,0 0,0 0,0 0,0 0,0 0,1 0,0 0,0 0,0 0,2 0,3 -1,4 0,1 0,3 0,4 0,0 0,0 0,1 -1,0 -1,1 -1,1 0,1 0,3 0,4 -1,1 -1,3 -1,5 -1,0 -1,1 -1,2 0,2 -1,5 -2,7 -2,8 -4,15 -6,23 0,1 -1,2 -1,3 0,0 0,0 0,0 0,0 0,0 0,0z"/>
     <path id="3" class="fil22" d="M1534 416l0 0c0,0 0,0 -1,0 0,0 0,0 0,0 0,0 0,0 0,0 0,0 0,0 0,0 0,0 -1,0 -1,0 -1,0 -2,0 -2,0 -1,0 -2,0 -3,1 -1,0 -1,0 -2,0 -1,0 -2,0 -3,0 -1,0 -2,0 -2,1 -1,0 -1,0 -1,0 -1,0 -1,0 -1,0 0,0 -1,0 -1,0 -1,0 -2,0 -3,0 0,0 -1,0 -1,0 -1,0 -1,1 -2,1 -1,0 -1,0 -2,0 0,0 -1,0 -2,0 0,0 -1,0 -1,0 -1,1 -1,1 -2,1 -1,0 -2,0 -4,0 -2,1 -5,1 -7,2 -1,0 -1,0 -1,0 0,0 0,0 0,0 -1,0 -1,0 -1,0 0,0 0,1 0,1 0,0 0,0 0,1 0,0 0,0 0,0 0,0 0,0 0,0 0,0 0,0 0,0 0,0 0,0 0,0 -1,0 -1,0 -1,0 -1,1 -1,1 -1,1 0,0 0,0 0,0 -1,0 -1,0 -1,0 0,0 0,0 0,1 0,1 0,2 0,2 0,2 0,3 0,4 0,1 0,2 0,2 0,3 0,5 0,8 0,1 0,3 0,5 0,2 0,4 0,6 0,6 0,12 0,18 0,1 0,2 0,3 0,2 0,4 0,6 0,1 0,1 0,1 0,0 0,0 0,1 0,0 1,0 1,0 0,0 0,0 1,0 13,0 26,0 39,0 0,0 0,0 0,0 0,0 0,0 1,0 0,0 0,0 0,0 0,0 0,0 0,0 0,0 0,0 0,0 0,-1 0,-1 0,-1 0,0 0,0 0,0 0,-1 0,-1 0,-1 0,0 0,0 0,-1 0,0 0,0 1,0 0,0 0,0 0,0 0,0 0,0 1,0 0,0 0,0 0,0 1,0 1,0 1,0 0,-1 0,-1 0,-2 0,0 0,-1 0,-2 0,0 0,-1 0,-1 0,-1 0,-2 0,-2 0,-1 0,-1 0,-2 1,-1 1,-1 1,-2 0,0 0,-1 0,-1 0,-1 0,-2 0,-3 0,0 0,-1 0,-2 0,0 0,-1 0,-1 0,0 0,0 0,0 0,-1 0,-1 0,-1 0,0 -1,0 -1,0 0,0 0,0 0,0 0,0 -1,0 -2,0 -1,0 -3,1 -4,1 -1,0 -3,0 -4,0 -1,0 -1,0 -2,0 0,0 0,0 0,0 0,0 0,0 0,0 -1,0 -2,0 -3,0 -1,0 -3,0 -4,0 0,0 -1,0 -1,0 0,0 -1,0 -1,0 -1,0 -1,0 -1,0 0,0 0,0 0,0 0,0 0,0 0,0 0,0 0,0 0,0 0,0 0,0 0,0 0,0 0,-1 0,-1 0,0 0,-1 0,-2 0,0 0,0 0,0 0,-1 0,-1 0,-1 0,0 1,0 1,0 0,0 0,0 0,0 1,0 2,0 3,0 2,0 5,0 7,0 1,0 1,0 1,0 0,0 0,0 0,0 0,0 0,0 0,-1 0,0 0,0 0,0 0,0 0,0 0,0 0,-1 0,-1 0,-1 0,0 1,0 1,0 0,0 0,0 0,0 0,0 1,0 1,0 0,0 0,0 0,0 0,0 1,0 1,0 0,0 0,0 0,-1 0,0 0,0 0,0 0,0 0,0 0,0 0,-4 0,-8 0,-12 0,0 0,-1 0,-1 0,0 0,0 0,0 0,0 0,0 0,0 0,0 0,0 0,0 0,0 0,0 0,0 0,0 0,0 -1,0 -1,0 -2,0 -3,0 -3,0 -5,0 -8,0 0,0 0,0 -1,0 0,0 0,0 -1,0 0,0 0,0 0,0 0,-1 0,-1 0,-1 0,0 0,-1 0,-1 0,0 0,0 0,0 0,-1 0,-1 0,-1 0,0 0,0 0,0 1,0 1,0 1,0 0,0 0,0 0,0 1,0 2,0 3,0 0,0 0,0 0,0 1,0 2,0 2,0 1,0 1,0 2,0 1,0 2,0 3,0 0,0 1,-1 1,-1 1,0 2,0 2,0 2,0 3,0 4,0 1,0 1,0 1,0 0,0 0,0 0,-1 0,0 0,0 0,0 0,0 0,-1 0,-1 0,0 0,0 0,0 0,0 0,-1 0,-1 0,0 0,0 0,0 1,0 1,0 2,0 0,0 0,0 0,0 0,0 0,0 0,0 1,0 1,0 1,0 0,0 0,0 0,0 0,0 0,0 0,0 0,0 0,-1 0,-1 0,-5 0,-10 0,-15 0,0 0,-1 0,-1 0,0 0,0 0,0 0,-1 0,-1 0,-1 0,0 0,0 0,0 0,0 0,0 0,0zm-2 2l0 0c0,0 0,0 0,0 0,0 0,0 0,0 0,0 0,0 0,1 0,4 0,8 0,13 0,0 0,0 0,0 0,0 0,0 0,0 0,0 0,0 0,1 0,0 0,0 0,0 0,0 0,0 -1,0 0,0 0,0 -1,0 0,0 -1,0 -1,0 -1,0 -2,0 -2,0 -1,0 -2,0 -3,0 0,0 -1,0 -1,0 0,0 0,0 0,0 0,0 0,0 -1,0 0,0 0,0 -1,0 -1,0 -2,0 -2,0 -1,1 -2,1 -2,1 -1,0 -1,0 -2,0 -1,0 -2,0 -2,0 -1,0 -1,0 -1,0 -1,0 -1,0 -1,0 0,0 0,0 0,0 0,0 0,0 0,0 0,1 0,1 0,1 -1,2 -1,4 -1,6 0,1 0,1 0,1 0,0 0,0 0,0 1,0 1,0 1,0 0,0 0,0 0,0 1,0 1,0 2,0 2,1 5,1 8,1 0,0 1,0 2,0 0,0 0,0 1,0 0,0 0,0 0,0 0,0 0,0 0,0 0,0 0,0 0,0 0,0 1,0 1,0 0,0 0,0 0,0 0,0 0,0 0,0 0,3 0,6 0,9 0,0 0,1 0,1 0,0 0,0 -1,0 0,0 0,0 0,0 0,0 0,0 0,0 0,0 0,0 -1,0 -1,0 -2,0 -4,0 -3,0 -6,0 -9,0 0,0 0,0 0,0 0,0 0,0 0,0 -1,0 -1,0 -1,0 0,0 0,0 0,0 0,0 0,0 0,0 0,0 0,0 0,1 0,0 0,0 0,0 0,0 0,1 0,2 0,2 0,3 0,5 0,1 0,1 0,1 0,0 0,1 0,1 0,0 0,0 0,0 0,0 0,0 0,0 0,0 0,0 0,0 1,0 1,0 1,0 1,0 1,0 2,0 1,0 3,0 5,0 0,0 1,0 1,0 0,0 0,0 0,0 1,0 1,0 1,0 0,0 1,0 1,0 1,0 2,-1 3,-1 0,0 1,0 2,0 1,0 3,0 4,0 0,0 1,0 1,0 1,0 1,0 1,0 0,0 0,0 0,0 1,0 1,0 1,0 0,0 0,0 0,1 0,0 0,0 0,0 0,1 0,2 0,3 0,2 0,3 0,5 0,0 0,1 0,2 0,0 0,0 -1,1 0,1 0,2 0,3 0,0 0,0 0,0 0,0 0,0 0,0 0,0 0,0 0,0 0,0 0,0 0,0 0,0 0,0 0,0 -1,0 -1,0 -1,0 0,0 0,0 0,0 -1,0 -2,0 -3,0 -11,0 -22,0 -33,0 0,0 -1,0 -1,0 0,0 0,0 0,0 0,0 0,0 0,0 0,0 0,0 0,0 0,0 0,0 0,0 0,0 0,0 0,0 0,-2 0,-4 -1,-6 0,-2 1,-4 1,-6 0,-3 0,-6 0,-8 0,-1 0,-1 0,-1 0,-2 0,-4 0,-5 0,-3 0,-5 0,-8 0,-3 0,-6 0,-9 0,0 0,-1 0,-2 0,-1 0,-3 0,-5 0,-1 0,-2 0,-3 0,0 0,0 0,0 0,-1 0,-1 0,-1 0,0 0,0 0,0 1,0 1,0 2,0 1,0 3,0 5,-1 1,0 3,0 4,-1 1,0 1,0 2,0 1,0 2,0 3,0 1,0 1,-1 2,-1 0,0 1,0 1,0 1,0 2,0 3,0 0,0 0,0 1,0 0,0 0,0 1,0 0,0 0,0 0,-1 1,0 1,0 2,0 1,0 2,0 3,0 0,0 1,0 1,0 1,0 2,0 2,0 1,-1 1,-1 2,-1 1,0 1,0 2,0 1,0 2,0 3,0 0,0 0,0 0,0 0,0 0,0 0,0z"/>
     <path id="4" class="fil22" d="M1582 450l0 0c0,0 0,0 0,0 0,0 0,0 0,0 0,0 0,0 1,0 0,0 0,0 0,-1 0,0 0,0 0,0 1,-1 2,-2 2,-3 1,-2 3,-4 3,-6 1,-1 1,-3 1,-5 1,-2 0,-3 0,-5 -1,-4 -3,-6 -6,-8 -1,-1 -2,-1 -4,-1 -2,-1 -4,-1 -6,-2 -3,0 -6,1 -9,1 -2,0 -5,1 -7,1 -3,1 -6,2 -9,3 -3,1 -6,2 -9,3 0,0 0,0 0,0 0,0 0,0 -1,0 0,0 0,0 0,0 0,0 0,0 0,1 0,0 0,0 0,0 0,0 0,0 0,0 0,0 0,0 0,1 0,0 0,0 0,0 0,0 0,0 0,0 -1,0 -1,0 -1,0 0,0 -1,0 -1,1 0,0 0,0 0,0 0,0 -1,0 -1,0 0,0 0,1 0,1 0,18 0,36 0,54 0,1 0,1 0,1 0,0 0,0 1,0 0,0 0,0 0,0 0,0 0,0 0,0 0,0 0,0 0,0 2,0 4,0 6,-1 2,0 4,0 5,-1 1,0 2,0 3,0 1,0 2,-1 3,-1 1,0 3,0 4,0 1,-1 1,-1 2,-1 0,0 0,0 1,0 0,0 1,0 2,0 0,0 0,0 0,0 0,-1 0,-1 0,-1 0,0 0,0 0,0 0,0 0,-1 0,-1 0,0 0,0 0,0 0,0 0,-1 0,-1 0,0 0,0 0,0 1,0 1,0 1,0 1,0 1,0 2,0 0,0 0,0 0,0 0,0 0,-1 0,-1 0,-1 0,-1 0,-2 0,0 0,-1 0,-2 -1,-1 -1,-3 -1,-4 0,-1 0,-1 0,-1 0,0 0,0 0,-1 -1,-1 -1,-2 -1,-3 0,0 0,0 0,-1 0,0 0,0 0,0 0,0 0,0 0,0 0,0 0,0 0,0 0,0 0,0 0,0 0,0 1,0 1,0 1,0 2,1 2,2 1,1 2,2 2,3 1,1 1,3 1,5 1,1 1,3 1,5 0,1 1,2 1,3 0,1 0,2 0,3 0,0 0,0 0,0 0,1 0,1 0,1 0,0 1,0 1,0 0,0 0,0 0,0 0,0 0,0 0,0 8,-4 15,-7 22,-11 0,0 0,0 1,0 0,0 0,0 0,0 0,0 0,0 0,0 0,0 0,0 0,0 0,0 0,0 0,0 0,0 0,-1 0,-1 0,0 0,0 0,0 0,0 0,0 0,0 0,0 0,0 0,0 1,-1 1,-1 1,-1 0,0 1,0 1,0 0,0 1,0 1,-1 0,0 0,0 0,0 0,0 0,0 0,0 -2,-4 -3,-7 -5,-11 0,-1 -1,-3 -1,-4 -1,-1 -1,-2 -2,-2 -2,-2 -3,-4 -6,-4 0,-1 0,-1 -1,-1 0,0 0,0 -1,0zm-42 -22l0 0c0,0 0,0 0,0 0,0 0,0 1,0 5,-2 11,-4 17,-5 2,-1 4,-1 6,-1 2,-1 5,-1 7,-1 2,0 5,0 7,1 1,0 3,1 4,1 2,1 3,3 4,4 1,1 1,3 2,4 0,3 0,5 -1,8 0,1 -1,3 -2,4 -1,3 -3,5 -5,7 0,0 0,0 -1,1 0,0 0,0 -1,0 0,1 0,1 0,1 0,0 0,0 0,0 0,0 0,0 0,0 0,0 0,0 0,0 0,0 0,0 0,0 0,0 0,0 0,0 1,0 1,0 1,0 0,0 1,0 1,0 1,0 2,0 3,0 2,0 4,2 6,4 0,0 1,1 1,2 1,1 1,3 2,4 1,2 2,4 2,5 1,2 1,3 2,4 0,0 0,0 0,0 0,0 0,1 -1,1 0,0 0,0 0,0 -4,2 -8,3 -12,5 -1,1 -3,2 -4,3 -1,0 -1,0 -1,0 0,0 -1,0 -2,1 0,0 0,0 0,0 0,0 0,0 0,0 0,0 0,0 0,0 -1,0 -1,-1 -1,-1 0,-1 0,-2 0,-2 0,-2 -1,-3 -1,-5 0,0 0,0 0,0 0,-2 -1,-4 -1,-7 0,0 0,0 0,0 0,0 0,0 0,0 -1,-2 -1,-3 -2,-4 -1,-1 -3,-2 -4,-2 -1,0 -1,0 -2,0 -1,0 -2,0 -3,0 0,0 0,0 0,0 0,0 0,0 0,0 -1,0 -1,0 -1,0 0,0 0,0 0,1 0,0 0,0 0,0 0,0 0,0 0,0 0,1 0,3 0,4 0,0 1,1 1,1 0,1 0,2 0,3 0,1 0,2 0,2 0,1 1,1 1,2 0,1 0,1 0,2 0,1 0,1 0,2 0,0 0,0 0,0 0,0 0,0 0,0 -1,1 -1,1 -2,1 -2,0 -5,1 -8,1 -1,0 -2,1 -4,1 -1,0 -2,0 -3,1 -1,0 -3,0 -4,0 0,0 -1,0 -2,0 0,0 0,1 0,1 0,0 0,-1 0,-1 0,0 0,0 0,0 0,0 0,0 0,0 0,0 0,0 0,0 0,0 0,0 0,-1 0,0 0,0 0,0 0,-17 0,-34 0,-51 0,0 0,0 0,0 0,0 0,0 0,0 0,-1 0,-1 0,-1 0,0 0,0 0,0zm17 8l0 0c0,0 0,0 0,0 0,1 0,1 0,1 0,0 0,1 0,1 0,1 1,1 1,2 0,0 0,1 0,1 0,1 0,2 0,2 0,1 0,1 0,2 0,0 0,0 0,1 0,0 0,0 0,1 0,0 0,0 0,0 0,1 0,1 0,2 0,0 0,0 0,0 0,0 0,0 0,0 0,1 0,1 0,1 0,0 1,0 1,0 0,0 0,0 0,0 1,0 1,-1 2,-1 0,0 0,0 0,0 2,0 4,-1 6,-1 1,-1 2,-1 3,-2 0,-1 1,-1 2,-2 1,-2 2,-4 1,-6 0,-2 -1,-3 -3,-4 -1,0 -2,0 -2,0 -1,0 -2,0 -3,0 -3,0 -5,1 -7,2 0,0 0,0 -1,0 0,0 0,0 0,0zm3 7l0 0c0,0 -1,0 -1,0 0,-1 0,-2 0,-3 0,-1 0,-1 0,-1 0,0 0,0 0,0 0,0 0,0 1,0 0,0 0,0 0,0 1,0 2,-1 4,-1 0,0 1,0 2,0 0,0 0,0 1,0 1,1 1,2 2,3 0,1 0,2 -1,3 0,1 0,1 0,1 -1,1 -2,1 -3,1 -1,1 -3,1 -5,2 0,0 0,0 0,0 0,0 0,0 0,-1 0,0 0,0 0,0 0,0 0,-1 0,-1 0,-1 0,-1 0,-2 0,0 0,0 0,-1z"/>
     <path id="5" class="fil22" d="M1301 426l0 0c-1,0 -1,0 -1,0 0,0 0,0 0,0 -1,0 -1,0 -1,0 0,0 -1,0 -1,1 0,0 0,0 0,0 0,0 0,0 0,0 0,0 0,1 0,1 0,18 0,36 0,54 0,0 0,1 0,1 0,0 0,0 0,0 0,0 0,0 0,0 0,0 0,0 0,0 0,0 0,0 0,0 2,0 3,0 4,-1 1,0 3,0 4,0 0,0 1,0 2,-1 0,0 1,0 2,0 1,0 2,0 3,-1 1,0 2,0 3,0 1,0 2,0 3,-1 1,0 2,0 3,0 1,0 2,0 2,-1 0,0 0,0 0,0 0,0 0,0 1,0 0,0 0,0 0,0 0,0 0,0 0,0 0,-1 0,-1 0,-1 0,0 0,0 0,0 0,0 0,0 0,-1 0,0 0,0 0,0 0,0 0,0 1,0 0,0 0,0 0,0 0,0 0,0 0,0 1,0 1,0 1,0 0,0 1,0 1,-1 0,0 0,0 0,0 0,-1 -1,-1 -1,-2 0,-1 0,-2 0,-3 0,0 0,-1 0,-1 -1,-1 -1,-2 -1,-3 0,0 0,-1 0,-1 0,-1 0,-1 0,-1 0,-2 -1,-3 -1,-4 0,0 0,0 0,0 1,0 1,0 1,0 1,0 1,0 1,0 4,-1 7,-2 10,-4 2,-1 5,-3 6,-5 1,-1 1,-1 1,-1 1,-1 3,-2 4,-4 2,-4 3,-8 3,-13 0,-2 -1,-4 -1,-6 -2,-3 -4,-6 -8,-8 -1,0 -2,-1 -2,-1 -3,-1 -5,-1 -8,-1 -3,0 -5,0 -8,0 -3,1 -5,1 -7,1 -3,1 -7,2 -10,3 -2,1 -4,2 -5,2 -1,1 -1,1 -1,1 0,0 0,0 0,0 0,0 0,0 0,0 0,0 0,0 0,0 0,0 0,0 0,1 0,0 0,0 0,0 0,0 0,0 0,1zm1 -1l0 0c0,0 1,0 1,0 0,0 0,0 0,0 4,-2 7,-3 11,-4 2,-1 5,-1 7,-2 2,0 3,0 5,0 2,0 3,-1 5,-1 2,0 4,1 6,1 2,0 3,1 4,2 4,1 6,4 7,7 1,2 1,3 1,5 1,4 0,7 -1,10 -1,1 -2,3 -4,4 -1,2 -3,3 -5,4 -3,2 -6,3 -9,4 -2,0 -4,1 -6,1 -1,0 -1,0 -1,0 0,0 0,0 0,0 0,0 0,0 0,0 0,0 0,0 0,0 0,1 0,2 0,3 0,1 1,1 1,2 0,1 0,2 0,2 0,1 0,1 0,2 0,0 0,0 0,0 1,2 1,3 1,5 0,0 0,1 0,2 0,0 1,1 1,2 0,0 0,0 0,0 0,0 0,0 0,0 0,0 0,0 -1,0 0,0 -1,0 -1,1 -3,0 -5,0 -7,1 -1,0 -2,0 -3,0 -1,1 -3,1 -4,1 -1,0 -2,0 -4,1 -1,0 -1,0 -2,0 0,0 -1,0 -1,0 0,0 0,0 0,0 0,0 -1,0 -1,0 0,0 0,0 0,0 0,0 0,-1 0,-1 0,0 0,0 0,0 0,-17 0,-34 0,-51 0,0 0,0 0,0 0,0 0,0 0,-1 0,0 0,0 0,0 0,0 0,0 0,0zm18 9l0 0c0,0 0,0 0,0 0,0 0,0 0,0 0,0 0,1 0,1 0,0 0,0 0,0 0,1 0,1 0,2 0,0 0,1 0,2 0,0 0,1 0,1 0,1 0,1 0,2 0,1 1,2 1,3 0,0 0,0 0,1 0,0 0,0 0,0 0,0 0,0 0,0 0,0 0,0 0,0 0,0 1,0 1,0 2,0 3,0 5,-1 1,0 3,-1 4,-2 1,0 2,-1 3,-2 0,0 1,-1 1,-2 1,-1 1,-3 0,-5 0,-2 -1,-3 -3,-3 -1,0 -1,-1 -2,-1 -1,0 -2,0 -3,1 -2,0 -4,1 -7,2 0,0 0,0 0,0 0,0 0,0 0,0 0,1 0,1 0,1 0,0 0,0 0,0zm2 5l0 0c0,0 0,0 0,0 0,-1 0,-2 0,-2 0,-1 0,-1 0,-1 0,0 0,0 0,0 0,0 0,0 0,0 0,0 0,0 0,0 1,-1 3,-1 4,-1 1,0 1,0 2,0 0,0 1,0 1,0 1,1 2,1 2,2 0,2 0,3 0,4 0,0 -1,1 -1,1 -1,0 -2,1 -3,1 -1,1 -3,1 -4,2 -1,0 -1,-1 -1,-1 0,0 0,0 0,0 0,0 0,0 0,0 0,0 0,0 0,0 0,-1 0,-1 0,-1 0,-1 0,-2 0,-2 0,-1 0,-1 0,-2z"/>
     <path id="6" class="fil22" d="M1379 418l0 0c0,0 -1,0 -1,0 -1,0 -1,0 -1,0 0,0 0,0 0,0 0,0 -1,0 -1,0 0,0 0,0 0,0 0,0 0,0 0,0 -1,0 -2,0 -2,0 -2,1 -5,1 -7,2 -3,2 -7,4 -9,7 -1,0 -1,1 -2,1 -2,3 -4,5 -6,9 -2,4 -3,9 -3,14 0,2 0,3 0,5 0,3 1,5 1,7 2,5 5,9 8,12 3,4 7,6 11,8 3,1 6,2 9,2 1,0 2,0 2,0 2,0 3,0 5,0 4,-1 8,-3 12,-7 0,-1 1,-1 2,-2 0,-1 1,-1 1,-1 2,-2 4,-5 5,-8 2,-5 4,-10 4,-15 0,-2 0,-4 0,-6 0,-3 -1,-5 -1,-7 -1,-3 -2,-5 -4,-8 -2,-4 -5,-7 -9,-9 -3,-2 -7,-3 -11,-4 0,0 -1,0 -1,0 -1,0 -1,0 -1,0 0,0 0,0 0,0 0,0 0,0 -1,0zm26 31l0 0c0,5 -1,10 -2,14 -1,3 -2,5 -4,8 -1,2 -3,4 -5,5 -3,2 -6,3 -9,4 -1,1 -3,1 -4,1 -1,0 -1,0 -2,0 -3,0 -6,-1 -8,-2 -4,-2 -8,-4 -11,-8 -3,-3 -5,-6 -7,-11 -1,-2 -1,-4 -2,-7 0,-1 0,-3 0,-5 0,-5 1,-10 4,-14 2,-4 5,-8 9,-10 3,-2 6,-3 9,-4 3,0 5,0 7,0 3,0 6,1 9,2 6,2 10,6 13,12 1,3 2,5 2,7 1,2 1,3 1,4 0,2 0,3 0,4zm-26 -10l0 0c-1,0 -2,0 -2,0 -2,0 -4,1 -6,3 -2,2 -4,5 -4,8 0,3 1,5 2,8 2,2 4,4 7,5 2,0 3,0 4,0 1,0 1,0 2,0 2,0 4,-2 6,-4 1,0 1,-1 2,-3 0,-1 0,-2 1,-3 0,-2 0,-4 -1,-6 -1,-4 -3,-6 -7,-8 -1,0 -3,0 -4,0zm-10 12l0 0c0,-2 0,-4 1,-6 0,0 1,0 1,0 1,-1 3,-2 5,-2 1,0 2,0 4,1 3,1 5,3 6,6 0,3 0,6 -1,8 0,1 0,1 0,2 -1,0 -1,0 -1,1 -1,0 -2,0 -3,1 0,0 -1,0 -1,0 -1,0 -2,0 -3,-1 -3,-1 -5,-2 -6,-4 -1,-2 -2,-3 -2,-5 0,0 0,0 0,-1 0,0 0,0 0,0z"/>
    </g>
    <g>
     <path class="fil23" d="M1239 558c0,0 -4,-9 -10,-14 0,0 33,-1 53,-29 0,0 -10,33 -43,43z"/>
     <path class="fil23" d="M1234 634c0,0 -1,-58 -37,-94 0,0 54,25 37,94z"/>
     <path class="fil24" d="M1236 579c-10,-35 -47,-42 -63,-72 26,25 76,36 63,72z"/>
     <circle class="fil24" cx="1230" cy="526" r="10"/>
    </g>
   </g>
  </g>
 </g>
</svg>
