<svg id="301344a3-98eb-4fbe-8805-57277f4c4421" data-name="Layer 1" xmlns="http://www.w3.org/2000/svg" viewBox="0 0 96.1 74.47"><title>chssss</title><path d="M231.78,519.52a6.62,6.62,0,0,0,1.32,8.62c1,0.82,2.15,1.75,3.56,2.77,3.72,2.71,11.14,6.49,2.42,17.14-10.23,12.5-38.14,6.41-57.56,2.73-30.23-5.73-30-31.58-12.83-34.84,13.74-2.6,21.82-2.43,25.79-10.72C203.53,486.34,248.08,493.92,231.78,519.52Z" transform="translate(-151.79 -481.08)" fill="#fff" fill-rule="evenodd"/><path d="M242,535.56c-8.1,4.47-29.52,1.38-33.92-17.06-2-8.23-7.22-12-13.67-13.13l0.07-.14c9-18.89,53.6-11.31,37.3,14.28h0a6.62,6.62,0,0,0,1.32,8.62c1,0.82,2.15,1.75,3.56,2.77C238.29,532.09,240.62,533.48,242,535.56Z" transform="translate(-151.79 -481.08)" fill="#fff" fill-rule="evenodd"/><path d="M168.34,539.54c-0.17,0-4.51,0-5.17-3.94s1.95-5.26.71-9.6-3.27-5.4.57-9.12a4.78,4.78,0,0,0,1.6-3.36c-0.15-2.2,3.32-5.18,6-4s2.37,3.48.63,7.38,0.42,4.29,1,5.42,1.67,2.25-.22,5.33,1.16,6.21-.41,9.12A7.32,7.32,0,0,1,168.34,539.54Z" transform="translate(-151.79 -481.08)" fill="#79a8da" fill-rule="evenodd"/><path d="M169.72,545.56a0.18,0.18,0,0,0,.11-0.22c-3.72-11.87-1-29-1-29.15a0.18,0.18,0,0,0-.36-0.06c0,0.17-2.78,17.37,1,29.32a0.18,0.18,0,0,0,.23.12h0Z" transform="translate(-151.79 -481.08)" fill="#357ec1" fill-rule="evenodd"/><path d="M168,522.87h0a0.18,0.18,0,0,0,.06-0.25,24.39,24.39,0,0,1-1.83-3.84,0.18,0.18,0,0,0-.34.12,24.77,24.77,0,0,0,1.86,3.91A0.18,0.18,0,0,0,168,522.87Z" transform="translate(-151.79 -481.08)" fill="#357ec1" fill-rule="evenodd"/><path d="M167.85,526.62l0.07,0c0.82-.86,2.94-2.54,3-2.56a0.18,0.18,0,0,0-.23-0.28c-0.09.07-2.16,1.71-3,2.59A0.18,0.18,0,0,0,167.85,526.62Z" transform="translate(-151.79 -481.08)" fill="#357ec1" fill-rule="evenodd"/><path d="M167.76,530.25l0,0a0.18,0.18,0,0,0,.05-0.25l-1.57-2.37a0.18,0.18,0,1,0-.3.2l1.57,2.37A0.18,0.18,0,0,0,167.76,530.25Z" transform="translate(-151.79 -481.08)" fill="#357ec1" fill-rule="evenodd"/><path d="M173.26,504.2a18.47,18.47,0,0,0-1.24-1.47c-0.85-.83-1.82-2.3-4.92-1.22a6.81,6.81,0,0,0-.71.31,2.08,2.08,0,0,1-2-.65c-1.38-1.25-1.92-2.2-3.81-2.23-2.2,0-2.54,3.1-4.25,3.9-1.09.51-4,1-4.55,1.24Z" transform="translate(-151.79 -481.08)" fill="#fff" fill-rule="evenodd"/><path d="M227.94,484.23l0.15-.13a10.85,10.85,0,0,0-.81-0.85,5.55,5.55,0,0,0-.74-0.6,2.36,2.36,0,0,0-1.29-.35,4.54,4.54,0,0,0-1.32.22,4.81,4.81,0,0,0-.47.18,0.49,0.49,0,0,1-.16,0,1.52,1.52,0,0,1-.92-0.36c-0.43-.34-0.74-0.65-1.12-0.89a2.59,2.59,0,0,0-1.45-.4h0a1.6,1.6,0,0,0-1,.32,4.67,4.67,0,0,0-.92,1.06,2.26,2.26,0,0,1-.89.83,10.72,10.72,0,0,1-1.55.4l-0.82.17c-0.24,0-.43.09-0.54,0.13a0.19,0.19,0,0,0,.06.38l13.79,0.06a0.19,0.19,0,0,0,.15-0.32l-0.15.13V484L214.15,484v0.19l0.06,0.18,0.5-.12L216,484a8,8,0,0,0,1.16-.32,3.52,3.52,0,0,0,1.32-1.33,2.82,2.82,0,0,1,.57-0.61,1.21,1.21,0,0,1,.74-0.24h0a2.19,2.19,0,0,1,1.24.34c0.32,0.21.63,0.51,1.08,0.87a1.9,1.9,0,0,0,1.16.45,0.82,0.82,0,0,0,.31-0.05,4.47,4.47,0,0,1,.44-0.17,4.17,4.17,0,0,1,1.21-.21,2,2,0,0,1,1.08.29,5.29,5.29,0,0,1,.69.56,6.91,6.91,0,0,1,.49.5l0.28,0.31,0.15-.13v0Z" transform="translate(-151.79 -481.08)" fill="#fff" fill-rule="evenodd"/><path d="M235.67,499.28a9.54,9.54,0,0,1,.7-0.73,2.36,2.36,0,0,1,2.8-.61,4.2,4.2,0,0,1,.4.15,1.3,1.3,0,0,0,1.13-.32c0.78-.62,1.09-1.09,2.17-1.11,1.25,0,1.45,1.54,2.42,1.94,0.62,0.25,2.25.51,2.59,0.62Z" transform="translate(-151.79 -481.08)" fill="#fff" fill-rule="evenodd"/><path d="M224.27,504.26l-0.14-.39-0.14.39a0.77,0.77,0,0,0,0,1.54l0.14,0.39,0.14-.39A0.77,0.77,0,0,0,224.27,504.26Z" transform="translate(-151.79 -481.08)" fill="#c5c6c6" fill-rule="evenodd"/><path d="M232.21,536.88l-0.14-.39-0.14.39a0.77,0.77,0,0,0,0,1.54l0.14,0.39,0.14-.39A0.77,0.77,0,0,0,232.21,536.88Z" transform="translate(-151.79 -481.08)" fill="#c5c6c6" fill-rule="evenodd"/><path d="M178.72,519.48l-0.23-.65-0.23.65a1.29,1.29,0,0,0,0,2.58l0.23,0.65,0.23-.65A1.29,1.29,0,0,0,178.72,519.48Z" transform="translate(-151.79 -481.08)" fill="#c5c6c6" fill-rule="evenodd"/><path d="M175.43,492.46a4.3,4.3,0,0,0-3.31-7h-3a4.3,4.3,0,1,0,0,8.61h3a4.25,4.25,0,0,0,1.92-.46l2.16,1.18Z" transform="translate(-151.79 -481.08)" fill="#473e92" fill-rule="evenodd"/><path d="M173.5,489.27a0.35,0.35,0,0,0-.35-0.33h-1.72a7.81,7.81,0,0,0,.06-0.87c0-.14-0.33-0.9-0.33-0.9a0.24,0.24,0,0,0-.26-0.09,0.24,0.24,0,0,0-.2.16l0,0.8a5.08,5.08,0,0,1-.75,1.23l-0.22.17v1.85l0.08,0.11a0.46,0.46,0,0,0,.37.19h2.44a0.34,0.34,0,0,0,.13-0.66h0a0.35,0.35,0,0,0,.35-0.33,0.34,0.34,0,0,0-.21-0.33h0a0.34,0.34,0,0,0,.15-0.65h0A0.34,0.34,0,0,0,173.5,489.27Z" transform="translate(-151.79 -481.08)" fill="#fff" fill-rule="evenodd"/><rect x="15.94" y="7.8" width="1.73" height="2.86" rx="0.3" ry="0.3" fill="#fff"/><rect x="30.81" y="7.67" width="28.64" height="56.66" rx="3" ry="3" fill="#c5c7e5"/><rect x="32.83" y="12" width="24.49" height="46.32" rx="2.53" ry="2.53" fill="#fff"/><path d="M199.16,542.53H199a2,2,0,1,1-.6-1.44,2,2,0,0,1,.6,1.44h0.4a2.44,2.44,0,1,0-2.44,2.44,2.44,2.44,0,0,0,2.44-2.44h-0.2Z" transform="translate(-151.79 -481.08)" fill="#808cc3" fill-rule="evenodd"/><rect x="36.11" y="35.44" width="17.7" height="15.25" rx="1.69" ry="1.69" fill="#e6e6f5"/><rect x="36.11" y="24.83" width="17.7" height="7.15" rx="1.69" ry="1.69" fill="#e6e6f5"/><path d="M200.21,519.93H191a0.32,0.32,0,1,1,0-.64h9.25A0.32,0.32,0,1,1,200.21,519.93Z" transform="translate(-151.79 -481.08)" fill="#4f3d91" fill-rule="evenodd"/><path d="M197.17,522H191a0.32,0.32,0,1,1,0-.64h6.21A0.32,0.32,0,0,1,197.17,522Z" transform="translate(-151.79 -481.08)" fill="#4f3d91" fill-rule="evenodd"/><polygon points="39.78 42.28 40.07 42.87 40.71 42.96 40.25 43.41 40.36 44.06 39.78 43.75 39.2 44.06 39.31 43.41 38.85 42.96 39.49 42.87 39.78 42.28" fill="#4f3d91" fill-rule="evenodd"/><polygon points="42.37 42.28 42.66 42.87 43.3 42.96 42.84 43.41 42.95 44.06 42.37 43.75 41.79 44.06 41.9 43.41 41.44 42.96 42.08 42.87 42.37 42.28" fill="#4f3d91" fill-rule="evenodd"/><polygon points="44.96 42.28 45.25 42.87 45.89 42.96 45.42 43.41 45.53 44.06 44.96 43.75 44.38 44.06 44.49 43.41 44.02 42.96 44.67 42.87 44.96 42.28" fill="#4f3d91" fill-rule="evenodd"/><polygon points="47.55 42.28 47.84 42.87 48.48 42.96 48.01 43.41 48.12 44.06 47.55 43.75 46.97 44.06 47.08 43.41 46.61 42.96 47.26 42.87 47.55 42.28" fill="#7ca9db" fill-rule="evenodd"/><polygon points="50.14 42.28 50.42 42.87 51.07 42.96 50.6 43.41 50.71 44.06 50.14 43.75 49.56 44.06 49.67 43.41 49.2 42.96 49.85 42.87 50.14 42.28" fill="#7ca9db" fill-rule="evenodd"/><rect x="38.85" y="45.14" width="12.22" height="3.14" rx="0.71" ry="0.71" fill="#7ca9db"/><path d="M212.65,518l-2.6,2.33-4.46-3.18-1.07,1,5.31,4.5a0.58,0.58,0,0,0,.84,0l3.1-2.79Z" transform="translate(-151.79 -481.08)" fill="#edba9a" fill-rule="evenodd"/><path d="M214.61,515.24s-0.21-.14-2.8,2.75l2,2.7,1.17-1.3Z" transform="translate(-151.79 -481.08)" fill="#e65372" fill-rule="evenodd"/><path d="M220.38,518.11l3.07,1.94,0.16,6.69,1.31,0.63,0.75-8a0.58,0.58,0,0,0-.3-0.78l-3.68-2.24Z" transform="translate(-151.79 -481.08)" fill="#edba9a" fill-rule="evenodd"/><path d="M216.71,514.72l-1.79.4a1.16,1.16,0,0,0-.9,1l-1.2,10.1,7.44-.49,0.51-9.52A1.16,1.16,0,0,0,219.7,515Z" transform="translate(-151.79 -481.08)" fill="#ec5e78" fill-rule="evenodd"/><polygon points="71.75 68.71 71.19 65.64 69.42 65.88 70.08 68.99 71.75 68.71" fill="#edba9a" fill-rule="evenodd"/><polygon points="61.41 68.62 61.52 65.41 59.73 65.35 59.77 68.55 61.41 68.62" fill="#edba9a" fill-rule="evenodd"/><polygon points="61.03 45.13 60.42 48.12 68.86 47.7 68.47 44.64 61.03 45.13" fill="#4f3d91" fill-rule="evenodd"/><polygon points="64.56 46.95 62.66 55.13 62.15 67.61 59.31 67.49 59.12 55.05 60.58 47.32 64.56 46.95" fill="#4f3d91" fill-rule="evenodd"/><polygon points="63.82 49.57 62.08 48 64.26 47.93 63.82 49.57" fill="#4b3b90" fill-rule="evenodd"/><polygon points="68.81 47.3 69.67 55.24 72.17 67.26 69.28 67.89 66.22 55.73 64.93 46.95 68.81 47.3" fill="#4f3d91" fill-rule="evenodd"/><path d="M211.57,549.63l1.63,0.07,0,2.45-5.07.28a0.84,0.84,0,0,1,.67-0.75l2.74-.95Z" transform="translate(-151.79 -481.08)" fill="#2f2f3e" fill-rule="evenodd"/><polygon points="61.36 71.07 56.29 71.35 56.28 71.73 61.35 71.45 61.36 71.07" fill="#c5c7e5" fill-rule="evenodd"/><path d="M221.87,550.07l1.67-.28L224,552.2l-4.82.38a0.87,0.87,0,0,1,.51-0.88l2.42-.54Z" transform="translate(-151.79 -481.08)" fill="#2f2f3e" fill-rule="evenodd"/><polygon points="72.16 71.12 67.34 71.5 67.4 71.87 72.22 71.49 72.16 71.12" fill="#c5c7e5" fill-rule="evenodd"/><path d="M217,515.94h-0.19A0.92,0.92,0,0,1,216,515l0.12-3.48,2,0.09L218,515.06A0.92,0.92,0,0,1,217,515.94Z" transform="translate(-151.79 -481.08)" fill="#e9b08c" fill-rule="evenodd"/><path d="M215.83,514.44h-0.08a2.45,2.45,0,0,1-2.39-2.5l0.07-3,5,0.12-0.07,3A2.45,2.45,0,0,1,215.83,514.44Z" transform="translate(-151.79 -481.08)" fill="#edba9a" fill-rule="evenodd"/><path d="M218.32,511.37h-0.71a0.31,0.31,0,0,1-.3-0.37c0.1-.51.22-1.39-0.11-1.5s-3,.47-3.87-0.2a1.36,1.36,0,0,1,.79-2.46c1.1,0,.92,1.22,2.2,1.21s3.23-.47,2.34,2.91Z" transform="translate(-151.79 -481.08)" fill="#302a3d" fill-rule="evenodd"/><circle cx="218.42" cy="511.51" r="0.78" transform="translate(-345.46 -343.11) rotate(-24.69)" fill="#edba9a"/><path d="M213.91,512.48l1.66,0.11a0.81,0.81,0,0,1-1,.61A0.68,0.68,0,0,1,213.91,512.48Z" transform="translate(-151.79 -481.08)" fill="#fff" fill-rule="evenodd"/><path d="M220,515a20.51,20.51,0,0,1,3.73,2l-1.49,3-2-1Z" transform="translate(-151.79 -481.08)" fill="#ec5e78" fill-rule="evenodd"/><path d="M219.64,530l8.41,0,0.59,6.12s-8.56.39-8.54,0.28S219.64,530,219.64,530Z" transform="translate(-151.79 -481.08)" fill="#3f3b57" fill-rule="evenodd"/><polygon points="67.85 48.88 66.86 54.53 68.3 55.25 67.85 48.88" fill="#312c45" fill-rule="evenodd"/><path d="M225.34,531h0a0.13,0.13,0,0,1-.12-0.14,4.27,4.27,0,0,0-.5-2.43,0.78,0.78,0,0,0-.56-0.28,0.72,0.72,0,0,0-.55.2c-0.71.64-.79,2.53-0.79,2.55a0.13,0.13,0,0,1-.27,0c0-.08.08-2,0.88-2.74a1,1,0,0,1,.75-0.27,1,1,0,0,1,.74.37,4.43,4.43,0,0,1,.57,2.63A0.13,0.13,0,0,1,225.34,531Z" transform="translate(-151.79 -481.08)" fill="#fff" fill-rule="evenodd"/><circle cx="204.65" cy="517.88" r="1.21" transform="translate(-169.39 -473.77) rotate(-1.96)" fill="#edba9a"/><path d="M205.61,517.18l-1.78-1.38a0.3,0.3,0,1,0-.36.47l1.78,1.38A0.3,0.3,0,0,0,205.61,517.18Z" transform="translate(-151.79 -481.08)" fill="#edba9a" fill-rule="evenodd"/><circle cx="224.13" cy="527.78" r="1.28" transform="translate(-169.66 -473.13) rotate(-1.95)" fill="#edba9a"/><path d="M202.54,508.08h-12.3a0.22,0.22,0,0,1,0-.45h12.3A0.22,0.22,0,0,1,202.54,508.08Z" transform="translate(-151.79 -481.08)" fill="#7e8ac0" fill-rule="evenodd"/><path d="M197.85,511.27h-7.61a0.22,0.22,0,1,1,0-.45h7.61A0.22,0.22,0,1,1,197.85,511.27Z" transform="translate(-151.79 -481.08)" fill="#7e8ac0" fill-rule="evenodd"/><path d="M195.64,509.64h-5.4a0.22,0.22,0,0,1,0-.45h5.4A0.22,0.22,0,1,1,195.64,509.64Z" transform="translate(-151.79 -481.08)" fill="#7e8ac0" fill-rule="evenodd"/><rect x="41.45" y="9.46" width="5.85" height="0.59" rx="0.29" ry="0.29" fill="#fff"/><circle cx="48.37" cy="9.75" r="0.44" fill="#fff"/><text transform="translate(40.78 21.49)" font-size="5.03" fill="#ee7600" font-family="New Comic BD Shadow">O<tspan x="2.91" y="0">U</tspan><tspan x="5.98" y="0">T</tspan><tspan x="8.33" y="0">H</tspan></text><text transform="translate(38.36 16.72)" font-size="3.12" fill="#009ee3" font-family="New Comic BD Shadow">EM<tspan x="3.74" y="0">POWE</tspan><tspan x="11.51" y="0">R</tspan></text><path d="M192.16,499.24a1.25,1.25,0,0,0-.33-0.45,2.32,2.32,0,0,0,1.73-.93A2.22,2.22,0,0,1,192.16,499.24Z" transform="translate(-151.79 -481.08)" fill="#009ee3" fill-rule="evenodd"/><path d="M192,501.72a5,5,0,0,0-1.19-3.06A2.55,2.55,0,0,1,192,501.72Z" transform="translate(-151.79 -481.08)" fill="#009ee3" fill-rule="evenodd"/><path d="M192.06,499.93c-0.34-1.11-1.52-1.36-2-2.31C190.84,498.42,192.48,498.77,192.06,499.93Z" transform="translate(-151.79 -481.08)" fill="#ee7600" fill-rule="evenodd"/><circle cx="40.07" cy="17.14" r="0.31" fill="#ee7600"/></svg>