<svg xmlns="http://www.w3.org/2000/svg" xmlns:xlink="http://www.w3.org/1999/xlink" viewBox="0 0 93.08 95.44"><defs><linearGradient id="3f74c9ae-cde4-44f7-9bbf-c747a25402df" x1="369.64" y1="549.36" x2="375.79" y2="558.33" gradientUnits="userSpaceOnUse"><stop offset="0" stop-color="#9cc53b"/><stop offset="1" stop-color="#7fbb33"/></linearGradient><linearGradient id="c9f1a769-f39c-4581-8e93-9dc8696c136f" x1="358.87" y1="522.9" x2="366.9" y2="522.9" gradientUnits="userSpaceOnUse"><stop offset="0" stop-color="#ffec00"/><stop offset="1" stop-color="#f8aa00"/></linearGradient><linearGradient id="62069786-ae14-4896-a3e6-0de425d01697" x1="358.87" y1="521.47" x2="366.9" y2="521.47" xlink:href="#c9f1a769-f39c-4581-8e93-9dc8696c136f"/><linearGradient id="f231967c-7c82-4a77-921e-404b52d55701" x1="358.87" y1="520.04" x2="366.9" y2="520.04" xlink:href="#c9f1a769-f39c-4581-8e93-9dc8696c136f"/><linearGradient id="c0809251-4be9-4075-b539-6dd1a30cf534" x1="358.87" y1="518.61" x2="366.9" y2="518.61" xlink:href="#c9f1a769-f39c-4581-8e93-9dc8696c136f"/><linearGradient id="370ddec9-9f63-45c0-9c0f-f3e4106e7883" x1="353.54" y1="527.44" x2="361.57" y2="527.44" xlink:href="#c9f1a769-f39c-4581-8e93-9dc8696c136f"/><linearGradient id="6c3b620f-faca-4e2d-89dd-7ba4122092db" x1="353.54" y1="526.01" x2="361.57" y2="526.01" xlink:href="#c9f1a769-f39c-4581-8e93-9dc8696c136f"/><linearGradient id="7dd9bc4b-346b-444e-9998-c2a339e980b1" x1="353.54" y1="524.58" x2="361.57" y2="524.58" xlink:href="#c9f1a769-f39c-4581-8e93-9dc8696c136f"/><linearGradient id="5e44c684-c0da-435e-88cf-e1d607dca4c6" x1="353.54" y1="523.15" x2="361.57" y2="523.15" xlink:href="#c9f1a769-f39c-4581-8e93-9dc8696c136f"/><linearGradient id="fa32ca79-9e8e-4353-9b9b-54b7996231c1" x1="362.19" y1="528.91" x2="370.22" y2="528.91" xlink:href="#c9f1a769-f39c-4581-8e93-9dc8696c136f"/><linearGradient id="a9ed2cc1-ea8a-4ea8-93f9-cb4b9017e628" x1="362.19" y1="527.48" x2="370.22" y2="527.48" xlink:href="#c9f1a769-f39c-4581-8e93-9dc8696c136f"/><linearGradient id="87c9fd2f-a670-4f14-811b-29ea925c4329" x1="362.19" y1="526.05" x2="370.22" y2="526.05" xlink:href="#c9f1a769-f39c-4581-8e93-9dc8696c136f"/><linearGradient id="7b66a35d-d019-4b74-9e16-12859cceeec2" x1="362.19" y1="524.62" x2="370.22" y2="524.62" xlink:href="#c9f1a769-f39c-4581-8e93-9dc8696c136f"/><linearGradient id="d732fdf4-ffe5-4815-a98e-4502b021d128" x1="382.49" y1="531.68" x2="389.44" y2="524.59" gradientUnits="userSpaceOnUse"><stop offset="0" stop-color="#683f92"/><stop offset="1" stop-color="#031c3f"/></linearGradient><linearGradient id="252fad3e-eee0-4c68-b303-6ce7acc90727" x1="396.13" y1="494.38" x2="388.07" y2="522.5" gradientUnits="userSpaceOnUse"><stop offset="0" stop-color="#fff"/><stop offset="0.59" stop-color="#f4f7fc"/><stop offset="1" stop-color="#e9f0fa"/></linearGradient><linearGradient id="1730907d-6602-4adc-bd39-64ecf219614c" x1="35.79" y1="37.64" x2="79.62" y2="37.64" gradientUnits="userSpaceOnUse"><stop offset="0" stop-color="#4d55a1"/><stop offset="1" stop-color="#4d2383"/></linearGradient><linearGradient id="c679930e-0c3f-4d0d-865e-483403abf405" x1="362.94" y1="518.96" x2="394.55" y2="518.96" gradientUnits="userSpaceOnUse"><stop offset="0" stop-color="#ffea00"/><stop offset="1" stop-color="#f28b00"/></linearGradient><linearGradient id="dd6ebc59-ec99-417a-91eb-992c59b87ce7" x1="374.22" y1="525.11" x2="378.91" y2="522.42" xlink:href="#252fad3e-eee0-4c68-b303-6ce7acc90727"/><linearGradient id="2ef03594-013d-4c66-a6b5-ce7f6d5d7d2a" x1="33.25" y1="51.03" x2="51.17" y2="40.66" gradientUnits="userSpaceOnUse"><stop offset="0" stop-color="#0087af"/><stop offset="1" stop-color="#152156"/></linearGradient><linearGradient id="024879fd-bc33-41f5-b8d8-13d07b0ee2bc" x1="378.31" y1="486.85" x2="415.16" y2="486.85" gradientUnits="userSpaceOnUse"><stop offset="0" stop-color="#fff"/><stop offset="0.33" stop-color="#f4f7fc"/><stop offset="0.92" stop-color="#d6e3f5"/><stop offset="1" stop-color="#d1e0f4"/></linearGradient><linearGradient id="691a7605-54e7-4949-914c-936d1c8566dc" x1="390.57" y1="478.71" x2="393.86" y2="483.37" gradientUnits="userSpaceOnUse"><stop offset="0" stop-color="#704595"/><stop offset="1" stop-color="#e8383b"/></linearGradient><linearGradient id="89557bd6-6331-4d69-bcb2-f65acd0d0753" x1="340.91" y1="496.2" x2="351.7" y2="506.01" xlink:href="#3f74c9ae-cde4-44f7-9bbf-c747a25402df"/><linearGradient id="8393983a-944c-415b-84be-bbc9e1a180c0" x1="408.79" y1="513.83" x2="420.29" y2="513.83" xlink:href="#3f74c9ae-cde4-44f7-9bbf-c747a25402df"/><linearGradient id="a7083a14-9d84-465a-8ed1-1c7cbf5984b0" x1="364.85" y1="500.2" x2="365.63" y2="523.63" xlink:href="#252fad3e-eee0-4c68-b303-6ce7acc90727"/></defs><title>chsss</title><g style="isolation:isolate"><g id="68c104c4-91c0-4a63-b615-4e9c3e13aec4" data-name="Layer 1"><path d="M385.06,477s-7.41-3.79-13.37,8.13-7.94,8.61-23.17,22.18-13.9,29.79,0,38.07,25.16-1.65,37.73,12.91,33.43,8.28,37.73-9.6-8.61-30.78.33-48S421,480.5,408.76,479.84,389.65,479.6,385.06,477Z" transform="translate(-334.3 -470.92)" fill="#fff" fill-rule="evenodd"/><circle cx="58.17" cy="3.19" r="3.19" fill="#fff"/><circle cx="49.67" cy="89.83" r="1.45" fill="#fff"/><path d="M374.14,562.92c-0.36.24-.69,0-0.8-0.4-1.28-5.2-7.79-6.8-9.07-12a1.33,1.33,0,0,1,.49-1.28l6.54-4.48c0.36-.24.69,0,0.8,0.4,1.28,5.2,7.79,6.8,9.07,12a1.33,1.33,0,0,1-.49,1.28Z" transform="translate(-334.3 -470.92)" fill="#57831d" fill-rule="evenodd"/><path d="M379,558.33a2.08,2.08,0,0,1,.66-2.29c-1.81-3.39-5.95-5.19-7.75-8.58a1.15,1.15,0,0,1-1.83-.58l-3.61,2.48a2.08,2.08,0,0,1-.67,2.29c1.81,3.39,5.94,5.19,7.75,8.58a1.15,1.15,0,0,1,1.83.58h0l3.61-2.48h0Zm-8.32-3.08h0a1.89,1.89,0,0,1,.16-3.13,3.38,3.38,0,0,1,3.94.32,1.89,1.89,0,0,1-.16,3.13A3.38,3.38,0,0,1,370.67,555.25Z" transform="translate(-334.3 -470.92)" fill-rule="evenodd" fill="url(#3f74c9ae-cde4-44f7-9bbf-c747a25402df)"/><text transform="matrix(0.96, 0.49, 0, 1, 47.07, 9.52)" font-size="1.92" fill="#3f4552" font-family="Open Sans">www.your-store-website.com</text><text transform="matrix(0.96, 0.49, 0, 1, 47.07, 9.52)" font-size="1.92" fill="#3f4552" font-family="Open Sans">www.your-store-website.com</text><path d="M366.89,523a2,2,0,0,0-1.18-1.76,6.26,6.26,0,0,0-5.68,0,2,2,0,0,0-1.17,1.64h0v1a2,2,0,0,0,1.19,1.66,6.26,6.26,0,0,0,5.68,0,2,2,0,0,0,1.17-1.63v-1S366.89,523,366.89,523Z" transform="translate(-334.3 -470.92)" fill="#f18700" fill-rule="evenodd"/><path d="M365.71,521.34a6.26,6.26,0,0,0-5.68,0c-1.56.91-1.55,2.38,0,3.29a6.26,6.26,0,0,0,5.68,0A2,2,0,0,0,366.9,523h0s0,0,0,0V523s0-.06,0-0.09A2,2,0,0,0,365.71,521.34Z" transform="translate(-334.3 -470.92)" fill="#feec2e" fill-rule="evenodd"/><path d="M365.71,521.25c1.57,0.91,1.58,2.38,0,3.29a6.26,6.26,0,0,1-5.68,0c-1.57-.91-1.58-2.38,0-3.29A6.26,6.26,0,0,1,365.71,521.25Z" transform="translate(-334.3 -470.92)" fill-rule="evenodd" fill="url(#c9f1a769-f39c-4581-8e93-9dc8696c136f)"/><path d="M362.9,524.61a4.78,4.78,0,0,1-2.5-.65,1.53,1.53,0,0,1-.84-1.16,1.5,1.5,0,0,1,.82-1.14,5.12,5.12,0,0,1,5,0,1.53,1.53,0,0,1,.84,1.16,1.5,1.5,0,0,1-.82,1.14A4.74,4.74,0,0,1,362.9,524.61Z" transform="translate(-334.3 -470.92)" fill="#f49800" fill-rule="evenodd"/><path d="M360.38,521.91a5.12,5.12,0,0,1,5,0,1.65,1.65,0,0,1,.83,1,0.79,0.79,0,0,0,0-.13,1.53,1.53,0,0,0-.84-1.16,5.12,5.12,0,0,0-5,0,1.5,1.5,0,0,0-.82,1.14,0.78,0.78,0,0,0,0,.12A1.63,1.63,0,0,1,360.38,521.91Z" transform="translate(-334.3 -470.92)" fill="#f18500" fill-rule="evenodd"/><path d="M366.89,521.59a1.94,1.94,0,0,0-1.18-1.76,6.26,6.26,0,0,0-5.68,0,2,2,0,0,0-1.17,1.64h0v1a2,2,0,0,0,1.19,1.66,6.26,6.26,0,0,0,5.68,0,2,2,0,0,0,1.17-1.63v-1S366.89,521.55,366.89,521.59Z" transform="translate(-334.3 -470.92)" fill="#f18700" fill-rule="evenodd"/><path d="M365.71,519.91a6.26,6.26,0,0,0-5.68,0c-1.56.91-1.55,2.38,0,3.29a6.26,6.26,0,0,0,5.68,0,2,2,0,0,0,1.17-1.64h0s0,0,0,0v0.07s0-.06,0-0.09A2,2,0,0,0,365.71,519.91Z" transform="translate(-334.3 -470.92)" fill="#feec2e" fill-rule="evenodd"/><path d="M365.71,519.82c1.57,0.91,1.58,2.38,0,3.29a6.25,6.25,0,0,1-5.68,0c-1.57-.91-1.58-2.38,0-3.29A6.26,6.26,0,0,1,365.71,519.82Z" transform="translate(-334.3 -470.92)" fill-rule="evenodd" fill="url(#62069786-ae14-4896-a3e6-0de425d01697)"/><path d="M362.9,523.18a4.78,4.78,0,0,1-2.5-.65,1.53,1.53,0,0,1-.84-1.16,1.5,1.5,0,0,1,.82-1.14,5.12,5.12,0,0,1,5,0,1.52,1.52,0,0,1,.84,1.16,1.5,1.5,0,0,1-.82,1.14A4.74,4.74,0,0,1,362.9,523.18Z" transform="translate(-334.3 -470.92)" fill="#f49800" fill-rule="evenodd"/><path d="M360.38,520.48a5.12,5.12,0,0,1,5,0,1.65,1.65,0,0,1,.83,1,0.79,0.79,0,0,0,0-.13,1.52,1.52,0,0,0-.84-1.16,5.12,5.12,0,0,0-5,0,1.5,1.5,0,0,0-.82,1.14,0.79,0.79,0,0,0,0,.12A1.63,1.63,0,0,1,360.38,520.48Z" transform="translate(-334.3 -470.92)" fill="#f18500" fill-rule="evenodd"/><path d="M366.89,520.16a1.94,1.94,0,0,0-1.18-1.76,6.26,6.26,0,0,0-5.68,0,2,2,0,0,0-1.17,1.64h0v1a2,2,0,0,0,1.19,1.66,6.26,6.26,0,0,0,5.68,0,2,2,0,0,0,1.17-1.63v-1S366.89,520.12,366.89,520.16Z" transform="translate(-334.3 -470.92)" fill="#f18700" fill-rule="evenodd"/><path d="M365.71,518.49a6.26,6.26,0,0,0-5.68,0c-1.56.91-1.55,2.38,0,3.29a6.26,6.26,0,0,0,5.68,0,2,2,0,0,0,1.17-1.64h0s0,0,0,0v0.07s0-.06,0-0.09A2,2,0,0,0,365.71,518.49Z" transform="translate(-334.3 -470.92)" fill="#feec2e" fill-rule="evenodd"/><path d="M365.71,518.39c1.57,0.91,1.58,2.38,0,3.29a6.26,6.26,0,0,1-5.68,0c-1.57-.91-1.58-2.38,0-3.29A6.26,6.26,0,0,1,365.71,518.39Z" transform="translate(-334.3 -470.92)" fill-rule="evenodd" fill="url(#f231967c-7c82-4a77-921e-404b52d55701)"/><path d="M362.9,521.75a4.78,4.78,0,0,1-2.5-.65,1.52,1.52,0,0,1-.84-1.16,1.5,1.5,0,0,1,.82-1.14,5.12,5.12,0,0,1,5,0,1.53,1.53,0,0,1,.84,1.16,1.5,1.5,0,0,1-.82,1.14A4.74,4.74,0,0,1,362.9,521.75Z" transform="translate(-334.3 -470.92)" fill="#f49800" fill-rule="evenodd"/><path d="M360.38,519a5.12,5.12,0,0,1,5,0,1.65,1.65,0,0,1,.83,1,0.79,0.79,0,0,0,0-.13,1.53,1.53,0,0,0-.84-1.16,5.12,5.12,0,0,0-5,0,1.5,1.5,0,0,0-.82,1.14,0.8,0.8,0,0,0,0,.12A1.63,1.63,0,0,1,360.38,519Z" transform="translate(-334.3 -470.92)" fill="#f18500" fill-rule="evenodd"/><path d="M366.89,518.73a1.94,1.94,0,0,0-1.18-1.76,6.26,6.26,0,0,0-5.68,0,2,2,0,0,0-1.17,1.64h0v1a2,2,0,0,0,1.19,1.66,6.26,6.26,0,0,0,5.68,0,2,2,0,0,0,1.17-1.63v-1S366.89,518.69,366.89,518.73Z" transform="translate(-334.3 -470.92)" fill="#f18700" fill-rule="evenodd"/><path d="M365.71,517.06a6.26,6.26,0,0,0-5.68,0c-1.56.91-1.55,2.38,0,3.29a6.26,6.26,0,0,0,5.68,0,2,2,0,0,0,1.17-1.64h0s0,0,0,0v0.07s0-.06,0-0.09A2,2,0,0,0,365.71,517.06Z" transform="translate(-334.3 -470.92)" fill="#feec2e" fill-rule="evenodd"/><path d="M365.71,517c1.57,0.91,1.58,2.38,0,3.29a6.25,6.25,0,0,1-5.68,0c-1.57-.91-1.58-2.38,0-3.29A6.26,6.26,0,0,1,365.71,517Z" transform="translate(-334.3 -470.92)" fill-rule="evenodd" fill="url(#c0809251-4be9-4075-b539-6dd1a30cf534)"/><path d="M362.9,520.32a4.78,4.78,0,0,1-2.5-.65,1.53,1.53,0,0,1-.84-1.16,1.5,1.5,0,0,1,.82-1.14,5.12,5.12,0,0,1,5,0,1.52,1.52,0,0,1,.84,1.16,1.5,1.5,0,0,1-.82,1.14A4.74,4.74,0,0,1,362.9,520.32Z" transform="translate(-334.3 -470.92)" fill="#f49800" fill-rule="evenodd"/><path d="M360.38,517.62a5.12,5.12,0,0,1,5,0,1.65,1.65,0,0,1,.83,1,0.8,0.8,0,0,0,0-.13,1.52,1.52,0,0,0-.84-1.16,5.12,5.12,0,0,0-5,0,1.5,1.5,0,0,0-.82,1.14,0.78,0.78,0,0,0,0,.12A1.63,1.63,0,0,1,360.38,517.62Z" transform="translate(-334.3 -470.92)" fill="#f18500" fill-rule="evenodd"/><path d="M361.56,527.55a2,2,0,0,0-1.18-1.76,6.26,6.26,0,0,0-5.68,0,2,2,0,0,0-1.17,1.64h0v1a2,2,0,0,0,1.19,1.66,6.26,6.26,0,0,0,5.68,0,2,2,0,0,0,1.17-1.63v-1S361.57,527.52,361.56,527.55Z" transform="translate(-334.3 -470.92)" fill="#f18700" fill-rule="evenodd"/><path d="M360.39,525.88a6.26,6.26,0,0,0-5.68,0c-1.56.91-1.55,2.38,0,3.29a6.26,6.26,0,0,0,5.68,0,2,2,0,0,0,1.17-1.64h0s0,0,0,0v0.07s0-.06,0-0.09A2,2,0,0,0,360.39,525.88Z" transform="translate(-334.3 -470.92)" fill="#feec2e" fill-rule="evenodd"/><path d="M360.39,525.79c1.57,0.91,1.58,2.38,0,3.29a6.26,6.26,0,0,1-5.68,0c-1.57-.91-1.58-2.38,0-3.29A6.26,6.26,0,0,1,360.39,525.79Z" transform="translate(-334.3 -470.92)" fill-rule="evenodd" fill="url(#370ddec9-9f63-45c0-9c0f-f3e4106e7883)"/><path d="M357.57,529.15a4.78,4.78,0,0,1-2.5-.65,1.53,1.53,0,0,1-.84-1.16,1.5,1.5,0,0,1,.82-1.14,5.12,5.12,0,0,1,5,0,1.53,1.53,0,0,1,.84,1.16,1.5,1.5,0,0,1-.82,1.14A4.74,4.74,0,0,1,357.57,529.15Z" transform="translate(-334.3 -470.92)" fill="#f49800" fill-rule="evenodd"/><path d="M355.06,526.45a4.74,4.74,0,0,1,2.49-.65,4.79,4.79,0,0,1,2.5.65,1.65,1.65,0,0,1,.83,1,0.78,0.78,0,0,0,0-.13,1.53,1.53,0,0,0-.84-1.16,5.12,5.12,0,0,0-5,0,1.5,1.5,0,0,0-.82,1.14,0.83,0.83,0,0,0,0,.12A1.63,1.63,0,0,1,355.06,526.45Z" transform="translate(-334.3 -470.92)" fill="#f18500" fill-rule="evenodd"/><path d="M361.56,526.13a2,2,0,0,0-1.18-1.76,6.26,6.26,0,0,0-5.68,0,2,2,0,0,0-1.17,1.64h0v1a2,2,0,0,0,1.19,1.66,6.26,6.26,0,0,0,5.68,0,2,2,0,0,0,1.17-1.63v-1S361.57,526.09,361.56,526.13Z" transform="translate(-334.3 -470.92)" fill="#f18700" fill-rule="evenodd"/><path d="M360.39,524.45a6.26,6.26,0,0,0-5.68,0c-1.56.91-1.55,2.38,0,3.29a6.26,6.26,0,0,0,5.68,0,2,2,0,0,0,1.17-1.64h0s0,0,0,0v0.07s0-.06,0-0.09A2,2,0,0,0,360.39,524.45Z" transform="translate(-334.3 -470.92)" fill="#feec2e" fill-rule="evenodd"/><path d="M360.39,524.36c1.57,0.91,1.58,2.38,0,3.29a6.26,6.26,0,0,1-5.68,0c-1.57-.91-1.58-2.38,0-3.29A6.26,6.26,0,0,1,360.39,524.36Z" transform="translate(-334.3 -470.92)" fill-rule="evenodd" fill="url(#6c3b620f-faca-4e2d-89dd-7ba4122092db)"/><path d="M357.57,527.72a4.78,4.78,0,0,1-2.5-.65,1.53,1.53,0,0,1-.84-1.16,1.5,1.5,0,0,1,.82-1.14,5.12,5.12,0,0,1,5,0,1.53,1.53,0,0,1,.84,1.16,1.5,1.5,0,0,1-.82,1.14A4.74,4.74,0,0,1,357.57,527.72Z" transform="translate(-334.3 -470.92)" fill="#f49800" fill-rule="evenodd"/><path d="M355.06,525a5.12,5.12,0,0,1,5,0,1.65,1.65,0,0,1,.83,1,0.78,0.78,0,0,0,0-.13,1.53,1.53,0,0,0-.84-1.16,5.12,5.12,0,0,0-5,0,1.5,1.5,0,0,0-.82,1.14,0.83,0.83,0,0,0,0,.12A1.63,1.63,0,0,1,355.06,525Z" transform="translate(-334.3 -470.92)" fill="#f18500" fill-rule="evenodd"/><path d="M361.56,524.7a2,2,0,0,0-1.18-1.76,6.26,6.26,0,0,0-5.68,0,2,2,0,0,0-1.17,1.64h0v1a2,2,0,0,0,1.19,1.66,6.26,6.26,0,0,0,5.68,0,2,2,0,0,0,1.17-1.63v-1S361.57,524.66,361.56,524.7Z" transform="translate(-334.3 -470.92)" fill="#f18700" fill-rule="evenodd"/><path d="M360.39,523a6.26,6.26,0,0,0-5.68,0c-1.56.91-1.55,2.38,0,3.29a6.26,6.26,0,0,0,5.68,0,2,2,0,0,0,1.17-1.64h0s0,0,0,0v0.07s0-.06,0-0.09A2,2,0,0,0,360.39,523Z" transform="translate(-334.3 -470.92)" fill="#feec2e" fill-rule="evenodd"/><path d="M360.39,522.93c1.57,0.91,1.58,2.38,0,3.29a6.26,6.26,0,0,1-5.68,0c-1.57-.91-1.58-2.38,0-3.29A6.26,6.26,0,0,1,360.39,522.93Z" transform="translate(-334.3 -470.92)" fill-rule="evenodd" fill="url(#7dd9bc4b-346b-444e-9998-c2a339e980b1)"/><path d="M357.57,526.29a4.78,4.78,0,0,1-2.5-.65,1.53,1.53,0,0,1-.84-1.16,1.5,1.5,0,0,1,.82-1.14,4.73,4.73,0,0,1,2.49-.65,4.78,4.78,0,0,1,2.5.65,1.53,1.53,0,0,1,.84,1.16,1.5,1.5,0,0,1-.82,1.14A4.73,4.73,0,0,1,357.57,526.29Z" transform="translate(-334.3 -470.92)" fill="#f49800" fill-rule="evenodd"/><path d="M355.06,523.59a4.74,4.74,0,0,1,2.49-.65,4.79,4.79,0,0,1,2.5.65,1.65,1.65,0,0,1,.83,1,0.77,0.77,0,0,0,0-.13,1.53,1.53,0,0,0-.84-1.16,4.78,4.78,0,0,0-2.5-.65,4.73,4.73,0,0,0-2.49.65,1.5,1.5,0,0,0-.82,1.14,0.83,0.83,0,0,0,0,.12A1.63,1.63,0,0,1,355.06,523.59Z" transform="translate(-334.3 -470.92)" fill="#f18500" fill-rule="evenodd"/><path d="M361.56,523.27a2,2,0,0,0-1.18-1.76,6.26,6.26,0,0,0-5.68,0,2,2,0,0,0-1.17,1.64h0v1a2,2,0,0,0,1.19,1.66,6.25,6.25,0,0,0,5.68,0,2,2,0,0,0,1.17-1.63v-1S361.57,523.23,361.56,523.27Z" transform="translate(-334.3 -470.92)" fill="#f18700" fill-rule="evenodd"/><path d="M360.39,521.59a6.26,6.26,0,0,0-5.68,0c-1.56.91-1.55,2.38,0,3.29a6.26,6.26,0,0,0,5.68,0,2,2,0,0,0,1.17-1.64h0s0,0,0,0v0.07s0-.06,0-0.09A2,2,0,0,0,360.39,521.59Z" transform="translate(-334.3 -470.92)" fill="#feec2e" fill-rule="evenodd"/><path d="M360.39,521.5c1.57,0.91,1.58,2.38,0,3.29a6.25,6.25,0,0,1-5.68,0c-1.57-.91-1.58-2.38,0-3.29A6.26,6.26,0,0,1,360.39,521.5Z" transform="translate(-334.3 -470.92)" fill-rule="evenodd" fill="url(#5e44c684-c0da-435e-88cf-e1d607dca4c6)"/><path d="M357.57,524.86a4.78,4.78,0,0,1-2.5-.65,1.53,1.53,0,0,1-.84-1.16,1.5,1.5,0,0,1,.82-1.14,5.12,5.12,0,0,1,5,0,1.53,1.53,0,0,1,.84,1.16,1.5,1.5,0,0,1-.82,1.14A4.73,4.73,0,0,1,357.57,524.86Z" transform="translate(-334.3 -470.92)" fill="#f49800" fill-rule="evenodd"/><path d="M355.06,522.16a5.12,5.12,0,0,1,5,0,1.65,1.65,0,0,1,.83,1,0.78,0.78,0,0,0,0-.13,1.53,1.53,0,0,0-.84-1.16,5.12,5.12,0,0,0-5,0,1.5,1.5,0,0,0-.82,1.14,0.82,0.82,0,0,0,0,.12A1.63,1.63,0,0,1,355.06,522.16Z" transform="translate(-334.3 -470.92)" fill="#f18500" fill-rule="evenodd"/><path d="M370.21,529a1.94,1.94,0,0,0-1.18-1.76,6.26,6.26,0,0,0-5.68,0,2,2,0,0,0-1.17,1.64h0v1a2,2,0,0,0,1.19,1.66,6.26,6.26,0,0,0,5.68,0,2,2,0,0,0,1.17-1.63v-1S370.21,529,370.21,529Z" transform="translate(-334.3 -470.92)" fill="#f18700" fill-rule="evenodd"/><path d="M369,527.36a6.26,6.26,0,0,0-5.68,0c-1.56.91-1.55,2.38,0,3.29a6.26,6.26,0,0,0,5.68,0,2,2,0,0,0,1.17-1.64h0s0,0,0,0V529s0-.06,0-0.09A2,2,0,0,0,369,527.36Z" transform="translate(-334.3 -470.92)" fill="#feec2e" fill-rule="evenodd"/><path d="M369,527.27c1.57,0.91,1.58,2.38,0,3.29a6.26,6.26,0,0,1-5.68,0c-1.57-.91-1.58-2.38,0-3.29A6.26,6.26,0,0,1,369,527.27Z" transform="translate(-334.3 -470.92)" fill-rule="evenodd" fill="url(#fa32ca79-9e8e-4353-9b9b-54b7996231c1)"/><path d="M366.22,530.62a4.78,4.78,0,0,1-2.5-.65,1.53,1.53,0,0,1-.84-1.16,1.5,1.5,0,0,1,.82-1.14,5.12,5.12,0,0,1,5,0,1.53,1.53,0,0,1,.84,1.16,1.5,1.5,0,0,1-.82,1.14A4.73,4.73,0,0,1,366.22,530.62Z" transform="translate(-334.3 -470.92)" fill="#f49800" fill-rule="evenodd"/><path d="M363.7,527.92a5.12,5.12,0,0,1,5,0,1.64,1.64,0,0,1,.83,1,0.77,0.77,0,0,0,0-.13,1.53,1.53,0,0,0-.84-1.16,5.12,5.12,0,0,0-5,0,1.5,1.5,0,0,0-.82,1.14,0.79,0.79,0,0,0,0,.12A1.62,1.62,0,0,1,363.7,527.92Z" transform="translate(-334.3 -470.92)" fill="#f18500" fill-rule="evenodd"/><path d="M370.21,527.6a1.94,1.94,0,0,0-1.18-1.76,6.26,6.26,0,0,0-5.68,0,2,2,0,0,0-1.17,1.64h0v1a2,2,0,0,0,1.19,1.66,6.26,6.26,0,0,0,5.68,0,2,2,0,0,0,1.17-1.63v-1S370.21,527.56,370.21,527.6Z" transform="translate(-334.3 -470.92)" fill="#f18700" fill-rule="evenodd"/><path d="M369,525.93a6.26,6.26,0,0,0-5.68,0c-1.56.91-1.55,2.38,0,3.29a6.26,6.26,0,0,0,5.68,0,2,2,0,0,0,1.17-1.64h0s0,0,0,0v0.07s0-.06,0-0.09A2,2,0,0,0,369,525.93Z" transform="translate(-334.3 -470.92)" fill="#feec2e" fill-rule="evenodd"/><path d="M369,525.84c1.57,0.91,1.58,2.38,0,3.29a6.26,6.26,0,0,1-5.68,0c-1.57-.91-1.58-2.38,0-3.29A6.26,6.26,0,0,1,369,525.84Z" transform="translate(-334.3 -470.92)" fill-rule="evenodd" fill="url(#a9ed2cc1-ea8a-4ea8-93f9-cb4b9017e628)"/><path d="M366.22,529.19a4.78,4.78,0,0,1-2.5-.65,1.53,1.53,0,0,1-.84-1.16,1.5,1.5,0,0,1,.82-1.14,5.12,5.12,0,0,1,5,0,1.53,1.53,0,0,1,.84,1.16,1.5,1.5,0,0,1-.82,1.14A4.74,4.74,0,0,1,366.22,529.19Z" transform="translate(-334.3 -470.92)" fill="#f49800" fill-rule="evenodd"/><path d="M363.7,526.49a4.73,4.73,0,0,1,2.49-.65,4.78,4.78,0,0,1,2.5.65,1.64,1.64,0,0,1,.83,1,0.76,0.76,0,0,0,0-.13,1.53,1.53,0,0,0-.84-1.16,5.12,5.12,0,0,0-5,0,1.5,1.5,0,0,0-.82,1.14,0.78,0.78,0,0,0,0,.12A1.62,1.62,0,0,1,363.7,526.49Z" transform="translate(-334.3 -470.92)" fill="#f18500" fill-rule="evenodd"/><path d="M370.21,526.17a1.94,1.94,0,0,0-1.18-1.76,6.26,6.26,0,0,0-5.68,0,2,2,0,0,0-1.17,1.64h0v1a2,2,0,0,0,1.19,1.66,6.26,6.26,0,0,0,5.68,0,2,2,0,0,0,1.17-1.63v-1S370.21,526.13,370.21,526.17Z" transform="translate(-334.3 -470.92)" fill="#f18700" fill-rule="evenodd"/><path d="M369,524.5a6.26,6.26,0,0,0-5.68,0c-1.56.91-1.55,2.38,0,3.29a6.26,6.26,0,0,0,5.68,0,2,2,0,0,0,1.17-1.64h0s0,0,0,0v0.07s0-.06,0-0.09A2,2,0,0,0,369,524.5Z" transform="translate(-334.3 -470.92)" fill="#feec2e" fill-rule="evenodd"/><path d="M369,524.41c1.57,0.91,1.58,2.38,0,3.29a6.26,6.26,0,0,1-5.68,0c-1.57-.91-1.58-2.38,0-3.29A6.26,6.26,0,0,1,369,524.41Z" transform="translate(-334.3 -470.92)" fill-rule="evenodd" fill="url(#87c9fd2f-a670-4f14-811b-29ea925c4329)"/><path d="M366.22,527.76a4.77,4.77,0,0,1-2.5-.65,1.53,1.53,0,0,1-.84-1.16,1.5,1.5,0,0,1,.82-1.14,5.12,5.12,0,0,1,5,0,1.53,1.53,0,0,1,.84,1.16,1.5,1.5,0,0,1-.82,1.14A4.74,4.74,0,0,1,366.22,527.76Z" transform="translate(-334.3 -470.92)" fill="#f49800" fill-rule="evenodd"/><path d="M363.7,525.06a5.12,5.12,0,0,1,5,0,1.64,1.64,0,0,1,.83,1,0.77,0.77,0,0,0,0-.13,1.53,1.53,0,0,0-.84-1.16,5.12,5.12,0,0,0-5,0,1.5,1.5,0,0,0-.82,1.14,0.79,0.79,0,0,0,0,.12A1.63,1.63,0,0,1,363.7,525.06Z" transform="translate(-334.3 -470.92)" fill="#f18500" fill-rule="evenodd"/><path d="M370.21,524.74A1.94,1.94,0,0,0,369,523a6.26,6.26,0,0,0-5.68,0,2,2,0,0,0-1.17,1.64h0v1a2,2,0,0,0,1.19,1.66,6.26,6.26,0,0,0,5.68,0,2,2,0,0,0,1.17-1.63v-1S370.21,524.7,370.21,524.74Z" transform="translate(-334.3 -470.92)" fill="#f18700" fill-rule="evenodd"/><path d="M369,523.07a6.26,6.26,0,0,0-5.68,0c-1.56.91-1.55,2.38,0,3.29a6.26,6.26,0,0,0,5.68,0,2,2,0,0,0,1.17-1.64h0s0,0,0,0v0.07s0-.06,0-0.09A2,2,0,0,0,369,523.07Z" transform="translate(-334.3 -470.92)" fill="#feec2e" fill-rule="evenodd"/><path d="M369,523c1.57,0.91,1.58,2.38,0,3.29a6.25,6.25,0,0,1-5.68,0c-1.57-.91-1.58-2.38,0-3.29A6.26,6.26,0,0,1,369,523Z" transform="translate(-334.3 -470.92)" fill-rule="evenodd" fill="url(#7b66a35d-d019-4b74-9e16-12859cceeec2)"/><path d="M366.22,526.33a4.78,4.78,0,0,1-2.5-.65,1.53,1.53,0,0,1-.84-1.16,1.5,1.5,0,0,1,.82-1.14,5.12,5.12,0,0,1,5,0,1.52,1.52,0,0,1,.84,1.16,1.5,1.5,0,0,1-.82,1.14A4.74,4.74,0,0,1,366.22,526.33Z" transform="translate(-334.3 -470.92)" fill="#f49800" fill-rule="evenodd"/><path d="M363.7,523.63a5.12,5.12,0,0,1,5,0,1.64,1.64,0,0,1,.83,1,0.77,0.77,0,0,0,0-.13,1.52,1.52,0,0,0-.84-1.16,5.12,5.12,0,0,0-5,0,1.5,1.5,0,0,0-.82,1.14,0.78,0.78,0,0,0,0,.12A1.63,1.63,0,0,1,363.7,523.63Z" transform="translate(-334.3 -470.92)" fill="#f18500" fill-rule="evenodd"/><polygon points="54.11 66.24 44.45 60.63 44.44 60.35 54.11 65.96 54.11 66.24" fill="#031f41" fill-rule="evenodd"/><path d="M397.36,530.6l-0.13-.4c-2.3-6.77-3-8.68-3.22-9.09a0.73,0.73,0,0,0-.3-0.33L384,515.17a0.73,0.73,0,0,1,.3.33c0.2,0.41.91,2.32,3.22,9.09l0.13,0.4a2,2,0,0,1-.23.88,1.54,1.54,0,0,1-.5.66l-8.21,4.74,9.67,5.62,8.21-4.74a1.54,1.54,0,0,0,.5-0.66A2,2,0,0,0,397.36,530.6Z" transform="translate(-334.3 -470.92)" fill-rule="evenodd" fill="url(#d732fdf4-ffe5-4815-a98e-4502b021d128)"/><path d="M384.21,514.87l9.67,5.62a2.31,2.31,0,0,0-1.87.28l-9.67-5.62A2.31,2.31,0,0,1,384.21,514.87Z" transform="translate(-334.3 -470.92)" fill="#223963" fill-rule="evenodd"/><polygon points="57.7 50.12 48.03 44.5 48.03 44.22 57.7 49.84 57.7 50.12" fill="#031f41" fill-rule="evenodd"/><path d="M392,520.76c0.07,0,1.71-1,2.22.12,0.29,0.6,1.37,3.67,3.23,9.11l0.13,0.4a2.25,2.25,0,0,1-.26,1.16,2,2,0,0,1-.7.89l-8.21,4.74v-0.28l8.21-4.74a1.54,1.54,0,0,0,.5-0.66,2,2,0,0,0,.23-0.88l-0.13-.4c-2.3-6.77-3-8.68-3.22-9.09-0.45-.95-2-0.08-2-0.07v-0.28Z" transform="translate(-334.3 -470.92)" fill="#223963" fill-rule="evenodd"/><path d="M373.84,481.33l1-.39h0l-1,.39h0Z" transform="translate(-334.3 -470.92)" fill="#223963" fill-rule="evenodd"/><path d="M373.86,481.32l1-.39,0.06,0-1,.39Z" transform="translate(-334.3 -470.92)" fill="#878788" fill-rule="evenodd"/><path d="M373.92,481.31l1-.39h0l-1,.39h0Z" transform="translate(-334.3 -470.92)" fill="#8d8c8c" fill-rule="evenodd"/><path d="M374,481.3l1-.39h0l-1,.39h0Z" transform="translate(-334.3 -470.92)" fill="#919292" fill-rule="evenodd"/><path d="M374,481.3l1-.39h0l-1,.39h0Z" transform="translate(-334.3 -470.92)" fill="#969797" fill-rule="evenodd"/><path d="M374,481.3l1-.39h0l-1,.39h0Z" transform="translate(-334.3 -470.92)" fill="#9d9d9d" fill-rule="evenodd"/><path d="M374.08,481.3l1-.39h0l-1,.39h0Z" transform="translate(-334.3 -470.92)" fill="#a3a3a3" fill-rule="evenodd"/><path d="M374.12,481.31l1-.39h0l-1,.39h0Z" transform="translate(-334.3 -470.92)" fill="#a6a6a7" fill-rule="evenodd"/><path d="M374.15,481.32l1-.39h0l-1,.39h0Z" transform="translate(-334.3 -470.92)" fill="#acacac" fill-rule="evenodd"/><path d="M374.18,481.33l1-.39h0l-1,.39h0Z" transform="translate(-334.3 -470.92)" fill="#b3b3b3" fill-rule="evenodd"/><path d="M374.21,481.34l1-.39h0l-1,.39h0Z" transform="translate(-334.3 -470.92)" fill="#b8b8b9" fill-rule="evenodd"/><path d="M374.25,481.35l1-.39h0l-1,.39h0Z" transform="translate(-334.3 -470.92)" fill="#bcbdbd" fill-rule="evenodd"/><path d="M374.28,481.36l1-.39,0,0-1,.39Z" transform="translate(-334.3 -470.92)" fill="#c2c2c1" fill-rule="evenodd"/><path d="M374.31,481.38l1-.39,0,0-1,.39Z" transform="translate(-334.3 -470.92)" fill="#c6c5c6" fill-rule="evenodd"/><polygon points="76.13 65.03 77.08 64.64 77.08 64.64 76.13 65.03 76.13 65.03" fill="#828283" fill-rule="evenodd"/><path d="M410.43,536l1-.39v0l-1,.39v0Z" transform="translate(-334.3 -470.92)" fill="#b3b3b3" fill-rule="evenodd"/><path d="M410.42,536l1-.39v0l-1,.39v0Z" transform="translate(-334.3 -470.92)" fill="#acacac" fill-rule="evenodd"/><path d="M410.42,536l1-.39v0l-1,.39v0Z" transform="translate(-334.3 -470.92)" fill="#a6a6a7" fill-rule="evenodd"/><path d="M410.41,536.07l1-.39v0l-1,.39v0Z" transform="translate(-334.3 -470.92)" fill="#a3a3a3" fill-rule="evenodd"/><path d="M410.4,536.11l1-.39v0l-1,.39v0Z" transform="translate(-334.3 -470.92)" fill="#9d9d9d" fill-rule="evenodd"/><path d="M410.38,536.15l1-.39,0,0-1,.39Z" transform="translate(-334.3 -470.92)" fill="#969797" fill-rule="evenodd"/><path d="M410.37,536.19l1-.39,0,0-1,.39Z" transform="translate(-334.3 -470.92)" fill="#919292" fill-rule="evenodd"/><path d="M410.35,536.23l1-.39,0,0-1,.39Z" transform="translate(-334.3 -470.92)" fill="#8d8c8c" fill-rule="evenodd"/><path d="M410.32,536.28l1-.39,0,0.05-1,.39Z" transform="translate(-334.3 -470.92)" fill="#878788" fill-rule="evenodd"/><path d="M410.29,536.33l1-.39a0.48,0.48,0,0,1-.2.15l-1,.39A0.48,0.48,0,0,0,410.29,536.33Z" transform="translate(-334.3 -470.92)" fill="#828283" fill-rule="evenodd"/><polygon points="40.03 10.47 40.99 10.08 80.23 32.74 79.28 33.13 40.03 10.47" fill="#d9d9d9" fill-rule="evenodd"/><polygon points="79.9 34.44 80.85 34.05 77.08 64.64 76.13 65.03 79.9 34.44" fill="#c4c4c4" fill-rule="evenodd"/><polygon points="79.28 33.13 80.23 32.74 80.23 32.74 79.28 33.13 79.28 33.13" fill="#c4c4c4" fill-rule="evenodd"/><path d="M413.58,504.05l1-.39,0,0-1,.39Z" transform="translate(-334.3 -470.92)" fill="#cdcdce" fill-rule="evenodd"/><path d="M413.61,504.07l1-.39,0,0-1,.39Z" transform="translate(-334.3 -470.92)" fill="#d1d1d2" fill-rule="evenodd"/><path d="M413.65,504.09l1-.39,0,0-1,.39Z" transform="translate(-334.3 -470.92)" fill="#d7d7d8" fill-rule="evenodd"/><path d="M413.68,504.12l1-.39,0,0-1,.39Z" transform="translate(-334.3 -470.92)" fill="#dbdcdc" fill-rule="evenodd"/><path d="M413.71,504.14l1-.39,0,0-1,.39Z" transform="translate(-334.3 -470.92)" fill="#e1e1e0" fill-rule="evenodd"/><path d="M413.74,504.17l1-.39,0,0-1,.39Z" transform="translate(-334.3 -470.92)" fill="#e7e7e6" fill-rule="evenodd"/><path d="M413.78,504.2l1-.39,0,0-1,.39Z" transform="translate(-334.3 -470.92)" fill="#ececec" fill-rule="evenodd"/><path d="M413.82,504.24l1-.39,0,0-1,.39Z" transform="translate(-334.3 -470.92)" fill="#f0f0f1" fill-rule="evenodd"/><path d="M413.86,504.28l1-.39,0,0.05-1,.39Z" transform="translate(-334.3 -470.92)" fill="#f6f6f5" fill-rule="evenodd"/><path d="M413.9,504.34l1-.39,0,0.06-1,.39Z" transform="translate(-334.3 -470.92)" fill="#fbfaf9" fill-rule="evenodd"/><path d="M413.94,504.4l1-.39,0.07,0.11-1,.39Z" transform="translate(-334.3 -470.92)" fill="#fff" fill-rule="evenodd"/><path d="M414,504.51l1-.39,0.06,0.11-1,.39Z" transform="translate(-334.3 -470.92)" fill="#fff" fill-rule="evenodd"/><path d="M414.07,504.62l1-.39,0,0.1-1,.39Z" transform="translate(-334.3 -470.92)" fill="#fff" fill-rule="evenodd"/><path d="M414.11,504.72l1-.39,0,0.07-1,.39Z" transform="translate(-334.3 -470.92)" fill="#fbfaf9" fill-rule="evenodd"/><path d="M414.14,504.79l1-.39,0,0.06-1,.39Z" transform="translate(-334.3 -470.92)" fill="#f6f6f5" fill-rule="evenodd"/><path d="M414.15,504.85l1-.39v0.05l-1,.39v-0.05Z" transform="translate(-334.3 -470.92)" fill="#f0f0f1" fill-rule="evenodd"/><path d="M414.17,504.9l1-.39v0l-1,.39v0Z" transform="translate(-334.3 -470.92)" fill="#ececec" fill-rule="evenodd"/><path d="M414.18,504.95l1-.39v0l-1,.39v0Z" transform="translate(-334.3 -470.92)" fill="#e7e7e6" fill-rule="evenodd"/><path d="M414.19,505l1-.39v0l-1,.39v0Z" transform="translate(-334.3 -470.92)" fill="#e1e1e0" fill-rule="evenodd"/><path d="M414.2,505l1-.39v0l-1,.39v0Z" transform="translate(-334.3 -470.92)" fill="#dbdcdc" fill-rule="evenodd"/><path d="M414.2,505.09l1-.39v0l-1,.39v0Z" transform="translate(-334.3 -470.92)" fill="#d7d7d8" fill-rule="evenodd"/><path d="M414.21,505.13l1-.39v0l-1,.39v0Z" transform="translate(-334.3 -470.92)" fill="#d1d1d2" fill-rule="evenodd"/><path d="M414.21,505.17l1-.39v0l-1,.39v0Z" transform="translate(-334.3 -470.92)" fill="#cdcdce" fill-rule="evenodd"/><path d="M414.21,505.21l1-.39s0,0,0,0l-1,.39v0Z" transform="translate(-334.3 -470.92)" fill="#c6c5c6" fill-rule="evenodd"/><path d="M414.21,505.25l1-.39v0l-1,.39v0Z" transform="translate(-334.3 -470.92)" fill="#c2c2c1" fill-rule="evenodd"/><path d="M414.21,505.29l1-.39v0l-1,.39v0Z" transform="translate(-334.3 -470.92)" fill="#bcbdbd" fill-rule="evenodd"/><path d="M414.2,505.33l1-.39v0l-1,.39v0Z" transform="translate(-334.3 -470.92)" fill="#b8b8b9" fill-rule="evenodd"/><path d="M413.58,504.05L374.34,481.4a0.54,0.54,0,0,0-.84.47l-3.77,30.59a1.43,1.43,0,0,0,.62,1.31l39.24,22.66a0.54,0.54,0,0,0,.84-0.47l3.77-30.59A1.42,1.42,0,0,0,413.58,504.05Z" transform="translate(-334.3 -470.92)" fill-rule="evenodd" fill="url(#252fad3e-eee0-4c68-b303-6ce7acc90727)"/><polygon points="35.79 38.56 76.5 62.06 79.62 36.72 38.91 13.22 35.79 38.56" fill-rule="evenodd" fill="url(#1730907d-6602-4adc-bd39-64ecf219614c)"/><polygon points="47.21 49.3 60.2 56.8 60.2 45.99 47.21 45.99 47.21 49.3" fill="#b6c2da" fill-rule="evenodd" style="mix-blend-mode:multiply"/><path d="M394.55,516.78a0.49,0.49,0,0,0-.3-0.46l-11-6.35a1.6,1.6,0,0,0-1.45,0l-18.55,10.78a0.51,0.51,0,0,0-.3.42h0v0.56a0.52,0.52,0,0,0,.3.42l11,6.35a1.6,1.6,0,0,0,1.45,0l18.55-10.78a0.51,0.51,0,0,0,.3-0.42v-0.56A0.32,0.32,0,0,1,394.55,516.78Z" transform="translate(-334.3 -470.92)" fill="#ef7c00" fill-rule="evenodd"/><path d="M394.25,516.32a0.44,0.44,0,0,1,0,.84l-18.55,10.78a1.6,1.6,0,0,1-1.45,0l-11-6.35a0.44,0.44,0,0,1,0-.84L381.79,510a1.6,1.6,0,0,1,1.45,0Z" transform="translate(-334.3 -470.92)" fill-rule="evenodd" fill="url(#c679930e-0c3f-4d0d-865e-483403abf405)"/><path d="M377.92,523a2.78,2.78,0,0,0-2.52,0l-1.87,1.09a0.77,0.77,0,0,0,0,1.46,2.77,2.77,0,0,0,2.52,0l1.87-1.09A0.77,0.77,0,0,0,377.92,523Z" transform="translate(-334.3 -470.92)" fill-rule="evenodd" fill="url(#dd6ebc59-ec99-417a-91eb-992c59b87ce7)"/><polygon points="29.96 51.25 32.91 52.96 52.91 41.34 49.96 39.63 29.96 51.25" fill-rule="evenodd" fill="url(#2ef03594-013d-4c66-a6b5-ce7f6d5d7d2a)"/><path d="M414.15,494.61l-20.37-11.76-0.58-2.33a3.34,3.34,0,0,0-1.32-1.85L382,473a0.86,0.86,0,0,0-1.32.33L380.12,475l-0.79-.46a0.61,0.61,0,0,0-1,.57v3.84a2.21,2.21,0,0,0,1,1.73l34.82,20.11a0.61,0.61,0,0,0,1-.57v-3.84A2.21,2.21,0,0,0,414.15,494.61Z" transform="translate(-334.3 -470.92)" fill-rule="evenodd" fill="url(#024879fd-bc33-41f5-b8d8-13d07b0ee2bc)"/><path d="M392.14,480.75l0.33-.19a0.21,0.21,0,0,0,0-.27,0.33,0.33,0,0,0-.12-0.13,0.12,0.12,0,0,0-.12,0l-0.33.19-0.32-.56a0.34,0.34,0,0,0-.12-0.13,0.12,0.12,0,0,0-.12,0,0.21,0.21,0,0,0,0,.27l0.32,0.56-0.33.19a0.21,0.21,0,0,0,0,.27,0.34,0.34,0,0,0,.12.13,0.12,0.12,0,0,0,.12,0l0.33-.19,0.32,0.56a0.35,0.35,0,0,0,.12.13,0.12,0.12,0,0,0,.12,0,0.21,0.21,0,0,0,0-.27Z" transform="translate(-334.3 -470.92)" fill-rule="evenodd" fill="url(#691a7605-54e7-4949-914c-936d1c8566dc)"/><polygon points="45.06 5.34 45.05 8.64 79.8 28.7 79.81 25.4 45.06 5.34" fill="#ececec" fill-rule="evenodd" style="mix-blend-mode:multiply"/><path d="M350.88,512.34c-0.38.42-.87,0.27-1.15-0.27-3.21-6.29-12.07-6.38-15.28-12.67a1.75,1.75,0,0,1,.24-1.79l7-7.74c0.38-.42.87-0.27,1.15,0.27,3.21,6.29,12.07,6.38,15.28,12.67a1.75,1.75,0,0,1-.24,1.79Z" transform="translate(-334.3 -470.92)" fill="#57831d" fill-rule="evenodd"/><path d="M355.71,505a2.74,2.74,0,0,1,.16-3.15c-3.35-3.81-9.21-4.87-12.56-8.68a1.51,1.51,0,0,1-2.53-.19l-3.89,4.27a2.75,2.75,0,0,1-.16,3.15c3.35,3.81,9.21,4.87,12.56,8.68a1.52,1.52,0,0,1,2.53.19h0l3.89-4.27h0Zm-11.62-1.44h0a2.49,2.49,0,0,1-.74-4.07,4.47,4.47,0,0,1,5.15-.79,2.49,2.49,0,0,1,.74,4.07A4.47,4.47,0,0,1,344.09,503.53Z" transform="translate(-334.3 -470.92)" fill-rule="evenodd" fill="url(#89557bd6-6331-4d69-bcb2-f65acd0d0753)"/><path d="M421.11,517c0,0.34-.28.47-0.62,0.34-4-1.5-7.94,2-11.91.55A1.05,1.05,0,0,1,408,517v-6.29c0-.34.28-0.47,0.62-0.34,4,1.5,7.94-2,11.91-.55a1.05,1.05,0,0,1,.62.89V517Z" transform="translate(-334.3 -470.92)" fill="#57831d" fill-rule="evenodd"/><path d="M420.28,511.75a1.65,1.65,0,0,1-1.2-1.46c-3-.34-6.06,1.56-9.09,1.22a0.91,0.91,0,0,1-1.2.94v3.47a1.65,1.65,0,0,1,1.2,1.46c3,0.34,6.06-1.56,9.09-1.22a0.91,0.91,0,0,1,1.2-.94h0v-3.47h0Zm-5.75,4.06h0a1.5,1.5,0,0,1-2-1.51,2.68,2.68,0,0,1,2-2.43,1.5,1.5,0,0,1,2,1.51A2.68,2.68,0,0,1,414.54,515.8Z" transform="translate(-334.3 -470.92)" fill-rule="evenodd" fill="url(#8393983a-944c-415b-84be-bbc9e1a180c0)"/><path d="M367.51,499.79l-1.89-.93a0.56,0.56,0,0,0-.52.07,1.53,1.53,0,0,0-.52.53l-1.88,3.1a3.86,3.86,0,0,0-.51,1.67v10.67a0.43,0.43,0,0,0,.71.4l4.42-2.55a1.56,1.56,0,0,0,.71-1.22V500.86a1.27,1.27,0,0,0-.52-1.07h0Zm-2.4,1.51h0a0.32,0.32,0,0,1-.53-0.3,1.15,1.15,0,0,1,.52-0.9,0.32,0.32,0,0,1,.53.3A1.15,1.15,0,0,1,365.11,501.3Z" transform="translate(-334.3 -470.92)" fill-rule="evenodd" fill="url(#a7083a14-9d84-465a-8ed1-1c7cbf5984b0)"/><path d="M417.56,548a4.86,4.86,0,0,1,1.94-.16,2.1,2.1,0,0,0,1.71-.54,1.79,1.79,0,0,0,.38-1.64,3.59,3.59,0,0,1,0-1.79,2.16,2.16,0,0,1,.81-1.3A1.61,1.61,0,0,0,423,541a4.44,4.44,0,0,0-.73-2.13,7,7,0,0,1-.9-2.15,3,3,0,0,1,0-1.81,2.72,2.72,0,0,0-.14-1.9,7.17,7.17,0,0,0-1.31-2.25,10.06,10.06,0,0,1-1.42-2.22,2.73,2.73,0,0,1-1.57.62,1.94,1.94,0,0,0-1.47.77,2,2,0,0,0-.33,1.66,2.81,2.81,0,0,1-.17,1.73,2,2,0,0,1-1.07,1.11,1.51,1.51,0,0,0-.9,1.27,3.32,3.32,0,0,0,.38,2,6,6,0,0,1,.63,2.07,3,3,0,0,1-.17,1.72,2.57,2.57,0,0,0,.19,1.94,7.36,7.36,0,0,0,1.56,2.28,14.6,14.6,0,0,1,1.82,2.17Z" transform="translate(-334.3 -470.92)" fill="#79a8da" fill-rule="evenodd"/><line x1="84.15" y1="58.72" x2="83.1" y2="78.65" fill="none" stroke="#357ec1" stroke-linecap="round" stroke-miterlimit="10" stroke-width="0.5"/><polyline points="80.91 71.56 83.31 74.62 85.91 74.22" fill="none" stroke="#357ec1" stroke-linecap="round" stroke-miterlimit="10" stroke-width="0.5" fill-rule="evenodd"/><polyline points="79.48 66.27 83.49 71.36 87.8 70.7" fill="none" stroke="#357ec1" stroke-linecap="round" stroke-miterlimit="10" stroke-width="0.5" fill-rule="evenodd"/><polyline points="80.72 63.7 83.69 67.48 86.89 66.99" fill="none" stroke="#357ec1" stroke-linecap="round" stroke-miterlimit="10" stroke-width="0.5" fill-rule="evenodd"/><polyline points="81.52 60.67 83.89 63.68 86.44 63.29" fill="none" stroke="#357ec1" stroke-linecap="round" stroke-miterlimit="10" stroke-width="0.5" fill-rule="evenodd"/><polyline points="82.8 59.05 84.05 60.64 85.4 60.43" fill="none" stroke="#357ec1" stroke-linecap="round" stroke-miterlimit="10" stroke-width="0.5" fill-rule="evenodd"/><path d="M408.58,551.38a3.22,3.22,0,0,1,1.29-.11,1.4,1.4,0,0,0,1.14-.36,1.19,1.19,0,0,0,.25-1.09,2.39,2.39,0,0,1,0-1.19,1.44,1.44,0,0,1,.54-0.87,1.07,1.07,0,0,0,.38-1,2.94,2.94,0,0,0-.48-1.42,4.62,4.62,0,0,1-.59-1.43,2,2,0,0,1,0-1.2,1.81,1.81,0,0,0-.09-1.26,4.77,4.77,0,0,0-.87-1.49,6.69,6.69,0,0,1-.95-1.47,1.82,1.82,0,0,1-1,.41,1.29,1.29,0,0,0-1,.51,1.35,1.35,0,0,0-.22,1.1,1.87,1.87,0,0,1-.11,1.15,1.36,1.36,0,0,1-.71.74,1,1,0,0,0-.6.84,2.2,2.2,0,0,0,.25,1.34,4,4,0,0,1,.42,1.37,2,2,0,0,1-.11,1.14,1.7,1.7,0,0,0,.13,1.29,4.88,4.88,0,0,0,1,1.51,9.77,9.77,0,0,1,1.21,1.44Z" transform="translate(-334.3 -470.92)" fill="#79a8da" fill-rule="evenodd"/><line x1="74.87" y1="68.28" x2="74.17" y2="81.52" fill="none" stroke="#357ec1" stroke-linecap="round" stroke-miterlimit="10" stroke-width="0.5"/><polyline points="72.71 76.81 74.31 78.84 76.04 78.57" fill="none" stroke="#357ec1" stroke-linecap="round" stroke-miterlimit="10" stroke-width="0.5" fill-rule="evenodd"/><polyline points="71.77 73.29 74.43 76.67 77.3 76.23" fill="none" stroke="#357ec1" stroke-linecap="round" stroke-miterlimit="10" stroke-width="0.5" fill-rule="evenodd"/><polyline points="72.59 71.59 74.56 74.1 76.69 73.77" fill="none" stroke="#357ec1" stroke-linecap="round" stroke-miterlimit="10" stroke-width="0.5" fill-rule="evenodd"/><polyline points="73.12 69.57 74.7 71.58 76.39 71.31" fill="none" stroke="#357ec1" stroke-linecap="round" stroke-miterlimit="10" stroke-width="0.5" fill-rule="evenodd"/><polyline points="73.97 68.49 74.81 69.55 75.7 69.42" fill="none" stroke="#357ec1" stroke-linecap="round" stroke-miterlimit="10" stroke-width="0.5" fill-rule="evenodd"/><text transform="matrix(0.95, 0.54, -0.01, 1, 47.06, 9.78)" font-size="1.92" fill="#3f4552" font-family="Open Sans">www.empoweryouth.in</text></g></g></svg>