<?xml version="1.0" encoding="UTF-8"?>
<!DOCTYPE svg PUBLIC "-//W3C//DTD SVG 1.1//EN" "http://www.w3.org/Graphics/SVG/1.1/DTD/svg11.dtd">
<!-- Creator: CorelDRAW X7 -->
<svg xmlns="http://www.w3.org/2000/svg" xml:space="preserve" width="42.3066mm" height="42.3064mm" version="1.1" style="shape-rendering:geometricPrecision; text-rendering:geometricPrecision; image-rendering:optimizeQuality; fill-rule:evenodd; clip-rule:evenodd"
viewBox="0 0 1526 1526"
 xmlns:xlink="http://www.w3.org/1999/xlink">
 <defs>
  <style type="text/css">
   <![CDATA[
    .fil21 {fill:none}
    .fil4 {fill:#FEFEFE}
    .fil20 {fill:#FEFEFE}
    .fil12 {fill:#EC627B}
    .fil11 {fill:#E65875}
    .fil10 {fill:#EDBA9C}
    .fil15 {fill:#E9B18E}
    .fil0 {fill:#E6E6F4}
    .fil1 {fill:#DDDDEF}
    .fil6 {fill:#C5C7E5}
    .fil9 {fill:#7EAADB}
    .fil2 {fill:#7BA9DA}
    .fil7 {fill:#828EC4}
    .fil19 {fill:#818CC1}
    .fil3 {fill:#3D80C2}
    .fil8 {fill:#544593}
    .fil13 {fill:#504392}
    .fil5 {fill:#4D4694}
    .fil17 {fill:#46435C}
    .fil14 {fill:#393A46}
    .fil16 {fill:#3A3545}
    .fil18 {fill:#3B374C}
    .fil28 {fill:#00A0E3;fill-rule:nonzero}
    .fil29 {fill:#FF7803;fill-rule:nonzero}
    .fil25 {fill:url(#id0)}
    .fil22 {fill:url(#id1)}
    .fil24 {fill:url(#id2)}
    .fil23 {fill:url(#id3)}
    .fil26 {fill:url(#id4)}
    .fil27 {fill:url(#id5)}
   ]]>
  </style>
  <linearGradient id="id0" gradientUnits="userSpaceOnUse" x1="615.973" y1="426.952" x2="594.792" y2="421.909">
   <stop offset="0" style="stop-opacity:1; stop-color:#028CB1"/>
   <stop offset="1" style="stop-opacity:1; stop-color:#38CCF5"/>
  </linearGradient>
  <linearGradient id="id1" gradientUnits="userSpaceOnUse" x1="557.162" y1="432.085" x2="585.312" y2="403.527">
   <stop offset="0" style="stop-opacity:1; stop-color:#028CB1"/>
   <stop offset="1" style="stop-opacity:1; stop-color:#81DDF7"/>
  </linearGradient>
  <linearGradient id="id2" gradientUnits="userSpaceOnUse" x1="566.548" y1="410.806" x2="638.38" y2="477.192">
   <stop offset="0" style="stop-opacity:1; stop-color:#F7AE6B"/>
   <stop offset="1" style="stop-opacity:1; stop-color:#FF7803"/>
  </linearGradient>
  <linearGradient id="id3" gradientUnits="userSpaceOnUse" x1="620.936" y1="471.024" x2="632.201" y2="473.35">
   <stop offset="0" style="stop-opacity:1; stop-color:#FDE7D3"/>
   <stop offset="0.631373" style="stop-opacity:1; stop-color:#F1AB7A"/>
   <stop offset="1" style="stop-opacity:1; stop-color:#E46F20"/>
  </linearGradient>
  <linearGradient id="id4" gradientUnits="userSpaceOnUse" x1="604.157" y1="408.253" x2="614.727" y2="415.364">
   <stop offset="0" style="stop-opacity:1; stop-color:#018AAF"/>
   <stop offset="1" style="stop-opacity:1; stop-color:#40D6FF"/>
  </linearGradient>
  <linearGradient id="id5" gradientUnits="userSpaceOnUse" x1="544.407" y1="460.202" x2="560.91" y2="429.145">
   <stop offset="0" style="stop-opacity:1; stop-color:#038DB2"/>
   <stop offset="0.184314" style="stop-opacity:1; stop-color:#038DB2"/>
   <stop offset="0.419608" style="stop-opacity:1; stop-color:#73D0E9"/>
   <stop offset="1" style="stop-opacity:1; stop-color:#038DB2"/>
  </linearGradient>
 </defs>
 <g id="Layer_x0020_1">
  <metadata id="CorelCorpID_0Corel-Layer"/>
  <g id="_1684331689616">
   <g>
    <path class="fil0" d="M1270 782c-28,45 -19,103 21,137 16,13 34,28 57,44 59,43 177,103 38,272 -162,199 -605,102 -914,44 -480,-91 -476,-502 -204,-554 219,-41 347,-38 410,-170 144,-300 851,-179 592,227z"/>
    <path class="fil1" d="M1433 1037c-129,71 -469,22 -539,-271 -31,-131 -115,-190 -217,-209 0,0 1,-1 1,-2 144,-300 851,-179 592,227l0 0c-28,45 -19,103 21,137 16,13 34,28 57,44 26,19 63,41 85,74z"/>
    <path class="fil2" d="M263 1100c-3,1 -72,0 -82,-62 -11,-63 31,-84 11,-153 -20,-69 -52,-86 9,-145 0,0 28,-24 26,-53 -3,-35 52,-82 95,-64 43,19 38,55 10,117 -27,62 7,68 16,86 9,18 26,36 -4,85 -29,49 19,99 -6,145 0,0 -23,35 -75,44z"/>
    <path class="fil3" d="M285 1196c1,-1 2,-2 2,-4 -60,-188 -16,-460 -16,-463 1,-1 0,-3 -2,-3 -2,0 -3,1 -3,2 -1,3 -45,276 15,466 0,1 2,2 4,2l0 0z"/>
    <path class="fil3" d="M258 835l0 0c2,-1 2,-2 1,-4 0,0 -19,-32 -29,-61 0,-1 -2,-2 -3,-2 -2,1 -3,3 -2,4 10,29 29,62 29,62 1,1 3,2 4,1z"/>
    <path class="fil3" d="M255 895l1 -1c13,-13 47,-40 47,-40 1,-1 2,-3 1,-4 -1,-2 -3,-2 -5,-1 -1,1 -34,27 -47,41 -1,1 -1,3 0,4 1,1 2,1 3,1z"/>
    <path class="fil3" d="M254 953l0 -1c1,-1 2,-2 1,-4l-25 -37c-1,-2 -3,-2 -4,-1 -1,1 -2,3 -1,4l25 38c1,1 2,1 4,1z"/>
    <path class="fil0" d="M341 539c0,0 -12,-16 -20,-23 -13,-14 -29,-37 -78,-20 -4,2 -7,3 -11,5 -4,2 -18,2 -32,-10 -22,-20 -30,-35 -60,-36 -35,0 -41,50 -68,62 -17,8 -63,16 -72,20l341 2z"/>
    <path class="fil0" d="M1209 222l3 -2c0,0 -8,-9 -13,-14 -3,-2 -7,-6 -12,-9 -5,-3 -12,-6 -20,-6 -6,0 -13,1 -21,4 -3,1 -6,2 -8,3 0,0 -1,0 -3,0 -3,0 -8,-1 -14,-6 -7,-5 -12,-10 -18,-14 -6,-4 -13,-6 -23,-6l0 0c-6,0 -12,2 -16,5 -6,4 -10,11 -14,17 -5,5 -9,11 -14,13 -6,2 -16,4 -25,6 -5,1 -9,2 -13,3 -4,1 -7,1 -9,2 -1,0 -2,2 -2,3 1,2 2,3 3,3l219 1c1,0 3,-1 3,-2 1,-1 0,-2 0,-3l-3 2 0 -3 -219 -1 0 3 1 3c1,-1 4,-1 8,-2 6,-1 13,-3 20,-4 8,-2 14,-4 19,-6 10,-4 15,-13 21,-21 3,-3 6,-7 9,-9 3,-3 7,-4 12,-4l0 0c9,0 15,2 20,5 5,3 10,8 17,14 7,5 14,7 18,7 2,0 4,0 5,-1 3,-1 5,-2 7,-2 8,-3 14,-4 20,-4 7,0 12,2 17,5 4,3 7,6 11,9 2,2 5,5 8,8 2,2 4,5 4,5l2 -2 0 -3 0 3z"/>
    <path class="fil0" d="M1332 461c0,0 7,-8 11,-12 8,-6 17,-18 45,-10 2,1 4,2 6,3 3,1 10,1 18,-5 13,-10 17,-18 34,-18 20,0 23,25 39,31 10,4 36,8 41,10l-194 1z"/>
    <path class="fil4" d="M1151 540l-2 -6 -2 6c-2,5 -7,9 -12,12 5,3 10,7 12,12l2 6 2 -6c2,-5 6,-9 12,-12 -6,-3 -10,-7 -12,-12z"/>
    <path class="fil4" d="M1277 1058l-2 -6 -2 6c-2,5 -6,9 -12,12 6,3 10,7 12,12l2 6 2 -6c2,-5 6,-9 12,-12 -6,-3 -10,-7 -12,-12z"/>
    <path class="fil4" d="M428 782l-4 -11 -4 11c-3,8 -10,16 -20,20 10,4 17,12 20,20l4 11 4 -11c3,-8 10,-16 20,-20 -10,-4 -17,-12 -20,-20z"/>
    <path class="fil5" d="M375 352c10,-11 16,-27 16,-43 0,-38 -31,-68 -68,-68l-48 0c-38,0 -68,30 -68,68 0,37 30,68 68,68l48 0c11,0 21,-2 30,-7l35 19 -13 -37z"/>
    <path class="fil4" d="M345 302c0,-3 -3,-5 -6,-5l-8 0 -15 0 -4 0c0,0 1,-12 1,-14 0,-2 -5,-15 -5,-15 0,0 -2,-2 -4,-1 -3,1 -4,3 -4,3l1 12c-1,6 -12,20 -12,20l-3 3 0 29 1 2c1,2 3,3 6,3l15 0 23 0 0 0c4,0 6,-3 6,-6 0,-2 -1,-4 -3,-5l0 0c3,0 5,-2 6,-5 0,-2 -2,-4 -4,-5l0 0c3,0 6,-3 6,-6 0,-2 -1,-4 -3,-5l0 0c3,0 6,-2 6,-5z"/>
    <path class="fil4" d="M276 296l-18 0c-3,0 -5,2 -5,4l0 36c0,3 2,5 5,5l18 0c2,0 5,-2 5,-5l0 -36c0,-2 -3,-4 -5,-4z"/>
    <path class="fil6" d="M896 1193l-359 0c-26,0 -48,-21 -48,-47l0 -805c0,-26 22,-48 48,-48l359 0c27,0 48,22 48,48l0 805c0,26 -21,47 -48,47z"/>
    <path class="fil4" d="M870 1098l-308 0c-23,0 -41,-18 -41,-40l0 -655c0,-23 18,-41 41,-41l308 0c22,0 40,18 40,41l0 655c0,22 -18,40 -40,40z"/>
    <path class="fil7" d="M752 1148l-3 0c0,8 -4,17 -9,22 -6,6 -14,10 -23,10 -9,0 -17,-4 -23,-10 -6,-5 -10,-14 -10,-22 0,-9 4,-18 10,-23 6,-6 14,-10 23,-10 9,0 17,4 23,10 5,5 9,14 9,23l3 0 3 0c0,-22 -17,-39 -38,-39 -22,0 -39,17 -39,39 0,21 17,38 39,38 21,0 38,-17 38,-38l-3 0z"/>
    <path class="fil0" d="M828 977l-228 0c-15,0 -27,-12 -27,-27l0 -189c0,-15 12,-26 27,-26l228 0c14,0 26,11 26,26l0 189c0,15 -12,27 -26,27z"/>
    <path class="fil0" d="M828 680l-228 0c-15,0 -27,-12 -27,-27l0 -60c0,-15 12,-27 27,-27l228 0c14,0 26,12 26,27l0 60c0,15 -12,27 -26,27z"/>
    <path class="fil8" d="M769 789l-147 0c-3,0 -5,-3 -5,-5 0,-3 2,-6 5,-6l147 0c3,0 5,3 5,6 0,2 -2,5 -5,5z"/>
    <path class="fil8" d="M721 821l-99 0c-3,0 -5,-2 -5,-5 0,-3 2,-5 5,-5l99 0c3,0 5,2 5,5 0,3 -2,5 -5,5z"/>
    <polygon class="fil8" points="632,843 636,852 647,854 639,861 641,871 632,866 623,871 624,861 617,854 627,852 "/>
    <polygon class="fil8" points="673,843 677,852 688,854 680,861 682,871 673,866 664,871 665,861 658,854 668,852 "/>
    <polygon class="fil8" points="714,843 719,852 729,854 721,861 723,871 714,866 705,871 707,861 699,854 709,852 "/>
    <polygon class="fil9" points="755,843 760,852 770,854 762,861 764,871 755,866 746,871 748,861 740,854 750,852 "/>
    <polygon class="fil9" points="796,843 801,852 811,854 804,861 805,871 796,866 787,871 789,861 781,854 792,852 "/>
    <path class="fil9" d="M800 938l-172 0c-6,0 -11,-5 -11,-11l0 -27c0,-6 5,-11 11,-11l172 0c6,0 11,5 11,11l0 27c0,6 -5,11 -11,11z"/>
    <path class="fil10" d="M966 758l-41 37 -71 -50 -17 15 85 72c3,4 9,4 13,0l49 -44 -18 -30z"/>
    <path class="fil11" d="M997 714c0,0 -3,-2 -44,44l32 43 19 -21 -7 -66z"/>
    <path class="fil10" d="M1089 760l49 31 2 106 21 10 12 -127c2,-4 0,-10 -5,-12l-58 -36 -21 28z"/>
    <path class="fil12" d="M1031 706l-29 6c-7,2 -13,8 -14,16l-19 160 118 -7 8 -152c1,-10 -7,-18 -17,-19l-47 -4z"/>
    <polygon class="fil10" points="1139,1263 1131,1214 1102,1218 1113,1267 "/>
    <polygon class="fil10" points="975,1261 977,1210 949,1209 949,1260 "/>
    <polygon class="fil8" points="969,888 959,936 1094,929 1087,881 "/>
    <polygon class="fil8" points="1025,917 995,1047 987,1245 942,1243 939,1046 962,923 "/>
    <polygon class="fil13" points="1013,959 986,934 1020,933 "/>
    <polygon class="fil8" points="1093,923 1106,1049 1146,1240 1100,1250 1052,1057 1031,917 "/>
    <path class="fil14" d="M949 1260l26 1 -1 39 -80 5c1,-6 5,-11 11,-12l43 -15 1 -18z"/>
    <polygon class="fil6" points="974,1300 894,1305 894,1311 974,1306 "/>
    <path class="fil14" d="M1113 1267l26 -4 7 38 -77 6c0,-6 3,-11 8,-14l39 -8 -3 -18z"/>
    <polygon class="fil6" points="1146,1301 1069,1307 1070,1313 1147,1307 "/>
    <path class="fil15" d="M1036 725l-3 0c-8,0 -14,-7 -14,-15l2 -55 32 1 -2 55c0,8 -7,15 -15,14z"/>
    <path class="fil10" d="M1017 701l-1 0c-22,0 -39,-18 -38,-39l1 -47 79 2 -1 47c-1,21 -19,38 -40,37z"/>
    <path class="fil16" d="M1057 653l-12 0c-3,0 -5,-3 -4,-6 1,-8 3,-22 -2,-24 -8,-2 -48,8 -62,-3 -19,-15 -5,-38 13,-39 17,-1 15,19 35,19 20,0 51,-7 37,46l-5 7z"/>
    <path class="fil10" d="M1063 666c-6,3 -13,0 -16,-6 -3,-6 0,-14 6,-16 6,-3 13,-1 16,6 3,6 0,13 -6,16z"/>
    <path class="fil4" d="M986 670l27 2c0,0 -2,12 -16,10 -11,-2 -11,-12 -11,-12z"/>
    <path class="fil12" d="M1084 711c0,0 6,1 59,33l-24 47 -31 -16 -4 -64z"/>
    <path class="fil17" d="M1077 948l134 0 9 97c0,0 -135,6 -135,4 0,-2 -8,-101 -8,-101z"/>
    <polygon class="fil18" points="1077,948 1062,1038 1085,1049 "/>
    <path class="fil4" d="M1168 965l0 0c-1,0 -2,-1 -2,-2 0,0 2,-28 -8,-39 -3,-3 -6,-4 -9,-4 -3,0 -6,1 -9,3 -11,10 -12,40 -12,40 0,2 -1,3 -3,2 -1,0 -2,-1 -2,-2 0,-1 2,-32 14,-43 4,-3 8,-5 12,-4 5,0 9,2 12,5 11,13 9,41 9,42 0,1 -1,2 -2,2z"/>
    <path class="fil10" d="M820 757c1,10 9,19 20,18 11,0 19,-9 19,-20 -1,-10 -10,-18 -20,-18 -11,0 -19,9 -19,20z"/>
    <path class="fil10" d="M855 745l-29 -22c-2,-1 -5,-1 -6,1 -2,2 -1,5 1,7l28 21c2,2 5,2 7,0 1,-2 1,-5 -1,-7z"/>
    <path class="fil10" d="M1129 914c0,11 9,20 21,20 11,-1 20,-10 19,-21 0,-12 -10,-20 -21,-20 -11,0 -20,10 -19,21z"/>
    <path class="fil19" d="M806 601l-195 0c-2,0 -4,-2 -4,-4 0,-2 2,-4 4,-4l195 0c2,0 4,2 4,4 0,2 -2,4 -4,4z"/>
    <path class="fil19" d="M731 651l-120 0c-2,0 -4,-1 -4,-3 0,-2 2,-4 4,-4l120 0c2,0 4,2 4,4 0,2 -2,3 -4,3z"/>
    <path class="fil19" d="M696 625l-85 0c-2,0 -4,-1 -4,-3 0,-2 2,-4 4,-4l85 0c2,0 4,2 4,4 0,2 -2,3 -4,3z"/>
    <g>
     <rect class="fil20" x="658" y="322" width="92.9341" height="9.29394" rx="5" ry="5"/>
     <circle class="fil20" cx="768" cy="327" r="7"/>
    </g>
   </g>
   <rect class="fil21" width="1526" height="1526"/>
  </g>
  <g id="_1684331659344">
   <g>
    <g>
     <path class="fil22" d="M595 417c-5,-3 -9,-4 -19,-5 -10,-1 -28,2 -28,21 -3,-15 3,-23 14,-28 10,-4 24,-4 33,2l0 10z"/>
     <path class="fil23" d="M624 461c5,-3 15,15 1,22 0,0 -8,-1 -1,-22z"/>
     <path class="fil24" d="M657 426c-1,-45 -35,-17 -43,17 -2,9 -3,17 -3,22l2 13c0,1 0,2 0,2 0,0 6,7 12,3 0,0 -6,-1 0,-23 6,-23 19,-61 32,-34zm-47 39c-4,3 -11,6 -20,9 -16,5 -29,-11 -29,-11 6,19 31,22 31,22 0,0 10,1 19,-6 0,0 1,0 1,0l-2 -14 0 0zm-55 -19c0,0 -12,8 -5,20 8,13 25,17 25,17 0,0 9,2 16,2 0,0 -10,-2 -19,-6 -9,-5 -13,-14 -13,-14 0,0 -2,-5 2,-13l-6 -6z"/>
     <path class="fil25" d="M596 417c-2,-15 4,-19 12,-13 -12,-2 3,24 7,29 0,0 -1,4 -3,14 -7,-6 -14,-20 -16,-30z"/>
     <path class="fil26" d="M606 417c0,0 -1,-6 3,-3 3,3 5,4 5,4 0,0 4,0 -2,-9 -5,-8 -8,-2 -8,-2 0,0 -1,1 2,10z"/>
    </g>
    <path class="fil27" d="M569 436c0,0 17,-5 24,4 0,0 4,8 -4,12 -7,4 -18,0 -18,0 0,0 -26,-7 -21,-24 0,0 1,-7 14,-7 0,0 -11,3 -6,11 0,0 6,8 22,9l-11 -5z"/>
   </g>
   <g>
    <path class="fil28" d="M699 441l0 0c0,0 0,0 0,0 -8,0 -15,0 -23,0 0,0 0,0 0,0 0,0 0,0 0,0 0,0 0,0 0,0 0,0 0,0 0,0 0,-1 0,-3 0,-4 0,-1 0,-2 0,-2 0,-1 0,-1 0,-1 0,0 0,-1 0,-1 0,0 0,-1 0,-2 0,-1 0,-2 0,-3 0,0 0,0 0,-1 0,0 0,-1 0,-1 0,0 0,0 0,0 0,-3 0,-5 0,-7 0,0 0,0 0,-1 0,0 0,0 0,0 0,-1 0,-1 0,-2 0,-1 0,-2 0,-3 0,-1 0,-2 0,-4 0,0 0,-1 0,-1 0,0 0,0 0,0 0,-1 0,-1 0,-2 0,0 0,0 0,0 0,0 0,0 0,0 0,0 0,0 0,0 0,0 0,0 1,0 0,0 0,0 0,0 1,0 2,0 3,-1 1,0 2,0 3,0 0,0 0,0 1,0 0,0 0,0 1,-1 0,0 1,0 1,0 0,0 1,0 1,0 0,0 0,0 0,0 1,0 1,0 2,0 0,0 0,0 0,0 1,0 1,0 1,0 1,0 1,0 1,0 1,-1 1,-1 1,-1 0,0 1,0 1,0 0,0 0,0 1,0 0,0 0,0 0,0 1,0 1,0 1,0 0,0 1,0 1,0 0,0 0,0 1,0 0,0 0,0 1,0 0,0 0,0 0,0 0,0 0,0 1,0 0,-1 0,-1 1,-1 0,0 0,0 0,0 0,0 0,0 0,0 0,0 0,0 0,0 0,0 0,0 0,1 0,0 0,0 0,0 0,0 0,0 0,0 0,0 0,0 0,1 0,2 0,5 0,8 0,0 0,0 0,0 0,0 0,0 0,0 0,0 0,0 -1,0 0,0 0,0 0,0 0,0 0,0 0,0 0,0 -1,0 -1,0 0,0 0,0 0,0 0,0 0,0 0,0 0,0 0,0 0,0 -1,0 -1,0 -1,0 0,0 0,0 -1,0 0,0 0,0 0,0 0,0 0,0 0,0 -1,0 -1,0 -1,0 0,0 0,0 0,0 -1,1 -1,1 -1,1 0,0 -1,0 -1,0 0,0 0,0 0,0 0,0 0,0 0,0 -1,0 -1,0 -1,0 0,0 0,0 0,0 0,0 0,0 -1,0 0,0 0,0 0,0 0,0 -1,0 -1,0 0,0 0,0 0,0 0,0 0,0 -1,0 0,0 0,0 0,0 0,0 0,0 0,0 0,0 0,0 -1,0 0,0 0,0 0,0 0,0 0,0 0,0 -1,0 -1,0 -1,0 0,0 0,0 0,0 0,0 0,0 0,0 0,0 0,0 0,0 0,1 0,2 0,3 0,1 0,1 0,2 0,0 0,0 0,0 0,0 0,0 0,0 0,0 0,0 0,0 0,0 0,1 0,1 0,0 0,0 0,0 0,0 0,0 0,0 0,0 1,0 1,0 1,0 1,0 2,0 0,0 1,0 1,0 1,0 2,0 2,0 1,0 1,0 1,0 1,0 1,0 1,0 0,0 0,0 0,0 0,0 0,0 0,0 0,0 0,0 0,0 0,0 0,0 0,0 0,0 0,0 0,0 0,0 0,0 0,0 0,0 0,1 0,1 0,2 0,3 0,5 0,0 0,0 0,0 0,0 0,0 0,0 0,0 0,0 0,0 0,0 0,0 0,0 0,0 -1,0 -2,0 0,0 -1,0 -1,0 -2,0 -4,0 -6,0 0,0 0,0 0,0 0,0 0,0 0,0 0,0 0,0 0,0 0,0 0,1 0,1 0,0 0,1 0,1 0,1 0,1 0,2 0,0 0,1 0,1 0,1 0,1 0,2 0,0 0,0 0,0 0,0 0,0 0,0 0,0 0,0 0,0 0,0 0,0 0,0 1,0 2,0 4,0 0,0 0,0 0,0 1,0 2,0 3,0 2,0 3,0 4,0 0,0 0,0 0,0 1,-1 1,-1 1,-1 1,0 1,0 2,0 0,0 0,0 0,0 0,0 0,0 0,0 0,0 0,0 0,0 0,0 0,0 0,0 0,0 0,0 0,0 0,0 0,0 0,0 0,4 0,7 -1,10 0,0 0,0 0,0 0,0 0,0 0,0zm27 -20l0 0c0,0 0,0 0,0 0,0 0,0 0,0 0,-1 1,-1 1,-1 0,0 0,0 0,0 0,0 0,0 0,0 1,-1 1,-1 1,-1 2,-2 4,-2 6,-3 0,0 1,0 2,0 1,0 1,0 2,0 1,1 3,1 4,3 0,0 1,1 1,2 0,1 1,2 1,3 0,1 0,2 1,3 0,2 0,4 0,6 0,1 0,2 0,3 0,1 -1,2 -1,3 0,1 0,1 0,2 0,0 0,0 0,0 0,0 0,1 0,1 0,0 0,0 0,0 0,0 0,0 0,0 0,0 0,0 0,0 0,0 0,0 0,0 -1,0 -1,0 -1,0 -1,0 -1,0 -1,0 0,0 -1,0 -1,0 0,0 -1,0 -1,0 0,0 -1,0 -1,0 0,0 0,0 0,0 -1,0 -1,0 -1,0 -1,0 -1,0 -1,0 -1,0 -1,0 -1,0 0,0 0,0 -1,0 0,1 0,1 0,1 0,0 0,-1 0,-1 0,0 0,0 0,-1 0,0 0,-1 1,-2 0,0 0,-1 0,-2 0,-1 0,-2 0,-3 0,0 0,0 0,0 0,0 0,0 0,0 0,0 0,0 0,-1 0,0 0,0 0,0 0,-1 0,-1 0,-2 0,-1 0,-2 0,-4 0,0 0,-1 0,-2 -1,0 -1,-1 -1,-1 0,-1 -1,-1 -1,-1 -1,0 -1,0 -2,0 -1,0 -2,0 -3,1 0,1 -1,2 -1,3 0,1 0,1 0,1 0,1 -1,2 -1,3 0,1 0,2 0,2 0,0 0,0 0,1 0,0 0,1 0,2 0,0 0,0 0,1 0,0 0,0 0,0 0,0 0,0 0,0 0,0 0,1 0,1 0,1 0,2 0,3 0,0 0,0 0,1 0,0 0,0 0,0 0,0 0,0 -1,0 0,0 0,0 0,0 0,0 0,0 -1,0 0,0 0,0 -1,0 0,0 0,0 0,0 0,0 0,0 -1,0 0,0 0,0 -1,0 0,0 0,0 -1,0 0,0 0,0 -1,0 0,0 0,0 0,0 -1,0 -1,0 -1,0 0,0 0,0 -1,0 0,1 0,1 0,0 0,0 0,0 0,0 0,-1 1,-2 1,-4 0,-1 0,-2 0,-3 0,0 0,-1 0,-1 0,0 0,-1 0,-1 0,-1 0,-2 0,-4 0,-1 0,-2 0,-2 0,-1 0,-2 -1,-2 0,-1 0,-1 0,-1 -1,-1 -2,-1 -3,-1 -1,0 -2,0 -2,1 -1,1 -1,1 -1,1 -1,1 -1,2 -1,3 0,1 -1,1 -1,2 0,2 0,5 0,7 0,2 0,3 0,4 0,0 0,1 0,1 0,0 0,0 0,0 -1,0 -1,0 -2,0 -1,0 -2,0 -2,0 -1,0 -1,0 -2,0 0,0 0,0 0,0 0,0 0,0 0,0 0,0 0,0 0,0 -1,0 -2,1 -2,1 0,0 -1,0 -1,0 0,0 0,0 0,-1 0,0 0,0 0,0 0,0 0,0 0,0 0,0 0,0 0,0 0,-8 0,-16 0,-24 0,0 0,0 0,0 0,0 0,0 0,0 0,0 0,0 0,0 0,0 0,-1 0,-1 0,0 0,0 0,0 1,0 2,0 3,0 1,-1 2,-1 3,-1 1,0 1,0 2,0 0,0 0,0 0,0 0,0 0,0 0,0 1,0 1,0 1,0 0,0 0,0 0,0 0,0 0,0 0,0 0,0 0,0 0,0 0,0 0,0 0,0 0,0 -1,0 -1,1 0,0 0,0 0,1 0,0 0,0 0,0 0,1 0,1 0,2 0,0 0,1 0,1 0,0 0,0 0,0 0,0 0,0 0,0 0,0 0,0 0,0 0,0 0,0 0,0 0,0 0,0 0,0 0,0 0,0 0,0 1,0 1,0 1,0 0,-1 0,-1 0,-1 0,0 1,-1 1,-1 0,0 1,-1 1,-1 1,-1 3,-1 4,-2 1,0 2,0 3,0 1,0 2,0 2,0 2,1 3,1 3,2 1,1 1,2 2,2 0,0 0,0 0,0 0,1 0,1 0,1zm20 -1l0 0c0,0 0,0 0,0 1,0 1,0 2,0 0,-1 0,-1 1,-1 0,0 1,0 1,0 1,0 2,-1 2,-1 1,0 1,0 2,0 0,0 0,0 0,0 0,0 0,0 0,0 1,0 1,0 1,0 0,0 0,0 0,1 0,0 0,1 0,1 0,1 0,2 0,2 0,1 0,1 0,1 0,0 0,0 0,0 0,0 0,0 0,0 0,0 0,0 0,0 0,0 0,0 0,0 0,0 0,0 0,0 0,0 0,0 0,0 0,0 0,0 0,0 0,0 0,0 0,0 0,0 0,0 0,0 0,0 1,0 1,-1 0,0 1,-1 2,-2 0,0 1,0 1,0 1,-1 3,-1 4,-1 1,0 2,0 4,0 1,1 3,2 4,4 1,1 1,3 2,4 0,1 0,2 0,3 0,1 0,2 0,3 0,2 0,3 -1,5 -1,1 -2,3 -3,4 -2,0 -3,1 -4,1 -1,0 -2,0 -3,0 -2,0 -4,-1 -5,-2 -1,0 -1,0 -1,0 0,0 0,0 0,0 0,0 0,0 0,0 0,0 0,0 0,0 0,0 0,0 0,0 0,0 0,0 0,0 0,1 0,2 0,3 0,0 0,0 0,0 0,0 0,0 0,1 0,0 0,0 0,1 0,1 0,1 0,2 0,1 0,2 0,3 0,0 0,0 0,1 0,0 0,0 0,0 0,1 0,1 0,1 -1,0 -1,0 -2,-1 0,0 0,0 0,0 0,0 -1,0 -1,0 0,0 0,0 0,0 0,0 0,0 -1,0 0,0 -1,0 -2,0 0,0 -1,0 -2,0 0,0 0,0 -1,0 0,0 0,0 0,0 0,0 -1,0 -1,0 0,0 0,0 0,0 0,0 0,0 0,0 0,0 0,0 0,0 0,0 0,0 0,0 0,0 0,0 0,0 0,0 0,-1 0,-1 0,0 0,0 0,0 0,0 0,-1 0,-1 0,-10 0,-20 0,-29 0,0 0,0 0,0 0,0 0,-1 0,-1zm9 15l0 0c1,1 1,1 2,2 1,0 2,1 4,0 1,0 2,-1 3,-3 1,-1 1,-2 1,-4 -1,-1 -1,-2 -2,-3 -1,-1 -1,-1 -2,-2 -1,0 -2,0 -3,0 -1,0 -2,1 -3,2 0,0 0,1 0,1 0,0 0,0 0,0 0,1 0,1 0,1 0,1 0,2 0,4 0,0 0,1 0,2 0,0 0,0 0,0zm46 -7l0 0c0,3 0,5 -1,8 -1,1 -2,3 -3,4 -1,2 -3,3 -5,4 -1,0 -2,0 -3,0 -1,0 -1,0 -2,0 -1,0 -2,0 -3,0 -3,-1 -6,-3 -8,-6 -2,-2 -3,-4 -3,-6 0,-1 -1,-2 -1,-3 0,0 0,0 0,0 0,-1 0,-1 0,-1 0,-4 1,-7 3,-9 2,-3 4,-4 7,-5 1,0 2,0 3,-1 1,0 2,0 3,0 2,0 4,1 6,2 2,1 3,2 5,4 0,1 1,3 2,4 0,2 0,3 0,4 0,1 0,1 0,1 0,0 0,0 0,0zm-7 0l0 0c0,0 0,0 0,0 0,0 0,0 0,0 0,-1 -1,-1 -1,-1 0,0 0,0 0,0 0,-1 0,-1 0,-2 -1,-1 -2,-2 -3,-3 -2,-1 -3,-1 -4,0 -1,0 -2,0 -3,1 -2,2 -3,4 -3,7 1,1 1,2 2,3 1,1 2,2 3,2 1,1 2,1 2,1 1,0 1,0 1,0 0,0 0,0 0,0 1,-1 1,-1 2,-1 1,-1 2,-2 3,-3 0,-1 1,-2 1,-4z"/>
    <path class="fil28" d="M812 433l0 0c0,0 0,0 0,0 0,0 0,-1 0,-1 0,0 0,-1 0,-1 0,-1 0,-1 0,-2 0,0 0,-1 1,-1 0,-1 0,-1 0,-1 0,-1 0,-1 0,-2 0,0 0,0 0,0 0,-1 0,-1 0,-1 0,-1 0,-1 0,-2 0,0 0,0 0,-1 0,0 0,0 0,-1 1,0 1,0 1,0 0,0 0,-1 0,-2 0,0 0,0 0,-1 0,0 0,0 0,0 0,0 0,0 0,0 0,0 0,0 0,0 0,0 0,0 1,0 0,0 0,0 0,0 1,0 1,0 1,0 0,0 1,0 1,0 0,0 1,0 1,0 0,-1 0,-1 1,-1 1,0 1,0 2,0 0,0 0,0 0,0 0,1 0,1 0,1 1,1 1,2 1,3 1,4 2,7 3,11 0,0 0,0 0,0 0,1 0,1 0,1 0,0 0,0 0,0 0,0 0,0 0,0 0,0 0,0 0,0 0,0 0,0 0,0 0,0 0,0 0,0 0,0 0,-1 0,-1 1,-1 1,-1 1,-2 0,-1 0,-3 1,-4 0,-1 0,-2 0,-3 0,-1 1,-2 1,-3 0,-1 0,-1 0,-2 0,-1 0,-1 0,-2 0,0 1,0 1,0 0,0 0,0 0,0 0,0 0,0 0,0 0,0 0,0 0,0 0,0 0,0 0,0 0,0 0,0 0,0 1,0 1,0 2,0 0,0 1,0 2,0 0,1 1,1 1,1 1,0 1,0 1,0 0,0 1,0 1,0 0,0 0,0 0,0 0,0 0,0 0,0 0,0 0,0 0,0 0,0 0,0 0,0 0,0 0,0 0,1 0,0 0,0 0,0 0,1 0,1 0,2 0,1 -1,3 -1,5 0,1 -1,3 -1,5 -1,4 -2,8 -3,12 0,0 0,0 0,0 0,0 -1,0 -1,0 0,0 0,0 0,0 0,0 -1,0 -1,0 0,0 0,0 0,1 -1,0 -1,0 -1,0 -1,0 -1,0 -1,0 -1,0 -1,0 -1,0 -1,0 -1,0 -1,0 -1,0 -1,0 -2,0 0,0 0,0 0,0 -1,0 -1,0 -1,0 0,0 0,-1 0,-1 0,-2 -1,-5 -1,-8 -1,-1 -1,-3 -2,-4 0,0 0,0 0,0 0,0 0,0 0,-1 0,0 0,0 0,0 0,0 0,0 0,0 0,0 0,0 0,0 0,0 0,0 0,1 0,0 0,0 0,0 0,0 0,0 0,0 0,0 0,1 0,2 0,0 0,0 0,0 0,1 -1,2 -1,3 0,0 0,1 0,1 0,0 0,1 0,1 0,1 0,1 0,2 0,0 0,0 0,1 -1,0 -1,1 -1,1 0,0 0,0 0,1 0,0 0,0 0,0 0,0 0,0 0,0 0,0 0,0 0,0 0,0 0,0 0,0 -1,0 -1,0 -2,1 -1,0 -1,0 -2,0 -1,0 -2,0 -3,0 0,0 -1,0 -1,0 0,1 -1,1 -1,1 0,0 0,0 0,0 0,0 0,0 0,0 0,-1 0,-1 0,-1 -1,0 -1,-1 -1,-1 0,-1 0,-2 -1,-3 -1,-3 -3,-7 -4,-11 -1,-3 -2,-6 -2,-9 0,0 0,0 0,-1 0,0 -1,0 -1,0 0,0 0,-1 1,-1 0,0 0,0 0,0 1,0 2,0 3,0 1,0 1,0 2,-1 0,0 1,0 1,0 1,0 1,0 1,0 0,0 0,0 0,0 0,0 1,0 1,0 0,0 0,0 0,0 0,1 1,3 1,4 0,0 0,0 0,0 0,1 0,2 0,2 1,2 1,3 1,4 0,1 1,2 1,4 0,1 0,1 0,2 0,1 0,1 1,1 0,0 0,0 0,1 0,0 0,0 0,0 0,0 0,0 0,0 0,0 0,0 0,0zm38 -19l0 0c1,0 1,0 2,0 2,1 3,1 5,2 2,1 3,2 4,4 0,0 1,1 1,1 0,1 0,2 0,3 0,1 0,2 -1,3 0,1 -1,1 -2,2 -1,0 -1,0 -1,0 0,0 0,0 0,0 -1,0 -1,0 -2,0 0,0 0,0 0,0 -1,0 -1,0 -1,0 -1,0 -1,0 -1,0 0,0 -1,0 -1,1 0,0 -1,0 -1,0 0,0 -1,0 -1,0 0,0 -1,0 -1,0 0,0 -1,0 -1,0 0,0 -1,0 -1,0 0,0 0,0 -1,0 0,0 -1,0 -1,1 0,0 -1,0 -1,0 0,0 -1,0 -1,0 0,0 0,0 0,0 0,0 0,0 0,0 0,1 0,1 0,1 0,2 1,3 3,4 1,1 2,1 4,1 1,0 2,-1 3,-1 0,-1 1,-1 1,-2 0,0 0,0 0,0 0,0 1,0 1,0 0,0 0,0 0,0 0,0 0,0 0,0 0,0 1,0 1,0 1,0 2,1 3,1 0,0 1,0 1,0 1,0 1,0 1,0 1,0 1,0 1,0 0,0 0,1 0,1 0,0 0,0 0,0 0,0 0,0 0,0 0,0 0,0 0,0 -1,2 -2,3 -3,4 -1,0 -2,1 -2,1 -2,1 -3,1 -4,1 0,1 -1,1 -1,1 -1,0 -2,0 -4,0 0,0 -1,0 -2,0 -3,-1 -5,-2 -8,-5 -1,-1 -2,-2 -3,-4 -1,-1 -1,-2 -1,-3 0,-1 0,-2 0,-3 0,-2 0,-4 2,-6 1,-3 3,-5 5,-6 1,-1 3,-1 4,-1 1,-1 3,-1 4,-1zm-1 7l0 0c0,0 0,0 0,0 -1,0 -1,0 -1,0 -1,0 -1,0 -2,1 -1,0 -1,1 -2,2 0,1 -1,2 -1,2 0,0 0,1 0,1 0,0 0,0 0,0 0,0 0,0 0,0 0,0 0,0 0,0 0,0 0,0 0,0 0,0 0,0 0,0 0,0 0,0 0,0 0,0 1,0 1,0 0,0 0,0 1,0 1,0 2,-1 3,-1 1,0 3,0 4,-1 0,0 0,0 0,0 0,0 0,0 1,0 0,0 0,0 1,-1 0,0 0,-1 -1,-1 0,0 0,0 0,0 0,-1 -1,-1 -2,-2 0,0 -1,0 -2,0zm14 -3l0 0c0,0 0,0 0,0 0,0 0,0 0,0 3,-1 6,-1 8,-2 0,0 0,0 0,0 0,0 0,0 0,0 1,0 1,0 1,0 0,0 0,0 0,0 0,0 0,0 0,0 0,0 0,0 0,0 0,1 0,1 0,2 0,0 0,0 0,0 0,1 0,1 0,1 0,0 0,1 0,1 0,0 0,0 0,0 0,0 0,0 0,0 0,0 0,0 0,0 0,0 0,0 0,0 0,0 0,0 0,0 0,0 0,0 0,0 0,0 0,0 0,0 0,0 0,0 0,0 0,0 0,0 1,-1 0,0 1,-1 1,-1 1,-1 2,-1 3,-1 1,-1 2,-1 3,-1 1,0 2,1 4,1 0,0 0,0 0,0 0,0 0,0 0,0 0,1 0,1 0,1 0,0 0,0 0,0 0,0 0,0 0,0 0,0 0,0 0,0 -1,2 -3,4 -4,6 0,0 0,0 0,0 0,0 0,0 0,0 0,0 0,0 0,0 0,0 -1,0 -1,0 0,0 0,-1 -1,-1 0,0 -1,0 -1,0 -1,0 -1,0 -1,0 -1,0 -1,0 -2,0 0,0 -1,1 -1,1 0,0 -1,1 -1,1 0,0 0,0 0,1 0,0 0,0 0,0 0,1 0,1 0,2 0,1 0,2 0,2 0,2 0,3 0,5 0,0 0,1 0,2 0,0 0,0 0,0 0,0 0,0 0,0 0,0 0,0 0,0 0,2 0,3 0,5 0,0 0,0 0,0 0,0 0,0 0,0 0,0 -1,0 -1,0 0,0 -1,0 -1,1 -1,0 -1,0 -1,0 -1,0 -1,0 -1,0 0,0 -1,0 -1,0 0,0 0,0 -1,0 0,0 0,0 -1,0 0,0 0,0 0,0 -1,0 -1,0 -2,0 0,0 0,0 0,0 0,0 0,0 0,0 0,0 0,0 0,0 0,0 0,0 0,0 0,0 0,0 0,-1 0,0 0,0 0,0 0,-2 0,-5 0,-7 0,-1 0,-1 0,-1 0,-1 0,-2 0,-3 0,-4 0,-8 0,-12 0,0 0,0 0,0 0,0 0,-1 0,-1z"/>
   </g>
   <path class="fil29" d="M781 481l0 0c0,0 0,0 0,0 0,0 -1,1 -1,1 -1,0 -1,0 -2,0 -1,0 -1,0 -2,0 0,0 -1,0 -1,0 -1,1 -1,1 -2,1 0,0 0,0 -1,0 0,0 -1,0 -2,0 0,0 -1,0 -2,0 0,0 0,0 0,0 0,0 0,0 0,0 0,0 0,0 0,0 0,0 0,0 0,0 0,0 0,-1 0,-1 0,-1 0,-1 0,-1 0,-1 0,-2 0,-4 0,0 0,0 0,0 0,0 0,0 0,0 0,-1 0,-1 0,-2 0,0 1,-1 1,-2 0,-1 0,-2 0,-2 0,-1 0,-1 0,-1 0,0 0,0 0,0 0,0 0,0 0,-1 0,0 0,0 0,0 -1,0 -1,-1 -1,-1 0,0 0,-1 0,-1 -1,-1 -2,-2 -2,-4 -3,-4 -5,-9 -7,-14 0,0 0,0 0,0 0,0 0,0 0,0 0,0 0,0 0,0 0,0 0,0 0,0 0,0 0,0 0,0 0,0 0,0 0,0 1,0 1,0 1,0 1,-1 1,-1 1,-1 1,0 1,0 1,0 1,0 1,0 2,0 0,0 0,0 1,0 0,0 0,0 1,0 0,0 1,0 1,0 0,0 1,0 1,0 0,0 1,0 1,0 1,0 1,0 1,0 0,0 0,0 0,0 0,0 0,0 0,0 0,0 0,0 0,0 0,1 0,2 1,3 1,3 2,7 3,10 0,0 0,0 0,0 0,1 0,1 0,1 0,0 0,0 0,0 0,0 0,0 0,0 0,0 0,0 0,0 0,0 0,0 0,0 1,-1 1,-2 1,-3 0,-1 0,-2 1,-4 0,-1 0,-2 0,-4 0,-1 1,-1 1,-2 0,0 0,-1 0,-1 0,0 0,0 0,-1 0,0 0,0 0,0 0,0 0,0 1,0 0,0 0,0 0,0 0,0 0,0 0,0 0,0 1,0 1,0 1,0 1,0 2,0 0,0 1,0 1,0 1,0 2,0 3,0 0,0 0,0 1,0 0,0 0,0 0,0 0,0 0,0 0,0 0,0 0,0 0,0 1,0 2,0 3,0 0,0 1,0 1,0 0,0 0,0 0,0 0,0 0,0 0,0 0,0 0,0 0,0 0,0 0,0 0,0 0,0 0,0 0,0 0,0 0,0 0,0 -1,1 -1,3 -2,4 -1,4 -3,7 -4,11 -1,2 -2,5 -3,7 0,0 0,0 0,0 0,0 0,0 0,0 0,0 0,1 0,1 0,0 0,0 0,0 0,0 0,0 0,1 0,0 0,1 0,2 0,1 0,1 0,2 0,0 0,0 0,1 0,0 0,1 0,1 0,1 0,1 0,1 0,1 0,1 0,2 0,0 0,0 0,0 0,0 0,1 0,1 1,0 1,0 1,0 -1,0 -1,0 -1,0 0,0 0,0 0,0zm29 -11l0 0c0,3 0,5 -1,7 -1,1 -1,3 -2,4 -2,1 -4,3 -6,3 -1,0 -2,1 -3,1 0,0 -1,0 -1,0 -1,0 -2,-1 -3,-1 -4,-1 -6,-3 -8,-5 -2,-2 -3,-3 -3,-5 0,-1 -1,-2 -1,-3 0,0 0,0 0,0 0,-1 0,-1 0,-1 0,-3 1,-6 3,-8 2,-2 4,-4 7,-5 1,0 2,0 3,0 1,0 2,0 3,0 2,0 4,0 5,1 2,1 4,2 5,4 1,1 1,2 2,4 0,1 0,2 0,3 0,1 0,1 0,1 0,0 0,0 0,0zm-7 0l0 0c0,0 0,0 0,0 0,0 0,0 0,0 0,0 0,-1 0,-1 0,0 0,0 0,0 0,-1 0,-1 -1,-2 0,-1 -1,-2 -3,-2 -1,-1 -2,-1 -4,-1 -1,0 -2,1 -3,1 -2,2 -2,4 -2,7 0,0 1,1 1,2 1,1 3,2 4,3 1,0 1,0 2,0 0,0 0,0 1,0 0,0 0,0 0,0 0,0 1,0 1,-1 2,0 3,-1 3,-3 1,-1 1,-2 1,-3zm33 12l0 0c0,0 0,0 0,0 0,0 0,0 0,0 -2,0 -3,1 -4,1 -1,0 -1,0 -2,0 0,0 0,0 0,0 -1,0 -1,0 -2,0 0,0 0,0 0,0 0,0 0,0 0,1 0,0 0,-1 0,-1 0,0 0,0 0,0 0,0 0,0 0,0 0,0 0,0 0,0 0,0 0,-1 0,-1 0,0 0,-1 0,-1 0,0 0,0 0,-1 0,0 0,0 0,0 0,0 0,-1 0,-1 0,0 0,0 0,0 0,0 0,0 0,0 0,0 0,0 0,0 0,0 0,0 0,0 0,0 0,0 0,0 0,0 0,0 0,0 0,0 0,0 0,0 0,0 0,0 0,0 -1,1 -1,1 -2,2 -1,0 -2,1 -3,1 -1,1 -1,1 -2,1 -1,0 -2,0 -3,0 0,0 -1,0 -1,0 -1,0 -2,-1 -3,-2 -1,-1 -1,-1 -2,-2 0,-1 -1,-2 -1,-3 0,-1 0,-2 0,-3 -1,-2 -1,-3 -1,-5 0,-1 0,-2 1,-3 0,-1 0,-2 0,-2 0,0 0,-1 0,-1 0,0 0,-1 0,-1 0,0 0,0 0,0 0,-1 0,-1 0,-1 0,0 0,0 0,0 0,0 0,0 0,0 0,0 0,0 0,0 0,0 0,0 0,0 0,0 1,0 1,0 0,0 0,0 0,0 1,0 1,0 1,0 1,0 1,0 1,0 1,0 1,0 1,0 0,-1 1,-1 1,-1 0,0 1,0 1,0 0,0 0,0 1,0 0,0 0,0 1,0 0,0 0,0 1,0 0,0 0,0 0,0 0,0 0,0 0,0 0,0 0,0 0,0 0,1 0,1 0,1 0,1 -1,2 -1,3 0,1 0,2 0,3 0,1 0,3 0,4 0,1 0,2 0,3 0,0 0,1 0,2 0,0 0,0 1,1 0,0 0,0 0,1 1,0 1,0 2,0 1,0 2,0 3,-1 0,0 0,-1 1,-1 0,-1 1,-2 1,-3 0,-1 0,-1 0,-1 0,0 0,0 0,0 0,0 0,-1 0,-1 0,-3 0,-6 0,-9 0,0 0,-1 0,-1 0,0 0,0 0,0 0,0 0,0 0,0 0,0 0,0 0,0 0,0 0,0 0,0 0,0 0,0 0,0 1,0 1,-1 1,-1 1,0 2,0 3,0 0,0 0,0 1,0 0,0 0,0 0,0 0,0 0,0 0,0 0,0 0,0 1,0 0,0 1,0 2,0 0,0 0,0 1,0 0,0 0,0 0,0 0,0 0,0 0,0 0,0 0,0 0,0 0,0 0,0 0,0 0,0 0,0 0,0 0,0 0,1 0,1 0,0 0,0 0,0 0,7 0,14 0,21 0,0 0,0 0,0 0,0 0,1 0,1zm6 -29l0 0c0,0 0,0 0,0 0,0 0,0 0,0 0,0 1,0 1,0 0,0 1,0 1,0 0,0 1,0 1,0 1,0 1,0 2,0 0,0 0,0 1,0 0,0 0,0 0,0 0,0 0,0 0,0 0,0 0,-1 0,-1 1,0 2,0 2,0 0,0 0,0 0,0 0,0 0,0 0,0 1,0 1,0 1,0 0,0 0,0 0,1 0,0 0,0 -1,0 0,0 0,1 0,1 0,1 0,2 0,2 0,1 0,2 0,2 0,0 0,1 0,1 0,0 -1,0 -1,1 0,0 0,0 0,0 1,0 1,0 1,0 0,0 0,0 0,0 0,0 0,0 0,0 0,0 0,0 0,0 1,0 1,0 1,0 1,0 1,0 2,0 0,0 0,0 0,0 0,0 0,0 0,0 0,0 0,0 0,0 0,0 0,0 0,0 0,1 0,1 -1,2 0,0 0,1 0,1 0,0 0,1 0,1 0,0 0,1 0,1 0,0 0,0 0,0 -1,0 -1,0 -1,0 0,0 0,0 0,0 0,0 -1,0 -1,0 0,0 0,0 -1,0 0,0 0,0 0,0 0,0 0,0 0,0 0,1 0,1 0,1 0,0 0,0 0,0 0,0 0,0 0,1 0,0 0,1 0,2 0,0 0,0 0,0 0,1 0,1 0,1 0,1 -1,1 -1,2 0,1 0,1 0,1 1,1 1,1 1,1 0,1 0,1 0,1 0,0 1,1 1,1 0,0 0,0 0,0 0,0 0,0 1,0 0,0 0,0 0,0 0,0 0,0 0,0 0,0 0,0 0,1 0,0 0,0 0,0 0,2 0,4 0,6 0,0 0,0 0,0 0,0 0,0 0,0 0,0 0,1 -1,1 0,0 0,0 0,0 -1,0 -2,0 -3,0 0,0 0,0 0,0 0,0 -1,0 -2,0 0,0 -1,0 -2,-1 -1,0 -2,-1 -2,-2 -1,-1 -1,-2 -1,-2 0,-2 0,-3 0,-5 0,0 0,-1 0,-2 0,0 0,-1 0,-1 0,0 0,0 0,-1 0,0 0,0 0,0 0,0 0,-1 0,-1 0,0 1,-1 1,-2 0,0 0,0 0,0 0,-1 0,-1 0,-1 0,0 0,0 0,0 0,0 0,0 0,-1 0,0 0,0 0,0 0,0 0,0 0,0 0,0 0,0 0,0 -1,0 -1,0 -1,0 0,0 -1,0 -1,0 0,0 -1,0 -2,0 0,0 0,0 0,0 0,0 0,0 0,0 0,0 0,0 0,0 0,0 0,0 0,0 0,-1 0,-3 0,-4 0,0 0,0 0,-1 0,0 0,0 0,0 0,0 0,0 0,0 0,0 0,0 1,0 0,0 0,0 0,0 1,0 1,0 2,0 0,0 0,0 0,0 0,0 0,0 0,0 1,0 1,0 1,0 0,0 0,0 0,0 0,0 0,0 0,0 0,0 0,-1 0,-1 0,0 0,0 0,0 0,-1 0,-1 0,-1 0,-1 0,-1 0,-2 0,-1 1,-1 1,-2 0,0 0,-1 0,-1 0,0 0,0 0,0 0,0 0,0 0,0zm11 0l0 0c1,0 1,0 1,0 0,0 0,0 0,0 2,-1 4,-1 5,-1 0,0 1,0 1,-1 0,0 1,0 1,0 1,0 1,0 1,0 0,0 0,0 0,0 0,0 0,0 0,0 0,1 0,1 0,1 0,0 0,0 0,0 0,0 0,1 0,2 0,1 0,3 0,5 0,0 0,1 0,2 0,0 0,0 0,0 0,1 0,1 -1,2 0,0 0,1 0,1 0,0 0,1 0,1 0,0 0,0 0,0 0,0 0,0 0,0 0,0 0,0 0,0 0,0 0,0 0,0 0,0 0,0 0,0 1,0 1,0 1,0 0,-1 0,-1 0,-1 0,0 0,0 0,0 0,-1 1,-1 1,-1 1,-1 2,-1 3,-2 1,0 2,-1 3,-1 1,0 2,0 2,0 1,0 2,0 2,0 1,1 2,1 3,2 0,1 1,1 1,2 1,1 1,2 1,3 1,1 1,2 1,3 0,1 0,3 0,5 0,1 0,2 0,3 0,1 0,2 0,3 0,1 0,1 0,2 0,0 0,0 -1,0 0,0 0,0 0,0 0,0 0,0 0,0 0,0 0,1 0,1 -1,0 -2,0 -2,0 -1,0 -1,0 -1,0 -1,0 -1,0 -1,0 -1,0 -1,0 -1,0 -1,0 -1,0 -1,0 -1,0 -1,0 -2,0 0,0 0,0 0,0 0,0 0,0 0,0 0,0 0,0 0,0 0,0 0,0 0,0 0,0 0,0 0,0 0,0 0,0 0,-1 0,-1 0,-2 1,-3 0,0 0,0 0,-1 0,0 0,-1 0,-1 0,-1 0,-1 0,-1 0,0 0,-1 0,-1 0,-1 0,-2 0,-3 0,-1 0,-1 0,-2 0,-1 0,-2 -1,-2 0,-1 0,-1 0,-1 0,-1 0,-1 -1,-1 0,0 -1,-1 -1,-1 -1,0 -2,1 -3,1 -1,1 -1,1 -1,1 -1,1 -1,2 -1,4 0,0 0,0 0,0 0,0 0,0 0,0 0,0 -1,1 -1,1 0,0 0,0 0,1 0,1 0,3 0,5 0,1 0,3 0,4 0,0 0,0 0,1 0,0 0,0 0,0 0,0 0,0 0,0 0,0 0,0 0,0 -1,0 -2,0 -3,0 -1,0 -1,0 -1,0 0,0 0,0 0,0 0,0 0,0 0,0 -1,0 -1,0 -1,0 -1,0 -2,0 -3,0 0,0 0,0 0,0 0,0 0,0 0,0 0,0 0,0 0,0 0,0 -1,0 -1,0 0,0 0,0 0,0 0,0 0,0 0,0 0,0 0,0 0,0 0,0 0,0 0,0 0,0 0,0 0,0 0,0 0,0 0,0 0,-1 0,-2 0,-3 0,-9 0,-18 0,-27 0,0 0,-1 0,-1 0,0 0,0 0,0z"/>
  </g>
 </g>
</svg>
