<?xml version="1.0" encoding="UTF-8"?>
<!DOCTYPE svg PUBLIC "-//W3C//DTD SVG 1.1//EN" "http://www.w3.org/Graphics/SVG/1.1/DTD/svg11.dtd">
<!-- Creator: CorelDRAW X7 -->
<svg xmlns="http://www.w3.org/2000/svg" xml:space="preserve" width="16.5347mm" height="16.5347mm" version="1.1" style="shape-rendering:geometricPrecision; text-rendering:geometricPrecision; image-rendering:optimizeQuality; fill-rule:evenodd; clip-rule:evenodd"
viewBox="0 0 246 246"
 xmlns:xlink="http://www.w3.org/1999/xlink">
 <defs>
  <style type="text/css">
   <![CDATA[
    .fil7 {fill:none}
    .fil8 {fill:#FEFEFE}
    .fil4 {fill:#7B7B7B;fill-rule:nonzero;fill-opacity:0.301961}
    .fil1 {fill:#9A9A9A;fill-rule:nonzero;fill-opacity:0.301961}
    .fil5 {fill:#A7A7A7;fill-rule:nonzero;fill-opacity:0.301961}
    .fil2 {fill:#C6C6C6;fill-rule:nonzero;fill-opacity:0.301961}
    .fil3 {fill:#DFDFDF;fill-rule:nonzero;fill-opacity:0.301961}
    .fil6 {fill:#E5097F;fill-rule:nonzero;fill-opacity:0.501961}
    .fil0 {fill:url(#id1);fill-rule:nonzero}
   ]]>
  </style>
    <clipPath id="id0">
     <path d="M21 0l204 0c12,0 21,9 21,21l0 204c0,12 -9,21 -21,21l-204 0c-12,0 -21,-9 -21,-21l0 -204c0,-12 9,-21 21,-21z"/>
    </clipPath>
  <linearGradient id="id1" gradientUnits="userSpaceOnUse" x1="-768.139" y1="848.602" x2="122.977" y2="-31.8573">
   <stop offset="0" style="stop-opacity:1; stop-color:#0C5EFF"/>
   <stop offset="0.0117647" style="stop-opacity:1; stop-color:#0068FF"/>
   <stop offset="0.14902" style="stop-opacity:1; stop-color:#0378FF"/>
   <stop offset="0.160784" style="stop-opacity:1; stop-color:#0082FF"/>
   <stop offset="0.858824" style="stop-opacity:1; stop-color:#00BAFF"/>
   <stop offset="1" style="stop-opacity:1; stop-color:#59ABFF"/>
  </linearGradient>
 </defs>
 <g id="Layer_x0020_1">
  <metadata id="CorelCorpID_0Corel-Layer"/>
  <g id="_2633523345008">
   <g>
   </g>
   <g style="clip-path:url(#id0)">
    <g id="_2633523347760">
     <g>
      <polygon class="fil0" points="342,857 -994,857 -994,-34 342,-34 "/>
      <g>
       <polygon class="fil1" points="-994,-23 -983,-34 -994,-34 "/>
       <polygon class="fil1" points="-972,-34 -877,61 -877,-34 "/>
       <polygon class="fil2" points="-877,-34 -877,61 -783,-34 "/>
       <polygon class="fil3" points="-877,61 -777,61 -777,-34 -783,-34 "/>
       <polygon class="fil3" points="-994,161 -978,161 -994,145 "/>
       <polygon class="fil4" points="-777,161 -777,61 -877,61 "/>
       <polygon class="fil4" points="-994,262 -978,262 -978,161 -994,177 "/>
       <polygon class="fil2" points="-994,177 -978,161 -994,161 "/>
       <polygon class="fil2" points="-978,262 -877,262 -978,161 "/>
       <polygon class="fil5" points="-777,262 -777,161 -877,262 "/>
       <polygon class="fil3" points="-983,-34 -994,-23 -994,61 -978,61 -978,-34 "/>
       <polygon class="fil2" points="-877,61 -972,-34 -978,-34 -978,61 "/>
       <polygon class="fil5" points="-978,61 -994,61 -994,145 -978,161 "/>
       <polygon class="fil4" points="-978,161 -877,61 -978,61 "/>
       <polygon class="fil3" points="-877,161 -877,61 -978,161 "/>
       <polygon class="fil5" points="-877,161 -777,161 -877,61 "/>
       <polygon class="fil4" points="-978,161 -877,262 -877,161 "/>
       <polygon class="fil2" points="-877,262 -777,161 -877,161 "/>
       <polygon class="fil1" points="-476,161 -577,161 -476,262 "/>
       <polygon class="fil1" points="-476,362 -476,262 -577,362 "/>
       <polygon class="fil2" points="-476,462 -476,362 -577,362 "/>
       <polygon class="fil3" points="-577,362 -577,462 -476,462 "/>
       <polygon class="fil3" points="-577,161 -677,161 -677,262 "/>
       <polygon class="fil4" points="-677,462 -577,462 -577,362 "/>
       <polygon class="fil4" points="-777,161 -777,262 -677,262 "/>
       <polygon class="fil2" points="-677,161 -777,161 -677,262 "/>
       <polygon class="fil2" points="-777,262 -777,362 -677,262 "/>
       <polygon class="fil5" points="-777,462 -677,462 -777,362 "/>
       <polygon class="fil3" points="-476,262 -577,161 -577,262 "/>
       <polygon class="fil2" points="-577,362 -476,262 -577,262 "/>
       <polygon class="fil5" points="-577,262 -577,161 -677,262 "/>
       <polygon class="fil4" points="-677,262 -577,362 -577,262 "/>
       <polygon class="fil3" points="-677,362 -577,362 -677,262 "/>
       <polygon class="fil5" points="-677,362 -677,462 -577,362 "/>
       <polygon class="fil4" points="-677,262 -777,362 -677,362 "/>
       <polygon class="fil2" points="-777,362 -677,462 -677,362 "/>
       <polygon class="fil1" points="-476,61 -476,-34 -482,-34 -577,61 "/>
       <polygon class="fil2" points="-476,161 -476,61 -577,61 "/>
       <polygon class="fil3" points="-577,61 -577,161 -476,161 "/>
       <polygon class="fil4" points="-677,161 -577,161 -577,61 "/>
       <polygon class="fil2" points="-777,-34 -777,61 -682,-34 "/>
       <polygon class="fil5" points="-777,161 -677,161 -777,61 "/>
       <polygon class="fil2" points="-577,61 -482,-34 -577,-34 "/>
       <polygon class="fil4" points="-671,-34 -577,61 -577,-34 "/>
       <polygon class="fil3" points="-677,61 -577,61 -671,-34 -677,-34 "/>
       <polygon class="fil5" points="-677,61 -677,161 -577,61 "/>
       <polygon class="fil4" points="-682,-34 -777,61 -677,61 -677,-34 "/>
       <polygon class="fil2" points="-777,61 -677,161 -677,61 "/>
       <polygon class="fil1" points="-994,278 -978,262 -994,262 "/>
       <polygon class="fil1" points="-877,262 -978,262 -877,362 "/>
       <polygon class="fil2" points="-777,262 -877,262 -877,362 "/>
       <polygon class="fil3" points="-877,362 -777,362 -777,262 "/>
       <polygon class="fil3" points="-994,462 -978,462 -994,446 "/>
       <polygon class="fil4" points="-777,462 -777,362 -877,362 "/>
       <polygon class="fil4" points="-994,562 -978,562 -978,462 -994,478 "/>
       <polygon class="fil2" points="-994,478 -978,462 -994,462 "/>
       <polygon class="fil2" points="-978,562 -877,562 -978,462 "/>
       <polygon class="fil5" points="-777,562 -777,462 -877,562 "/>
       <polygon class="fil3" points="-978,262 -994,278 -994,362 -978,362 "/>
       <polygon class="fil2" points="-877,362 -978,262 -978,362 "/>
       <polygon class="fil5" points="-978,362 -994,362 -994,446 -978,462 "/>
       <polygon class="fil4" points="-978,462 -877,362 -978,362 "/>
       <polygon class="fil3" points="-877,462 -877,362 -978,462 "/>
       <polygon class="fil5" points="-877,462 -777,462 -877,362 "/>
       <polygon class="fil4" points="-978,462 -877,562 -877,462 "/>
       <polygon class="fil2" points="-877,562 -777,462 -877,462 "/>
       <polygon class="fil1" points="-994,578 -978,562 -994,562 "/>
       <polygon class="fil1" points="-877,562 -978,562 -877,663 "/>
       <polygon class="fil2" points="-777,562 -877,562 -877,663 "/>
       <polygon class="fil3" points="-877,663 -777,663 -777,562 "/>
       <polygon class="fil3" points="-994,763 -978,763 -994,747 "/>
       <polygon class="fil4" points="-777,763 -777,663 -877,663 "/>
       <polygon class="fil4" points="-978,857 -978,763 -994,779 -994,857 "/>
       <polygon class="fil2" points="-994,779 -978,763 -994,763 "/>
       <polygon class="fil2" points="-884,857 -978,763 -978,857 "/>
       <polygon class="fil5" points="-777,857 -777,763 -871,857 "/>
       <polygon class="fil3" points="-978,562 -994,578 -994,663 -978,663 "/>
       <polygon class="fil2" points="-877,663 -978,562 -978,663 "/>
       <polygon class="fil5" points="-978,663 -994,663 -994,747 -978,763 "/>
       <polygon class="fil4" points="-978,763 -877,663 -978,663 "/>
       <polygon class="fil3" points="-877,763 -877,663 -978,763 "/>
       <polygon class="fil5" points="-877,763 -777,763 -877,663 "/>
       <polygon class="fil4" points="-978,763 -884,857 -877,857 -877,763 "/>
       <polygon class="fil2" points="-871,857 -777,763 -877,763 -877,857 "/>
       <polygon class="fil1" points="-476,462 -577,462 -476,562 "/>
       <polygon class="fil1" points="-476,663 -476,562 -577,663 "/>
       <polygon class="fil2" points="-476,763 -476,663 -577,663 "/>
       <polygon class="fil3" points="-577,663 -577,763 -476,763 "/>
       <polygon class="fil3" points="-577,462 -677,462 -677,562 "/>
       <polygon class="fil4" points="-677,763 -577,763 -577,663 "/>
       <polygon class="fil4" points="-777,462 -777,562 -677,562 "/>
       <polygon class="fil2" points="-677,462 -777,462 -677,562 "/>
       <polygon class="fil2" points="-777,562 -777,663 -677,562 "/>
       <polygon class="fil5" points="-777,763 -677,763 -777,663 "/>
       <polygon class="fil3" points="-476,562 -577,462 -577,562 "/>
       <polygon class="fil2" points="-577,663 -476,562 -577,562 "/>
       <polygon class="fil5" points="-577,562 -577,462 -677,562 "/>
       <polygon class="fil4" points="-677,562 -577,663 -577,562 "/>
       <polygon class="fil3" points="-677,663 -577,663 -677,562 "/>
       <polygon class="fil5" points="-677,663 -677,763 -577,663 "/>
       <polygon class="fil4" points="-677,562 -777,663 -677,663 "/>
       <polygon class="fil2" points="-777,663 -677,763 -677,663 "/>
       <polygon class="fil1" points="-476,763 -577,763 -483,857 -476,857 "/>
       <polygon class="fil3" points="-577,763 -677,763 -677,857 -670,857 "/>
       <polygon class="fil4" points="-777,763 -777,857 -683,857 "/>
       <polygon class="fil2" points="-677,763 -777,763 -683,857 -677,857 "/>
       <polygon class="fil3" points="-483,857 -577,763 -577,857 "/>
       <polygon class="fil5" points="-577,857 -577,763 -670,857 "/>
       <polygon class="fil1" points="-175,362 -276,362 -175,462 "/>
       <polygon class="fil1" points="-175,562 -175,462 -276,562 "/>
       <polygon class="fil2" points="-175,663 -175,562 -276,562 "/>
       <polygon class="fil3" points="-276,562 -276,663 -175,663 "/>
       <polygon class="fil3" points="-276,362 -376,362 -376,462 "/>
       <polygon class="fil4" points="-376,663 -276,663 -276,562 "/>
       <polygon class="fil4" points="-476,362 -476,462 -376,462 "/>
       <polygon class="fil2" points="-376,362 -476,362 -376,462 "/>
       <polygon class="fil2" points="-476,462 -476,562 -376,462 "/>
       <polygon class="fil5" points="-476,663 -376,663 -476,562 "/>
       <polygon class="fil3" points="-175,462 -276,362 -276,462 "/>
       <polygon class="fil2" points="-276,562 -175,462 -276,462 "/>
       <polygon class="fil5" points="-276,462 -276,362 -376,462 "/>
       <polygon class="fil4" points="-376,462 -276,562 -276,462 "/>
       <polygon class="fil3" points="-376,562 -276,562 -376,462 "/>
       <polygon class="fil5" points="-376,562 -376,663 -276,562 "/>
       <polygon class="fil4" points="-376,462 -476,562 -376,562 "/>
       <polygon class="fil2" points="-476,562 -376,663 -376,562 "/>
       <polygon class="fil1" points="-175,663 -276,663 -175,763 "/>
       <polygon class="fil1" points="-175,857 -175,763 -269,857 "/>
       <polygon class="fil3" points="-276,663 -376,663 -376,763 "/>
       <polygon class="fil4" points="-476,663 -476,763 -376,763 "/>
       <polygon class="fil2" points="-376,663 -476,663 -376,763 "/>
       <polygon class="fil2" points="-476,763 -476,857 -470,857 -376,763 "/>
       <polygon class="fil3" points="-175,763 -276,663 -276,763 "/>
       <polygon class="fil2" points="-269,857 -175,763 -276,763 -276,857 "/>
       <polygon class="fil5" points="-276,763 -276,663 -376,763 "/>
       <polygon class="fil4" points="-376,763 -282,857 -276,857 -276,763 "/>
       <polygon class="fil3" points="-282,857 -376,763 -376,857 "/>
       <polygon class="fil4" points="-376,763 -470,857 -376,857 "/>
       <polygon class="fil1" points="-175,61 -276,61 -175,161 "/>
       <polygon class="fil1" points="-175,262 -175,161 -276,262 "/>
       <polygon class="fil2" points="-175,362 -175,262 -276,262 "/>
       <polygon class="fil3" points="-276,262 -276,362 -175,362 "/>
       <polygon class="fil3" points="-276,61 -376,61 -376,161 "/>
       <polygon class="fil4" points="-376,362 -276,362 -276,262 "/>
       <polygon class="fil4" points="-476,61 -476,161 -376,161 "/>
       <polygon class="fil2" points="-376,61 -476,61 -376,161 "/>
       <polygon class="fil2" points="-476,161 -476,262 -376,161 "/>
       <polygon class="fil5" points="-476,362 -376,362 -476,262 "/>
       <polygon class="fil3" points="-175,161 -276,61 -276,161 "/>
       <polygon class="fil2" points="-276,262 -175,161 -276,161 "/>
       <polygon class="fil5" points="-276,161 -276,61 -376,161 "/>
       <polygon class="fil4" points="-376,161 -276,262 -276,161 "/>
       <polygon class="fil3" points="-376,262 -276,262 -376,161 "/>
       <polygon class="fil5" points="-376,262 -376,362 -276,262 "/>
       <polygon class="fil4" points="-376,161 -476,262 -376,262 "/>
       <polygon class="fil2" points="-476,262 -376,362 -376,262 "/>
       <polygon class="fil2" points="-175,61 -175,-34 -270,-34 "/>
       <polygon class="fil3" points="-276,-34 -276,61 -175,61 -270,-34 "/>
       <polygon class="fil4" points="-376,61 -276,61 -276,-34 -281,-34 "/>
       <polygon class="fil5" points="-476,61 -376,61 -471,-34 -476,-34 "/>
       <polygon class="fil5" points="-376,-34 -376,61 -281,-34 "/>
       <polygon class="fil2" points="-471,-34 -376,61 -376,-34 "/>
       <polygon class="fil1" points="126,-34 126,61 220,-34 "/>
       <polygon class="fil1" points="231,-34 326,61 326,-34 "/>
       <polygon class="fil2" points="326,-34 326,61 342,45 342,-34 "/>
       <polygon class="fil3" points="326,61 342,61 342,45 "/>
       <polygon class="fil3" points="126,61 126,161 226,161 "/>
       <polygon class="fil4" points="342,61 326,61 342,77 "/>
       <polygon class="fil4" points="126,262 226,262 226,161 "/>
       <polygon class="fil2" points="126,161 126,262 226,161 "/>
       <polygon class="fil2" points="226,262 326,262 226,161 "/>
       <polygon class="fil5" points="342,246 326,262 342,262 "/>
       <polygon class="fil3" points="220,-34 126,61 226,61 226,-34 "/>
       <polygon class="fil2" points="326,61 231,-34 226,-34 226,61 "/>
       <polygon class="fil5" points="226,61 126,61 226,161 "/>
       <polygon class="fil4" points="226,161 326,61 226,61 "/>
       <polygon class="fil3" points="326,161 326,61 226,161 "/>
       <polygon class="fil5" points="326,161 342,161 342,77 326,61 "/>
       <polygon class="fil4" points="226,161 326,262 326,161 "/>
       <polygon class="fil2" points="326,262 342,246 342,161 326,161 "/>
       <polygon class="fil1" points="126,262 126,362 226,262 "/>
       <polygon class="fil1" points="326,262 226,262 326,362 "/>
       <polygon class="fil2" points="342,262 326,262 326,362 342,346 "/>
       <polygon class="fil3" points="326,362 342,362 342,346 "/>
       <polygon class="fil3" points="126,362 126,462 226,462 "/>
       <polygon class="fil4" points="342,362 326,362 342,378 "/>
       <polygon class="fil4" points="126,562 226,562 226,462 "/>
       <polygon class="fil2" points="126,462 126,562 226,462 "/>
       <polygon class="fil2" points="226,562 326,562 226,462 "/>
       <polygon class="fil5" points="342,546 326,562 342,562 "/>
       <polygon class="fil3" points="226,262 126,362 226,362 "/>
       <polygon class="fil2" points="326,362 226,262 226,362 "/>
       <polygon class="fil5" points="226,362 126,362 226,462 "/>
       <polygon class="fil4" points="226,462 326,362 226,362 "/>
       <polygon class="fil3" points="326,462 326,362 226,462 "/>
       <polygon class="fil5" points="326,462 342,462 342,378 326,362 "/>
       <polygon class="fil4" points="226,462 326,562 326,462 "/>
       <polygon class="fil2" points="326,562 342,546 342,462 326,462 "/>
       <polygon class="fil1" points="126,562 126,663 226,562 "/>
       <polygon class="fil1" points="326,562 226,562 326,663 "/>
       <polygon class="fil2" points="342,562 326,562 326,663 342,647 "/>
       <polygon class="fil3" points="326,663 342,663 342,647 "/>
       <polygon class="fil3" points="126,663 126,763 226,763 "/>
       <polygon class="fil4" points="342,663 326,663 342,679 "/>
       <polygon class="fil4" points="226,857 226,763 132,857 "/>
       <polygon class="fil2" points="126,763 126,857 132,857 226,763 "/>
       <polygon class="fil2" points="320,857 226,763 226,857 "/>
       <polygon class="fil5" points="342,847 333,857 342,857 "/>
       <polygon class="fil3" points="226,562 126,663 226,663 "/>
       <polygon class="fil2" points="326,663 226,562 226,663 "/>
       <polygon class="fil5" points="226,663 126,663 226,763 "/>
       <polygon class="fil4" points="226,763 326,663 226,663 "/>
       <polygon class="fil3" points="326,763 326,663 226,763 "/>
       <polygon class="fil5" points="326,763 342,763 342,679 326,663 "/>
       <polygon class="fil4" points="226,763 320,857 326,857 326,763 "/>
       <polygon class="fil2" points="333,857 342,847 342,763 326,763 326,857 "/>
       <polygon class="fil2" points="-175,763 -175,857 -82,857 "/>
       <polygon class="fil3" points="-75,857 -75,763 -175,763 -82,857 "/>
       <polygon class="fil4" points="25,763 -75,763 -75,857 -69,857 "/>
       <polygon class="fil5" points="126,763 25,763 119,857 126,857 "/>
       <polygon class="fil5" points="25,857 25,763 -69,857 "/>
       <polygon class="fil2" points="119,857 25,763 25,857 "/>
       <polygon class="fil1" points="126,763 126,663 25,763 "/>
       <polygon class="fil1" points="-75,763 25,763 -75,663 "/>
       <polygon class="fil2" points="-175,763 -75,763 -75,663 "/>
       <polygon class="fil3" points="-75,663 -175,663 -175,763 "/>
       <polygon class="fil3" points="126,663 126,562 25,562 "/>
       <polygon class="fil4" points="-175,562 -175,663 -75,663 "/>
       <polygon class="fil4" points="126,462 25,462 25,562 "/>
       <polygon class="fil2" points="126,562 126,462 25,562 "/>
       <polygon class="fil2" points="25,462 -75,462 25,562 "/>
       <polygon class="fil2" points="-175,462 -175,562 -75,462 "/>
       <polygon class="fil3" points="25,763 126,663 25,663 "/>
       <polygon class="fil2" points="-75,663 25,763 25,663 "/>
       <polygon class="fil5" points="25,663 126,663 25,562 "/>
       <polygon class="fil4" points="25,562 -75,663 25,663 "/>
       <polygon class="fil3" points="-75,562 -75,663 25,562 "/>
       <polygon class="fil5" points="-75,562 -175,562 -75,663 "/>
       <polygon class="fil5" points="25,562 -75,462 -75,562 "/>
       <polygon class="fil4" points="-75,462 -175,562 -75,562 "/>
       <polygon class="fil2" points="-175,160 -175,260 -75,160 "/>
       <polygon class="fil1" points="25,160 -75,160 25,260 "/>
       <polygon class="fil2" points="126,160 25,160 25,260 "/>
       <polygon class="fil3" points="25,260 126,260 126,160 "/>
       <polygon class="fil3" points="-175,260 -175,360 -75,360 "/>
       <polygon class="fil4" points="126,360 126,260 25,260 "/>
       <polygon class="fil4" points="-175,460 -75,460 -75,360 "/>
       <polygon class="fil2" points="-175,360 -175,460 -75,360 "/>
       <polygon class="fil2" points="-75,460 25,460 -75,360 "/>
       <polygon class="fil2" points="126,460 126,360 25,460 "/>
       <polygon class="fil3" points="-75,160 -175,260 -75,260 "/>
       <polygon class="fil2" points="25,260 -75,160 -75,260 "/>
       <polygon class="fil5" points="-75,260 -175,260 -75,360 "/>
       <polygon class="fil4" points="-75,360 25,260 -75,260 "/>
       <polygon class="fil3" points="25,360 25,260 -75,360 "/>
       <polygon class="fil5" points="25,360 126,360 25,260 "/>
       <polygon class="fil5" points="-75,360 25,460 25,360 "/>
       <polygon class="fil4" points="25,460 126,360 25,360 "/>
       <polygon class="fil2" points="126,161 126,61 25,161 "/>
       <polygon class="fil1" points="-75,161 25,161 -75,61 "/>
       <polygon class="fil2" points="-175,161 -75,161 -75,61 "/>
       <polygon class="fil3" points="-75,61 -175,61 -175,161 "/>
       <polygon class="fil3" points="126,61 126,-34 31,-34 "/>
       <polygon class="fil4" points="-175,-34 -175,61 -75,61 -170,-34 "/>
       <polygon class="fil3" points="25,161 126,61 25,61 "/>
       <polygon class="fil2" points="-75,61 25,161 25,61 "/>
       <polygon class="fil5" points="25,61 126,61 31,-34 25,-34 "/>
       <polygon class="fil4" points="20,-34 -75,61 25,61 25,-34 "/>
       <polygon class="fil3" points="-75,-34 -75,61 20,-34 "/>
       <polygon class="fil5" points="-170,-34 -75,61 -75,-34 "/>
      </g>
      <polygon class="fil6" points="-994,857 -994,-34 342,-34 342,857 "/>
     </g>
    </g>
   </g>
   <path class="fil7" d="M21 0l204 0c12,0 21,9 21,21l0 204c0,12 -9,21 -21,21l-204 0c-12,0 -21,-9 -21,-21l0 -204c0,-12 9,-21 21,-21z"/>
   <g id="_2633523344176">
    <path class="fil8" d="M50 191l0 -5 147 0c0,4 0,5 -1,5l-145 0c-1,0 -1,0 -1,0zm152 -6l0 6c-1,3 -2,5 -5,5l-147 0c-3,0 -5,-2 -5,-5l0 -5c0,-2 1,-4 3,-5 2,0 5,0 7,0 -1,-2 -1,-3 -2,-5 -1,-3 -1,-27 -1,-32 0,-4 1,-6 3,-9 3,-3 12,-5 17,-6 9,-3 8,-2 8,-11 0,-1 -5,-3 -5,-9l-1 0c-8,0 -8,-11 -5,-15l0 0c1,-1 1,0 1,-1 0,-2 -1,-2 -2,-3l-1 -1c-3,-5 0,-8 -1,-10 0,-1 -1,-2 -1,-4 1,-4 3,-5 4,-7 1,-1 0,-7 7,-9 2,-1 2,-3 5,-4 2,-1 1,0 4,-2 1,0 2,-1 4,-1 4,0 3,-2 8,-2 4,0 4,1 6,2 1,0 2,0 3,0 3,1 3,2 5,2l1 0c0,0 1,0 1,0 2,1 4,2 5,4 2,1 1,0 3,1 1,0 1,1 2,1 1,1 3,3 3,4 2,5 -1,2 2,6 5,4 2,9 2,10 0,0 3,6 -2,10 -3,3 0,-1 -3,4 1,2 2,3 2,6l63 0c6,0 12,4 12,9l0 49c0,5 -6,10 -10,10l-24 0c0,1 1,3 1,5 0,2 0,4 1,6 0,2 0,2 1,2l10 0c4,0 16,-1 18,1 1,0 3,2 3,3zm-56 -38l12 0c3,0 3,5 3,7l4 27 -26 0c1,-3 1,-6 1,-9l3 -22c1,-2 1,-3 3,-3zm-52 26c4,0 7,-1 9,1 2,2 2,3 2,7l-11 0 0 -8zm40 8l-6 0 0 -13 8 0c0,1 -1,4 -1,6 0,2 -1,5 -1,7zm-66 -29l0 16c0,3 3,5 5,5l16 0 0 8 -24 0c-4,0 -7,-4 -7,-8l0 -31c0,-5 6,-6 10,-7 6,-2 3,-2 8,4 5,4 14,8 20,8l6 0c0,7 -1,13 3,18 5,4 11,3 18,3l0 13 -13 0 0 -3c0,-5 -4,-9 -7,-10 -3,-1 -20,0 -25,0 -6,0 -5,3 -5,-12 0,-3 1,-6 -2,-6 -2,0 -3,0 -3,2zm68 11l-21 0c-5,0 -8,-2 -8,-7l0 -44c0,-4 1,-7 6,-7l78 0c4,0 6,3 6,7l0 44c0,8 -7,7 -12,7 -6,0 -12,0 -17,0 -2,-6 -1,-16 -5,-19 -1,-1 -3,-2 -5,-2l-12 0c-2,0 -4,1 -5,2 -3,3 -3,8 -4,12 0,3 0,7 -1,7zm-59 -31c7,-1 8,-3 8,-10 2,2 4,4 8,4l9 0 0 16c-1,0 -2,0 -3,0 -5,0 -10,-1 -13,-3 -3,-1 -7,-4 -9,-7zm-5 -29l0 -5c0,-1 0,0 1,-1 1,1 0,0 1,4 0,1 0,2 0,4 -1,-1 -2,-1 -2,-2zm49 -6c1,1 1,1 1,3l-1 0c0,-2 0,-2 0,-3zm-6 3c-3,0 -7,0 -9,2 -2,2 -4,4 -4,8l0 11 -9 0c-2,0 -7,-5 -9,-6 -5,-5 -4,-4 -5,-14 0,-1 -1,-3 -1,-4 3,0 4,-2 5,-4 0,-1 1,-6 1,-7 2,0 3,-1 4,-1 1,0 3,3 9,0 2,-1 0,0 3,1 5,2 8,-1 8,-1 2,0 2,1 4,1 0,2 1,5 1,6 1,3 1,3 3,5l-1 3zm6 -30c0,2 6,2 5,6 -1,3 -2,1 -2,4 0,1 3,4 1,6 -1,1 -2,1 -3,2 -2,2 2,3 -4,4 -2,-4 1,-10 -4,-11 -3,0 -3,-1 -4,-2 0,0 -1,0 -1,0 -3,-1 -2,2 -6,2 -3,0 -4,-4 -7,-1 0,0 0,0 0,0 0,0 0,0 0,0 -1,1 -2,1 -4,1 -3,0 -3,-5 -7,-1 -3,3 -5,-1 -6,5 0,2 -1,5 -1,7 -6,-1 -2,-3 -5,-5 -1,0 -1,0 -2,-1 -2,-2 1,-4 1,-6 0,-2 -5,-5 1,-8 3,-1 2,-3 2,-5 0,-2 1,-3 3,-3 5,-1 1,-4 6,-5 4,-1 2,-1 5,-2 1,0 1,0 2,0 2,0 3,-2 6,-2 3,0 4,2 6,2 2,0 1,0 3,1 1,0 2,2 3,2 2,0 4,-1 5,0 1,1 1,3 3,3 2,1 3,0 4,2 1,2 0,3 0,5z"/>
    <path class="fil8" d="M155 128c0,1 -1,2 -1,2 -2,3 -6,-1 -4,-3 2,-3 5,0 5,1zm-11 0c0,3 1,4 2,6 5,5 14,2 14,-6 0,-2 -1,-4 -2,-5 -5,-5 -14,-1 -14,5z"/>
   </g>
  </g>
 </g>
</svg>
