<?xml version="1.0" encoding="UTF-8"?>
<!DOCTYPE svg PUBLIC "-//W3C//DTD SVG 1.1//EN" "http://www.w3.org/Graphics/SVG/1.1/DTD/svg11.dtd">
<!-- Creator: CorelDRAW X7 -->
<svg xmlns="http://www.w3.org/2000/svg" xml:space="preserve" width="16.5347mm" height="16.5347mm" version="1.1" style="shape-rendering:geometricPrecision; text-rendering:geometricPrecision; image-rendering:optimizeQuality; fill-rule:evenodd; clip-rule:evenodd"
viewBox="0 0 608 608"
 xmlns:xlink="http://www.w3.org/1999/xlink">
 <defs>
  <style type="text/css">
   <![CDATA[
    .fil7 {fill:none}
    .fil8 {fill:#FEFEFE}
    .fil4 {fill:#7B7B7B;fill-rule:nonzero;fill-opacity:0.301961}
    .fil1 {fill:#9A9A9A;fill-rule:nonzero;fill-opacity:0.301961}
    .fil5 {fill:#A7A7A7;fill-rule:nonzero;fill-opacity:0.301961}
    .fil2 {fill:#C6C6C6;fill-rule:nonzero;fill-opacity:0.301961}
    .fil3 {fill:#DFDFDF;fill-rule:nonzero;fill-opacity:0.301961}
    .fil6 {fill:#D2CDE7;fill-rule:nonzero;fill-opacity:0.501961}
    .fil0 {fill:url(#id1);fill-rule:nonzero}
   ]]>
  </style>
    <clipPath id="id0">
     <path d="M52 0l504 0c29,0 52,23 52,52l0 504c0,29 -23,52 -52,52l-504 0c-29,0 -52,-23 -52,-52l0 -504c0,-29 23,-52 52,-52z"/>
    </clipPath>
  <linearGradient id="id1" gradientUnits="userSpaceOnUse" x1="-1367.37" y1="1714.19" x2="831.99" y2="-458.872">
   <stop offset="0" style="stop-opacity:1; stop-color:#0C5EFF"/>
   <stop offset="0.0117647" style="stop-opacity:1; stop-color:#0068FF"/>
   <stop offset="0.14902" style="stop-opacity:1; stop-color:#0378FF"/>
   <stop offset="0.160784" style="stop-opacity:1; stop-color:#0082FF"/>
   <stop offset="0.858824" style="stop-opacity:1; stop-color:#00BAFF"/>
   <stop offset="1" style="stop-opacity:1; stop-color:#59ABFF"/>
  </linearGradient>
 </defs>
 <g id="Layer_x0020_1">
  <metadata id="CorelCorpID_0Corel-Layer"/>
  <g id="_2633526864160">
   <g>
   </g>
   <g style="clip-path:url(#id0)">
    <g id="_2633526867904">
     <g>
      <polygon class="fil0" points="1373,1735 -1924,1735 -1924,-463 1373,-463 "/>
      <g>
       <polygon class="fil1" points="-1924,-438 -1898,-463 -1924,-463 "/>
       <polygon class="fil1" points="-1871,-463 -1637,-230 -1637,-463 "/>
       <polygon class="fil2" points="-1637,-463 -1637,-230 -1403,-463 "/>
       <polygon class="fil3" points="-1637,-230 -1390,-230 -1390,-463 -1403,-463 "/>
       <polygon class="fil3" points="-1924,18 -1885,18 -1924,-22 "/>
       <polygon class="fil4" points="-1390,18 -1390,-230 -1637,-230 "/>
       <polygon class="fil4" points="-1924,265 -1885,265 -1885,18 -1924,57 "/>
       <polygon class="fil2" points="-1924,57 -1885,18 -1924,18 "/>
       <polygon class="fil2" points="-1885,265 -1637,265 -1885,18 "/>
       <polygon class="fil5" points="-1390,265 -1390,18 -1637,265 "/>
       <polygon class="fil3" points="-1898,-463 -1924,-438 -1924,-230 -1885,-230 -1885,-463 "/>
       <polygon class="fil2" points="-1637,-230 -1871,-463 -1885,-463 -1885,-230 "/>
       <polygon class="fil5" points="-1885,-230 -1924,-230 -1924,-22 -1885,18 "/>
       <polygon class="fil4" points="-1885,18 -1637,-230 -1885,-230 "/>
       <polygon class="fil3" points="-1637,18 -1637,-230 -1885,18 "/>
       <polygon class="fil5" points="-1637,18 -1390,18 -1637,-230 "/>
       <polygon class="fil4" points="-1885,18 -1637,265 -1637,18 "/>
       <polygon class="fil2" points="-1637,265 -1390,18 -1637,18 "/>
       <polygon class="fil1" points="-647,18 -894,18 -647,265 "/>
       <polygon class="fil1" points="-647,513 -647,265 -894,513 "/>
       <polygon class="fil2" points="-647,760 -647,513 -894,513 "/>
       <polygon class="fil3" points="-894,513 -894,760 -647,760 "/>
       <polygon class="fil3" points="-894,18 -1142,18 -1142,265 "/>
       <polygon class="fil4" points="-1142,760 -894,760 -894,513 "/>
       <polygon class="fil4" points="-1390,18 -1390,265 -1142,265 "/>
       <polygon class="fil2" points="-1142,18 -1390,18 -1142,265 "/>
       <polygon class="fil2" points="-1390,265 -1390,513 -1142,265 "/>
       <polygon class="fil5" points="-1390,760 -1142,760 -1390,513 "/>
       <polygon class="fil3" points="-647,265 -894,18 -894,265 "/>
       <polygon class="fil2" points="-894,513 -647,265 -894,265 "/>
       <polygon class="fil5" points="-894,265 -894,18 -1142,265 "/>
       <polygon class="fil4" points="-1142,265 -894,513 -894,265 "/>
       <polygon class="fil3" points="-1142,513 -894,513 -1142,265 "/>
       <polygon class="fil5" points="-1142,513 -1142,760 -894,513 "/>
       <polygon class="fil4" points="-1142,265 -1390,513 -1142,513 "/>
       <polygon class="fil2" points="-1390,513 -1142,760 -1142,513 "/>
       <polygon class="fil1" points="-647,-230 -647,-463 -661,-463 -894,-230 "/>
       <polygon class="fil2" points="-647,18 -647,-230 -894,-230 "/>
       <polygon class="fil3" points="-894,-230 -894,18 -647,18 "/>
       <polygon class="fil4" points="-1142,18 -894,18 -894,-230 "/>
       <polygon class="fil2" points="-1390,-463 -1390,-230 -1156,-463 "/>
       <polygon class="fil5" points="-1390,18 -1142,18 -1390,-230 "/>
       <polygon class="fil2" points="-894,-230 -661,-463 -894,-463 "/>
       <polygon class="fil4" points="-1128,-463 -894,-230 -894,-463 "/>
       <polygon class="fil3" points="-1142,-230 -894,-230 -1128,-463 -1142,-463 "/>
       <polygon class="fil5" points="-1142,-230 -1142,18 -894,-230 "/>
       <polygon class="fil4" points="-1156,-463 -1390,-230 -1142,-230 -1142,-463 "/>
       <polygon class="fil2" points="-1390,-230 -1142,18 -1142,-230 "/>
       <polygon class="fil1" points="-1924,305 -1885,265 -1924,265 "/>
       <polygon class="fil1" points="-1637,265 -1885,265 -1637,513 "/>
       <polygon class="fil2" points="-1390,265 -1637,265 -1637,513 "/>
       <polygon class="fil3" points="-1637,513 -1390,513 -1390,265 "/>
       <polygon class="fil3" points="-1924,760 -1885,760 -1924,721 "/>
       <polygon class="fil4" points="-1390,760 -1390,513 -1637,513 "/>
       <polygon class="fil4" points="-1924,1008 -1885,1008 -1885,760 -1924,800 "/>
       <polygon class="fil2" points="-1924,800 -1885,760 -1924,760 "/>
       <polygon class="fil2" points="-1885,1008 -1637,1008 -1885,760 "/>
       <polygon class="fil5" points="-1390,1008 -1390,760 -1637,1008 "/>
       <polygon class="fil3" points="-1885,265 -1924,305 -1924,513 -1885,513 "/>
       <polygon class="fil2" points="-1637,513 -1885,265 -1885,513 "/>
       <polygon class="fil5" points="-1885,513 -1924,513 -1924,721 -1885,760 "/>
       <polygon class="fil4" points="-1885,760 -1637,513 -1885,513 "/>
       <polygon class="fil3" points="-1637,760 -1637,513 -1885,760 "/>
       <polygon class="fil5" points="-1637,760 -1390,760 -1637,513 "/>
       <polygon class="fil4" points="-1885,760 -1637,1008 -1637,760 "/>
       <polygon class="fil2" points="-1637,1008 -1390,760 -1637,760 "/>
       <polygon class="fil1" points="-1924,1047 -1885,1008 -1924,1008 "/>
       <polygon class="fil1" points="-1637,1008 -1885,1008 -1637,1255 "/>
       <polygon class="fil2" points="-1390,1008 -1637,1008 -1637,1255 "/>
       <polygon class="fil3" points="-1637,1255 -1390,1255 -1390,1008 "/>
       <polygon class="fil3" points="-1924,1503 -1885,1503 -1924,1463 "/>
       <polygon class="fil4" points="-1390,1503 -1390,1255 -1637,1255 "/>
       <polygon class="fil4" points="-1885,1735 -1885,1503 -1924,1543 -1924,1735 "/>
       <polygon class="fil2" points="-1924,1543 -1885,1503 -1924,1503 "/>
       <polygon class="fil2" points="-1653,1735 -1885,1503 -1885,1735 "/>
       <polygon class="fil5" points="-1390,1735 -1390,1503 -1621,1735 "/>
       <polygon class="fil3" points="-1885,1008 -1924,1047 -1924,1255 -1885,1255 "/>
       <polygon class="fil2" points="-1637,1255 -1885,1008 -1885,1255 "/>
       <polygon class="fil5" points="-1885,1255 -1924,1255 -1924,1463 -1885,1503 "/>
       <polygon class="fil4" points="-1885,1503 -1637,1255 -1885,1255 "/>
       <polygon class="fil3" points="-1637,1503 -1637,1255 -1885,1503 "/>
       <polygon class="fil5" points="-1637,1503 -1390,1503 -1637,1255 "/>
       <polygon class="fil4" points="-1885,1503 -1653,1735 -1637,1735 -1637,1503 "/>
       <polygon class="fil2" points="-1621,1735 -1390,1503 -1637,1503 -1637,1735 "/>
       <polygon class="fil1" points="-647,760 -894,760 -647,1008 "/>
       <polygon class="fil1" points="-647,1255 -647,1008 -894,1255 "/>
       <polygon class="fil2" points="-647,1503 -647,1255 -894,1255 "/>
       <polygon class="fil3" points="-894,1255 -894,1503 -647,1503 "/>
       <polygon class="fil3" points="-894,760 -1142,760 -1142,1008 "/>
       <polygon class="fil4" points="-1142,1503 -894,1503 -894,1255 "/>
       <polygon class="fil4" points="-1390,760 -1390,1008 -1142,1008 "/>
       <polygon class="fil2" points="-1142,760 -1390,760 -1142,1008 "/>
       <polygon class="fil2" points="-1390,1008 -1390,1255 -1142,1008 "/>
       <polygon class="fil5" points="-1390,1503 -1142,1503 -1390,1255 "/>
       <polygon class="fil3" points="-647,1008 -894,760 -894,1008 "/>
       <polygon class="fil2" points="-894,1255 -647,1008 -894,1008 "/>
       <polygon class="fil5" points="-894,1008 -894,760 -1142,1008 "/>
       <polygon class="fil4" points="-1142,1008 -894,1255 -894,1008 "/>
       <polygon class="fil3" points="-1142,1255 -894,1255 -1142,1008 "/>
       <polygon class="fil5" points="-1142,1255 -1142,1503 -894,1255 "/>
       <polygon class="fil4" points="-1142,1008 -1390,1255 -1142,1255 "/>
       <polygon class="fil2" points="-1390,1255 -1142,1503 -1142,1255 "/>
       <polygon class="fil1" points="-647,1503 -894,1503 -663,1735 -647,1735 "/>
       <polygon class="fil3" points="-894,1503 -1142,1503 -1142,1735 -1126,1735 "/>
       <polygon class="fil4" points="-1390,1503 -1390,1735 -1158,1735 "/>
       <polygon class="fil2" points="-1142,1503 -1390,1503 -1158,1735 -1142,1735 "/>
       <polygon class="fil3" points="-663,1735 -894,1503 -894,1735 "/>
       <polygon class="fil5" points="-894,1735 -894,1503 -1126,1735 "/>
       <polygon class="fil1" points="96,513 -152,513 96,760 "/>
       <polygon class="fil1" points="96,1008 96,760 -152,1008 "/>
       <polygon class="fil2" points="96,1255 96,1008 -152,1008 "/>
       <polygon class="fil3" points="-152,1008 -152,1255 96,1255 "/>
       <polygon class="fil3" points="-152,513 -399,513 -399,760 "/>
       <polygon class="fil4" points="-399,1255 -152,1255 -152,1008 "/>
       <polygon class="fil4" points="-647,513 -647,760 -399,760 "/>
       <polygon class="fil2" points="-399,513 -647,513 -399,760 "/>
       <polygon class="fil2" points="-647,760 -647,1008 -399,760 "/>
       <polygon class="fil5" points="-647,1255 -399,1255 -647,1008 "/>
       <polygon class="fil3" points="96,760 -152,513 -152,760 "/>
       <polygon class="fil2" points="-152,1008 96,760 -152,760 "/>
       <polygon class="fil5" points="-152,760 -152,513 -399,760 "/>
       <polygon class="fil4" points="-399,760 -152,1008 -152,760 "/>
       <polygon class="fil3" points="-399,1008 -152,1008 -399,760 "/>
       <polygon class="fil5" points="-399,1008 -399,1255 -152,1008 "/>
       <polygon class="fil4" points="-399,760 -647,1008 -399,1008 "/>
       <polygon class="fil2" points="-647,1008 -399,1255 -399,1008 "/>
       <polygon class="fil1" points="96,1255 -152,1255 96,1503 "/>
       <polygon class="fil1" points="96,1735 96,1503 -136,1735 "/>
       <polygon class="fil3" points="-152,1255 -399,1255 -399,1503 "/>
       <polygon class="fil4" points="-647,1255 -647,1503 -399,1503 "/>
       <polygon class="fil2" points="-399,1255 -647,1255 -399,1503 "/>
       <polygon class="fil2" points="-647,1503 -647,1735 -631,1735 -399,1503 "/>
       <polygon class="fil3" points="96,1503 -152,1255 -152,1503 "/>
       <polygon class="fil2" points="-136,1735 96,1503 -152,1503 -152,1735 "/>
       <polygon class="fil5" points="-152,1503 -152,1255 -399,1503 "/>
       <polygon class="fil4" points="-399,1503 -168,1735 -152,1735 -152,1503 "/>
       <polygon class="fil3" points="-168,1735 -399,1503 -399,1735 "/>
       <polygon class="fil4" points="-399,1503 -631,1735 -399,1735 "/>
       <polygon class="fil1" points="96,-230 -152,-230 96,18 "/>
       <polygon class="fil1" points="96,265 96,18 -152,265 "/>
       <polygon class="fil2" points="96,513 96,265 -152,265 "/>
       <polygon class="fil3" points="-152,265 -152,513 96,513 "/>
       <polygon class="fil3" points="-152,-230 -399,-230 -399,18 "/>
       <polygon class="fil4" points="-399,513 -152,513 -152,265 "/>
       <polygon class="fil4" points="-647,-230 -647,18 -399,18 "/>
       <polygon class="fil2" points="-399,-230 -647,-230 -399,18 "/>
       <polygon class="fil2" points="-647,18 -647,265 -399,18 "/>
       <polygon class="fil5" points="-647,513 -399,513 -647,265 "/>
       <polygon class="fil3" points="96,18 -152,-230 -152,18 "/>
       <polygon class="fil2" points="-152,265 96,18 -152,18 "/>
       <polygon class="fil5" points="-152,18 -152,-230 -399,18 "/>
       <polygon class="fil4" points="-399,18 -152,265 -152,18 "/>
       <polygon class="fil3" points="-399,265 -152,265 -399,18 "/>
       <polygon class="fil5" points="-399,265 -399,513 -152,265 "/>
       <polygon class="fil4" points="-399,18 -647,265 -399,265 "/>
       <polygon class="fil2" points="-647,265 -399,513 -399,265 "/>
       <polygon class="fil2" points="96,-230 96,-463 -138,-463 "/>
       <polygon class="fil3" points="-152,-463 -152,-230 96,-230 -138,-463 "/>
       <polygon class="fil4" points="-399,-230 -152,-230 -152,-463 -166,-463 "/>
       <polygon class="fil5" points="-647,-230 -399,-230 -633,-463 -647,-463 "/>
       <polygon class="fil5" points="-399,-463 -399,-230 -166,-463 "/>
       <polygon class="fil2" points="-633,-463 -399,-230 -399,-463 "/>
       <polygon class="fil1" points="838,-463 838,-230 1072,-463 "/>
       <polygon class="fil1" points="1100,-463 1333,-230 1333,-463 "/>
       <polygon class="fil2" points="1333,-463 1333,-230 1373,-269 1373,-463 "/>
       <polygon class="fil3" points="1333,-230 1373,-230 1373,-269 "/>
       <polygon class="fil3" points="838,-230 838,18 1086,18 "/>
       <polygon class="fil4" points="1373,-230 1333,-230 1373,-190 "/>
       <polygon class="fil4" points="838,265 1086,265 1086,18 "/>
       <polygon class="fil2" points="838,18 838,265 1086,18 "/>
       <polygon class="fil2" points="1086,265 1333,265 1086,18 "/>
       <polygon class="fil5" points="1373,226 1333,265 1373,265 "/>
       <polygon class="fil3" points="1072,-463 838,-230 1086,-230 1086,-463 "/>
       <polygon class="fil2" points="1333,-230 1100,-463 1086,-463 1086,-230 "/>
       <polygon class="fil5" points="1086,-230 838,-230 1086,18 "/>
       <polygon class="fil4" points="1086,18 1333,-230 1086,-230 "/>
       <polygon class="fil3" points="1333,18 1333,-230 1086,18 "/>
       <polygon class="fil5" points="1333,18 1373,18 1373,-190 1333,-230 "/>
       <polygon class="fil4" points="1086,18 1333,265 1333,18 "/>
       <polygon class="fil2" points="1333,265 1373,226 1373,18 1333,18 "/>
       <polygon class="fil1" points="838,265 838,513 1086,265 "/>
       <polygon class="fil1" points="1333,265 1086,265 1333,513 "/>
       <polygon class="fil2" points="1373,265 1333,265 1333,513 1373,473 "/>
       <polygon class="fil3" points="1333,513 1373,513 1373,473 "/>
       <polygon class="fil3" points="838,513 838,760 1086,760 "/>
       <polygon class="fil4" points="1373,513 1333,513 1373,552 "/>
       <polygon class="fil4" points="838,1008 1086,1008 1086,760 "/>
       <polygon class="fil2" points="838,760 838,1008 1086,760 "/>
       <polygon class="fil2" points="1086,1008 1333,1008 1086,760 "/>
       <polygon class="fil5" points="1373,968 1333,1008 1373,1008 "/>
       <polygon class="fil3" points="1086,265 838,513 1086,513 "/>
       <polygon class="fil2" points="1333,513 1086,265 1086,513 "/>
       <polygon class="fil5" points="1086,513 838,513 1086,760 "/>
       <polygon class="fil4" points="1086,760 1333,513 1086,513 "/>
       <polygon class="fil3" points="1333,760 1333,513 1086,760 "/>
       <polygon class="fil5" points="1333,760 1373,760 1373,552 1333,513 "/>
       <polygon class="fil4" points="1086,760 1333,1008 1333,760 "/>
       <polygon class="fil2" points="1333,1008 1373,968 1373,760 1333,760 "/>
       <polygon class="fil1" points="838,1008 838,1255 1086,1008 "/>
       <polygon class="fil1" points="1333,1008 1086,1008 1333,1255 "/>
       <polygon class="fil2" points="1373,1008 1333,1008 1333,1255 1373,1216 "/>
       <polygon class="fil3" points="1333,1255 1373,1255 1373,1216 "/>
       <polygon class="fil3" points="838,1255 838,1503 1086,1503 "/>
       <polygon class="fil4" points="1373,1255 1333,1255 1373,1295 "/>
       <polygon class="fil4" points="1086,1735 1086,1503 854,1735 "/>
       <polygon class="fil2" points="838,1503 838,1735 854,1735 1086,1503 "/>
       <polygon class="fil2" points="1317,1735 1086,1503 1086,1735 "/>
       <polygon class="fil5" points="1373,1711 1349,1735 1373,1735 "/>
       <polygon class="fil3" points="1086,1008 838,1255 1086,1255 "/>
       <polygon class="fil2" points="1333,1255 1086,1008 1086,1255 "/>
       <polygon class="fil5" points="1086,1255 838,1255 1086,1503 "/>
       <polygon class="fil4" points="1086,1503 1333,1255 1086,1255 "/>
       <polygon class="fil3" points="1333,1503 1333,1255 1086,1503 "/>
       <polygon class="fil5" points="1333,1503 1373,1503 1373,1295 1333,1255 "/>
       <polygon class="fil4" points="1086,1503 1317,1735 1333,1735 1333,1503 "/>
       <polygon class="fil2" points="1349,1735 1373,1711 1373,1503 1333,1503 1333,1735 "/>
       <polygon class="fil2" points="96,1503 96,1735 327,1735 "/>
       <polygon class="fil3" points="343,1735 343,1503 96,1503 327,1735 "/>
       <polygon class="fil4" points="591,1503 343,1503 343,1735 359,1735 "/>
       <polygon class="fil5" points="838,1503 591,1503 822,1735 838,1735 "/>
       <polygon class="fil5" points="591,1735 591,1503 359,1735 "/>
       <polygon class="fil2" points="822,1735 591,1503 591,1735 "/>
       <polygon class="fil1" points="838,1503 838,1255 591,1503 "/>
       <polygon class="fil1" points="343,1503 591,1503 343,1255 "/>
       <polygon class="fil2" points="96,1503 343,1503 343,1255 "/>
       <polygon class="fil3" points="343,1255 96,1255 96,1503 "/>
       <polygon class="fil3" points="838,1255 838,1008 591,1008 "/>
       <polygon class="fil4" points="96,1008 96,1255 343,1255 "/>
       <polygon class="fil4" points="838,760 591,760 591,1008 "/>
       <polygon class="fil2" points="838,1008 838,760 591,1008 "/>
       <polygon class="fil2" points="591,760 343,760 591,1008 "/>
       <polygon class="fil2" points="96,760 96,1008 343,760 "/>
       <polygon class="fil3" points="591,1503 838,1255 591,1255 "/>
       <polygon class="fil2" points="343,1255 591,1503 591,1255 "/>
       <polygon class="fil5" points="591,1255 838,1255 591,1008 "/>
       <polygon class="fil4" points="591,1008 343,1255 591,1255 "/>
       <polygon class="fil3" points="343,1008 343,1255 591,1008 "/>
       <polygon class="fil5" points="343,1008 96,1008 343,1255 "/>
       <polygon class="fil5" points="591,1008 343,760 343,1008 "/>
       <polygon class="fil4" points="343,760 96,1008 343,1008 "/>
       <polygon class="fil2" points="96,14 96,261 343,14 "/>
       <polygon class="fil1" points="591,14 343,14 591,261 "/>
       <polygon class="fil2" points="838,14 591,14 591,261 "/>
       <polygon class="fil3" points="591,261 838,261 838,14 "/>
       <polygon class="fil3" points="96,261 96,509 343,509 "/>
       <polygon class="fil4" points="838,509 838,261 591,261 "/>
       <polygon class="fil4" points="96,756 343,756 343,509 "/>
       <polygon class="fil2" points="96,509 96,756 343,509 "/>
       <polygon class="fil2" points="343,756 591,756 343,509 "/>
       <polygon class="fil2" points="838,756 838,509 591,756 "/>
       <polygon class="fil3" points="343,14 96,261 343,261 "/>
       <polygon class="fil2" points="591,261 343,14 343,261 "/>
       <polygon class="fil5" points="343,261 96,261 343,509 "/>
       <polygon class="fil4" points="343,509 591,261 343,261 "/>
       <polygon class="fil3" points="591,509 591,261 343,509 "/>
       <polygon class="fil5" points="591,509 838,509 591,261 "/>
       <polygon class="fil5" points="343,509 591,756 591,509 "/>
       <polygon class="fil4" points="591,756 838,509 591,509 "/>
       <polygon class="fil2" points="838,18 838,-230 591,18 "/>
       <polygon class="fil1" points="343,18 591,18 343,-230 "/>
       <polygon class="fil2" points="96,18 343,18 343,-230 "/>
       <polygon class="fil3" points="343,-230 96,-230 96,18 "/>
       <polygon class="fil3" points="838,-230 838,-463 604,-463 "/>
       <polygon class="fil4" points="96,-463 96,-230 343,-230 109,-463 "/>
       <polygon class="fil3" points="591,18 838,-230 591,-230 "/>
       <polygon class="fil2" points="343,-230 591,18 591,-230 "/>
       <polygon class="fil5" points="591,-230 838,-230 604,-463 591,-463 "/>
       <polygon class="fil4" points="577,-463 343,-230 591,-230 591,-463 "/>
       <polygon class="fil3" points="343,-463 343,-230 577,-463 "/>
       <polygon class="fil5" points="109,-463 343,-230 343,-463 "/>
      </g>
      <polygon class="fil6" points="-1924,1734 -1924,-463 1373,-463 1373,1734 "/>
     </g>
    </g>
   </g>
   <path class="fil7" d="M52 0l504 0c29,0 52,23 52,52l0 504c0,29 -23,52 -52,52l-504 0c-29,0 -52,-23 -52,-52l0 -504c0,-29 23,-52 52,-52z"/>
   <g id="_2633526863968">
    <g>
     <path class="fil8" d="M135 230c0,9 4,18 7,24 8,16 17,25 32,36 28,21 73,33 110,33 26,0 42,0 66,-7 21,-5 36,-12 53,-23 10,-6 16,-12 24,-21 10,-9 19,-28 19,-42 0,0 -5,-5 -6,-6 -8,-7 -17,-9 -29,-9l-241 0c-11,0 -20,2 -28,9 -1,1 -7,6 -7,6z"/>
     <path class="fil8" d="M162 415l195 0c0,-14 -3,-14 3,-36 8,-30 36,-53 68,-53 9,0 19,2 26,6l1 -71c-1,0 -1,0 -1,0 0,1 0,1 0,1l-3 4c0,2 -2,3 -3,5 -7,10 -12,15 -20,23 -15,13 -31,22 -50,29 -13,6 -25,9 -40,12 -2,0 -5,1 -7,1 -15,2 -8,0 -10,16 -1,7 -1,8 -4,13 -11,17 -40,18 -52,1 -9,-14 0,-27 -6,-29l-15 -2c-25,-5 -54,-14 -75,-29 -3,-3 -7,-5 -10,-8 -11,-8 -18,-15 -25,-26l-7 -11 0 1 0 2 0 1 0 2 0 1 0 2 0 1 0 2 0 1 0 2 0 1 0 2 0 1 0 2 0 1 0 1 0 2 0 1 0 2 0 1 0 2 0 1 0 2 0 1 0 2 0 1 0 2 0 1 0 2 0 1 0 2 0 1 0 2 0 1 0 2 0 1 0 1 0 2 0 1 0 2 0 1 0 2 0 1 0 2 0 1 0 2 0 1 0 2 0 1 0 2 0 1 0 2 0 1 0 2 0 1 0 2 0 1 0 1 0 2 0 1 0 2 0 1 0 2 0 1 0 25c0,7 3,12 6,17 4,8 17,18 29,18z"/>
     <path class="fil8" d="M224 206l20 0c1,-3 2,-7 4,-9 5,-9 14,-15 25,-15l35 0c15,0 26,10 29,24l21 0c0,-21 -22,-44 -47,-44l-40 0c-25,0 -47,23 -47,44z"/>
     <path class="fil8" d="M276 350c0,17 29,17 29,0l0 -9 -29 0 0 9z"/>
    </g>
    <g>
     <path class="fil8" d="M420 354l3 0c16,0 31,15 31,31 0,14 -7,26 -19,31 -33,14 -59,-25 -39,-49 6,-7 14,-13 24,-13zm-45 33c0,8 3,16 6,22 1,2 1,2 2,4 5,7 11,12 19,16 15,8 31,4 45,-3 0,2 8,9 10,11 5,5 7,9 14,9 6,0 10,-4 10,-11 0,-5 -6,-9 -11,-15 -3,-3 -7,-6 -9,-9 10,-15 9,-39 -2,-53 -1,-1 -2,-1 -3,-3 -3,-4 -12,-9 -17,-12 -31,-12 -64,11 -64,44z"/>
     <path class="fil8" d="M396 386c0,8 5,19 9,19 14,0 27,-3 35,-17 1,-2 3,-6 3,-9 1,-5 1,-6 -2,-9 -2,-3 -4,-4 -7,-6 -6,-3 -13,-4 -20,-2 0,0 -1,1 -2,1 -9,3 -16,13 -16,23z"/>
    </g>
    <g>
     <path class="fil8" d="M135 230c0,9 4,18 7,24 8,16 17,25 32,36 28,21 73,33 110,33 26,0 42,0 66,-7 21,-5 36,-12 53,-23 10,-6 16,-12 24,-21 10,-9 19,-28 19,-42 0,0 -5,-5 -6,-6 -8,-7 -17,-9 -29,-9l-241 0c-11,0 -20,2 -28,9 -1,1 -7,6 -7,6z"/>
     <path class="fil8" d="M162 415l195 0c0,-14 -3,-14 3,-36 8,-30 36,-53 68,-53 9,0 19,2 26,6l1 -71c-1,0 -1,0 -1,0 0,1 0,1 0,1l-3 4c0,2 -2,3 -3,5 -7,10 -12,15 -20,23 -15,13 -31,22 -50,29 -13,6 -25,9 -40,12 -2,0 -5,1 -7,1 -15,2 -8,0 -10,16 -1,7 -1,8 -4,13 -11,17 -40,18 -52,1 -9,-14 0,-27 -6,-29l-15 -2c-25,-5 -54,-14 -75,-29 -3,-3 -7,-5 -10,-8 -11,-8 -18,-15 -25,-26l-7 -11 0 1 0 2 0 1 0 2 0 1 0 2 0 1 0 2 0 1 0 2 0 1 0 2 0 1 0 2 0 1 0 1 0 2 0 1 0 2 0 1 0 2 0 1 0 2 0 1 0 2 0 1 0 2 0 1 0 2 0 1 0 2 0 1 0 2 0 1 0 2 0 1 0 1 0 2 0 1 0 2 0 1 0 2 0 1 0 2 0 1 0 2 0 1 0 2 0 1 0 2 0 1 0 2 0 1 0 2 0 1 0 2 0 1 0 1 0 2 0 1 0 2 0 1 0 2 0 1 0 25c0,7 3,12 6,17 4,8 17,18 29,18z"/>
     <path class="fil8" d="M224 206l20 0c1,-3 2,-7 4,-9 5,-9 14,-15 25,-15l35 0c15,0 26,10 29,24l21 0c0,-21 -22,-44 -47,-44l-40 0c-25,0 -47,23 -47,44z"/>
     <path class="fil8" d="M276 350c0,17 29,17 29,0l0 -9 -29 0 0 9z"/>
    </g>
   </g>
  </g>
 </g>
</svg>
