<?xml version="1.0" encoding="UTF-8"?>
<!DOCTYPE svg PUBLIC "-//W3C//DTD SVG 1.1//EN" "http://www.w3.org/Graphics/SVG/1.1/DTD/svg11.dtd">
<!-- Creator: CorelDRAW X7 -->
<svg xmlns="http://www.w3.org/2000/svg" xml:space="preserve" width="133.277mm" height="117.382mm" version="1.1" style="shape-rendering:geometricPrecision; text-rendering:geometricPrecision; image-rendering:optimizeQuality; fill-rule:evenodd; clip-rule:evenodd"
viewBox="0 0 3019 2659"
 xmlns:xlink="http://www.w3.org/1999/xlink">
 <defs>
  <style type="text/css">
   <![CDATA[
    .fil11 {fill:#FEFEFE}
    .fil0 {fill:#FEFEFE}
    .fil1 {fill:#C5C6C6}
    .fil4 {fill:#EBB799}
    .fil10 {fill:#E7AE8B}
    .fil16 {fill:#E5EDF2}
    .fil5 {fill:#E1A888}
    .fil2 {fill:#C3C5E4}
    .fil13 {fill:#97BFE6}
    .fil12 {fill:#7BA9DA}
    .fil15 {fill:#70ACDE}
    .fil14 {fill:#659CD3}
    .fil6 {fill:#6D5FA5}
    .fil9 {fill:#524593}
    .fil18 {fill:#4D4694}
    .fil3 {fill:#46435C}
    .fil17 {fill:#393A46}
    .fil7 {fill:#3F394E}
    .fil8 {fill:#3A3545}
   ]]>
  </style>
 </defs>
 <g id="Layer_x0020_1">
  <metadata id="CorelCorpID_0Corel-Layer"/>
  <g id="_2199738963648">
   <g>
    <path class="fil0" d="M2158 1272c-459,-277 -675,-1128 -1383,-619 -708,508 -414,1553 264,1806 678,253 1551,110 1797,-359 419,-803 -371,-642 -678,-828z"/>
    <path class="fil0" d="M561 2047c180,-76 442,-129 771,-35 596,170 968,52 967,-718 353,99 888,75 527,766 -246,470 -1118,613 -1797,360 -191,-71 -351,-206 -468,-373z"/>
    <path class="fil0" d="M5 1394l5 3c0,0 3,-4 7,-8 5,-5 10,-11 14,-14 6,-5 12,-11 19,-16 8,-5 17,-8 31,-8 9,0 20,1 34,6 4,1 8,3 12,4 2,1 5,2 9,2 8,0 20,-3 32,-13 13,-10 22,-18 31,-24 9,-6 18,-9 35,-10l0 0c9,0 15,3 21,7 9,6 16,17 23,28 8,10 17,21 30,26 11,5 28,9 45,12 9,2 17,4 23,5 7,1 12,2 14,3l2 -5 0 -5 -387 1 0 6 5 3 -5 -3 0 5 387 -2c3,0 5,-2 5,-4 1,-3 -1,-5 -3,-6 -4,-1 -9,-2 -15,-4 -10,-2 -24,-4 -36,-7 -12,-3 -24,-6 -31,-9 -13,-5 -22,-19 -32,-33 -6,-7 -11,-14 -19,-20 -7,-5 -16,-9 -27,-8l-1 0c-17,0 -30,4 -40,11 -11,6 -19,15 -31,25 -11,8 -20,10 -26,10 -3,0 -4,0 -5,-1 -4,-1 -8,-3 -13,-5 -15,-4 -27,-6 -37,-6 -16,0 -27,4 -36,10 -9,5 -15,12 -21,17 -9,7 -23,23 -23,23 -1,2 -1,4 -1,6 1,2 3,3 5,3l0 -5z"/>
    <path class="fil1" d="M1506 975l-5 -16 -6 16c-5,13 -16,25 -31,32 15,6 26,18 31,31l6 16 5 -16c5,-13 16,-25 32,-31 -16,-7 -27,-19 -32,-32z"/>
    <path class="fil1" d="M999 1894l-6 -16 -5 16c-5,14 -16,25 -31,32 15,7 26,18 31,32l5 16 6 -16c5,-14 16,-25 31,-32 -15,-7 -26,-18 -31,-32z"/>
    <path class="fil1" d="M2520 1797l-3 -10 -4 10c-3,9 -11,17 -21,21 10,5 18,12 21,21l4 11 3 -11c3,-9 11,-16 21,-21 -10,-4 -18,-12 -21,-21z"/>
    <path class="fil1" d="M754 1264l-4 -11 -4 11c-3,9 -10,16 -20,21 10,4 17,12 20,21l4 10 4 -10c3,-9 10,-17 20,-21 -10,-5 -17,-12 -20,-21z"/>
    <path class="fil2" d="M1738 2025l407 0c82,0 151,-62 159,-143l59 -612 -407 0 -8 355 -210 400z"/>
    <path class="fil3" d="M1738 2018c104,-4 209,-6 314,-8l78 0c7,0 14,0 19,-1 6,0 12,0 18,-1 12,-2 23,-6 34,-10 44,-19 77,-59 86,-106 2,-11 3,-24 4,-37l4 -39 8 -78c5,-53 10,-105 16,-157 11,-104 22,-208 35,-312 0,-5 5,-8 10,-8 5,1 9,5 8,10 -7,105 -15,209 -25,313 -4,52 -8,105 -13,157l-8 78 -3 39c-2,13 -3,25 -5,40 -11,57 -51,107 -105,128 -13,6 -27,10 -41,12 -7,1 -15,1 -22,1 -7,1 -13,0 -20,1l-78 -1c-105,-2 -210,-4 -314,-8 -4,0 -7,-3 -7,-7 1,-3 3,-6 7,-6z"/>
    <polygon class="fil3" points="1956,2036 1956,2468 1986,2468 1986,2036 "/>
    <polygon class="fil3" points="734,1632 2048,1632 2048,1652 734,1652 "/>
    <polygon class="fil4" points="1893,2549 1907,2599 1839,2620 1818,2558 "/>
    <polygon class="fil4" points="1483,2513 1483,2553 1543,2553 1550,2513 "/>
    <path class="fil5" d="M1945 1353l-91 224 -2 5c-6,13 -19,21 -32,21l-258 -2c-11,0 -19,-8 -19,-19 0,-9 7,-17 16,-18l256 -38 -34 27 61 -234c7,-29 37,-47 66,-39 29,8 46,37 39,66 -1,2 -2,5 -2,7z"/>
    <path class="fil5" d="M1590 1559l-89 -2c-21,0 -39,20 -39,44l129 0 -1 -42z"/>
    <path class="fil6" d="M1802 1380l141 35 23 -126c6,-34 -17,-66 -52,-71 -29,-5 -57,12 -67,39l-45 123z"/>
    <path class="fil7" d="M1948 1625l-436 221c-40,20 -64,63 -62,108l33 559 67 0 90 -598 339 -238 -31 -52z"/>
    <path class="fil8" d="M1871 861c0,0 121,-41 184,74 4,6 8,13 13,18 13,16 40,44 70,53 117,36 192,258 -43,278 -293,25 -376,-33 -334,-150 30,-83 3,-142 3,-142l107 -131z"/>
    <path class="fil9" d="M1967 1160l-62 28c-37,16 -61,53 -61,94 1,82 20,286 89,364l212 0c33,-144 14,-366 14,-366 2,-55 -38,-102 -92,-108l-100 -12z"/>
    <path class="fil10" d="M1973 1227l0 0c-22,3 -42,-13 -45,-35l-17 -134 81 -10 17 134c3,22 -13,43 -36,45z"/>
    <path class="fil4" d="M1907 1158l-3 0c-54,7 -103,-30 -110,-84l-15 -117 197 -26 15 117c7,54 -31,103 -84,110z"/>
    <path class="fil8" d="M1998 1003l-17 35c0,0 -23,20 -29,-29 -5,-42 -35,-35 -35,-35 0,0 -103,78 -164,25 -47,-42 30,-119 118,-138l116 51 11 91z"/>
    <path class="fil4" d="M1969 1040c2,17 19,30 37,28 17,-2 30,-18 28,-36 -2,-18 -18,-31 -36,-29 -18,2 -31,19 -29,37z"/>
    <path class="fil11" d="M1996 1051c0,3 3,5 6,5 4,0 6,-3 5,-7 0,-3 -3,-5 -6,-5 -3,1 -6,4 -5,7z"/>
    <path class="fil11" d="M1829 1101l55 -12c0,0 3,25 -27,29 -24,3 -28,-17 -28,-17z"/>
    <path class="fil3" d="M2145 1646l-212 0 -338 205c-40,24 -56,74 -37,117l260 590 75 -9 -140 -569c117,-5 335,-23 392,-86 96,-108 0,-248 0,-248z"/>
    <path class="fil12" d="M1423 1276l121 324 -393 0 -111 -305c-4,-9 3,-19 13,-19l370 0z"/>
    <path class="fil13" d="M1423 1276l19 0c10,0 19,6 23,16l113 308 -34 0 -121 -324z"/>
    <path class="fil14" d="M1181 1632l363 0 0 -32 -391 0 0 3c0,16 12,29 28,29z"/>
    <path class="fil15" d="M1544 1632l242 0c9,0 16,-7 16,-16 0,-9 -7,-16 -16,-16l-242 0 0 32z"/>
    <path class="fil16" d="M1325 1437c7,23 -2,46 -20,52 -19,6 -40,-7 -47,-30 -7,-22 2,-45 20,-51 18,-7 39,7 47,29z"/>
    <path class="fil4" d="M2110 1347l-91 228 -2 5c-5,13 -18,22 -32,22l-258 -2c-11,0 -19,-9 -19,-19 0,-10 7,-18 16,-19l256 -38 -35 27 61 -238c8,-29 38,-47 67,-40 29,8 47,38 39,67 0,2 -1,5 -2,7z"/>
    <path class="fil4" d="M1755 1557l-89 -2c-21,0 -39,20 -39,45l129 0 -1 -43z"/>
    <path class="fil6" d="M1967 1375l141 35 23 -128c6,-35 -17,-67 -52,-73 -29,-4 -57,13 -67,41l-45 125z"/>
    <path class="fil17" d="M1795 2572l-33 33 -74 18c-8,1 -14,7 -17,14l-3 11c-2,6 2,11 7,11l239 -6c8,0 14,-7 13,-14l-19 -68 -36 9c-12,4 -25,2 -36,-4l-13 -8c-9,-5 -21,-3 -28,4z"/>
    <path class="fil17" d="M1453 2525l-33 33 -74 18c-8,2 -14,7 -17,15l-4 10c-1,6 3,11 8,11l216 -4c8,-1 14,-7 13,-15l-5 -69 -27 9c-12,4 -25,2 -36,-4l-13 -7c-9,-6 -21,-4 -28,3z"/>
    <path class="fil12" d="M954 1533c0,0 100,1 79,-102 0,0 -104,10 -79,102z"/>
    <path class="fil12" d="M942 1528c0,0 -101,0 -80,-104 0,0 106,11 80,104z"/>
    <path class="fil14" d="M947 1528c0,0 -74,-74 13,-139 0,0 69,86 -13,139z"/>
    <polygon class="fil9" points="1027,1519 866,1519 891,1632 1000,1632 "/>
    <polygon class="fil3" points="1336,1652 1336,2443 1360,2443 1360,1652 "/>
   </g>
   <g>
    <path class="fil2" d="M978 466l0 346c0,30 -24,54 -54,54l-739 0c-30,0 -54,-24 -54,-54l0 -346c0,-30 24,-54 54,-54l739 0c30,0 54,24 54,54z"/>
    <path class="fil12" d="M978 466l0 30 -847 0 0 -30c0,-30 24,-54 54,-54l739 0c30,0 54,24 54,54z"/>
    <path class="fil11" d="M190 458c0,6 -5,11 -12,11 -6,0 -11,-5 -11,-11 0,-7 5,-12 11,-12 7,0 12,5 12,12z"/>
    <path class="fil11" d="M235 458c0,6 -5,11 -11,11 -6,0 -12,-5 -12,-11 0,-7 6,-12 12,-12 6,0 11,5 11,12z"/>
    <path class="fil11" d="M281 458c0,6 -5,11 -12,11 -6,0 -11,-5 -11,-11 0,-7 5,-12 11,-12 7,0 12,5 12,12z"/>
    <path class="fil11" d="M416 704l-170 0c-6,0 -10,-5 -10,-10l0 -138c0,-6 4,-10 10,-10l170 0c6,0 10,4 10,10l0 138c0,5 -4,10 -10,10z"/>
    <path class="fil11" d="M861 777l-625 0c-7,0 -12,-5 -12,-11 0,-7 5,-12 12,-12l625 0c6,0 12,5 12,12 0,6 -6,11 -12,11z"/>
    <path class="fil11" d="M861 687l-379 0c-7,0 -12,-5 -12,-12 0,-6 5,-12 12,-12l379 0c6,0 12,6 12,12 0,7 -6,12 -12,12z"/>
    <path class="fil11" d="M717 602l-235 0c-7,0 -12,-5 -12,-12 0,-6 5,-12 12,-12l235 0c6,0 11,6 11,12 0,7 -5,12 -11,12z"/>
   </g>
   <path class="fil0" d="M2107 163c0,0 27,-31 44,-46 30,-25 64,-71 174,-37 9,2 17,6 25,9 10,4 40,4 71,-20 48,-39 68,-68 134,-69 78,-1 91,96 151,121 39,16 140,31 161,38l-760 4z"/>
   <g>
    <path class="fil12" d="M1956 22l-352 0c-19,0 -35,15 -35,34l0 191c0,19 16,34 35,34l19 0 0 87 87 -87 246 0c19,0 35,-15 35,-34l0 -191c0,-19 -16,-34 -35,-34z"/>
    <path class="fil11" d="M1653 208l83 0c7,0 12,5 12,12 0,6 -5,11 -12,11l-83 0c-6,0 -11,-5 -11,-11 0,-7 5,-12 11,-12z"/>
    <path class="fil11" d="M1653 150l153 0c7,0 12,5 12,11 0,7 -5,12 -12,12l-153 0c-6,0 -11,-5 -11,-12 0,-6 5,-11 11,-11z"/>
    <path class="fil11" d="M1653 93l263 0c7,0 12,6 12,12 0,6 -5,12 -12,12l-263 0c-6,0 -11,-6 -11,-12 0,-6 5,-12 11,-12z"/>
   </g>
   <g>
    <path class="fil18" d="M2376 791l606 0c20,0 37,-17 37,-37l0 -172c0,-20 -17,-37 -37,-37l-606 0c-20,0 -37,17 -37,37l0 172c0,20 17,37 37,37z"/>
    <path class="fil11" d="M2808 739l125 0c7,0 12,-6 12,-12l0 -118c0,-6 -5,-12 -12,-12l-125 0c-7,0 -12,6 -12,12l0 118c0,6 5,12 12,12z"/>
    <path class="fil11" d="M2423 627l324 0c5,0 10,-5 10,-10 0,-6 -5,-10 -10,-10l-324 0c-6,0 -10,4 -10,10 0,5 4,10 10,10z"/>
    <path class="fil11" d="M2634 678l113 0c5,0 10,-4 10,-10l0 0c0,-6 -5,-10 -10,-10l-113 0c-6,0 -10,4 -10,10l0 0c0,6 4,10 10,10z"/>
    <path class="fil11" d="M2423 678l135 0c6,0 10,-4 10,-10l0 0c0,-6 -4,-10 -10,-10l-135 0c-6,0 -10,4 -10,10l0 0c0,6 4,10 10,10z"/>
    <path class="fil11" d="M2504 729l243 0c5,0 10,-4 10,-10 0,-5 -5,-10 -10,-10l-243 0c-6,0 -10,5 -10,10 0,6 4,10 10,10z"/>
   </g>
  </g>
 </g>
</svg>
