<svg id="d21f3ede-dfcf-4deb-a2df-f6976093a6d3" data-name="Layer 1" xmlns="http://www.w3.org/2000/svg" viewBox="0 0 96.06 84.61"><title>chss</title><path d="M394.47,390.75c-14.59-8.82-21.47-35.9-44-19.72s-13.18,49.44,8.4,57.48S408.22,432,416,417.08C429.39,391.55,404.25,396.67,394.47,390.75Z" transform="translate(-325.81 -350.27)" fill="#fff" fill-rule="evenodd"/><path d="M343.67,415.4c5.71-2.41,14.06-4.1,24.53-1.11,19,5.4,30.79,1.65,30.77-22.85,11.2,3.15,28.26,2.4,16.75,24.39-7.81,14.94-35.58,19.48-57.16,11.44A31.88,31.88,0,0,1,343.67,415.4Z" transform="translate(-325.81 -350.27)" fill="#fff" fill-rule="evenodd"/><path d="M326,394.62l0.13,0.11,0.25-.28a6.21,6.21,0,0,1,.44-0.44,4.72,4.72,0,0,1,.61-0.5,1.76,1.76,0,0,1,1-.26,3.71,3.71,0,0,1,1.08.18l0.39,0.15a0.74,0.74,0,0,0,.28,0,1.7,1.7,0,0,0,1-.4c0.4-.32.68-0.59,1-0.78a2,2,0,0,1,1.11-.3h0a1.08,1.08,0,0,1,.66.22,3.9,3.9,0,0,1,.75.87,2.33,2.33,0,0,0,.94.85,9.66,9.66,0,0,0,1.44.37l0.73,0.15,0.44,0.1,0.05-.16v-0.17l-12.3.06v0.17l0.13,0.11-0.13-.11v0.17l12.3-.06a0.17,0.17,0,0,0,.05-0.34l-0.48-.11-1.13-.23a6.91,6.91,0,0,1-1-.27,2.89,2.89,0,0,1-1-1.07,2.84,2.84,0,0,0-.58-0.61,1.43,1.43,0,0,0-.87-0.28h0a2.3,2.3,0,0,0-1.29.36c-0.33.21-.61,0.49-1,0.8a1.36,1.36,0,0,1-.82.32,0.43,0.43,0,0,1-.15,0,4.21,4.21,0,0,0-.42-0.16,4.05,4.05,0,0,0-1.18-.2,2.1,2.1,0,0,0-1.15.31,4.93,4.93,0,0,0-.66.53,9.89,9.89,0,0,0-.73.75,0.17,0.17,0,0,0,.13.29v-0.17Z" transform="translate(-325.81 -350.27)" fill="#fff" fill-rule="evenodd"/><path d="M373.74,381.29l-0.18-.51-0.18.51a1,1,0,0,0,0,2l0.18,0.51,0.18-.51A1,1,0,0,0,373.74,381.29Z" transform="translate(-325.81 -350.27)" fill="#c5c6c6" fill-rule="evenodd"/><path d="M357.6,410.55l-0.18-.51-0.18.51a1,1,0,0,0,0,2l0.18,0.51,0.18-.51A1,1,0,0,0,357.6,410.55Z" transform="translate(-325.81 -350.27)" fill="#c5c6c6" fill-rule="evenodd"/><path d="M406,407.46l-0.12-.34-0.12.34a0.67,0.67,0,0,0,0,1.33l0.12,0.34,0.12-.34A0.67,0.67,0,0,0,406,407.46Z" transform="translate(-325.81 -350.27)" fill="#c5c6c6" fill-rule="evenodd"/><path d="M349.79,390.48l-0.12-.34-0.12.34a0.67,0.67,0,0,0,0,1.33l0.12,0.34,0.12-.34A0.67,0.67,0,0,0,349.79,390.48Z" transform="translate(-325.81 -350.27)" fill="#c5c6c6" fill-rule="evenodd"/><path d="M381.1,414.69h13a5.1,5.1,0,0,0,5.07-4.54L401,390.69H388L387.78,402Z" transform="translate(-325.81 -350.27)" fill="#c3c4e4" fill-rule="evenodd"/><path d="M381.1,414.48c3.33-.13,6.66-0.19,10-0.25l2.5,0c0.2,0,.43,0,0.61,0a3.65,3.65,0,0,0,.56-0.06,4.36,4.36,0,0,0,1.08-.31,4.67,4.67,0,0,0,2.73-3.36c0.07-.35.1-0.78,0.14-1.19l0.12-1.24,0.24-2.49c0.16-1.66.34-3.31,0.51-5q0.52-5,1.11-9.93a0.3,0.3,0,0,1,.59.06q-0.35,5-.8,10c-0.14,1.66-.28,3.32-0.44,5l-0.23,2.49-0.12,1.24c0,0.42-.06.81-0.15,1.28a5.55,5.55,0,0,1-3.33,4.08,5.32,5.32,0,0,1-1.32.36,4.62,4.62,0,0,1-.68.06c-0.24,0-.42,0-0.64,0l-2.5,0c-3.33-.05-6.66-0.11-10-0.25A0.21,0.21,0,0,1,381.1,414.48Z" transform="translate(-325.81 -350.27)" fill="#3f3b57" fill-rule="evenodd"/><rect x="62.23" y="64.79" width="0.96" height="13.74" fill="#3f3b57"/><rect x="23.37" y="51.92" width="41.78" height="0.65" fill="#3f3b57"/><polygon points="60.23 81.12 60.67 82.71 58.51 83.37 57.84 81.4 60.23 81.12" fill="#ebb798" fill-rule="evenodd"/><polygon points="47.19 79.97 47.19 81.25 49.1 81.25 49.32 79.97 47.19 79.97" fill="#ebb798" fill-rule="evenodd"/><path d="M387.68,393.31l-2.89,7.13-0.06.16a1.09,1.09,0,0,1-1,.68l-8.22-.06a0.6,0.6,0,0,1-.08-1.2l8.13-1.19-1.08.84,1.94-7.44a1.73,1.73,0,0,1,3.34.87A1.81,1.81,0,0,1,387.68,393.31Z" transform="translate(-325.81 -350.27)" fill="#e1a786" fill-rule="evenodd"/><path d="M376.39,399.88l-2.81-.06a1.33,1.33,0,0,0-1.26,1.4h4.1Z" transform="translate(-325.81 -350.27)" fill="#e1a786" fill-rule="evenodd"/><path d="M383.14,394.18l4.5,1.1,0.74-4a1.94,1.94,0,0,0-1.65-2.26,2,2,0,0,0-2.14,1.26Z" transform="translate(-325.81 -350.27)" fill="#695aa4" fill-rule="evenodd"/><path d="M387.78,402l-13.85,7a3.62,3.62,0,0,0-2,3.44l1,17.79h2.12l2.87-19,10.78-7.57Z" transform="translate(-325.81 -350.27)" fill="#362f48" fill-rule="evenodd"/><path d="M385.34,377.67a5,5,0,0,1,5.87,2.34,3.69,3.69,0,0,0,.4.6,5.41,5.41,0,0,0,2.21,1.67c3.75,1.15,6.12,8.23-1.34,8.86-9.33.79-12-1.05-10.64-4.77a6.43,6.43,0,0,0,.1-4.54Z" transform="translate(-325.81 -350.27)" fill="#302a3d" fill-rule="evenodd"/><path d="M388.41,387.17l-2,.89a3.25,3.25,0,0,0-1.93,3c0,2.61.62,9.11,2.83,11.59h6.73c1-4.6.44-11.67,0.44-11.67a3.33,3.33,0,0,0-2.93-3.43Z" transform="translate(-325.81 -350.27)" fill="#4c3d91" fill-rule="evenodd"/><path d="M388.6,389.32h0a1.29,1.29,0,0,1-1.43-1.12l-0.55-4.28,2.56-.3,0.54,4.25A1.29,1.29,0,0,1,388.6,389.32Z" transform="translate(-325.81 -350.27)" fill="#e7ad89" fill-rule="evenodd"/><path d="M386.48,387.12h-0.1a3.12,3.12,0,0,1-3.49-2.69l-0.49-3.73,6.28-.82,0.49,3.73A3.12,3.12,0,0,1,386.48,387.12Z" transform="translate(-325.81 -350.27)" fill="#ebb798" fill-rule="evenodd"/><path d="M389.38,382.19l-0.54,1.11s-0.71.62-.92-0.94c-0.17-1.32-1.13-1.09-1.13-1.09s-3.27,2.48-5.2.78c-1.52-1.34.94-3.8,3.74-4.39l3.68,1.61Z" transform="translate(-325.81 -350.27)" fill="#302a3d" fill-rule="evenodd"/><circle cx="389.5" cy="383.22" r="1.04" transform="translate(-368.97 -300.77) rotate(-6.89)" fill="#ebb798"/><circle cx="389.5" cy="383.68" r="0.19" transform="translate(-369.53 -300.12) rotate(-6.98)" fill="#fff"/><path d="M384,385.31l1.76-.38a0.87,0.87,0,0,1-.88.9A0.72,0.72,0,0,1,384,385.31Z" transform="translate(-325.81 -350.27)" fill="#fff" fill-rule="evenodd"/><path d="M394.06,402.66h-6.73l-10.77,6.51a3,3,0,0,0-1.18,3.72l8.27,18.79,2.39-.28-4.44-18.13c3.73-.16,10.66-0.72,12.47-2.74C397.12,407.11,394.06,402.66,394.06,402.66Z" transform="translate(-325.81 -350.27)" fill="#3f3b57" fill-rule="evenodd"/><path d="M371.09,390.87l3.84,10.33H362.45l-3.55-9.73a0.45,0.45,0,0,1,.42-0.6h11.78Z" transform="translate(-325.81 -350.27)" fill="#79a8da" fill-rule="evenodd"/><path d="M371.09,390.87h0.6a0.77,0.77,0,0,1,.72.5l3.62,9.82h-1.1Z" transform="translate(-325.81 -350.27)" fill="#96bee6" fill-rule="evenodd"/><path d="M363.39,402.19h11.55v-1H362.48v0.09A0.9,0.9,0,0,0,363.39,402.19Z" transform="translate(-325.81 -350.27)" fill="#619bd3" fill-rule="evenodd"/><path d="M374.94,402.19h7.71a0.5,0.5,0,1,0,0-1h-7.71v1Z" transform="translate(-325.81 -350.27)" fill="#6dabde" fill-rule="evenodd"/><ellipse cx="366.9" cy="396.35" rx="1.12" ry="1.36" transform="translate(-431.79 -214.87) rotate(-18.32)" fill="#e5edf3"/><path d="M393,393.12l-2.89,7.26-0.06.16a1.1,1.1,0,0,1-1,.69l-8.22-.05a0.61,0.61,0,0,1-.08-1.21l8.13-1.2-1.09.85,1.94-7.57a1.74,1.74,0,0,1,3.37.86A1.93,1.93,0,0,1,393,393.12Z" transform="translate(-325.81 -350.27)" fill="#ebb798" fill-rule="evenodd"/><path d="M381.64,399.82l-2.81-.06a1.35,1.35,0,0,0-1.26,1.43h4.1Z" transform="translate(-325.81 -350.27)" fill="#ebb798" fill-rule="evenodd"/><path d="M388.39,394l4.49,1.12,0.74-4.08a2,2,0,0,0-3.79-1Z" transform="translate(-325.81 -350.27)" fill="#695aa4" fill-rule="evenodd"/><path d="M382.92,432.11l-1,1-2.36.57a0.74,0.74,0,0,0-.52.47l-0.12.34a0.26,0.26,0,0,0,.25.34l7.59-.18a0.43,0.43,0,0,0,.42-0.46l-0.6-2.15-1.15.27a1.41,1.41,0,0,1-1.15-.12l-0.41-.24A0.75,0.75,0,0,0,382.92,432.11Z" transform="translate(-325.81 -350.27)" fill="#2f2f3e" fill-rule="evenodd"/><path d="M372,430.62l-1,1-2.36.57a0.74,0.74,0,0,0-.52.47L368,433a0.26,0.26,0,0,0,.25.34l6.87-.14a0.43,0.43,0,0,0,.42-0.46l-0.18-2.2-0.85.28a1.41,1.41,0,0,1-1.15-.12l-0.41-.24A0.75,0.75,0,0,0,372,430.62Z" transform="translate(-325.81 -350.27)" fill="#2f2f3e" fill-rule="evenodd"/><path d="M356.18,399.06a2.5,2.5,0,0,0,2.52-3.26S355.36,396.13,356.18,399.06Z" transform="translate(-325.81 -350.27)" fill="#79a8da" fill-rule="evenodd"/><path d="M355.78,398.88a2.53,2.53,0,0,1-2.55-3.3S356.61,395.92,355.78,398.88Z" transform="translate(-325.81 -350.27)" fill="#79a8da" fill-rule="evenodd"/><path d="M355.93,398.89a2.82,2.82,0,0,1,.42-4.44S358.57,397.2,355.93,398.89Z" transform="translate(-325.81 -350.27)" fill="#619bd3" fill-rule="evenodd"/><polygon points="32.69 48.34 27.55 48.34 28.37 51.91 31.8 51.91 32.69 48.34" fill="#4c3d91" fill-rule="evenodd"/><rect x="42.52" y="52.57" width="0.77" height="25.17" fill="#3f3b57"/><rect x="4.16" y="13.09" width="26.97" height="14.47" rx="1.72" ry="1.72" fill="#c3c4e4"/><path d="M356.93,365.08v1H330v-1a1.72,1.72,0,0,1,1.72-1.72h23.52A1.72,1.72,0,0,1,356.93,365.08Z" transform="translate(-325.81 -350.27)" fill="#79a8da" fill-rule="evenodd"/><circle cx="5.68" cy="14.56" r="0.36" fill="#fff"/><circle cx="7.12" cy="14.56" r="0.36" fill="#fff"/><circle cx="8.57" cy="14.56" r="0.36" fill="#fff"/><rect x="7.5" y="17.37" width="6.05" height="5.02" rx="0.32" ry="0.32" fill="#fff"/><path d="M353.2,375H333.31a0.38,0.38,0,1,1,0-.76H353.2A0.38,0.38,0,0,1,353.2,375Z" transform="translate(-325.81 -350.27)" fill="#fff" fill-rule="evenodd"/><path d="M353.2,372.14H341.13a0.38,0.38,0,0,1,0-.76H353.2A0.38,0.38,0,0,1,353.2,372.14Z" transform="translate(-325.81 -350.27)" fill="#fff" fill-rule="evenodd"/><path d="M348.61,369.44h-7.47a0.38,0.38,0,0,1,0-.76h7.47A0.38,0.38,0,0,1,348.61,369.44Z" transform="translate(-325.81 -350.27)" fill="#fff" fill-rule="evenodd"/><path d="M392.86,355.45a19,19,0,0,1,1.39-1.45c1-.82,2-2.27,5.54-1.2a8.2,8.2,0,0,1,.8.3,2.57,2.57,0,0,0,2.24-.64c1.55-1.23,2.16-2.17,4.29-2.19,2.48,0,2.87,3.05,4.79,3.85,1.23,0.5,4.46,1,5.13,1.23Z" transform="translate(-325.81 -350.27)" fill="#fff" fill-rule="evenodd"/><path d="M388,351H376.85a1.1,1.1,0,0,0-1.11,1.1v6a1.1,1.1,0,0,0,1.11,1.1h0.6V362l2.77-2.77H388a1.1,1.1,0,0,0,1.11-1.1v-6A1.1,1.1,0,0,0,388,351Z" transform="translate(-325.81 -350.27)" fill="#79a8da" fill-rule="evenodd"/><path d="M378.42,356.89h2.64a0.37,0.37,0,1,1,0,.74h-2.64A0.37,0.37,0,0,1,378.42,356.89Z" transform="translate(-325.81 -350.27)" fill="#fff" fill-rule="evenodd"/><path d="M378.42,355h4.87a0.37,0.37,0,1,1,0,.74h-4.87A0.37,0.37,0,0,1,378.42,355Z" transform="translate(-325.81 -350.27)" fill="#fff" fill-rule="evenodd"/><path d="M378.42,353.24h8.37a0.37,0.37,0,0,1,0,.74h-8.37A0.37,0.37,0,0,1,378.42,353.24Z" transform="translate(-325.81 -350.27)" fill="#fff" fill-rule="evenodd"/><rect x="74.42" y="17.34" width="21.64" height="7.83" rx="1.18" ry="1.18" fill="#473e92"/><rect x="88.97" y="19.01" width="4.73" height="4.5" rx="0.37" ry="0.37" fill="#fff"/><path d="M402.91,370.22h10.3a0.32,0.32,0,1,0,0-.64h-10.3A0.32,0.32,0,0,0,402.91,370.22Z" transform="translate(-325.81 -350.27)" fill="#fff" fill-rule="evenodd"/><rect x="83.48" y="20.93" width="4.24" height="0.64" rx="0.32" ry="0.32" fill="#fff"/><rect x="76.78" y="20.93" width="4.94" height="0.64" rx="0.32" ry="0.32" fill="#fff"/><path d="M405.49,373.48h7.72a0.32,0.32,0,1,0,0-.64h-7.72A0.32,0.32,0,1,0,405.49,373.48Z" transform="translate(-325.81 -350.27)" fill="#fff" fill-rule="evenodd"/></svg>