<?xml version="1.0" encoding="UTF-8"?>
<!DOCTYPE svg PUBLIC "-//W3C//DTD SVG 1.1//EN" "http://www.w3.org/Graphics/SVG/1.1/DTD/svg11.dtd">
<!-- Creator: CorelDRAW X7 -->
<svg xmlns="http://www.w3.org/2000/svg" xml:space="preserve" width="117.236mm" height="124.608mm" version="1.1" style="shape-rendering:geometricPrecision; text-rendering:geometricPrecision; image-rendering:optimizeQuality; fill-rule:evenodd; clip-rule:evenodd"
viewBox="0 0 3560 3784"
 xmlns:xlink="http://www.w3.org/1999/xlink">
 <defs>
  <style type="text/css">
   <![CDATA[
    .fil3 {fill:#FEFEFE}
    .fil17 {fill:#9D9E9E}
    .fil6 {fill:#EB6049}
    .fil2 {fill:#EB609E}
    .fil11 {fill:#F7F2DE}
    .fil15 {fill:#DF4230}
    .fil9 {fill:#EFEFF0}
    .fil4 {fill:#F0E5C6}
    .fil8 {fill:#DD5F98}
    .fil10 {fill:#E0D6B8}
    .fil13 {fill:#444141}
    .fil5 {fill:#28B5B5}
    .fil14 {fill:#2C2A2A}
    .fil12 {fill:#2B292A}
    .fil1 {fill:#0EA09D}
    .fil7 {fill:#5A398B}
    .fil16 {fill:#4B3184}
    .fil0 {fill:#FEFEFE;fill-rule:nonzero}
   ]]>
  </style>
 </defs>
 <g id="Layer_x0020_1">
  <metadata id="CorelCorpID_0Corel-Layer"/>
  <g id="_2199590223120">
   <g>
    <path class="fil0" d="M1882 241c0,0 -294,-150 -530,323 -236,472 -315,341 -919,879 -603,538 -551,1181 0,1509 552,328 998,-66 1496,512 499,577 1326,328 1497,-381 170,-708 -342,-1220 13,-1903 354,-682 -132,-800 -617,-826 -486,-27 -758,-10 -940,-113z"/>
    <path class="fil0" d="M2303 126c0,70 -57,127 -127,127 -70,0 -126,-57 -126,-127 0,-69 56,-126 126,-126 70,0 127,57 127,126z"/>
    <path class="fil0" d="M1897 3562c0,31 -26,57 -58,57 -32,0 -57,-26 -57,-57 0,-32 25,-58 57,-58 32,0 58,26 58,58z"/>
   </g>
   <g>
    <polygon class="fil1" points="2823,2182 2626,2182 2626,2063 2823,2063 "/>
    <polygon class="fil1" points="2707,2341 2510,2341 2510,2221 2707,2221 "/>
    <polygon class="fil1" points="2938,2341 2741,2341 2741,2221 2938,2221 "/>
    <polygon class="fil2" points="2724,652 2724,2152 468,2152 468,652 "/>
    <polygon class="fil3" points="2672,712 2672,2093 520,2093 520,712 "/>
    <polygon class="fil4" points="2396,1027 2396,1858 2413,1858 2413,1027 "/>
    <polygon class="fil4" points="2145,1027 2145,1858 2161,1858 2161,1027 "/>
    <polygon class="fil4" points="1894,1027 1894,1858 1910,1858 1910,1027 "/>
    <polygon class="fil4" points="1643,1027 1643,1858 1659,1858 1659,1027 "/>
    <polygon class="fil4" points="1392,1027 1392,1858 1408,1858 1408,1027 "/>
    <polygon class="fil4" points="1141,1027 1141,1858 1157,1858 1157,1027 "/>
    <path class="fil2" d="M2590 1650c-28,-134 -62,-266 -103,-397 -9,-30 -18,-61 -29,-91 -8,-21 -19,-40 -40,-50 -47,-20 -88,21 -104,61 -11,28 -18,57 -27,86 -7,23 -15,75 -41,86 -34,15 -54,-33 -61,-57 -8,-27 -16,-54 -27,-80 -17,-39 -42,-103 -94,-97 -45,5 -80,47 -97,86 -19,44 -25,91 -30,138 -7,70 -14,140 -21,209 -7,69 -10,140 -34,205 -17,49 -57,105 -116,91 -62,-14 -94,-84 -119,-136 -28,-58 -50,-119 -68,-181 -35,-119 -56,-242 -82,-363 -14,-68 -28,-138 -50,-204 -17,-50 -53,-105 -114,-99 -62,7 -82,73 -89,125 -11,77 -20,155 -30,233 -3,27 39,26 43,0 8,-67 16,-133 25,-200 4,-29 5,-64 21,-90 20,-34 58,-31 81,-2 18,22 24,51 32,78 8,29 15,58 22,88 14,57 25,114 37,171 23,116 47,232 86,344 18,53 40,105 66,155 24,44 53,89 100,112 93,46 169,-30 198,-114 19,-57 24,-118 30,-177 7,-66 13,-131 20,-197 5,-51 7,-105 25,-154 7,-21 18,-42 35,-57 8,-7 22,-19 32,-19 20,0 29,26 36,40 14,25 25,51 33,79 8,24 13,50 27,73 21,34 66,58 105,37 46,-26 56,-98 70,-144 8,-26 17,-83 51,-88 31,-4 42,65 48,86 45,140 82,282 112,426 6,26 47,15 41,-12z"/>
    <polygon class="fil5" points="2565,806 2565,907 2512,958 2413,958 2413,806 "/>
    <polygon class="fil1" points="2565,907 2512,958 2512,907 "/>
    <polygon class="fil6" points="2346,806 2346,958 2194,958 2194,806 "/>
    <polygon class="fil4" points="2591,1971 942,1971 942,1954 2591,1954 "/>
    <polygon class="fil4" points="942,958 633,958 633,928 942,928 "/>
    <polygon class="fil4" points="942,1043 633,1043 633,1013 942,1013 "/>
    <polygon class="fil4" points="942,1128 633,1128 633,1098 942,1098 "/>
    <polygon class="fil4" points="942,1213 633,1213 633,1183 942,1183 "/>
    <path class="fil7" d="M713 840c0,15 -13,28 -28,28 -15,0 -27,-13 -27,-28 0,-15 12,-27 27,-27 15,0 28,12 28,27z"/>
    <path class="fil7" d="M815 840c0,15 -12,28 -28,28 -15,0 -27,-13 -27,-28 0,-15 12,-27 27,-27 16,0 28,12 28,27z"/>
    <path class="fil7" d="M917 840c0,15 -12,28 -27,28 -15,0 -28,-13 -28,-28 0,-15 13,-27 28,-27 15,0 27,12 27,27z"/>
    <path class="fil8" d="M735 2152l-267 0 0 -491c11,-6 17,-9 18,-9 13,-10 25,-17 34,-21l0 462 196 0c6,21 12,41 19,59zm-215 -548c0,-3 -1,-6 -1,-8l0 -2c-3,2 -7,3 -12,3 -16,0 -29,-13 -29,-30 0,-5 1,-9 3,-14 -4,8 -3,14 -3,14 0,0 -4,-5 -10,-14l0 -132c10,-10 22,-20 39,-28 5,-2 9,-4 13,-5l0 216zm-32 -59l0 0 -1 1 1 -1zm-20 -128l0 -12c14,-15 32,-27 52,-34l0 10c-20,6 -38,18 -52,36z"/>
    <path class="fil9" d="M716 2093l-196 0 0 -462c1,0 2,-1 4,-1 -2,-9 -3,-18 -4,-26l0 -216c13,-6 26,-9 37,-11 -2,0 -4,0 -5,0 -11,0 -22,1 -32,4l0 -10c11,-3 22,-5 34,-5 16,0 32,4 46,12 24,5 40,19 50,30 10,12 14,23 14,23 6,10 9,19 9,19 0,0 55,157 -33,170 -4,0 -8,1 -12,1l0 1c2,8 3,17 4,25 1,1 6,4 13,10 24,14 71,34 130,34 27,0 56,-4 86,-14 80,-26 130,-124 159,-201 1,-3 2,-6 3,-9 1,-2 2,-4 2,-6 1,-2 2,-4 2,-6 1,-2 1,-3 2,-5 1,-2 1,-4 2,-6 0,-1 1,-3 1,-4 1,-2 1,-4 2,-6 1,-1 1,-3 1,-4 1,-2 1,-4 2,-5 0,-2 1,-3 1,-4 1,-2 1,-4 1,-5 1,-1 1,-3 2,-4 0,-2 1,-4 1,-5 1,-2 1,-4 2,-6l0 -3 1 -4 1 -3 1 -2 0 -3 1 -2 0 -2 1 -2 0 -1c0,-2 0,-2 0,-2 0,0 -30,-53 0,-71 0,0 -4,-28 11,-41l2 -1 2 -1c3,-2 6,-3 10,-3 1,0 3,-1 4,-1 12,0 32,5 49,14l14 -9 0 84c-9,12 -21,24 -39,38l0 0 0 0 0 1 0 1c0,2 -1,4 -1,6l0 1c0,1 0,2 0,4l0 0c-1,4 -1,8 -2,12l0 1c0,2 0,4 -1,6l0 2c0,5 -1,10 -2,16l0 0c-1,3 -1,6 -1,9l-1 2c0,3 -1,6 -1,9l0 0c-1,4 -1,7 -2,11l0 0c-1,4 -1,7 -2,11l0 2c-1,3 -2,6 -2,10l-1 1c0,4 -1,8 -2,12 -29,138 -102,348 -277,359 -15,1 -30,1 -43,1 -20,0 -38,-1 -54,-3 -1,11 -3,23 -5,35 -14,68 -5,138 11,198zm441 -815l0 -24 30 -17c0,0 8,-16 22,-17 1,0 1,0 2,0 1,0 2,0 3,0 1,10 10,15 19,15 1,0 3,0 5,-1 -2,7 -7,13 -14,14 -16,1 -25,5 -25,5l-42 25z"/>
    <path class="fil10" d="M1141 1348l0 -84 16 -10 0 24 -13 8c3,2 5,5 7,8 0,2 1,3 2,5 1,3 2,6 2,10 0,2 0,3 0,5 0,10 -4,20 -13,32 0,1 -1,1 -1,2z"/>
    <path class="fil8" d="M1233 1235c-9,0 -18,-5 -19,-15 3,1 5,1 7,2 3,1 5,2 8,2 4,0 7,-3 12,-11 0,0 0,12 -3,21 -2,1 -4,1 -5,1z"/>
    <path class="fil1" d="M611 1638c0,0 100,76 235,31 136,-45 188,-300 188,-300 0,0 -30,-52 0,-70 0,0 -6,-43 25,-47 30,-3 149,32 28,126 0,0 -34,460 -295,476 -261,17 -213,-113 -213,-113l32 -103z"/>
    <path class="fil11" d="M1059 1252c-31,4 -25,47 -25,47 -30,18 0,70 0,70 0,0 -10,48 -32,106 22,9 44,16 67,21 14,-68 18,-118 18,-118 121,-94 2,-129 -28,-126z"/>
    <path class="fil12" d="M359 1433c-28,10 -51,34 -54,63 -3,28 13,55 11,84 -1,42 -37,73 -58,109 -23,40 -28,90 -14,134 12,34 35,64 49,98 15,33 20,75 -2,104 58,-19 106,-64 131,-120 26,-55 29,-119 11,-178 -12,-39 -33,-80 -23,-120 3,-11 8,-21 10,-32 2,-17 -6,-34 -12,-50 -6,-17 -11,-35 -3,-51 4,-7 11,-12 18,-14 7,-2 17,3 22,0 13,-6 1,-21 -6,-25 -21,-13 -58,-9 -80,-2z"/>
    <path class="fil1" d="M466 3126l-4 26 -6 35 148 37c8,2 15,-7 10,-14 -7,-10 -17,-20 -28,-29 -27,-22 -57,-40 -57,-40l-63 -15z"/>
    <path class="fil1" d="M722 3126l2 26 2 36 153 3c9,0 13,-11 6,-17 -9,-8 -21,-15 -34,-22 -30,-15 -64,-25 -64,-25l-65 -1z"/>
    <path class="fil12" d="M459 2206c0,0 -18,236 34,444l-34 486 82 9c0,0 84,-319 109,-394 27,-85 0,-293 0,-293 0,0 72,160 72,237 0,77 -8,432 -8,432 0,0 54,15 82,0 27,-15 48,-474 48,-474l-106 -497c0,0 -125,34 -279,50z"/>
    <path class="fil5" d="M524 1616c0,0 -107,25 -153,190 -22,80 9,427 9,427 0,0 12,104 84,104l10 -68 36 58 265 -70c0,0 -122,-188 -85,-370 36,-182 -74,-248 -74,-248 0,0 -62,47 -92,-23z"/>
    <path class="fil11" d="M658 1442c0,0 55,158 -33,170 -89,13 -132,-45 -132,-85 0,-39 -8,-116 67,-137 74,-22 98,52 98,52z"/>
    <path class="fil11" d="M522 1560c0,16 -13,29 -30,29 -16,0 -29,-13 -29,-29 0,-17 13,-30 29,-30 17,0 30,13 30,30z"/>
    <path class="fil12" d="M473 1538c0,0 20,-13 39,0 0,0 105,-46 93,-105 0,0 21,-15 44,-10 0,0 -38,-94 -157,-37 -119,56 -29,174 -29,174 0,0 -2,-11 10,-22z"/>
    <path class="fil11" d="M616 1667c-8,6 -71,13 -90,0 -8,-5 -13,-20 -16,-37 -3,-15 -5,-31 -6,-42 0,-7 -1,-12 -1,-12l0 -22 100 6c0,0 6,27 10,54 2,11 3,22 4,31 1,12 1,21 -1,22z"/>
    <path class="fil4" d="M617 1645l-107 -15c-3,-15 -5,-31 -6,-42 6,7 39,45 109,26 2,11 3,22 4,31z"/>
    <path class="fil4" d="M396 2366l0 -26c0,-30 25,-54 55,-54 30,0 54,24 54,54l0 26 17 0 0 -26c0,-39 -32,-70 -71,-70 -39,0 -71,31 -71,70l0 26 16 0z"/>
    <path class="fil11" d="M572 2349l0 244c0,9 -8,17 -17,17l-208 0c-10,0 -17,-8 -17,-17l0 -244 242 0z"/>
    <path class="fil2" d="M572 2349l0 57 -1 0c-16,8 -34,-9 -52,-6 -20,3 -26,29 -42,43 -14,13 -39,13 -54,-1 -5,-5 -9,-11 -15,-14 -13,-5 -28,5 -34,18 -6,12 -7,27 -13,39 -2,5 -6,10 -11,13 -6,4 -14,3 -20,-1l0 -148 242 0z"/>
    <path class="fil11" d="M404 2333c0,0 72,-4 67,-40 -4,-26 -76,-19 -76,-19 0,0 -84,-74 -84,-181 0,-48 23,-87 49,-115 30,-34 47,-93 47,-93 0,0 23,-52 30,-98 8,-46 18,-92 32,-136l2 -7c0,0 -169,76 -232,262 -12,37 -20,77 -22,122 -11,232 187,305 187,305z"/>
    <path class="fil1" d="M239 1906c-12,37 -20,77 -22,122 -5,118 43,195 92,242 15,-16 29,-32 42,-50 -20,-31 -40,-75 -40,-127 0,-48 23,-87 49,-115 30,-34 47,-93 47,-93 0,0 23,-52 30,-98 8,-46 18,-92 32,-136l2 -7c0,0 -169,76 -232,262z"/>
    <path class="fil12" d="M1077 1309c0,-7 -21,-11 -21,-11l116 -69 12 17 -107 63z"/>
    <path class="fil13" d="M1172 1229c0,0 7,-16 22,-16 15,-1 21,12 32,-7 0,0 0,33 -17,35 -16,1 -25,5 -25,5l-12 -17z"/>
    <path class="fil14" d="M337 1470c0,-2 -4,-2 -3,1 5,42 -38,63 -45,103 -3,17 0,35 0,52 -1,32 -12,60 -32,85 -2,2 1,5 3,3 33,-40 30,-76 32,-124 2,-36 24,-50 40,-77 8,-14 12,-28 5,-43z"/>
    <path class="fil14" d="M587 1372c-60,-36 -144,5 -157,72 -1,2 2,3 3,1 28,-68 83,-89 152,-68 3,1 5,-4 2,-5z"/>
    <path class="fil11" d="M3223 1774c0,0 -110,-238 -106,-272 3,-34 17,-365 17,-365 0,0 -63,4 -62,-6 2,-17 43,-28 43,-28 0,0 27,-21 50,-13 22,7 46,416 46,416 0,0 224,202 197,268 -27,66 -115,141 -115,141l-70 -141z"/>
    <path class="fil15" d="M3211 1506c0,0 -5,-90 -13,-187l-73 22c-3,75 -7,146 -8,161 -4,34 106,272 106,272l70 141c0,0 88,-75 115,-141 27,-66 -197,-268 -197,-268z"/>
    <polygon class="fil8" points="2724,1938 2672,1938 2672,1160 2724,1160 "/>
    <path class="fil9" d="M2672 1938l-187 0 0 -542c24,88 46,176 64,266 3,10 10,15 19,15 12,0 26,-11 22,-27 -28,-134 -62,-266 -103,-397 -1,-3 -1,-5 -2,-8l0 -85 187 0 0 778z"/>
    <path class="fil8" d="M2568 1677c-9,0 -16,-5 -19,-15 -18,-90 -40,-178 -64,-266l0 -151c1,3 1,5 2,8 41,131 75,263 103,397 4,16 -10,27 -22,27z"/>
    <polygon class="fil16" points="3134,1915 2512,1915 2512,1137 3134,1137 "/>
    <polygon class="fil3" points="3028,1354 2618,1354 2618,1324 3028,1324 "/>
    <polygon class="fil5" points="3028,1354 2758,1354 2758,1324 3028,1324 "/>
    <polygon class="fil3" points="3028,1557 2618,1557 2618,1526 3028,1526 "/>
    <polygon class="fil5" points="3028,1557 2700,1557 2700,1526 3028,1526 "/>
    <polygon class="fil3" points="3028,1253 2618,1253 2618,1223 3028,1223 "/>
    <polygon class="fil5" points="3028,1253 2899,1253 2899,1223 3028,1223 "/>
    <polygon class="fil3" points="3028,1455 2618,1455 2618,1425 3028,1425 "/>
    <polygon class="fil5" points="3028,1455 2853,1455 2853,1425 3028,1425 "/>
    <polygon class="fil3" points="2941,1672 2899,1672 2899,1630 2941,1630 "/>
    <polygon class="fil15" points="3007,1672 2964,1672 2964,1630 3007,1630 "/>
    <polygon class="fil15" points="3072,1672 3030,1672 3030,1630 3072,1630 "/>
    <polygon class="fil3" points="2941,1750 2899,1750 2899,1708 2941,1708 "/>
    <polygon class="fil15" points="3007,1750 2964,1750 2964,1708 3007,1708 "/>
    <polygon class="fil15" points="3072,1750 3030,1750 3030,1708 3072,1708 "/>
    <polygon class="fil3" points="2941,1829 2899,1829 2899,1786 2941,1786 "/>
    <polygon class="fil3" points="3007,1829 2964,1829 2964,1786 3007,1786 "/>
    <polygon class="fil3" points="3072,1829 3030,1829 3030,1786 3072,1786 "/>
    <polygon class="fil3" points="2758,1651 2577,1651 2577,1638 2758,1638 "/>
    <polygon class="fil3" points="2758,1684 2577,1684 2577,1672 2758,1672 "/>
    <polygon class="fil3" points="2758,1718 2577,1718 2577,1706 2758,1706 "/>
    <polygon class="fil3" points="2690,1752 2577,1752 2577,1739 2690,1739 "/>
    <path class="fil1" d="M3470 3148l4 26 6 35 -148 37c-9,2 -15,-8 -10,-15 7,-9 17,-19 28,-28 26,-22 57,-40 57,-40l63 -15z"/>
    <path class="fil1" d="M3214 3148l-2 26 -2 36 -153 2c-9,1 -13,-10 -6,-16 9,-8 21,-15 34,-22 30,-15 63,-25 63,-25l66 -1z"/>
    <path class="fil12" d="M3495 2231c0,0 -19,233 -70,441l52 486 -82 9c0,0 -85,-320 -109,-395 -28,-84 0,-292 0,-292 0,0 -72,160 -72,237 0,76 8,432 8,432 0,0 -54,15 -82,0 -27,-15 -48,-474 -48,-474l106 -497c0,0 142,37 297,53z"/>
    <path class="fil6" d="M3533 2248c4,-49 19,-377 -1,-450 -46,-164 -143,-160 -143,-160 -30,70 -93,23 -93,23 0,0 -110,66 -73,248 23,118 -24,225 -61,287 108,75 248,93 371,52z"/>
    <path class="fil11" d="M3254 1464c0,0 -55,157 34,170 89,13 132,-45 132,-85 0,-39 7,-116 -67,-137 -75,-22 -99,52 -99,52z"/>
    <path class="fil11" d="M3390 1582c0,16 14,29 30,29 16,0 30,-13 30,-29 0,-17 -14,-30 -30,-30 -16,0 -30,13 -30,30z"/>
    <path class="fil12" d="M3440 1560c0,0 -21,-13 -40,0 0,0 -105,-46 -93,-105 0,0 -21,-15 -43,-10 0,0 37,-94 156,-37 119,56 30,174 30,174 0,0 1,-11 -10,-22z"/>
    <path class="fil11" d="M3409 1576l0 22c0,0 0,4 -1,11 0,8 -2,21 -4,34 -3,20 -9,40 -17,46 -19,13 -82,6 -91,0 -2,-2 -2,-13 0,-28 1,-8 2,-17 3,-26l0 0c5,-27 10,-54 10,-54l100 -5z"/>
    <path class="fil4" d="M3408 1609c0,8 -2,21 -4,34 -26,7 -80,21 -108,18 1,-8 2,-17 3,-26l0 0c3,0 94,-3 109,-26z"/>
    <path class="fil15" d="M3467 1552c0,0 9,-8 11,-19 0,0 -265,-134 -278,-122 -10,8 267,141 267,141z"/>
    <path class="fil6" d="M3475 1531c-19,-9 -130,-65 -205,-97 15,-23 58,-70 150,-26 68,32 68,84 55,123z"/>
    <path class="fil11" d="M3325 1893c0,0 -370,26 -475,23 0,0 -39,-57 -41,-42 -2,16 7,41 7,41 0,0 -109,-12 -70,34 39,47 100,7 100,7 0,0 434,68 503,42 69,-26 210,-181 150,-262 -60,-80 -139,22 -174,157z"/>
    <path class="fil15" d="M3499 1736c-60,-80 -139,22 -174,157 0,0 -134,9 -261,16l3 79c111,13 244,24 282,10 69,-26 210,-181 150,-262z"/>
    <path class="fil17" d="M1422 2492l8 28 9 -28c6,-25 23,-45 45,-57 -22,-12 -39,-33 -45,-57l-9 -29 -8 29c-7,24 -23,45 -45,57 22,12 38,32 45,57z"/>
    <path class="fil17" d="M1041 2735l-5 20 -6 -20c-5,-17 -17,-32 -32,-41 15,-8 27,-23 32,-40l6 -20 5 20c5,17 17,32 33,40 -16,9 -28,24 -33,41z"/>
    <path class="fil17" d="M2859 2909l-6 20 -6 -20c-4,-18 -16,-32 -32,-41 16,-8 28,-23 32,-40l6 -21 6 21c5,17 17,32 32,40 -15,9 -27,23 -32,41z"/>
    <path class="fil1" d="M2360 3201c0,0 -229,25 -513,25 -283,0 -513,-25 -513,-25 0,0 230,-26 513,-26 284,0 513,26 513,26z"/>
    <path class="fil1" d="M2151 2893c-79,0 -146,27 -174,66 -21,-4 -44,-7 -67,-7 -44,0 -85,9 -117,23 -43,20 -71,50 -71,84 0,59 84,107 188,107 65,0 122,-18 155,-47 8,-6 13,-13 18,-19 21,4 44,7 68,7 65,0 122,-19 155,-48 20,-17 32,-37 32,-59 0,-59 -84,-107 -187,-107z"/>
    <path class="fil16" d="M2082 3029c0,22 -12,43 -32,60 -33,28 -91,47 -155,47 -104,0 -188,-48 -188,-107 0,-34 28,-64 71,-84 32,-14 73,-23 117,-23 103,0 187,48 187,107z"/>
    <path class="fil3" d="M1895 2922l0 107 -117 -84c32,-14 73,-23 117,-23z"/>
    <path class="fil2" d="M2323 2969c0,23 -12,43 -32,60 -33,29 -91,47 -156,47 -103,0 -187,-47 -187,-107 0,-59 84,-107 187,-107 104,0 188,48 188,107z"/>
    <path class="fil3" d="M2323 2969c0,23 -12,43 -32,60l-156 -60 0 -107c104,0 188,48 188,107z"/>
    <polygon class="fil4" points="2223,3167 1391,3167 1391,3183 2223,3183 "/>
    <polygon class="fil4" points="2446,3145 1616,3090 1615,3106 2445,3162 "/>
   </g>
  </g>
 </g>
</svg>
