<svg id="5520f20e-f9f2-4edb-9c5a-54e75fb698e1" data-name="Layer 1" xmlns="http://www.w3.org/2000/svg" viewBox="0 0 24 24"><title>tq1</title><path d="M198.64,432.94a12,12,0,1,0-12-12A12,12,0,0,0,198.64,432.94Z" transform="translate(-186.64 -408.94)" fill="#5bbdad" fill-rule="evenodd"/><path d="M195.9,423h-3.65a0.43,0.43,0,0,0-.43.43v3.19a1.57,1.57,0,0,0,1.57,1.57h2.51a0.43,0.43,0,0,0,.43-0.43v-4.33A0.43,0.43,0,0,0,195.9,423Z" transform="translate(-186.64 -408.94)" fill="#00a593" fill-rule="evenodd"/><path d="M205,423h-3.65a0.43,0.43,0,0,0-.43.43v4.33a0.43,0.43,0,0,0,.43.43h2.51a1.57,1.57,0,0,0,1.57-1.57v-3.19A0.43,0.43,0,0,0,205,423Z" transform="translate(-186.64 -408.94)" fill="#2d8077" fill-rule="evenodd"/><path d="M195.9,420.75h-3.65a0.43,0.43,0,0,0-.42.34l-0.46,2.28a0.42,0.42,0,0,0,.42.51h4.1a0.43,0.43,0,0,0,.43-0.43v-2.28A0.43,0.43,0,0,0,195.9,420.75Z" transform="translate(-186.64 -408.94)" fill="#2d8077" fill-rule="evenodd"/><path d="M205.89,423.37l-0.46-2.28a0.43,0.43,0,0,0-.42-0.34h-3.65a0.43,0.43,0,0,0-.43.43v2.28a0.43,0.43,0,0,0,.43.43h4.1a0.43,0.43,0,0,0,.43-0.42h0A0.44,0.44,0,0,0,205.89,423.37Z" transform="translate(-186.64 -408.94)" fill="#fff" fill-rule="evenodd"/><path d="M198.64,418.18a0.43,0.43,0,0,1-.43-0.43v-1.82a0.43,0.43,0,0,1,.85,0v1.82A0.43,0.43,0,0,1,198.64,418.18Z" transform="translate(-186.64 -408.94)" fill="#00a593" fill-rule="evenodd"/><rect x="8.84" y="10.66" width="6.32" height="8.6" rx="0.43" ry="0.43" fill="#33b3a4"/><path d="M201.37,419.61h-2.74v8.6h2.74a0.43,0.43,0,0,0,.43-0.43V420A0.43,0.43,0,0,0,201.37,419.61Z" transform="translate(-186.64 -408.94)" fill="#00a593" fill-rule="evenodd"/><rect x="10.66" y="16.13" width="2.67" height="3.13" rx="0.43" ry="0.43" fill="#fff"/><circle cx="12" cy="13.82" r="1.34" fill="#fef6f7"/><path d="M202.08,419.69l-3.19-2.28a0.43,0.43,0,0,0-.5,0l-3.19,2.28a0.43,0.43,0,0,0,.25.77h6.38A0.43,0.43,0,0,0,202.08,419.69Z" transform="translate(-186.64 -408.94)" fill="#fff" fill-rule="evenodd"/><rect x="11.57" y="4.74" width="3.13" height="2.67" rx="0.43" ry="0.43" fill="#fff"/><path d="M199.55,428.21a0.43,0.43,0,0,0,.43-0.43V425.5a0.43,0.43,0,0,0-.43-0.43h-0.91v3.13h0.91Z" transform="translate(-186.64 -408.94)" fill="#2d8077" fill-rule="evenodd"/><path d="M200,422.77a1.34,1.34,0,0,0-1.34-1.34v2.67A1.34,1.34,0,0,0,200,422.77Z" transform="translate(-186.64 -408.94)" fill="#d7eded" fill-rule="evenodd"/><path d="M202.08,419.69l-3.19-2.28a0.43,0.43,0,0,0-.25-0.08v3.13h3.19A0.43,0.43,0,0,0,202.08,419.69Z" transform="translate(-186.64 -408.94)" fill="#2d8077" fill-rule="evenodd"/><path d="M200.92,413.68h-1.14v2.67h1.14a0.43,0.43,0,0,0,.43-0.43v-1.82A0.43,0.43,0,0,0,200.92,413.68Z" transform="translate(-186.64 -408.94)" fill="#2d8077" fill-rule="evenodd"/></svg>