<svg id="Layer_1" data-name="Layer 1" xmlns="http://www.w3.org/2000/svg" viewBox="0 0 41.76 26.27"><defs><style>.cls-1{fill-rule:evenodd;}</style></defs><title>bereavement_leave</title><path class="cls-1" d="M128.24,466.8a1.85,1.85,0,0,0-1.75,1.26l-0.25.76h-0.86v-2.69h-3a7.73,7.73,0,0,1-3-.6,36,36,0,0,0-25.23-.92l-1.3.43,0.27,0.66c0.06,0.16.12,0.31,0.18,0.47a3.36,3.36,0,0,0-2.92,3.32,3.33,3.33,0,0,0,.31,1.38,2.69,2.69,0,1,0,1.71,5v8.71a2.67,2.67,0,0,0-.67,1.76,2.69,2.69,0,1,0,5.39,0,2.67,2.67,0,0,0-.67-1.76v-0.93h26.27v0.93a2.67,2.67,0,0,0-.67,1.76,2.69,2.69,0,1,0,5.39,0,2.67,2.67,0,0,0-.67-1.76v-9h3.37v-6.91a1.85,1.85,0,0,0-1.85-1.85h0Zm-22.73-2.69a34.49,34.49,0,0,1,13.33,2.67,9.08,9.08,0,0,0,3.51.7H124v7.18a2.26,2.26,0,0,1-3.75,1.69l-4.37-3.88a3.7,3.7,0,0,0-2.46-.94H102.81a3.71,3.71,0,0,0-3.7,3.7,1.68,1.68,0,0,1-3.37,0v-2.77a19.43,19.43,0,0,0-1.14-6.58,34.58,34.58,0,0,1,10.92-1.76h0Zm17.17,15.49H96.41v-1.53a3,3,0,0,0,4-2.51h17l2,1.78a3.5,3.5,0,0,0,3.3.78v1.48h0Zm-28.29,4a2.64,2.64,0,0,0-.67.1v-8.18h0.71a3,3,0,0,0,.64,1.55v6.63a2.65,2.65,0,0,0-.67-0.1h0Zm-0.77-10.78h0.77v1.35H93.62a2.41,2.41,0,0,0,0-1.35h0Zm7.07,1.35a2.35,2.35,0,0,1,2.12-1.35h10.63a2.35,2.35,0,0,1,1.57.6l0.85,0.75H100.69Zm-7-6.73a18,18,0,0,1,.67,4H93.72a2,2,0,0,1,0-4h0ZM91,474.89a1.35,1.35,0,1,1,1.35-1.35A1.35,1.35,0,0,1,91,474.89h0Zm3.37,12.8a1.35,1.35,0,1,1,1.35-1.35,1.35,1.35,0,0,1-1.35,1.35h0Zm2-5.39v-1.35h26.27v1.35H96.41Zm28.29,5.39a1.35,1.35,0,1,1,1.35-1.35,1.35,1.35,0,0,1-1.35,1.35h0Zm0.67-3.95a2.42,2.42,0,0,0-1.35,0v-6.3a3.59,3.59,0,0,0,1.22-1.88h0.13v8.18h0Zm3.37-9.53h-3.37v-1.35h3.37v1.35h0Zm-3.37-2.69v-1.35h1.83l0.56-1.68a0.5,0.5,0,0,1,1,.16v2.87h-3.37Z" transform="translate(-88.33 -462.76)"/></svg>