<?xml version="1.0" encoding="UTF-8"?>
<!DOCTYPE svg PUBLIC "-//W3C//DTD SVG 1.1//EN" "http://www.w3.org/Graphics/SVG/1.1/DTD/svg11.dtd">
<!-- Creator: CorelDRAW X7 -->
<svg xmlns="http://www.w3.org/2000/svg" xml:space="preserve" width="10.16mm" height="10.16mm" version="1.1" style="shape-rendering:geometricPrecision; text-rendering:geometricPrecision; image-rendering:optimizeQuality; fill-rule:evenodd; clip-rule:evenodd"
viewBox="0 0 72 72"
 xmlns:xlink="http://www.w3.org/1999/xlink">
 <defs>
  <style type="text/css">
   <![CDATA[
    .fil0 {fill:#252422}
   ]]>
  </style>
 </defs>
 <g id="Layer_x0020_1">
  <metadata id="CorelCorpID_0Corel-Layer"/>
  <g id="_2379808621952">
   <path class="fil0" d="M10 26c0,0 -1,-1 -1,-1 0,-1 0,-2 1,-2 1,0 1,0 2,1l0 0c0,1 -1,1 -1,2 -1,0 -1,0 -1,0z"/>
   <path class="fil0" d="M10 21c0,0 0,0 0,0 -1,0 -2,0 -2,-1 1,-7 6,-12 13,-12 0,0 1,1 1,2 0,0 -1,1 -1,1 -5,0 -10,4 -10,9 0,1 -1,1 -1,1z"/>
   <path class="fil0" d="M54 10c0,-1 -1,-1 -2,0 -5,5 -16,8 -16,8 -1,0 -1,1 -1,1l0 16c0,7 4,11 9,13 4,3 9,5 9,5 0,0 0,1 0,1l0 0c1,0 1,-1 1,-1 0,0 1,0 2,-1l0 0c0,1 0,2 -1,3 -1,7 -3,14 -6,14 -3,0 -5,-6 -6,-12 -2,-5 -3,-11 -7,-11 -4,0 -5,6 -7,11 -1,6 -3,12 -6,12 -3,0 -5,-7 -6,-14 -2,-8 -3,-15 -7,-20 -7,-9 -7,-13 -7,-17 0,-8 7,-15 15,-15 7,0 10,4 12,7 2,3 4,5 6,5 2,0 4,-2 6,-5 2,-3 5,-7 12,-7 8,0 15,6 15,15 0,0 -10,-3 -15,-8zm15 25c0,5 -3,8 -8,11 -3,2 -6,4 -8,5 -1,-1 -4,-3 -8,-5 -4,-3 -8,-6 -8,-11l0 -14c3,-1 11,-4 16,-8 6,4 13,7 16,8l0 14zm-15 -35c-8,0 -12,5 -15,9 -1,1 -2,3 -3,3 -1,0 -2,-2 -3,-3 -3,-4 -7,-9 -15,-9 -10,0 -18,8 -18,18 0,5 1,10 8,19 3,4 5,11 6,18 1,4 2,8 3,11 0,2 2,6 6,6 2,0 4,-1 6,-5 1,-2 2,-6 3,-9 1,-2 1,-5 2,-7 1,-1 2,-2 2,-2 1,0 1,1 2,2 1,2 1,5 2,7 1,3 2,7 3,9 2,4 4,5 6,5 4,0 6,-4 6,-6 2,-3 2,-7 3,-11 0,-1 1,-3 1,-4 1,-1 3,-2 4,-3 5,-2 9,-6 9,-13l0 -17c0,-10 -8,-18 -18,-18z"/>
   <path class="fil0" d="M53 22c-5,0 -9,4 -9,9 0,6 4,10 9,10 6,0 10,-4 10,-10 0,-5 -4,-9 -10,-9zm0 22c-7,0 -12,-6 -12,-13 0,-6 5,-12 12,-12 7,0 13,6 13,12 0,7 -6,13 -13,13z"/>
   <path class="fil0" d="M52 37c-1,0 -1,0 -1,-1l-5 -4c-1,-1 -1,-2 0,-2 1,-1 1,-1 2,0l4 3 7 -7c0,0 1,0 2,0 0,1 0,2 0,2l-8 8c0,1 -1,1 -1,1z"/>
  </g>
 </g>
</svg>
