<svg id="Layer_1" data-name="Layer 1" xmlns="http://www.w3.org/2000/svg" viewBox="0 0 31.21 31.32"><defs><style>.cls-1{fill:#171110;fill-rule:evenodd;}</style></defs><title>retirement_plan</title><path class="cls-1" d="M106,725.22a0.52,0.52,0,0,0-.52.52v0.52a2.09,2.09,0,0,0,4.18,0v-2.09a0.52,0.52,0,0,0-1,0v2.09a1,1,0,1,1-2.09,0v-0.52A0.52,0.52,0,0,0,106,725.22Z" transform="translate(-93.61 -697.04)"/><path class="cls-1" d="M114.92,705.93a6.81,6.81,0,0,0-11.5,0,5.26,5.26,0,0,0-4.7-2.64,5.61,5.61,0,0,0-3,.85c2.23-3.57,7.47-6.06,13.44-6.06s11.22,2.53,13.45,6.09a5.6,5.6,0,0,0-3-.87,5.25,5.25,0,0,0-4.68,2.63h0Zm4.68-1.59a4,4,0,0,1,4.17,3.42,0.52,0.52,0,0,0,.52.49h0a0.52,0.52,0,0,0,.49-0.54c-0.21-6-7.07-10.68-15.63-10.68-8.22,0-14.91,4.32-15.58,10.05a0.52,0.52,0,0,0,1,.18,4.09,4.09,0,0,1,4.09-2.92,4.28,4.28,0,0,1,3.78,2.1,1,1,0,0,0,1.83,0,5.22,5.22,0,0,1,4.3-2.56v6.23a0.52,0.52,0,1,0,1,0v-6.23a5.22,5.22,0,0,1,4.3,2.56,1.05,1.05,0,0,0,.92.57,1,1,0,0,0,.91-0.54A4.28,4.28,0,0,1,119.61,704.34Z" transform="translate(-93.61 -697.04)"/><path class="cls-1" d="M104.39,720.93a9.54,9.54,0,0,0,1.05-3.54h6.41a9.54,9.54,0,0,0,1.05,3.54,14.56,14.56,0,0,1-8.51,0h0Zm-1-5.63a0.52,0.52,0,0,1,.52-0.52h8.35v1.57h-8.87v-1h0Zm3.65-2.61h5c-0.08.36-.14,0.72-0.19,1h-4.84v-1h0Zm8.76,7.64a0.52,0.52,0,1,0-.81-0.66,3.51,3.51,0,0,1-1.15.86,8.29,8.29,0,0,1-1-3.15,0.52,0.52,0,0,0,.45-0.51v-2.61a0.52,0.52,0,0,0-.37-0.49c0.3-1.95,1-4.2,1.86-4.83a0.52,0.52,0,0,0-.63-0.83,7.09,7.09,0,0,0-1.84,3.55H105a0.52,0.52,0,0,0,0,1h1v1h-2.09a1.57,1.57,0,0,0-1.57,1.57v1.57a0.52,0.52,0,0,0,.52.52h1.49a8.29,8.29,0,0,1-1,3.14,3.51,3.51,0,0,1-1.15-.86,0.52,0.52,0,1,0-.81.66c1.12,1.39,3.94,2.28,7.19,2.28S114.72,721.72,115.84,720.33Z" transform="translate(-93.61 -697.04)"/></svg>