<?xml version="1.0" encoding="UTF-8"?>
<!DOCTYPE svg PUBLIC "-//W3C//DTD SVG 1.1//EN" "http://www.w3.org/Graphics/SVG/1.1/DTD/svg11.dtd">
<!-- Creator: CorelDRAW X7 -->
<svg xmlns="http://www.w3.org/2000/svg" xml:space="preserve" width="13.716mm" height="12.1996mm" version="1.1" style="shape-rendering:geometricPrecision; text-rendering:geometricPrecision; image-rendering:optimizeQuality; fill-rule:evenodd; clip-rule:evenodd"
viewBox="0 0 128 114"
 xmlns:xlink="http://www.w3.org/1999/xlink">
 <defs>
  <style type="text/css">
   <![CDATA[
    .fil0 {fill:#EBECEC}
    .fil3 {fill:#252422}
    .fil4 {fill:#292525}
    .fil1 {fill:#1776A6}
    .fil2 {fill:#166A96}
   ]]>
  </style>
 </defs>
 <g id="Layer_x0020_1">
  <metadata id="CorelCorpID_0Corel-Layer"/>
  <g id="_2379820982096">
   <g>
    <path class="fil0" d="M25 27c-1,0 -2,0 -3,0 1,0 2,0 3,0 0,0 0,0 1,0 -1,0 -1,0 -1,0zm-8 -22c2,-2 5,-3 8,-3 1,0 1,0 2,0 -1,0 -1,0 -2,0 -3,0 -6,1 -8,3z"/>
    <path class="fil0" d="M10 112l0 0c5,-4 10,-7 15,-9l0 0c-5,2 -10,5 -15,9zm22 -12l0 0c6,-2 12,-3 19,-3 0,0 0,0 1,0 -1,0 -1,0 -1,0 -7,0 -13,1 -19,3z"/>
    <path class="fil1" d="M29 101l0 0c1,0 2,-1 3,-1l0 0c-1,0 -2,1 -3,1z"/>
    <path class="fil2" d="M25 103l0 0c1,-1 3,-1 4,-2l0 0c-1,1 -3,1 -4,2z"/>
    <path class="fil0" d="M16 69l-1 -1c-1,-1 -1,-1 -1,-1 0,0 0,0 1,1l1 1 0 0z"/>
    <path class="fil0" d="M45 50c-1,0 -1,0 -1,0 0,0 -1,-1 -1,-1 2,-16 13,-29 28,-34 -15,5 -26,18 -28,34 0,0 1,1 1,1 0,0 0,0 1,0 0,0 0,0 0,0 0,0 0,0 0,0zm1 -1c1,0 2,-1 3,-1 0,0 0,0 0,0 -1,0 -2,1 -3,1z"/>
    <path class="fil3" d="M25 4c6,0 11,5 11,11 0,5 -5,10 -11,10 -6,0 -11,-5 -11,-10 0,-6 5,-11 11,-11zm0 25c8,0 15,-6 15,-14 0,-8 -7,-15 -15,-15 -8,0 -15,7 -15,15 0,8 7,14 15,14z"/>
    <path class="fil3" d="M33 103c1,0 1,1 1,2 0,1 0,2 -1,2 -2,0 -2,-1 -2,-2 0,-1 0,-2 2,-2z"/>
    <path class="fil3" d="M48 103c1,0 2,1 2,2 0,1 -1,2 -2,2 -2,0 -2,-1 -2,-2 0,-1 0,-2 2,-2z"/>
    <path class="fil3" d="M62 103c1,0 2,1 2,2 0,1 -1,2 -2,2 -1,0 -2,-1 -2,-2 0,-1 1,-2 2,-2z"/>
    <path class="fil3" d="M97 105c1,0 2,1 2,2 0,1 -1,2 -2,2 -1,0 -2,-1 -2,-2 0,-1 1,-2 2,-2z"/>
    <path class="fil3" d="M85 46c-2,0 -4,1 -6,2 0,-9 1,-17 2,-24 1,-6 3,-9 4,-10 0,0 0,0 0,0 0,0 0,0 0,0 1,1 2,4 3,10 2,7 2,15 3,24 -2,-1 -4,-2 -6,-2zm-7 -24c-2,7 -3,17 -3,27 0,0 0,0 0,0 -2,-2 -5,-3 -7,-3 -3,0 -5,1 -7,2 2,-9 4,-17 8,-23 3,-4 7,-8 10,-9 0,1 -1,4 -1,6zm-21 27c-1,-2 -4,-3 -7,-3 -1,0 -3,1 -4,1 2,-14 12,-26 25,-30 -2,1 -4,4 -5,6 -4,7 -7,16 -9,26zm48 -13c0,1 2,1 3,1 1,-1 1,-2 1,-3 -3,-7 -6,-13 -11,-17 13,4 23,16 26,30 -2,0 -3,-1 -5,-1 -3,0 -5,1 -7,3 0,-3 -1,-5 -1,-8 0,-1 -2,-1 -3,-1 -1,0 -1,1 -1,2 0,2 1,4 1,6 -2,-1 -4,-2 -6,-2 -3,0 -6,1 -7,3 -1,-10 -2,-20 -3,-27 -1,-2 -1,-5 -2,-6 6,2 12,9 15,20zm-16 67c0,0 0,1 0,1 0,1 0,2 2,2 1,0 1,-1 1,-2 0,-1 0,-1 0,-1 1,0 1,0 2,0 3,0 5,0 8,1 0,1 0,1 0,1 0,1 0,2 2,2 1,0 1,0 1,-1 2,1 4,2 6,4l-20 0c-2,-2 -4,-4 -7,-5 2,-1 3,-1 5,-2zm-26 -10l3 0 0 4c-1,0 -2,0 -3,0l0 -4zm-4 3c-3,0 -5,-1 -8,-1 -6,0 -11,1 -17,2l0 -4 25 0 0 3zm-29 3c-1,0 -2,0 -3,1l0 -7 3 0 0 6zm-11 -29c0,0 1,0 1,0 0,0 0,0 0,0l6 8c0,0 0,1 0,1l-1 0 -6 -9 0 0zm71 -16c1,1 2,2 3,2 2,0 3,-1 3,-2 1,-2 3,-4 6,-4 2,0 5,2 6,4 0,1 1,2 2,2 2,0 3,-1 3,-2 1,-2 4,-4 6,-4 1,0 3,1 4,1 1,1 1,1 2,1 0,0 1,0 1,0 1,-1 2,-2 2,-3 -3,-22 -20,-38 -41,-39l0 -1c0,-1 -1,-2 -2,-2 -1,0 -2,1 -2,2l0 1c-21,1 -39,17 -42,39 0,1 1,2 2,3 1,0 1,0 2,0 0,0 1,0 1,-1 2,0 3,-1 4,-1 3,0 5,2 6,4 1,1 2,2 3,2 1,0 2,-1 3,-2 1,-2 3,-4 6,-4 2,0 4,2 5,4 1,1 2,2 3,2 1,0 2,-1 3,-2 1,-2 2,-3 4,-4l0 26 -1 0c-1,0 -3,2 -3,3l0 23c-3,-2 -6,-3 -9,-4l0 -5 3 0c2,0 3,-1 3,-3l0 -5c0,-2 -1,-4 -3,-4l-5 0c-1,0 -2,1 -2,2 0,1 1,2 2,2l4 0 0 4 -49 0c0,0 -1,0 -1,0l-12 -17 3 -3 10 14c1,1 3,2 4,2l33 0c1,0 2,-1 2,-2 0,-1 -1,-2 -2,-2l-31 0c1,-1 1,-4 0,-5l-6 -8c-1,-1 -2,-2 -3,-2 -1,0 -2,0 -3,1l-1 0 0 0c0,-1 -1,-2 -2,-2 -1,0 -2,0 -2,1l-5 3c-1,1 -2,3 -1,5l13 17c1,1 2,2 4,2l0 0 0 8c-5,3 -9,5 -13,9l-8 0c-1,0 -2,1 -2,2 0,1 1,2 2,2l35 0c1,0 2,-1 2,-2 0,-1 -1,-2 -2,-2l-21 0c2,-2 4,-3 7,-4 0,1 1,1 2,1 1,0 2,-1 2,-2 0,0 -1,0 -1,-1 4,-1 8,-2 11,-3 1,1 1,2 2,2 2,0 2,-1 2,-2 0,-1 0,-1 0,-1 3,0 6,-1 9,-1 -1,1 -1,1 -1,2 0,1 1,2 2,2 1,0 2,-1 2,-2 0,-1 0,-1 0,-2 3,0 7,1 10,2l0 0c0,1 1,2 2,2 1,0 2,-1 2,-1 2,0 4,1 6,2 0,0 0,0 0,1 0,1 1,2 2,2 1,0 2,-1 2,-2 3,1 6,3 8,5l-40 0c-1,0 -2,1 -2,2 0,1 1,2 2,2l79 0c2,0 2,-1 2,-2 0,-1 0,-2 -2,-2l-8 0c-5,-7 -14,-11 -22,-11 -1,0 -3,0 -4,0l0 -3c0,-1 -1,-2 -2,-2 -1,0 -2,1 -2,2l0 4c-1,0 -2,1 -3,1l0 -21 3 0 0 9c0,1 1,2 2,2 1,0 2,-1 2,-2l0 -10c0,-1 -1,-3 -3,-3l0 0 0 -26c1,1 3,2 3,4z"/>
   </g>
   <path class="fil4" d="M125 83l-8 0c0,0 -1,1 -1,2l0 7 -8 0 0 -7c0,-1 -1,-2 -1,-2l-8 0 0 -7 8 0c0,0 1,-1 1,-2l0 -7 8 0 0 7c0,1 1,2 1,2l8 0 0 7zm1 -10l-7 0 0 -7c0,-1 -1,-2 -2,-2 0,0 0,0 0,0l-10 0c-1,0 -2,1 -2,2l0 7 -7 0c-1,0 -2,1 -2,2 0,0 0,0 0,0l0 9c0,2 1,3 2,3l0 0 7 0 0 6c0,1 1,3 2,3 0,0 0,0 0,0l10 0c1,0 2,-2 2,-3l0 0 0 -6 7 0c1,0 2,-1 2,-3 0,0 0,0 0,0l0 -9c0,-1 -1,-2 -2,-2 0,0 0,0 0,0z"/>
  </g>
 </g>
</svg>
