<svg id="9cc7f6e2-07c2-4710-960f-a5ea6a1374a2" data-name="Layer 1" xmlns="http://www.w3.org/2000/svg" viewBox="0 0 24 24">
  <title>accounting</title>
  <g>
    <path d="M366.8-17.58A8,8,0,0,0,356.16-16a8,8,0,0,0,.54,10.75,8,8,0,0,0,8.23,1.92,8,8,0,0,0,5.36-6.54A8,8,0,0,0,366.8-17.58Z" transform="translate(-353.96 19.32)" fill="#f19b20" fill-rule="evenodd"/>
    <path d="M370.41-10.81a8,8,0,0,1-1.25,4.3l-6.81-4.3,4.47-6.71A8.05,8.05,0,0,1,370.41-10.81Z" transform="translate(-353.96 19.32)" fill="#f8951d" fill-rule="evenodd"/>
    <path d="M362.35-19v8.07l-5.69,5.7A8.07,8.07,0,0,1,354.92-14,8,8,0,0,1,362.35-19Z" transform="translate(-353.96 19.32)" fill="#1da1dc" fill-rule="evenodd"/>
    <path d="M369.16-6.61a8,8,0,0,1-5.91,3.71,8,8,0,0,1-6.58-2.32l5.69-5.7Z" transform="translate(-353.96 19.32)" fill="#41ad49" fill-rule="evenodd"/>
    <path d="M366.82-17.62l-4.47,6.71V-19A8,8,0,0,1,366.82-17.62Z" transform="translate(-353.96 19.32)" fill="#1da1dc" fill-rule="evenodd"/>
    <path d="M370.4-10.81a8,8,0,0,1-1.24,4.3l-1-.61a8,8,0,0,0-1.76-9.82l0.39-.58A8.05,8.05,0,0,1,370.4-10.81Z" transform="translate(-353.96 19.32)" fill="#f05123" fill-rule="evenodd"/>
    <path d="M366.82-17.62l-0.43.65a8.06,8.06,0,0,0-4-1.86V-19A8,8,0,0,1,366.82-17.62Z" transform="translate(-353.96 19.32)" fill="#0072bb" fill-rule="evenodd"/>
    <path d="M377.56-6.91V4.32h-6.4V-6.91H372a0.8,0.8,0,0,1,.8-0.8h4A0.8,0.8,0,0,1,377.56-6.91Z" transform="translate(-353.96 19.32)" fill="#f47920" fill-rule="evenodd"/>
    <path d="M376.36-6.91V4.32h-5.2V-6.91H372a0.8,0.8,0,0,1,.8-0.8h2.8A0.8,0.8,0,0,1,376.36-6.91Z" transform="translate(-353.96 19.32)" fill="#fbc112" fill-rule="evenodd"/>
    <path d="M367.56,4.32h-6.8V-2.9a0.8,0.8,0,0,1,.8-0.8h4a0.8,0.8,0,0,1,.8.8l1.19,0V4.32Z" transform="translate(-353.96 19.32)" fill="#fbc112" fill-rule="evenodd"/>
    <path d="M367.16-13.72h4a0.8,0.8,0,0,1,.8.8V4.32h-5.6V-12.92A0.8,0.8,0,0,1,367.16-13.72Z" transform="translate(-353.96 19.32)" fill="#fbc112" fill-rule="evenodd"/>
    <path d="M376.76-8.11h-4a1.18,1.18,0,0,0-.4.07v-4.88a1.2,1.2,0,0,0-1.2-1.2h-1A8.41,8.41,0,0,0,367-17.88l0,0,0,0a8.38,8.38,0,0,0-11.12,1.69A8.42,8.42,0,0,0,356.4-5l0,0,0,0a8.33,8.33,0,0,0,3.9,2.19V4.32a0.4,0.4,0,0,0,.23.36h17.15A0.4,0.4,0,0,0,378,4.32V-6.91a1.2,1.2,0,0,0-1.2-1.2h0Zm-7.51-6h-2.1a1.2,1.2,0,0,0-1.2,1.2v3.81l-3-1.92,4-6a7.62,7.62,0,0,1,2.36,2.89h0ZM360.54-3.53a7.52,7.52,0,0,1-3.26-1.73l5.14-5.15L366-8.16V-4a1.19,1.19,0,0,0-.4-0.07h-4a1.2,1.2,0,0,0-1,.57h0Zm2.22-15a7.58,7.58,0,0,1,3.48,1.06l-3.48,5.22v-6.28h0Zm-0.8,0v7.43l-5.24,5.25a7.61,7.61,0,0,1-1.38-8A7.58,7.58,0,0,1,362-18.51h0Zm-0.8,21.22h0.4a0.4,0.4,0,0,0,0-.8h-0.4V0.71h0.4a0.4,0.4,0,0,0,0-.8h-0.4V-1.3h0.4a0.4,0.4,0,0,0,.4-0.4,0.4,0.4,0,0,0-.4-0.4h-0.4V-2.9a0.4,0.4,0,0,1,.4-0.4h4a0.4,0.4,0,0,1,.4.4v0.8h-2.8a0.4,0.4,0,0,0-.4.4,0.4,0.4,0,0,0,.4.4H366v1.2h-2.8a0.4,0.4,0,0,0,0,.8H366v1.2h-2.8a0.4,0.4,0,0,0,0,.8H366v1.2h-4.8V2.71h0Zm5.6,0h0.4a0.4,0.4,0,0,0,0-.8h-0.4V0.71h0.4a0.4,0.4,0,0,0,0-.8h-0.4V-1.3h0.4a0.4,0.4,0,0,0,.4-0.4,0.4,0.4,0,0,0-.4-0.4h-0.4V-3.3h0.4a0.4,0.4,0,0,0,.4-0.4,0.4,0.4,0,0,0-.4-0.4h-0.4V-5.3h0.4a0.4,0.4,0,0,0,.4-0.4,0.4,0.4,0,0,0-.4-0.4h-0.4v-1.2h0.4a0.4,0.4,0,0,0,.4-0.4,0.4,0.4,0,0,0-.4-0.4h-0.4v-1.2h0.4a0.4,0.4,0,0,0,.4-0.4,0.4,0.4,0,0,0-.4-0.4h-0.4v-1.2h0.4a0.4,0.4,0,0,0,.4-0.4,0.4,0.4,0,0,0-.4-0.4h-0.4v-0.8a0.4,0.4,0,0,1,.4-0.4h4a0.4,0.4,0,0,1,.4.4v0.8h-2.8a0.4,0.4,0,0,0-.4.4,0.4,0.4,0,0,0,.4.4h2.8v1.2h-2.8a0.4,0.4,0,0,0-.4.4,0.4,0.4,0,0,0,.4.4h2.8v1.2h-2.8a0.4,0.4,0,0,0-.4.4,0.4,0.4,0,0,0,.4.4h2.8v1.2h-2.8a0.4,0.4,0,0,0-.4.4,0.4,0.4,0,0,0,.4.4h2.8v1.2h-2.8a0.4,0.4,0,0,0-.4.4,0.4,0.4,0,0,0,.4.4h2.8v1.2h-2.8a0.4,0.4,0,0,0-.4.4,0.4,0.4,0,0,0,.4.4h2.8v1.2h-2.8a0.4,0.4,0,0,0,0,.8h2.8v1.2h-2.8a0.4,0.4,0,0,0,0,.8h2.8v1.2h-4.8V2.71h0Zm5.6,1.2V2.71h0.4a0.4,0.4,0,0,0,0-.8h-0.4V0.71h0.4a0.4,0.4,0,0,0,0-.8h-0.4V-1.3h0.4a0.4,0.4,0,0,0,.4-0.4,0.4,0.4,0,0,0-.4-0.4h-0.4V-3.3h0.4a0.4,0.4,0,0,0,.4-0.4,0.4,0.4,0,0,0-.4-0.4h-0.4V-5.3h0.4a0.4,0.4,0,0,0,.4-0.4,0.4,0.4,0,0,0-.4-0.4h-0.4v-0.8a0.4,0.4,0,0,1,.4-0.4h4a0.4,0.4,0,0,1,.4.4v0.8h-2.8a0.4,0.4,0,0,0-.4.4,0.4,0.4,0,0,0,.4.4h2.8v1.2h-2.8a0.4,0.4,0,0,0-.4.4,0.4,0.4,0,0,0,.4.4h2.8v1.2h-2.8a0.4,0.4,0,0,0-.4.4,0.4,0.4,0,0,0,.4.4h2.8v1.2h-2.8a0.4,0.4,0,0,0,0,.8h2.8v1.2h-2.8a0.4,0.4,0,0,0,0,.8h2.8v1.2h-4.8Z" transform="translate(-353.96 19.32)" fill-rule="evenodd"/>
  </g>
</svg>
