<svg id="a12e0b94-d842-4775-b3f8-7fe45bd92760" data-name="Layer 1" xmlns="http://www.w3.org/2000/svg" viewBox="0 0 17.48 23.34">
  <title>administrative</title>
  <g>
    <polygon points="10.53 9.17 10.53 7.75 6.9 7.75 6.9 9.17 8.72 10.78 10.53 9.17" fill="#e6af78" fill-rule="evenodd"/>
    <path d="M383.72,17.1v1.49a3.15,3.15,0,0,0,3.63-1.24V17.1h-3.63Z" transform="translate(-376.82 -9.35)" fill="#d49d6f" fill-rule="evenodd"/>
    <path d="M391.38,21.11A1.91,1.91,0,0,0,390,19.26l-1.69-.35-0.48-.73a0.2,0.2,0,0,0-.29,0l-2.05,1.77-2.06-1.77a0.2,0.2,0,0,0-.29,0l-0.48.73-1.69.36a1.91,1.91,0,0,0-1.33,1.85v0.5a0.57,0.57,0,0,0,.61.53h10.49a0.57,0.57,0,0,0,.6-0.53v-0.5Z" transform="translate(-376.82 -9.35)" fill="#717588" fill-rule="evenodd"/>
    <path d="M381.16,20.74l-1.08-.8a2,2,0,0,0-.39,1.19v0.5a0.57,0.57,0,0,0,.61.53h1.25V21.59A1.13,1.13,0,0,0,381.16,20.74Z" transform="translate(-376.82 -9.35)" fill="#5c5e6f" fill-rule="evenodd"/>
    <path d="M391.39,21.61v-0.5a2,2,0,0,0-.57-1.38l-1,1a1.13,1.13,0,0,0-.38.85v0.55h1.36A0.57,0.57,0,0,0,391.39,21.61Z" transform="translate(-376.82 -9.35)" fill="#5c5e6f" fill-rule="evenodd"/>
    <path d="M382.62,14.39a6.5,6.5,0,0,1,.57-2.06l0,0c0.33,0,.64-0.07.94-0.08h0.25a8,8,0,0,1,3.64.69l0.43,1a6.39,6.39,0,0,0,.2-3.83c-1.47.21-3.65-1-5,0h0a1.51,1.51,0,0,0-1.47,1.62,16.35,16.35,0,0,0,.41,2.59l0,0.28s0-.07,0-0.1V14.39Z" transform="translate(-376.82 -9.35)" fill="#785651" fill-rule="evenodd"/>
    <path d="M388.44,15v0a2.6,2.6,0,0,0-.09-1.35c-0.12-.24-0.22-0.5-0.32-0.74a8,8,0,0,0-3.64-.69h-0.25c-0.3,0-.61,0-0.94.08l0,0c-0.79,1.66-.91,3.72.53,5.08a2.82,2.82,0,0,0,1.18.69l0.17,0h0a2.33,2.33,0,0,0,.43,0C387.23,18.18,388.25,16.49,388.44,15Z" transform="translate(-376.82 -9.35)" fill="#efbf86" fill-rule="evenodd"/>
    <path d="M383.62,15c0-2.28.34-2.16,0.34-2.16a11.64,11.64,0,0,1,4.17.26L388,12.89a8,8,0,0,0-3.64-.69h-0.25c-0.3,0-.61,0-0.94.08l0,0c-0.79,1.66-.91,3.72.53,5.08a2.82,2.82,0,0,0,1.18.69l0.17,0h0a2.31,2.31,0,0,0,.43,0A3.91,3.91,0,0,1,383.62,15Z" transform="translate(-376.82 -9.35)" fill="#e6af78" fill-rule="evenodd"/>
    <path d="M388.66,10c-1.47.21-3.66-1-5,0,0,0-1.07,1.23-.43,2.24,0.33,0,.64-0.07.94-0.08h0.25a8,8,0,0,1,3.64.69l0.43,1A6.39,6.39,0,0,0,388.66,10Z" transform="translate(-376.82 -9.35)" fill="#694b4b" fill-rule="evenodd"/>
    <path d="M384.93,20.53l0.6-.61-2.06-1.77a0.2,0.2,0,0,0-.29,0l-0.48.73,1.62,2.22Z" transform="translate(-376.82 -9.35)" fill="#525363" fill-rule="evenodd"/>
    <path d="M386.74,21.14l1.61-2.22-0.48-.73a0.2,0.2,0,0,0-.29,0l-2.05,1.77,0.61,0.6Z" transform="translate(-376.82 -9.35)" fill="#e4e9f6" fill-rule="evenodd"/>
    <path d="M386.74,21.14l1.61-2.22-0.48-.73a0.2,0.2,0,0,0-.29,0l-2.05,1.77,0.61,0.6Z" transform="translate(-376.82 -9.35)" fill="#525363" fill-rule="evenodd"/>
    <polygon points="9.09 11.74 8.34 11.71 8.11 12.8 9.32 12.8 9.09 11.74" fill="#525363" fill-rule="evenodd"/>
    <path d="M384.93,20.74a0.4,0.4,0,0,0,.4.4h0.4a0.4,0.4,0,0,0,.4-0.4v-0.2l-0.61-.6-0.6.61v0.2Z" transform="translate(-376.82 -9.35)" fill="#525363" fill-rule="evenodd"/>
    <circle cx="8.74" cy="21.89" r="1.1" fill="#ffd881"/>
    <circle cx="16.05" cy="21.87" r="1.1" fill="#c4dc7b"/>
    <circle cx="1.44" cy="21.9" r="1.1" fill="#f16465"/>
    <path d="M383.61,10.43h0.06a0.34,0.34,0,0,0,.26-0.06c0.69-.52,1.71-0.32,2.71-0.12a8.23,8.23,0,0,0,1.54.21h0.14a8.49,8.49,0,0,1,0,2.25,0.34,0.34,0,0,0-.12-0.11,8.65,8.65,0,0,0-4.92-.64,0.34,0.34,0,0,0-.28.17,7.25,7.25,0,0,0-.35.71,7.58,7.58,0,0,1-.13-1.14,1.13,1.13,0,0,1,1.1-1.26h0Zm3.72,6.44a3.43,3.43,0,0,0,.78-2.17V13.93l-0.34-.79a8.37,8.37,0,0,0-4.25-.53,4.66,4.66,0,0,0-.58,1.78v0.32a3.43,3.43,0,0,0,.79,2.16,2.37,2.37,0,0,0,1.8.93h0a2.36,2.36,0,0,0,1.8-.93h0Zm-5.08-2.58v0.42a4.12,4.12,0,0,0,.95,2.6,3,3,0,0,0,2.33,1.17h0a3,3,0,0,0,2.33-1.18,4.13,4.13,0,0,0,.94-2.6V13.9a8.8,8.8,0,0,0,.12-3.93,0.34,0.34,0,0,0-.35-0.23h-0.07a5.59,5.59,0,0,1-1.72-.18,8.84,8.84,0,0,0-1.68-.22,2.58,2.58,0,0,0-1.48.4h0a1.81,1.81,0,0,0-1.78,1.95h0A15.14,15.14,0,0,0,382.25,14.29Z" transform="translate(-376.82 -9.35)" fill-rule="evenodd"/>
    <path d="M381.1,19.59l1.48-.31,1.61,1.95a0.34,0.34,0,0,0,.25.12h0v0.41h-4.18a0.24,0.24,0,0,1-.26-0.18v-0.5a1.56,1.56,0,0,1,1.07-1.5h0Zm2.28-1.08-0.24.37,1.34,1.62,0.56-.58-1.66-1.41h0Zm4.31,0,0.25,0.37-1.32,1.62L386,19.92l1.65-1.41h0ZM391,21.07a1.56,1.56,0,0,0-1.08-1.5l-1.48-.3-1.59,2a0.34,0.34,0,0,1-.25.13h0v0.41h4.17a0.31,0.31,0,0,0,.2-0.07,0.15,0.15,0,0,0,.06-0.11v-0.5h0Zm-5.89-.29,0.38-.39,0.39,0.39v1h-0.78v-1h0Zm-4.86,1.68h10.49a1,1,0,0,0,.65-0.24,0.84,0.84,0,0,0,.29-0.63v-0.5a2.26,2.26,0,0,0-1.59-2.16h0l-1.55-.32-0.4-.6v0a0.55,0.55,0,0,0-.78-0.09h0l-1.83,1.57-1.84-1.56h0a0.55,0.55,0,0,0-.78.1v0l-0.4.6-1.55.33h0a2.26,2.26,0,0,0-1.58,2.16v0.5A0.91,0.91,0,0,0,380.29,22.45Z" transform="translate(-376.82 -9.35)" fill-rule="evenodd"/>
    <path d="M392.51,26.47v2.19a0.34,0.34,0,0,0,.34.34h0a0.34,0.34,0,0,0,.34-0.34V26.47a1.8,1.8,0,0,0-1.8-1.8h-5.5V23.56a0.34,0.34,0,0,0-.34-0.34h0a0.34,0.34,0,0,0-.34.34v1.12h-5.5a1.81,1.81,0,0,0-1.8,1.81v2.19a0.34,0.34,0,0,0,.34.34h0a0.34,0.34,0,0,0,.34-0.34V26.5a1.12,1.12,0,0,1,1.12-1.12h5.5v3.31a0.34,0.34,0,0,0,.34.34h0a0.34,0.34,0,0,0,.34-0.34V25.36h5.5A1.12,1.12,0,0,1,392.51,26.47Z" transform="translate(-376.82 -9.35)" fill-rule="evenodd"/>
    <path d="M386.09,31.76a0.75,0.75,0,0,1-.53.22v0a0.75,0.75,0,1,1,.53-0.22h0Zm-0.54-2a1.44,1.44,0,0,0,0,2.88h0A1.44,1.44,0,1,0,385.56,29.79Z" transform="translate(-376.82 -9.35)" fill-rule="evenodd"/>
    <path d="M393.4,31.75a0.75,0.75,0,0,1-.53.22v0a0.75,0.75,0,1,1,.53-0.22h0Zm-0.54-2a1.44,1.44,0,0,0,0,2.88h0A1.44,1.44,0,1,0,392.86,29.78Z" transform="translate(-376.82 -9.35)" fill-rule="evenodd"/>
    <path d="M378.79,31.78a0.75,0.75,0,0,1-.53.22v0a0.75,0.75,0,1,1,.75-0.75,0.75,0.75,0,0,1-.22.53h0Zm-0.54-2a1.44,1.44,0,0,0,0,2.88h0A1.44,1.44,0,0,0,378.25,29.81Z" transform="translate(-376.82 -9.35)" fill-rule="evenodd"/>
  </g>
</svg>
