<?xml version="1.0" encoding="utf-8"?>
<!-- Generator: Adobe Illustrator 19.0.0, SVG Export Plug-In . SVG Version: 6.00 Build 0)  -->
<svg version="1.1" id="Layer_1" xmlns="http://www.w3.org/2000/svg" xmlns:xlink="http://www.w3.org/1999/xlink" x="0px" y="0px"
	 viewBox="0 0 118.1 142.4" style="enable-background:new 0 0 118.1 142.4;" xml:space="preserve">
<style type="text/css">
	.st0{fill-rule:evenodd;clip-rule:evenodd;fill:#FED975;}
	.st1{fill-rule:evenodd;clip-rule:evenodd;fill:#FCD770;}
	.st2{fill-rule:evenodd;clip-rule:evenodd;fill:#E7E9ED;}
	.st3{fill-rule:evenodd;clip-rule:evenodd;fill:#CCD1D9;}
	.st4{fill-rule:evenodd;clip-rule:evenodd;fill:#AAB2BD;}
	.st5{fill-rule:evenodd;clip-rule:evenodd;fill:#D3A16D;}
	.st6{fill-rule:evenodd;clip-rule:evenodd;fill:#E1B48B;}
	.st7{fill-rule:evenodd;clip-rule:evenodd;fill:#F0D0B5;}
	.st8{fill-rule:evenodd;clip-rule:evenodd;fill:#666E79;}
	.st9{fill-rule:evenodd;clip-rule:evenodd;fill:#F48270;}
	.st10{fill-rule:evenodd;clip-rule:evenodd;fill:#F36F54;}
	.st11{fill-rule:evenodd;clip-rule:evenodd;fill:#161717;}
	.st12{fill-rule:evenodd;clip-rule:evenodd;fill:#010101;}
</style>
<g id="XMLID_88_">
	<path id="XMLID_60_" class="st0" d="M65.4,103.9v13h-9.8v-16.4c2.1,2.1,5,3.4,8.2,3.4H65.4z"/>
	<path id="XMLID_59_" class="st0" d="M58.9,94.2h-6.4c0.4,2.5,1.5,4.6,3.2,6.3v16.4H44.4v-6.5h1.5c1,0,1.8-0.4,2.3-1
		c0.7-0.6,1.1-1.4,1.1-2.3c0-1.8-1.5-3.2-3.3-3.2h-1.5V66.7c7.7,1.8,14.1,6.8,17.7,13.6v13.9H58.9z"/>
	<path id="XMLID_58_" class="st1" d="M31.4,110.4v6.5H20v-7.8c2,0.8,4.3,1.3,6.5,1.3H31.4z"/>
	<path id="XMLID_57_" class="st0" d="M34.6,103.9v6.4h-8.1c-2.3,0-4.5-0.5-6.5-1.3c-5.7-2.5-9.6-8.2-9.6-14.9v-1.1
		c0-12.6,8.7-23.5,21-26.4v36.5L34.6,103.9z"/>
	<polygon id="XMLID_56_" class="st2" points="34.6,110.4 44.4,110.4 44.4,116.9 31.4,116.9 31.4,110.4 	"/>
	<path id="XMLID_55_" class="st2" d="M44.4,84.4v19.5c0-1.8-1.5-3.2-3.3-3.2h-1.8c-1,0-1.8,0.2-2.4,1l-2.3,2.3l-3.2-0.7V84.4
		l6.4-8.1L44.4,84.4z"/>
	<polygon id="XMLID_54_" class="st3" points="44.4,66.7 44.4,84.4 37.8,76.4 	"/>
	<polygon id="XMLID_53_" class="st3" points="31.4,66.7 37.8,76.4 31.4,84.4 	"/>
	<path id="XMLID_52_" class="st4" d="M101,94.2h6.5c-0.5,2.9-1.9,5.2-4,7c-2,1.7-4.6,2.7-7.5,2.7h-9.5c0-1-0.4-1.8-1-2.3
		c-0.6-0.6-1.4-1-2.4-1h-6.4c-1.8,0-3.2,1.4-3.2,3.2h-9.6c-3.2,0-6.1-1.3-8.2-3.4c-1.7-1.7-2.9-3.8-3.2-6.3H101z"/>
	<rect id="XMLID_51_" x="81.6" y="74.8" class="st5" width="16.2" height="19.4"/>
	<polygon id="XMLID_50_" class="st6" points="94.5,48.9 94.5,74.8 81.6,74.8 81.6,68.3 68.6,68.3 68.6,48.9 	"/>
	<polygon id="XMLID_49_" class="st2" points="68.6,68.3 81.6,68.3 81.6,94.2 62.1,94.2 62.1,68.3 	"/>
	<path id="XMLID_48_" class="st7" d="M85.5,101.7c0.6,0.5,1,1.3,1,2.3c0,1.8-0.7,3.3-1.9,4.5c-1.2,1.2-2.9,1.9-4.6,1.9
		s-3.3-0.7-4.5-1.9c-1.2-1.2-1.9-2.7-1.9-4.5s1.4-3.2,3.2-3.2h6.4C84.1,100.7,84.9,101.1,85.5,101.7L85.5,101.7z"/>
	<path id="XMLID_47_" class="st7" d="M45.9,103.9c1.8,0,3.3,1.4,3.3,3.2c0,0.8-0.4,1.7-1.1,2.3c-0.5,0.6-1.3,1-2.3,1H34.6v-6.4
		l2.3-2.3c0.6-0.7,1.4-1,2.4-1H41c1.8,0,3.3,1.4,3.3,3.2H45.9z"/>
	<path id="XMLID_46_" class="st7" d="M54.2,48.7c0.8,1,1.4,2.1,1.4,3.4c0,2.7-2.1,4.9-4.9,4.9H49c0.1-0.5,0.2-1.1,0.2-1.7v-8.1h1.5
		C52.1,47.2,53.4,47.8,54.2,48.7L54.2,48.7z"/>
	<polygon id="XMLID_45_" class="st7" points="42.7,61.9 44.4,66.7 37.8,76.4 31.4,66.7 32.9,61.9 	"/>
	<path id="XMLID_44_" class="st7" d="M49.2,47.2v8.1c0,0.6-0.1,1.2-0.2,1.7c-0.7,2.7-3.3,4.9-6.3,4.9h-9.8c-3,0-5.5-2.1-6.2-4.9
		c-0.2-0.5-0.2-1.1-0.2-1.7v-13h22.7V47.2z"/>
	<path id="XMLID_43_" class="st7" d="M26.8,57h-1.9c-1.3,0-2.5-0.6-3.4-1.4c-0.8-0.8-1.4-2.1-1.4-3.4c0-2.7,2.3-4.9,4.9-4.9h1.7v8.1
		C26.5,55.9,26.5,56.5,26.8,57L26.8,57z"/>
	<path id="XMLID_42_" class="st8" d="M55.7,42.4v9.8c0-1.3-0.6-2.5-1.4-3.4c-0.8-0.8-2.1-1.4-3.4-1.4h-1.5v-4.9H55.7z"/>
	<path id="XMLID_41_" class="st8" d="M24.9,47.2c-2.6,0-4.9,2.1-4.9,4.9v-9.8h6.5v4.9H24.9z"/>
	<path id="XMLID_40_" class="st9" d="M55.5,35.9H41V20c3.4,0.6,6.4,2.3,8.9,4.4C53,27.4,55.2,31.4,55.5,35.9L55.5,35.9z"/>
	<path id="XMLID_39_" class="st9" d="M34.6,20v15.9H20.1C20.8,28,26.9,21.4,34.6,20L34.6,20z"/>
	<path id="XMLID_38_" class="st10" d="M41,20v15.9h-6.4V20c1.1-0.1,2.1-0.2,3.2-0.2C38.9,19.8,40.1,19.9,41,20L41,20z"/>
	<path id="XMLID_37_" class="st10" d="M18.4,35.9h38.9c0.8,0,1.5,0.7,1.5,1.5v3.3c0,0.8-0.7,1.5-1.5,1.5H18.4c-1,0-1.7-0.7-1.7-1.5
		v-3.3C16.8,36.6,17.5,35.9,18.4,35.9L18.4,35.9z"/>
	<path id="XMLID_100_" class="st11" d="M103.3,92.5l5.6-13.9l-3-1.2l-6.1,15.1h-0.5V73.2h-3.3V47.2h-6.4v-6.4h-3.2v6.4h-3.3v-9.8
		h-3.2v9.8h-3.2v-6.4h-3.2v6.4H67v19.5h-6.4v8.2c-3.8-4.6-9-8.1-15-9.6l-0.7-2.1c2.4-0.7,4.3-2.4,5.2-4.5h0.7c3.6,0,6.5-3,6.5-6.5
		V44c1.8,0,3.2-1.4,3.2-3.2v-3.3c0-1.8-1.4-3.2-3.2-3.2H57c-1.5-9.3-9.5-16.2-19.1-16.2S20.2,25,18.7,34.3h-0.2
		c-1.8,0-3.2,1.4-3.2,3.2v3.3c0,1.8,1.4,3.2,3.2,3.2v8.1c0,3.6,2.9,6.5,6.4,6.5h0.7c1,2.1,3,3.8,5.2,4.5l-0.7,2.1
		C17.5,68.6,8.7,79.9,8.7,93.1v1.1c0,6.9,3.9,12.8,9.8,15.8v8.4H67v-13h5.1c0.7,3.7,3.9,6.5,7.8,6.5s7.3-2.9,8-6.5H96
		c6.5,0,12-4.6,13.1-11.1l0.4-1.9H103.3z M83.1,92.5V76.4h13v16.2H83.1z M70.3,50.4h22.6v22.7h-9.8v-6.4H70.3V50.4z M79.9,69.9v22.6
		H63.7V69.9H79.9z M60.5,80.8v11.8h-0.6l-6.1-15.1l-3,1.2l5.6,13.9h-5.9l0.2,1.9c0.5,2.6,1.7,4.9,3.2,6.7v14.1h-8.1V112
		c2.7,0,4.9-2.1,4.9-4.9c0-2.7-2.1-4.9-4.9-4.9V68.9C52.1,70.8,57.3,75.1,60.5,80.8L60.5,80.8z M41.5,63.4l1.1,3.1l-4.8,7l-4.6-7
		l1-3.1H41.5z M42.7,79.9l-2.9-3.6l2.9-4.3V79.9z M32.9,79.9v-7.8l2.9,4.3L32.9,79.9z M32.9,85l4.9-6.1l4.9,6.1v14.3
		c-0.5-0.1-1.1-0.2-1.7-0.2h-1.9c-1.2,0-2.5,0.5-3.3,1.4l-1.7,1.7l-1.2-0.2V85z M36.3,104.5l1.8-1.8c0.2-0.2,0.7-0.5,1.1-0.5H41
		c1,0,1.7,0.7,1.7,1.7v1.5h3.2c1,0,1.7,0.7,1.7,1.7c0,0.8-0.7,1.7-1.7,1.7h-9.6V104.5z M42.7,112v3.2h-9.8V112H42.7z M50.8,55.3
		v-6.4c1.8,0,3.2,1.4,3.2,3.2C54,53.9,52.6,55.3,50.8,55.3L50.8,55.3z M54,46.5c-1-0.6-2-0.8-3.2-0.8V44H54V46.5z M53.8,34.3H42.7
		V22.1C48.3,23.8,52.6,28.4,53.8,34.3L53.8,34.3z M39.5,21.4v12.8h-3.2V21.4c0.5,0,1.1-0.1,1.5-0.1C38.4,21.3,38.9,21.4,39.5,21.4
		L39.5,21.4z M32.9,22.1v12.1H22C23.2,28.4,27.5,23.8,32.9,22.1L32.9,22.1z M18.4,37.5h38.9v3.3H18.4V37.5z M24.9,44v1.7
		c-1.2,0-2.3,0.2-3.2,0.8V44H24.9z M21.7,52.1c0-1.8,1.4-3.2,3.2-3.2v6.4C23.1,55.3,21.7,53.9,21.7,52.1L21.7,52.1z M28.2,55.3V44
		h19.4v11.3c0,2.7-2.1,4.9-4.9,4.9h-9.8C30.3,60.2,28.2,58,28.2,55.3L28.2,55.3z M11.9,94.2v-1.1c0-11.3,7.3-20.9,17.8-24.4v32.5
		l-1.8-0.5c-3.7-0.8-6.3-4-6.3-7.8v-6.8h-3.2v6.8c0,5.4,3.6,9.9,8.8,11.1l5.7,1.3v3.6h-6.4C18.4,108.8,11.9,102.3,11.9,94.2
		L11.9,94.2z M21.7,111.3c1.5,0.5,3.2,0.7,4.9,0.7h3.2v3.2h-8.1V111.3z M57.3,115.2v-11.4c1.9,1.1,4,1.7,6.4,1.7v9.8H57.3z
		 M79.9,108.8c-2.6,0-4.9-2.3-4.9-4.9c0-1,0.7-1.7,1.7-1.7h6.4c1,0,1.7,0.7,1.7,1.7C84.8,106.6,82.6,108.8,79.9,108.8L79.9,108.8z
		 M96,102.3h-8.2c-0.7-1.9-2.5-3.2-4.6-3.2h-6.4c-2.1,0-3.9,1.3-4.5,3.2h-8.3c-4.3,0-8-2.6-9.4-6.4h50.9
		C103.9,99.7,100.2,102.3,96,102.3L96,102.3z"/>
	<rect id="XMLID_11_" x="79.9" y="53.8" class="st12" width="3.2" height="3.2"/>
	<rect id="XMLID_10_" x="73.5" y="53.8" class="st12" width="3.2" height="3.2"/>
	<rect id="XMLID_9_" x="86.5" y="53.8" class="st12" width="3.2" height="3.2"/>
	<rect id="XMLID_8_" x="86.5" y="60.2" class="st12" width="3.2" height="3.2"/>
	<rect id="XMLID_7_" x="73.5" y="60.2" class="st12" width="3.2" height="3.2"/>
	<rect id="XMLID_6_" x="79.9" y="60.2" class="st12" width="3.2" height="3.2"/>
	<rect id="XMLID_5_" x="86.5" y="66.7" class="st12" width="3.2" height="3.2"/>
	<rect id="XMLID_4_" x="67" y="73.2" class="st12" width="3.3" height="16.2"/>
	<rect id="XMLID_3_" x="73.5" y="73.2" class="st12" width="3.2" height="16.2"/>
	<rect id="XMLID_2_" x="86.5" y="79.7" class="st12" width="6.4" height="3.2"/>
	<rect id="XMLID_1_" x="86.5" y="86.1" class="st12" width="6.4" height="3.2"/>
</g>
</svg>
