<svg id="0ff54797-25bb-4ae2-b354-02f10125710e" data-name="Layer 1" xmlns="http://www.w3.org/2000/svg" viewBox="0 0 24 24">
  <title>arts_design</title>
  <g>
    <path d="M395.13,36.89a11.43,11.43,0,0,0-9.88-.95,0.77,0.77,0,0,0,.44,1.46l0.53-.12a0.89,0.89,0,0,1,1,.53,0.89,0.89,0,0,0,.94.54,8.36,8.36,0,0,1,5.37,1.15Z" transform="translate(-375.66 -34.76)" fill="#6374b8" fill-rule="evenodd"/>
    <path d="M387.42,52.49a5.71,5.71,0,0,1,3.74-1.11A3.76,3.76,0,0,0,394.78,46,9.8,9.8,0,1,0,379,57.16l0.06,0.06a3.76,3.76,0,0,0,6.25-1.66A5.71,5.71,0,0,1,387.42,52.49Z" transform="translate(-375.66 -34.76)" fill="#eef3fa" fill-rule="evenodd"/>
    <circle cx="6.11" cy="19.19" r="1.42" fill="#f05658"/>
    <circle cx="8.33" cy="9.38" r="1.23" fill="#f99d1c"/>
    <circle cx="4.89" cy="13.57" r="1.89" fill="#fff"/>
    <circle cx="13.42" cy="12.01" r="1.89" fill="#6374b8"/>
    <rect x="393.74" y="42.87" width="3.22" height="2.37" transform="translate(-125.14 379.78) rotate(-75.01)" fill="#fff"/>
    <path d="M396.07,45.91l-1.43,5.33a24.89,24.89,0,0,1-3.11,7,24.89,24.89,0,0,1,.82-7.63l1.43-5.33Z" transform="translate(-375.66 -34.76)" fill="#7c92ca" fill-rule="evenodd"/>
    <path d="M398.83,38.63l0-.08a4.65,4.65,0,0,1-.52-3.32l-2.94,1.7a3.22,3.22,0,0,0-1.18,4.4A2.7,2.7,0,0,0,398.83,38.63Z" transform="translate(-375.66 -34.76)" fill="#ffd999" fill-rule="evenodd"/>
    <path d="M399,39a2.71,2.71,0,0,0-.16-0.33l0-.08a4.65,4.65,0,0,1-.52-3.32l-2.94,1.7a3.22,3.22,0,0,0-1.61,2.68,2.15,2.15,0,0,0,2.73-.11A2.26,2.26,0,0,1,399,39Z" transform="translate(-375.66 -34.76)" fill="#6374b8" fill-rule="evenodd"/>
    <path d="M381.77,52.06A1.89,1.89,0,1,0,383.67,54a1.89,1.89,0,0,0-1.89-1.89h0Zm0,2.85a1,1,0,1,1,1-1A1,1,0,0,1,381.77,54.91Z" transform="translate(-375.66 -34.76)" fill-rule="evenodd"/>
    <path d="M384,42.45a1.7,1.7,0,1,0,1.7,1.7,1.7,1.7,0,0,0-1.7-1.7h0Zm0,2.46a0.76,0.76,0,1,1,.76-0.76A0.76,0.76,0,0,1,384,44.9Z" transform="translate(-375.66 -34.76)" fill-rule="evenodd"/>
    <path d="M382.22,50a2.36,2.36,0,1,0-1.67.69,2.35,2.35,0,0,0,1.67-.69h0Zm-3.09-1.67a1.42,1.42,0,1,1,.42,1A1.41,1.41,0,0,1,379.13,48.34Z" transform="translate(-375.66 -34.76)" fill-rule="evenodd"/>
    <path d="M389.09,44.41a2.36,2.36,0,1,0,1.67.69,2.34,2.34,0,0,0-1.67-.69h0Zm1,3.37a1.42,1.42,0,1,1,.42-1A1.41,1.41,0,0,1,390.09,47.77Z" transform="translate(-375.66 -34.76)" fill-rule="evenodd"/>
    <path d="M399.24,38.39l0-.08a4.18,4.18,0,0,1-.46-3,0.47,0.47,0,0,0-.69-0.51l-2.77,1.6a11.83,11.83,0,0,0-4.5-1.56,0.47,0.47,0,0,0-.12.93A10.88,10.88,0,0,1,394.43,37a3.69,3.69,0,0,0-1.07,1.83,8.76,8.76,0,0,0-5.23-1,0.43,0.43,0,0,1-.45-0.26,1.35,1.35,0,0,0-1.56-.81l-0.53.12a0.3,0.3,0,0,1-.35-0.39,0.29,0.29,0,0,1,.18-0.18,11.05,11.05,0,0,1,2.11-.55,0.47,0.47,0,0,0-.14-0.93,12,12,0,0,0-2.29.59,1.23,1.23,0,0,0,.71,2.36l0.53-.12a0.42,0.42,0,0,1,.48.25,1.37,1.37,0,0,0,1.43.83,7.85,7.85,0,0,1,5,1.05,3.67,3.67,0,0,0,.49,1.69,3.17,3.17,0,0,0,.41.56l-0.39,1.47c-0.17-.2-0.35-0.4-0.54-0.59a10.2,10.2,0,0,0-7.27-3h0a10.28,10.28,0,0,0-7.26,17.54l0.06,0.06a4.18,4.18,0,0,0,2.95,1.22,4.3,4.3,0,0,0,1.11-.15,4.18,4.18,0,0,0,3-2.94,5.21,5.21,0,0,1,1.94-2.81,5.27,5.27,0,0,1,3.43-1h0.46a25.33,25.33,0,0,0-.52,6.43,0.47,0.47,0,0,0,.35.43l0.12,0a0.47,0.47,0,0,0,.39-0.22,25.33,25.33,0,0,0,3.16-7.15L396.53,46l0.8-3a3.19,3.19,0,0,0,.75-0.31,3.17,3.17,0,0,0,1.16-4.33h0Zm-3.67-1.06,2.13-1.23a5.11,5.11,0,0,0,.44,2.21,2.65,2.65,0,0,0-2,.87,1.56,1.56,0,0,1-1.9.16,2.75,2.75,0,0,1,1.35-2h0Zm0.18,8L394.36,45l0.06-.22h0l0.53-2a3.21,3.21,0,0,0,1.37.39l-0.59,2.19h0Zm-4.56,5.57a6.21,6.21,0,0,0-4,1.21,6.14,6.14,0,0,0-2.28,3.31,3.29,3.29,0,0,1-5.47,1.45l-0.05-.05a9.34,9.34,0,0,1,6.6-15.94h0a9.27,9.27,0,0,1,6.6,2.77,9.48,9.48,0,0,1,.9,1.05l-0.12.46-1.43,5.33-0.1.38a3.42,3.42,0,0,1-.62,0h0Zm3,0.21A24.39,24.39,0,0,1,392,56.6a24.39,24.39,0,0,1,.83-5.85l1.31-4.87,1.38,0.37-1.31,4.87h0Zm4.46-10.56a2.23,2.23,0,0,1-4.09.54,2.75,2.75,0,0,1-.29-0.72,3,3,0,0,0,.91.15,2.14,2.14,0,0,0,1.62-.71,1.76,1.76,0,0,1,1.83-.5A2.22,2.22,0,0,1,398.65,40.56Z" transform="translate(-375.66 -34.76)" fill-rule="evenodd"/>
    <path d="M389.15,35.7a0.47,0.47,0,1,0-.33-0.14A0.47,0.47,0,0,0,389.15,35.7Z" transform="translate(-375.66 -34.76)" fill-rule="evenodd"/>
  </g>
</svg>
