<svg id="4747498d-6927-431c-89e3-b4ee39b92380" data-name="Layer 1" xmlns="http://www.w3.org/2000/svg" viewBox="0 0 24 24">
  <title>program_product_management</title>
  <g>
    <path d="M382.09,438.58v-3.16a0.38,0.38,0,0,1,.16.09l1.34,1.13-1.5,1.94h0Zm3.53-2.18a0.92,0.92,0,0,0-.32-0.61l-2-1.7a1.86,1.86,0,0,0-1.19-.46h-4.41a1.52,1.52,0,0,0-.41.06l-0.28.08,1.16-2.18a0.93,0.93,0,0,0-.31-1.22,0.8,0.8,0,0,0-1.13.33l-2.26,4.24a0.94,0.94,0,0,0-.11.44,0.84,0.84,0,0,0,1.1.85l2.27-.82v6.75h4.39v-1.8a0.78,0.78,0,0,0,.34.08,0.81,0.81,0,0,0,.64-0.32l2.35-3A1,1,0,0,0,385.62,436.41Z" transform="translate(-374.33 -427.79)" fill="#f8a698" fill-rule="evenodd"/>
    <path d="M378.69,451.79a1,1,0,0,1-1-1.07v-8.56a1,1,0,1,1,2,0v8.56A1,1,0,0,1,378.69,451.79Z" transform="translate(-374.33 -427.79)" fill="#678389" fill-rule="evenodd"/>
    <path d="M381.1,451.79a1,1,0,0,1-1-1.07v-8.56a1,1,0,1,1,2,0v8.56A1,1,0,0,1,381.1,451.79Z" transform="translate(-374.33 -427.79)" fill="#49696f" fill-rule="evenodd"/>
    <ellipse cx="5.57" cy="3.38" rx="1.72" ry="1.85" fill="#f8a698"/>
    <path d="M383.28,434.09a1.86,1.86,0,0,0-1.19-.46h-1.18a1,1,0,1,1-2,0h-1.18a1.51,1.51,0,0,0-.41.06l-0.28.08-1.22,2.34,1.93-.7v6.75h4.39v-6.74a0.38,0.38,0,0,1,.16.09l1,0.85,1-1.4Z" transform="translate(-374.33 -427.79)" fill="#00a0db" fill-rule="evenodd"/>
    <path d="M378.29,432.94a0.57,0.57,0,0,1-.71-0.43l-0.71-2.79a0.62,0.62,0,0,1,.4-0.76,0.57,0.57,0,0,1,.71.43l0.71,2.79A0.62,0.62,0,0,1,378.29,432.94Z" transform="translate(-374.33 -427.79)" fill="#3c98a5" fill-rule="evenodd"/>
    <ellipse cx="11.72" cy="4.3" rx="0.75" ry="0.8" fill="#3c98a5"/>
    <path d="M387.55,431.24a0.45,0.45,0,0,1-.33-0.15,1.57,1.57,0,0,0-2.33,0,0.45,0.45,0,0,1-.66,0,0.53,0.53,0,0,1,0-.71,2.46,2.46,0,0,1,3.66,0,0.53,0.53,0,0,1,0,.71A0.45,0.45,0,0,1,387.55,431.24Z" transform="translate(-374.33 -427.79)" fill="#82bec1" fill-rule="evenodd"/>
    <path d="M388.71,430a0.45,0.45,0,0,1-.33-0.15,3.13,3.13,0,0,0-4.65,0,0.45,0.45,0,0,1-.66,0,0.53,0.53,0,0,1,0-.71,4,4,0,0,1,6,0,0.53,0.53,0,0,1,0,.71A0.45,0.45,0,0,1,388.71,430Z" transform="translate(-374.33 -427.79)" fill="#a7dcdf" fill-rule="evenodd"/>
    <path d="M394.84,440.48v-1.59l0.53,1.31-0.53.27h0Zm2.35-.2-1-2.45a1.84,1.84,0,0,0-1.68-1.19H390.9a1.84,1.84,0,0,0-1.68,1.19l-0.42,1v2.64a0.81,0.81,0,0,0,.93-0.51l0.85-2.1v5.45h4.26v-1.9l2-1A0.91,0.91,0,0,0,397.19,440.29Z" transform="translate(-374.33 -427.79)" fill="#c95f49" fill-rule="evenodd"/>
    <path d="M394.84,438.89l0.48,1.19,1.52-.68-0.64-1.58a1.84,1.84,0,0,0-1.68-1.19h-1a0.82,0.82,0,1,1-1.64,0h-1a1.84,1.84,0,0,0-1.68,1.19l-0.44,1.08,1.16,1.57,0.64-1.59v5.45h4.26v-5.45Z" transform="translate(-374.33 -427.79)" fill="#ffcc4e" fill-rule="evenodd"/>
    <path d="M389.86,450l-0.66-4.62a1,1,0,0,1,.44-1l2.15-1.35a0.87,0.87,0,0,1,1.24.35,1,1,0,0,1-.33,1.33l-1.62,1,0.57,4a1,1,0,0,1-.76,1.11A0.92,0.92,0,0,1,389.86,450Z" transform="translate(-374.33 -427.79)" fill="#516c99" fill-rule="evenodd"/>
    <path d="M395.28,450l0.66-4.62a1,1,0,0,0-.44-1L393.35,443a0.87,0.87,0,0,0-1.24.35,1,1,0,0,0,.33,1.33l1.62,1-0.57,4a1,1,0,0,0,.76,1.11A0.92,0.92,0,0,0,395.28,450Z" transform="translate(-374.33 -427.79)" fill="#444d84" fill-rule="evenodd"/>
    <path d="M387.09,451.79a0.7,0.7,0,0,0,.67-0.72v-7.28a0.67,0.67,0,1,0-1.34,0v7.28A0.7,0.7,0,0,0,387.09,451.79Z" transform="translate(-374.33 -427.79)" fill="#c95f49" fill-rule="evenodd"/>
    <path d="M396.81,451.79a0.7,0.7,0,0,0,.67-0.72v-7.28a0.67,0.67,0,1,0-1.34,0v7.28A0.69,0.69,0,0,0,396.81,451.79Z" transform="translate(-374.33 -427.79)" fill="#c95f49" fill-rule="evenodd"/>
    <path d="M389,442.78h5.48a0.39,0.39,0,0,0,.38-0.41v-3.49a0.39,0.39,0,0,0-.38-0.41H389a0.39,0.39,0,0,0-.38.41v3.49A0.39,0.39,0,0,0,389,442.78Z" transform="translate(-374.33 -427.79)" fill="#91cfd0" fill-rule="evenodd"/>
    <ellipse cx="17.39" cy="12.86" rx="0.61" ry="0.66" fill="#fff"/>
    <ellipse cx="18.39" cy="6.54" rx="1.67" ry="1.8" fill="#c95f49"/>
    <path d="M398.33,443.12a0.33,0.33,0,0,0-.32-0.34H385.85a0.34,0.34,0,0,0-.33.35v1.28a0.34,0.34,0,0,0,.33.35H398a0.33,0.33,0,0,0,.32-0.34v-1.3Z" transform="translate(-374.33 -427.79)" fill="#f4826c" fill-rule="evenodd"/>
  </g>
</svg>
