<svg id="12dde5dd-26c7-4330-9870-776098a96ab5" data-name="Layer 1" xmlns="http://www.w3.org/2000/svg" viewBox="0 0 22.85 17.74">
  <title>education</title>
  <g>
    <path d="M371.77,134.44V147a1,1,0,0,0,1,1h20.17a1,1,0,0,0,1-1V134.44a1,1,0,0,0-1-1H372.82A1,1,0,0,0,371.77,134.44Z" transform="translate(-371.43 -130.65)" fill="#f9a65f" fill-rule="evenodd"/>
    <path d="M373,133.8v12a1,1,0,0,0,1,1h17.76a1,1,0,0,0,1-1v-12H373Z" transform="translate(-371.43 -130.65)" fill="#c9c9c8" fill-rule="evenodd"/>
    <path d="M382.86,133.58v13.24H383a2.14,2.14,0,0,1,2-1.35h6.74a1,1,0,0,0,1-1v-12a1,1,0,0,0-1-1H385A2.14,2.14,0,0,0,382.86,133.58Z" transform="translate(-371.43 -130.65)" fill="#d9dfe0" fill-rule="evenodd"/>
    <path d="M373,132.45v12a1,1,0,0,0,1,1h6.74a2.12,2.12,0,0,1,.38,0,2.14,2.14,0,0,1,1.61,1.32h0.15V133.58a2.14,2.14,0,0,0-2.14-2.14H374A1,1,0,0,0,373,132.45Z" transform="translate(-371.43 -130.65)" fill="#d9dfe0" fill-rule="evenodd"/>
    <path d="M381.09,131.47v14a2.14,2.14,0,0,1,1.61,1.32h0.15V133.58A2.14,2.14,0,0,0,381.09,131.47Z" transform="translate(-371.43 -130.65)" fill="#ecebea" fill-rule="evenodd"/>
    <path d="M384.62,131.47v14a2.14,2.14,0,0,0-1.61,1.32h-0.15V133.58A2.14,2.14,0,0,1,384.62,131.47Z" transform="translate(-371.43 -130.65)" fill="#c9c9c8" fill-rule="evenodd"/>
    <polygon points="5.46 6.8 7.16 5.56 8.85 6.8 8.85 0.34 5.46 0.34 5.46 6.8" fill="#ef3c68" fill-rule="evenodd"/>
    <path d="M393.94,134.1a0.34,0.34,0,0,0-.34.34V147a0.66,0.66,0,0,1-.66.66H372.77a0.66,0.66,0,0,1-.66-0.66v-4.47a0.34,0.34,0,0,0-.68,0V147a1.34,1.34,0,0,0,1.34,1.34h20.17a1.34,1.34,0,0,0,1.34-1.34V134.44A0.34,0.34,0,0,0,393.94,134.1Z" transform="translate(-371.43 -130.65)" fill="#0b050c" fill-rule="evenodd"/>
    <path d="M371.77,141.79a0.34,0.34,0,0,0,.34-0.34v-7a0.34,0.34,0,0,0-.68,0v7A0.34,0.34,0,0,0,371.77,141.79Z" transform="translate(-371.43 -130.65)" fill="#0b050c" fill-rule="evenodd"/>
    <path d="M374,145.81h6.74a1.79,1.79,0,0,1,1.41.67H374a0.67,0.67,0,0,1-.67-0.67v-0.18a1.34,1.34,0,0,0,.67.18h0Zm11-14h6.74a0.67,0.67,0,0,1,.67.67v12a0.67,0.67,0,0,1-.67.67h-1a0.34,0.34,0,0,0,0,.68h1a1.34,1.34,0,0,0,.67-0.18v0.18a0.67,0.67,0,0,1-.67.67h-8.15a1.79,1.79,0,0,1,1.41-.67h4.6a0.34,0.34,0,0,0,0-.68H385a2.47,2.47,0,0,0-1.8.77V133.58a1.8,1.8,0,0,1,1.8-1.8h0Zm-11,15.38h17.76a1.35,1.35,0,0,0,1.35-1.35V132.45a1.35,1.35,0,0,0-1.35-1.35H385a2.48,2.48,0,0,0-2.14,1.23,2.48,2.48,0,0,0-1.64-1.18,0.34,0.34,0,1,0-.14.66,1.81,1.81,0,0,1,1.44,1.76V145.9a2.47,2.47,0,0,0-1.8-.77H374a0.67,0.67,0,0,1-.67-0.67v-12a0.67,0.67,0,0,1,.67-0.67h1a0.34,0.34,0,0,0,0-.68h-1a1.35,1.35,0,0,0-1.35,1.35v13.36A1.35,1.35,0,0,0,374,147.16Z" transform="translate(-371.43 -130.65)" fill="#0b050c" fill-rule="evenodd"/>
    <path d="M385.17,134.39h5.49a0.34,0.34,0,0,0,0-.68h-5.49A0.34,0.34,0,0,0,385.17,134.39Z" transform="translate(-371.43 -130.65)" fill="#0b050c" fill-rule="evenodd"/>
    <path d="M385.17,135.87h5.49a0.34,0.34,0,0,0,0-.68h-5.49A0.34,0.34,0,0,0,385.17,135.87Z" transform="translate(-371.43 -130.65)" fill="#0b050c" fill-rule="evenodd"/>
    <path d="M385.17,138.81h5.49a0.34,0.34,0,0,0,0-.68h-5.49A0.34,0.34,0,1,0,385.17,138.81Z" transform="translate(-371.43 -130.65)" fill="#0b050c" fill-rule="evenodd"/>
    <path d="M385.17,141.75h5.49a0.34,0.34,0,0,0,0-.68h-5.49A0.34,0.34,0,0,0,385.17,141.75Z" transform="translate(-371.43 -130.65)" fill="#0b050c" fill-rule="evenodd"/>
    <path d="M385.17,137.34h5.49a0.34,0.34,0,0,0,0-.68h-5.49A0.34,0.34,0,0,0,385.17,137.34Z" transform="translate(-371.43 -130.65)" fill="#0b050c" fill-rule="evenodd"/>
    <path d="M385.17,140.28h5.49a0.34,0.34,0,0,0,0-.68h-5.49A0.34,0.34,0,1,0,385.17,140.28Z" transform="translate(-371.43 -130.65)" fill="#0b050c" fill-rule="evenodd"/>
    <path d="M374.8,134.39h1.14a0.34,0.34,0,1,0,0-.68H374.8A0.34,0.34,0,0,0,374.8,134.39Z" transform="translate(-371.43 -130.65)" fill="#0b050c" fill-rule="evenodd"/>
    <path d="M374.8,135.87h1.14a0.34,0.34,0,1,0,0-.68H374.8A0.34,0.34,0,0,0,374.8,135.87Z" transform="translate(-371.43 -130.65)" fill="#0b050c" fill-rule="evenodd"/>
    <path d="M380.29,138.13H374.8a0.34,0.34,0,0,0,0,.68h5.49A0.34,0.34,0,1,0,380.29,138.13Z" transform="translate(-371.43 -130.65)" fill="#0b050c" fill-rule="evenodd"/>
    <path d="M380.29,141.07H374.8a0.34,0.34,0,0,0,0,.68h5.49A0.34,0.34,0,1,0,380.29,141.07Z" transform="translate(-371.43 -130.65)" fill="#0b050c" fill-rule="evenodd"/>
    <path d="M374.8,137.34h1.14a0.34,0.34,0,1,0,0-.68H374.8A0.34,0.34,0,0,0,374.8,137.34Z" transform="translate(-371.43 -130.65)" fill="#0b050c" fill-rule="evenodd"/>
    <path d="M380.29,139.6H374.8a0.34,0.34,0,0,0,0,.68h5.49A0.34,0.34,0,1,0,380.29,139.6Z" transform="translate(-371.43 -130.65)" fill="#0b050c" fill-rule="evenodd"/>
    <path d="M379.34,131.33a0.6,0.6,0,0,1,.6.6v4.85l-1.16-.85a0.34,0.34,0,0,0-.4,0l-1.16.85v-4.85a1.27,1.27,0,0,0-.15-0.6h2.26Zm-3.39,0a0.6,0.6,0,0,1,.6.6v5.52a0.34,0.34,0,0,0,.54.27l1.5-1.1,1.5,1.1a0.34,0.34,0,0,0,.54-0.27v-5.52a1.28,1.28,0,0,0-1.28-1.28h-3.39A0.34,0.34,0,1,0,375.95,131.33Z" transform="translate(-371.43 -130.65)" fill="#0b050c" fill-rule="evenodd"/>
  </g>
</svg>
