<svg id="47d6eb93-3ec6-46fa-a63e-e8f2839b5377" data-name="Layer 1" xmlns="http://www.w3.org/2000/svg" viewBox="0 0 21.39 24">
  <title>engineering</title>
  <g>
    <path d="M371.68,167v-1.48h-5.44l-0.05.44a3.58,3.58,0,0,1-7.11,0l-0.05-.44h-5.44V167h2.11a7,7,0,0,0,1,2.34l-1.53,1.53,2.11,2.1,1.53-1.53a7,7,0,0,0,2.34,1v2.16h3v-2.17a7,7,0,0,0,2.34-1L368,173l2.1-2.1-1.52-1.52a7,7,0,0,0,1-2.34h2.14Z" transform="translate(-351.91 -151.09)" fill="#3baccb" fill-rule="evenodd"/>
    <path d="M371.56,162.4v-1a8.91,8.91,0,0,0-5.62-8.31l-0.68-.27v-1.24H360v1.24l-0.68.27a8.91,8.91,0,0,0-5.62,8.31v1l-1.25.54v2.6h20.41v-2.61Z" transform="translate(-351.91 -151.09)" fill="#ef9c20" fill-rule="evenodd"/>
    <path d="M373,162.48l-1-.41v-0.65a9.4,9.4,0,0,0-6.3-8.91v-0.92a0.5,0.5,0,0,0-.5-0.49H360a0.49,0.49,0,0,0-.49.49v0.93a9.4,9.4,0,0,0-6.3,8.91v0.66l-0.95.4a0.49,0.49,0,0,0-.3.46v2.6a0.49,0.49,0,0,0,.49.49H353v1a0.5,0.5,0,0,0,.49.49h1.78a7.48,7.48,0,0,0,.74,1.77l-1.26,1.26a0.49,0.49,0,0,0,0,.7l2.1,2.1a0.49,0.49,0,0,0,.7,0l1.26-1.26a7.47,7.47,0,0,0,1.77.74v1.78a0.5,0.5,0,0,0,.5.5h3a0.5,0.5,0,0,0,.5-0.5v-1.78a7.48,7.48,0,0,0,1.77-.74l1.26,1.26a0.49,0.49,0,0,0,.7,0l2.1-2.1a0.49,0.49,0,0,0,0-.7l-1.26-1.26a7.49,7.49,0,0,0,.74-1.77h1.78a0.5,0.5,0,0,0,.5-0.49v-1h0.64a0.5,0.5,0,0,0,.5-0.49v-2.6a0.49,0.49,0,0,0-.31-0.46h0Zm-12.56-10.39h4.32v8.27h-4.31v-8.27h0Zm10.74,14.43h-1.65a0.5,0.5,0,0,0-.49.39,6.5,6.5,0,0,1-.91,2.18,0.5,0.5,0,0,0,.06.62l1.18,1.18L368,172.3l-1.18-1.18a0.49,0.49,0,0,0-.62-0.06A6.51,6.51,0,0,1,364,172a0.49,0.49,0,0,0-.39.49v1.67h-2v-1.68a0.49,0.49,0,0,0-.39-0.5A6.49,6.49,0,0,1,359,171a0.49,0.49,0,0,0-.62.06l-1.18,1.18-1.4-1.4L357,169.7a0.5,0.5,0,0,0,.06-0.62,6.52,6.52,0,0,1-.92-2.17,0.49,0.49,0,0,0-.49-0.39H354V166h4.52a4.08,4.08,0,0,0,8.1,0h4.53v0.49h0ZM359.56,166h6.09a3.09,3.09,0,0,1-6.1,0h0Zm12.76-1H352.9v-1.78l1-.41a0.49,0.49,0,0,0,.3-0.46v-1a8.41,8.41,0,0,1,5.3-7.84v7.29a0.5,0.5,0,0,0,.49.5h5.31a0.5,0.5,0,0,0,.49-0.49v-7.29a8.41,8.41,0,0,1,5.31,7.85v1a0.49,0.49,0,0,0,.3.45l1,0.41V165Z" transform="translate(-351.91 -151.09)" fill="#261b0d" fill-rule="evenodd"/>
  </g>
</svg>
