<svg id="5ff3dfcd-6f18-4a8a-bb7c-1f085727f7b5" data-name="Layer 1" xmlns="http://www.w3.org/2000/svg" viewBox="0 0 24 24">
  <title>healthcare_services</title>
  <g>
    <rect x="0.35" y="4.13" width="23.3" height="18.75" rx="2.81" ry="2.81" fill="#f05134"/>
    <path d="M389.57,255.25h-1.41a2.81,2.81,0,0,1,2.81,2.81v13.13a2.81,2.81,0,0,1-2.81,2.81h1.41a2.81,2.81,0,0,0,2.81-2.81V258.06A2.81,2.81,0,0,0,389.57,255.25Z" transform="translate(-368.73 -251.12)" fill="#e53226" fill-rule="evenodd"/>
    <circle cx="12" cy="15.78" r="4.45" fill="#ffd64f"/>
    <path d="M380.73,262.45a4.5,4.5,0,0,0-.7.06,4.45,4.45,0,0,1,0,8.8A4.45,4.45,0,1,0,380.73,262.45Z" transform="translate(-368.73 -251.12)" fill="#fdbb4a" fill-rule="evenodd"/>
    <circle cx="7.55" cy="10.69" r="1.41" fill="#ffd64f"/>
    <circle cx="16.45" cy="10.69" r="1.41" fill="#ffd64f"/>
    <circle cx="12" cy="9" r="1.41" fill="#ffd64f"/>
    <path d="M376.28,260.4a1.4,1.4,0,0,0-.7.19,1.41,1.41,0,0,1,0,2.44A1.41,1.41,0,1,0,376.28,260.4Z" transform="translate(-368.73 -251.12)" fill="#fdbb4a" fill-rule="evenodd"/>
    <path d="M385.19,260.4a1.4,1.4,0,0,0-.7.19,1.41,1.41,0,0,1,0,2.44A1.41,1.41,0,1,0,385.19,260.4Z" transform="translate(-368.73 -251.12)" fill="#fdbb4a" fill-rule="evenodd"/>
    <path d="M380.73,258.71a1.4,1.4,0,0,0-.7.19,1.41,1.41,0,0,1,0,2.44A1.41,1.41,0,1,0,380.73,258.71Z" transform="translate(-368.73 -251.12)" fill="#fdbb4a" fill-rule="evenodd"/>
    <path d="M383.08,266.87a0.7,0.7,0,0,1-.7.7h-0.94v0.94a0.7,0.7,0,1,1-1.41,0v-0.94h-0.94a0.7,0.7,0,0,1,0-1.41H380v-0.94a0.7,0.7,0,0,1,1.41,0v0.94h0.94A0.7,0.7,0,0,1,383.08,266.87Z" transform="translate(-368.73 -251.12)" fill="#86cde9" fill-rule="evenodd"/>
    <path d="M386.41,254.3v2.57a0.7,0.7,0,0,1-1.41,0V254.3a1.42,1.42,0,0,0-1.42-1.42h-5.7a1.42,1.42,0,0,0-1.42,1.42v2.57a0.7,0.7,0,0,1-1.41,0V254.3a2.82,2.82,0,0,1,2.82-2.82h5.7A2.82,2.82,0,0,1,386.41,254.3Z" transform="translate(-368.73 -251.12)" fill="#e8e0d4" fill-rule="evenodd"/>
    <path d="M383.58,251.47h-1.41a2.82,2.82,0,0,1,2.82,2.75s0,0,0,.07v2.57a0.7,0.7,0,0,0,1.41,0V254.3A2.82,2.82,0,0,0,383.58,251.47Z" transform="translate(-368.73 -251.12)" fill="#d5cec3" fill-rule="evenodd"/>
    <rect x="4.41" y="22.24" width="2.81" height="1.41" fill="#e8e0d4"/>
    <rect x="16.78" y="22.24" width="2.81" height="1.41" fill="#e8e0d4"/>
    <rect x="5.81" y="22.24" width="1.41" height="1.41" fill="#d5cec3"/>
    <rect x="18.19" y="22.24" width="1.41" height="1.41" fill="#d5cec3"/>
    <path d="M389.57,254.89h-1a0.35,0.35,0,1,0,0,.7h1a2.46,2.46,0,0,1,2.46,2.46v13.13a2.46,2.46,0,0,1-2.46,2.46h-0.89v-0.28a0.35,0.35,0,0,0-.35-0.35h-2.81a0.35,0.35,0,0,0-.35.35v0.28H376.3v-0.28A0.35,0.35,0,0,0,376,273h-2.81a0.35,0.35,0,0,0-.35.35v0.28H371.9a2.46,2.46,0,0,1-2.46-2.46V260.11a0.35,0.35,0,0,0-.7,0v11.07a3.17,3.17,0,0,0,3.16,3.16h0.89v0.42a0.35,0.35,0,0,0,.35.35H376a0.35,0.35,0,0,0,.35-0.35v-0.42h8.86v0.42a0.35,0.35,0,0,0,.35.35h2.81a0.35,0.35,0,0,0,.35-0.35v-0.42h0.89a3.17,3.17,0,0,0,3.16-3.16V258.06a3.17,3.17,0,0,0-3.16-3.16h0Zm-14,19.52h-2.11v-0.7h2.11v0.7h0Zm12.38,0h-2.11v-0.7H388v0.7Z" transform="translate(-368.73 -251.12)" fill-rule="evenodd"/>
    <path d="M369.09,259a0.35,0.35,0,0,0,.35-0.35v-0.55a2.46,2.46,0,0,1,2.46-2.46h2.81v1.27a1.05,1.05,0,0,0,2.11,0V255.6h7.83v1.27a1.05,1.05,0,0,0,2.11,0V255.6h0.35a0.35,0.35,0,0,0,0-.7h-0.35v-0.6a3.18,3.18,0,0,0-3.17-3.17h-5.7a3.18,3.18,0,0,0-3.17,3.17v0.6H371.9a3.17,3.17,0,0,0-3.16,3.16v0.55a0.35,0.35,0,0,0,.35.35h0Zm7.73-4.07v-0.6a1.07,1.07,0,0,1,1.06-1.06h5.7a1.07,1.07,0,0,1,1.06,1.06v0.6h-7.83Zm-1.41-.6a2.47,2.47,0,0,1,2.47-2.47h5.7a2.47,2.47,0,0,1,2.47,2.47v2.57a0.35,0.35,0,1,1-.7,0V254.3a1.77,1.77,0,0,0-1.77-1.77h-5.7a1.77,1.77,0,0,0-1.77,1.77v2.57a0.35,0.35,0,0,1-.7,0V254.3Z" transform="translate(-368.73 -251.12)" fill-rule="evenodd"/>
    <path d="M377.68,270.16a0.35,0.35,0,0,0,.05.49,4.8,4.8,0,1,0-1.07-1.2,0.35,0.35,0,1,0,.6-0.37,4.1,4.1,0,1,1,.91,1A0.35,0.35,0,0,0,377.68,270.16Z" transform="translate(-368.73 -251.12)" fill-rule="evenodd"/>
    <path d="M378,261.81a1.76,1.76,0,1,0-1.76,1.76,1.76,1.76,0,0,0,1.76-1.76h0Zm-1.76,1.05a1.05,1.05,0,1,1,1.05-1.05A1.06,1.06,0,0,1,376.28,262.86Z" transform="translate(-368.73 -251.12)" fill-rule="evenodd"/>
    <path d="M386.95,261.81a1.76,1.76,0,1,0-1.76,1.76,1.76,1.76,0,0,0,1.76-1.76h0Zm-1.76,1.05a1.05,1.05,0,1,1,1.05-1.05A1.06,1.06,0,0,1,385.19,262.86Z" transform="translate(-368.73 -251.12)" fill-rule="evenodd"/>
    <path d="M382.49,260.12a1.76,1.76,0,1,0-1.76,1.76,1.76,1.76,0,0,0,1.76-1.76h0Zm-2.81,0a1.05,1.05,0,1,1,1.05,1.05A1.06,1.06,0,0,1,379.68,260.12Z" transform="translate(-368.73 -251.12)" fill-rule="evenodd"/>
    <path d="M381.48,264.49a1.05,1.05,0,0,0-1.8.75v0.59h-0.59a1.05,1.05,0,1,0,0,2.11h0.59v0.59a1.05,1.05,0,1,0,2.11,0v-0.59h0.59a1.05,1.05,0,1,0,0-2.11h-0.59v-0.59a1,1,0,0,0-.31-0.75h0Zm0.89,2a0.35,0.35,0,0,1,.35.35,0.35,0.35,0,0,1-.35.35h-0.94a0.35,0.35,0,0,0-.35.35v0.94a0.35,0.35,0,1,1-.7,0v-0.94a0.35,0.35,0,0,0-.35-0.35h-0.94a0.35,0.35,0,0,1,0-.7H380a0.35,0.35,0,0,0,.35-0.35v-0.94a0.35,0.35,0,0,1,.35-0.35,0.35,0.35,0,0,1,.35.35v0.94a0.35,0.35,0,0,0,.35.35h0.94Z" transform="translate(-368.73 -251.12)" fill-rule="evenodd"/>
    <circle cx="2.2" cy="5.95" r="0.35"/>
    <circle cx="21.61" cy="5.95" r="0.35"/>
    <circle cx="2.2" cy="21.09" r="0.35"/>
    <circle cx="21.61" cy="21.09" r="0.35"/>
  </g>
</svg>
