<svg id="d19273c2-7e2f-43bc-8b89-4e8b915f9bc1" data-name="Layer 1" xmlns="http://www.w3.org/2000/svg" viewBox="0 0 24 24">
  <title>human_resources</title>
  <g>
    <rect x="0.47" y="8.95" width="23.06" height="4.5" rx="0.82" ry="0.82" fill="#fdcc99"/>
    <path d="M426.18,289.14h-3.44a3.54,3.54,0,0,0-3.54,3.54v2.78h10.52v-2.78A3.54,3.54,0,0,0,426.18,289.14Z" transform="translate(-412.46 -271.93)" fill="#f05864" fill-rule="evenodd"/>
    <path d="M426.78,283.94h-2.87a1.76,1.76,0,0,0-1.76,1.76h0v1.12a2.31,2.31,0,0,0,2.31,2.31h0a2.31,2.31,0,0,0,2.31-2.31v-2.89Z" transform="translate(-412.46 -271.93)" fill="#00b8f1" fill-rule="evenodd"/>
    <path d="M418,276.91h-2.51a2.59,2.59,0,0,0-2.59,2.59v1.39h7.69V279.5A2.59,2.59,0,0,0,418,276.91Z" transform="translate(-412.46 -271.93)" fill="#faab54" fill-rule="evenodd"/>
    <polygon points="5.75 4.98 4.31 6.41 2.88 4.98 5.75 4.98" fill="#fff" fill-rule="evenodd"/>
    <path d="M416.37,272.4h2.09v1a1,1,0,0,1-1,1h-2.41v-0.73A1.29,1.29,0,0,1,416.37,272.4Z" transform="translate(-412.46 -271.93)" fill="#00b8f1" fill-rule="evenodd"/>
    <path d="M418.46,274.42v0.8a1.69,1.69,0,0,1-1.69,1.69h0a1.69,1.69,0,0,1-1.69-1.69v-0.8h3.38Z" transform="translate(-412.46 -271.93)" fill="#fbbea4" fill-rule="evenodd"/>
    <path d="M425.71,276.91H423.2a2.59,2.59,0,0,0-2.59,2.59v1.39h7.69V279.5A2.59,2.59,0,0,0,425.71,276.91Z" transform="translate(-412.46 -271.93)" fill="#65bc48" fill-rule="evenodd"/>
    <polygon points="13.43 4.98 12 6.41 10.57 4.98 13.43 4.98" fill="#fff" fill-rule="evenodd"/>
    <path d="M424.05,272.4h2.09v1a1,1,0,0,1-1,1h-2.41v-0.73A1.29,1.29,0,0,1,424.05,272.4Z" transform="translate(-412.46 -271.93)" fill="#fcb76f" fill-rule="evenodd"/>
    <path d="M426.15,274.42v0.8a1.69,1.69,0,0,1-1.69,1.69h0a1.69,1.69,0,0,1-1.69-1.69v-0.8h3.38Z" transform="translate(-412.46 -271.93)" fill="#fbbea4" fill-rule="evenodd"/>
    <path d="M433.4,276.91h-2.51a2.59,2.59,0,0,0-2.59,2.59v1.39H436V279.5A2.59,2.59,0,0,0,433.4,276.91Z" transform="translate(-412.46 -271.93)" fill="#00bfed" fill-rule="evenodd"/>
    <polygon points="21.12 4.98 19.69 6.41 18.25 4.98 21.12 4.98" fill="#fff" fill-rule="evenodd"/>
    <path d="M431.74,272.4h2.1v1a1,1,0,0,1-1,1h-2.41v-0.73A1.29,1.29,0,0,1,431.74,272.4Z" transform="translate(-412.46 -271.93)" fill="#fcb76f" fill-rule="evenodd"/>
    <path d="M433.84,274.42v0.8a1.69,1.69,0,0,1-1.69,1.69h0a1.69,1.69,0,0,1-1.69-1.69v-0.8h3.38Z" transform="translate(-412.46 -271.93)" fill="#fbbea4" fill-rule="evenodd"/>
    <path d="M429.24,285.72a0.47,0.47,0,1,0-.33.14A0.47,0.47,0,0,0,429.24,285.72Z" transform="translate(-412.46 -271.93)" fill="#0b050c" fill-rule="evenodd"/>
    <path d="M429.26,292.75h-3.64a0.47,0.47,0,1,0,0,.94h3.64V295h-9.58v-2.31a3.08,3.08,0,0,1,3.07-3.07h3.44a3.08,3.08,0,0,1,3.07,3.07v0.06h0Zm-6.64-7a1.29,1.29,0,0,1,1.29-1.29h2.4v2.42a1.85,1.85,0,1,1-3.69,0V285.7h0Zm3.91,3a2.77,2.77,0,0,0,.72-1.86v-2.89a0.47,0.47,0,0,0-.47-0.47h-2.87a2.23,2.23,0,0,0-2.23,2.23v1.13a2.77,2.77,0,0,0,.72,1.86,4,4,0,0,0-3.66,4v2.78a0.47,0.47,0,0,0,.47.47h10.52a0.47,0.47,0,0,0,.47-0.47v-2.78A4,4,0,0,0,426.53,288.69Z" transform="translate(-412.46 -271.93)" fill="#0b050c" fill-rule="evenodd"/>
    <path d="M428.77,280.42V279.5a2.12,2.12,0,0,1,1.78-2.09l1.27,1.27a0.47,0.47,0,0,0,.66,0l1.27-1.27a2.12,2.12,0,0,1,1.78,2.09v0.92h-6.75Zm-7.69-.92a2.12,2.12,0,0,1,1.78-2.09l1.27,1.27a0.47,0.47,0,0,0,.66,0l1.27-1.27a2.12,2.12,0,0,1,1.78,2.09v0.92h-6.75V279.5h0Zm-7.69.92V279.5a2.12,2.12,0,0,1,1.78-2.09l1.27,1.27a0.47,0.47,0,0,0,.66,0l1.27-1.27a2.12,2.12,0,0,1,1.78,2.09v0.92h-6.75Zm2.15-6.73a0.82,0.82,0,0,1,.82-0.82H418v0.57a0.51,0.51,0,0,1-.51.51h-1.94v-0.26h0Zm1.52,3.69h-0.6l0.3,0.3,0.3-.3h0Zm0.92-2.16a1.22,1.22,0,0,1-2.45,0v-0.33h1.94a1.44,1.44,0,0,0,.51-0.09v0.42h0Zm5.24-1.53a0.82,0.82,0,0,1,.82-0.82h1.63v0.57a0.51,0.51,0,0,1-.51.51h-1.94v-0.26h0Zm1.52,3.69h-0.6l0.3,0.3,0.3-.3h0Zm0.92-2.16a1.22,1.22,0,0,1-2.45,0v-0.33h1.94a1.44,1.44,0,0,0,.51-0.09v0.42h0Zm5.24-1.53a0.82,0.82,0,0,1,.82-0.82h1.63v0.57a0.51,0.51,0,0,1-.51.51h-1.94v-0.26h0Zm1.52,3.69h-0.6l0.3,0.3,0.3-.3h0Zm0.92-2.16a1.22,1.22,0,0,1-2.45,0v-0.33h1.94a1.44,1.44,0,0,0,.51-0.09v0.42h0Zm3.09,4.28a3.06,3.06,0,0,0-2.56-3,2.15,2.15,0,0,0,.41-1.26V272.4a0.47,0.47,0,0,0-.47-0.47h-2.1a1.76,1.76,0,0,0-1.76,1.76v1.53a2.15,2.15,0,0,0,.41,1.26,3.06,3.06,0,0,0-2.09,1.39,3.06,3.06,0,0,0-2.09-1.39,2.15,2.15,0,0,0,.41-1.26V272.4a0.47,0.47,0,0,0-.47-0.47h-2.09a1.76,1.76,0,0,0-1.76,1.76v1.53a2.15,2.15,0,0,0,.41,1.26,3.06,3.06,0,0,0-2.09,1.39,3.06,3.06,0,0,0-2.09-1.39,2.15,2.15,0,0,0,.41-1.26V272.4a0.47,0.47,0,0,0-.47-0.47h-2.09a1.76,1.76,0,0,0-1.76,1.76v1.53a2.15,2.15,0,0,0,.41,1.26,3.06,3.06,0,0,0-2.56,3v1.39a0.47,0.47,0,0,0,.11.3,1.28,1.28,0,0,0-.11.52v2.86a1.29,1.29,0,0,0,1.29,1.29h6.2a0.47,0.47,0,0,0,0-.94h-6.2a0.35,0.35,0,0,1-.35-0.35v-2.86a0.35,0.35,0,0,1,.35-0.35h21.42a0.35,0.35,0,0,1,.35.35v2.86a0.35,0.35,0,0,1-.35.35h-4.46a0.47,0.47,0,1,0,0,.94h4.46a1.29,1.29,0,0,0,1.29-1.29v-2.86a1.28,1.28,0,0,0-.11-0.52,0.47,0.47,0,0,0,.11-0.3V279.5Z" transform="translate(-412.46 -271.93)" fill="#0b050c" fill-rule="evenodd"/>
    <path d="M423.85,292.75a0.47,0.47,0,1,0,.33.14A0.47,0.47,0,0,0,423.85,292.75Z" transform="translate(-412.46 -271.93)" fill="#0b050c" fill-rule="evenodd"/>
  </g>
</svg>
