<svg id="814eb4c7-820b-41ea-889b-fb6e742fe2b1" data-name="Layer 1" xmlns="http://www.w3.org/2000/svg" viewBox="0 0 24 24">
  <title>information_technology</title>
  <g>
    <ellipse cx="14.76" cy="7.49" rx="4.55" ry="4.51" fill="#ffe3c4"/>
    <path d="M385.1,311.5a4.5,4.5,0,0,1-2.75-8.1,4.51,4.51,0,1,0,4,7.93A4.59,4.59,0,0,1,385.1,311.5Z" transform="translate(-368.83 -300.25)" fill="#ffdbaf" fill-rule="evenodd"/>
    <path d="M384,300.62h-6.16l2,1.47-0.05,0-1.8.36v6.76l3.79-3.76,1.89,1.13,1.89-1.13,3.79,3.76v-3A5.66,5.66,0,0,0,384,300.62Z" transform="translate(-368.83 -300.25)" fill="#7d5667" fill-rule="evenodd"/>
    <path d="M377.9,302.48v6.76l1.52-1.5v-5.26l1.8-.36,0.05,0-2-1.47h-1.52l2,1.47-0.05,0Z" transform="translate(-368.83 -300.25)" fill="#6f4258" fill-rule="evenodd"/>
    <path d="M391,323.9H378.28V312.63h9.9a1.51,1.51,0,0,1,1.44,1l2.78,8.27A1.5,1.5,0,0,1,391,323.9Z" transform="translate(-368.83 -300.25)" fill="#e9e2e4" fill-rule="evenodd"/>
    <polygon points="15.89 21.39 14.76 22.14 13.62 21.39 14 14.26 15.51 14.26 15.89 21.39" fill="#00b8d9" fill-rule="evenodd"/>
    <polygon points="15.51 14.26 14 14.26 13.62 12.38 15.89 12.38 15.51 14.26" fill="#30c2db" fill-rule="evenodd"/>
    <path d="M389.27,309.62h-1.14v-2.25h1.14a0.38,0.38,0,0,1,.38.38v1.5A0.38,0.38,0,0,1,389.27,309.62Z" transform="translate(-368.83 -300.25)" fill="#fcb242" fill-rule="evenodd"/>
    <path d="M377.9,309.62H379v-2.25H377.9a0.38,0.38,0,0,0-.38.38v1.5A0.38,0.38,0,0,0,377.9,309.62Z" transform="translate(-368.83 -300.25)" fill="#fcb242" fill-rule="evenodd"/>
    <path d="M388.89,323.9h-2.65a0.38,0.38,0,0,1-.38-0.38V322a0.75,0.75,0,0,1,.76-0.75h1.89a0.75,0.75,0,0,1,.76.75v1.5A0.38,0.38,0,0,1,388.89,323.9Z" transform="translate(-368.83 -300.25)" fill="#ffe3c4" fill-rule="evenodd"/>
    <path d="M387,323.53V322a0.75,0.75,0,0,1,.76-0.75h-1.14a0.75,0.75,0,0,0-.76.75v1.5a0.38,0.38,0,0,0,.38.38h1.14A0.38,0.38,0,0,1,387,323.53Z" transform="translate(-368.83 -300.25)" fill="#ffdbaf" fill-rule="evenodd"/>
    <rect x="0.36" y="12.38" width="11.37" height="9.02" fill="#af9da6"/>
    <rect x="0.36" y="12.38" width="1.52" height="9.02" fill="#a28c97"/>
    <rect x="4.9" y="21.39" width="2.27" height="2.25" fill="#977b88"/>
    <rect x="4.9" y="21.39" width="2.27" height="0.75" fill="#8b6b7a"/>
    <circle cx="12.84" cy="7.87" r="0.36" fill="#0b050c"/>
    <circle cx="16.67" cy="7.87" r="0.36" fill="#0b050c"/>
    <path d="M382.82,310.73h1.52a0.35,0.35,0,1,0,0-.7h-1.52A0.35,0.35,0,1,0,382.82,310.73Z" transform="translate(-368.83 -300.25)" fill="#0b050c" fill-rule="evenodd"/>
    <path d="M391.89,323.07a1.15,1.15,0,0,1-.94.48h-1.33V322a1.11,1.11,0,0,0-.85-1.07L387.33,317a0.36,0.36,0,0,0-.46-0.21,0.35,0.35,0,0,0-.21.45l1.34,3.66h-1.39a1.11,1.11,0,0,0-1.11,1.1v1.53h-6.87V322h1.92a0.35,0.35,0,0,0,.36-0.35V313h1.25l0.31,1.55-0.38,7.09a0.35,0.35,0,0,0,.16.31l1.14,0.75a0.36,0.36,0,0,0,.39,0l1.14-.75a0.35,0.35,0,0,0,.16-0.31l-0.38-7.09L385,313h3.16a1.16,1.16,0,0,1,1.1.79l2.78,8.27a1.13,1.13,0,0,1-.16,1h0Zm-3.41.48h0.4a0,0,0,0,0,0,0V322a0.4,0.4,0,0,0-.4-0.4h-1.9a0.4,0.4,0,0,0-.4.4v1.5a0,0,0,0,0,0,0h0.4v-0.4a0.36,0.36,0,0,1,.71,0v0.4h0.43v-0.4a0.36,0.36,0,0,1,.71,0v0.4h0Zm-12.84,0h-1.56V322h1.56v1.55h0Zm6.42-12.78h-1.34a4.13,4.13,0,0,1-1.31-2.54l0,0,2.3-2.28,1.66,1a0.36,0.36,0,0,0,.37,0l1.66-1,2.31,2.29h0a4.19,4.19,0,0,1-6,3.24h0.31a0.35,0.35,0,1,0,0-.7h0Zm-2.68-.51v0.51h0.36a4.87,4.87,0,0,1-.36-0.51h0Zm-1.52-1v-1.5a0,0,0,0,1,0,0h0.78v1.55H377.9a0,0,0,0,1,0,0h0Zm1.89-6.77-1.51.3V307h0.44a4.14,4.14,0,0,1,4.13-3.76h1.52a4.14,4.14,0,0,1,4.13,3.76h0.44v-0.77a5.31,5.31,0,0,0-5-5.27h-5.08L380,301.8a0.35,0.35,0,0,1,.12.4,0.47,0.47,0,0,1-.32.28h0Zm9.52,6.77a0,0,0,0,1,0,0h-0.78v-1.55h0.78a0,0,0,0,1,0,0v1.5h0Zm-9.9-2,2-2a0.36,0.36,0,0,1,.43-0.05l1.71,1,1.71-1a0.36,0.36,0,0,1,.43.05l2,2a3.42,3.42,0,0,0-3.43-3.3h-1.52a3.42,3.42,0,0,0-3.43,3.3h0Zm4.66,6.89,0.24-1.17h-1.41l0.24,1.17H384Zm-0.89.7-0.35,6.6,0.77,0.51,0.77-.51-0.35-6.6h-0.84Zm9.57,7-2.78-8.27a1.87,1.87,0,0,0-1.77-1.27h-2.82a4.9,4.9,0,0,0,2.6-2.34,0.36,0.36,0,0,0,.17,0h1.14a0.73,0.73,0,0,0,.73-0.73v-1.5a0.73,0.73,0,0,0-.38-0.64v-0.87a6,6,0,0,0-5.54-6l-0.12,0h-6.17a0.36,0.36,0,0,0-.33.23,0.35,0.35,0,0,0,.12.41l1.37,1-1.12.22a0.35,0.35,0,0,0-.29.35v4.62a0.73,0.73,0,0,0-.38.64v1.5a0.73,0.73,0,0,0,.73.73h0.78v1.15a0.35,0.35,0,0,0,.36.35h1.41a4.89,4.89,0,0,0,1.36.8H372a0.35,0.35,0,1,0,0,.7h8.16v8.31H369.54V313h0.83a0.35,0.35,0,1,0,0-.7h-1.18a0.35,0.35,0,0,0-.36.35v9a0.35,0.35,0,0,0,.36.35h4.19v1.55H373a0.35,0.35,0,1,0,0,.7h3.79a0.35,0.35,0,1,0,0-.7h-0.4V322h1.56v1.9a0.35,0.35,0,0,0,.36.35H391a1.86,1.86,0,0,0,1.52-.77,1.83,1.83,0,0,0,.36-1.07A1.85,1.85,0,0,0,392.73,321.81Z" transform="translate(-368.83 -300.25)" fill="#0b050c" fill-rule="evenodd"/>
    <circle cx="6.04" cy="18.41" r="0.36" fill="#0b050c"/>
    <path d="M375.65,318a0.35,0.35,0,0,0,0-.5,1.12,1.12,0,0,0-1.57,0,0.35,0.35,0,0,0,0,.5,0.36,0.36,0,0,0,.5,0,0.4,0.4,0,0,1,.57,0A0.36,0.36,0,0,0,375.65,318Z" transform="translate(-368.83 -300.25)" fill="#0b050c" fill-rule="evenodd"/>
    <path d="M376.21,317.31a0.35,0.35,0,0,0,.25-0.6,2.26,2.26,0,0,0-3.18,0,0.35,0.35,0,0,0,0,.5,0.36,0.36,0,0,0,.5,0,1.55,1.55,0,0,1,2.18,0A0.36,0.36,0,0,0,376.21,317.31Z" transform="translate(-368.83 -300.25)" fill="#0b050c" fill-rule="evenodd"/>
  </g>
</svg>
