<svg id="394cfaaf-c678-4493-a6b1-4bcaf154d104" data-name="Layer 1" xmlns="http://www.w3.org/2000/svg" viewBox="0 0 24 24">
  <title>legal</title>
  <g>
    <polygon points="12 0.53 12 0.53 0.49 8.27 23.51 8.27 12 0.53" fill="#bdbebf" fill-rule="evenodd"/>
    <rect x="0.98" y="20.05" width="22.04" height="1.71" fill="#e7e7e7"/>
    <polygon points="10.45 21.76 0.49 21.76 0.49 23.47 23.51 23.47 23.51 21.76 13.55 21.76 10.45 21.76" fill="#bdbebf" fill-rule="evenodd"/>
    <rect x="0.49" y="8.27" width="23.02" height="1.71" fill="#dfdfe1"/>
    <rect x="0.98" y="18.24" width="3.04" height="1.81" fill="#bdbebf"/>
    <rect x="0.98" y="9.97" width="3.04" height="1.81" fill="#bdbebf"/>
    <rect x="1.57" y="11.79" width="1.86" height="6.45" fill="#fff"/>
    <rect x="5.73" y="18.24" width="3.04" height="1.81" fill="#bdbebf"/>
    <rect x="5.73" y="9.97" width="3.04" height="1.81" fill="#bdbebf"/>
    <rect x="6.32" y="11.79" width="1.86" height="6.45" fill="#fff"/>
    <rect x="10.48" y="18.24" width="3.04" height="1.81" fill="#bdbebf"/>
    <rect x="10.48" y="9.97" width="3.04" height="1.81" fill="#bdbebf"/>
    <rect x="11.07" y="11.79" width="1.86" height="6.45" fill="#fff"/>
    <rect x="19.98" y="18.24" width="3.04" height="1.81" fill="#bdbebf"/>
    <rect x="19.98" y="9.97" width="3.04" height="1.81" fill="#bdbebf"/>
    <rect x="20.57" y="11.79" width="1.86" height="6.45" fill="#fff"/>
    <rect x="15.23" y="18.24" width="3.04" height="1.81" fill="#bdbebf"/>
    <rect x="15.23" y="9.97" width="3.04" height="1.81" fill="#bdbebf"/>
    <rect x="15.82" y="11.79" width="1.86" height="6.45" fill="#fff"/>
    <path d="M422.12,344.46h0a0.54,0.54,0,0,1,0-1.07h0A0.54,0.54,0,0,1,422.12,344.46Z" transform="translate(-410.08 -322.16)" fill-rule="evenodd"/>
    <path d="M431.14,339.87v-5.38H432v5.38h-0.88Zm-7.51,3.52a0.54,0.54,0,0,0,0,1.07h9.47v0.64h-22v-0.64h9.47a0.54,0.54,0,0,0,0-1.07h-9v-0.64h21.06v0.64h-9Zm-11.5-8.91H413v5.38h-0.88v-5.38h0Zm18.42-1.07v-0.75h2.06v0.75h-2.06Zm-4.75,7.52h2.06v0.75H425.8v-0.75h0Zm0.59-6.45h0.88v5.38h-0.88v-5.38h0Zm1.47-1.07H425.8v-0.75h2.06v0.75h0Zm-6.81,7.52h2.06v0.75h-2.06v-0.75h0Zm0.59-6.45h0.88v5.38h-0.88v-5.38h0Zm1.47-1.07h-2.06v-0.75h2.06v0.75h0Zm-6.81,7.52h2.06v0.75H416.3v-0.75h0Zm0.59-6.45h0.88v5.38h-0.88v-5.38h0Zm1.47-1.07H416.3v-0.75h2.06v0.75h0Zm-4.85,0h-2v-0.75h2.06v0.75h-0.1Zm-2,7.52h2.06v0.75h-2.06v-0.75h0Zm3,0.75V340.4a0.51,0.51,0,0,0-.49-0.53H414v-5.38h0.1a0.51,0.51,0,0,0,.49-0.53v-1.28h0.73V334a0.51,0.51,0,0,0,.49.53h0.1v5.38h-0.1a0.51,0.51,0,0,0-.49.53v1.28h-0.73Zm4.75,0V340.4a0.51,0.51,0,0,0-.49-0.53h-0.1v-5.38h0.1a0.51,0.51,0,0,0,.49-0.53v-1.28h0.73V334a0.51,0.51,0,0,0,.49.53h0.1v5.38h-0.1a0.51,0.51,0,0,0-.49.53v1.28h-0.73Zm4.75,0V340.4a0.51,0.51,0,0,0-.49-0.53h-0.1v-5.38h0.1a0.51,0.51,0,0,0,.49-0.53v-1.28h0.73V334a0.51,0.51,0,0,0,.49.53h0.1v5.38h-0.1a0.51,0.51,0,0,0-.49.53v1.28h-0.73Zm6-1.81a0.51,0.51,0,0,0-.49.53v1.28h-0.73V340.4a0.51,0.51,0,0,0-.49-0.53h-0.1v-5.38h0.1a0.51,0.51,0,0,0,.49-0.53v-1.28h0.73V334a0.51,0.51,0,0,0,.49.53h0.1v5.38h-0.1Zm2.55,1.07v0.75h-2.06v-0.75h2.06Zm-21.55-9.33V331h22v0.64h-22Zm11-8.28,9.78,6.57H412.3l9.78-6.57h0Zm11,11.16a0.51,0.51,0,0,0,.49-0.53v-1.28a0.51,0.51,0,0,0,.49-0.53v-1.71h0a0.55,0.55,0,0,0-.23-0.44l-11.51-7.73a0.46,0.46,0,0,0-.51,0L410.31,330a0.55,0.55,0,0,0-.23.45h0v1.71a0.51,0.51,0,0,0,.49.53V334a0.51,0.51,0,0,0,.49.53h0.1v5.38h-0.1a0.51,0.51,0,0,0-.49.53v3a0.47,0.47,0,0,0-.35.16,0.56,0.56,0,0,0-.14.38v1.71a0.51,0.51,0,0,0,.49.53h23a0.51,0.51,0,0,0,.49-0.53v-1.71a0.51,0.51,0,0,0-.49-0.53v-3a0.51,0.51,0,0,0-.49-0.53H433v-5.38h0.1Z" transform="translate(-410.08 -322.16)" fill-rule="evenodd"/>
    <ellipse cx="12.01" cy="5.17" rx="1.08" ry="1.17" fill="#fff"/>
    <path d="M422.09,326.7a0.64,0.64,0,1,0,.59.64,0.62,0.62,0,0,0-.59-0.64h0Zm0,2.35a1.71,1.71,0,1,1,1.57-1.71A1.64,1.64,0,0,1,422.09,329Z" transform="translate(-410.08 -322.16)" fill-rule="evenodd"/>
  </g>
</svg>
