<svg id="00565331-7446-4b76-a525-d0bf5d69f2e0" data-name="Layer 1" xmlns="http://www.w3.org/2000/svg" viewBox="0 0 24 24">
  <title>marketing</title>
  <g>
    <path d="M387.88,359.88a1.64,1.64,0,0,0,0-3.29v3.29Z" transform="translate(-374.33 -340.21)" fill="#f05160" fill-rule="evenodd"/>
    <path d="M379.72,360.46H377a2.22,2.22,0,0,1-2.22-2.22h0A2.22,2.22,0,0,1,377,356h2.69v4.45Z" transform="translate(-374.33 -340.21)" fill="#f05160" fill-rule="evenodd"/>
    <rect x="3.47" y="20.25" width="1.91" height="3.28" fill="#536eb5"/>
    <polygon points="5.38 20.25 5.38 15.8 13.55 12.51 13.55 23.53 5.38 20.25" fill="#7cd1e9" fill-rule="evenodd"/>
    <polygon points="11.45 22.69 13.55 23.53 13.55 12.51 11.45 13.36 11.45 22.69" fill="#fff" fill-rule="evenodd"/>
    <path d="M386.33,342.74H378a0.66,0.66,0,0,0-.66.66v7.41a0.66,0.66,0,0,0,.66.66h1v1.91l1.91-1.91h9.51a0.66,0.66,0,0,0,.66-0.66v-1.73Z" transform="translate(-374.33 -340.21)" fill="#76c155" fill-rule="evenodd"/>
    <rect x="12" y="0.47" width="11.53" height="8.25" rx="1.41" ry="1.41" fill="#7cd1e9"/>
    <polygon points="16.21 2.74 19.41 4.59 16.21 6.45 16.21 2.74" fill="#f05160" fill-rule="evenodd"/>
    <path d="M385.79,360.36a0.47,0.47,0,1,0,.33.14A0.47,0.47,0,0,0,385.79,360.36Z" transform="translate(-374.33 -340.21)" fill="#0b050c" fill-rule="evenodd"/>
    <path d="M388.35,359.31v-2.15a1.17,1.17,0,0,1,0,2.15h0Zm-0.94,3.74-7.22-2.91v-3.82l5.13-2.07v4.65a0.47,0.47,0,1,0,.94,0v-5l1.16-.47v9.63h0Zm-9.14.23v-2.35h1v2.35h-1Zm-3-5a1.76,1.76,0,0,1,1.75-1.75h2.22V360H377a1.76,1.76,0,0,1-1.75-1.75h0Zm13.08-2.06v-3.45a0.47,0.47,0,0,0-.64-0.43l-8.08,3.25H377a2.69,2.69,0,1,0,0,5.38h0.31v2.81a0.47,0.47,0,0,0,.47.47h1.91a0.47,0.47,0,0,0,.47-0.47v-2.59l7.52,3a0.47,0.47,0,0,0,.64-0.43V360.3A2.11,2.11,0,0,0,388.35,356.18Z" transform="translate(-374.33 -340.21)" fill="#0b050c" fill-rule="evenodd"/>
    <path d="M394.46,357.78h-2.65a0.47,0.47,0,0,0,0,.94h2.65A0.47,0.47,0,1,0,394.46,357.78Z" transform="translate(-374.33 -340.21)" fill="#0b050c" fill-rule="evenodd"/>
    <path d="M391,356.06a0.47,0.47,0,0,0,.33-0.14l0.92-.92a0.47,0.47,0,0,0-.66-0.66l-0.92.92A0.47,0.47,0,0,0,391,356.06Z" transform="translate(-374.33 -340.21)" fill="#0b050c" fill-rule="evenodd"/>
    <path d="M391.38,360.5a0.47,0.47,0,0,0-.66.66l0.95,0.95a0.47,0.47,0,0,0,.66-0.66Z" transform="translate(-374.33 -340.21)" fill="#0b050c" fill-rule="evenodd"/>
    <path d="M397.4,347.53a0.94,0.94,0,0,1-.94.94h-8.72a0.94,0.94,0,0,1-.94-0.94v-5.44a0.94,0.94,0,0,1,.94-0.94h8.72a0.94,0.94,0,0,1,.94.94v5.44h0Zm-6.85,3.28V349.4h-2.8a1.88,1.88,0,0,1-1.88-1.88v-4.31H378a0.19,0.19,0,0,0-.19.19v7.41a0.19,0.19,0,0,0,.19.19h1a0.47,0.47,0,0,1,.47.47v0.77l1.11-1.11a0.47,0.47,0,0,1,.33-0.14h9.51a0.19,0.19,0,0,0,.19-0.19h0Zm5.92-10.59h-8.72a1.88,1.88,0,0,0-1.88,1.88v0.19H378a1.13,1.13,0,0,0-1.12,1.13v7.41a1.13,1.13,0,0,0,1.13,1.13h0.48v1.44a0.47,0.47,0,0,0,.29.43,0.47,0.47,0,0,0,.18,0,0.47,0.47,0,0,0,.33-0.14l1.77-1.77h9.31a1.13,1.13,0,0,0,1.13-1.13V349.4h5a1.88,1.88,0,0,0,1.88-1.88v-5.44A1.88,1.88,0,0,0,396.46,340.21Z" transform="translate(-374.33 -340.21)" fill="#0b050c" fill-rule="evenodd"/>
    <path d="M391,345.85v-2.08l1.8,1-1.8,1h0Zm3-1.45-3.21-1.85a0.47,0.47,0,0,0-.7.41v3.7a0.47,0.47,0,0,0,.7.41l3.21-1.85A0.47,0.47,0,0,0,394,344.4Z" transform="translate(-374.33 -340.21)" fill="#0b050c" fill-rule="evenodd"/>
    <path d="M384.39,345.14H379.7a0.47,0.47,0,0,0,0,.94h4.69A0.47,0.47,0,1,0,384.39,345.14Z" transform="translate(-374.33 -340.21)" fill="#0b050c" fill-rule="evenodd"/>
    <path d="M384.39,347.76a0.47,0.47,0,1,0,.33.14A0.47,0.47,0,0,0,384.39,347.76Z" transform="translate(-374.33 -340.21)" fill="#0b050c" fill-rule="evenodd"/>
    <path d="M382.63,347.76H379.7a0.47,0.47,0,0,0,0,.94h2.93A0.47,0.47,0,1,0,382.63,347.76Z" transform="translate(-374.33 -340.21)" fill="#0b050c" fill-rule="evenodd"/>
  </g>
</svg>
