<svg id="885efa6a-a214-4429-875c-00e21fa93a97" data-name="Layer 1" xmlns="http://www.w3.org/2000/svg" viewBox="0 0 24 24">
  <title>media_communication</title>
  <g>
    <path d="M320.53,382.19h8.35a1.88,1.88,0,0,0-1.88-1.88h-4.6a1.88,1.88,0,0,0-1.88,1.88h0Z" transform="translate(-311.43 -362.64)" fill="#536eb5" fill-rule="evenodd"/>
    <rect x="11.39" y="15.14" width="3.75" height="2.53" fill="#ceccd9"/>
    <rect x="3" y="0.47" width="20.53" height="14.67" rx="0.94" ry="0.94" fill="#fff"/>
    <rect x="19.35" y="4.99" width="1.65" height="1.78" fill="#00bddd"/>
    <rect x="12.75" y="4.99" width="1.65" height="1.78" fill="#00bddd"/>
    <path d="M314.43,375.06v1.78a0.94,0.94,0,0,0,.94.94H334a0.94,0.94,0,0,0,.94-0.94v-1.78H314.43Z" transform="translate(-311.43 -362.64)" fill="#7cd1e9" fill-rule="evenodd"/>
    <path d="M328.31,371.23h0a2.47,2.47,0,0,1-2.47-2.47v-0.65a2.47,2.47,0,0,1,2.47-2.47h0a2.47,2.47,0,0,1,2.47,2.47v0.65A2.47,2.47,0,0,1,328.31,371.23Z" transform="translate(-311.43 -362.64)" fill="#fbbea4" fill-rule="evenodd"/>
    <path d="M329.63,370.85l2.43,0.81a1.65,1.65,0,0,1,1.13,1.57v1.84h-9.76v-1.84a1.65,1.65,0,0,1,1.13-1.57l2.43-.81h2.63Z" transform="translate(-311.43 -362.64)" fill="#fbb56b" fill-rule="evenodd"/>
    <rect x="0.47" y="12.28" width="4.87" height="11.25" rx="1.08" ry="1.08" fill="#fff"/>
    <rect x="5.34" y="12.28" width="4.88" height="11.25" rx="1.08" ry="1.08" fill="#faa955"/>
    <rect x="5.34" y="15.14" width="4.88" height="5.58" fill="#fff"/>
    <rect x="0.47" y="14.16" width="4.87" height="7.49" fill="#536eb5"/>
    <path d="M311.9,366.53v5.06a0.89,0.89,0,0,0,.89.89h0.79l1.23,1.23,1.23-1.23h4.35a0.89,0.89,0,0,0,.89-0.89v-5.06a0.89,0.89,0,0,0-.89-0.89h-7.59A0.89,0.89,0,0,0,311.9,366.53Z" transform="translate(-311.43 -362.64)" fill="#f05160" fill-rule="evenodd"/>
    <path d="M324.25,376a0.47,0.47,0,1,0,.33-0.14A0.47,0.47,0,0,0,324.25,376Z" transform="translate(-311.43 -362.64)" fill="#0b050c" fill-rule="evenodd"/>
    <path d="M334.45,374.59h-0.79v-1.37a2.12,2.12,0,0,0-1.45-2l-1.65-.55a2.94,2.94,0,0,0,.49-0.8h1.39a0.47,0.47,0,0,0,.47-0.47v-1.32a4.6,4.6,0,0,0-3.65-4.49H334a0.47,0.47,0,0,1,.47.47V374.6h0Zm-10.55,0h8.82v-1.37a1.18,1.18,0,0,0-.81-1.12l-2.23-.74a2.93,2.93,0,0,1-2.74,0l-2.23.74a1.18,1.18,0,0,0-.81,1.12v1.37h0Zm-1.55,3.66v1.6a0.47,0.47,0,0,0-.24.09v-1.69h0.24Zm3.75,0v1.59h-2.81v-1.59h2.81Zm2.22,3.47h-6.2v-1a0.47,0.47,0,0,0,.28.1H327a1.41,1.41,0,0,1,1.33.94h0Zm-7.75,4h-2.72a0.61,0.61,0,0,1-.61-0.61v-1.27h3.94v1.27a0.61,0.61,0,0,1-.61.61h0Zm-4.87,0H313a0.61,0.61,0,0,1-.61-0.61v-7.83h1.88a0.47,0.47,0,0,0,0-.94h-1.88V376a0.61,0.61,0,0,1,.61-0.61h2.72a0.61,0.61,0,0,1,.61.61v7.83h-1.88a0.47,0.47,0,0,0,0,.94h1.88v0.33a0.61,0.61,0,0,1-.61.61h0Zm2.16-10.31h2.72a0.61,0.61,0,0,1,.61.61v6.89h-3.94V378.2h1.87a0.47,0.47,0,1,0,0-.94h-1.87V376a0.61,0.61,0,0,1,.61-0.61h0Zm6.81-6.47V368.1h0.71v0.65c0,0.06,0,.11,0,0.16h-0.71Zm6.59-.82h0v0.65c0,0.06,0,.11,0,0.16H332V368.1h-0.71Zm-4,2.38a2,2,0,0,0,1,.28h0a2,2,0,0,0,1-.28l0.09-.05a2,2,0,0,0,.36-0.3h-1.47a0.47,0.47,0,0,1-.47-0.47v-0.48a0.47,0.47,0,0,1,.94,0v0h1.49a2,2,0,0,0,0-.43v-0.65a2,2,0,1,0-4,0v0.65a2,2,0,0,0,.89,1.67l0.09,0.05h0Zm1-6.06a3.66,3.66,0,0,0-3.54,2.75h0.75a2.94,2.94,0,0,1,5.57,0h0.75a3.66,3.66,0,0,0-3.54-2.75h0Zm-7.5,2.11v5.06a0.42,0.42,0,0,1-.42.42H316a0.47,0.47,0,0,0-.33.14l-0.89.89-0.89-.89a0.47,0.47,0,0,0-.33-0.14h-0.79a0.42,0.42,0,0,1-.42-0.42v-5.06a0.42,0.42,0,0,1,.42-0.42h7.59a0.42,0.42,0,0,1,.42.42h0ZM334,362.64H315.37A1.41,1.41,0,0,0,314,364v1.13h-1.17a1.36,1.36,0,0,0-1.36,1.36v5.06a1.36,1.36,0,0,0,1.36,1.36h0.6l1.09,1.09a0.47,0.47,0,0,0,.66,0l1.09-1.09h4.16a1.36,1.36,0,0,0,1.36-1.36v-5.06a1.36,1.36,0,0,0-1.36-1.36H314.9V364a0.47,0.47,0,0,1,.47-0.47h12a4.6,4.6,0,0,0-3.65,4.49v1.32a0.47,0.47,0,0,0,.47.47h1.39a3,3,0,0,0,.49.8l-1.65.55a2.12,2.12,0,0,0-1.45,2v1.37h-1.74a1.54,1.54,0,0,0-.65-0.14h-2.72a1.54,1.54,0,0,1-2.16,0H313a1.55,1.55,0,0,0-1.55,1.55v9.09a1.55,1.55,0,0,0,1.55,1.55h2.72a1.54,1.54,0,0,1,2.16,0h2.72a1.55,1.55,0,0,0,1.55-1.55v-2.44h6.75a0.47,0.47,0,0,0,.47-0.47,2.35,2.35,0,0,0-2.3-2.34v-1.59h2.1a0.47,0.47,0,0,0,0-.94h-7V376a1.54,1.54,0,0,0-.07-0.47H334.5v1.31a0.47,0.47,0,0,1-.47.47h-1.59a0.47,0.47,0,0,0,0,.94H334a1.41,1.41,0,0,0,1.41-1.41V364A1.41,1.41,0,0,0,334,362.64Z" transform="translate(-311.43 -362.64)" fill="#0b050c" fill-rule="evenodd"/>
    <path d="M319.21,368.5a0.47,0.47,0,1,0-.33-0.14A0.47,0.47,0,0,0,319.21,368.5Z" transform="translate(-311.43 -362.64)" fill="#0b050c" fill-rule="evenodd"/>
    <path d="M314.43,368.5h3.08a0.47,0.47,0,1,0,0-.94h-3.08A0.47,0.47,0,1,0,314.43,368.5Z" transform="translate(-311.43 -362.64)" fill="#0b050c" fill-rule="evenodd"/>
    <path d="M314.43,370.56h4.78a0.47,0.47,0,1,0,0-.94h-4.78A0.47,0.47,0,1,0,314.43,370.56Z" transform="translate(-311.43 -362.64)" fill="#0b050c" fill-rule="evenodd"/>
  </g>
</svg>
