<svg id="feba3e07-4a73-4133-b58b-90beb7607777" data-name="Layer 1" xmlns="http://www.w3.org/2000/svg" viewBox="0 0 22.5 24">
  <title>operations</title>
  <g>
    <circle cx="11.25" cy="13.5" r="4.51" fill="#ffe3c4"/>
    <path d="M439.28,405.78a4.51,4.51,0,0,1-2.73-8.1,4.51,4.51,0,1,0,4,7.93A4.52,4.52,0,0,1,439.28,405.78Z" transform="translate(-426.52 -388.52)" fill="#ffdbaf" fill-rule="evenodd"/>
    <path d="M438.14,394.89H432l1.95,1.47-0.05,0-1.78.36v6.76l3.76-3.76,1.88,1.13,1.88-1.13,3.76,3.76v-3A5.64,5.64,0,0,0,438.14,394.89Z" transform="translate(-426.52 -388.52)" fill="#7d5667" fill-rule="evenodd"/>
    <path d="M432.14,396.76v6.76l1.5-1.5v-5.26l1.78-.36,0.05,0-1.95-1.47H432l1.95,1.47-0.05,0Z" transform="translate(-426.52 -388.52)" fill="#6f4258" fill-rule="evenodd"/>
    <path d="M443.41,403.9h-1.13v-2.25h1.13a0.38,0.38,0,0,1,.38.38v1.5A0.38,0.38,0,0,1,443.41,403.9Z" transform="translate(-426.52 -388.52)" fill="#fcb242" fill-rule="evenodd"/>
    <path d="M432.14,403.9h1.13v-2.25h-1.13a0.38,0.38,0,0,0-.38.38v1.5A0.38,0.38,0,0,0,432.14,403.9Z" transform="translate(-426.52 -388.52)" fill="#fcb242" fill-rule="evenodd"/>
    <circle cx="11.25" cy="1.1" r="0.75" fill="#00b8d9"/>
    <path d="M438.9,393h-2.25v-1.13a1.13,1.13,0,0,1,1.13-1.13h0a1.13,1.13,0,0,1,1.13,1.13V393Z" transform="translate(-426.52 -388.52)" fill="#00b8d9" fill-rule="evenodd"/>
    <path d="M438.15,390.81a1.13,1.13,0,0,0-1.5,1.06V393h0.75v-1.13A1.13,1.13,0,0,1,438.15,390.81Z" transform="translate(-426.52 -388.52)" fill="#00b3da" fill-rule="evenodd"/>
    <circle cx="21.02" cy="10.5" r="0.75" fill="#00b8d9"/>
    <path d="M448.67,402.4h-2.25v-1.13a1.13,1.13,0,0,1,1.13-1.13h0a1.13,1.13,0,0,1,1.13,1.13v1.13Z" transform="translate(-426.52 -388.52)" fill="#00b8d9" fill-rule="evenodd"/>
    <path d="M447.92,400.21a1.13,1.13,0,0,0-1.5,1.06v1.13h0.75v-1.13A1.13,1.13,0,0,1,447.92,400.21Z" transform="translate(-426.52 -388.52)" fill="#00b3da" fill-rule="evenodd"/>
    <circle cx="11.25" cy="20.27" r="0.75" fill="#00b8d9"/>
    <path d="M438.9,412.16h-2.25V411a1.13,1.13,0,0,1,1.13-1.13h0A1.13,1.13,0,0,1,438.9,411v1.13Z" transform="translate(-426.52 -388.52)" fill="#00b8d9" fill-rule="evenodd"/>
    <path d="M438.15,410a1.13,1.13,0,0,0-1.5,1.06v1.13h0.75V411A1.13,1.13,0,0,1,438.15,410Z" transform="translate(-426.52 -388.52)" fill="#00b3da" fill-rule="evenodd"/>
    <circle cx="1.48" cy="10.5" r="0.75" fill="#00b8d9"/>
    <path d="M429.13,402.4h-2.25v-1.13a1.13,1.13,0,0,1,1.13-1.13h0a1.13,1.13,0,0,1,1.13,1.13v1.13Z" transform="translate(-426.52 -388.52)" fill="#00b8d9" fill-rule="evenodd"/>
    <path d="M428.38,400.21a1.13,1.13,0,0,0-1.5,1.06v1.13h0.75v-1.13A1.13,1.13,0,0,1,428.38,400.21Z" transform="translate(-426.52 -388.52)" fill="#00b3da" fill-rule="evenodd"/>
    <circle cx="9.35" cy="13.88" r="0.35" fill="#0b050c"/>
    <circle cx="13.15" cy="13.88" r="0.35" fill="#0b050c"/>
    <path d="M438.52,404.3H437a0.35,0.35,0,1,0,0,.7h1.5A0.35,0.35,0,1,0,438.52,404.3Z" transform="translate(-426.52 -388.52)" fill="#0b050c" fill-rule="evenodd"/>
    <path d="M432.11,403.52V402a0,0,0,0,1,0,0h0.77v1.55h-0.77a0,0,0,0,1,0,0h0Zm4.91-5.28h1.5a3.41,3.41,0,0,1,3.4,3.3l-2-2a0.35,0.35,0,0,0-.43-0.05l-1.7,1-1.7-1a0.35,0.35,0,0,0-.43.05l-2,2a3.41,3.41,0,0,1,3.4-3.3h0Zm6.41,5.28a0,0,0,0,1,0,0h-0.77V402h0.77a0,0,0,0,1,0,0v1.5h0Zm-5.66,2.65a4.14,4.14,0,0,0,4.13-3.67h0l-2.29-2.29-1.64,1a0.35,0.35,0,0,1-.36,0l-1.64-1-2.28,2.28,0,0a4.14,4.14,0,0,0,1.29,2.54h1.33a0.35,0.35,0,1,1,0,.7H436a4.1,4.1,0,0,0,1.81.42h0Zm-4.16-1.63a4.86,4.86,0,0,0,.36.51h-0.36v-0.51h0Zm-0.35,1.21h1.4a4.86,4.86,0,0,0,7.45-1.55,0.35,0.35,0,0,0,.17,0h1.13a0.73,0.73,0,0,0,.73-0.73V402a0.73,0.73,0,0,0-.38-0.64v-0.87a6,6,0,0,0-5.49-6l-0.12,0H432a0.35,0.35,0,0,0-.21.63l1.36,1-1.11.22a0.35,0.35,0,0,0-.28.35v1.88a0.35,0.35,0,1,0,.7,0V397l1.5-.3a0.46,0.46,0,0,0,.32-0.29,0.36,0.36,0,0,0-.12-0.39l-1.11-.84h5a5.29,5.29,0,0,1,4.94,5.27v0.77h-0.44a4.11,4.11,0,0,0-4.09-3.76H437a4.11,4.11,0,0,0-4.09,3.76h-0.44v-0.94a0.35,0.35,0,1,0-.7,0v1a0.73,0.73,0,0,0-.38.64v1.5a0.73,0.73,0,0,0,.73.73h0.77v1.15A0.35,0.35,0,0,0,433.26,405.75Z" transform="translate(-426.52 -388.52)" fill="#0b050c" fill-rule="evenodd"/>
    <path d="M434.88,409.48a9.41,9.41,0,0,1-5.8-5.34,0.35,0.35,0,1,0-.65.27,10.11,10.11,0,0,0,6.23,5.74A0.35,0.35,0,0,0,434.88,409.48Z" transform="translate(-426.52 -388.52)" fill="#0b050c" fill-rule="evenodd"/>
    <path d="M446.93,403.95a0.35,0.35,0,0,0-.46.19,9.41,9.41,0,0,1-5.8,5.34,0.35,0.35,0,0,0,.22.67,10.11,10.11,0,0,0,6.23-5.74A0.35,0.35,0,0,0,446.93,403.95Z" transform="translate(-426.52 -388.52)" fill="#0b050c" fill-rule="evenodd"/>
    <path d="M440.67,391.55a9.41,9.41,0,0,1,5.8,5.33,0.35,0.35,0,1,0,.65-0.27,10.11,10.11,0,0,0-6.23-5.73A0.35,0.35,0,1,0,440.67,391.55Z" transform="translate(-426.52 -388.52)" fill="#0b050c" fill-rule="evenodd"/>
    <path d="M428.62,397.08a0.36,0.36,0,0,0,.46-0.19,9.41,9.41,0,0,1,5.8-5.34,0.35,0.35,0,0,0-.22-0.67,10.11,10.11,0,0,0-6.23,5.74A0.35,0.35,0,0,0,428.62,397.08Z" transform="translate(-426.52 -388.52)" fill="#0b050c" fill-rule="evenodd"/>
    <path d="M437,391.87a0.77,0.77,0,0,1,1.55,0v0.77H437v-0.77h0Zm0.77-2.65a0.4,0.4,0,1,1-.4.4,0.4,0.4,0,0,1,.4-0.4h0Zm-1.13,4.13h2.25a0.35,0.35,0,0,0,.35-0.35v-1.13a1.48,1.48,0,0,0-.86-1.34,1.1,1.1,0,1,0-1.24,0,1.48,1.48,0,0,0-.86,1.34V393A0.35,0.35,0,0,0,436.65,393.35Z" transform="translate(-426.52 -388.52)" fill="#0b050c" fill-rule="evenodd"/>
    <path d="M448.32,402h-1.55v-0.78a0.77,0.77,0,1,1,1.55,0V402h0Zm-0.77-3.43a0.4,0.4,0,1,1-.4.4,0.4,0.4,0,0,1,.4-0.4h0Zm0.62,1.31a1.1,1.1,0,1,0-1.24,0,1.48,1.48,0,0,0-.86,1.34v1.13a0.35,0.35,0,0,0,.35.35h2.25a0.35,0.35,0,0,0,.35-0.35v-1.13A1.48,1.48,0,0,0,448.16,399.93Z" transform="translate(-426.52 -388.52)" fill="#0b050c" fill-rule="evenodd"/>
    <path d="M438.55,411.81H437V411a0.78,0.78,0,0,1,1.55,0v0.78h0Zm-0.78-3.43a0.4,0.4,0,1,1-.4.4,0.4,0.4,0,0,1,.4-0.4h0Zm0.62,1.31a1.1,1.1,0,1,0-1.24,0,1.48,1.48,0,0,0-.86,1.34v1.13a0.35,0.35,0,0,0,.35.35h2.25a0.35,0.35,0,0,0,.35-0.35V411A1.48,1.48,0,0,0,438.39,409.69Z" transform="translate(-426.52 -388.52)" fill="#0b050c" fill-rule="evenodd"/>
    <path d="M428.78,402h-1.55v-0.78a0.77,0.77,0,1,1,1.55,0V402h0ZM428,398.61a0.4,0.4,0,1,1-.4.4,0.4,0.4,0,0,1,.4-0.4h0Zm1.48,3.78v-1.13a1.48,1.48,0,0,0-.86-1.34,1.1,1.1,0,1,0-1.24,0,1.48,1.48,0,0,0-.86,1.34v1.13a0.35,0.35,0,0,0,.35.35h2.25A0.35,0.35,0,0,0,429.48,402.4Z" transform="translate(-426.52 -388.52)" fill="#0b050c" fill-rule="evenodd"/>
  </g>
</svg>
