<svg id="82a1b618-2443-47ee-bf12-8d6826e09aa1" data-name="Layer 1" xmlns="http://www.w3.org/2000/svg" viewBox="0 0 24 24">
  <title>product_management</title>
  <g>
    <rect x="8.87" y="19.71" width="6.25" height="3.94" fill="#94c8ec"/>
    <rect x="0.35" y="19.71" width="6.25" height="3.94" fill="#94c8ec"/>
    <rect x="17.4" y="19.71" width="6.25" height="3.94" fill="#94c8ec"/>
    <rect x="14.18" y="19.71" width="0.94" height="3.94" fill="#66b3e3"/>
    <rect x="5.66" y="19.71" width="0.94" height="3.94" fill="#66b3e3"/>
    <rect x="22.71" y="19.71" width="0.94" height="3.94" fill="#66b3e3"/>
    <ellipse cx="11.99" cy="6.26" rx="5.9" ry="5.91" fill="#ffd457"/>
    <path d="M411.36,430.34l-0.47,0a5.91,5.91,0,0,1,0,11.78l0.47,0A5.91,5.91,0,0,0,411.36,430.34Z" transform="translate(-399.37 -429.99)" fill="#fbaf59" fill-rule="evenodd"/>
    <ellipse cx="11.99" cy="6.26" rx="4.1" ry="4.11" fill="#faf2f0"/>
    <path d="M411.36,432.91a3.34,3.34,0,1,0,3.34,3.34,3.34,3.34,0,0,0-3.34-3.34h0Zm0,7.45a4.11,4.11,0,1,1,4.1-4.11A4.11,4.11,0,0,1,411.36,440.36Z" transform="translate(-399.37 -429.99)" fill="#dddbdb" fill-rule="evenodd"/>
    <circle cx="11.98" cy="6.26" r="0.73" fill="#ef434c"/>
    <path d="M405.82,436.25a5.54,5.54,0,1,1,5.54,5.55,5.56,5.56,0,0,1-5.54-5.55h0Zm17.2,13.1h-2.77v-3.42a0.35,0.35,0,0,0-.35-0.35h-8.18V442.5a6.25,6.25,0,1,0-.7,0v3.08h-8.15a0.35,0.35,0,0,0-.35.35v3.42h-2.78a0.35,0.35,0,0,0-.35.35v3.94a0.35,0.35,0,0,0,.35.35h1.68a0.35,0.35,0,0,0,0-.7h-1.33V450h5.54v3.24h-2.8a0.35,0.35,0,0,0,0,.7H406a0.35,0.35,0,0,0,.35-0.35V449.7a0.35,0.35,0,0,0-.35-0.35h-2.76v-3.07H411v3.07h-2.77a0.35,0.35,0,0,0-.35.35v3.94a0.35,0.35,0,0,0,.35.35h1.49a0.35,0.35,0,0,0,0-.7h-1.14V450h5.54v3.24h-3a0.35,0.35,0,0,0,0,.7h3.34a0.35,0.35,0,0,0,.35-0.35V449.7a0.35,0.35,0,0,0-.35-0.35h-2.77v-3.07h7.83v3.07h-2.77a0.35,0.35,0,0,0-.35.35v3.94a0.35,0.35,0,0,0,.35.35h1.45a0.35,0.35,0,0,0,0-.7h-1.1V450h5.54v3.24h-3a0.35,0.35,0,0,0,0,.7H423a0.35,0.35,0,0,0,.35-0.35V449.7A0.35,0.35,0,0,0,423,449.34Z" transform="translate(-399.37 -429.99)" fill-rule="evenodd"/>
    <path d="M404.51,451.67a0.35,0.35,0,0,0-.35-0.35h-2.62a0.35,0.35,0,0,0,0,.7h2.62A0.35,0.35,0,0,0,404.51,451.67Z" transform="translate(-399.37 -429.99)" fill-rule="evenodd"/>
    <path d="M413,451.67a0.35,0.35,0,0,0-.35-0.35H410a0.35,0.35,0,0,0,0,.7h2.62A0.35,0.35,0,0,0,413,451.67Z" transform="translate(-399.37 -429.99)" fill-rule="evenodd"/>
    <path d="M421.56,451.67a0.35,0.35,0,0,0-.35-0.35h-2.62a0.35,0.35,0,0,0,0,.7h2.62A0.35,0.35,0,0,0,421.56,451.67Z" transform="translate(-399.37 -429.99)" fill-rule="evenodd"/>
    <path d="M411.35,435.87a0.38,0.38,0,1,1-.38.38,0.38,0.38,0,0,1,.38-0.38h0Zm-1.6,2.24a0.35,0.35,0,0,0,.5,0l0.72-.81a1.09,1.09,0,0,0,1.47-1,1.09,1.09,0,0,0-.73-1v-1.95a0.35,0.35,0,0,0-.35-0.35h0a0.35,0.35,0,0,0-.35.35v1.95a1.09,1.09,0,0,0-.57,1.6l-0.71.79A0.35,0.35,0,0,0,409.75,438.11Z" transform="translate(-399.37 -429.99)" fill-rule="evenodd"/>
    <path d="M415.82,436.25a4.45,4.45,0,0,0-6.74-3.83,0.35,0.35,0,0,0,.36.61,3.76,3.76,0,1,1-1,.86,0.35,0.35,0,1,0-.55-0.45A4.46,4.46,0,1,0,415.82,436.25Z" transform="translate(-399.37 -429.99)" fill-rule="evenodd"/>
  </g>
</svg>
