<svg id="647d1c95-cdab-47cd-b68a-709334b27196" data-name="Layer 1" xmlns="http://www.w3.org/2000/svg" viewBox="0 0 19.56 23.19"><title>public_relations</title><path d="M199.2,249.12l-1.09,1.09v-1.81a4.34,4.34,0,0,1,4.35-4.35h2.9v1.45a2.17,2.17,0,0,1,2.17,2.17v2.54l-1.09-1.09A9.42,9.42,0,0,1,199.2,249.12Z" transform="translate(-193.04 -243.68)" fill="#606975" fill-rule="evenodd"/><path d="M205.36,245.49V244h-1.45v2.17a2.17,2.17,0,0,1,2.17,2.17v0.86l0.36-.14,1.09,1.09v-2.54A2.17,2.17,0,0,0,205.36,245.49Z" transform="translate(-193.04 -243.68)" fill="#3a434e" fill-rule="evenodd"/><path d="M205,255.83v2l-1.09.72-1.09-.36-1.09.36-1.09-.72v-2A4.7,4.7,0,0,0,205,255.83Z" transform="translate(-193.04 -243.68)" fill="#f6f8fd" fill-rule="evenodd"/><path d="M207.53,250.2v1.45a4.71,4.71,0,0,1-9.42,0V250.2l1.09-1.09a9.42,9.42,0,0,0,7.25,0Z" transform="translate(-193.04 -243.68)" fill="#ebc5ba" fill-rule="evenodd"/><path d="M206.44,249.12l-0.36.14v2.4a4.69,4.69,0,0,1-4,4.65,4.58,4.58,0,0,0,2.9-.47,4.7,4.7,0,0,0,2.54-4.18V250.2Z" transform="translate(-193.04 -243.68)" fill="#d4b0a8" fill-rule="evenodd"/><path d="M197.54,255.12a0.73,0.73,0,0,1,0,1l-0.36.36a0.72,0.72,0,0,1-1-1l0.36-.36A0.73,0.73,0,0,1,197.54,255.12Z" transform="translate(-193.04 -243.68)" fill="#3a434e" fill-rule="evenodd"/><path d="M209.49,256.51a0.73,0.73,0,0,1-1,0l-0.36-.36a0.72,0.72,0,1,1,1-1l0.36,0.36A0.73,0.73,0,0,1,209.49,256.51Z" transform="translate(-193.04 -243.68)" fill="#3a434e" fill-rule="evenodd"/><path d="M209,260.35v1.45H196.66v-1.45a2.53,2.53,0,0,1,2.54-2.54h1.45l1.09,0.72,1.09-.36,1.09,0.36,1.09-.72h1.45A2.53,2.53,0,0,1,209,260.35Z" transform="translate(-193.04 -243.68)" fill="#6191cc" fill-rule="evenodd"/><path d="M206.44,257.81H205a2.53,2.53,0,0,1,2.54,2.54v1.45H209v-1.45A2.53,2.53,0,0,0,206.44,257.81Z" transform="translate(-193.04 -243.68)" fill="#5080c1" fill-rule="evenodd"/><polygon points="19.2 19.93 17.75 21.37 17.03 21.37 17.03 19.93 19.2 19.93" fill="#3a434e" fill-rule="evenodd"/><polygon points="17.03 21.37 17.03 22.82 2.54 22.82 2.54 19.93 17.03 19.93 17.03 21.37" fill="#964d4d" fill-rule="evenodd"/><rect x="15.58" y="19.93" width="1.45" height="2.9" fill="#813f3e"/><rect x="0.36" y="18.11" width="18.84" height="1.81" fill="#606975"/><polygon points="2.54 19.93 2.54 21.37 1.81 21.37 0.36 19.93 2.54 19.93" fill="#3a434e" fill-rule="evenodd"/><path d="M196.66,257.09a1.09,1.09,0,0,1-.77-1.86l0.36-.36a1.11,1.11,0,0,1,1.54,0,1.09,1.09,0,0,1,0,1.54l-0.36.36a1.08,1.08,0,0,1-.77.32h0Zm0.36-1.81a0.36,0.36,0,0,0-.26.11l-0.36.36a0.36,0.36,0,0,0,0,.51,0.37,0.37,0,0,0,.51,0l0.36-.36A0.36,0.36,0,0,0,197,255.28Z" transform="translate(-193.04 -243.68)" fill-rule="evenodd"/><path d="M194.85,258.17a0.36,0.36,0,0,1-.26-0.62l1.3-1.3a0.36,0.36,0,1,1,.51.51l-1.3,1.3A0.36,0.36,0,0,1,194.85,258.17Z" transform="translate(-193.04 -243.68)" fill-rule="evenodd"/><path d="M194.85,262.16a0.36,0.36,0,0,1-.36-0.36v-4a0.36,0.36,0,0,1,.72,0v4A0.36,0.36,0,0,1,194.85,262.16Z" transform="translate(-193.04 -243.68)" fill-rule="evenodd"/><path d="M209,257.09a1.08,1.08,0,0,1-.77-0.32l-0.36-.36a1.09,1.09,0,0,1,0-1.54,1.11,1.11,0,0,1,1.54,0l0.36,0.36a1.09,1.09,0,0,1-.77,1.86h0Zm-0.36-1.81a0.36,0.36,0,0,0-.26.62l0.36,0.36a0.37,0.37,0,0,0,.51,0,0.36,0.36,0,0,0,0-.51l-0.36-.36A0.36,0.36,0,0,0,208.62,255.28Z" transform="translate(-193.04 -243.68)" fill-rule="evenodd"/><path d="M210.79,258.17a0.36,0.36,0,0,1-.26-0.11l-1.3-1.3a0.36,0.36,0,0,1,.51-0.51l1.3,1.3A0.36,0.36,0,0,1,210.79,258.17Z" transform="translate(-193.04 -243.68)" fill-rule="evenodd"/><path d="M210.79,262.16a0.36,0.36,0,0,1-.36-0.36v-4a0.36,0.36,0,0,1,.72,0v4A0.36,0.36,0,0,1,210.79,262.16Z" transform="translate(-193.04 -243.68)" fill-rule="evenodd"/><path d="M210.07,266.87a0.36,0.36,0,0,1-.36-0.36v-2.9a0.36,0.36,0,0,1,.72,0v2.9A0.36,0.36,0,0,1,210.07,266.87Z" transform="translate(-193.04 -243.68)" fill-rule="evenodd"/><path d="M195.58,266.87a0.36,0.36,0,0,1-.36-0.36v-2.9a0.36,0.36,0,0,1,.72,0v2.9A0.36,0.36,0,0,1,195.58,266.87Z" transform="translate(-193.04 -243.68)" fill-rule="evenodd"/><path d="M210.79,265.42h-0.72a0.36,0.36,0,0,1,0-.72h0.72A0.36,0.36,0,0,1,210.79,265.42Z" transform="translate(-193.04 -243.68)" fill-rule="evenodd"/><path d="M195.58,265.42h-0.72a0.36,0.36,0,0,1,0-.72h0.72A0.36,0.36,0,0,1,195.58,265.42Z" transform="translate(-193.04 -243.68)" fill-rule="evenodd"/><path d="M210.79,265.42a0.36,0.36,0,0,1-.26-0.62l1.45-1.45a0.36,0.36,0,0,1,.51.51L211,265.31A0.36,0.36,0,0,1,210.79,265.42Z" transform="translate(-193.04 -243.68)" fill-rule="evenodd"/><path d="M194.85,265.42a0.36,0.36,0,0,1-.26-0.11l-1.45-1.45a0.36,0.36,0,1,1,.51-0.51l1.45,1.45A0.36,0.36,0,0,1,194.85,265.42Z" transform="translate(-193.04 -243.68)" fill-rule="evenodd"/><path d="M212.24,264H193.4a0.36,0.36,0,0,1-.36-0.36V261.8a0.36,0.36,0,0,1,.36-0.36h18.84a0.36,0.36,0,0,1,.36.36v1.81a0.36,0.36,0,0,1-.36.36h0Zm-18.48-.72h18.11v-1.09H193.76v1.09Z" transform="translate(-193.04 -243.68)" fill-rule="evenodd"/><path d="M209,260.71a0.36,0.36,0,0,1-.36-0.36,2.18,2.18,0,0,0-2.17-2.17,0.36,0.36,0,1,1,0-.72,2.9,2.9,0,0,1,2.9,2.9A0.36,0.36,0,0,1,209,260.71Z" transform="translate(-193.04 -243.68)" fill-rule="evenodd"/><path d="M206.44,258.17H205a0.36,0.36,0,0,1,0-.72h1.45A0.36,0.36,0,0,1,206.44,258.17Z" transform="translate(-193.04 -243.68)" fill-rule="evenodd"/><path d="M209,262.16a0.36,0.36,0,0,1-.36-0.36v-1.45a0.36,0.36,0,0,1,.72,0v1.45A0.36,0.36,0,0,1,209,262.16Z" transform="translate(-193.04 -243.68)" fill-rule="evenodd"/><path d="M196.66,260.71a0.36,0.36,0,0,1-.36-0.36,2.9,2.9,0,0,1,2.9-2.9,0.36,0.36,0,1,1,0,.72,2.17,2.17,0,0,0-2.17,2.17A0.36,0.36,0,0,1,196.66,260.71Z" transform="translate(-193.04 -243.68)" fill-rule="evenodd"/><path d="M199.2,258.17a0.36,0.36,0,0,1,0-.72h1.45a0.36,0.36,0,0,1,0,.72H199.2Z" transform="translate(-193.04 -243.68)" fill-rule="evenodd"/><path d="M196.66,262.16a0.36,0.36,0,0,1-.36-0.36v-1.45a0.36,0.36,0,0,1,.72,0v1.45A0.36,0.36,0,0,1,196.66,262.16Z" transform="translate(-193.04 -243.68)" fill-rule="evenodd"/><path d="M200.65,258.17a0.36,0.36,0,0,1-.36-0.36v-2a0.36,0.36,0,0,1,.72,0v2A0.36,0.36,0,0,1,200.65,258.17Z" transform="translate(-193.04 -243.68)" fill-rule="evenodd"/><path d="M205,258.17a0.36,0.36,0,0,1-.36-0.36v-2a0.36,0.36,0,0,1,.72,0v2A0.36,0.36,0,0,1,205,258.17Z" transform="translate(-193.04 -243.68)" fill-rule="evenodd"/><path d="M202.82,256.73a5.08,5.08,0,0,1-5.07-5.07,0.36,0.36,0,0,1,.72,0,4.35,4.35,0,1,0,8.69,0,0.36,0.36,0,0,1,.72,0A5.08,5.08,0,0,1,202.82,256.73Z" transform="translate(-193.04 -243.68)" fill-rule="evenodd"/><path d="M198.11,252a0.36,0.36,0,0,1-.36-0.36v-3.26a0.36,0.36,0,1,1,.72,0v3.26A0.36,0.36,0,0,1,198.11,252Z" transform="translate(-193.04 -243.68)" fill-rule="evenodd"/><path d="M207.53,252a0.36,0.36,0,0,1-.36-0.36v-4a0.36,0.36,0,0,1,.72,0v4A0.36,0.36,0,0,1,207.53,252Z" transform="translate(-193.04 -243.68)" fill-rule="evenodd"/><path d="M207.53,248a0.36,0.36,0,0,1-.36-0.36,1.81,1.81,0,0,0-1.81-1.81,0.36,0.36,0,1,1,0-.72,2.54,2.54,0,0,1,2.54,2.54A0.36,0.36,0,0,1,207.53,248Z" transform="translate(-193.04 -243.68)" fill-rule="evenodd"/><path d="M205.36,245.86a0.36,0.36,0,0,1-.36-0.36V244a0.36,0.36,0,1,1,.72,0v1.45A0.36,0.36,0,0,1,205.36,245.86Z" transform="translate(-193.04 -243.68)" fill-rule="evenodd"/><path d="M205.36,244.41h-2.9a0.36,0.36,0,0,1,0-.72h2.9A0.36,0.36,0,0,1,205.36,244.41Z" transform="translate(-193.04 -243.68)" fill-rule="evenodd"/><path d="M198.11,248.76a0.36,0.36,0,0,1-.36-0.36,4.72,4.72,0,0,1,4.71-4.71,0.36,0.36,0,1,1,0,.72,4,4,0,0,0-4,4A0.36,0.36,0,0,1,198.11,248.76Z" transform="translate(-193.04 -243.68)" fill-rule="evenodd"/><path d="M207.53,250.57a0.36,0.36,0,0,1-.26-0.11l-1.09-1.09a0.36,0.36,0,1,1,.51-0.51l1.09,1.09A0.36,0.36,0,0,1,207.53,250.57Z" transform="translate(-193.04 -243.68)" fill-rule="evenodd"/><path d="M202.82,250.2a10.37,10.37,0,0,1-3.77-.76,0.36,0.36,0,0,1,.29-0.66,9.06,9.06,0,0,0,7,0,0.36,0.36,0,0,1,.29.66A10.36,10.36,0,0,1,202.82,250.2Z" transform="translate(-193.04 -243.68)" fill-rule="evenodd"/><path d="M198.11,250.57a0.36,0.36,0,0,1-.26-0.62l1.09-1.09a0.36,0.36,0,0,1,.51.51l-1.09,1.09A0.36,0.36,0,0,1,198.11,250.57Z" transform="translate(-193.04 -243.68)" fill-rule="evenodd"/><path d="M201.73,258.9a0.36,0.36,0,0,1-.2-0.06l-1.09-.73a0.36,0.36,0,1,1,.4-0.6l1.09,0.72A0.36,0.36,0,0,1,201.73,258.9Z" transform="translate(-193.04 -243.68)" fill-rule="evenodd"/><path d="M201.73,258.9a0.36,0.36,0,0,1-.11-0.71l1.09-.36a0.36,0.36,0,0,1,.23.69l-1.09.36Z" transform="translate(-193.04 -243.68)" fill-rule="evenodd"/><path d="M203.91,258.9a0.36,0.36,0,0,1-.2-0.66l1.09-.72a0.36,0.36,0,1,1,.4.6l-1.09.73A0.36,0.36,0,0,1,203.91,258.9Z" transform="translate(-193.04 -243.68)" fill-rule="evenodd"/><path d="M203.91,258.9l-0.11,0-1.09-.36a0.36,0.36,0,0,1,.23-0.69l1.09,0.36A0.36,0.36,0,0,1,203.91,258.9Z" transform="translate(-193.04 -243.68)" fill-rule="evenodd"/></svg>