<svg id="342b8cb5-69d4-457a-a6b8-ae67b9993fcd" data-name="Layer 1" xmlns="http://www.w3.org/2000/svg" viewBox="0 0 23.2 21.75">
  <title>purchasing</title>
  <g>
    <path d="M394.49,495.51a0.91,0.91,0,1,1,0,1.81H382.44a0.91,0.91,0,0,1-.88-0.7l-3.46-14.71h-2a0.91,0.91,0,0,1,0-1.81h2.72a0.91,0.91,0,0,1,.88.7l3.46,14.71h11.34Z" transform="translate(-374.73 -479.65)" fill="#e86c84" fill-rule="evenodd"/>
    <circle cx="10.42" cy="19.48" r="1.81" fill="#34425c"/>
    <circle cx="17.94" cy="19.48" r="1.81" fill="#34425c"/>
    <circle cx="17.94" cy="19.48" r="0.45"/>
    <circle cx="10.42" cy="19.48" r="0.45"/>
    <path d="M397.84,485.26a0.45,0.45,0,0,0-.36-0.17H381.17l-1-4.39a1.35,1.35,0,0,0-1.32-1h-2.72a1.36,1.36,0,1,0,0,2.72h1.64l3.38,14.36a1.36,1.36,0,0,0,1.32,1h0.91a2.27,2.27,0,1,0,3.62,0h3.9a2.27,2.27,0,1,0,3.62,0h0a1.36,1.36,0,0,0,0-2.72h-11l-0.43-1.81H395a1.36,1.36,0,0,0,1.32-1l1.64-6.56a0.45,0.45,0,0,0-.08-0.39h0Zm-1.62,3.45h-2.89l0.34-2.72h3.23l-0.68,2.72h0Zm-5.36.91h1.44L392,492.34h-2.45V491a0.45,0.45,0,1,0-.91,0v1.36h-2.45l-0.34-2.72h1.44a0.45,0.45,0,1,0,0-.91h-1.55L385.35,486h3.25v1.36a0.45,0.45,0,1,0,.91,0V486h3.25l-0.34,2.72h-1.55a0.45,0.45,0,0,0,0,.91h0ZM384.44,486l0.34,2.72H382L381.38,486h3.06Zm2.08,13.14a1.36,1.36,0,1,1-1.36-1.36,1.36,1.36,0,0,1,1.36,1.36h0Zm7.52,0a1.36,1.36,0,1,1-1.36-1.36,1.36,1.36,0,0,1,1.36,1.36h0Zm0.45-3.17a0.45,0.45,0,0,1,0,.91H382.44a0.45,0.45,0,0,1-.44-0.35l-3.54-15.06h-2.36a0.45,0.45,0,1,1,0-.91h2.72a0.45,0.45,0,0,1,.44.35l2.82,12h0L382.8,496h11.69Zm-12.26-6.34h2.66l0.34,2.72h-2.36l-0.64-2.72h0ZM395.4,492a0.45,0.45,0,0,1-.44.34h-2.09l0.34-2.72H396Z" transform="translate(-374.73 -479.65)" fill-rule="evenodd"/>
    <circle cx="14.32" cy="9.52" r="0.45"/>
  </g>
</svg>
