<svg id="2837a6ac-3b62-456d-a8c8-ba78734da8a7" data-name="Layer 1" xmlns="http://www.w3.org/2000/svg" viewBox="0 0 16.27 21.81">
  <title>quality_assurance</title>
  <g>
    <polygon points="12.15 13.65 12.15 13.65 9.19 15.33 12.9 21.39 13.52 19.06 15.85 19.68 12.15 13.65" fill="#04bcc3" fill-rule="evenodd"/>
    <polygon points="4.05 13.67 0.63 19.68 2.96 19.06 3.58 21.39 7.04 15.31 4.05 13.67" fill="#04bcc3" fill-rule="evenodd"/>
    <path d="M413.19,515.87l-1,.37a0.86,0.86,0,0,1-1-.39l-0.93-1.63v0a0.87,0.87,0,0,0-.45-0.38l-1.77-.65a0.88,0.88,0,0,1-.56-1l0.33-1.88a0.89,0.89,0,0,0-.1-0.59l-0.94-1.65a0.88,0.88,0,0,1,.19-1.11l1.44-1.23a0.88,0.88,0,0,0,.3-0.52l0.33-1.85a0.87,0.87,0,0,1,.85-0.72h1.88a0.86,0.86,0,0,0,.56-0.21l1.44-1.25a0.86,0.86,0,0,1,1.11,0l1.44,1.25a0.86,0.86,0,0,0,.56.21h1.88a0.87,0.87,0,0,1,.85.72l0.33,1.85a0.88,0.88,0,0,0,.3.52L421.6,507a0.88,0.88,0,0,1,.19,1.11l-0.94,1.65a0.89,0.89,0,0,0-.1.59l0.33,1.88a0.88,0.88,0,0,1-.56,1l-1.77.65a0.87,0.87,0,0,0-.45.38h0l-0.94,1.65a0.86,0.86,0,0,1-1,.39l-1-.36-0.8-.29a0.86,0.86,0,0,0-.59,0Z" transform="translate(-406.15 -500.56)" fill="#ffd666" fill-rule="evenodd"/>
    <polygon points="10.53 7.3 9.31 8.48 9.6 10.16 8.09 9.37 6.59 10.16 6.88 8.48 5.66 7.3 7.34 7.05 8.09 5.53 8.85 7.05 10.53 7.3" fill="#04bcc3" fill-rule="evenodd"/>
    <circle cx="4.69" cy="4.26" r="0.43"/>
    <path d="M422.17,508.29a1.31,1.31,0,0,0-.29-1.65l-1.44-1.23a0.46,0.46,0,0,1-.15-0.27L420,503.3a1.29,1.29,0,0,0-1.27-1.08H416.8a0.43,0.43,0,0,1-.28-0.1l-1.44-1.25h0a1.28,1.28,0,0,0-1.66,0h0L412,502.12a0.43,0.43,0,0,1-.28.1H409.8a1.29,1.29,0,0,0-1.27,1.08l-0.33,1.85a0.45,0.45,0,0,1-.15.27l-1.44,1.23a1.31,1.31,0,0,0-.29,1.65l0.94,1.65a0.46,0.46,0,0,1,.05.31L407,512.13a1.3,1.3,0,0,0,.83,1.45l1.77,0.65,0.1,0.05L406.41,520a0.43,0.43,0,0,0,.48.62l1.92-.51,0.51,1.92a0.43,0.43,0,0,0,.78.1l3.39-5.94,0.61-.22a0.43,0.43,0,0,1,.3,0l0.66,0.24,3.63,5.93a0.43,0.43,0,0,0,.77-0.11l0.51-1.92,1.92,0.51a0.43,0.43,0,0,0,.47-0.63l-3.53-5.76,0.07,0,1.77-.65a1.3,1.3,0,0,0,.83-1.45l-0.33-1.88a0.46,0.46,0,0,1,.05-0.31l0.94-1.65h0Zm-12.29,12.55-0.36-1.33a0.43,0.43,0,0,0-.52-0.3l-1.34.36,2.55-4.47,0.56,1a1.28,1.28,0,0,0,1.48.6l-2.37,4.16h0Zm11.2-1.28-1.3-.35a0.43,0.43,0,0,0-.52.3l-0.37,1.37-2.56-4.18a1.28,1.28,0,0,0,1.4-.62l0.59-1,2.76,4.51h0Zm-0.59-10a1.32,1.32,0,0,0-.15.87l0.33,1.88a0.45,0.45,0,0,1-.28.5l-1.77.65a1.3,1.3,0,0,0-.64.52l0,0.07L417,515.65a0.44,0.44,0,0,1-.53.2l-1.77-.65a1.28,1.28,0,0,0-.89,0l-1.77.65a0.44,0.44,0,0,1-.53-0.2l-0.88-1.54a0.43,0.43,0,0,0-.13-0.21,1.29,1.29,0,0,0-.62-0.48l-1.77-.65a0.45,0.45,0,0,1-.28-0.5l0.33-1.88a1.31,1.31,0,0,0-.15-0.87l-0.94-1.65a0.46,0.46,0,0,1,.1-0.57l1.44-1.23a1.31,1.31,0,0,0,.44-0.77l0.33-1.85a0.44,0.44,0,0,1,.43-0.37h1.88a1.29,1.29,0,0,0,.84-0.31l1.44-1.25a0.43,0.43,0,0,1,.56,0l1.44,1.25a1.29,1.29,0,0,0,.83.31h1.88a0.44,0.44,0,0,1,.43.37l0.33,1.85a1.31,1.31,0,0,0,.44.77l1.44,1.22a0.46,0.46,0,0,1,.1.57Z" transform="translate(-406.15 -500.56)" fill-rule="evenodd"/>
    <path d="M414.24,503.11a5.51,5.51,0,0,0-2.12.42,0.43,0.43,0,0,0,.33.79,4.68,4.68,0,1,1-2.3,2,0.43,0.43,0,0,0-.74-0.42A5.54,5.54,0,1,0,414.24,503.11Z" transform="translate(-406.15 -500.56)" fill-rule="evenodd"/>
    <path d="M412.57,509.19l-0.25,1.45a0.43,0.43,0,0,0,.62.45l1.3-.69,1.3,0.69a0.43,0.43,0,0,0,.62-0.45l-0.25-1.45,1.06-1a0.43,0.43,0,0,0-.24-0.73l-1.46-.21-0.65-1.32a0.43,0.43,0,0,0-.76,0l-0.65,1.32-1.46.21a0.43,0.43,0,0,0-.24.73l1.06,1h0Zm1-1.16a0.43,0.43,0,0,0,.32-0.23l0.37-.75,0.37,0.75a0.42,0.42,0,0,0,.32.23l0.83,0.12-0.6.58a0.43,0.43,0,0,0-.12.38l0.14,0.82-0.74-.39a0.43,0.43,0,0,0-.2,0,0.42,0.42,0,0,0-.2,0l-0.74.39,0.14-.82a0.43,0.43,0,0,0-.12-0.38l-0.6-.58Z" transform="translate(-406.15 -500.56)" fill-rule="evenodd"/>
  </g>
</svg>
