<svg id="01e18a6c-87b3-4624-92d9-2066970c1852" data-name="Layer 1" xmlns="http://www.w3.org/2000/svg" viewBox="0 0 23.77 22.46">
  <title>real_estate</title>
  <g>
    <polygon points="4.63 2.65 1.02 3.46 1.02 22.11 3.52 22.11 4.63 21.01 5.75 22.11 7.44 22.11 8.24 9.67 8.24 3.46 4.63 2.65" fill="#00b6df" fill-rule="evenodd"/>
    <polygon points="19.14 2.65 15.53 3.46 15.53 9.67 16.33 22.11 18.02 22.11 19.14 21.11 20.26 22.11 22.75 22.11 22.75 3.46 19.14 2.65" fill="#ef434d" fill-rule="evenodd"/>
    <polygon points="14.85 3.46 23.43 3.46 19.14 0.35 14.85 3.46" fill="#f1614d" fill-rule="evenodd"/>
    <polygon points="8.92 3.46 0.34 3.46 4.63 0.35 8.92 3.46" fill="#f1614d" fill-rule="evenodd"/>
    <polygon points="2.45 3.46 0.34 3.46 4.63 0.35 2.45 3.46" fill="#f15b43" fill-rule="evenodd"/>
    <polygon points="3.52 4.96 3.52 7.57 4.63 8.18 5.75 7.57 5.75 4.96 3.52 4.96" fill="#efecec" fill-rule="evenodd"/>
    <polygon points="3.52 10.79 3.52 13.4 4.63 14.02 5.75 13.4 5.75 10.79 3.52 10.79" fill="#efecec" fill-rule="evenodd"/>
    <rect x="3.51" y="7.57" width="2.23" height="1.23" fill="#0097da"/>
    <rect x="3.51" y="13.4" width="2.23" height="1.23" fill="#0097da"/>
    <polygon points="20.26 4.96 20.26 7.57 19.14 8.18 18.02 7.57 18.02 4.96 20.26 4.96" fill="#efecec" fill-rule="evenodd"/>
    <polygon points="20.26 10.79 20.26 13.4 19.14 14.02 18.02 13.4 18.02 10.79 20.26 10.79" fill="#efecec" fill-rule="evenodd"/>
    <rect x="18.02" y="7.57" width="2.23" height="1.23" fill="#f15b65"/>
    <rect x="18.02" y="13.4" width="2.23" height="1.23" fill="#f15b65"/>
    <rect x="3.51" y="17.56" width="2.23" height="4.55" fill="#0097da"/>
    <rect x="18.02" y="17.56" width="2.23" height="4.55" fill="#f15b65"/>
    <polygon points="2.45 22.11 1.02 22.11 2.45 22.11 2.45 22.11" fill="#dedbd9" fill-rule="evenodd"/>
    <polygon points="2.45 22.11 1.02 22.11 1.02 3.46 2.45 3.46 2.45 22.11 2.45 22.11" fill="#00a9cf" fill-rule="evenodd"/>
    <polygon points="16.96 3.46 14.85 3.46 19.14 0.35 16.96 3.46" fill="#f15b43" fill-rule="evenodd"/>
    <polygon points="16.96 22.11 15.53 22.11 16.33 22.11 16.96 22.11 16.96 22.11" fill="#dedbd9" fill-rule="evenodd"/>
    <path d="M391.4,545.5h-0.63V533.06h0.63V545.5h0Zm0-12.7L390,532v-5.15h1.43v6Z" transform="translate(-374.45 -523.39)" fill="#d93e46" fill-rule="evenodd"/>
    <polygon points="16.33 22.11 7.44 22.11 7.44 9.67 11.89 8.52 16.33 9.67 16.33 22.11" fill="#faa74f" fill-rule="evenodd"/>
    <polygon points="17.41 9.67 6.37 9.67 11.89 6.56 17.41 9.67" fill="#f1614d" fill-rule="evenodd"/>
    <polygon points="9.74 9.67 6.37 9.67 11.89 6.56 9.74 9.67" fill="#f15b43" fill-rule="evenodd"/>
    <rect x="10.05" y="17.56" width="3.67" height="4.55" fill="#f1614d"/>
    <polygon points="8.8 12.02 8.8 14.63 9.92 15.25 11.03 14.63 11.03 12.02 8.8 12.02" fill="#efecec" fill-rule="evenodd"/>
    <rect x="8.8" y="14.63" width="2.23" height="1.23" fill="#f1614d"/>
    <polygon points="12.74 12.02 12.74 14.63 13.86 15.25 14.97 14.63 14.97 12.02 12.74 12.02" fill="#efecec" fill-rule="evenodd"/>
    <rect x="12.74" y="14.63" width="2.23" height="1.23" fill="#f1614d"/>
    <rect x="7.44" y="22.11" width="2.3" fill="#dedbd9"/>
    <polygon points="9.74 22.11 7.44 22.11 7.44 9.67 9.74 9.67 9.74 12.02 8.8 12.02 8.8 14.63 8.8 14.63 8.8 15.86 9.74 15.86 9.74 22.11 9.74 22.11" fill="#f29a41" fill-rule="evenodd"/>
    <polygon points="8.8 14.63 8.8 14.63 8.8 12.02 9.74 12.02 9.74 14.63 8.8 14.63 8.8 14.63" fill="#d4d2d2" fill-rule="evenodd"/>
    <polygon points="9.74 15.86 8.8 15.86 8.8 14.63 8.8 14.63 9.74 14.63 9.74 15.86" fill="#f15b43" fill-rule="evenodd"/>
    <path d="M383.6,535.76h1.54v1.91H383.6v-1.91h0Zm1.54,3.14H383.6v-0.53h1.54v0.53h0Zm0.35,0.7a0.35,0.35,0,0,0,.35-0.35v-3.84a0.35,0.35,0,0,0-.35-0.35h-2.23a0.35,0.35,0,0,0-.35.35v3.84a0.35,0.35,0,0,0,.35.35h2.23Z" transform="translate(-374.45 -523.39)" fill="#0b050c" fill-rule="evenodd"/>
    <path d="M378.31,528.7h1.54v1.91h-1.54V528.7h0Zm1.54,3.14h-1.54v-0.53h1.54v0.53h0Zm-1.89.7h2.23a0.35,0.35,0,0,0,.35-0.35v-3.84a0.35,0.35,0,0,0-.35-0.35H378a0.35,0.35,0,0,0-.35.35v3.84A0.35,0.35,0,0,0,378,532.54Z" transform="translate(-374.45 -523.39)" fill="#0b050c" fill-rule="evenodd"/>
    <path d="M378.31,534.53h1.54v1.91h-1.54v-1.91h0Zm1.54,3.14h-1.54v-0.53h1.54v0.53h0Zm-2.23.35a0.35,0.35,0,0,0,.35.35h2.23a0.35,0.35,0,0,0,.35-0.35v-3.84a0.35,0.35,0,0,0-.35-0.35H378a0.35,0.35,0,0,0-.35.35V538Z" transform="translate(-374.45 -523.39)" fill="#0b050c" fill-rule="evenodd"/>
    <path d="M396.85,545.15h-1.8v-4.21a0.35,0.35,0,0,0-.35-0.35h-2.23a0.35,0.35,0,0,0-.35.35v4.21h-1V533.41h0.73a0.35,0.35,0,0,0,.17-0.65h0l-1.7-1v-4.6h6.53v18h0Zm-4,0h1.54V541.3h-1.54v3.86h0Zm-8,0V541.3h3v3.86h-3Zm-2.61-11.75h0v11.75h1.91v-4.21a0.35,0.35,0,0,1,.35-0.35h3.67a0.35,0.35,0,0,1,.35.35v4.21h1.91V533.41h-8.19Zm-3.93,11.75V541.3h1.54v3.86h-1.54Zm8-14.8-4.19,2.36h8.38l-4.19-2.36h0Zm7.25-6.18,3.21,2.33h-6.43l3.21-2.33h0Zm-17.72,2.33,3.21-2.33,3.21,2.33h-6.43Zm22.21,0.07-4.29-3.11a0.35,0.35,0,0,0-.41,0l-4.29,3.11a0.35,0.35,0,0,0,.2.63h0.33v4.21l-3.12-1.76a0.35,0.35,0,0,0-.34,0L383,531.4v-4.21h0.33a0.35,0.35,0,0,0,.19-0.64l-4.27-3.1a0.35,0.35,0,0,0-.41,0l-4.29,3.11a0.35,0.35,0,0,0,.2.63h0.33v5.07a0.35,0.35,0,0,0,.7,0v-5.07h6.53v4.6l-1.7,1a0.35,0.35,0,0,0,.17.65h0.73v11.75h-1v-4.21a0.35,0.35,0,0,0-.35-0.35H378a0.35,0.35,0,0,0-.35.35v4.21h-1.8v-11.5a0.35,0.35,0,1,0-.7,0V545.5a0.35,0.35,0,0,0,.35.35H397.2a0.35,0.35,0,0,0,.35-0.35V527.19h0.33A0.35,0.35,0,0,0,398.08,526.56Z" transform="translate(-374.45 -523.39)" fill="#0b050c" fill-rule="evenodd"/>
    <path d="M392.82,528.7h1.54v1.91h-1.54V528.7h0Zm1.54,3.14h-1.54v-0.53h1.54v0.53h0Zm-1.89.7h2.23a0.35,0.35,0,0,0,.35-0.35v-3.84a0.35,0.35,0,0,0-.35-0.35h-2.23a0.35,0.35,0,0,0-.35.35v3.84A0.35,0.35,0,0,0,392.47,532.54Z" transform="translate(-374.45 -523.39)" fill="#0b050c" fill-rule="evenodd"/>
    <path d="M394.36,537.67h-1.54v-0.53h1.54v0.53h0Zm-1.54-3.14h1.54v1.91h-1.54v-1.91h0Zm1.89-.7h-2.23a0.35,0.35,0,0,0-.35.35V538a0.35,0.35,0,0,0,.35.35h2.23a0.35,0.35,0,0,0,.35-0.35v-3.84A0.35,0.35,0,0,0,394.71,533.84Z" transform="translate(-374.45 -523.39)" fill="#0b050c" fill-rule="evenodd"/>
    <path d="M387.54,535.76h1.54v1.91h-1.54v-1.91h0Zm1.54,3.14h-1.54v-0.53h1.54v0.53h0Zm-1.89.7h2.23a0.35,0.35,0,0,0,.35-0.35v-3.84a0.35,0.35,0,0,0-.35-0.35h-2.23a0.35,0.35,0,0,0-.35.35v3.84A0.35,0.35,0,0,0,387.19,539.6Z" transform="translate(-374.45 -523.39)" fill="#0b050c" fill-rule="evenodd"/>
  </g>
</svg>
