<svg id="93eff108-ca0f-433c-a1e5-cb1a0383116c" data-name="Layer 1" xmlns="http://www.w3.org/2000/svg" viewBox="0 0 22.73 23.76">
  <title>research</title>
  <g>
    <polygon points="13.76 4.17 13.76 18.8 0.35 18.8 0.35 1.07 10.65 1.07 13.76 4.17" fill="#ebdfd1" fill-rule="evenodd"/>
    <path d="M388.73,553.1v11.44A6.91,6.91,0,1,1,388.73,553.1Z" transform="translate(-374.97 -547.91)" fill="#cdc7b2" fill-rule="evenodd"/>
    <polygon points="13.76 4.17 13.76 18.8 12.55 18.8 12.55 2.96 13.76 4.17" fill="#cdc7b2" fill-rule="evenodd"/>
    <polygon points="10.68 4.15 13.76 4.17 10.65 1.07 10.68 4.15" fill="#b9b49f" fill-rule="evenodd"/>
    <polygon points="8.08 2.25 6.44 2.25 6.23 0.35 8.3 0.35 8.08 2.25" fill="#116ea5" fill-rule="evenodd"/>
    <rect x="388.93" y="561.91" width="1.06" height="3.04" transform="translate(-659.28 -107.63) rotate(-44.99)" fill="#116ea5"/>
    <circle cx="9.88" cy="10.91" r="5.95" fill="#2e598a"/>
    <circle cx="9.88" cy="10.91" r="4.58" fill="#ebdfd1"/>
    <rect x="392.07" y="562.6" width="2.61" height="9.48" rx="0.73" ry="0.73" transform="translate(-660.95 -103.45) rotate(-45.01)" fill="#0084c8"/>
    <path d="M391.46,563.58l5.67,5.67a0.73,0.73,0,0,1,0,1l-0.55.55a0.73,0.73,0,0,0,0-1l-5.67-5.67a0.73,0.73,0,0,0-1,0l0.55-.55A0.73,0.73,0,0,1,391.46,563.58Z" transform="translate(-374.97 -547.91)" fill="#116ea5" fill-rule="evenodd"/>
    <rect x="393.31" y="568.05" width="2.61" height="1.07" transform="translate(-661.45 -102.28) rotate(-45)" fill="#f15853"/>
    <path d="M384.85,554.59a4.23,4.23,0,1,1-3,1.24,4.2,4.2,0,0,1,3-1.24h0Zm-4.93,4.23a4.93,4.93,0,1,0,1.44-3.48A4.9,4.9,0,0,0,379.92,558.82Z" transform="translate(-374.97 -547.91)" fill="#0b050c" fill-rule="evenodd"/>
    <path d="M396.89,570l-0.82.82a0.38,0.38,0,0,1-.54,0l-1-1,1.35-1.35,1,1a0.38,0.38,0,0,1,0,.54h0Zm-2.39-2.93-1.35,1.35,0.17,0.17,1.35-1.35-0.17-.17h0Zm-0.69,2,0.26,0.26,1.35-1.35-0.26-.26-1.35,1.35h0Zm-4.74-4.85,0.11,0.11a1.09,1.09,0,0,0-.11.31v-0.42h0Zm0.83-.67-0.26.26-0.48-.48,0.13-.13,0.13-.13,0.48,0.48h0ZM386,549.82l1.9,1.9H386v-1.89h0Zm-4.25,0-0.14-1.21h1.29l0,0.34h0l-0.1.87h-1ZM397.38,569l-3.56-3.56a0.35,0.35,0,0,0-.49.49l0.68,0.68L392.65,568l-2.79-2.79a0.38,0.38,0,0,1,0-.54l0,0h0l0.74-.74h0l0,0a0.38,0.38,0,0,1,.54,0l1.1,1.1a0.35,0.35,0,0,0,.49-0.49l-1.1-1.1a1.08,1.08,0,0,0-1.28-.18l-0.55-.55a6.3,6.3,0,0,0-.58-8.24l-0.23-.21v-2.07h0a0.35,0.35,0,0,0-.1-0.25h0l-3.1-3.1a0.35,0.35,0,0,0-.25-0.1h-2l0-.33a0.35,0.35,0,0,0-.35-0.39H381.2a0.35,0.35,0,0,0-.35.39l0,0.33h-5.57a0.35,0.35,0,0,0-.35.35v2.17a0.35,0.35,0,0,0,.7,0v-1.82H381l0.1,0.87a0.35,0.35,0,0,0,.35.31h1.64a0.35,0.35,0,0,0,.35-0.31l0.1-.87h1.78l0,2.73a0.35,0.35,0,0,0,.35.35l2.73,0v1.18a6.29,6.29,0,0,0-5.34-.82,0.35,0.35,0,0,0,.2.67,5.6,5.6,0,0,1,5.91,9,6.53,6.53,0,0,1-.71.71,5.6,5.6,0,0,1-7.55-8.26A5.62,5.62,0,0,1,382,554a0.35,0.35,0,0,0-.36-0.6,6.3,6.3,0,0,0-1.21,9.85,6.3,6.3,0,0,0,8,.76v2.32H375.67V552.58a0.35,0.35,0,1,0-.7,0V566.7a0.35,0.35,0,0,0,.35.35h13.41a0.35,0.35,0,0,0,.35-0.35v-1.58a1.07,1.07,0,0,0,.29.55l3,3,1.08,1.08,0.34,0.34h0l1.22,1.22a1.08,1.08,0,0,0,1.52,0l0.82-.82A1.08,1.08,0,0,0,397.38,569Z" transform="translate(-374.97 -547.91)" fill="#0b050c" fill-rule="evenodd"/>
    <path d="M382,557.94h2.64a0.35,0.35,0,0,0,0-.7H382A0.35,0.35,0,0,0,382,557.94Z" transform="translate(-374.97 -547.91)" fill="#0b050c" fill-rule="evenodd"/>
    <path d="M382,559.39h6a0.35,0.35,0,1,0,0-.7h-6A0.35,0.35,0,0,0,382,559.39Z" transform="translate(-374.97 -547.91)" fill="#0b050c" fill-rule="evenodd"/>
    <path d="M388,559.76h-6a0.35,0.35,0,0,0,0,.7h6A0.35,0.35,0,1,0,388,559.76Z" transform="translate(-374.97 -547.91)" fill="#0b050c" fill-rule="evenodd"/>
  </g>
</svg>
