<svg id="ddc9f9bd-f4eb-4213-a770-c54934f8b83b" data-name="Layer 1" xmlns="http://www.w3.org/2000/svg" viewBox="0 0 24 24">
  <title>community_social_services</title>
  <g>
    <circle cx="12" cy="2.4" r="2" fill="#fcc6a7"/>
    <path d="M352.22,88.5V85.3a0.8,0.8,0,0,1,.8-0.8h1.6l0.8,0.8,0.8-.8h1.6a0.8,0.8,0,0,1,.8.8v3.2a0.8,0.8,0,0,1-.8.8H353A0.8,0.8,0,0,1,352.22,88.5Z" transform="translate(-343.42 -78.9)" fill="#00a9e6" fill-rule="evenodd"/>
    <path d="M347.82,91.3a0.4,0.4,0,0,1-.28-0.68l2.8-2.8a0.4,0.4,0,0,1,.57.57l-2.8,2.8A0.4,0.4,0,0,1,347.82,91.3Z" transform="translate(-343.42 -78.9)" fill="#245388" fill-rule="evenodd"/>
    <path d="M363,91.3a0.4,0.4,0,0,1-.28-0.12l-2.8-2.8a0.4,0.4,0,0,1,.57-0.57l2.8,2.8A0.4,0.4,0,0,1,363,91.3Z" transform="translate(-343.42 -78.9)" fill="#245388" fill-rule="evenodd"/>
    <path d="M359,100.5h-7.2a0.4,0.4,0,0,1,0-.8H359A0.4,0.4,0,0,1,359,100.5Z" transform="translate(-343.42 -78.9)" fill="#245388" fill-rule="evenodd"/>
    <path d="M352.62,88.5l-0.4,0v0a0.8,0.8,0,0,0,.8.8h4.8a0.8,0.8,0,0,0,.8-0.8V85.3a0.8,0.8,0,0,0-.19-0.52A6.4,6.4,0,0,1,352.62,88.5Z" transform="translate(-343.42 -78.9)" fill="#0092cd" fill-rule="evenodd"/>
    <path d="M343.82,101.7V98.5a0.8,0.8,0,0,1,.8-0.8h1.6l0.8,0.8,0.8-.8h1.6a0.8,0.8,0,0,1,.8.8v3.2a0.8,0.8,0,0,1-.8.8h-4.8A0.8,0.8,0,0,1,343.82,101.7Z" transform="translate(-343.42 -78.9)" fill="#ee2f51" fill-rule="evenodd"/>
    <path d="M344.22,101.7l-0.4,0v0a0.8,0.8,0,0,0,.8.8h4.8a0.8,0.8,0,0,0,.8-0.8V98.5A0.8,0.8,0,0,0,350,98,6.4,6.4,0,0,1,344.22,101.7Z" transform="translate(-343.42 -78.9)" fill="#c92832" fill-rule="evenodd"/>
    <path d="M360.62,101.7V98.5a0.8,0.8,0,0,1,.8-0.8H363l0.8,0.8,0.8-.8h1.6a0.8,0.8,0,0,1,.8.8v3.2a0.8,0.8,0,0,1-.8.8h-4.8A0.8,0.8,0,0,1,360.62,101.7Z" transform="translate(-343.42 -78.9)" fill="#f8962f" fill-rule="evenodd"/>
    <path d="M361,101.7l-0.4,0v0a0.8,0.8,0,0,0,.8.8h4.8a0.8,0.8,0,0,0,.8-0.8V98.5a0.79,0.79,0,0,0-.19-0.52A6.4,6.4,0,0,1,361,101.7Z" transform="translate(-343.42 -78.9)" fill="#f47630" fill-rule="evenodd"/>
    <path d="M356.62,79.71a2,2,0,0,1-2.79,2.79A2,2,0,1,0,356.62,79.71Z" transform="translate(-343.42 -78.9)" fill="#fbb998" fill-rule="evenodd"/>
    <circle cx="20.4" cy="15.6" r="2" fill="#fcc6a7"/>
    <path d="M365,92.91a2,2,0,0,1-2.79,2.79A2,2,0,1,0,365,92.91Z" transform="translate(-343.42 -78.9)" fill="#fbb998" fill-rule="evenodd"/>
    <circle cx="3.6" cy="15.6" r="2" fill="#fcc6a7"/>
    <path d="M348.22,92.91a2,2,0,0,1-2.79,2.79A2,2,0,1,0,348.22,92.91Z" transform="translate(-343.42 -78.9)" fill="#fbb998" fill-rule="evenodd"/>
    <path d="M353.82,81.3a1.6,1.6,0,1,1,1.6,1.6,1.6,1.6,0,0,1-1.6-1.6h0Zm4,0a2.4,2.4,0,1,0-2.4,2.4A2.4,2.4,0,0,0,357.82,81.3Z" transform="translate(-343.42 -78.9)" fill="#0b050c" fill-rule="evenodd"/>
    <path d="M355.42,85.87l1-1h1.43a0.4,0.4,0,0,1,.4.4v3.2a0.4,0.4,0,0,1-.4.4H353a0.4,0.4,0,0,1-.4-0.4V85.3a0.4,0.4,0,0,1,.4-0.4h1.43l1,1h0Zm-3.6-.57v3.2a1.2,1.2,0,0,0,1.2,1.2h4.8a1.2,1.2,0,0,0,1.2-1.2V85.3a1.2,1.2,0,0,0-1.2-1.2h-1.77l-0.63.63-0.63-.63H353A1.2,1.2,0,0,0,351.82,85.3Z" transform="translate(-343.42 -78.9)" fill="#0b050c" fill-rule="evenodd"/>
    <path d="M363.82,92.9a1.6,1.6,0,1,1-1.6,1.6,1.6,1.6,0,0,1,1.6-1.6h0Zm0,4a2.4,2.4,0,1,0-2.4-2.4A2.4,2.4,0,0,0,363.82,96.9Z" transform="translate(-343.42 -78.9)" fill="#0b050c" fill-rule="evenodd"/>
    <path d="M366.62,101.7a0.4,0.4,0,0,1-.4.4h-4.8a0.4,0.4,0,0,1-.4-0.4V98.5a0.4,0.4,0,0,1,.4-0.4h1.43l1,1,1-1h1.43a0.4,0.4,0,0,1,.4.4v3.2h0Zm-0.4-4.4h-1.77l-0.63.63-0.63-.63h-1.77a1.2,1.2,0,0,0-1.2,1.2v3.2a1.2,1.2,0,0,0,1.2,1.2h4.8a1.2,1.2,0,0,0,1.2-1.2V98.5A1.2,1.2,0,0,0,366.22,97.3Z" transform="translate(-343.42 -78.9)" fill="#0b050c" fill-rule="evenodd"/>
    <path d="M348.62,94.5a1.6,1.6,0,1,1-1.6-1.6,1.6,1.6,0,0,1,1.6,1.6h0Zm-4,0a2.4,2.4,0,1,0,2.4-2.4A2.4,2.4,0,0,0,344.62,94.5Z" transform="translate(-343.42 -78.9)" fill="#0b050c" fill-rule="evenodd"/>
    <path d="M344.22,98.5a0.4,0.4,0,0,1,.4-0.4h1.43l1,1,1-1h1.43a0.4,0.4,0,0,1,.4.4v3.2a0.4,0.4,0,0,1-.4.4h-4.8a0.4,0.4,0,0,1-.4-0.4V98.5h0Zm0.4,4.4h4.8a1.2,1.2,0,0,0,1.2-1.2V98.5a1.2,1.2,0,0,0-1.2-1.2h-1.77l-0.63.63-0.63-.63h-1.77a1.2,1.2,0,0,0-1.2,1.2v3.2A1.2,1.2,0,0,0,344.62,102.9Z" transform="translate(-343.42 -78.9)" fill="#0b050c" fill-rule="evenodd"/>
  </g>
</svg>
