<svg id="Layer_1" data-name="Layer 1" xmlns="http://www.w3.org/2000/svg" viewBox="0 0 17.87 27.02"><defs><style>.cls-1,.cls-2{fill:#464241;}.cls-2,.cls-4,.cls-5{fill-rule:evenodd;}.cls-3{fill:#fff;}.cls-4{fill:#1a1a18;}.cls-5{fill:#3b3b3a;}</style></defs><title>flexible_hour</title><circle class="cls-1" cx="8.87" cy="20.18" r="6.43"/><path class="cls-2" d="M103.3,263.49a8.15,8.15,0,0,1-1.67-10.84l0.71,0.47a7.29,7.29,0,0,0,1.49,9.7Z" transform="translate(-100.27 -236.98)"/><path class="cls-2" d="M115,263.61l-0.53-.68a7.29,7.29,0,0,0,1.62-9.8l0.71-.47A8.15,8.15,0,0,1,115,263.61Z" transform="translate(-100.27 -236.98)"/><circle class="cls-3" cx="8.87" cy="20.18" r="5.15"/><polygon class="cls-2" points="8.93 20.69 6.1 19.28 6.49 18.51 8.81 19.67 11.59 17.28 12.15 17.93 8.93 20.69"/><polygon class="cls-2" points="15.6 27.02 14.02 26.5 14.02 24.9 14.87 24.9 14.87 25.88 15.87 26.21 15.6 27.02"/><polygon class="cls-2" points="1.74 17.32 1.44 16.44 0.56 16.73 0.29 15.91 1.99 15.35 2.55 17.04 1.74 17.32"/><path class="cls-2" d="M112.15,239.55h-0.86v-1.29a0.43,0.43,0,0,0-.43-0.43h-3.43a0.43,0.43,0,0,0-.43.43v1.29h-0.86v-1.29a1.29,1.29,0,0,1,1.29-1.29h3.43a1.29,1.29,0,0,1,1.29,1.29v1.29Z" transform="translate(-100.27 -236.98)"/><rect class="cls-1" x="12.73" y="10.29" width="0.86" height="0.86"/><rect class="cls-1" x="11.01" y="10.29" width="0.86" height="0.86"/><rect class="cls-1" x="9.3" y="10.29" width="0.86" height="0.86"/><polygon class="cls-2" points="10.58 8.62 7.15 8.62 7.15 6.47 8.01 6.47 8.01 7.76 9.73 7.76 9.73 6.47 10.58 6.47 10.58 8.62"/><path class="cls-2" d="M112.15,239.76h-0.86v-1.29a0.43,0.43,0,0,0-.43-0.43h-3.43a0.43,0.43,0,0,0-.43.43v1.29h-0.86v-1.29a1.29,1.29,0,0,1,1.29-1.29h3.43a1.29,1.29,0,0,1,1.29,1.29v1.29Z" transform="translate(-100.27 -236.98)"/><path class="cls-4" d="M114.4,250.73H103.88a1.91,1.91,0,0,1-1.91-1.91v-9.08h14.34v9.08a1.91,1.91,0,0,1-1.91,1.91h0Zm-0.27-.39a1.78,1.78,0,0,0,1.81-1.75v-8.3H102.35v8.3a1.78,1.78,0,0,0,1.81,1.75h10Z" transform="translate(-100.27 -236.98)"/><path class="cls-5" d="M102,241.65h0a1.91,1.91,0,0,0,1.91,1.91H114.4a1.91,1.91,0,0,0,1.91-1.91h0v-1.91H116v1.72h0a1.78,1.78,0,0,1-1.84,1.72h-10.1a1.78,1.78,0,0,1-1.84-1.72h0v-1.72H102v1.91Z" transform="translate(-100.27 -236.98)"/><rect class="cls-1" x="13.38" y="11.1" width="0.8" height="0.8"/><rect class="cls-1" x="11.77" y="11.1" width="0.8" height="0.8"/><rect class="cls-1" x="10.17" y="11.1" width="0.8" height="0.8"/></svg>