<svg id="ccae47f6-b062-4420-a6f6-9362663d877c" data-name="Layer 1" xmlns="http://www.w3.org/2000/svg" viewBox="0 0 24 24">
  <title>business_developers</title>
  <g>
    <path d="M385,62.31h0a1.71,1.71,0,0,1-1.71-1.71V60.17A1.71,1.71,0,0,1,385,58.46h0a1.71,1.71,0,0,1,1.71,1.71V60.6A1.71,1.71,0,0,1,385,62.31Z" transform="translate(-377.21 -58)" fill="#fdcc99" fill-rule="evenodd"/>
    <polygon points="20.63 17.16 20.63 3.9 21.25 3.9 19.69 1.41 18.13 3.9 18.75 3.9 18.75 17.16 20.63 17.16" fill="#f05160" fill-rule="evenodd"/>
    <path d="M387.48,76.65V71.59h-2.11V78.9h-2.06V65.41h3.34v3.73h1A1.87,1.87,0,0,1,389.54,71v5.63h-2.06Z" transform="translate(-377.21 -58)" fill="#4460ac" fill-rule="evenodd"/>
    <path d="M378.62,78.9h5.81a0.94,0.94,0,0,1,.94.94v1.69h-7.69V79.84A0.94,0.94,0,0,1,378.62,78.9Z" transform="translate(-377.21 -58)" fill="#d0e7c7" fill-rule="evenodd"/>
    <path d="M386.31,76.65h5.81a0.94,0.94,0,0,1,.94.94v3.94h-7.69V77.59A0.94,0.94,0,0,1,386.31,76.65Z" transform="translate(-377.21 -58)" fill="#9cd08c" fill-rule="evenodd"/>
    <path d="M394,75.15h5.81a0.94,0.94,0,0,1,.94.94v5.44h-7.69V76.09A0.94,0.94,0,0,1,394,75.15Z" transform="translate(-377.21 -58)" fill="#76c155" fill-rule="evenodd"/>
    <path d="M386.65,66.66h0a1.11,1.11,0,0,0,1.11,1.11h2.43a0.92,0.92,0,0,0,.92-0.92h0a0.92,0.92,0,0,0-.92-0.92h-1.67v-1a2.62,2.62,0,0,0-2.62-2.63h-1.83a2.62,2.62,0,0,0-2.62,2.63v2.37a1.93,1.93,0,0,0,1.93,1.93h3.28V66.66Z" transform="translate(-377.21 -58)" fill="#60c6c7" fill-rule="evenodd"/>
    <path d="M400.27,81.06h-6.75v-5a0.47,0.47,0,0,1,.47-0.47h5.81a0.47,0.47,0,0,1,.47.47v5h0Zm-14.44-3.47a0.47,0.47,0,0,1,.47-0.47h5.81a0.47,0.47,0,0,1,.47.47v3.47h-6.75V77.59h0Zm-7.69,2.25a0.47,0.47,0,0,1,.47-0.47h5.81a0.47,0.47,0,0,1,.47.47v1.22h-6.75V79.84h0ZM387,72.05v4.13h-0.71a1.4,1.4,0,0,0-.47.08V72.05H387Zm-3.7-7.11a0.47,0.47,0,0,0-.47.47v3.28a1.4,1.4,0,0,1-.94-1.32V64.94a2.16,2.16,0,0,1,2.16-2.16h1.83A2.16,2.16,0,0,1,388,64.94v1a0.47,0.47,0,0,0,.47.47h1.67a0.45,0.45,0,1,1,0,.9h-2.43a0.65,0.65,0,0,1-.64-0.64V65.41a0.47,0.47,0,1,0-.94,0v3.26h-2.4V65.41a0.47,0.47,0,0,0-.47-0.47h0Zm0.47-4.77a1.24,1.24,0,0,1,2.48,0V60.6a1.24,1.24,0,0,1-2.48,0V60.17h0Zm16,14.51h-1.5V62.36h0.15a0.47,0.47,0,0,0,.4-0.72l-1.56-2.49a0.47,0.47,0,0,0-.79,0l-1.56,2.49a0.47,0.47,0,0,0,.4.72h0.15v9.08a0.47,0.47,0,1,0,.94,0V61.9a0.47,0.47,0,0,0-.27-0.43l0.74-1.18,0.74,1.18a0.47,0.47,0,0,0-.27.43V74.68H394a1.41,1.41,0,0,0-1.41,1.41v0.17a1.4,1.4,0,0,0-.47-0.08H390V71a2.35,2.35,0,0,0-2.34-2.34h-0.55V68.1a1.57,1.57,0,0,0,.64.14h2.43a1.39,1.39,0,0,0,0-2.78H389V64.94a3.1,3.1,0,0,0-2.26-3,2.17,2.17,0,0,0,.48-1.36V60.17a2.18,2.18,0,1,0-4.36,0V60.6a2.17,2.17,0,0,0,.46,1.34,3.1,3.1,0,0,0-2.33,3v2.43a2.34,2.34,0,0,0,1.88,2.29v2.66a0.47,0.47,0,0,0,.94,0v-2.7h3.89A1.41,1.41,0,0,1,389.07,71v5.16h-1.12v-4.6a0.47,0.47,0,0,0-.47-0.47h-2.11a0.47,0.47,0,0,0-.47.47v6.85h-1.12v-2.3a0.47,0.47,0,1,0-.94,0v2.3h-4.22a1.41,1.41,0,0,0-1.41,1.41v1.69a0.47,0.47,0,0,0,.47.47h23.06a0.47,0.47,0,0,0,.47-0.47V76.09A1.41,1.41,0,0,0,399.81,74.68Z" transform="translate(-377.21 -58)" fill="#0b050c" fill-rule="evenodd"/>
    <path d="M383.31,74.61a0.47,0.47,0,1,0-.33-0.14A0.47,0.47,0,0,0,383.31,74.61Z" transform="translate(-377.21 -58)" fill="#0b050c" fill-rule="evenodd"/>
    <path d="M396.29,73.56a0.47,0.47,0,1,0-.33.14A0.47,0.47,0,0,0,396.29,73.56Z" transform="translate(-377.21 -58)" fill="#0b050c" fill-rule="evenodd"/>
  </g>
</svg>
