<svg id="c3510d1b-20cd-4c5e-99c6-9c0690227f38" data-name="Layer 1" xmlns="http://www.w3.org/2000/svg" viewBox="0 0 24 24">
  <title>consulting</title>
  <g>
    <path d="M394.48,124.36V107.81a1.22,1.22,0,0,0-1.2-1.24h-19.2a1.22,1.22,0,0,0-1.2,1.24v16.55h21.6Z" transform="translate(-371.68 -102.02)" fill="#c4c4c3" fill-rule="evenodd"/>
    <rect x="2.8" y="6.21" width="18.4" height="12.41" fill="#00a7d2"/>
    <path d="M395.28,123.12v1.24a1.22,1.22,0,0,1-1.2,1.24h-20.8a1.22,1.22,0,0,1-1.2-1.24h0v-1.24h8l0.8,0.83h5.6l0.8-.83h8Z" transform="translate(-371.68 -102.02)" fill="#949799" fill-rule="evenodd"/>
    <path d="M379.28,104.5h-1.2a1.22,1.22,0,0,0-1.2,1.24v6.62a1.22,1.22,0,0,0,1.2,1.24h1.6l1.2,1.66,1.2-1.66h2.8a1.22,1.22,0,0,0,1.2-1.24h0v-0.83Z" transform="translate(-371.68 -102.02)" fill="#ef433d" fill-rule="evenodd"/>
    <path d="M390.08,111.54h-0.8l-1.2,1.66-1.2-1.66h-6.4a1.22,1.22,0,0,1-1.2-1.24v-6.62a1.22,1.22,0,0,1,1.2-1.24h9.6a1.22,1.22,0,0,1,1.2,1.24v6.62A1.22,1.22,0,0,1,390.08,111.54Z" transform="translate(-371.68 -102.02)" fill="#f9a13f" fill-rule="evenodd"/>
    <ellipse cx="17.2" cy="14.9" rx="1.2" ry="1.24" fill="#fab393"/>
    <path d="M388.88,118.16a1.63,1.63,0,0,1,1.6,1.66v0.83h-3.2v-0.83A1.63,1.63,0,0,1,388.88,118.16Z" transform="translate(-371.68 -102.02)" fill="#0072b5" fill-rule="evenodd"/>
    <ellipse cx="6.8" cy="14.9" rx="1.2" ry="1.24" fill="#fab393"/>
    <path d="M378.48,118.16a1.63,1.63,0,0,1,1.6,1.66v0.83h-3.2v-0.83A1.63,1.63,0,0,1,378.48,118.16Z" transform="translate(-371.68 -102.02)" fill="#0072b5" fill-rule="evenodd"/>
    <rect x="11.6" y="19.86" width="0.8" height="0.83" fill="#0b050c"/>
    <path d="M394.88,124.36a0.81,0.81,0,0,1-.8.83h-20.8a0.81,0.81,0,0,1-.8-0.83v-0.83h7.43l0.68,0.71a0.39,0.39,0,0,0,.28.12h5.6a0.39,0.39,0,0,0,.28-0.12l0.68-.71h7.43v0.83h0Zm-21.6-16.55v14.9h6.8a0.39,0.39,0,0,1,.28.12l0.68,0.71h5.27l0.68-.71a0.39,0.39,0,0,1,.28-0.12h6.8v-14.9a0.81,0.81,0,0,0-.8-0.83h-1.6v0.83h1.2a0.41,0.41,0,0,1,.4.41v12.41a0.41,0.41,0,0,1-.4.41h-18.4a0.41,0.41,0,0,1-.4-0.41V108.23a0.41,0.41,0,0,1,.4-0.41h2V107h-2.4a0.81,0.81,0,0,0-.8.83h0Zm4.4,9.1a0.8,0.8,0,1,1,.8.83,0.81,0.81,0,0,1-.8-0.83h0Zm0.8,1.66a1.22,1.22,0,0,1,1.2,1.24v0.41h-2.4v-0.41a1.22,1.22,0,0,1,1.2-1.24h0Zm9.6-1.66a0.8,0.8,0,1,1,.8.83,0.81,0.81,0,0,1-.8-0.83h0Zm0.8,1.66a1.22,1.22,0,0,1,1.2,1.24v0.41h-2.4v-0.41a1.22,1.22,0,0,1,1.2-1.24h0ZM378.08,114h1.4l1.08,1.49a0.39,0.39,0,0,0,.56.08l0.08-.08,1.08-1.49h2.6a1.63,1.63,0,0,0,1.6-1.66V112h0.2l1.08,1.49a0.39,0.39,0,0,0,.56.08l0.08-.08,1.08-1.49h0.6a1.63,1.63,0,0,0,1.6-1.66v-1.66h0.8v11.59h-1.6v-0.41a2.09,2.09,0,0,0-.88-1.72,1.7,1.7,0,0,0,0-2.34,1.56,1.56,0,0,0-2.26,0,1.7,1.7,0,0,0,0,2.34l0,0a2.09,2.09,0,0,0-.88,1.72v0.41h-6.4v-0.41a2.09,2.09,0,0,0-.88-1.72,1.7,1.7,0,0,0,0-2.34,1.56,1.56,0,0,0-2.26,0,1.7,1.7,0,0,0,0,2.34l0,0a2.09,2.09,0,0,0-.88,1.72v0.41h-1.6V108.64h1.6v3.72a1.63,1.63,0,0,0,1.6,1.66h0Zm-0.8-8.28a0.81,0.81,0,0,1,.8-0.83h0.8v5.38a1.63,1.63,0,0,0,1.6,1.66h5.2v0.41a0.81,0.81,0,0,1-.8.83h-2.8a0.4,0.4,0,0,0-.32.17l-0.88,1.21L380,113.36a0.4,0.4,0,0,0-.32-0.17h-1.6a0.81,0.81,0,0,1-.8-0.83v-6.62h0Zm2.4-2.07a0.81,0.81,0,0,1,.8-0.83h9.6a0.81,0.81,0,0,1,.8.83v6.62a0.81,0.81,0,0,1-.8.83h-0.8a0.4,0.4,0,0,0-.32.17l-0.88,1.21-0.88-1.21a0.4,0.4,0,0,0-.32-0.17h-6.4a0.81,0.81,0,0,1-.8-0.83v-6.62h0Zm15.6,19h-0.4v-14.9a1.63,1.63,0,0,0-1.6-1.66h-1.6v-2.48a1.63,1.63,0,0,0-1.6-1.66h-9.6a1.63,1.63,0,0,0-1.6,1.66v0.41h-0.8a1.63,1.63,0,0,0-1.6,1.66v0.41h-2.4a1.63,1.63,0,0,0-1.6,1.66v14.9h-0.4a0.41,0.41,0,0,0-.4.41v1.24a1.63,1.63,0,0,0,1.6,1.66h20.8a1.63,1.63,0,0,0,1.6-1.66v-1.24A0.41,0.41,0,0,0,395.28,122.71Z" transform="translate(-371.68 -102.02)" fill="#0b050c" fill-rule="evenodd"/>
    <rect x="11.6" y="2.07" width="6.4" height="0.83" fill="#0b050c"/>
    <rect x="9.2" y="3.72" width="8.8" height="0.83" fill="#0b050c"/>
    <rect x="9.2" y="5.38" width="8.8" height="0.83" fill="#0b050c"/>
    <rect x="9.2" y="7.03" width="7.2" height="0.83" fill="#0b050c"/>
    <rect x="10" y="2.07" width="0.8" height="0.83" fill="#0b050c"/>
  </g>
</svg>
