<svg id="259d9fc2-8894-453f-b4d0-d91752a9c248" data-name="Layer 1" xmlns="http://www.w3.org/2000/svg" viewBox="0 0 21.14 23.17">
  <title>enterpreneurship</title>
  <g>
    <path d="M415.3,202.38a0.72,0.72,0,0,0-.72.72v1.21H416v-1.21A0.72,0.72,0,0,0,415.3,202.38Z" transform="translate(-412.2 -196.61)" fill="#aaaeae" fill-rule="evenodd"/>
    <path d="M420.77,207.81l0.68,4.07a2,2,0,0,0,2-2Z" transform="translate(-412.2 -196.61)" fill="#7e8182" fill-rule="evenodd"/>
    <path d="M419.42,209.85a2,2,0,0,0,2,2v-4.07Z" transform="translate(-412.2 -196.61)" fill="#949799" fill-rule="evenodd"/>
    <polygon points="10.61 7.81 9.26 7.81 7.9 10.52 9.26 13.24 10.61 13.24 11.29 10.52 10.61 7.81" fill="#bde6f2" fill-rule="evenodd"/>
    <polygon points="9.26 7.81 7.9 7.81 7.22 10.52 7.9 13.24 9.26 13.24 9.26 7.81" fill="#fff" fill-rule="evenodd"/>
    <path d="M419.64,204.42a0.91,0.91,0,0,0-.91.91v7.24h1.36v-8.15h-0.45Z" transform="translate(-412.2 -196.61)" fill="#00aad4" fill-rule="evenodd"/>
    <path d="M423.26,204.42h-0.45v8.15h1.36v-7.24A0.91,0.91,0,0,0,423.26,204.42Z" transform="translate(-412.2 -196.61)" fill="#00aad4" fill-rule="evenodd"/>
    <polygon points="5.18 12.56 3.83 12.56 2.47 10.18 3.83 7.13 5.18 7.13 5.18 12.56" fill="#76cfe7" fill-rule="evenodd"/>
    <polygon points="3.83 8.49 2.38 7.13 1.02 7.13 1.02 12.56 3.83 12.56 3.83 8.49" fill="#bde6f2" fill-rule="evenodd"/>
    <rect x="2.38" y="7.13" width="1.45" height="1.36" fill="#7e8182"/>
    <polygon points="15.39 14.6 17.43 18.22 18.78 18.22 18.78 15.5 15.39 14.6" fill="#504e52" fill-rule="evenodd"/>
    <polygon points="13.35 15.5 13.35 18.22 17.43 18.22 17.43 14.6 13.35 15.5" fill="#67686a" fill-rule="evenodd"/>
    <polygon points="17.43 14.14 15.84 14.82 17.43 15.5 18.78 15.5 18.78 14.14 17.43 14.14" fill="#67686a" fill-rule="evenodd"/>
    <rect x="13.35" y="14.14" width="4.07" height="1.36" fill="#7e8182"/>
    <path d="M422.68,199.39h-1.22v3.67A2,2,0,0,0,422.68,199.39Z" transform="translate(-412.2 -196.61)" fill="#f7a39f" fill-rule="evenodd"/>
    <path d="M422.05,200.06a5.48,5.48,0,0,1,.08,1c0,1.13-.3,2-0.68,2a2,2,0,0,1-2-2Z" transform="translate(-412.2 -196.61)" fill="#fbcbc7" fill-rule="evenodd"/>
    <path d="M422.68,199.39a4.09,4.09,0,0,1-.62.66l-0.6-1.07A2,2,0,0,1,422.68,199.39Z" transform="translate(-412.2 -196.61)" fill="#451b1d" fill-rule="evenodd"/>
    <path d="M419.42,201a2,2,0,0,1,2-2,1.14,1.14,0,0,1,.6,1.07A4.06,4.06,0,0,1,419.42,201Z" transform="translate(-412.2 -196.61)" fill="#6b2c2d" fill-rule="evenodd"/>
    <circle cx="16.72" cy="4.41" r="4.07" fill="#b15847"/>
    <path d="M428.92,198.31v5.43A2.72,2.72,0,0,0,428.92,198.31Z" transform="translate(-412.2 -196.61)" fill="#bde6f2" fill-rule="evenodd"/>
    <path d="M430.28,201c0-1.5-.61-2.72-1.36-2.72a2.72,2.72,0,1,0,0,5.43C429.67,203.74,430.28,202.52,430.28,201Z" transform="translate(-412.2 -196.61)" fill="#fff" fill-rule="evenodd"/>
    <path d="M425.89,214.49v-2h2v0.34a0.34,0.34,0,1,0,.68,0v-0.34h2v2h-4.75Zm4.75-3.39v0.68h-4.75v-0.68h4.75Zm-3.39-1.36h2v0.68h-2v-0.68h0Zm-3.42,2.49h-0.68v-7.47h0.11a0.57,0.57,0,0,1,.57.57v6.9h0Zm-2.38-.68a1.69,1.69,0,0,1-1-.34v-1h2v1a1.69,1.69,0,0,1-1,.34h0Zm-0.34-6.79v3.73a0.34,0.34,0,0,0,.68,0v-3.73h0.68v4.75h-2v-4.75h0.68ZM417,208.83h-3.49v-2h0.34a0.34,0.34,0,0,0,0-.68h-0.34v-2h0.68v1a0.34,0.34,0,0,0,.34.34H416a0.34,0.34,0,0,0,.34-0.34v-1H417v4.75h0Zm-2.13-4.75v0.68h0.77v-0.68h-0.77Zm0-1a0.38,0.38,0,1,1,.77,0v0.29h-0.77v-0.29h0ZM431,210.42h-1v-1a0.34,0.34,0,0,0-.34-0.34h-1.05a4.42,4.42,0,0,0-4.11-4.06,1.25,1.25,0,0,0-1.2-.92h-3.62a1.25,1.25,0,0,0-1.2.91h-0.73v-1.24a0.34,0.34,0,0,0-.34-0.34h-1v-0.29a1.06,1.06,0,1,0-2.13,0v0.29h-1a0.34,0.34,0,0,0-.34.34v2.38h-0.34a0.34,0.34,0,0,0,0,.68h0.34v2.38a0.34,0.34,0,0,0,.34.34h4.16a0.34,0.34,0,0,0,.34-0.34v-3.51h0.68v4.19a0.34,0.34,0,1,0,.68,0v-4.53a0.57,0.57,0,0,1,.57-0.57h0.11v7.47h-0.68v-1a0.34,0.34,0,1,0-.68,0v1.36a0.34,0.34,0,0,0,.34.34h1v5.84l-1.13.38a0.34,0.34,0,0,0,.11.66l0.11,0,1.36-.45a0.34,0.34,0,0,0,.23-0.32v-7a2.38,2.38,0,0,0,2,0v7a0.34,0.34,0,0,0,.23.32l1.36,0.45,0.11,0a0.34,0.34,0,0,0,.11-0.66l-1.13-.37v-5.84h1a0.34,0.34,0,0,0,.34-0.34v-6.89a3.74,3.74,0,0,1,3.38,3.38h-1a0.34,0.34,0,0,0-.34.34v1h-1a0.34,0.34,0,0,0-.34.34v4.07a0.34,0.34,0,0,0,.34.34H431a0.34,0.34,0,0,0,.34-0.34v-4.07A0.34,0.34,0,0,0,431,210.42Z" transform="translate(-412.2 -196.61)" fill="#0b050c" fill-rule="evenodd"/>
    <path d="M421.45,199.33a1.69,1.69,0,0,1,.71.16,3.7,3.7,0,0,1-2.37,1.18,1.7,1.7,0,0,1,1.66-1.34h0Zm1.7,1.7a1.69,1.69,0,0,0-.44-1.14,4.37,4.37,0,0,1-2.92,1.46,1.7,1.7,0,0,0,3.36-.32h0Zm-1.7,2.38a2.38,2.38,0,1,0-2.38-2.38A2.38,2.38,0,0,0,421.45,203.4Z" transform="translate(-412.2 -196.61)" fill="#0b050c" fill-rule="evenodd"/>
    <path d="M428.92,204.76a3.73,3.73,0,1,1,3.73-3.73,3.74,3.74,0,0,1-3.73,3.73h0Zm0-8.15a4.41,4.41,0,1,0,4.41,4.41A4.42,4.42,0,0,0,428.92,196.61Z" transform="translate(-412.2 -196.61)" fill="#0b050c" fill-rule="evenodd"/>
    <path d="M428.92,203.4A2.38,2.38,0,1,1,431.3,201a2.38,2.38,0,0,1-2.38,2.38h0Zm0-5.43A3.06,3.06,0,1,0,432,201,3.06,3.06,0,0,0,428.92,198Z" transform="translate(-412.2 -196.61)" fill="#0b050c" fill-rule="evenodd"/>
    <path d="M430.28,200.68h-1v-1a0.34,0.34,0,1,0-.68,0V201a0.34,0.34,0,0,0,.34.34h1.36A0.34,0.34,0,1,0,430.28,200.68Z" transform="translate(-412.2 -196.61)" fill="#0b050c" fill-rule="evenodd"/>
  </g>
</svg>
