<?xml version="1.0" encoding="UTF-8"?>
<!DOCTYPE svg PUBLIC "-//W3C//DTD SVG 1.1//EN" "http://www.w3.org/Graphics/SVG/1.1/DTD/svg11.dtd">
<!-- Creator: CorelDRAW X7 -->
<svg xmlns="http://www.w3.org/2000/svg" xml:space="preserve" width="28.4028mm" height="8.4672mm" version="1.1" style="shape-rendering:geometricPrecision; text-rendering:geometricPrecision; image-rendering:optimizeQuality; fill-rule:evenodd; clip-rule:evenodd"
viewBox="0 0 808 241"
 xmlns:xlink="http://www.w3.org/1999/xlink">
 <defs>
  <style type="text/css">
   <![CDATA[
    .fil0 {fill:#FEE187}
    .fil1 {fill:#FFC61B}
   ]]>
  </style>
 </defs>
 <g id="Layer_x0020_1">
  <metadata id="CorelCorpID_0Corel-Layer"/>
  <g id="_2331973281472">
   <path class="fil0" d="M120 219c-54,0 -98,-44 -98,-99 0,-54 44,-98 98,-98 55,0 99,44 99,98 0,55 -44,99 -99,99z"/>
   <path class="fil1" d="M120 241c-66,0 -120,-54 -120,-121 0,-66 54,-120 120,-120 67,0 121,54 121,120 0,67 -54,121 -121,121zm0 -197c-42,0 -76,34 -76,76 0,43 34,77 76,77 43,0 77,-34 77,-77 0,-42 -34,-76 -77,-76z"/>
   <path class="fil0" d="M404 219c-54,0 -98,-44 -98,-99 0,-54 44,-98 98,-98 55,0 99,44 99,98 0,55 -44,99 -99,99z"/>
   <path class="fil1" d="M404 241c-66,0 -120,-54 -120,-121 0,-66 54,-120 120,-120 67,0 121,54 121,120 0,67 -54,121 -121,121zm0 -197c-42,0 -77,34 -77,76 0,43 35,77 77,77 42,0 77,-34 77,-77 0,-42 -35,-76 -77,-76z"/>
   <path class="fil1" d="M688 241c-67,0 -121,-54 -121,-121 0,-66 54,-120 121,-120 66,0 120,54 120,120 0,13 -10,22 -22,22 -12,0 -22,-9 -22,-22 0,-42 -34,-76 -76,-76 -42,0 -77,34 -77,76 0,43 35,77 77,77 14,0 27,-4 39,-11 11,-6 24,-3 30,8 7,10 3,23 -7,30 -19,11 -40,17 -62,17z"/>
  </g>
 </g>
</svg>
