<svg id="3039a2d4-7911-487a-b831-1f33467b4d04" data-name="Layer 1" xmlns="http://www.w3.org/2000/svg" viewBox="0 0 24 14.38">
  <title>military_protective_services</title>
  <g>
    <path d="M317.44,411.44a8.33,8.33,0,0,0,.93.14,6.28,6.28,0,0,1-.93,0C317.44,411.51,317.44,411.44,317.44,411.44Z" transform="translate(-311.43 -409.18)" fill="#008047" fill-rule="evenodd"/>
    <path d="M323.43,423.17c-0.28-.16-0.54-0.33-0.8-0.51,5.12-3.54,5.22-9.86,5.2-11a8.6,8.6,0,0,0,1.6-.19S329.93,419.41,323.43,423.17Z" transform="translate(-311.43 -409.18)" fill="#008047" fill-rule="evenodd"/>
    <polygon points="10.27 9.38 10.6 7.36 9.2 5.92 11.14 5.63 12 3.78 12.86 5.63 14.8 5.92 13.4 7.36 13.73 9.38 12 8.43 10.27 9.38" fill="#008047" fill-rule="evenodd"/>
    <path d="M325.17,418.57l-1.73-1-1.73,1,0.33-2-1.4-1.43,1.94-.3,0.86-1.84,0.86,1.84,1.94,0.3-1.4,1.43,0.33,2h0Zm2.66-6.94a6.28,6.28,0,0,1-.93,0,4.5,4.5,0,0,1-3.46-2,3.55,3.55,0,0,1-.8.92,5.45,5.45,0,0,1-4.26,1.1,6.28,6.28,0,0,1-.93,0c0,1.17.08,7.48,5.2,11C327.75,419.11,327.86,412.79,327.83,411.63Z" transform="translate(-311.43 -409.18)" fill="#00ad56" fill-rule="evenodd"/>
    <polygon points="14.8 5.92 13.4 7.36 13.73 9.38 12 8.43 10.27 9.38 10.6 7.36 9.2 5.92 11.14 5.63 12 3.78 12.86 5.63 14.8 5.92" fill="#00ad56" fill-rule="evenodd"/>
    <path d="M327.83,411.63a6.28,6.28,0,0,1-.93,0,8.33,8.33,0,0,0,.93-0.14S327.83,411.51,327.83,411.63Z" transform="translate(-311.43 -409.18)" fill="#00ad56" fill-rule="evenodd"/>
    <polygon points="13.4 7.36 13.73 9.38 12 8.43 10.27 9.38 10.6 7.36 9.2 5.92 11.14 5.63 12 3.78 12.86 5.63 14.8 5.92 13.4 7.36" fill="#f8dc34" fill-rule="evenodd"/>
    <path d="M323.43,410.25c0.67,0.79,2.34,2.19,5.6,1.67,0,1.69-.47,7.67-5.6,10.78-5.13-3.11-5.58-9.09-5.6-10.78,3.26,0.52,4.93-.87,5.6-1.67h0Zm-0.2,13.26a0.4,0.4,0,0,0,.4,0c6.63-3.83,6.2-12,6.19-12.1a0.4,0.4,0,0,0-.48-0.37c-4.12.86-5.5-1.57-5.56-1.67a0.42,0.42,0,0,0-.71,0s-1.4,2.54-5.56,1.67a0.4,0.4,0,0,0-.48.37C317,411.5,316.6,419.68,323.23,423.51Z" transform="translate(-311.43 -409.18)" fill="#0b050c" fill-rule="evenodd"/>
    <path d="M311.83,415.37h4.4a0.4,0.4,0,1,0,0-.8h-4.4A0.4,0.4,0,1,0,311.83,415.37Z" transform="translate(-311.43 -409.18)" fill="#0b050c" fill-rule="evenodd"/>
    <path d="M312.23,416.17a0.4,0.4,0,0,0,0,.8h4.4a0.4,0.4,0,0,0,0-.8h-4.4Z" transform="translate(-311.43 -409.18)" fill="#0b050c" fill-rule="evenodd"/>
    <path d="M317.43,418.17a0.4,0.4,0,0,0-.4-0.4h-4.4a0.4,0.4,0,0,0,0,.8H317A0.4,0.4,0,0,0,317.43,418.17Z" transform="translate(-311.43 -409.18)" fill="#0b050c" fill-rule="evenodd"/>
    <path d="M313.43,420.17h4.4a0.4,0.4,0,1,0,0-.8h-4.4A0.4,0.4,0,1,0,313.43,420.17Z" transform="translate(-311.43 -409.18)" fill="#0b050c" fill-rule="evenodd"/>
    <path d="M335,414.57h-4.4a0.4,0.4,0,1,0,0,.8H335A0.4,0.4,0,1,0,335,414.57Z" transform="translate(-311.43 -409.18)" fill="#0b050c" fill-rule="evenodd"/>
    <path d="M330.23,417h4.4a0.4,0.4,0,0,0,0-.8h-4.4A0.4,0.4,0,0,0,330.23,417Z" transform="translate(-311.43 -409.18)" fill="#0b050c" fill-rule="evenodd"/>
    <path d="M329.43,418.17a0.4,0.4,0,0,0,.4.4h4.4a0.4,0.4,0,1,0,0-.8h-4.4A0.4,0.4,0,0,0,329.43,418.17Z" transform="translate(-311.43 -409.18)" fill="#0b050c" fill-rule="evenodd"/>
    <path d="M333.83,419.77a0.4,0.4,0,0,0-.4-0.4H329a0.4,0.4,0,1,0,0,.8h4.4A0.4,0.4,0,0,0,333.83,419.77Z" transform="translate(-311.43 -409.18)" fill="#0b050c" fill-rule="evenodd"/>
    <path d="M321.46,415.38l1.17-.18a0.4,0.4,0,0,0,.3-0.23l0.5-1.07,0.5,1.07a0.4,0.4,0,0,0,.3.23l1.16,0.18-0.86.88a0.4,0.4,0,0,0-.11.34l0.2,1.21-1-.56a0.4,0.4,0,0,0-.39,0l-1,.56,0.2-1.21a0.4,0.4,0,0,0-.11-0.34l-0.86-.88h0Zm0,3.51a0.4,0.4,0,0,0,.42,0l1.54-.85,1.54,0.85a0.4,0.4,0,0,0,.59-0.41l-0.3-1.83,1.26-1.29a0.4,0.4,0,0,0-.23-0.67l-1.72-.26-0.77-1.65a0.4,0.4,0,0,0-.72,0l-0.77,1.65-1.72.26a0.4,0.4,0,0,0-.23.67l1.26,1.29-0.3,1.83A0.4,0.4,0,0,0,321.47,418.89Z" transform="translate(-311.43 -409.18)" fill="#0b050c" fill-rule="evenodd"/>
  </g>
</svg>
