<svg id="b9bf0f61-4c6a-4a3f-a5d8-aebfaeb2d09f" data-name="Layer 1" xmlns="http://www.w3.org/2000/svg" viewBox="0 0 26.09 36"><title>qq2</title><path d="M370.26,435.41l3.95,1,0.17,0A0.67,0.67,0,0,0,375,436l2.3-7.39,1.14-8.19v0a1.15,1.15,0,0,0-2.23-.56l-0.25,1-0.24,1-0.31,1.28-0.36,1.46v0h0v0l-0.47,1.87a0.54,0.54,0,0,1-.85.3,2.08,2.08,0,0,1-.84-1.45,1.46,1.46,0,0,1,.63-1.18l0,0,0.55-.38,0.62-2.26a13.52,13.52,0,0,0-2.7-.34,2.16,2.16,0,0,0-1.83.56c-0.13.22-.44,1.25-0.51,5.88,0,2.78,0,5.74.07,7.26A0.68,0.68,0,0,0,370.26,435.41Z" transform="translate(-369.12 -402.94)" fill="#ef7c00" fill-rule="evenodd"/><path d="M375.37,419.16a2.16,2.16,0,0,1,.62-0.79l0.14-.11a2.18,2.18,0,0,1,.79-0.33V405.28a0.47,0.47,0,0,1,.47-0.47h15.5a0.47,0.47,0,0,1,.47.47v15.66h-2.74a2.08,2.08,0,0,0-2.08,2.08v2.74h-9.91l-0.07.46-0.07.47-0.13.93h10.76a2.35,2.35,0,0,0,1.65-.69l3.78-3.8a2.32,2.32,0,0,0,.68-1.64V405.28a2.33,2.33,0,0,0-2.33-2.33h-15.5a2.33,2.33,0,0,0-2.33,2.33v14.92l0.18-.67a2.18,2.18,0,0,1,.13-0.37h0Zm15,5.51V423a0.22,0.22,0,0,1,.22-0.22h1.63Z" transform="translate(-369.12 -402.94)" fill="#ef7c00" fill-rule="evenodd"/><path d="M369.75,438.11l3.47,0.82a0.82,0.82,0,0,0,1-.61l0.05-.22a0.82,0.82,0,0,0-.61-1l-3.47-.82a0.82,0.82,0,0,0-1,.61l-0.05.22A0.82,0.82,0,0,0,369.75,438.11Z" transform="translate(-369.12 -402.94)" fill="#ef7c00" fill-rule="evenodd"/><path d="M381.15,407.79a1.19,1.19,0,0,1,.72-0.2,0.92,0.92,0,0,1,.57.16,1.15,1.15,0,0,1,.35.58,0.46,0.46,0,0,0,.55.31l0.67-.16a0.46,0.46,0,0,0,.34-0.58,2.49,2.49,0,0,0-.9-1.34,2.56,2.56,0,0,0-1.57-.48,3,3,0,0,0-1.46.37,2.56,2.56,0,0,0-1.06,1.1,3.48,3.48,0,0,0-.36,1.61,4,4,0,0,0,.31,1.55,2.57,2.57,0,0,0,1,1.18,2.89,2.89,0,0,0,1.6.41,2.57,2.57,0,0,0,1.64-.54,2.74,2.74,0,0,0,.93-1.52,0.47,0.47,0,0,0-.34-0.57l-0.68-.17a0.46,0.46,0,0,0-.57.35,1.24,1.24,0,0,1-.38.71,1,1,0,0,1-.66.22,1.19,1.19,0,0,1-.63-0.17,1,1,0,0,1-.4-0.5,2.68,2.68,0,0,1-.16-1,2.61,2.61,0,0,1,.14-0.83A1,1,0,0,1,381.15,407.79Z" transform="translate(-369.12 -402.94)" fill="#ef7c00" fill-rule="evenodd"/><path d="M388.27,412.21H389a0.47,0.47,0,0,0,.43-0.3l2-5.11a0.47,0.47,0,0,0-.43-0.63h-0.69a0.46,0.46,0,0,0-.44.3l-1.21,3.27-1.17-3.26a0.46,0.46,0,0,0-.44-0.31h-0.73a0.46,0.46,0,0,0-.43.63l2,5.11A0.46,0.46,0,0,0,388.27,412.21Z" transform="translate(-369.12 -402.94)" fill="#ef7c00" fill-rule="evenodd"/><path d="M379.75,415.28h10.77a0.93,0.93,0,0,0,0-1.86H379.75A0.93,0.93,0,1,0,379.75,415.28Z" transform="translate(-369.12 -402.94)" fill="#ef7c00" fill-rule="evenodd"/><path d="M379.56,418.61l0.19,0h10.77a0.93,0.93,0,0,0,0-1.86H379.75a0.93,0.93,0,0,0-.92.81,1,1,0,0,0,0,.12A0.93,0.93,0,0,0,379.56,418.61Z" transform="translate(-369.12 -402.94)" fill="#ef7c00" fill-rule="evenodd"/></svg>