<svg id="c78c9068-400d-4667-b17e-d787d6cba6f8" data-name="Layer 1" xmlns="http://www.w3.org/2000/svg" viewBox="0 0 36 36"><title>qq3</title><path d="M472.22,431a0.7,0.7,0,0,0-.7.7v5.18a0.7,0.7,0,0,1-.7.7H445.22a0.7,0.7,0,0,1-.7-0.7V405.05a0.7,0.7,0,0,1,.7-0.7h25.59a0.7,0.7,0,0,1,.7.7v7.65a0.7,0.7,0,0,0,1.41,0v-7.65a2.11,2.11,0,0,0-2.11-2.11H445.22a2.11,2.11,0,0,0-2.11,2.11v31.78a2.11,2.11,0,0,0,2.11,2.11h25.59a2.11,2.11,0,0,0,2.11-2.11v-5.18A0.7,0.7,0,0,0,472.22,431Z" transform="translate(-443.11 -402.94)" fill="#009ee3" fill-rule="evenodd"/><path d="M455,417.24a3.52,3.52,0,0,1,6.12,0,5,5,0,0,1-6.12,0h0Zm1.93-4.31v-0.46a1.12,1.12,0,0,1,2.25,0v0.46a1.12,1.12,0,0,1-2.25,0h0Zm1.12-4.78a5.06,5.06,0,0,0-4.07,8.06,4.88,4.88,0,0,1,2.07-1.74,2.52,2.52,0,0,1-.53-1.55v-0.46a2.53,2.53,0,0,1,5.06,0v0.46a2.52,2.52,0,0,1-.53,1.55,4.88,4.88,0,0,1,2.07,1.74,5.06,5.06,0,0,0-4.07-8.06h0Zm6.47,5.06a6.47,6.47,0,1,0-10.91,4.7l0.08,0.07a6.46,6.46,0,0,0,8.73,0l0.08-.07A6.45,6.45,0,0,0,464.49,413.21Z" transform="translate(-443.11 -402.94)" fill="#009ee3" fill-rule="evenodd"/><path d="M461.82,433.74H458a0.7,0.7,0,0,0,0,1.41h3.8A0.7,0.7,0,1,0,461.82,433.74Z" transform="translate(-443.11 -402.94)" fill="#009ee3" fill-rule="evenodd"/><path d="M461.82,429.8h-10a0.7,0.7,0,1,0,0,1.41h10A0.7,0.7,0,1,0,461.82,429.8Z" transform="translate(-443.11 -402.94)" fill="#009ee3" fill-rule="evenodd"/><path d="M461.82,425.87h-10a0.7,0.7,0,1,0,0,1.41h10A0.7,0.7,0,1,0,461.82,425.87Z" transform="translate(-443.11 -402.94)" fill="#009ee3" fill-rule="evenodd"/><path d="M449.33,422.14a0.7,0.7,0,1,0,.21.5A0.71,0.71,0,0,0,449.33,422.14Z" transform="translate(-443.11 -402.94)" fill="#009ee3" fill-rule="evenodd"/><path d="M449.33,426.07a0.7,0.7,0,1,0,.21.5A0.71,0.71,0,0,0,449.33,426.07Z" transform="translate(-443.11 -402.94)" fill="#009ee3" fill-rule="evenodd"/><path d="M448.83,429.8a0.7,0.7,0,1,0,.5.21A0.71,0.71,0,0,0,448.83,429.8Z" transform="translate(-443.11 -402.94)" fill="#009ee3" fill-rule="evenodd"/><path d="M461.82,421.93h-10a0.7,0.7,0,1,0,0,1.41h10A0.7,0.7,0,1,0,461.82,421.93Z" transform="translate(-443.11 -402.94)" fill="#009ee3" fill-rule="evenodd"/><path d="M477.5,415.44l-0.69,1.2-2.68-1.55,0.69-1.2a1.55,1.55,0,0,1,2.68,1.55h0ZM469,430.16l7.1-12.3-2.68-1.55-7.1,12.3,2.68,1.55h0Zm-3.06-.14,2,1.17-2.36,1.74,0.33-2.91h0Zm11.69-17.9a3,3,0,0,0-4,1.08l-8.85,15.33a0.7,0.7,0,0,0-.09.27L464,434.37a0.7,0.7,0,0,0,1.12.64l4.52-3.33a0.7,0.7,0,0,0,.19-0.21l8.85-15.33a2.93,2.93,0,0,0,.4-1.47h0A3,3,0,0,0,477.64,412.11Z" transform="translate(-443.11 -402.94)" fill="#009ee3" fill-rule="evenodd"/></svg>