<?xml version="1.0" encoding="UTF-8"?>
<!DOCTYPE svg PUBLIC "-//W3C//DTD SVG 1.1//EN" "http://www.w3.org/Graphics/SVG/1.1/DTD/svg11.dtd">
<!-- Creator: CorelDRAW X7 -->
<svg xmlns="http://www.w3.org/2000/svg" xml:space="preserve" width="22.3632mm" height="22.3632mm" version="1.1" style="shape-rendering:geometricPrecision; text-rendering:geometricPrecision; image-rendering:optimizeQuality; fill-rule:evenodd; clip-rule:evenodd"
viewBox="0 0 277 277"
 xmlns:xlink="http://www.w3.org/1999/xlink">
 <defs>
  <style type="text/css">
   <![CDATA[
    .str0 {stroke:#00A0E3;stroke-width:6.18672}
    .fil0 {fill:none}
    .fil1 {fill:#00A0E3}
   ]]>
  </style>
 </defs>
 <g id="Layer_x0020_1">
  <metadata id="CorelCorpID_0Corel-Layer"/>
  <g id="_2083212791008">
   <g>
    <path class="fil0 str0" d="M118 4c14,0 25,8 25,19 0,0 0,1 0,1l21 0 0 16 37 0c8,0 14,6 14,14l0 49c0,3 -2,5 -5,5 -2,0 -4,-2 -4,-5l0 -49c0,-2 -2,-5 -5,-5l-37 0 0 22 -92 0 0 -22 -36 0c-3,0 -5,3 -5,5l0 205c0,3 2,5 5,5l165 0c3,0 5,-2 5,-5l0 -33c0,-3 2,-5 4,-5 3,0 5,2 5,5l0 33c0,8 -6,14 -14,14l-165 0c-8,0 -14,-6 -14,-14l0 -205c0,-8 6,-14 14,-14l36 0 0 -16 22 0c-1,0 -1,-1 -1,-1 0,-11 12,-19 25,-19z"/>
    <path class="fil1" d="M104 170l-38 0c-4,0 -7,2 -7,4 0,3 3,5 7,5l38 0c3,0 7,-2 7,-5 0,-2 -4,-4 -7,-4z"/>
    <path class="fil1" d="M165 144l-99 0c-4,0 -7,2 -7,5 0,2 3,4 7,4l99 0c4,0 7,-2 7,-4 0,-3 -3,-5 -7,-5z"/>
    <path class="fil1" d="M165 119l-99 0c-4,0 -7,2 -7,4 0,3 3,5 7,5l99 0c4,0 7,-2 7,-5 0,-2 -3,-4 -7,-4z"/>
    <path class="fil1" d="M165 93l-99 0c-4,0 -7,2 -7,5 0,2 3,5 7,5l99 0c4,0 7,-3 7,-5 0,-3 -3,-5 -7,-5z"/>
    <path class="fil1" d="M244 121l-4 8 -18 -10 5 -8c1,-2 3,-4 6,-5 3,0 5,0 8,1 2,2 4,4 4,7 1,2 1,5 -1,7zm-55 95l-17 -10 46 -79 17 10 -46 79zm-19 -1l13 8 -16 11 3 -19zm75 -115c-4,-3 -9,-4 -14,-2 -5,1 -9,4 -12,9l-57 99c0,0 -1,1 -1,1l-4 36c0,2 1,4 3,5 0,0 1,1 2,1 1,0 2,-1 2,-1l30 -22c0,0 1,-1 1,-1l57 -99c2,-3 3,-7 3,-10l0 0c0,-6 -4,-13 -10,-16z"/>
    <path class="fil1" d="M150 221l-85 0c-4,0 -6,2 -6,4 0,3 2,5 6,5l85 0c3,0 6,-2 6,-5 0,-2 -3,-4 -6,-4z"/>
    <path class="fil1" d="M150 195l-85 0c-4,0 -6,2 -6,5 0,2 2,4 6,4l85 0c3,0 6,-2 6,-4 0,-3 -3,-5 -6,-5z"/>
   </g>
   <rect class="fil0" width="277" height="277"/>
  </g>
 </g>
</svg>
