<?xml version="1.0" encoding="UTF-8"?>
<!DOCTYPE svg PUBLIC "-//W3C//DTD SVG 1.1//EN" "http://www.w3.org/Graphics/SVG/1.1/DTD/svg11.dtd">
<!-- Creator: CorelDRAW X7 -->
<svg xmlns="http://www.w3.org/2000/svg" xml:space="preserve" width="22.3632mm" height="22.3632mm" version="1.1" style="shape-rendering:geometricPrecision; text-rendering:geometricPrecision; image-rendering:optimizeQuality; fill-rule:evenodd; clip-rule:evenodd"
viewBox="0 0 516 516"
 xmlns:xlink="http://www.w3.org/1999/xlink">
 <defs>
  <style type="text/css">
   <![CDATA[
    .fil1 {fill:none}
    .fil0 {fill:#EF7F1A}
   ]]>
  </style>
 </defs>
 <g id="Layer_x0020_1">
  <metadata id="CorelCorpID_0Corel-Layer"/>
  <g id="_2084953432496">
   <g>
    <path class="fil0" d="M131 131c0,-46 38,-84 85,-84 46,0 84,38 84,84l0 43c0,46 -38,84 -84,84 -47,0 -85,-38 -85,-84l0 -43zm127 338l-190 0c-11,0 -21,-10 -21,-21l0 -21c0,-67 38,-124 94,-152 21,16 47,25 75,25 70,0 126,-57 126,-126l0 -43c0,-69 -56,-126 -126,-126 -70,0 -127,57 -127,126l0 43c0,26 8,50 22,70 -63,37 -106,105 -106,183l0 21c0,35 28,63 63,63l190 0c12,0 21,-10 21,-21 0,-12 -9,-21 -21,-21z"/>
    <path class="fil0" d="M490 363l-85 0 0 -84c0,-12 -9,-21 -21,-21 -11,0 -21,9 -21,21l0 84 -84 0c-12,0 -21,10 -21,21 0,12 9,21 21,21l84 0 0 85c0,11 10,21 21,21 12,0 21,-10 21,-21l0 -85 85 0c11,0 21,-9 21,-21 0,-11 -10,-21 -21,-21z"/>
   </g>
   <rect class="fil1" width="516" height="516"/>
  </g>
 </g>
</svg>
