<?xml version="1.0" encoding="UTF-8"?>
<!DOCTYPE svg PUBLIC "-//W3C//DTD SVG 1.1//EN" "http://www.w3.org/Graphics/SVG/1.1/DTD/svg11.dtd">
<!-- Creator: CorelDRAW X7 -->
<svg xmlns="http://www.w3.org/2000/svg" xml:space="preserve" width="22.3632mm" height="22.3632mm" version="1.1" style="shape-rendering:geometricPrecision; text-rendering:geometricPrecision; image-rendering:optimizeQuality; fill-rule:evenodd; clip-rule:evenodd"
viewBox="0 0 857 857"
 xmlns:xlink="http://www.w3.org/1999/xlink">
 <defs>
  <style type="text/css">
   <![CDATA[
    .fil0 {fill:none}
    .fil1 {fill:#EF7F1A}
   ]]>
  </style>
 </defs>
 <g id="Layer_x0020_1">
  <metadata id="CorelCorpID_0Corel-Layer"/>
  <g id="_2083228190176">
   <rect class="fil0" width="857" height="857"/>
   <path class="fil1" d="M690 545c-28,0 -54,7 -77,20l-291 -141c0,-2 0,-3 0,-5 0,-2 0,-3 0,-5l274 -133c27,20 60,31 94,31 86,0 156,-70 156,-156 0,-86 -70,-156 -156,-156 -77,0 -142,56 -154,131l-303 147c-20,-9 -43,-15 -67,-15 -86,0 -156,70 -156,156 0,86 70,156 156,156 24,0 47,-5 67,-15l301 146c3,84 72,151 156,151 86,0 156,-70 156,-156 0,-86 -70,-156 -156,-156zm-107 -396c4,-56 51,-100 107,-100 59,0 107,48 107,107 0,59 -48,107 -107,107 -27,0 -53,-10 -73,-29 -22,-21 -34,-48 -34,-78 0,-2 0,-5 0,-7zm-46 36c4,21 12,41 24,58l-248 121c-8,-20 -20,-38 -35,-53l259 -126zm-478 234c0,-59 48,-107 107,-107 59,0 108,48 108,107 0,59 -49,107 -108,107 -59,0 -107,-48 -107,-107zm482 236l-263 -128c15,-15 27,-33 35,-53l258 126c-13,16 -24,35 -30,55zm149 153c-59,0 -107,-48 -107,-107 0,-59 48,-107 107,-107 59,0 107,48 107,107 0,59 -48,107 -107,107z"/>
  </g>
 </g>
</svg>
