<svg id="49adb972-d84c-4888-b5b4-17dfd9b5d83c" data-name="Layer 1" xmlns="http://www.w3.org/2000/svg" viewBox="0 0 36 36"><title>qq1</title><path d="M309.92,423.48a2.12,2.12,0,1,1,2.12-2.12,2.12,2.12,0,0,1-2.12,2.12h0Zm0-6.35a4.23,4.23,0,1,0,4.24,4.23A4.24,4.24,0,0,0,309.92,417.14Z" transform="translate(-301.1 -402.94)" fill="#ef7c00" fill-rule="evenodd"/><rect x="18.78" y="15.27" width="4.23" height="2.12" fill="#ef7c00"/><rect x="25.13" y="15.27" width="4.23" height="2.12" fill="#ef7c00"/><rect x="18.78" y="19.5" width="4.23" height="2.12" fill="#ef7c00"/><rect x="25.13" y="19.5" width="4.23" height="2.12" fill="#ef7c00"/><rect x="18.78" y="6.91" width="4.23" height="2.12" fill="#ef7c00"/><rect x="25.13" y="6.91" width="4.23" height="2.12" fill="#ef7c00"/><rect x="18.78" y="11.14" width="4.23" height="2.12" fill="#ef7c00"/><rect x="25.13" y="11.14" width="4.23" height="2.12" fill="#ef7c00"/><path d="M335,431.14h-8.75v-4.37h-2.12v4.37h-9.27c2.62-4.61,3.9-7.81,3.9-9.77a8.81,8.81,0,0,0-3.6-7.1v-7.08h4.31v-2.13h11.29v2.11H335v24h0Zm-25.06,4c2.45-3.78,6.71-10.92,6.71-13.78a6.71,6.71,0,0,0-13.41,0c0,2.86,4.25,10,6.71,13.78h0Zm22.94-30.08v-2.12H317.33v2.13H313v8a8.82,8.82,0,0,0-11.93,8.25c0,2,1.32,5.26,4,10,1.94,3.38,3.91,6.28,3.93,6.31l0.88,1.29,0.88-1.29s1.29-1.91,2.8-4.41h23.5V405.08h-4.23Z" transform="translate(-301.1 -402.94)" fill="#ef7c00" fill-rule="evenodd"/></svg>