<svg id="f3336910-93c6-4b54-8cc2-44c260743992" data-name="Layer 1" xmlns="http://www.w3.org/2000/svg" viewBox="0 0 36 36"><title>qq</title><path d="M251.31,435.56l-1.8,1.8a0.61,0.61,0,0,1-.86,0l-6.5-6.5,2.66-2.66,6.5,6.5a0.61,0.61,0,0,1,0,.86h0Zm-11.19-8.34,1.84,1.84,1-1-1.84-1.84a14,14,0,0,1-1,1h0Zm12.18,6.48-7-7a0.7,0.7,0,0,0-1,0L244,427l-1.94-1.94a13.9,13.9,0,0,0,2.36-5.21,0.7,0.7,0,0,0-1.37-.3,12.52,12.52,0,1,1,.07-5,0.7,0.7,0,0,0,1.38-.26A13.93,13.93,0,1,0,239,428.11l1.94,1.94-0.31.31a0.7,0.7,0,0,0,0,1l7,7a2,2,0,0,0,2.85,0l1.8-1.8a2,2,0,0,0,.59-1.42h0A2,2,0,0,0,252.31,433.71Z" transform="translate(-216.9 -402.94)" fill="#009ee3" fill-rule="evenodd"/><path d="M226.08,418.22v-3.74h0.79a0.7,0.7,0,1,0,0-1.41h-3a0.7,0.7,0,1,0,0,1.41h0.79v3.74a0.79,0.79,0,0,1-1.58,0,0.7,0.7,0,1,0-1.41,0A2.2,2.2,0,0,0,226.08,418.22Z" transform="translate(-216.9 -402.94)" fill="#009ee3" fill-rule="evenodd"/><path d="M233.26,416.74a2.27,2.27,0,1,1-2.27-2.27,2.27,2.27,0,0,1,2.27,2.27h0Zm-5.94,0a3.67,3.67,0,1,0,3.67-3.67A3.68,3.68,0,0,0,227.33,416.74Z" transform="translate(-216.9 -402.94)" fill="#009ee3" fill-rule="evenodd"/><path d="M237.7,419.26H237v-1.69h0.74a0.84,0.84,0,1,1,0,1.69h0ZM237,414.48h0.74a0.84,0.84,0,1,1,0,1.69H237v-1.69h0Zm0.65-1.59h-1.44a0.7,0.7,0,0,0-.7.7v6.19a0.7,0.7,0,0,0,.7.7h1.44a2.25,2.25,0,0,0,2.25-2.25,1.91,1.91,0,0,0-.62-1.55,2,2,0,0,0,.62-1.55A2.25,2.25,0,0,0,237.62,412.89Z" transform="translate(-216.9 -402.94)" fill="#009ee3" fill-rule="evenodd"/><path d="M243.34,416.87v0.05a0.7,0.7,0,0,0,.7.71h0a0.7,0.7,0,0,0,.7-0.7v-0.06A0.7,0.7,0,0,0,243.34,416.87Z" transform="translate(-216.9 -402.94)" fill="#009ee3" fill-rule="evenodd"/><path d="M237.68,410.71a0.7,0.7,0,0,0,.5-1.2,10.41,10.41,0,0,0-14.71,0,0.7,0.7,0,1,0,1,1,9,9,0,0,1,12.72,0A0.7,0.7,0,0,0,237.68,410.71Z" transform="translate(-216.9 -402.94)" fill="#009ee3" fill-rule="evenodd"/><path d="M223.47,423.23a0.7,0.7,0,0,0,0,1h0a0.7,0.7,0,0,0,1-1h0A0.7,0.7,0,0,0,223.47,423.23Z" transform="translate(-216.9 -402.94)" fill="#009ee3" fill-rule="evenodd"/><path d="M225.66,425.9a10.42,10.42,0,0,0,12.51-1.68,0.7,0.7,0,1,0-1-1,9,9,0,0,1-10.82,1.45A0.7,0.7,0,0,0,225.66,425.9Z" transform="translate(-216.9 -402.94)" fill="#009ee3" fill-rule="evenodd"/></svg>