<svg height="983pt" viewBox="0 -1 983.14988 983" width="983pt" xmlns="http://www.w3.org/2000/svg"><path d="m212.730469 16.449219h621.832031v883.65625c0 36.148437-29.304688 65.457031-65.453125 65.457031h-621.832031v-883.65625c0-36.152344 29.304687-65.457031 65.453125-65.457031zm0 0" fill="#ffc170"/><path d="m81.820312 965.5625h687.289063c-36.152344 0-65.457031-29.308594-65.457031-65.457031v-65.457031h-687.289063v65.457031c0 36.148437 29.308594 65.457031 65.457031 65.457031zm0 0" fill="#66a7f6"/><path d="m834.5625 81.90625v65.453125h130.914062v-65.453125c0-36.152344-29.304687-65.457031-65.457031-65.457031-36.148437 0-65.457031 29.304687-65.457031 65.457031zm0 0" fill="#66a7f6"/><path d="m965.476562 556.460938h-65.457031v32.726562-32.726562h-65.457031v32.726562-32.726562h-65.453125v32.726562-32.726562h-65.457031v32.726562-32.726562h-65.457032v32.726562-32.726562h-65.457031v32.726562-32.726562h-65.453125v32.726562-32.726562h-65.457031v32.726562-32.726562h-65.457031v32.726562-32.726562h-65.457032v130.910156h654.5625zm0 0" fill="#c2dcfb"/><path d="m702.484375 429.523438 185.136719-185.136719 46.28125 46.28125-185.132813 185.136719zm0 0" fill="#85b9f8"/><path d="m667.78125 510.511719 80.988281-34.707031-46.28125-46.28125zm0 0" fill="#c2dcfb"/><path d="m957.050781 221.242188c-12.78125-12.773438-33.5-12.773438-46.277343 0l-23.140626 23.140624 46.277344 46.277344 23.140625-23.140625c12.773438-12.777343 12.773438-33.496093 0-46.277343zm0 0" fill="#c2dcfb"/><path d="m229.097656 130.996094h523.644532v32.730468h-523.644532zm0 0"/><path d="m229.097656 196.453125h523.644532v32.726563h-523.644532zm0 0"/><path d="m229.097656 261.910156h523.644532v32.726563h-523.644532zm0 0"/><path d="m229.097656 327.363281h458.191406v32.730469h-458.191406zm0 0"/><path d="m229.097656 392.820312h425.460938v32.726563h-425.460938zm0 0"/><path d="m229.097656 458.277344h392.734375v32.726562h-392.734375zm0 0"/><path d="m834.5625 736.464844c-9.035156 0-16.363281 7.328125-16.363281 16.363281v147.277344c0 27.113281-21.980469 49.089843-49.089844 49.089843-27.113281 0-49.09375-21.976562-49.09375-49.089843v-65.457031c0-9.035157-7.328125-16.363282-16.363281-16.363282h-540.011719v-736.378906c.890625-27.894531 24.140625-49.828125 52.035156-49.09375h619.3125c-10.828125 14.082031-16.726562 31.332031-16.789062 49.09375v147.273438c0 9.039062 7.328125 16.367187 16.363281 16.367187 9.039062 0 16.367188-7.328125 16.367188-16.367187v-65.453126h114.546874c9.035157 0 16.363282-7.328124 16.363282-16.367187v-65.453125c-.054688-45.167969-36.652344-81.765625-81.820313-81.8203125h-684.34375c-45.964843-.7304685-83.867187 35.8554685-84.765625 81.8203125v736.378906h-114.546875c-9.035156 0-16.363281 7.328125-16.363281 16.363282v65.457031c.0546875 45.164062 36.65625 81.765625 81.820312 81.820312h687.289063c45.164063-.054687 81.765625-36.65625 81.816406-81.820312v-147.277344c.003907-9.035156-7.324219-16.363281-16.363281-16.363281zm114.550781-654.558594v49.089844h-98.183593v-49.089844c0-27.113281 21.976562-49.09375 49.089843-49.09375s49.09375 21.980469 49.09375 49.09375zm-916.386719 818.199219v-49.089844h654.5625v49.089844c.058594 17.761719 5.960938 35.011719 16.789063 49.089843h-622.257813c-27.113281 0-49.09375-21.976562-49.09375-49.089843zm0 0"/><path d="m965.476562 540.097656h-654.5625c-9.035156 0-16.363281 7.328125-16.363281 16.363282v130.914062c0 9.035156 7.328125 16.363281 16.363281 16.363281h654.5625c9.035157 0 16.363282-7.328125 16.363282-16.363281v-130.914062c0-9.039063-7.328125-16.363282-16.363282-16.363282zm-16.363281 130.910156h-621.832031v-98.183593h32.726562v16.363281h32.726563v-16.363281h32.730469v16.363281h32.726562v-16.363281h32.730469v16.363281h32.726563v-16.363281h32.726562v16.363281h32.730469v-16.363281h32.726562v16.363281h32.726563v-16.363281h32.730468v16.363281h32.726563v-16.363281h32.726563v16.363281h32.730468v-16.363281h32.726563v16.363281h32.730469v-16.363281h32.726562v16.363281h32.726562v-16.363281h32.730469zm0 0"/><path d="m667.78125 526.875c2.210938.003906 4.402344-.449219 6.433594-1.324219l80.6875-34.546875.246094-.113281c1.703124-.757813 3.261718-1.8125 4.601562-3.109375.160156-.148438.375-.195312.539062-.359375l185.191407-185.175781 23.136719-23.140625c19.175781-19.167969 19.175781-50.25.007812-69.425781-.003906 0-.003906-.003907-.007812-.003907-19.425782-18.542969-49.992188-18.542969-69.414063 0l-23.15625 23.136719-185.125 185.128906c-.164063.164063-.214844.375-.359375.539063-1.300781 1.335937-2.355469 2.894531-3.113281 4.597656l-.160157.246094-34.546874 80.769531c-3.550782 8.3125.304687 17.929688 8.617187 21.480469 2.03125.867187 4.214844 1.316406 6.421875 1.316406zm31.09375-47.457031 9.078125-21.269531 12.109375 12.105468zm223.480469-246.605469c6.46875-6.183594 16.660156-6.183594 23.125 0 6.386719 6.390625 6.386719 16.75 0 23.140625l-11.570313 11.585937-23.15625-23.15625zm-34.738281 34.710938 23.15625 23.152343-162.003907 162.003907-23.15625-23.15625zm0 0"/></svg>